# https://github.com/mikedh/trimesh
v -27.82091331 4.90427351 -50.00000000
v -27.82091141 -4.90427780 -50.00000000
v -24.46446609 14.12586594 -50.00000000
v -18.15940285 21.64015198 -50.00000000
v 18.15939903 21.64015388 -50.00000000
v 9.66138840 26.54627800 -50.00000000
v -9.66139221 26.54627609 -50.00000000
v 24.46446419 14.12586975 -50.00000000
v 27.82091141 4.90427780 -50.00000000
v 27.82091331 -4.90427351 -50.00000000
v 24.46446609 -14.12586594 -50.00000000
v 18.15940285 -21.64015198 -50.00000000
v -18.15939903 -21.64015388 -50.00000000
v -9.66138840 -26.54627800 -50.00000000
v 9.66139221 -26.54627609 -50.00000000
v -24.46446419 -14.12586975 -50.00000000
v 0.00000000 -28.25000000 -50.00000000
v 0.00000000 28.25000000 -50.00000000
v -21.74725723 -29.93416023 -53.00000000
v 21.74726105 -29.93415833 -53.00000000
v -29.93309784 -21.74831390 -53.00000000
v -35.18939209 -11.43200779 -53.00000000
v -37.00000000 -0.00000001 -53.00000000
v -35.18939590 11.43200397 -53.00000000
v -29.93309975 21.74831009 -53.00000000
v -21.74726105 29.93415833 -53.00000000
v 21.74725723 29.93416023 -53.00000000
v 29.93309784 21.74831390 -53.00000000
v 35.18939209 11.43200779 -53.00000000
v 37.00000000 -0.00000001 -53.00000000
v 35.18939590 -11.43200397 -53.00000000
v 29.93309975 -21.74831009 -53.00000000
v 37.50000000 -0.00000001 -53.50000000
v 35.66471863 11.58783531 -53.50000000
v 35.66471863 -11.58783150 -53.50000000
v 30.33827782 -22.04175186 -53.50000000
v -11.43510342 -35.18848038 -53.00000000
v 11.43510818 -35.18848038 -53.00000000
v 22.04209328 -30.33803177 -53.50000000
v 0.00000233 -36.99969864 -53.00000000
v 11.58821964 -35.66459274 -53.50000000
v 0.00000241 -37.50000000 -53.50000000
v -11.58821487 -35.66459274 -53.50000000
v -22.04208946 -30.33803368 -53.50000000
v -30.33827591 -22.04175568 -53.50000000
v -35.66471863 -11.58783531 -53.50000000
v -37.50000000 -0.00000001 -53.50000000
v -35.66471863 11.58783150 -53.50000000
v -30.33827782 22.04175186 -53.50000000
v 11.43510342 35.18848038 -53.00000000
v -11.43510818 35.18848038 -53.00000000
v -22.04209328 30.33803177 -53.50000000
v -0.00000232 36.99969864 -53.00000000
v -11.58821964 35.66459274 -53.50000000
v -0.00000241 37.50000000 -53.50000000
v 11.58821487 35.66459274 -53.50000000
v 22.04208946 30.33803368 -53.50000000
v 30.33827591 22.04175568 -53.50000000
v 73.52592468 -62.00000000 -151.56959534
v 66.81318665 -62.00000000 -160.80909729
v 77.05468750 -62.00000000 -140.70811462
v 46.71220779 -62.00000000 -171.05059814
v 57.57369232 -62.00000000 -167.52183533
v 35.29232788 -62.00000000 -171.05014038
v 24.43215561 -62.00000000 -167.52102661
v 15.19469452 -62.00000000 -160.80940247
v 8.48320961 -62.00000000 -151.57220459
v 4.95398092 -62.00000000 -140.71199036
v 4.95347309 -62.00000000 -129.29203796
v 35.29611969 -62.00000000 -98.94937897
v 8.48222446 -62.00000000 -118.43046570
v 15.19499397 -62.00000000 -109.19091034
v 24.43455505 -62.00000000 -102.47813416
v 46.71606827 -62.00000000 -98.94989014
v 57.57629776 -62.00000000 -102.47911835
v 66.81349182 -62.00000000 -109.19060516
v 73.52511597 -62.00000000 -118.42806244
v 77.05423737 -62.00000000 -129.28823853
v 68.22769928 -60.00000000 -107.77639008
v 58.66098022 -60.00000000 -100.78765869
v 78.96546936 -60.00000000 -128.58251953
v 75.21658325 -60.00000000 -117.34339905
v 79.11933136 -60.00000000 -140.42938232
v 75.66361237 -60.00000000 -151.76208496
v 68.34107971 -60.61429214 -161.23005676
v 68.92556763 -60.00000000 -161.50738525
v 68.64555359 -60.33542252 -161.31509399
v 67.52060699 -61.00000000 -161.51649475
v 68.03508759 -60.82593536 -161.24234009
v 67.75287628 -60.95697021 -161.34353638
v 57.76617813 -60.00000000 -169.65951538
v 67.51147461 -60.00000000 -162.92147827
v 67.31918335 -60.33543396 -162.64144897
v 67.34764099 -60.95698166 -161.74874878
v 67.24643707 -60.82596588 -162.03094482
v 67.23414612 -60.61431503 -162.33695984
v 46.43348312 -60.00000000 -173.11524963
v 34.58660889 -60.00000000 -172.96138000
v 23.34748840 -60.00000000 -169.21249390
v 13.78048038 -60.00000000 -162.22361755
v 3.04275656 -60.00000000 -141.41770935
v 6.79175138 -60.00000000 -152.65689087
v 2.88882661 -60.00000000 -129.57077026
v 71.77429199 3.17517591 -158.13967896
v 68.92556763 -58.00000000 -161.50738525
v 68.22769928 -58.00000000 -162.22361755
v 67.51147461 -58.00000000 -162.92147827
v 77.02480316 4.57587862 -148.59257507
v 79.41175842 7.36022329 -137.66479492
v 78.46876526 11.42750645 -126.13160706
v 73.95837402 16.49634171 -115.09358978
v 64.14542389 3.17504168 -165.76895142
v 54.59869003 4.57546902 -171.01995850
v 43.67118073 7.35952663 -173.40750122
v 32.13810730 11.42653465 -172.46524048
v 21.09994698 16.49515915 -167.95565796
v 16.17180252 19.25399590 -164.42120361
v 13.78048038 -0.00000001 -162.22361755
v -15.50788212 -0.00000001 -132.93524170
v -26.63241005 10.84670353 -115.89760590
v -25.27036476 -0.00000001 -121.03962708
v -22.69007301 20.81467056 -113.62149811
v -27.98299408 -0.00000001 -116.67736816
v -26.63241005 -10.84670353 -115.89760590
v -23.11238861 30.79070473 -77.42736816
v -22.99450493 29.09635925 -94.28901672
v -31.38059044 22.30490112 -77.42736816
v -23.11238861 30.79070473 -75.80000305
v -29.92659378 20.81467056 -96.14452362
v -36.67698669 11.70677757 -77.42736816
v -31.38059044 22.30490112 -75.80000305
v -36.99164581 -0.00000001 -92.74195862
v -38.50000000 -0.00000001 -77.42736816
v -36.67698669 11.70677757 -75.80000305
v -35.83049393 -0.00000001 -97.72480774
v -34.32400894 10.84670353 -97.32157135
v -34.32400894 -10.84670353 -97.32157135
v -36.67698669 -11.70677757 -77.42736816
v -38.50000000 -0.00000001 -75.80000305
v -32.52454376 -0.00000001 -107.46801758
v -31.38059044 -22.30490112 -77.42736816
v -29.92659378 -20.81467056 -96.14452362
v -36.67698669 -11.70677757 -75.80000305
v -31.38059044 -22.30490112 -75.80000305
v -23.11238861 -30.79070473 -75.80000305
v 68.30796051 42.86070633 -108.97850800
v 64.39556122 43.89495468 -105.56711578
v 14.59536457 42.50072861 -162.01344299
v 13.78052139 20.75000191 -162.22364807
v 14.28998184 42.55319595 -161.71417236
v 12.57676697 21.55302429 -160.96417236
v 14.90407372 42.44816589 -162.30917358
v 14.98259735 42.86070633 -162.30386353
v 10.77604389 43.20612335 -157.70071411
v 14.36853123 42.96574020 -161.71041870
v 18.19613838 18.07389069 -166.01687622
v 22.92550087 41.23804855 -168.12063599
v 23.10819244 15.47137356 -169.08792114
v 30.55691910 40.30095291 -171.23637390
v 28.37450981 13.01071739 -171.36955261
v 33.84879303 10.75021553 -172.82925415
v 36.96506119 39.63426971 -172.47727966
v 39.39093781 8.73581123 -173.46620178
v 42.15879822 39.16245270 -172.66506958
v 44.87474442 7.00064135 -173.30494690
v 54.71483612 38.28647614 -170.08757019
v 55.25347519 4.44484806 -170.76600647
v 50.66687393 38.52363586 -171.41712952
v 46.47613144 38.81532669 -172.28080750
v 58.94076920 38.08811188 -168.12174988
v 64.32825470 3.16059399 -165.63059998
v 69.18647766 37.90015030 -159.99304199
v 71.63471985 3.16059589 -158.32414246
v 64.00562286 37.93088913 -164.82876587
v 75.17474365 38.17942047 -150.85150146
v 76.77009583 4.44485188 -149.24935913
v 72.88299561 38.01020432 -155.06188965
v 77.89025116 38.65543747 -142.68960571
v 79.30904388 7.00064468 -138.87063599
v 76.76286316 38.38920593 -146.85972595
v 78.53152466 38.97637558 -138.39852905
v 79.47029877 8.73581409 -133.38684082
v 78.64724731 39.42781448 -133.15725708
v 78.83335114 10.75021744 -127.84469604
v 77.73406982 40.09066010 -126.46952820
v 77.37364960 13.01071930 -122.37041473
v 74.81260681 41.06263351 -118.25402069
v 75.09201813 15.47137451 -117.10409546
v 72.12489319 41.69950867 -113.63550568
v 72.01743317 42.50281143 -113.83226776
v 68.23863983 43.25216293 -109.11392212
v 74.67758942 41.86728668 -118.42927551
v 77.56144714 40.89806366 -126.59959412
v 78.45455170 40.23694992 -133.24433899
v 78.33013153 39.78683090 -138.44859314
v 77.68692017 39.46708298 -142.70637512
v 76.56262970 39.20180511 -146.84274292
v 74.98232269 38.99290085 -150.80224609
v 72.70523071 38.82442093 -154.97811890
v 69.03648376 38.71484756 -159.86849976
v 63.89778900 38.74543762 -164.66578674
v 58.87445450 38.90199280 -167.93571472
v 54.68279648 39.09952164 -169.89035034
v 50.66791534 39.33572388 -171.21458435
v 46.51020050 39.62637711 -172.07788086
v 42.22522354 39.97232437 -172.46658325
v 37.06687546 40.44279099 -172.29014587
v 30.69946861 41.10780334 -171.07153320
v 23.10741234 42.04244995 -167.99314880
v 19.04081345 42.62168884 -165.46000671
v 8.23314476 43.76433182 -153.88792419
v 10.99994564 44.00872421 -157.66047668
v 14.50540829 43.35718155 -161.64396667
v 8.46094131 44.56735611 -153.87300110
v 5.30948019 45.45155334 -147.01116943
v 60.62347412 50.62288666 -118.49645233
v 59.73363876 50.23067474 -122.53199005
v 57.54034805 51.33738708 -115.84900665
v 53.47218704 51.79206085 -116.27053833
v 63.62490082 49.79342651 -122.14759827
v 65.92823792 48.98619080 -126.31860352
v 67.40393829 48.24761200 -130.76658630
v 68.03683472 47.58866882 -135.41865540
v 67.81573486 47.03143692 -140.10899353
v 41.42798615 47.58798981 -162.03297424
v 46.11528397 47.03119659 -161.81135559
v 36.77464294 48.24700165 -161.40077209
v 32.32562637 48.98566437 -159.92544556
v 28.15288353 49.79318237 -157.62159729
v 24.50054741 50.62288666 -154.61938477
v 21.85330009 51.33732986 -151.53652954
v 19.69675446 52.04331589 -148.03080750
v 18.14056396 52.70500565 -144.27999878
v 17.20055962 53.31220627 -140.35000610
v 17.21157837 54.31672668 -132.28234863
v 16.88871193 53.85596085 -136.30076599
v 19.67586136 54.95001984 -124.73881531
v 18.14943123 54.68305969 -128.40637207
v 34.41047287 54.68305969 -112.14533997
v 30.74251175 54.95004654 -113.67197418
v 21.76873589 55.11398315 -121.33092499
v 42.30629730 53.85578156 -110.88461304
v 38.28736496 54.31663132 -111.20733643
v 46.35497665 53.31208038 -111.19660187
v 50.28433228 52.70496368 -112.13655090
v 54.03503799 52.04328918 -113.69273376
v 54.87775803 46.30305481 -158.88885498
v 58.97017288 46.28912735 -154.90815735
v 58.71826553 46.14773178 -156.29408264
v 59.00864410 45.88900375 -157.61122131
v 64.89309692 46.30307007 -148.87338257
v 50.62281418 46.60098648 -160.75427246
v 62.29818344 46.14773178 -152.71417236
v 63.61567688 45.88886642 -153.00471497
v 66.75848389 46.60099792 -144.61851501
v 69.01104736 45.30816650 -148.55529785
v 65.32075500 45.01428604 -154.59497070
v 64.69220734 45.46424484 -153.73835754
v 71.15364838 45.88531876 -141.78370667
v 71.59420776 46.71092224 -134.72149658
v 70.33998108 47.73169327 -127.78875732
v 67.46755981 48.88875580 -121.38111115
v 63.16808319 50.11486053 -115.84674835
v 59.92220306 50.79227448 -112.39083862
v 63.50969315 49.96108627 -115.46977997
v 55.89222717 51.60368729 -109.91297150
v 50.18698883 52.79207993 -109.22202301
v 51.56313324 52.37062454 -108.12966919
v 51.30350494 52.47951508 -108.43571472
v 46.29382706 53.38790512 -108.49713898
v 47.46566010 53.24867249 -109.27066040
v 48.87050247 53.03472900 -109.52078247
v 38.85600662 54.10899734 -106.85565186
v 45.61154556 53.38832092 -107.53301239
v 45.36114883 53.30688095 -106.82137299
v 32.44681168 54.72294235 -108.34078979
v 27.33456421 55.11399841 -115.76496887
v 26.50720406 55.10515976 -111.21486664
v 24.33228874 55.16873932 -118.32819366
v 21.33858871 55.23595047 -115.33449554
v 17.21945381 55.10519791 -120.50232697
v 14.34546566 54.72307587 -126.44105530
v 12.86004162 54.10927963 -132.84936523
v 12.82551861 53.30694580 -139.35707092
v 15.33453941 53.22566986 -141.62184143
v 13.55695152 53.38966370 -139.61703491
v 14.50122929 53.38790512 -140.28973389
v 15.91294384 51.60520554 -149.88008118
v 14.14479351 52.37453842 -145.55068970
v 14.96596050 52.67764664 -144.66427612
v 15.49801636 52.97747421 -143.20909119
v 15.50813293 53.10776901 -142.40792847
v 18.39226151 50.79306412 -153.91444397
v 21.85083961 50.11486053 -157.16398621
v 27.38507652 48.88877869 -161.46339417
v 33.79264069 47.73172760 -164.33581543
v 40.72530365 46.71096039 -165.59010315
v 47.78743744 45.88535690 -165.14961243
v 54.55909348 45.30818558 -163.00709534
v 59.74245453 45.46424484 -158.68811035
v 23.60616493 44.80806732 -166.29547119
v 15.11801434 43.25216293 -162.23455811
v 16.10974312 45.05327606 -161.68554688
v 14.81004810 43.30473328 -161.94099426
v 31.29608917 43.41710281 -169.76161194
v 39.64189911 42.18436813 -171.30279541
v 48.15049744 41.18445587 -170.81387329
v 56.35567856 40.47771072 -168.27705383
v 63.73161697 40.11190414 -163.83500671
v 69.83921814 40.11191177 -157.72735596
v 74.28115082 40.47771072 -150.35157776
v 76.81797028 41.18445206 -142.14643860
v 77.30690002 42.18435287 -133.63790894
v 75.76572418 43.41708755 -125.29209137
v 72.29961395 44.80805206 -117.60215759
v 67.68964386 45.05327225 -110.10565186
v 67.13277435 46.28010178 -110.96257782
v 62.23631287 46.29589844 -105.59265900
v 67.94506836 43.30473709 -108.80593109
v 61.66241455 49.02925110 -108.92794800
v 66.61911011 47.14825439 -111.68757629
v 70.15888214 47.27257156 -119.38534546
v 65.94980621 48.04023361 -112.57285309
v 65.39776611 48.62910461 -113.26655579
v 73.35246277 45.99107361 -126.46984863
v 74.77058411 44.85671616 -134.14971924
v 74.32101440 43.93650055 -141.97975159
v 71.99013519 43.28719711 -149.51828003
v 67.90827179 42.95100784 -156.29650879
v 62.30074310 42.95100403 -161.90406799
v 55.52238464 43.28719711 -165.98603821
v 47.98378754 43.93650818 -168.31692505
v 40.15371323 44.85672760 -168.76647949
v 32.47385406 45.99108887 -167.34834290
v 16.96666908 46.28010178 -161.12867737
v 25.38936234 47.27258682 -164.15473938
v 11.59670734 46.29591370 -156.23216248
v 17.69166565 47.14825439 -160.61502075
v 63.96015549 49.72185898 -114.96363831
v 65.41877747 43.75281906 -157.62771606
v 65.46260834 44.85884094 -154.90245056
v 65.71617126 44.21511459 -156.30325317
v 64.69575500 43.59091568 -158.68455505
v 63.63420105 43.75218582 -159.41362000
v 62.30659866 44.21543121 -159.71209717
v 60.90408707 44.86003876 -159.45751953
v 60.59789276 45.01486969 -159.31605530
v 18.57694244 48.04023361 -159.94570923
v 19.27064705 48.62910461 -159.39367676
v 14.92829704 49.03037262 -155.65307617
v 20.96772766 49.72185898 -157.95606995
v 21.47387123 49.96108627 -157.50559998
v 45.28935242 53.22915649 -106.40192413
v 40.86920166 52.39920044 -102.69289398
v 45.35230255 52.90291595 -105.26185608
v 20.34816170 54.95770645 -114.34407043
v 56.83035278 49.99055862 -106.04997253
v 52.02672195 52.07701111 -107.30105591
v 52.26869965 51.60869980 -106.02100372
v 52.01118469 51.12030411 -104.70457458
v 51.61490250 50.87147141 -103.98532104
v 56.01584625 47.49257278 -102.21535492
v 67.64805603 43.35718155 -108.50131989
v 47.02349472 51.57180405 -102.98841095
v 14.47587395 53.86879349 -117.29956055
v 46.52841568 51.86861420 -103.33319092
v 45.77190781 52.43537903 -104.21415710
v 6.10268211 48.60369110 -143.21694946
v 8.79588795 50.62218475 -144.11149597
v 9.55148029 50.73691940 -145.23948669
v 9.97668266 50.86725235 -145.60165405
v 8.52635956 50.84592819 -142.75834656
v 5.34930229 49.58280945 -136.11743164
v 8.76802158 51.33015442 -141.48661804
v 8.99501038 51.57420349 -141.01504517
v 8.69693089 52.39903641 -134.86648560
v 9.40315342 51.91891861 -140.44754028
v 9.50663471 53.06632233 -128.70489502
v 12.44398499 53.23706055 -139.28961182
v 11.31932068 52.92211914 -139.33676147
v 10.29258060 52.47487640 -139.72421265
v 11.45408249 53.56290436 -122.77469635
v 8.21940136 47.49259186 -150.01164246
v 12.04842567 49.99270248 -150.81469727
v 10.88686657 51.18573380 -146.07392883
v 12.40528870 51.75019455 -146.24403381
v 13.84073257 52.26684189 -145.75761414
vn -0.17569221 0.03085797 0.98396140
vn -0.17569220 -0.03085802 0.98396140
vn -0.15476611 0.08903628 0.98393089
vn -0.11519319 0.13696260 0.98385557
vn 0.11519316 0.13696260 0.98385557
vn 0.06127783 0.16901774 0.98370627
vn -0.06127784 0.16901770 0.98370628
vn 0.15476612 0.08903630 0.98393088
vn 0.17569220 0.03085802 0.98396140
vn 0.17569221 -0.03085797 0.98396140
vn 0.15476611 -0.08903628 0.98393089
vn 0.11519319 -0.13696260 0.98385557
vn -0.11519316 -0.13696260 0.98385557
vn -0.06127783 -0.16901774 0.98370627
vn 0.06127784 -0.16901770 0.98370628
vn -0.15476612 -0.08903630 0.98393088
vn -0.00000000 -0.18042694 0.98358839
vn 0.00000000 0.18042694 0.98358839
vn -0.32024592 -0.44225583 0.83776628
vn 0.31983709 -0.44218437 0.83796015
vn -0.44152799 -0.32163213 0.83761913
vn -0.51961688 -0.16911669 0.83749498
vn -0.54659265 -0.00000001 0.83739863
vn -0.51961846 0.16911709 0.83749392
vn -0.44152806 0.32163206 0.83761912
vn -0.32024600 0.44225577 0.83776628
vn 0.32024592 0.44225583 0.83776628
vn 0.44152799 0.32163213 0.83761913
vn 0.51961688 0.16911669 0.83749498
vn 0.54659265 0.00000001 0.83739863
vn 0.51961846 -0.16911709 0.83749392
vn 0.44145761 -0.32121150 0.83781761
vn 0.77738474 0.00501911 0.62900538
vn 0.72951748 0.22426950 0.64614816
vn 0.71482676 -0.20994366 0.66704300
vn 0.58097094 -0.41168501 0.70213120
vn -0.16789813 -0.51895577 0.83814982
vn 0.16789818 -0.51895574 0.83814983
vn 0.41109812 -0.58570260 0.69853475
vn -0.00000000 -0.54507074 0.83839006
vn 0.21099766 -0.72315692 0.65766561
vn -0.03329383 -0.81634361 0.57660613
vn -0.29507107 -0.81626029 0.49664091
vn -0.55580128 -0.71795569 0.41907584
vn -0.74446242 -0.54066072 0.39174186
vn -0.87526125 -0.28425841 0.39129898
vn -0.92039379 0.00000002 0.39099268
vn -0.87526185 0.28425862 0.39129751
vn -0.74446252 0.54066059 0.39174186
vn 0.16789813 0.51895577 0.83814982
vn -0.16789818 0.51895574 0.83814983
vn -0.54356574 0.73962487 0.39685178
vn 0.00000000 0.54507074 0.83839006
vn -0.30203497 0.85014489 0.43131026
vn -0.02907516 0.86472490 0.50140351
vn 0.22693481 0.78352287 0.57843972
vn 0.44096468 0.63303791 0.63624928
vn 0.60690686 0.44350438 0.65952099
vn 0.36609720 -0.91001144 -0.19455597
vn 0.28225104 -0.91687988 -0.28225101
vn 0.40800772 -0.91027624 -0.07019163
vn 0.07019156 -0.91027662 -0.40800688
vn 0.19455638 -0.91001099 -0.36609810
vn -0.06112297 -0.91040883 -0.40916958
vn -0.18638187 -0.91039397 -0.36938411
vn -0.29264115 -0.91034147 -0.29264237
vn -0.36938268 -0.91039420 -0.18638355
vn -0.40917095 -0.91040800 -0.06112606
vn -0.38400381 -0.92279615 0.03143794
vn -0.02627460 -0.96778075 0.25041979
vn -0.26467747 -0.95796824 0.11064667
vn -0.17054113 -0.97246193 0.15885060
vn -0.09902562 -0.97446387 0.20152938
vn 0.08314041 -0.94125807 0.32729331
vn 0.19460460 -0.91488078 0.35372618
vn 0.29264279 -0.91034126 0.29264140
vn 0.36938426 -0.91039387 0.18638207
vn 0.40917062 -0.91040836 0.06112305
vn 0.66116704 -0.46358151 0.58987315
vn 0.41857337 -0.62314388 0.66067242
vn 0.91445022 -0.37265748 0.15782014
vn 0.82641424 -0.38334235 0.41241745
vn 0.91932302 -0.37257715 -0.12661539
vn 0.83776670 -0.37294198 -0.39882483
vn 0.53172168 -0.71905719 -0.44746935
vn 0.71091046 -0.37733128 -0.59348751
vn 0.54010099 -0.71462328 -0.44452727
vn 0.50122148 -0.70537011 -0.50122852
vn 0.50804807 -0.70769035 -0.49098018
vn 0.50424039 -0.70593882 -0.49738518
vn 0.39882521 -0.37294050 -0.83776717
vn 0.59348725 -0.37733125 -0.71091069
vn 0.44452736 -0.71462338 -0.54010077
vn 0.49738237 -0.70594010 -0.50424136
vn 0.49099408 -0.70768666 -0.50803976
vn 0.44747748 -0.71905567 -0.53171689
vn 0.12661609 -0.37257743 -0.91932281
vn -0.15782025 -0.37265819 -0.91444991
vn -0.42723508 -0.37264197 -0.82377676
vn -0.63977771 -0.38730840 -0.66383483
vn -0.78857059 -0.58794804 -0.18020413
vn -0.76821247 -0.46002534 -0.44522611
vn -0.71806707 -0.69584903 0.01318386
vn 0.83427858 0.01082409 -0.55123688
vn 0.73880972 0.00119953 -0.67391301
vn 0.70710606 0.00136944 -0.70710618
vn 0.67391223 0.00119955 -0.73881044
vn 0.95380028 0.01086453 -0.30024488
vn 0.99857016 0.01165148 -0.05217157
vn 0.97078500 0.01273903 0.23961260
vn 0.86666446 0.01901504 0.49852897
vn 0.55093898 0.00984173 -0.83448749
vn 0.29997635 0.01043730 -0.95388954
vn 0.05288960 0.01167337 -0.99853213
vn -0.23849878 0.01356753 -0.97104802
vn -0.51890071 0.01478660 -0.85470662
vn -0.64080927 0.01764902 -0.76749723
vn -0.69203308 0.00000010 -0.72186578
vn -0.75529641 0.01752229 -0.65514907
vn -0.85106695 0.26933110 -0.45071698
vn -0.82028871 0.01063589 -0.57185077
vn -0.82593905 0.43641500 -0.35688462
vn -0.87405512 -0.00000000 -0.48582676
vn -0.86847353 -0.22192963 -0.44328429
vn -0.65099572 0.75862849 -0.02621817
vn -0.70846083 0.69597045 -0.11708277
vn -0.81648125 0.57534494 -0.04833808
vn -0.62567438 0.77958591 0.02788147
vn -0.82889494 0.52023353 -0.20564594
vn -0.95092475 0.30448551 -0.05505170
vn -0.81503234 0.57900955 0.02168476
vn -0.98758768 -0.00000000 -0.15706868
vn -0.99880692 -0.00000000 -0.04883372
vn -0.95248387 0.30378401 0.02213039
vn -0.96161769 -0.00000000 -0.27439282
vn -0.92374633 0.29296473 -0.24670709
vn -0.92923061 -0.28310444 -0.23744967
vn -0.95092475 -0.30448551 -0.05505170
vn -0.99975008 -0.00000000 0.02235564
vn -0.92390832 -0.00000000 -0.38261393
vn -0.83208852 -0.55333678 -0.03804072
vn -0.86353727 -0.47419188 -0.17159676
vn -0.95248387 -0.30378400 0.02213037
vn -0.81736735 -0.57553153 0.02596304
vn -0.70901622 -0.70396407 0.04160036
vn 0.75501147 0.28850138 0.58883328
vn 0.61228962 0.51456902 0.60026674
vn -0.68549214 0.08638905 -0.72293669
vn -0.69091315 0.01940156 -0.72267738
vn -0.71278386 0.09292030 -0.69520140
vn -0.71547308 0.02995849 -0.69799768
vn -0.64722016 0.08134153 -0.75795094
vn -0.62135813 0.23112543 -0.74866221
vn -0.76040700 0.17231092 -0.62617102
vn -0.68248442 0.24238240 -0.68954028
vn -0.58206754 0.01658042 -0.81297138
vn -0.45003029 0.12909224 -0.88363337
vn -0.43858575 0.01548445 -0.89855593
vn -0.27133405 0.13383441 -0.95313492
vn -0.33422880 0.01368231 -0.94239265
vn -0.15782107 0.01329502 -0.98737822
vn -0.10122112 0.13207974 -0.98605742
vn -0.04566322 0.01135516 -0.99889235
vn 0.03626270 0.13081104 -0.99074391
vn 0.15762040 0.01058567 -0.98744304
vn 0.36976660 0.12854756 -0.92018921
vn 0.42588916 0.00994911 -0.90472064
vn 0.26147890 0.12736492 -0.95676902
vn 0.15370146 0.12849164 -0.97972739
vn 0.48394581 0.12767892 -0.86573353
vn 0.65491008 0.01031065 -0.75563647
vn 0.73709379 0.12778249 -0.66359957
vn 0.75594770 0.01095601 -0.65454033
vn 0.61246507 0.12750616 -0.78014660
vn 0.89545576 0.12726179 -0.42657171
vn 0.90470880 0.01054631 -0.42589994
vn 0.83385891 0.12698957 -0.53717127
vn 0.96901323 0.12764694 -0.21147012
vn 0.98742333 0.01021247 -0.15776841
vn 0.93929426 0.12782793 -0.31841218
vn 0.98709321 0.12988286 -0.09368799
vn 0.99889938 0.01245481 0.04522061
vn 0.99030740 0.13124863 0.04544285
vn 0.98752229 0.01335141 0.15691228
vn 0.96570624 0.13411899 0.22231411
vn 0.94265984 0.01366611 0.33347513
vn 0.90391376 0.13362052 0.40630711
vn 0.89793231 0.01437778 0.43989868
vn 0.83685249 0.15342219 0.52548981
vn 0.78257285 0.40226875 0.47514164
vn 0.71735801 0.41814548 0.55727179
vn 0.85537689 0.38890924 0.34216951
vn 0.90834969 0.38382458 0.16607085
vn 0.92771863 0.37285047 0.01790712
vn 0.91166319 0.39581580 -0.11045401
vn 0.90419550 0.36645707 -0.21940765
vn 0.86286472 0.39887438 -0.31042504
vn 0.83656497 0.36140355 -0.41176028
vn 0.76946976 0.39584107 -0.50122464
vn 0.67906604 0.38186045 -0.62693852
vn 0.57591525 0.35875720 -0.73458484
vn 0.46662744 0.38771617 -0.79494340
vn 0.34578944 0.38805822 -0.85430702
vn 0.27266412 0.39107223 -0.87904311
vn 0.15402134 0.38297592 -0.91082757
vn 0.07012725 0.39199681 -0.91728985
vn -0.07114870 0.38888380 -0.91853538
vn -0.22211192 0.37956184 -0.89810862
vn -0.37474337 0.38684176 -0.84256801
vn -0.51950542 0.32031644 -0.79215623
vn -0.80259672 0.22268060 -0.55340026
vn -0.69797380 0.38651257 -0.60286035
vn -0.61669964 0.43615338 -0.65532571
vn -0.75984193 0.40830078 -0.50589595
vn -0.79416308 0.48358436 -0.36803692
vn 0.17470877 0.98203333 -0.07132589
vn 0.12278855 0.98480764 -0.12278797
vn 0.16838259 0.98413995 -0.05581990
vn 0.12278838 0.98480766 -0.12278800
vn 0.18281938 0.97990014 -0.07982972
vn 0.19003434 0.97746923 -0.09187407
vn 0.19438911 0.97522395 -0.10559889
vn 0.19532799 0.97353269 -0.11866374
vn 0.19530285 0.97202808 -0.13045387
vn 0.11868319 0.97353011 -0.19532903
vn 0.13046016 0.97202740 -0.19530204
vn 0.10560717 0.97522198 -0.19439451
vn 0.09187952 0.97746804 -0.19003783
vn 0.07983373 0.97989956 -0.18282074
vn 0.07132607 0.98203302 -0.17471047
vn 0.05577751 0.98414581 -0.16836241
vn 0.05424842 0.98503071 -0.16362029
vn 0.08009712 0.98698399 -0.13945270
vn 0.08224824 0.98829551 -0.12848039
vn 0.04134029 0.99326558 -0.10823341
vn 0.05882928 0.99111562 -0.11928510
vn 0.04814299 0.99515674 -0.08570483
vn 0.04341422 0.99419967 -0.09839829
vn 0.09839752 0.99419968 -0.04341562
vn 0.08570546 0.99515658 -0.04814517
vn 0.05574693 0.99573794 -0.07347274
vn 0.11926969 0.99111638 -0.05884786
vn 0.10823569 0.99326532 -0.04134048
vn 0.12886959 0.98827348 -0.08190337
vn 0.13914969 0.98702111 -0.08016664
vn 0.16346445 0.98501499 -0.05499849
vn 0.14484824 0.97406128 -0.17384937
vn 0.12278950 0.98480731 -0.12278965
vn 0.13907089 0.98013298 -0.14141648
vn 0.17929362 0.96247365 -0.20371122
vn 0.17386987 0.97405621 -0.14485774
vn 0.14438347 0.97058430 -0.19266431
vn 0.14143268 0.98012918 -0.13908126
vn 0.20372500 0.96246950 -0.17930029
vn 0.19266581 0.97058401 -0.14438341
vn 0.37705348 0.89745529 -0.22892066
vn 0.32724793 0.90353240 -0.27665502
vn 0.27232104 0.93424151 -0.23029121
vn 0.39571234 0.90329771 -0.16572567
vn 0.39987146 0.91138752 -0.09734266
vn 0.38812421 0.92110285 -0.03048184
vn 0.36082487 0.93227600 0.02582396
vn 0.27818977 0.95990667 0.03449107
vn 0.29803442 0.94361423 0.14410989
vn 0.34677253 0.93241707 0.10172125
vn 0.27470188 0.94811020 0.16008096
vn 0.18584020 0.98047692 0.06425281
vn 0.21609803 0.95778631 0.18959700
vn 0.20255839 0.96968750 0.13666112
vn 0.13937320 0.98826804 0.06246118
vn 0.14586111 0.98925680 0.00977377
vn 0.15879014 0.98724241 0.01175225
vn 0.07965445 0.97762340 0.19469891
vn 0.14500086 0.98079969 0.13040984
vn 0.15137500 0.97089775 0.18558871
vn 0.02302838 0.98523624 0.16964446
vn 0.07347098 0.99573807 -0.05574689
vn -0.03833756 0.98989037 0.13655510
vn 0.06438675 0.99584568 -0.06438737
vn -0.06971310 0.99512802 0.06971586
vn -0.15295132 0.98716691 0.04590620
vn -0.18336022 0.98293164 -0.01498051
vn -0.19949169 0.97685813 -0.07714448
vn -0.18455079 0.97108498 -0.15144297
vn -0.00876566 0.98942747 -0.14476343
vn -0.12973273 0.98088147 -0.14505499
vn -0.06073468 0.98836826 -0.13942555
vn -0.15946732 0.94834744 -0.27423951
vn -0.16644289 0.96354921 -0.20945093
vn -0.08661492 0.97711171 -0.19429503
vn -0.02730469 0.98496294 -0.17059445
vn -0.00004546 0.98835995 -0.15213352
vn -0.14413337 0.94363249 -0.29796526
vn -0.03449596 0.95990705 -0.27818786
vn -0.02582438 0.93227640 -0.36082381
vn 0.03047945 0.92110323 -0.38812350
vn 0.09733947 0.91138722 -0.39987293
vn 0.16572126 0.90329813 -0.39571322
vn 0.22891581 0.89745571 -0.37705543
vn 0.23028233 0.93424769 -0.27230735
vn -0.29518776 0.63800338 -0.71120734
vn -0.56283840 0.41827294 -0.71292404
vn -0.50100638 0.56864906 -0.65240390
vn -0.59060406 0.42350560 -0.68689872
vn -0.14772290 0.61664710 -0.77325565
vn 0.02824340 0.60115007 -0.79863691
vn 0.20029895 0.58896002 -0.78294727
vn 0.36640892 0.57587731 -0.73082818
vn 0.51975520 0.56806100 -0.63809186
vn 0.64716438 0.56014821 -0.51711918
vn 0.72790824 0.58015744 -0.36546811
vn 0.78194458 0.59062754 -0.19930324
vn 0.79822231 0.60184417 -0.02499460
vn 0.77804797 0.60933656 0.15280810
vn 0.70894621 0.63923959 0.29793961
vn 0.65476612 0.56726499 0.49949151
vn 0.61341627 0.65535148 0.44072089
vn 0.52977993 0.63953204 0.55707450
vn 0.68603251 0.43205854 0.58539287
vn 0.44260621 0.80704269 0.39087317
vn 0.57557578 0.72373319 0.38068727
vn 0.56313203 0.80860036 0.17043409
vn 0.53554930 0.78301836 0.31633716
vn 0.46801100 0.84828711 0.24773912
vn 0.61115481 0.78907744 0.06202089
vn 0.63420500 0.77065668 -0.06222776
vn 0.62695319 0.75548256 -0.19019939
vn 0.58946540 0.74429668 -0.31393150
vn 0.54205708 0.72394218 -0.42671049
vn 0.42671750 0.72393968 -0.54205490
vn 0.31393152 0.74429614 -0.58946608
vn 0.19019895 0.75548268 -0.62695317
vn 0.06222666 0.77065678 -0.63420499
vn -0.06202135 0.78907841 -0.61115351
vn -0.44072402 0.65535641 -0.61340876
vn -0.17043465 0.80860066 -0.56313143
vn -0.58647172 0.62022728 -0.52093093
vn -0.38070280 0.72373883 -0.57555841
vn 0.39836271 0.90234805 0.16454529
vn 0.43585559 0.80217525 -0.40809897
vn 0.37684737 0.87318164 -0.30909525
vn 0.41339841 0.84099250 -0.34904638
vn 0.46443610 0.75407576 -0.46440161
vn 0.40828211 0.80203065 -0.43595017
vn 0.34902076 0.84101637 -0.41337148
vn 0.30902272 0.87326062 -0.37672383
vn 0.27661113 0.90357101 -0.32717842
vn -0.31635830 0.78302322 -0.53552970
vn -0.24775555 0.84828603 -0.46800428
vn -0.39093974 0.80705944 -0.44251686
vn -0.16455082 0.90235092 -0.39835392
vn -0.10172809 0.93242023 -0.34676205
vn 0.15164121 0.95965033 0.23680412
vn 0.09351461 0.93007374 0.35527152
vn 0.14923392 0.93837759 0.31173184
vn -0.18051698 0.96886445 0.16945587
vn 0.38214650 0.81705682 0.43172005
vn 0.24308102 0.93596000 0.25473612
vn 0.26724862 0.90380710 0.33423181
vn 0.27523575 0.86613727 0.41719482
vn 0.28274444 0.83844163 0.46590903
vn 0.43716044 0.70828367 0.55427881
vn 0.66080158 0.45654129 0.59574435
vn 0.22506621 0.87150229 0.43569366
vn -0.29147306 0.94629857 0.13986590
vn 0.20878241 0.88609367 0.41382112
vn 0.17069891 0.91270570 0.37125488
vn -0.71170816 0.65486012 -0.25422375
vn -0.56610668 0.77878905 -0.27020519
vn -0.52965199 0.79701964 -0.29022141
vn -0.47629492 0.83134095 -0.28638325
vn -0.57197864 0.79126116 -0.21620871
vn -0.66926549 0.73198355 -0.12760797
vn -0.54969280 0.81354533 -0.18968874
vn -0.50490401 0.84417118 -0.18013042
vn -0.49631469 0.86438578 -0.08067807
vn -0.45171580 0.87463763 -0.17595981
vn -0.44882630 0.89361869 -0.00076519
vn -0.23445431 0.96013865 -0.15220033
vn -0.30764412 0.93977520 -0.14892170
vn -0.38168210 0.90994955 -0.16220540
vn -0.36958480 0.92567193 0.08086132
vn -0.66978037 0.62831171 -0.39575074
vn -0.43857503 0.81570521 -0.37719619
vn -0.40495723 0.87215082 -0.27452249
vn -0.31041766 0.91396226 -0.26136919
vn -0.22547249 0.94695939 -0.22897613
f 163//163 97//97 98//98
f 81//81 83//83 182//182
f 179//179 83//83 108//108
f 108//108 83//83 84//84
f 100//100 156//156 99//99
f 64//64 98//98 97//97
f 92//92 63//63 91//91
f 77//77 81//81 82//82
f 82//82 81//81 186//186
f 182//182 83//83 109//109
f 83//83 179//179 109//109
f 86//86 84//84 59//59
f 100//100 121//121 119//119
f 119//119 118//118 100//100
f 189//189 34//34 33//33
f 365//365 382//382 54//54
f 54//54 356//356 365//365
f 55//55 356//356 54//54
f 65//65 99//99 98//98
f 98//98 64//64 65//65
f 62//62 64//64 97//97
f 97//97 91//91 62//62
f 62//62 91//91 63//63
f 114//114 97//97 163//163
f 114//114 165//165 97//97
f 97//97 165//165 113//113
f 113//113 91//91 97//97
f 167//167 91//91 113//113
f 136//136 120//120 140//140
f 47//47 134//134 139//139
f 47//47 139//139 143//143
f 133//133 138//138 143//143
f 143//143 139//139 133//133
f 141//141 138//138 142//142
f 142//142 101//101 141//141
f 59//59 84//84 61//61
f 61//61 84//84 83//83
f 70//70 74//74 42//42
f 42//42 73//73 70//70
f 42//42 74//74 41//41
f 80//80 39//39 41//41
f 75//75 41//41 74//74
f 80//80 41//41 75//75
f 82//82 186//186 188//188
f 188//188 186//186 187//187
f 184//184 81//81 182//182
f 92//92 107//107 106//106
f 106//106 86//86 92//92
f 118//118 119//119 149//149
f 133//133 139//139 130//130
f 130//130 139//139 134//134
f 129//129 136//136 130//130
f 122//122 136//136 129//129
f 122//122 120//120 136//136
f 122//122 129//129 215//215
f 215//215 120//120 122//122
f 126//126 125//125 373//373
f 34//34 189//189 146//146
f 32//32 80//80 36//36
f 36//36 35//35 32//32
f 82//82 33//33 79//79
f 33//33 35//35 79//79
f 79//79 36//36 80//80
f 35//35 36//36 79//79
f 108//108 84//84 176//176
f 173//173 106//106 171//171
f 171//171 106//106 107//107
f 171//171 107//107 92//92
f 32//32 35//35 31//31
f 31//31 11//11 32//32
f 100//100 99//99 66//66
f 99//99 65//65 66//66
f 121//121 124//124 123//123
f 124//124 140//140 123//123
f 123//123 120//120 121//121
f 123//123 140//140 120//120
f 136//136 140//140 135//135
f 83//83 81//81 78//78
f 78//78 61//61 83//83
f 81//81 77//77 78//78
f 32//32 11//11 12//12
f 187//187 189//189 111//111
f 111//111 188//188 187//187
f 111//111 189//189 33//33
f 111//111 33//33 82//82
f 82//82 188//188 111//111
f 110//110 186//186 81//81
f 81//81 184//184 110//110
f 87//87 86//86 59//59
f 93//93 63//63 92//92
f 92//92 86//86 88//88
f 173//173 86//86 105//105
f 105//105 106//106 173//173
f 86//86 106//106 105//105
f 118//118 149//149 117//117
f 117//117 156//156 100//100
f 100//100 118//118 117//117
f 26//26 54//54 52//52
f 52//52 382//382 378//378
f 52//52 54//54 382//382
f 125//125 126//126 127//127
f 127//127 126//126 129//129
f 129//129 130//130 127//127
f 190//190 146//146 189//189
f 190//190 189//189 187//187
f 319//319 58//58 34//34
f 76//76 77//77 82//82
f 82//82 79//79 76//76
f 80//80 75//75 76//76
f 76//76 79//79 80//80
f 108//108 176//176 180//180
f 215//215 129//129 368//368
f 129//129 126//126 368//368
f 368//368 126//126 373//373
f 376//376 125//125 378//378
f 373//373 125//125 376//376
f 98//98 99//99 160//160
f 151//151 149//149 119//119
f 57//57 56//56 27//27
f 25//25 24//24 3//3
f 26//26 52//52 25//25
f 48//48 134//134 47//47
f 48//48 131//131 134//134
f 24//24 25//25 48//48
f 22//22 2//2 23//23
f 23//23 48//48 47//47
f 24//24 48//48 23//23
f 4//4 7//7 26//26
f 26//26 25//25 4//4
f 4//4 25//25 3//3
f 51//51 54//54 26//26
f 26//26 7//7 51//51
f 33//33 34//34 30//30
f 30//30 35//35 33//33
f 30//30 31//31 35//35
f 100//100 66//66 102//102
f 102//102 121//121 100//100
f 102//102 124//124 121//121
f 112//112 91//91 167//167
f 92//92 91//91 112//112
f 112//112 171//171 92//92
f 142//142 138//138 137//137
f 124//124 102//102 137//137
f 137//137 140//140 124//124
f 137//137 135//135 140//140
f 137//137 101//101 142//142
f 137//137 102//102 101//101
f 16//16 21//21 13//13
f 16//16 2//2 22//22
f 22//22 21//21 16//16
f 44//44 21//21 45//45
f 45//45 145//145 44//44
f 13//13 21//21 19//19
f 19//19 21//21 44//44
f 44//44 71//71 43//43
f 43//43 19//19 44//44
f 37//37 19//19 43//43
f 71//71 72//72 43//43
f 43//43 72//72 73//73
f 43//43 73//73 42//42
f 69//69 71//71 44//44
f 20//20 41//41 39//39
f 32//32 12//12 20//20
f 20//20 80//80 32//32
f 20//20 39//39 80//80
f 59//59 60//60 85//85
f 85//85 87//87 59//59
f 86//86 87//87 85//85
f 96//96 60//60 63//63
f 63//63 93//93 96//96
f 96//96 93//93 92//92
f 378//378 125//125 128//128
f 128//128 52//52 378//378
f 316//316 190//190 315//315
f 34//34 146//146 191//191
f 191//191 319//319 34//34
f 146//146 190//190 191//191
f 191//191 190//190 316//316
f 316//316 319//319 191//191
f 363//363 147//147 58//58
f 58//58 319//319 363//363
f 316//316 147//147 363//363
f 363//363 319//319 316//316
f 373//373 376//376 374//374
f 281//281 356//356 280//280
f 281//281 382//382 365//365
f 365//365 356//356 281//281
f 121//121 120//120 154//154
f 154//154 119//119 121//121
f 120//120 211//211 154//154
f 158//158 160//160 99//99
f 240//240 239//239 242//242
f 242//242 239//239 243//243
f 276//276 243//243 239//239
f 239//239 240//240 276//276
f 56//56 366//366 367//367
f 55//55 56//56 367//367
f 367//367 354//354 55//55
f 355//355 354//354 367//367
f 131//131 48//48 49//49
f 49//49 48//48 25//25
f 49//49 25//25 52//52
f 49//49 128//128 131//131
f 52//52 128//128 49//49
f 24//24 23//23 1//1
f 1//1 23//23 2//2
f 3//3 24//24 1//1
f 18//18 51//51 7//7
f 27//27 56//56 50//50
f 50//50 6//6 27//27
f 50//50 18//18 6//6
f 29//29 30//30 34//34
f 9//9 30//30 29//29
f 29//29 8//8 9//9
f 31//31 30//30 10//10
f 10//10 30//30 9//9
f 11//11 31//31 10//10
f 28//28 57//57 27//27
f 58//58 57//57 28//28
f 8//8 29//29 28//28
f 34//34 58//58 28//28
f 28//28 29//29 34//34
f 67//67 102//102 66//66
f 67//67 68//68 101//101
f 101//101 102//102 67//67
f 168//168 113//113 165//165
f 132//132 138//138 133//133
f 132//132 137//137 138//138
f 135//135 137//137 132//132
f 136//136 135//135 132//132
f 133//133 130//130 132//132
f 132//132 130//130 136//136
f 145//145 45//45 144//144
f 46//46 21//21 22//22
f 46//46 45//45 21//21
f 47//47 143//143 46//46
f 143//143 144//144 46//46
f 46//46 144//144 45//45
f 22//22 23//23 46//46
f 46//46 23//23 47//47
f 44//44 145//145 103//103
f 103//103 69//69 44//44
f 145//145 144//144 103//103
f 68//68 69//69 103//103
f 101//101 68//68 103//103
f 103//103 144//144 141//141
f 103//103 141//141 101//101
f 15//15 20//20 12//12
f 40//40 17//17 37//37
f 40//40 43//43 42//42
f 37//37 43//43 40//40
f 42//42 41//41 40//40
f 37//37 17//17 14//14
f 13//13 19//19 14//14
f 14//14 19//19 37//37
f 60//60 88//88 90//90
f 90//90 88//88 86//86
f 94//94 88//88 60//60
f 92//92 88//88 94//94
f 192//192 190//190 187//187
f 192//192 315//315 190//190
f 220//220 262//262 221//221
f 104//104 177//177 176//176
f 104//104 176//176 84//84
f 104//104 86//86 173//173
f 84//84 86//86 104//104
f 175//175 180//180 176//176
f 176//176 177//177 175//175
f 378//378 382//382 282//282
f 382//382 281//281 282//282
f 214//214 120//120 215//215
f 214//214 211//211 120//120
f 212//212 154//154 214//214
f 214//214 154//154 211//211
f 368//368 369//369 383//383
f 215//215 368//368 383//383
f 383//383 214//214 215//215
f 116//116 99//99 156//156
f 116//116 158//158 99//99
f 306//306 333//333 332//332
f 161//161 162//162 163//163
f 163//163 98//98 161//161
f 325//325 262//262 322//322
f 322//322 315//315 325//325
f 220//220 221//221 216//216
f 217//217 246//246 216//216
f 216//216 221//221 217//217
f 242//242 246//246 219//219
f 219//219 246//246 217//217
f 318//318 147//147 316//316
f 362//362 57//57 318//318
f 58//58 147//147 318//318
f 318//318 57//57 58//58
f 322//322 262//262 339//339
f 362//362 318//318 357//357
f 357//357 57//57 362//362
f 56//56 57//57 357//357
f 241//241 281//281 280//280
f 273//273 354//354 355//355
f 55//55 354//354 273//273
f 273//273 276//276 55//55
f 243//243 276//276 273//273
f 278//278 276//276 240//240
f 280//280 356//356 278//278
f 278//278 356//356 55//55
f 55//55 276//276 278//278
f 364//364 366//366 56//56
f 51//51 18//18 53//53
f 55//55 54//54 53//53
f 54//54 51//51 53//53
f 18//18 50//50 53//53
f 53//53 56//56 55//55
f 53//53 50//50 56//56
f 27//27 6//6 5//5
f 8//8 28//28 5//5
f 5//5 28//28 27//27
f 38//38 15//15 17//17
f 17//17 40//40 38//38
f 38//38 40//40 41//41
f 41//41 20//20 38//38
f 20//20 15//15 38//38
f 89//89 85//85 60//60
f 60//60 90//90 89//89
f 86//86 85//85 89//89
f 89//89 90//90 86//86
f 60//60 96//96 95//95
f 95//95 94//94 60//60
f 95//95 96//96 92//92
f 92//92 94//94 95//95
f 347//347 346//346 299//299
f 311//311 312//312 197//197
f 180//180 175//175 197//197
f 181//181 109//109 179//179
f 329//329 328//328 311//311
f 342//342 328//328 329//329
f 327//327 312//312 311//311
f 311//311 328//328 327//327
f 346//346 347//347 257//257
f 261//261 221//221 262//262
f 261//261 325//325 326//326
f 262//262 325//325 261//261
f 345//345 330//330 331//331
f 345//345 331//331 299//299
f 299//299 346//346 345//345
f 171//171 112//112 174//174
f 376//376 380//380 381//381
f 381//381 386//386 385//385
f 380//380 386//386 381//381
f 286//286 287//287 290//290
f 292//292 234//234 233//233
f 294//294 295//295 352//352
f 352//352 293//293 294//294
f 374//374 371//371 370//370
f 370//370 383//383 369//369
f 155//155 154//154 212//212
f 212//212 213//213 155//155
f 153//153 148//148 155//155
f 337//337 213//213 212//212
f 303//303 213//213 337//337
f 212//212 214//214 337//337
f 214//214 383//383 337//337
f 152//152 117//117 149//149
f 149//149 148//148 152//152
f 152//152 148//148 153//153
f 306//306 332//332 307//307
f 307//307 206//206 306//306
f 335//335 301//301 303//303
f 303//303 337//337 335//335
f 98//98 160//160 115//115
f 115//115 161//161 98//98
f 218//218 216//216 246//246
f 245//245 246//246 242//242
f 245//245 272//272 246//246
f 246//246 272//272 267//267
f 264//264 218//218 267//267
f 267//267 218//218 246//246
f 317//317 318//318 316//316
f 316//316 315//315 317//317
f 263//263 218//218 264//264
f 216//216 218//218 263//263
f 263//263 262//262 220//220
f 220//220 216//216 263//263
f 324//324 339//339 264//264
f 324//324 323//323 322//322
f 322//322 339//339 324//324
f 277//277 240//240 242//242
f 242//242 241//241 277//277
f 280//280 278//278 277//277
f 277//277 278//278 240//240
f 237//237 282//282 281//281
f 281//281 241//241 237//237
f 163//163 162//162 164//164
f 164//164 114//114 163//163
f 295//295 294//294 229//229
f 299//299 331//331 298//298
f 331//331 332//332 298//298
f 311//311 197//197 198//198
f 198//198 197//197 175//175
f 198//198 199//199 311//311
f 198//198 175//175 177//177
f 177//177 199//199 198//198
f 178//178 181//181 179//179
f 178//178 179//179 108//108
f 108//108 180//180 178//178
f 313//313 327//327 326//326
f 312//312 327//327 313//313
f 326//326 325//325 313//313
f 343//343 329//329 330//330
f 259//259 327//327 328//328
f 256//256 328//328 342//342
f 256//256 259//259 328//328
f 256//256 254//254 255//255
f 255//255 259//259 256//256
f 258//258 257//257 347//347
f 254//254 256//256 258//258
f 258//258 256//256 257//257
f 172//172 199//199 177//177
f 172//172 104//104 173//173
f 177//177 104//104 172//172
f 173//173 171//171 172//172
f 171//171 174//174 172//172
f 167//167 113//113 166//166
f 113//113 168//168 166//166
f 288//288 386//386 387//387
f 387//387 380//380 379//379
f 387//387 386//386 380//380
f 376//376 381//381 377//377
f 377//377 381//381 385//385
f 385//385 371//371 377//377
f 287//287 286//286 283//283
f 235//235 287//287 283//283
f 283//283 282//282 235//235
f 379//379 380//380 283//283
f 378//378 282//282 283//283
f 283//283 376//376 378//378
f 283//283 380//380 376//376
f 290//290 287//287 291//291
f 234//234 292//292 285//285
f 285//285 291//291 287//287
f 292//292 291//291 285//285
f 374//374 370//370 372//372
f 372//372 370//370 369//369
f 372//372 369//369 368//368
f 372//372 368//368 373//373
f 373//373 374//374 372//372
f 304//304 213//213 303//303
f 303//303 302//302 304//304
f 304//304 302//302 153//153
f 153//153 155//155 304//304
f 304//304 155//155 213//213
f 154//154 155//155 150//150
f 150//150 155//155 148//148
f 119//119 154//154 150//150
f 150//150 151//151 119//119
f 149//149 151//151 150//150
f 150//150 148//148 149//149
f 384//384 337//337 383//383
f 384//384 371//371 385//385
f 384//384 370//370 371//371
f 383//383 370//370 384//384
f 385//385 386//386 384//384
f 384//384 386//386 288//288
f 206//206 307//307 205//205
f 207//207 305//305 306//306
f 306//306 206//206 207//207
f 207//207 164//164 162//162
f 206//206 164//164 207//207
f 334//334 333//333 306//306
f 306//306 305//305 334//334
f 334//334 305//305 301//301
f 159//159 115//115 160//160
f 162//162 161//161 159//159
f 161//161 115//115 159//159
f 352//352 295//295 351//351
f 351//351 293//293 352//352
f 351//351 349//349 293//293
f 301//301 335//335 338//338
f 244//244 245//245 242//242
f 355//355 367//367 359//359
f 359//359 358//358 355//355
f 264//264 267//267 266//266
f 358//358 359//359 266//266
f 266//266 359//359 357//357
f 318//318 317//317 320//320
f 320//320 357//357 318//318
f 323//323 324//324 320//320
f 320//320 324//324 264//264
f 264//264 266//266 320//320
f 320//320 266//266 357//357
f 265//265 339//339 262//262
f 262//262 263//263 265//265
f 264//264 339//339 265//265
f 265//265 263//263 264//264
f 238//238 237//237 241//241
f 235//235 282//282 238//238
f 282//282 237//237 238//238
f 233//233 234//234 236//236
f 236//236 238//238 241//241
f 234//234 285//285 236//236
f 235//235 238//238 236//236
f 225//225 229//229 236//236
f 236//236 287//287 235//235
f 236//236 285//285 287//287
f 236//236 241//241 242//242
f 279//279 241//241 280//280
f 280//280 277//277 279//279
f 279//279 277//277 241//241
f 242//242 243//243 270//270
f 270//270 267//267 272//272
f 270//270 274//274 267//267
f 243//243 273//273 270//270
f 273//273 274//274 270//270
f 355//355 358//358 353//353
f 353//353 273//273 355//355
f 255//255 254//254 251//251
f 225//225 236//236 248//248
f 254//254 258//258 250//250
f 295//295 229//229 228//228
f 228//228 229//229 225//225
f 231//231 294//294 293//293
f 225//225 226//226 297//297
f 297//297 226//226 298//298
f 297//297 332//332 333//333
f 297//297 298//298 332//332
f 181//181 178//178 195//195
f 312//312 313//313 195//195
f 314//314 313//313 325//325
f 315//315 192//192 314//314
f 314//314 325//325 315//315
f 340//340 345//345 342//342
f 342//342 329//329 340//340
f 329//329 343//343 340//340
f 330//330 345//345 344//344
f 344//344 343//343 330//330
f 345//345 340//340 344//344
f 344//344 340//340 343//343
f 326//326 327//327 260//260
f 327//327 259//259 260//260
f 260//260 261//261 326//326
f 341//341 256//256 342//342
f 257//257 256//256 341//341
f 346//346 257//257 341//341
f 342//342 345//345 341//341
f 341//341 345//345 346//346
f 310//310 329//329 311//311
f 311//311 199//199 310//310
f 204//204 166//166 168//168
f 168//168 205//205 204//204
f 204//204 205//205 307//307
f 331//331 330//330 308//308
f 308//308 204//204 307//307
f 308//308 332//332 331//331
f 308//308 307//307 332//332
f 170//170 174//174 112//112
f 170//170 202//202 174//174
f 170//170 112//112 167//167
f 167//167 166//166 170//170
f 290//290 288//288 289//289
f 288//288 387//387 289//289
f 289//289 286//286 290//290
f 289//289 387//387 379//379
f 375//375 374//374 376//376
f 376//376 377//377 375//375
f 375//375 371//371 374//374
f 375//375 377//377 371//371
f 169//169 164//164 206//206
f 206//206 205//205 169//169
f 165//165 114//114 169//169
f 114//114 164//164 169//169
f 169//169 168//168 165//165
f 169//169 205//205 168//168
f 336//336 334//334 301//301
f 301//301 338//338 336//336
f 295//295 334//334 336//336
f 336//336 351//351 295//295
f 349//349 351//351 336//336
f 301//301 305//305 209//209
f 305//305 207//207 208//208
f 208//208 209//209 305//305
f 159//159 209//209 208//208
f 208//208 207//207 162//162
f 162//162 159//159 208//208
f 293//293 349//349 350//350
f 337//337 384//384 350//350
f 288//288 293//293 350//350
f 350//350 384//384 288//288
f 350//350 335//335 337//337
f 350//350 338//338 335//335
f 272//272 245//245 271//271
f 245//245 244//244 271//271
f 271//271 244//244 242//242
f 242//242 270//270 271//271
f 271//271 270//270 272//272
f 357//357 359//359 360//360
f 360//360 367//367 366//366
f 360//360 359//359 367//367
f 269//269 266//266 267//267
f 267//267 274//274 269//269
f 323//323 320//320 321//321
f 321//321 320//320 317//317
f 321//321 317//317 315//315
f 321//321 315//315 322//322
f 322//322 323//323 321//321
f 255//255 251//251 253//253
f 253//253 248//248 255//255
f 249//249 248//248 253//253
f 253//253 251//251 254//254
f 254//254 250//250 253//253
f 253//253 250//250 249//249
f 247//247 248//248 249//249
f 249//249 250//250 247//247
f 225//225 248//248 247//247
f 300//300 258//258 347//347
f 300//300 250//250 258//258
f 300//300 347//347 299//299
f 299//299 250//250 300//300
f 230//230 229//229 294//294
f 294//294 231//231 230//230
f 230//230 231//231 229//229
f 232//232 293//293 288//288
f 232//232 231//231 293//293
f 232//232 288//288 290//290
f 290//290 291//291 232//232
f 232//232 292//292 233//233
f 232//232 291//291 292//292
f 229//229 231//231 232//232
f 233//233 236//236 232//232
f 232//232 236//236 229//229
f 295//295 228//228 296//296
f 296//296 334//334 295//295
f 333//333 334//334 296//296
f 296//296 297//297 333//333
f 312//312 195//195 196//196
f 196//196 195//195 178//178
f 196//196 197//197 312//312
f 180//180 197//197 196//196
f 196//196 178//178 180//180
f 185//185 192//192 187//187
f 185//185 110//110 184//184
f 187//187 186//186 185//185
f 186//186 110//110 185//185
f 221//221 261//261 222//222
f 261//261 260//260 222//222
f 222//222 260//260 223//223
f 224//224 259//259 255//255
f 224//224 222//222 223//223
f 224//224 260//260 259//259
f 223//223 260//260 224//224
f 221//221 222//222 224//224
f 255//255 248//248 224//224
f 217//217 221//221 224//224
f 242//242 219//219 224//224
f 224//224 219//219 217//217
f 224//224 236//236 242//242
f 224//224 248//248 236//236
f 199//199 172//172 200//200
f 200//200 310//310 199//199
f 330//330 329//329 309//309
f 329//329 310//310 309//309
f 310//310 200//200 309//309
f 309//309 308//308 330//330
f 202//202 308//308 309//309
f 166//166 204//204 203//203
f 204//204 308//308 203//203
f 203//203 308//308 202//202
f 203//203 170//170 166//166
f 202//202 170//170 203//203
f 284//284 289//289 379//379
f 286//286 289//289 284//284
f 379//379 283//283 284//284
f 284//284 283//283 286//286
f 349//349 336//336 348//348
f 348//348 336//336 338//338
f 348//348 350//350 349//349
f 338//338 350//350 348//348
f 303//303 301//301 210//210
f 301//301 209//209 210//210
f 210//210 302//302 303//303
f 153//153 302//302 210//210
f 210//210 152//152 153//153
f 156//156 117//117 210//210
f 117//117 152//152 210//210
f 157//157 209//209 159//159
f 160//160 158//158 157//157
f 157//157 159//159 160//160
f 158//158 116//116 157//157
f 157//157 210//210 209//209
f 157//157 116//116 156//156
f 156//156 210//210 157//157
f 366//366 364//364 361//361
f 361//361 360//360 366//366
f 361//361 364//364 56//56
f 56//56 357//357 361//361
f 357//357 360//360 361//361
f 275//275 269//269 274//274
f 275//275 274//274 273//273
f 273//273 353//353 275//275
f 252//252 226//226 225//225
f 225//225 247//247 252//252
f 299//299 298//298 252//252
f 298//298 226//226 252//252
f 252//252 250//250 299//299
f 252//252 247//247 250//250
f 225//225 297//297 227//227
f 297//297 296//296 227//227
f 227//227 228//228 225//225
f 227//227 296//296 228//228
f 313//313 314//314 193//193
f 193//193 314//314 192//192
f 192//192 185//185 193//193
f 201//201 309//309 200//200
f 201//201 172//172 174//174
f 201//201 200//200 172//172
f 174//174 202//202 201//201
f 202//202 309//309 201//201
f 268//268 275//275 353//353
f 269//269 275//275 268//268
f 268//268 353//353 358//358
f 358//358 266//266 268//268
f 266//266 269//269 268//268
f 194//194 195//195 313//313
f 313//313 193//193 194//194
f 181//181 195//195 194//194
f 181//181 194//194 183//183
f 182//182 109//109 183//183
f 109//109 181//181 183//183
f 183//183 184//184 182//182
f 183//183 185//185 184//184
f 183//183 193//193 185//185
f 183//183 194//194 193//193
f 134//134 131//131 127//127
f 127//127 130//130 134//134
f 128//128 127//127 131//131
f 125//125 127//127 128//128
f 67//67 60//60 59//59
f 67//67 75//75 74//74
f 64//64 62//62 67//67
f 59//59 61//61 67//67
f 67//67 78//78 77//77
f 74//74 70//70 67//67
f 67//67 65//65 64//64
f 67//67 62//62 63//63
f 71//71 69//69 67//67
f 67//67 70//70 73//73
f 77//77 76//76 67//67
f 73//73 72//72 67//67
f 63//63 60//60 67//67
f 67//67 66//66 65//65
f 61//61 78//78 67//67
f 67//67 76//76 75//75
f 67//67 72//72 71//71
f 67//67 69//69 68//68
f 138//138 141//141 144//144
f 144//144 143//143 138//138
f 5//5 15//15 12//12
f 9//9 8//8 5//5
f 5//5 18//18 7//7
f 5//5 12//12 11//11
f 5//5 4//4 3//3
f 5//5 16//16 13//13
f 7//7 4//4 5//5
f 3//3 1//1 5//5
f 13//13 14//14 5//5
f 2//2 16//16 5//5
f 11//11 10//10 5//5
f 5//5 1//1 2//2
f 6//6 18//18 5//5
f 5//5 10//10 9//9
f 17//17 15//15 5//5
f 5//5 14//14 17//17

