# https://github.com/mikedh/trimesh
v -27.82091331 50.00000000 4.90427351
v -27.82091141 50.00000000 -4.90427780
v -24.46446609 50.00000000 14.12586594
v -18.15940285 50.00000000 21.64015198
v 18.15939903 50.00000000 21.64015388
v 9.66138840 50.00000000 26.54627800
v -9.66139221 50.00000000 26.54627609
v 24.46446419 50.00000000 14.12586975
v 27.82091141 50.00000000 4.90427780
v 27.82091331 50.00000000 -4.90427351
v 24.46446609 50.00000000 -14.12586594
v 18.15940285 50.00000000 -21.64015198
v -18.15939903 50.00000000 -21.64015388
v -9.66138840 50.00000000 -26.54627800
v 9.66139221 50.00000000 -26.54627609
v -24.46446419 50.00000000 -14.12586975
v 0.00000000 50.00000000 -28.25000000
v -0.00000000 50.00000000 28.25000000
v -21.74725723 53.00000000 -29.93416023
v 21.74726105 53.00000000 -29.93415833
v -29.93309784 53.00000000 -21.74831390
v -35.18939209 53.00000000 -11.43200779
v -37.00000000 53.00000000 -0.00000000
v -35.18939590 53.00000000 11.43200397
v -29.93309975 53.00000000 21.74831009
v -21.74726105 53.00000000 29.93415833
v 21.74725723 53.00000000 29.93416023
v 29.93309784 53.00000000 21.74831390
v 35.18939209 53.00000000 11.43200779
v 37.00000000 53.00000000 -0.00000000
v 35.18939590 53.00000000 -11.43200397
v 29.93309975 53.00000000 -21.74831009
v 37.50000000 53.50000000 -0.00000000
v 35.66471863 53.50000000 11.58783531
v 35.66471863 53.50000000 -11.58783150
v 30.33827782 53.50000000 -22.04175186
v -11.43510342 53.00000000 -35.18848038
v 11.43510818 53.00000000 -35.18848038
v 22.04209328 53.50000000 -30.33803177
v 0.00000232 53.00000000 -36.99969864
v 11.58821964 53.50000000 -35.66459274
v 0.00000241 53.50000000 -37.50000000
v -11.58821487 53.50000000 -35.66459274
v -22.04208946 53.50000000 -30.33803368
v -30.33827591 53.50000000 -22.04175568
v -35.66471863 53.50000000 -11.58783531
v -37.50000000 53.50000000 -0.00000000
v -35.66471863 53.50000000 11.58783150
v -30.33827782 53.50000000 22.04175186
v 11.43510342 53.00000000 35.18848038
v -11.43510818 53.00000000 35.18848038
v -22.04209328 53.50000000 30.33803177
v -0.00000233 53.00000000 36.99969864
v -11.58821964 53.50000000 35.66459274
v -0.00000241 53.50000000 37.50000000
v 11.58821487 53.50000000 35.66459274
v 22.04208946 53.50000000 30.33803368
v 30.33827591 53.50000000 22.04175568
v 62.00000000 164.07717896 -5.90559340
v 62.00000000 160.74981689 17.23850822
v 62.00000000 160.74981689 -17.23851013
v 62.00000000 145.43794250 -34.91094971
v 62.00000000 154.36444092 -27.17528534
v 62.00000000 134.69305420 -39.81856155
v 62.00000000 123.00000000 -41.50000000
v 62.00000000 111.30720520 -39.81864166
v 62.00000000 100.56221008 -34.91104889
v 62.00000000 91.63562775 -27.17537117
v 62.00000000 85.25019836 -17.23856544
v 62.00000000 81.92282867 5.90560961
v 62.00000000 85.25019836 17.23856163
v 62.00000000 100.56221008 34.91104889
v 62.00000000 91.63562775 27.17536736
v 62.00000000 111.30719757 39.81863785
v 62.00000000 123.00000000 41.50000000
v 62.00000000 134.69305420 39.81856155
v 62.00000000 145.43794250 34.91094971
v 62.00000000 154.36444092 27.17528534
v 60.00000000 123.00000000 43.50000000
v 60.00000000 111.90303802 42.06075668
v 60.00000000 144.46026611 37.83790588
v 60.00000000 134.09724426 42.06068802
v 60.00000000 153.40321350 31.11100769
v 60.00000000 160.33415222 22.32511711
v 62.00000000 164.07717896 5.90559244
v 60.00000000 164.79432678 12.06167316
v 60.96298218 165.53617859 0.26656267
v 60.00000000 166.48851013 0.99993396
v 60.33616257 166.15364075 0.93810230
v 60.61803055 165.87486267 0.78051853
v 60.83288193 165.66360474 0.54811746
v 60.00000000 164.79432678 -12.06167316
v 60.00000000 166.48851013 -0.99993396
v 60.32712173 166.16261292 -0.94136620
v 60.99962234 165.50036621 -0.02722615
v 60.94948196 165.54939270 -0.31037679
v 60.81558228 165.68057251 -0.57317698
v 60.60281372 165.88987732 -0.79230177
v 60.00000000 160.33415222 -22.32511711
v 60.00000000 153.40321350 -31.11100769
v 60.00000000 144.46026611 -37.83790588
v 60.00000000 134.09724426 -42.06068802
v 60.00000000 123.00000000 -43.50000000
v 60.00000000 101.53992462 -37.83801270
v 60.00000000 111.90303802 -42.06076050
v 60.00000000 92.59688568 -31.11110306
v 60.00000000 85.66588593 -22.32518959
v 62.00000000 81.92282867 -5.90561390
v 60.00000000 81.20568085 -12.06171036
v 60.96298218 80.46381378 -0.26656267
v 60.00000000 81.20568085 12.06170940
v 60.99962234 80.49962616 0.02722615
v 60.94948196 80.45061493 0.31037679
v 60.00000000 85.66588593 22.32518768
v 60.00000000 92.59688568 31.11110115
v 60.00000000 101.53992462 37.83800888
v 1.90501952 166.15307617 5.48300171
v 58.00000000 166.48851013 0.99993396
v 58.00000000 166.50000000 -0.00000000
v 58.00000000 166.48851013 -0.99993396
v 0.44629535 163.36918640 16.20282173
v -2.48358631 157.77766418 26.12814713
v -6.84965420 149.44525146 34.53786850
v -12.46669960 138.72541809 40.55853271
v -0.00000000 123.00000000 43.50000000
v -18.91037369 126.42800903 43.36431503
v -0.00000000 76.00000000 43.50000000
v 11.09749985 76.00000000 42.06061554
v -11.09749985 76.00000000 42.06061554
v 1.90529501 166.15361023 -5.47886086
v 0.44711724 163.37075806 -16.19891357
v -2.48223805 157.78022766 -26.12472343
v -6.84783363 149.44873047 -34.53520584
v -12.46452522 138.72956848 -40.55692291
v -18.90806389 126.43241119 -43.36396408
v 0.00000000 123.00000000 -43.50000000
v -11.09749985 76.00000000 -42.06061554
v 0.00000000 76.00000000 -43.50000000
v 11.09749985 76.00000000 -42.06061554
v -6.09540510 75.80902100 -43.03253937
v 6.09540558 75.80902100 -43.03253937
v -6.09540558 75.80902100 43.03253937
v 6.09540510 75.80902100 43.03253937
v -45.84043884 165.34632874 4.90152597
v 2.06612682 166.46055603 0.00001016
v -45.80368042 165.63220215 -0.00000000
v 1.39350307 165.17687988 -10.49328136
v -46.65597916 165.15954590 4.86690998
v -45.90855789 164.82392883 -8.23447704
v -46.22170258 165.58061218 0.00000003
v 1.39350283 165.17687988 10.49328327
v -46.30545807 161.79991150 17.66932678
v -0.63395214 161.30758667 20.54165649
v -46.00289154 164.10920715 11.27302265
v -46.75050354 158.37394714 23.80809021
v -4.01872396 154.84793091 29.59255028
v -47.34511566 153.83070374 29.45599174
v -6.20231247 150.68066406 33.52801514
v -48.04767609 148.43179321 34.24286652
v -8.68649292 145.93974304 36.93897247
v -48.81689453 142.49583435 37.95206070
v -11.43579388 140.69284058 39.72512436
v -49.84214783 134.57534790 41.08162308
v -14.40094566 135.03401184 41.79377365
v -17.51909828 129.08317566 43.06884766
v -20.71790123 122.97843170 43.50000000
v -43.70321274 122.99642944 42.91333771
v -51.34458160 123.00242615 42.71830368
v -51.28979492 123.42769623 42.71481705
v -51.23490524 123.85293579 42.70708466
v -52.13736343 116.83707428 42.29004288
v -51.64761734 123.90738678 42.65105820
v -52.94131088 116.97127533 42.11077499
v -51.75730133 123.05777740 42.66328812
v -50.64738464 134.62312317 40.86734772
v -51.28455734 129.73167419 41.96567917
v -52.03989410 123.95710754 42.50934601
v -49.62440491 142.49461365 37.73651505
v -48.85681534 148.38781738 34.03695679
v -48.15595627 153.74546814 29.26885414
v -47.56326294 158.25042725 23.65086937
v -47.11957550 161.64579773 17.54938698
v -46.81774139 163.93414307 11.19420719
v -20.71790314 122.97843170 -43.50000000
v -53.10216141 109.44019318 40.55596161
v -55.65715408 96.16024017 33.11378098
v -55.04380798 100.86413574 36.40309143
v -53.90690231 109.60181427 40.40015411
v -43.70321274 122.99642944 -42.91333771
v -51.28979111 123.42771912 -42.71481705
v -51.34458160 123.00242615 -42.71830368
v -53.27393341 108.12593079 -40.09887314
v -52.34392548 115.24439240 -42.03206253
v -51.75730133 123.05777740 -42.66328812
v -51.23490524 123.85293579 -42.70708466
v -51.64761734 123.90738678 -42.65105820
v -53.14762115 115.38514709 -41.85760117
v -52.14957047 123.11012268 -42.52251816
v -54.07908249 108.29100800 -39.94731522
v -55.13090134 100.19364166 -35.99047470
v -55.69766998 95.85075378 -32.86227417
v -17.51910019 129.08317566 -43.06884766
v -50.43842316 129.97416687 -42.12174606
v -14.40094566 135.03401184 -41.79377365
v -49.67885208 135.84091187 -40.70048904
v -11.43579388 140.69284058 -39.72512436
v -48.56381989 144.44497681 -36.88214493
v -8.68649292 145.93974304 -36.93897247
v -47.61917877 151.73178101 -31.51202011
v -6.20231199 150.68066406 -33.52801514
v -4.01872349 154.84793091 -29.59255028
v -46.82605743 157.79505920 -24.64642715
v -0.63395178 161.30758667 -20.54165459
v -46.26598358 162.10394287 -16.98334694
v -46.72374344 164.64216614 -8.17653465
v -46.61965179 165.44261169 -0.00000000
v -47.08026123 161.94712830 -16.86752510
v -47.63842773 157.67684937 -24.48412132
v -48.42933273 151.66290283 -31.31608200
v -49.37184143 144.42999268 -36.66870880
v -50.48431778 135.88104248 -40.48534393
v -51.24298477 130.04844666 -41.91268921
v -59.50205994 125.24221039 30.44318199
v -60.44967651 119.89253235 29.98272324
v -58.69755554 129.78395081 30.08545113
v -57.90223694 134.27381897 29.04403114
v -57.15166855 138.51107788 27.36658478
v -56.46165085 142.40650940 25.10311127
v -55.83464050 145.94621277 22.26400948
v -56.46079254 142.41134644 -25.09975433
v -55.83368683 145.95159912 -22.25898933
v -57.15056610 138.51730347 -27.36356354
v -57.90128326 134.27922058 -29.04235077
v -58.69702148 129.78697205 -30.08498383
v -59.50205994 125.24221039 -30.44318390
v -60.44966507 119.89260101 -29.98274422
v -61.37882233 114.64714813 -28.58135986
v -62.23806000 109.79642487 -26.31509781
v -63.01232147 105.42540741 -23.23733902
v -63.68205261 101.64451599 -19.43808556
v -63.68174362 101.64626312 19.44023895
v -64.21752167 98.62159729 15.10077572
v -64.21810913 98.61827087 -15.09494209
v -63.01236725 105.42514801 23.23711777
v -62.23818970 109.79570007 26.31465340
v -61.37899017 114.64619446 28.58102989
v -54.25809097 154.84645081 -6.91973257
v -54.13392639 155.54740906 -2.49240589
v -53.87097931 156.69880676 -3.24736762
v -54.49642181 153.50099182 -11.22021580
v -54.25821686 154.84573364 6.92276239
v -54.13392639 155.54740906 2.49240971
v -53.87141418 156.69725037 3.24673700
v -54.49678421 153.49893188 11.22536182
v -53.24437714 157.58476257 10.36707783
v -52.98463440 159.04205322 3.34243631
v -53.43473053 158.00407410 3.50000000
v -54.84066772 151.55757141 -15.23610401
v -54.84119034 151.55461121 15.24123096
v -53.75738907 154.68861389 16.96767807
v -55.28746796 149.03520203 -18.92923546
v -55.28814697 149.03138733 18.93403244
v -54.50333786 150.47744751 22.78933525
v -55.44399643 145.16706848 27.59264946
v -56.53763962 138.99301147 31.16811943
v -57.73612976 132.22708130 33.37523651
v -58.98754883 125.16232300 34.14180374
v -60.78684998 114.09022522 32.88305283
v -58.83024216 125.13603210 34.65772629
v -59.82089233 119.54344177 34.21622086
v -61.70704269 108.99226379 30.66816902
v -62.40349960 107.83502197 27.69376564
v -61.91446304 108.98398590 29.87920761
v -62.18493652 108.60552979 28.67584038
v -63.51259232 98.70234680 22.56770706
v -62.58976364 106.74289703 27.03475952
v -62.70866394 105.51132965 26.81088829
v -62.68959045 104.13130188 27.09443665
v -62.63172531 103.70850372 27.31088257
v -64.61051941 96.40297699 10.31284904
v -64.22138977 94.70089722 16.83959770
v -64.61103058 96.40007782 -10.30495071
v -64.85091400 95.04585266 5.22510767
v -64.71273041 91.92710876 10.40342522
v -64.85127258 95.04380035 -5.21323729
v -64.93170166 94.58976746 0.00565342
v -64.96509552 90.50241852 3.52633619
v -64.96553040 90.49996185 -3.50224900
v -64.71402740 91.91979980 -10.38022804
v -64.22349548 94.68902588 -16.81826973
v -63.51540756 98.68647003 -22.54925537
v -62.70866394 105.51132965 -26.81088829
v -62.63132477 103.70610809 -27.31232452
v -62.71046448 104.39491272 -26.99372101
v -62.18072510 108.61582947 -28.69548225
v -62.58847427 106.75247192 -27.03837776
v -62.40159988 107.84383392 -27.70161819
v -60.78686905 114.09011841 -32.88301849
v -61.70652771 108.99207306 -30.67002678
v -61.90599060 108.98812103 -29.91394615
v -59.82090378 119.54336548 -34.21620941
v -58.98754883 125.16232300 -34.14180374
v -57.73622131 132.22656250 -33.37535095
v -56.53774643 138.99241638 -31.16838455
v -55.44409943 145.16647339 -27.59306335
v -54.50342941 150.47692871 -22.78992081
v -53.75746536 154.68818665 -16.96841431
v -53.24443054 157.58447266 -10.36795807
v -53.43473053 158.00407410 -3.50000000
v -58.13571167 100.07929993 -33.69366455
v -59.86053848 104.24225616 -33.57357407
v -59.98361588 105.50919342 -33.81089020
v -56.80794907 107.57503510 -37.95877457
v -60.14397430 106.15530396 -33.75075912
v -60.05788803 103.12007904 -32.86859512
v -60.58518600 102.31118774 -31.73206520
v -60.87725449 102.11336517 -31.15563965
v -59.28079987 93.61483002 -27.94912720
v -61.94369125 96.21448517 -25.82715225
v -61.26125717 102.01162720 -30.41092682
v -60.19588470 88.44881439 -20.94121933
v -62.78565598 91.46125793 -19.34094238
v -62.56513596 103.39531708 -27.52288437
v -62.26272583 102.63662720 -28.31386948
v -61.83160019 102.16953278 -29.26830673
v -60.83290100 84.85261536 -12.97091293
v -63.37133408 88.15487671 -11.97690868
v -61.16072083 83.00195312 -4.39569712
v -63.67271805 86.45343781 -4.06245136
v -61.16072845 83.00189972 4.39544868
v -63.67303848 86.45164490 4.04582787
v -63.37224579 88.14972687 11.96121883
v -60.83290482 84.85259247 12.97084236
v -62.78710938 91.45305634 19.32684708
v -60.19587708 88.44885254 20.94129562
v -61.94561768 96.20359802 25.81515503
v -59.28078842 93.61490631 27.94920921
v -60.86388016 102.12063599 31.18440437
v -61.30243683 102.01029968 30.33313942
v -62.43694687 102.99307251 27.87995338
v -61.95411301 102.26205444 29.00856972
v -58.13570023 100.07936859 33.69371796
v -60.65870285 102.24957275 31.58423615
v -60.22107697 102.76747894 32.48620605
v -56.80793381 107.57512665 37.95881271
v -59.97073746 103.40045166 33.10431671
v -59.86812592 104.06662750 33.49981689
v -59.87722778 104.77001190 33.73196030
v -59.98361588 105.50919342 33.81089020
v -60.14370728 106.15425873 33.75095367
v -59.13220596 112.08639526 36.32380676
v -60.39845657 106.91257477 33.51735687
v -55.36038971 115.74707031 40.56370926
v -58.02213669 118.35317230 37.92378235
v -61.51358414 108.86822510 31.29828453
v -60.97091675 108.13522339 32.62563324
v -55.98197937 124.64638519 39.54984283
v -56.87980270 124.80209351 38.45483398
v -55.10299301 124.49335480 40.42695618
v -53.84988785 124.27445221 41.43392563
v -53.72669983 132.26307678 39.64012527
v -57.48196793 124.90604401 37.56260300
v -52.09479523 123.53362274 42.51804352
v -52.14957047 123.11012268 42.52251816
v -59.13210678 112.08696747 -36.32400894
v -55.36040497 115.74697876 -40.56369019
v -55.10299301 124.49335480 -40.42695618
v -53.84988785 124.27445221 -41.43392563
v -55.98197937 124.64638519 -39.54984283
v -56.87980270 124.80209351 -38.45483398
v -58.02209091 118.35344696 -37.92382812
v -53.53354263 133.35351562 -39.40593719
v -52.09479141 123.53364563 -42.51804352
v -52.03989410 123.95710754 -42.50934601
v -56.02098846 133.15383911 -36.61182404
v -57.48196793 124.90604401 -37.56260300
v -58.58927536 125.09540558 -35.33389664
v -58.83024216 125.13603210 -34.65772629
v -60.39567947 106.90535736 -33.52050400
v -60.96384430 108.12289429 -32.63953400
v -61.50402451 108.85965729 -31.32695770
v -56.20092392 132.13804626 36.82997894
v -58.58927536 125.09540558 35.33389664
v -52.03945541 141.78822327 -36.46308517
v -50.69015121 149.40557861 -31.69482231
v -49.55855179 155.79388428 -25.34083176
v -48.69851303 160.64915466 -17.66537285
v -48.16378784 163.66787720 -9.07582569
v -47.98015594 164.70454407 -0.00000000
v -48.12120056 163.90830994 7.95992422
v -49.30863953 163.76490784 -0.00000000
v -50.98819733 161.56591797 7.38728857
v -51.02776337 161.34252930 -8.42411327
v -50.85723877 162.30522156 -0.00000000
v -51.52439117 158.53889465 -16.40220642
v -52.32297516 154.03056335 -23.52892303
v -53.37562180 148.08796692 -29.43949318
v -54.63009644 141.00596619 -33.87252426
v -51.52837753 161.50257874 -0.00000000
v -51.69060516 161.27191162 1.24990010
v -52.16139221 160.54980469 2.40087056
v -51.69129562 161.27096558 -1.25240374
v -52.16317368 160.54689026 -2.40396309
v -52.81587982 159.38232422 -3.21699953
v -52.98513031 159.04095459 -3.34277678
v -48.53288269 161.58418274 15.58437920
v -49.20065308 157.81436157 22.59901047
v -50.09380722 152.77217102 28.69833183
v -51.17408371 146.67358398 33.68543625
v -52.40240479 139.73924255 37.37524033
v -54.96773148 139.09989929 34.72105789
v -53.82548523 145.54832458 31.28998375
v -52.82082748 151.22000122 26.65175438
v -51.99052811 155.90736389 20.98215866
v -51.37062454 159.40696716 14.47025108
v -52.81334305 159.38732910 3.21484923
vn -0.17569221 -0.98396140 0.03085797
vn -0.17569220 -0.98396140 -0.03085802
vn -0.15476611 -0.98393089 0.08903628
vn -0.11519319 -0.98385557 0.13696260
vn 0.11519316 -0.98385557 0.13696260
vn 0.06127783 -0.98370627 0.16901774
vn -0.06127784 -0.98370628 0.16901770
vn 0.15476612 -0.98393088 0.08903630
vn 0.17569220 -0.98396140 0.03085802
vn 0.17569221 -0.98396140 -0.03085797
vn 0.15476611 -0.98393089 -0.08903628
vn 0.11519319 -0.98385557 -0.13696260
vn -0.11519316 -0.98385557 -0.13696260
vn -0.06127783 -0.98370627 -0.16901774
vn 0.06127784 -0.98370628 -0.16901770
vn -0.15476612 -0.98393088 -0.08903630
vn -0.00000000 -0.98358839 -0.18042694
vn 0.00000000 -0.98358839 0.18042694
vn -0.32024592 -0.83776628 -0.44225583
vn 0.32024600 -0.83776628 -0.44225577
vn -0.44152799 -0.83761913 -0.32163213
vn -0.51961688 -0.83749498 -0.16911669
vn -0.54659265 -0.83739863 -0.00000001
vn -0.51961846 -0.83749392 0.16911709
vn -0.44152806 -0.83761912 0.32163206
vn -0.32024600 -0.83776628 0.44225577
vn 0.32024592 -0.83776628 0.44225583
vn 0.44152799 -0.83761913 0.32163213
vn 0.51961688 -0.83749498 0.16911669
vn 0.54659265 -0.83739863 0.00000001
vn 0.51961846 -0.83749392 -0.16911709
vn 0.44152806 -0.83761912 -0.32163206
vn 0.72819451 -0.68537052 -0.00000001
vn 0.69684309 -0.67835172 0.23291340
vn 0.69684412 -0.67835055 -0.23291374
vn 0.60378048 -0.65380041 -0.45606375
vn -0.16789813 -0.83814982 -0.51895577
vn 0.16789818 -0.83814983 -0.51895574
vn 0.44961851 -0.60035134 -0.66137845
vn -0.00000000 -0.83839006 -0.54507074
vn 0.23719674 -0.52055000 -0.82022278
vn 0.00000001 -0.49721672 -0.86762638
vn -0.24649070 -0.51362241 -0.82184813
vn -0.46042337 -0.57631348 -0.67518375
vn -0.61810120 -0.63099109 -0.46882955
vn -0.71153581 -0.66062441 -0.23935784
vn -0.74245253 -0.66989868 -0.00000003
vn -0.71153679 -0.66062323 0.23935820
vn -0.61810127 -0.63099114 0.46882940
vn 0.16789813 -0.83814982 0.51895577
vn -0.16789818 -0.83814983 0.51895574
vn -0.46042805 -0.57653223 0.67499378
vn 0.00000000 -0.83839006 0.54507074
vn -0.24638427 -0.51370574 0.82182796
vn -0.00000001 -0.49721672 0.86762638
vn 0.23719669 -0.52055000 0.82022279
vn 0.44961840 -0.60035128 0.66137858
vn 0.60378042 -0.65380038 0.45606389
vn 0.90345330 0.42370954 -0.06513340
vn 0.90358089 0.39115751 0.17474949
vn 0.90358084 0.39115760 -0.17474954
vn 0.90855685 0.23379094 -0.34621704
vn 0.90550045 0.32579207 -0.27189787
vn 0.91151425 0.12198945 -0.39275991
vn 0.91261585 0.00000069 -0.40881818
vn 0.91151391 -0.12198781 -0.39276121
vn 0.90855650 -0.23378999 -0.34621860
vn 0.90577935 -0.32521456 -0.27166019
vn 0.91853816 -0.35871914 -0.16615725
vn 0.92703344 -0.37020307 0.05965476
vn 0.91853818 -0.35871909 0.16615722
vn 0.90855634 -0.23379016 0.34621891
vn 0.90577939 -0.32521453 0.27166011
vn 0.91151378 -0.12198801 0.39276146
vn 0.91261584 0.00000062 0.40881821
vn 0.91151425 0.12198945 0.39275991
vn 0.90855685 0.23379094 0.34621704
vn 0.90550045 0.32579208 0.27189787
vn 0.38665786 0.01462984 0.92210719
vn 0.44960422 -0.18980349 0.87282912
vn 0.38287683 0.44687189 0.80852387
vn 0.37712723 0.22827018 0.89758998
vn 0.38866530 0.63782912 0.66491601
vn 0.39265997 0.78670503 0.47635423
vn 0.90345322 0.42370985 0.06513252
vn 0.39437471 0.88269975 0.25555771
vn 0.74071794 0.67165732 0.01460762
vn 0.37193216 0.92614785 0.06258300
vn 0.71018113 0.70314172 0.03513511
vn 0.71447915 0.69899107 0.03051279
vn 0.72165221 0.69180946 0.02485486
vn 0.39437398 0.88270004 -0.25555782
vn 0.37190634 0.92615875 -0.06257518
vn 0.71006718 0.70324957 -0.03527958
vn 0.76356853 0.64572644 -0.00067512
vn 0.73560682 0.67719565 -0.01698978
vn 0.72050491 0.69297926 -0.02554244
vn 0.71413064 0.69933610 -0.03076436
vn 0.39265924 0.78670531 -0.47635436
vn 0.38866485 0.63782941 -0.66491599
vn 0.38287696 0.44687211 -0.80852368
vn 0.37712746 0.22826996 -0.89758994
vn 0.38665783 0.01462995 -0.92210720
vn 0.55143555 -0.37507205 -0.74514414
vn 0.44960428 -0.18980337 -0.87282912
vn 0.64388843 -0.51090844 -0.56954390
vn 0.70466207 -0.59199581 -0.39114233
vn 0.92703438 -0.37020008 -0.05965863
vn 0.74773401 -0.63608477 -0.19049940
vn 0.76373741 -0.64516050 -0.02175094
vn 0.74773406 -0.63608471 0.19049939
vn 0.78402459 -0.62072739 0.00171867
vn 0.75933418 -0.65020878 0.02530127
vn 0.70466214 -0.59199574 0.39114233
vn 0.64388845 -0.51090845 0.56954387
vn 0.55143526 -0.37507211 0.74514433
vn -0.00869460 0.99223767 0.12405165
vn -0.00019771 0.99907670 0.04296173
vn 0.00049525 0.99999988 -0.00000000
vn -0.00019768 0.99907777 -0.04293686
vn -0.00804894 0.93074455 0.36558144
vn -0.00859163 0.80719815 0.59021804
vn -0.00935554 0.60291520 0.79775042
vn -0.01108534 0.35955658 0.93305744
vn -0.00000118 0.01977909 0.99980437
vn -0.01356512 0.08337581 0.99642584
vn -0.00267325 -0.14553926 0.98934887
vn 0.19380311 -0.26411941 0.94481813
vn -0.21040683 -0.23797687 0.94820672
vn -0.00823617 0.99229061 -0.12365885
vn -0.00922799 0.93105589 -0.36475988
vn -0.00902414 0.80731460 -0.59005229
vn -0.00998152 0.60278458 -0.79784154
vn -0.01188746 0.36074835 -0.93258743
vn -0.01202751 0.08186375 -0.99657095
vn -0.00000118 0.01980479 -0.99980387
vn -0.21096482 -0.23924695 -0.94776302
vn -0.00272702 -0.14551385 -0.98935246
vn 0.19380309 -0.26411944 -0.94481812
vn -0.11770568 -0.18178200 -0.97626875
vn 0.11538600 -0.19681204 -0.97362780
vn -0.11790573 -0.18203574 0.97619733
vn 0.11538600 -0.19681205 0.97362780
vn -0.12049022 0.98495798 0.12385426
vn -0.00924711 0.99995724 0.00002727
vn -0.07066402 0.99732342 -0.01877750
vn -0.00929749 0.96925058 -0.24590011
vn -0.38068858 0.91880048 0.10431628
vn -0.12210407 0.97303715 -0.19567652
vn -0.22445152 0.97431057 -0.01845089
vn -0.00896692 0.96948539 0.24498505
vn -0.12299365 0.90527700 0.40662773
vn -0.00855765 0.87721941 0.48001341
vn -0.12246045 0.95777940 0.26011931
vn -0.12329756 0.82700075 0.54851388
vn -0.00976203 0.72913500 0.68430027
vn -0.12400709 0.72459512 0.67792636
vn -0.00939554 0.66205848 0.74939329
vn -0.12479534 0.60269310 0.78815427
vn -0.01001524 0.52213066 0.85280670
vn -0.12690418 0.45796770 0.87986414
vn -0.00930156 0.43230825 0.90167791
vn -0.12191840 0.29315474 0.94825956
vn -0.01162102 0.26977755 0.96285255
vn -0.01177884 0.16439689 0.98632394
vn -0.01607349 0.02010384 0.99966868
vn -0.02551500 0.00011332 0.99967443
vn -0.08651931 -0.01445178 0.99614535
vn -0.07872108 0.02341997 0.99662154
vn -0.07372653 0.07325541 0.99458436
vn -0.17067573 -0.11125871 0.97902569
vn -0.22389983 0.08687907 0.97073214
vn -0.38320666 -0.07750010 0.92040556
vn -0.23531152 0.00288008 0.97191573
vn -0.38300196 0.31801486 0.86728083
vn -0.30416586 0.18602627 0.93427906
vn -0.41107598 0.10490229 0.90554517
vn -0.37852994 0.46286274 0.80154424
vn -0.37101347 0.59270985 0.71487344
vn -0.36339442 0.70014537 0.61460634
vn -0.36029216 0.78597789 0.50242246
vn -0.36653123 0.85182894 0.37422229
vn -0.37519972 0.89619607 0.23676523
vn -0.01607303 0.02012903 -0.99966819
vn -0.21741542 -0.21949792 0.95107897
vn -0.55183107 -0.46661270 0.69119828
vn -0.47695159 -0.37041873 0.79706157
vn -0.40217003 -0.22433157 0.88765681
vn -0.02551500 0.00011311 -0.99967443
vn -0.07872112 0.02342020 -0.99662153
vn -0.08951364 -0.02144621 -0.99575467
vn -0.22372944 -0.23354152 -0.94625763
vn -0.18038936 -0.13469378 -0.97432913
vn -0.23629118 -0.00604547 -0.97166349
vn -0.07568297 0.06420808 -0.99506252
vn -0.22687116 0.08459984 -0.97024345
vn -0.37587854 -0.11336449 -0.91970855
vn -0.42940230 0.01943457 -0.90290418
vn -0.40337127 -0.24704438 -0.88105658
vn -0.48473330 -0.38337974 -0.78616386
vn -0.55704488 -0.47011070 -0.68461444
vn -0.01067100 0.16462075 -0.98629921
vn -0.12681419 0.17991649 -0.97547333
vn -0.01115876 0.26938327 -0.96296840
vn -0.12593187 0.33020881 -0.93546956
vn -0.01022062 0.43221935 -0.90171058
vn -0.12667329 0.50794252 -0.85202598
vn -0.01082247 0.52280306 -0.85238479
vn -0.12519605 0.67679528 -0.72544752
vn -0.00903820 0.66190928 -0.74952947
vn -0.01006109 0.72939059 -0.68402350
vn -0.12400259 0.81312940 -0.56872131
vn -0.00892997 0.87723211 -0.47998342
vn -0.12306073 0.91341128 -0.38798955
vn -0.35992129 0.91822045 -0.16531143
vn -0.40161058 0.91565240 -0.01701855
vn -0.36103545 0.86756543 -0.34202870
vn -0.36787584 0.77997075 -0.50627364
vn -0.37076120 0.65965331 -0.65375350
vn -0.37645919 0.50898040 -0.77409136
vn -0.38362207 0.34529068 -0.85650946
vn -0.39644196 0.20478473 -0.89492848
vn -0.98206280 0.17366469 0.07343857
vn -0.98411084 0.15811074 0.08078891
vn -0.98017745 0.18410966 0.07318328
vn -0.97812190 0.19562433 0.07077196
vn -0.97628114 0.20616992 0.06609918
vn -0.97494025 0.21376090 0.06162622
vn -0.97325397 0.22308439 0.05486400
vn -0.97493841 0.21377505 -0.06160619
vn -0.97325304 0.22309087 -0.05485417
vn -0.97627839 0.20618473 -0.06609364
vn -0.97812059 0.19563235 -0.07076791
vn -0.98017647 0.18411564 -0.07318144
vn -0.98206238 0.17366655 -0.07343981
vn -0.98411045 0.15811324 -0.08078874
vn -0.98527866 0.15331097 -0.07564198
vn -0.98734481 0.15375974 -0.03883517
vn -0.98966235 0.13799998 -0.03904394
vn -0.99268816 0.10948538 -0.05082489
vn -0.99268734 0.10948618 0.05083924
vn -0.99383236 0.10221292 0.04300874
vn -0.99383271 0.10220601 -0.04301714
vn -0.98966020 0.13801734 0.03903725
vn -0.98734638 0.15375290 0.03882235
vn -0.98527641 0.15329731 0.07569890
vn -0.97681391 0.21373180 -0.01238113
vn -0.98000289 0.19897881 -0.00132963
vn -0.96209778 0.27228445 -0.01513389
vn -0.97010852 0.24094284 -0.02891382
vn -0.97680580 0.21376778 0.01240057
vn -0.98000872 0.19895011 0.00132440
vn -0.96211573 0.27222130 0.01512877
vn -0.97010792 0.24094462 0.02891907
vn -0.89555104 0.43548936 0.09130913
vn -0.90226934 0.43006867 0.03083791
vn -0.93338660 0.35791052 0.02625862
vn -0.97104281 0.23598512 -0.03724086
vn -0.97104378 0.23597797 0.03726104
vn -0.90067498 0.41042990 0.14258988
vn -0.97183941 0.23112896 -0.04590826
vn -0.97184162 0.23111822 0.04591556
vn -0.90699048 0.37537824 0.19094355
vn -0.91489167 0.33144076 0.23047831
vn -0.92387538 0.28091870 0.25988260
vn -0.93360658 0.22862036 0.27588311
vn -0.95976694 0.17125721 0.22252728
vn -0.94822377 0.07786673 0.30790980
vn -0.93207823 0.17086977 0.31942713
vn -0.94261370 0.10878133 0.31566762
vn -0.96104061 0.02526435 0.27525019
vn -0.98763302 0.10374327 0.11755152
vn -0.97308129 0.05868681 0.22286466
vn -0.98217485 0.09116447 0.16438248
vn -0.97516939 -0.08152856 0.20590716
vn -0.98897290 0.09322009 0.11507653
vn -0.98706477 0.05100147 0.15199339
vn -0.97775295 0.00614429 0.20966978
vn -0.96680680 -0.02961030 0.25378701
vn -0.99493201 0.09605464 0.02972864
vn -0.98083008 -0.11333850 0.15851417
vn -0.99493381 0.09604361 -0.02970406
vn -0.99564343 0.09198389 0.01526818
vn -0.98531462 -0.13977390 0.09807317
vn -0.99564488 0.09197410 -0.01523309
vn -0.99589437 0.09052297 0.00001852
vn -0.98757779 -0.15358843 0.03317695
vn -0.98758715 -0.15360482 -0.03282034
vn -0.98533639 -0.13982255 -0.09778472
vn -0.98085745 -0.11344518 -0.15826828
vn -0.97520207 -0.08169798 -0.20568512
vn -0.98734574 0.05376380 -0.14919062
vn -0.96990570 -0.01940387 -0.24270647
vn -0.97954500 0.01266966 -0.20082595
vn -0.98204699 0.09063132 -0.16543785
vn -0.98896329 0.09331477 -0.11508244
vn -0.98758811 0.10365352 -0.11800712
vn -0.94821816 0.07786094 -0.30792857
vn -0.96078970 0.02483655 -0.27616352
vn -0.97279403 0.05733384 -0.22446517
vn -0.94261374 0.10878023 -0.31566787
vn -0.95976718 0.17125701 -0.22252640
vn -0.93374952 0.22742311 -0.27638844
vn -0.92390456 0.27864772 -0.26221331
vn -0.91478447 0.32936411 -0.23385605
vn -0.90667794 0.37420270 -0.19469838
vn -0.90000764 0.41058293 -0.14631440
vn -0.89458926 0.43686008 -0.09414526
vn -0.93337909 0.35793040 -0.02625441
vn -0.65078431 -0.37169570 -0.66205898
vn -0.76521906 -0.21994398 -0.60503259
vn -0.79342407 -0.17111067 -0.58412274
vn -0.62670361 -0.22127530 -0.74718126
vn -0.82567513 -0.13864733 -0.54684321
vn -0.78077235 -0.24528170 -0.57465766
vn -0.80970308 -0.25673757 -0.52769947
vn -0.83888940 -0.23368063 -0.49158716
vn -0.69601826 -0.46208829 -0.54957529
vn -0.85981408 -0.30722292 -0.40784043
vn -0.87194846 -0.19592451 -0.44868639
vn -0.74318463 -0.53443573 -0.40256063
vn -0.87454004 -0.37443949 -0.30817981
vn -0.95921024 -0.05216455 -0.27783912
vn -0.93888062 -0.10597658 -0.32752427
vn -0.90896691 -0.15257229 -0.38794439
vn -0.77509505 -0.58255133 -0.24466634
vn -0.88390269 -0.42679601 -0.19120982
vn -0.79154321 -0.60549810 -0.08265224
vn -0.88880862 -0.45366896 -0.06483601
vn -0.79152964 -0.60551466 0.08266091
vn -0.88884040 -0.45365853 0.06447239
vn -0.88396621 -0.42682447 0.19085232
vn -0.77506633 -0.58257207 0.24470793
vn -0.87460805 -0.37454790 0.30785488
vn -0.74315467 -0.53444458 0.40260418
vn -0.85988090 -0.30727674 0.40765897
vn -0.69560863 -0.46204859 0.55012701
vn -0.83968575 -0.23270220 0.49069087
vn -0.87574307 -0.19218667 0.44287511
vn -0.94924036 -0.08112301 0.30391085
vn -0.91814108 -0.13997581 0.37070707
vn -0.65040129 -0.37309534 0.66164797
vn -0.81199230 -0.25798606 0.52355677
vn -0.79417581 -0.25350813 0.55228472
vn -0.61984586 -0.22411224 0.75204044
vn -0.77351817 -0.23962128 0.58672931
vn -0.76194223 -0.22627243 0.60683179
vn -0.77743387 -0.19669831 0.59741639
vn -0.79732021 -0.16511926 0.58053088
vn -0.82564202 -0.13861731 0.54690081
vn -0.81204451 -0.04760337 0.58165078
vn -0.86354350 -0.10199373 0.49385210
vn -0.61005363 -0.06439036 0.78973948
vn -0.80291434 0.03727357 0.59492794
vn -0.94212821 -0.00382937 0.33523094
vn -0.90678815 -0.04616851 0.41905098
vn -0.72175440 0.13122498 0.67959590
vn -0.78125480 0.14822685 0.60635776
vn -0.65151015 0.11233652 0.75027663
vn -0.56223761 0.09922712 0.82100112
vn -0.63809221 0.26048169 0.72456029
vn -0.84712362 0.15070888 0.50957669
vn -0.41649636 0.06738727 0.90663650
vn -0.43008943 0.02590471 0.90241455
vn -0.81204968 -0.04759802 -0.58164400
vn -0.61237097 -0.06000870 -0.78828976
vn -0.65051258 0.11736846 -0.75037192
vn -0.56247364 0.10202189 -0.82049676
vn -0.72073786 0.13522789 -0.67988996
vn -0.78065245 0.15182832 -0.60624245
vn -0.80291351 0.03727788 -0.59492878
vn -0.63520899 0.27877264 -0.72027450
vn -0.41649614 0.06738751 -0.90663658
vn -0.41076073 0.10654897 -0.90549596
vn -0.80790491 0.26923958 -0.52421341
vn -0.84638288 0.15415774 -0.50977584
vn -0.90147524 0.16369908 -0.40068068
vn -0.93207851 0.17086827 -0.31942712
vn -0.86313949 -0.10233746 -0.49448687
vn -0.90613934 -0.04647479 -0.42041836
vn -0.94157579 -0.00398329 -0.33677762
vn -0.81102536 0.25507170 0.52647534
vn -0.90209367 0.16240345 0.39981512
vn -0.60530504 0.42171914 -0.67509909
vn -0.58694943 0.55823938 -0.58639506
vn -0.56961744 0.67254255 -0.47246427
vn -0.56147772 0.75859040 -0.33058036
vn -0.55199191 0.81433533 -0.17934020
vn -0.53138660 0.84707456 -0.00964201
vn -0.54994033 0.82191254 0.14840962
vn -0.63059187 0.77610209 -0.00440781
vn -0.73759333 0.66521917 0.11592899
vn -0.73702819 0.66339865 -0.12919625
vn -0.71966839 0.69431041 -0.00323522
vn -0.74450952 0.62402428 -0.23727467
vn -0.75597081 0.55937995 -0.34000325
vn -0.77093721 0.47483801 -0.42448166
vn -0.78880597 0.37445391 -0.48741092
vn -0.78963739 0.61357378 -0.00000471
vn -0.79375494 0.60759457 0.02796308
vn -0.83486506 0.54905167 0.03927584
vn -0.79122469 0.61071150 -0.03154286
vn -0.83295090 0.55183337 -0.04089891
vn -0.87207555 0.48762357 -0.04132169
vn -0.90234270 0.42991689 -0.03080778
vn -0.56149306 0.77944622 0.27782934
vn -0.57581857 0.70888386 0.40732867
vn -0.58765240 0.61887243 0.52121164
vn -0.60135106 0.51052054 0.61461019
vn -0.61186228 0.38650220 0.69010188
vn -0.79510363 0.34532239 0.49856060
vn -0.77899452 0.43616559 0.45047431
vn -0.76482541 0.51659260 0.38493399
vn -0.75300076 0.58359670 0.30398150
vn -0.74410469 0.63425902 0.20981827
vn -0.87188739 0.48795308 0.04140248
f 155//155 122//122 153//153
f 84//84 78//78 60//60
f 83//83 78//78 84//84
f 84//84 122//122 83//83
f 153//153 122//122 84//84
f 77//77 78//78 83//83
f 79//79 82//82 165//165
f 335//335 48//48 49//49
f 67//67 104//104 66//66
f 39//39 104//104 106//106
f 106//106 67//67 68//68
f 104//104 67//67 106//106
f 66//66 104//104 105//105
f 36//36 106//106 68//68
f 39//39 106//106 36//36
f 83//83 122//122 156//156
f 153//153 84//84 121//121
f 75//75 82//82 79//79
f 79//79 80//80 75//75
f 83//83 123//123 81//81
f 123//123 160//160 81//81
f 81//81 77//77 83//83
f 124//124 82//82 81//81
f 124//124 161//161 163//163
f 176//176 165//165 163//163
f 162//162 161//161 124//124
f 160//160 161//161 162//162
f 124//124 81//81 162//162
f 162//162 81//81 160//160
f 157//157 155//155 180//180
f 122//122 155//155 157//157
f 157//157 156//156 122//122
f 159//159 160//160 123//123
f 159//159 161//161 160//160
f 24//24 23//23 1//1
f 48//48 23//23 24//24
f 1//1 3//3 24//24
f 1//1 23//23 2//2
f 52//52 54//54 187//187
f 345//345 342//342 187//187
f 187//187 186//186 52//52
f 187//187 342//342 186//186
f 345//345 187//187 188//188
f 188//188 187//187 54//54
f 55//55 54//54 53//53
f 52//52 186//186 337//337
f 337//337 49//49 52//52
f 335//335 49//49 337//337
f 186//186 342//342 337//337
f 46//46 21//21 22//22
f 22//22 21//21 16//16
f 16//16 2//2 22//22
f 22//22 23//23 46//46
f 22//22 2//2 23//23
f 16//16 21//21 13//13
f 43//43 199//199 137//137
f 200//200 43//43 44//44
f 199//199 43//43 200//200
f 328//328 326//326 46//46
f 45//45 318//318 44//44
f 44//44 21//21 45//45
f 45//45 21//21 46//46
f 41//41 104//104 39//39
f 41//41 105//105 104//104
f 52//52 49//49 25//25
f 25//25 24//24 3//3
f 25//25 49//49 48//48
f 48//48 24//24 25//25
f 95//95 85//85 59//59
f 60//60 85//85 86//86
f 86//86 84//84 60//60
f 151//151 121//121 86//86
f 86//86 121//121 84//84
f 213//213 99//99 132//132
f 55//55 53//53 56//56
f 68//68 69//69 107//107
f 107//107 36//36 68//68
f 107//107 69//69 35//35
f 35//35 36//36 107//107
f 158//158 123//123 83//83
f 83//83 156//156 158//158
f 156//156 157//157 158//158
f 158//158 159//159 123//123
f 157//157 159//159 158//158
f 151//151 86//86 117//117
f 82//82 75//75 76//76
f 76//76 81//81 82//82
f 77//77 81//81 76//76
f 74//74 75//75 80//80
f 124//124 163//163 164//164
f 164//164 163//163 165//165
f 164//164 82//82 124//124
f 164//164 165//165 82//82
f 179//179 157//157 180//180
f 179//179 159//159 157//157
f 180//180 408//408 179//179
f 179//179 408//408 409//409
f 335//335 337//337 336//336
f 166//166 167//167 127//127
f 47//47 23//23 48//48
f 48//48 330//330 47//47
f 330//330 328//328 47//47
f 46//46 23//23 47//47
f 47//47 328//328 46//46
f 173//173 188//188 171//171
f 171//171 174//174 173//173
f 140//140 43//43 137//137
f 137//137 193//193 140//140
f 44//44 318//318 201//201
f 201//201 200//200 44//44
f 199//199 200//200 313//313
f 209//209 207//207 220//220
f 288//288 289//289 329//329
f 319//319 322//322 291//291
f 318//318 45//45 321//321
f 321//321 319//319 318//318
f 322//322 319//319 321//321
f 326//326 322//322 321//321
f 46//46 326//326 321//321
f 321//321 45//45 46//46
f 137//137 199//199 192//192
f 192//192 193//193 137//137
f 199//199 193//193 192//192
f 138//138 140//140 191//191
f 191//191 140//140 193//193
f 138//138 103//103 141//141
f 103//103 105//105 141//141
f 51//51 53//53 54//54
f 4//4 25//25 3//3
f 88//88 85//85 89//89
f 88//88 86//86 85//85
f 95//95 93//93 88//88
f 118//118 117//117 88//88
f 88//88 117//117 86//86
f 130//130 93//93 92//92
f 92//92 93//93 59//59
f 99//99 213//213 131//131
f 131//131 92//92 99//99
f 80//80 56//56 116//116
f 72//72 74//74 116//116
f 116//116 74//74 80//80
f 79//79 127//127 143//143
f 143//143 80//80 79//79
f 143//143 127//127 55//55
f 55//55 56//56 143//143
f 58//58 114//114 73//73
f 35//35 108//108 33//33
f 69//69 108//108 109//109
f 35//35 69//69 109//109
f 109//109 108//108 35//35
f 39//39 36//36 32//32
f 32//32 36//36 35//35
f 145//145 117//117 118//118
f 229//229 228//228 264//264
f 161//161 159//159 178//178
f 159//159 179//179 178//178
f 178//178 179//179 409//409
f 409//409 410//410 178//178
f 272//272 245//245 276//276
f 335//335 336//336 334//334
f 336//336 275//275 334//334
f 176//176 360//360 177//177
f 176//176 177//177 172//172
f 171//171 127//127 168//168
f 168//168 174//174 171//171
f 127//127 167//167 168//168
f 129//129 188//188 54//54
f 345//345 188//188 353//353
f 188//188 173//173 353//353
f 353//353 351//351 345//345
f 353//353 173//173 360//360
f 360//360 359//359 353//353
f 19//19 14//14 13//13
f 19//19 21//21 44//44
f 19//19 13//13 21//21
f 44//44 43//43 19//19
f 50//50 56//56 53//53
f 310//310 313//313 200//200
f 310//310 201//201 318//318
f 200//200 201//201 310//310
f 367//367 372//372 368//368
f 199//199 313//313 366//366
f 366//366 367//367 368//368
f 210//210 209//209 211//211
f 368//368 372//372 222//222
f 103//103 102//102 65//65
f 66//66 105//105 65//65
f 65//65 105//105 103//103
f 134//134 102//102 204//204
f 101//101 102//102 134//134
f 134//134 206//206 101//101
f 208//208 206//206 207//207
f 101//101 206//206 208//208
f 220//220 385//385 219//219
f 219//219 209//209 220//220
f 290//290 240//240 291//291
f 291//291 322//322 290//290
f 384//384 385//385 220//220
f 376//376 375//375 370//370
f 377//377 375//375 376//376
f 327//327 329//329 289//289
f 289//289 290//290 327//327
f 327//327 290//290 322//322
f 327//327 322//322 326//326
f 326//326 328//328 327//327
f 328//328 329//329 327//327
f 61//61 63//63 99//99
f 61//61 92//92 59//59
f 99//99 92//92 61//61
f 105//105 41//41 139//139
f 139//139 141//141 105//105
f 41//41 141//141 139//139
f 17//17 14//14 37//37
f 37//37 40//40 17//17
f 43//43 40//40 37//37
f 37//37 19//19 43//43
f 14//14 19//19 37//37
f 42//42 141//141 41//41
f 41//41 40//40 42//42
f 138//138 141//141 42//42
f 42//42 140//140 138//138
f 43//43 140//140 42//42
f 42//42 40//40 43//43
f 52//52 25//25 26//26
f 25//25 4//4 26//26
f 26//26 54//54 52//52
f 26//26 51//51 54//54
f 26//26 4//4 7//7
f 7//7 51//51 26//26
f 89//89 85//85 90//90
f 85//85 91//91 90//90
f 90//90 88//88 89//89
f 91//91 88//88 90//90
f 85//85 95//95 87//87
f 87//87 91//91 85//85
f 95//95 88//88 87//87
f 87//87 88//88 91//91
f 130//130 92//92 147//147
f 92//92 131//131 147//147
f 57//57 116//116 56//56
f 128//128 56//56 80//80
f 80//80 143//143 128//128
f 128//128 143//143 56//56
f 71//71 73//73 114//114
f 71//71 111//111 70//70
f 115//115 73//73 72//72
f 72//72 116//116 115//115
f 116//116 57//57 115//115
f 58//58 73//73 115//115
f 115//115 57//57 58//58
f 34//34 33//33 70//70
f 70//70 111//111 34//34
f 111//111 71//71 34//34
f 34//34 71//71 114//114
f 34//34 114//114 58//58
f 112//112 108//108 70//70
f 39//39 32//32 20//20
f 20//20 32//32 12//12
f 12//12 15//15 20//20
f 20//20 41//41 39//39
f 151//151 117//117 144//144
f 119//119 145//145 118//118
f 118//118 88//88 119//119
f 119//119 88//88 93//93
f 227//227 264//264 228//228
f 227//227 225//225 226//226
f 228//228 225//225 227//227
f 265//265 227//227 226//226
f 264//264 227//227 265//265
f 229//229 264//264 263//263
f 175//175 178//178 410//410
f 176//176 163//163 175//175
f 175//175 163//163 161//161
f 161//161 178//178 175//175
f 358//358 382//382 362//362
f 357//357 382//382 358//358
f 361//361 410//410 411//411
f 411//411 382//382 361//361
f 361//361 175//175 410//410
f 361//361 382//382 357//357
f 357//357 359//359 361//361
f 176//176 175//175 361//361
f 361//361 360//360 176//176
f 361//361 359//359 360//360
f 224//224 270//270 267//267
f 285//285 289//289 288//288
f 281//281 334//334 275//275
f 332//332 281//281 284//284
f 334//334 281//281 332//332
f 383//383 270//270 362//362
f 362//362 382//382 383//383
f 347//347 342//342 345//345
f 345//345 348//348 347//347
f 345//345 351//351 349//349
f 349//349 348//348 345//345
f 364//364 173//173 174//174
f 360//360 173//173 364//364
f 176//176 172//172 170//170
f 142//142 54//54 55//55
f 142//142 129//129 54//54
f 55//55 127//127 142//142
f 142//142 127//127 171//171
f 171//171 188//188 185//185
f 188//188 129//129 185//185
f 185//185 142//142 171//171
f 129//129 142//142 185//185
f 351//351 353//353 354//354
f 357//357 358//358 354//354
f 354//354 359//359 357//357
f 354//354 353//353 359//359
f 354//354 358//358 362//362
f 362//362 270//270 354//354
f 29//29 8//8 9//9
f 197//197 193//193 199//199
f 199//199 366//366 197//197
f 372//372 367//367 369//369
f 369//369 375//375 372//372
f 370//370 375//375 369//369
f 210//210 211//211 100//100
f 99//99 63//63 100//100
f 132//132 99//99 100//100
f 100//100 211//211 132//132
f 100//100 63//63 62//62
f 100//100 62//62 101//101
f 368//368 222//222 374//374
f 221//221 222//222 372//372
f 221//221 384//384 220//220
f 372//372 384//384 221//221
f 220//220 207//207 221//221
f 64//64 65//65 102//102
f 101//101 62//62 64//64
f 64//64 102//102 101//101
f 133//133 208//208 207//207
f 207//207 209//209 133//133
f 133//133 209//209 210//210
f 101//101 208//208 133//133
f 133//133 100//100 101//101
f 210//210 100//100 133//133
f 209//209 219//219 212//212
f 212//212 213//213 132//132
f 132//132 211//211 212//212
f 212//212 211//211 209//209
f 288//288 287//287 286//286
f 286//286 285//285 288//288
f 240//240 238//238 239//239
f 233//233 230//230 232//232
f 232//232 304//304 233//233
f 303//303 375//375 377//377
f 303//303 304//304 375//375
f 377//377 378//378 303//303
f 303//303 378//378 302//302
f 233//233 304//304 303//303
f 397//397 396//396 385//385
f 385//385 384//384 397//397
f 98//98 97//97 59//59
f 93//93 97//97 98//98
f 96//96 93//93 95//95
f 96//96 97//97 93//93
f 96//96 95//95 59//59
f 59//59 97//97 96//96
f 138//138 191//191 189//189
f 189//189 184//184 138//138
f 56//56 50//50 27//27
f 27//27 57//57 56//56
f 27//27 6//6 5//5
f 50//50 6//6 27//27
f 70//70 33//33 113//113
f 113//113 112//112 70//70
f 33//33 112//112 113//113
f 110//110 33//33 108//108
f 108//108 112//112 110//110
f 110//110 112//112 33//33
f 41//41 20//20 38//38
f 38//38 20//20 15//15
f 38//38 40//40 41//41
f 38//38 15//15 17//17
f 17//17 40//40 38//38
f 117//117 145//145 146//146
f 146//146 144//144 117//117
f 146//146 145//145 130//130
f 120//120 119//119 93//93
f 145//145 119//119 120//120
f 120//120 93//93 130//130
f 130//130 145//145 120//120
f 415//415 255//255 260//260
f 392//392 255//255 415//415
f 180//180 155//155 181//181
f 181//181 408//408 180//180
f 181//181 407//407 408//408
f 413//413 263//263 264//264
f 267//267 225//225 223//223
f 223//223 224//224 267//267
f 245//245 224//224 223//223
f 228//228 245//245 223//223
f 223//223 225//225 228//228
f 246//246 245//245 272//272
f 246//246 224//224 245//245
f 284//284 287//287 331//331
f 331//331 332//332 284//284
f 288//288 329//329 331//331
f 331//331 287//287 288//288
f 330//330 332//332 331//331
f 331//331 328//328 330//330
f 331//331 329//329 328//328
f 333//333 330//330 48//48
f 333//333 332//332 330//330
f 333//333 48//48 335//335
f 335//335 334//334 333//333
f 334//334 332//332 333//333
f 267//267 270//270 269//269
f 270//270 383//383 269//269
f 266//266 383//383 382//382
f 266//266 382//382 411//411
f 411//411 265//265 266//266
f 266//266 269//269 383//383
f 267//267 269//269 266//266
f 266//266 225//225 267//267
f 226//226 225//225 266//266
f 266//266 265//265 226//226
f 351//351 354//354 268//268
f 268//268 354//354 270//270
f 270//270 224//224 268//268
f 351//351 268//268 356//356
f 356//356 268//268 355//355
f 343//343 337//337 342//342
f 343//343 336//336 337//337
f 174//174 172//172 363//363
f 363//363 364//364 174//174
f 363//363 172//172 177//177
f 363//363 177//177 360//360
f 360//360 364//364 363//363
f 169//169 168//168 167//167
f 167//167 166//166 169//169
f 166//166 170//170 169//169
f 174//174 168//168 169//169
f 169//169 172//172 174//174
f 169//169 170//170 172//172
f 126//126 170//170 166//166
f 126//126 166//166 125//125
f 126//126 165//165 176//176
f 176//176 170//170 126//126
f 126//126 125//125 79//79
f 79//79 165//165 126//126
f 18//18 50//50 53//53
f 18//18 6//6 50//50
f 53//53 51//51 18//18
f 18//18 51//51 7//7
f 318//318 319//319 316//316
f 316//316 310//310 318//318
f 291//291 240//240 292//292
f 365//365 366//366 313//313
f 379//379 380//380 365//365
f 194//194 191//191 193//193
f 193//193 197//197 194//194
f 203//203 222//222 205//205
f 222//222 221//221 205//205
f 204//204 203//203 205//205
f 205//205 134//134 204//204
f 205//205 221//221 207//207
f 207//207 206//206 205//205
f 206//206 134//134 205//205
f 218//218 212//212 219//219
f 285//285 286//286 282//282
f 282//282 290//290 289//289
f 289//289 285//285 282//282
f 234//234 303//303 302//302
f 233//233 303//303 234//234
f 375//375 304//304 398//398
f 398//398 397//397 384//384
f 372//372 375//375 398//398
f 398//398 384//384 372//372
f 59//59 93//93 94//94
f 94//94 98//98 59//59
f 93//93 98//98 94//94
f 196//196 222//222 203//203
f 196//196 374//374 222//222
f 195//195 135//135 184//184
f 203//203 135//135 195//195
f 195//195 196//196 203//203
f 202//202 203//203 204//204
f 202//202 135//135 203//203
f 204//204 102//102 202//202
f 202//202 102//102 103//103
f 103//103 135//135 202//202
f 136//136 135//135 103//103
f 184//184 135//135 136//136
f 28//28 27//27 5//5
f 5//5 8//8 28//28
f 58//58 57//57 28//28
f 57//57 27//27 28//28
f 28//28 8//8 29//29
f 28//28 34//34 58//58
f 29//29 34//34 28//28
f 262//262 263//263 260//260
f 260//260 259//259 262//262
f 229//229 263//263 262//262
f 262//262 228//228 229//229
f 262//262 252//252 228//228
f 396//396 307//307 395//395
f 396//396 397//397 306//306
f 306//306 307//307 396//396
f 392//392 391//391 394//394
f 390//390 391//391 392//392
f 392//392 415//415 390//390
f 254//254 255//255 253//253
f 254//254 259//259 260//260
f 260//260 255//255 254//254
f 252//252 262//262 254//254
f 254//254 262//262 259//259
f 412//412 413//413 264//264
f 412//412 265//265 411//411
f 264//264 265//265 412//412
f 412//412 410//410 409//409
f 411//411 410//410 412//412
f 409//409 408//408 412//412
f 408//408 413//413 412//412
f 260//260 263//263 414//414
f 263//263 413//413 414//414
f 414//414 415//415 260//260
f 408//408 407//407 414//414
f 414//414 413//413 408//408
f 355//355 268//268 271//271
f 271//271 268//268 273//273
f 273//273 268//268 274//274
f 274//274 277//277 273//273
f 274//274 246//246 272//272
f 272//272 276//276 274//274
f 276//276 277//277 274//274
f 224//224 246//246 274//274
f 274//274 268//268 224//224
f 351//351 356//356 352//352
f 346//346 347//347 348//348
f 342//342 347//347 346//346
f 348//348 349//349 344//344
f 349//349 343//343 344//344
f 344//344 346//346 348//348
f 344//344 343//343 342//342
f 342//342 346//346 344//344
f 341//341 275//275 336//336
f 9//9 10//10 30//30
f 29//29 9//9 30//30
f 35//35 33//33 30//30
f 30//30 34//34 29//29
f 33//33 34//34 30//30
f 31//31 32//32 35//35
f 35//35 30//30 31//31
f 31//31 30//30 10//10
f 325//325 380//380 379//379
f 313//313 310//310 311//311
f 296//296 239//239 238//238
f 240//240 239//239 296//296
f 296//296 292//292 240//240
f 366//366 365//365 371//371
f 367//367 366//366 371//371
f 371//371 369//369 367//367
f 370//370 369//369 371//371
f 371//371 376//376 370//370
f 198//198 194//194 197//197
f 198//198 197//197 366//366
f 198//198 366//366 368//368
f 385//385 396//396 386//386
f 386//386 219//219 385//385
f 386//386 218//218 219//219
f 396//396 395//395 386//386
f 243//243 238//238 240//240
f 243//243 282//282 238//238
f 240//240 290//290 243//243
f 290//290 282//282 243//243
f 244//244 276//276 245//245
f 280//280 242//242 245//245
f 280//280 245//245 228//228
f 280//280 234//234 238//238
f 284//284 281//281 280//280
f 281//281 242//242 280//280
f 238//238 234//234 235//235
f 302//302 236//236 235//235
f 235//235 234//234 302//302
f 184//184 189//189 190//190
f 190//190 195//195 184//184
f 190//190 189//189 191//191
f 191//191 194//194 190//190
f 194//194 196//196 190//190
f 196//196 195//195 190//190
f 389//389 390//390 148//148
f 391//391 390//390 389//389
f 250//250 230//230 233//233
f 233//233 234//234 250//250
f 228//228 252//252 250//250
f 250//250 280//280 228//228
f 234//234 280//280 250//250
f 305//305 232//232 230//230
f 304//304 232//232 305//305
f 305//305 306//306 397//397
f 305//305 398//398 304//304
f 397//397 398//398 305//305
f 392//392 394//394 400//400
f 406//406 390//390 415//415
f 406//406 414//414 407//407
f 415//415 414//414 406//406
f 253//253 252//252 251//251
f 251//251 254//254 253//253
f 252//252 254//254 251//251
f 355//355 271//271 279//279
f 350//350 349//349 351//351
f 351//351 352//352 350//350
f 350//350 343//343 349//349
f 340//340 356//356 355//355
f 340//340 341//341 356//356
f 355//355 279//279 340//340
f 275//275 341//341 340//340
f 340//340 279//279 275//275
f 339//339 341//341 336//336
f 339//339 352//352 356//356
f 356//356 341//341 339//339
f 32//32 31//31 11//11
f 11//11 31//31 10//10
f 12//12 32//32 11//11
f 319//319 325//325 320//320
f 320//320 325//325 379//379
f 310//310 316//316 315//315
f 315//315 311//311 310//310
f 312//312 365//365 313//313
f 313//313 311//311 312//312
f 312//312 315//315 316//316
f 311//311 315//315 312//312
f 238//238 235//235 237//237
f 237//237 235//235 236//236
f 381//381 323//323 299//299
f 380//380 325//325 324//324
f 324//324 381//381 380//380
f 324//324 323//323 381//381
f 291//291 323//323 324//324
f 324//324 319//319 291//291
f 324//324 325//325 319//319
f 377//377 376//376 301//301
f 376//376 371//371 301//301
f 301//301 378//378 377//377
f 302//302 378//378 301//301
f 301//301 236//236 302//302
f 368//368 374//374 373//373
f 373//373 198//198 368//368
f 374//374 196//196 373//373
f 373//373 196//196 194//194
f 194//194 198//198 373//373
f 245//245 242//242 241//241
f 241//241 244//244 245//245
f 275//275 277//277 241//241
f 241//241 277//277 276//276
f 276//276 244//244 241//241
f 241//241 281//281 275//275
f 241//241 242//242 281//281
f 238//238 282//282 283//283
f 283//283 280//280 238//238
f 283//283 282//282 286//286
f 283//283 286//286 287//287
f 283//283 287//287 284//284
f 284//284 280//280 283//283
f 212//212 218//218 214//214
f 218//218 217//217 214//214
f 213//213 212//212 214//214
f 214//214 131//131 213//213
f 214//214 147//147 131//131
f 216//216 389//389 148//148
f 387//387 386//386 395//395
f 218//218 386//386 387//387
f 387//387 217//217 218//218
f 308//308 395//395 307//307
f 307//307 250//250 308//308
f 401//401 255//255 392//392
f 392//392 400//400 401//401
f 401//401 400//400 402//402
f 307//307 306//306 261//261
f 399//399 394//394 402//402
f 402//402 400//400 399//399
f 399//399 400//400 394//394
f 407//407 181//181 182//182
f 182//182 406//406 407//407
f 278//278 271//271 273//273
f 278//278 279//279 271//271
f 273//273 277//277 278//278
f 278//278 277//277 275//275
f 275//275 279//279 278//278
f 343//343 350//350 338//338
f 336//336 343//343 338//338
f 338//338 339//339 336//336
f 338//338 350//350 352//352
f 352//352 339//339 338//338
f 317//317 316//316 319//319
f 319//319 320//320 317//317
f 317//317 320//320 379//379
f 291//291 292//292 294//294
f 379//379 365//365 314//314
f 365//365 312//312 314//314
f 314//314 317//317 379//379
f 314//314 312//312 316//316
f 316//316 317//317 314//314
f 297//297 296//296 238//238
f 238//238 237//237 297//297
f 236//236 301//301 298//298
f 381//381 299//299 298//298
f 380//380 381//381 298//298
f 298//298 365//365 380//380
f 298//298 371//371 365//365
f 298//298 301//301 371//371
f 147//147 214//214 149//149
f 130//130 147//147 149//149
f 149//149 146//146 130//130
f 149//149 214//214 217//217
f 388//388 387//387 395//395
f 391//391 389//389 388//388
f 217//217 387//387 388//388
f 395//395 308//308 393//393
f 393//393 388//388 395//395
f 402//402 394//394 393//393
f 393//393 394//394 391//391
f 391//391 388//388 393//393
f 403//403 401//401 402//402
f 402//402 393//393 403//403
f 403//403 308//308 404//404
f 403//403 393//393 308//308
f 253//253 255//255 257//257
f 255//255 256//256 257//257
f 405//405 256//256 404//404
f 405//405 308//308 309//309
f 404//404 308//308 405//405
f 309//309 257//257 405//405
f 405//405 257//257 256//256
f 404//404 256//256 416//416
f 416//416 403//403 404//404
f 401//401 403//403 416//416
f 255//255 401//401 416//416
f 416//416 256//256 255//255
f 248//248 252//252 253//253
f 248//248 250//250 252//252
f 248//248 247//247 250//250
f 250//250 247//247 249//249
f 309//309 308//308 249//249
f 249//249 308//308 250//250
f 247//247 248//248 249//249
f 249//249 248//248 253//253
f 253//253 257//257 249//249
f 249//249 257//257 309//309
f 230//230 250//250 231//231
f 231//231 261//261 306//306
f 231//231 305//305 230//230
f 306//306 305//305 231//231
f 152//152 181//181 155//155
f 152//152 182//182 181//181
f 152//152 155//155 153//153
f 153//153 121//121 152//152
f 390//390 406//406 183//183
f 406//406 182//182 183//183
f 148//148 390//390 183//183
f 183//183 144//144 148//148
f 293//293 323//323 291//291
f 291//291 294//294 293//293
f 293//293 299//299 323//323
f 293//293 294//294 299//299
f 295//295 237//237 236//236
f 236//236 298//298 295//295
f 295//295 297//297 237//237
f 292//292 296//296 295//295
f 296//296 297//297 295//295
f 146//146 149//149 150//150
f 150//150 216//216 148//148
f 148//148 144//144 150//150
f 144//144 146//146 150//150
f 215//215 149//149 217//217
f 217//217 388//388 215//215
f 216//216 150//150 215//215
f 215//215 150//150 149//149
f 389//389 216//216 215//215
f 215//215 388//388 389//389
f 258//258 231//231 250//250
f 261//261 231//231 258//258
f 258//258 250//250 307//307
f 307//307 261//261 258//258
f 182//182 152//152 154//154
f 154//154 183//183 182//182
f 154//154 152//152 121//121
f 154//154 121//121 151//151
f 151//151 144//144 154//154
f 144//144 183//183 154//154
f 300//300 298//298 299//299
f 300//300 295//295 298//298
f 299//299 294//294 300//300
f 300//300 294//294 292//292
f 292//292 295//295 300//300
f 166//166 127//127 79//79
f 79//79 125//125 166//166
f 68//68 67//67 64//64
f 77//77 76//76 64//64
f 78//78 77//77 64//64
f 59//59 85//85 64//64
f 64//64 69//69 68//68
f 60//60 78//78 64//64
f 66//66 65//65 64//64
f 64//64 67//67 66//66
f 64//64 85//85 60//60
f 64//64 74//74 72//72
f 70//70 108//108 64//64
f 64//64 61//61 59//59
f 64//64 108//108 69//69
f 64//64 76//76 75//75
f 75//75 74//74 64//64
f 62//62 63//63 64//64
f 72//72 73//73 64//64
f 64//64 71//71 70//70
f 63//63 61//61 64//64
f 73//73 71//71 64//64
f 138//138 184//184 136//136
f 136//136 103//103 138//138
f 1//1 2//2 11//11
f 11//11 3//3 1//1
f 16//16 13//13 11//11
f 11//11 14//14 17//17
f 11//11 2//2 16//16
f 11//11 4//4 3//3
f 11//11 18//18 7//7
f 11//11 8//8 5//5
f 5//5 6//6 11//11
f 13//13 14//14 11//11
f 17//17 15//15 11//11
f 7//7 4//4 11//11
f 11//11 15//15 12//12
f 11//11 9//9 8//8
f 6//6 18//18 11//11
f 11//11 10//10 9//9

