# https://github.com/mikedh/trimesh
v -0.05619533 -69.57526398 -60.16287231
v 16.43861771 31.43194199 -60.50000000
v 5.63716793 35.03734207 -60.50000000
v -5.75012302 35.03734589 -60.50000000
v -16.55157661 31.43194771 -60.50000000
v 9.94351578 -74.17916107 -51.50000000
v -9.95298481 -74.15676880 -52.28120422
v -10.05648422 -74.17916107 -45.50000000
v -10.05648422 -74.17916107 -51.50000000
v -32.12602234 15.22171211 -52.50000000
v 15.97515106 30.54543686 -51.50000000
v -16.08810806 30.54544067 -51.50000000
v -25.65577698 24.59215164 -52.50000000
v 5.47726965 34.04977798 -51.50000000
v -5.59022570 34.04977798 -51.50000000
v -16.55157661 31.43194771 -52.50000000
v -5.75012302 35.03734589 -52.50000000
v 5.63716793 35.03734207 -52.50000000
v 16.43861771 31.43194199 -52.50000000
v 25.54281616 24.59214401 -52.50000000
v -38.55648422 -67.77349854 -0.00000000
v -38.55648422 -67.77349854 -51.50000000
v -38.55323029 -66.50309753 0.50043291
v -38.54349518 -66.50309753 0.99991554
v -36.76427460 -68.31285095 11.60982418
v -37.85890198 -68.72667694 -0.00000000
v -36.09919357 -69.27075195 11.30672455
v -38.55648422 -66.55589294 -55.91970444
v -37.85890198 -68.72667694 -51.50000000
v -37.82250595 -67.38594818 -56.40998840
v -37.82106018 -67.33312988 -56.49893951
v 38.44351578 -67.77349854 -51.50000000
v 38.44351578 -66.56589508 -55.90260315
v 37.70986557 -67.39704132 -56.39101791
v 37.70811081 -67.33321381 -56.49879837
v 38.44351578 -67.77349854 -0.00000000
v 37.74593735 -68.72667694 -51.50000000
v 37.74593735 -68.72667694 -0.00000000
v 36.62374878 -68.32087708 11.69660282
v 38.43053055 -66.50309753 0.99991548
v 36.36931992 -63.50309753 12.46638489
v 30.97266960 -63.50309753 22.79126167
v 12.40984154 -63.50309753 36.42582321
v 22.73473167 -63.50309753 31.02918816
v 0.94343191 -63.50309753 38.48701477
v -12.52282047 -63.50309753 36.42582321
v -1.05639946 -63.50309753 38.48701477
v -22.84771729 -63.50309753 31.02917480
v -36.48230362 -63.50309753 12.46633625
v -31.08565712 -63.50309753 22.79123306
v -38.54349518 -63.50309753 0.99991554
v -9.34129906 -74.23449707 -43.55587387
v -9.87375546 -74.19370270 -44.46899033
v -8.53862000 -74.29177094 -42.89169312
v 9.22896099 -74.23445129 -43.55661392
v 8.42622566 -74.29173279 -42.89201736
v 7.44351625 -74.35459900 -42.54196167
v 9.76081848 -74.19370270 -44.46907425
v 9.94351578 -74.17916107 -45.50000000
v -0.09760866 -74.57979584 37.49998856
v 2.38340688 -74.55598450 21.24515343
v 2.94351625 -74.54379272 19.50000000
v 4.05309439 -74.51222992 6.27386379
v 2.36184669 -74.55640411 17.72488213
v 6.53522921 -74.40587616 3.57698298
v 0.91361481 -74.57603455 22.33850479
v -0.95108753 -74.57659912 22.36316872
v -11.65026188 -74.04097748 35.69278336
v -1.79876280 -74.56765747 21.94215965
v -2.47483182 -74.55640411 21.27509499
v -3.05648375 -74.54379272 19.50000000
v 0.44325444 -74.57880402 7.48472643
v -2.49635696 -74.55598450 17.75482178
v -3.27475643 -74.53836823 6.77441645
v -1.02646255 -74.57603455 16.66145706
v 0.83815581 -74.57659912 16.63683701
v 1.68575919 -74.56765747 17.05781364
v 11.45807934 -74.04833221 35.71800995
v 16.17152786 -73.52193451 15.53441143
v 16.73209763 -73.44724274 13.78858185
v 16.44351578 -73.48601532 -0.00000000
v 16.14981079 -73.52477264 12.01258659
v 18.54914474 -73.18737030 2.86321020
v 20.41729546 -72.89170074 2.83721590
v 17.70132065 -73.31201172 2.44224668
v 17.02662468 -73.40696716 1.77713621
v 14.70441246 -73.70520782 16.62631416
v 12.83798885 -73.91295624 16.65188980
v 11.99003887 -73.99797058 16.23091316
v 11.31448555 -74.06153107 15.56470585
v 10.73209858 -74.11335754 13.78858185
v 10.87816715 -74.10061646 -12.86616707
v 11.29278374 -74.06351471 12.04259682
v 10.73209858 -74.11335754 -13.78858185
v 11.31614494 -74.06137848 -12.01102257
v 12.76231289 -73.92077637 10.94998360
v 12.81082630 -73.91576385 -10.93375397
v 14.62882900 -73.71417236 10.92609692
v 14.65275097 -73.71134186 -10.93351460
v 16.14995956 -73.52475739 -12.01351357
v 22.08521843 -72.60314941 30.39390755
v 21.88241959 -72.63948059 1.74659359
v 22.44351578 -72.53812408 -0.00000000
v 24.00024223 -72.24305725 -51.50000000
v 21.86052513 -72.64337921 -1.77698386
v 16.73209763 -73.44724274 -13.78858185
v 17.00475693 -73.40998077 -1.74678671
v 18.47330666 -73.19876099 -2.83843970
v 20.34158707 -72.90424347 -2.86204863
v 16.14981079 -73.52477264 -15.56457710
v 11.29278374 -74.06351471 -15.53456783
v 7.44351625 -74.35459900 -0.00000000
v 12.76231289 -73.92077637 -16.62718010
v 14.62882900 -73.71417236 -16.65106773
v -11.42745304 -74.06153107 12.01245880
v -10.99161625 -74.10057068 -12.86450291
v -10.84506607 -74.11335754 -13.78858185
v -11.42745304 -74.06153107 -15.56470585
v -10.84506607 -74.11335754 13.78858185
v -12.10300636 -73.99797058 11.34625244
v -12.92549515 -73.91558838 -10.93315697
v -12.95095634 -73.91295624 10.92527485
v -14.76750183 -73.71112823 -10.93413925
v -14.81737995 -73.70520782 10.95084953
v -16.26301003 -73.52474213 -12.01375198
v -16.55648422 -73.48601532 -0.00000000
v -16.84506607 -73.44724274 -13.78858185
v -16.28449631 -73.52193451 12.04275322
v -16.28449631 -73.52193451 -15.53441143
v -17.13959122 -73.40696716 -1.77713621
v -18.66211128 -73.18737030 -2.86321020
v -20.53026390 -72.89170074 -2.83721590
v -17.81428719 -73.31201172 -2.44224668
v -14.81737995 -73.70520782 -16.62631416
v -12.95095634 -73.91295624 -16.65188980
v -12.10300636 -73.99797058 -16.23091316
v -16.84506607 -73.44724274 13.78858185
v -17.11772346 -73.40998077 1.74678671
v -22.26693726 -72.59075928 30.34449768
v -18.58627319 -73.19876099 2.83843970
v -20.45455360 -72.90424347 2.86204863
v -21.97349358 -72.64337921 1.77698386
v -22.55648422 -72.53812408 -0.00000000
v -21.99538803 -72.63948059 -1.74659359
v -30.76636696 -70.74870300 21.86651421
v -23.74569321 -72.31455994 -51.50000000
v -11.40575123 -74.06351471 15.53456783
v -12.87528038 -73.92077637 16.62718010
v -14.74179649 -73.71417236 16.65106773
v -16.26277733 -73.52477264 15.56457710
v -31.33216667 -69.77841949 22.45176125
v -34.49229813 -68.95643616 17.21698570
v -22.67523575 -71.60568237 31.15512848
v -27.35200310 -70.69475555 27.15151215
v -11.86308384 -73.04471588 36.64497375
v -4.98337698 -74.48266602 5.65493536
v -6.34906960 -74.42131805 4.07867193
v -7.25287628 -74.37247467 2.10727215
v -7.55648375 -74.35459900 -0.00000000
v -7.55648375 -74.35459900 -42.54196167
v -17.45822334 -72.41490173 34.34282303
v -0.09836656 -73.57945251 38.49997711
v 11.66944122 -73.05201721 36.67086792
v 30.60361862 -70.76131439 21.93520927
v 22.49224281 -71.61798096 31.20584869
v 17.26881027 -72.42515564 34.38145065
v 35.95937347 -69.27883148 11.39130402
v 31.16846466 -69.79092407 22.52226830
v 27.17778397 -70.70783997 27.21295166
v 34.34202576 -68.96665955 17.29139709
v 19.05965042 -71.75357819 -56.50000000
v 9.84009266 -74.15678406 -52.28092575
v -19.17126465 -71.75379181 -56.50000000
v 0.94343191 -66.50309753 38.48701477
v -0.05648375 -66.50309753 38.50000000
v -1.05639946 -66.50309753 38.48701477
v -0.05579878 -73.24005890 -56.50000000
v -9.03860569 -74.17996216 -53.47822571
v -7.05648375 -74.30694580 -54.29999924
v 6.94351625 -74.30694580 -54.29999924
v -0.05648375 -74.50308990 -54.29999924
v 8.92315769 -74.18014526 -53.48070908
v 44.94351578 18.99690437 -109.50000000
v 44.94351578 20.99690437 -107.50000000
v 44.94351578 20.99690437 -69.50000000
v 44.94351578 -19.00309563 -109.50000000
v 44.94351578 -21.00309563 -107.50000000
v 44.94351578 18.99690437 -67.50000000
v 48.44351578 20.49690437 -88.50000000
v 48.44351578 18.93750763 -96.34119415
v 48.44351578 18.92762947 -80.63487244
v 48.44351578 20.09966850 -84.48474884
v 48.44351578 -7.87363052 -107.42865753
v 48.44351578 -0.05327036 -108.99992371
v 48.44351578 7.79850674 -107.45711517
v 50.64351654 16.49690437 -88.50000000
v 50.64351654 15.25522804 -94.77961731
v 50.64351654 15.24091625 -82.18572235
v 50.94351578 -0.00309562 -72.30000305
v 50.94351578 7.00844002 -73.89636230
v 50.94351578 -7.03549147 -73.90644073
v 50.94351578 -12.64368725 -78.36854553
v 50.94351578 -15.77814770 -84.81420135
v 50.94351578 -15.82303143 -91.98834229
v 50.94351578 15.78386211 -84.86532593
v 50.94351578 15.80540848 -92.03957367
v 50.94351578 12.64325237 -78.37583923
v 50.94351578 12.73076344 -98.51397705
v 50.94351578 7.16412401 -103.02781677
v 50.94351578 0.14690386 -104.69930267
v 50.94351578 -12.74264336 -98.50662994
v 50.94351578 -7.14954948 -103.03809357
v 50.94351578 -0.15309614 -104.69930267
v -33.35648346 20.99690437 -108.00000000
v -33.35648346 19.49690437 -109.50000000
v -33.35648346 -19.50309563 -109.50000000
v -38.55648422 -19.37883186 -109.19999695
v -38.55648422 19.37264061 -67.80000305
v -38.55648422 19.37264061 -109.19999695
v -38.37010956 11.13091183 -109.38637543
v -38.55648422 20.69690323 -69.12426758
v -38.55648422 20.69690323 -107.87573242
v -38.25648499 19.49690437 -109.50000000
v -38.25648499 20.99690437 -108.00000000
v -38.25648499 20.99690437 -69.00000000
v -38.55648422 -20.70309639 -107.87573242
v -38.25648499 -21.00309563 -108.00000000
v -38.25648499 -19.50309563 -109.50000000
v -38.37010956 -12.86908817 -109.38637543
v -39.05648422 -17.00243378 -88.65000153
v -39.05648422 -15.66525745 -95.11011505
v -39.05648422 -11.97058392 -100.57367706
v -39.05648422 7.37212467 -103.81681061
v -39.05648422 -6.47459126 -104.21994781
v -39.05648422 13.28744125 -99.09989929
v -39.05648422 16.57045174 -92.28313446
v -39.05648422 13.28743935 -77.90010071
v -39.05648422 16.57045174 -84.71686554
v -39.05648422 -6.47459316 -72.78005981
v -39.05648422 7.37212181 -73.18318176
v -39.05648422 -11.97058487 -76.42632294
v -39.05648422 -15.66525745 -81.88988495
v -39.05648422 -0.00309614 -105.50000000
v -39.05648422 -0.00309614 -71.50000000
v -39.05648422 -17.00243378 -88.34999847
vn 0.00297678 -0.70582132 -0.70838365
vn 0.31902905 0.94773908 -0.00333108
vn 0.12514874 0.98635895 -0.10692903
vn -0.12993951 0.98542623 -0.10977643
vn -0.36693923 0.93001537 -0.02066439
vn 0.09764267 -0.99501760 -0.02014632
vn -0.11234605 -0.99199912 -0.05758561
vn -0.08124306 -0.99669432 0.00000144
vn -0.09691098 -0.99509122 -0.02004298
vn -0.74873570 0.46395738 0.47343258
vn 0.24931413 0.66010616 0.70859178
vn -0.24931215 0.66010635 0.70859231
vn -0.59753747 0.64470651 0.47676250
vn 0.10813981 0.68712175 0.71844936
vn -0.10813958 0.68712111 0.71845000
vn -0.39080446 0.83660925 0.38387085
vn -0.14901336 0.91715982 0.36961181
vn 0.14901381 0.91716004 0.36961108
vn 0.36733029 0.83972971 0.39990309
vn 0.53517398 0.62849570 0.56443065
vn -0.94667908 -0.31830504 0.04980585
vn -0.93995668 -0.33777852 -0.04885801
vn -0.99990278 -0.00134356 0.01387879
vn -0.99413501 -0.03556913 0.10212938
vn -0.92428971 -0.30230389 0.23302550
vn -0.59248849 -0.80510186 0.02771956
vn -0.57355403 -0.81361321 0.09523291
vn -0.93169813 -0.32110387 -0.16979662
vn -0.54465815 -0.83111758 -0.11220994
vn -0.52580251 -0.77715948 -0.34576706
vn -0.51503179 -0.68661680 -0.51312731
vn 0.89686399 -0.43881990 -0.05542637
vn 0.87395927 -0.44844486 -0.18732967
vn 0.52615080 -0.77727581 -0.34497485
vn 0.50694752 -0.70344365 -0.49816788
vn 0.93122951 -0.35629091 0.07660535
vn 0.54534647 -0.83074027 -0.11165945
vn 0.59253194 -0.80506168 0.02795675
vn 0.92302551 -0.30396995 0.23585203
vn 0.98786967 -0.05490293 0.14525561
vn 0.92410711 0.14748569 0.35252520
vn 0.75882355 0.26730110 0.59391661
vn 0.29087354 0.34966249 0.89057775
vn 0.54684865 0.32468827 0.77170855
vn 0.08022424 0.35747077 0.93047231
vn -0.29069633 0.34943875 0.89072342
vn -0.08038427 0.35734322 0.93050749
vn -0.54687619 0.32470149 0.77168347
vn -0.92208067 0.17987272 0.34265586
vn -0.76140564 0.27126212 0.58879395
vn -0.99242058 0.05528654 0.10974877
vn -0.07359611 -0.99728812 -0.00015832
vn -0.07792313 -0.99695937 -0.00000283
vn -0.06710080 -0.99774600 -0.00064053
vn 0.07359863 -0.99728793 -0.00015814
vn 0.06710388 -0.99774579 -0.00064027
vn 0.04326279 -0.99906227 -0.00170498
vn 0.07792922 -0.99695889 -0.00000306
vn 0.08124980 -0.99669377 0.00000143
vn -0.00073498 -0.91127648 0.41179442
vn 0.02338613 -0.99972467 0.00191559
vn 0.03696537 -0.99931474 0.00189809
vn 0.03114808 -0.99951477 -0.00015341
vn 0.01980262 -0.99980384 -0.00036004
vn 0.05242113 -0.99862469 0.00086361
vn 0.00929994 -0.99995670 0.00033124
vn -0.00669649 -0.99997757 0.00010635
vn -0.18180932 -0.90568714 0.38298327
vn -0.01419584 -0.99989911 0.00050667
vn -0.02390906 -0.99971286 0.00159701
vn -0.03704191 -0.99931177 0.00196954
vn 0.00449747 -0.99998922 -0.00115824
vn -0.01794153 -0.99983900 -0.00026758
vn -0.02216518 -0.99975409 -0.00068532
vn -0.00823056 -0.99996607 -0.00035475
vn 0.00771319 -0.99997025 -0.00006149
vn 0.01419599 -0.99989912 -0.00047261
vn 0.18048187 -0.90581958 0.38329778
vn 0.13383579 -0.99100020 0.00256541
vn 0.14154212 -0.98993164 0.00108090
vn 0.13201749 -0.99124739 -0.00000045
vn 0.12671564 -0.99193908 0.00000189
vn 0.15082765 -0.98855996 0.00048023
vn 0.16289133 -0.98664398 0.00026703
vn 0.14238837 -0.98981086 0.00014913
vn 0.13754262 -0.99049585 0.00000820
vn 0.11869945 -0.99292887 0.00164151
vn 0.10528792 -0.99444173 0.00032360
vn 0.09686919 -0.99529712 0.00003531
vn 0.09005388 -0.99593689 0.00001032
vn 0.07958300 -0.99682820 0.00030554
vn 0.08801265 -0.99611936 -0.00000513
vn 0.08980042 -0.99595978 0.00000492
vn 0.08531125 -0.99635435 -0.00004340
vn 0.09287595 -0.99567769 -0.00001208
vn 0.10112457 -0.99487377 0.00000105
vn 0.10648253 -0.99431457 -0.00000647
vn 0.11404068 -0.99347608 0.00000501
vn 0.12056900 -0.99270495 -0.00000621
vn 0.12737186 -0.99185503 -0.00000106
vn 0.36531767 -0.88000825 0.30352673
vn 0.17370707 -0.98479737 0.00001456
vn 0.18441477 -0.98284851 0.00005558
vn 0.20049920 -0.96937571 -0.14181257
vn 0.17383099 -0.98477547 -0.00023186
vn 0.14274736 -0.98975841 -0.00121265
vn 0.13764449 -0.99048170 -0.00004979
vn 0.14967397 -0.98873520 -0.00063984
vn 0.16248149 -0.98671135 -0.00069182
vn 0.13347606 -0.99104904 -0.00243622
vn 0.09253290 -0.99570962 -0.00014093
vn 0.06432046 -0.99792928 0.00019780
vn 0.10340643 -0.99463903 -0.00056415
vn 0.11805995 -0.99300493 -0.00174709
vn -0.09144133 -0.99581047 0.00000001
vn -0.08806564 -0.99611467 -0.00000593
vn -0.08532545 -0.99635313 -0.00004368
vn -0.09109493 -0.99584221 -0.00009751
vn -0.07934755 -0.99684695 0.00034880
vn -0.09701400 -0.99528302 0.00000214
vn -0.10126510 -0.99485948 -0.00000304
vn -0.10655911 -0.99430637 0.00000493
vn -0.11415902 -0.99346249 -0.00000630
vn -0.12083356 -0.99267278 0.00000408
vn -0.12672139 -0.99193835 -0.00000175
vn -0.13204212 -0.99124411 0.00000002
vn -0.14220853 -0.98983610 -0.00110833
vn -0.13050308 -0.99144790 0.00000580
vn -0.13331964 -0.99107046 -0.00228219
vn -0.13754296 -0.99049580 -0.00000819
vn -0.15090787 -0.98854765 -0.00060601
vn -0.16298110 -0.98662905 -0.00053661
vn -0.14238838 -0.98981085 -0.00014912
vn -0.11864246 -0.99293540 -0.00180716
vn -0.10523422 -0.99444726 -0.00064348
vn -0.09660018 -0.99532324 -0.00023826
vn -0.14163654 -0.98991811 0.00110972
vn -0.13764488 -0.99048164 0.00004978
vn -0.36636788 -0.87977596 0.30293373
vn -0.14956427 -0.98875190 0.00046120
vn -0.16234993 -0.98673320 0.00031572
vn -0.17269266 -0.98497576 0.00003498
vn -0.18335118 -0.98304748 0.00003627
vn -0.17393837 -0.98475653 -0.00015294
vn -0.48986484 -0.84629217 0.20933707
vn -0.19918734 -0.96978532 -0.14085748
vn -0.08997403 -0.99594411 0.00002058
vn -0.10457372 -0.99451710 0.00026934
vn -0.11805611 -0.99300580 0.00149425
vn -0.13369684 -0.99101887 0.00260097
vn -0.79280006 -0.32588945 0.51503799
vn -0.84715892 -0.37370226 0.37771468
vn -0.58588510 -0.35029630 0.73077435
vn -0.68662147 -0.41156331 0.59930509
vn -0.27570862 -0.37391547 0.88553485
vn -0.03968526 -0.99921208 0.00054872
vn -0.05157321 -0.99866857 0.00113881
vn -0.06022114 -0.99818482 0.00069498
vn -0.06552908 -0.99785065 0.00015708
vn -0.04333799 -0.99905895 -0.00174222
vn -0.45124134 -0.44521451 0.77341146
vn -0.00136114 -0.38705875 0.92205405
vn 0.27364189 -0.37409496 0.88609993
vn 0.48921890 -0.84647795 0.21009510
vn 0.58395175 -0.35039476 0.73227308
vn 0.44957701 -0.44541660 0.77426389
vn 0.57339692 -0.81365047 0.09585865
vn 0.79142786 -0.32609528 0.51701432
vn 0.68543203 -0.41182486 0.60048582
vn 0.84651737 -0.37381358 0.37904056
vn 0.13701884 -0.86069661 -0.49033375
vn 0.11319653 -0.99187861 -0.05799462
vn -0.13871651 -0.85925687 -0.49237726
vn 0.09145935 -0.00393981 0.99580102
vn 0.00012165 0.00045559 0.99999989
vn -0.09221245 -0.00360914 0.99573281
vn 0.00003014 -0.79276266 -0.60953044
vn -0.12100221 -0.98434496 -0.12815410
vn -0.06198930 -0.94909830 -0.30881993
vn 0.06205149 -0.94909699 -0.30881146
vn -0.00000041 -0.96603453 -0.25841302
vn 0.12173474 -0.98403307 -0.12984444
vn 0.45573313 0.37774586 -0.80598720
vn 0.48783843 0.76499785 -0.42046635
vn 0.67424764 0.68555965 0.27458713
vn 0.45692068 -0.37572337 -0.80626016
vn 0.54937494 -0.61592282 -0.56464702
vn 0.77591952 0.42623858 0.46504793
vn 0.64228665 0.76629076 -0.01631992
vn 0.83007783 0.53660423 -0.15174551
vn 0.85617902 0.48683118 0.17306902
vn 0.74170494 0.66381899 0.09601108
vn 0.82945657 -0.14146714 -0.54035993
vn 0.58300623 -0.00092987 -0.81246715
vn 0.82782443 0.14042298 -0.54312807
vn 0.89608843 0.44387402 0.00117332
vn 0.89514851 0.40537066 -0.18542863
vn 0.89530914 0.40396765 0.18770105
vn 0.99437064 0.01261526 0.10520403
vn 0.97349756 0.12903629 0.18881775
vn 0.99704946 -0.03050373 0.07044073
vn 0.99694032 -0.06333522 0.04581099
vn 0.99308171 -0.11690788 0.01101235
vn 0.98090957 -0.18187209 -0.06884016
vn 0.96066663 0.27076029 0.06171304
vn 0.95796812 0.28022128 -0.06142577
vn 0.96674040 0.20236753 0.15639816
vn 0.96663722 0.20420987 -0.15463124
vn 0.96242151 0.10862329 -0.24888918
vn 0.96068783 0.03127105 -0.27586413
vn 0.96828340 -0.19409350 -0.15733712
vn 0.96231923 -0.10832787 -0.24941284
vn 0.96075231 -0.03126942 -0.27563967
vn 0.00143656 0.85922795 -0.51159092
vn 0.00122572 0.38334620 -0.92360391
vn 0.00087162 -0.37957113 -0.92516215
vn -0.89058172 -0.17690122 -0.41901093
vn -0.93466548 0.24872659 0.25403843
vn -0.89067248 0.17681390 -0.41885483
vn -0.70711040 0.00000000 -0.70710316
vn -0.89551273 0.41652692 0.15672358
vn -0.89065457 0.41890890 -0.17677605
vn -0.36885380 0.35569926 -0.85873448
vn -0.40625040 0.82147980 -0.40016441
vn -0.63730551 0.74661843 0.19079467
vn -0.91374061 -0.29438738 -0.28002528
vn -0.39786034 -0.66009178 -0.63717030
vn -0.36982972 -0.35417517 -0.85894466
vn -0.70711040 -0.00000000 -0.70710316
vn -0.99998207 -0.00591695 -0.00092008
vn -0.99992350 -0.01052228 -0.00650264
vn -0.99971975 -0.01560786 -0.01779935
vn -0.99949069 0.01021602 -0.03023233
vn -0.99942100 -0.00909607 -0.03278604
vn -0.99967755 0.02049446 -0.01499264
vn -0.99818930 0.06010551 -0.00233392
vn -0.99967879 0.02055496 0.01482579
vn -0.99818930 0.06010551 0.00233392
vn -0.99999503 -0.00106261 0.00296694
vn -0.99982841 0.01126108 0.01470875
vn -0.99999545 -0.00217062 0.00209272
vn -0.99999289 -0.00359160 0.00114687
vn -0.99774635 0.00012154 -0.06709847
vn -0.99998953 0.00062818 0.00453365
vn -0.99998777 -0.00494260 0.00017309
f 214//214 3//3 184//184
f 214//214 224//224 4//4
f 4//4 3//3 214//214
f 184//184 3//3 189//189
f 187//187 186//186 211//211
f 187//187 177//177 186//186
f 184//184 208//208 183//183
f 48//48 154//154 153//153
f 4//4 224//224 5//5
f 42//42 188//188 20//20
f 20//20 44//44 42//42
f 19//19 44//44 20//20
f 16//16 48//48 46//46
f 13//13 48//48 16//16
f 16//16 225//225 13//13
f 203//203 36//36 204//204
f 186//186 177//177 1//1
f 227//227 177//177 173//173
f 199//199 39//39 40//40
f 39//39 36//36 40//40
f 40//40 201//201 199//199
f 36//36 201//201 40//40
f 211//211 186//186 212//212
f 186//186 183//183 194//194
f 209//209 183//183 208//208
f 161//161 155//155 46//46
f 46//46 48//48 161//161
f 161//161 48//48 153//153
f 153//153 154//154 139//139
f 139//139 161//161 153//153
f 154//154 48//48 50//50
f 50//50 48//48 13//13
f 188//188 42//42 41//41
f 41//41 39//39 199//199
f 170//170 167//167 39//39
f 39//39 41//41 170//170
f 170//170 41//41 42//42
f 169//169 42//42 44//44
f 28//28 231//231 232//232
f 189//189 19//19 185//185
f 20//20 188//188 185//185
f 185//185 19//19 20//20
f 14//14 19//19 18//18
f 2//2 189//189 3//3
f 2//2 19//19 189//189
f 197//197 206//206 208//208
f 197//197 208//208 184//184
f 184//184 189//189 190//190
f 189//189 206//206 190//190
f 190//190 197//197 184//184
f 206//206 197//197 190//190
f 207//207 185//185 188//188
f 162//162 176//176 155//155
f 38//38 167//167 37//37
f 38//38 36//36 39//39
f 39//39 167//167 38//38
f 102//102 103//103 101//101
f 103//103 102//102 105//105
f 37//37 167//167 164//164
f 164//164 169//169 101//101
f 167//167 170//170 164//164
f 211//211 204//204 33//33
f 33//33 187//187 211//211
f 33//33 37//37 34//34
f 13//13 225//225 221//221
f 186//186 1//1 216//216
f 34//34 37//37 104//104
f 104//104 105//105 109//109
f 103//103 105//105 104//104
f 37//37 164//164 104//104
f 101//101 103//103 104//104
f 104//104 164//164 101//101
f 35//35 33//33 34//34
f 187//187 33//33 35//35
f 177//177 180//180 181//181
f 202//202 36//36 203//203
f 202//202 201//201 36//36
f 213//213 212//212 193//193
f 193//193 194//194 213//213
f 193//193 212//212 186//186
f 186//186 194//194 193//193
f 195//195 194//194 183//183
f 183//183 209//209 195//195
f 155//155 161//161 68//68
f 161//161 139//139 68//68
f 60//60 162//162 68//68
f 68//68 162//162 155//155
f 146//146 139//139 145//145
f 145//145 29//29 146//146
f 145//145 139//139 154//154
f 14//14 45//45 43//43
f 44//44 19//19 43//43
f 43//43 45//45 163//163
f 43//43 166//166 44//44
f 163//163 166//166 43//43
f 168//168 170//170 42//42
f 42//42 169//169 168//168
f 168//168 164//164 170//170
f 169//169 164//164 168//168
f 200//200 41//41 199//199
f 188//188 41//41 200//200
f 200//200 207//207 188//188
f 101//101 169//169 165//165
f 165//165 166//166 101//101
f 165//165 169//169 44//44
f 44//44 166//166 165//165
f 163//163 45//45 174//174
f 174//174 162//162 163//163
f 45//45 175//175 174//174
f 174//174 175//175 162//162
f 32//32 204//204 36//36
f 32//32 33//33 204//204
f 37//37 33//33 32//32
f 89//89 88//88 78//78
f 78//78 162//162 60//60
f 163//163 162//162 78//78
f 101//101 166//166 78//78
f 78//78 166//166 163//163
f 112//112 78//78 65//65
f 91//91 78//78 112//112
f 235//235 236//236 222//222
f 218//218 51//51 49//49
f 49//49 50//50 218//218
f 28//28 232//232 226//226
f 232//232 217//217 226//226
f 228//228 216//216 1//1
f 228//228 177//177 227//227
f 228//228 1//1 177//177
f 34//34 104//104 171//171
f 171//171 104//104 180//180
f 171//171 35//35 34//34
f 171//171 180//180 177//177
f 187//187 35//35 171//171
f 177//177 187//187 171//171
f 146//146 173//173 179//179
f 181//181 160//160 179//179
f 179//179 173//173 177//177
f 177//177 181//181 179//179
f 210//210 195//195 209//209
f 213//213 194//194 210//210
f 194//194 195//195 210//210
f 150//150 68//68 139//139
f 30//30 29//29 28//28
f 30//30 173//173 146//146
f 146//146 29//29 30//30
f 26//26 29//29 27//27
f 29//29 145//145 27//27
f 154//154 50//50 151//151
f 151//151 145//145 154//154
f 49//49 51//51 25//25
f 25//25 21//21 26//26
f 26//26 27//27 25//25
f 14//14 18//18 17//17
f 17//17 15//15 14//14
f 16//16 15//15 17//17
f 47//47 15//15 46//46
f 46//46 155//155 47//47
f 155//155 176//176 47//47
f 47//47 175//175 45//45
f 176//176 162//162 47//47
f 162//162 175//175 47//47
f 12//12 16//16 46//46
f 46//46 15//15 12//12
f 12//12 15//15 16//16
f 11//11 19//19 14//14
f 14//14 43//43 11//11
f 11//11 43//43 19//19
f 22//22 230//230 231//231
f 22//22 231//231 28//28
f 28//28 29//29 22//22
f 196//196 205//205 206//206
f 196//196 206//206 189//189
f 189//189 205//205 196//196
f 189//189 185//185 192//192
f 192//192 205//205 189//189
f 207//207 205//205 198//198
f 185//185 207//207 198//198
f 90//90 78//78 91//91
f 84//84 102//102 101//101
f 109//109 105//105 84//84
f 84//84 105//105 102//102
f 96//96 88//88 89//89
f 89//89 113//113 96//96
f 10//10 50//50 13//13
f 10//10 218//218 50//50
f 13//13 221//221 10//10
f 221//221 218//218 10//10
f 217//217 243//243 219//219
f 219//219 243//243 233//233
f 219//219 222//222 224//224
f 224//224 223//223 219//219
f 233//233 235//235 219//219
f 219//219 235//235 222//222
f 234//234 217//217 232//232
f 234//234 243//243 217//217
f 74//74 160//160 181//181
f 9//9 179//179 160//160
f 146//146 132//132 144//144
f 136//136 118//118 68//68
f 135//135 9//9 136//136
f 9//9 118//118 136//136
f 148//148 68//68 149//149
f 68//68 150//150 149//149
f 28//28 226//226 31//31
f 31//31 30//30 28//28
f 31//31 226//226 227//227
f 227//227 173//173 31//31
f 173//173 30//30 31//31
f 152//152 27//27 145//145
f 145//145 151//151 152//152
f 152//152 25//25 27//27
f 49//49 25//25 152//152
f 152//152 50//50 49//49
f 152//152 151//151 50//50
f 24//24 25//25 51//51
f 21//21 25//25 24//24
f 51//51 218//218 237//237
f 237//237 221//221 238//238
f 237//237 218//218 221//221
f 191//191 192//192 185//185
f 205//205 192//192 191//191
f 185//185 198//198 191//191
f 191//191 198//198 205//205
f 87//87 78//78 88//88
f 88//88 96//96 97//97
f 97//97 96//96 113//113
f 180//180 104//104 182//182
f 180//180 6//6 57//57
f 65//65 63//63 57//57
f 57//57 112//112 65//65
f 57//57 181//181 180//180
f 57//57 63//63 181//181
f 111//111 6//6 113//113
f 111//111 113//113 89//89
f 229//229 228//228 217//217
f 64//64 61//61 77//77
f 62//62 63//63 65//65
f 65//65 78//78 62//62
f 62//62 61//61 64//64
f 64//64 63//63 62//62
f 62//62 78//78 60//60
f 60//60 61//61 62//62
f 75//75 74//74 181//181
f 60//60 68//68 71//71
f 146//146 179//179 178//178
f 54//54 9//9 160//160
f 143//143 139//139 146//146
f 146//146 144//144 143//143
f 143//143 144//144 139//139
f 142//142 132//132 139//139
f 139//139 144//144 142//142
f 142//142 144//144 132//132
f 117//117 119//119 116//116
f 116//116 9//9 117//117
f 116//116 118//118 9//9
f 120//120 68//68 148//148
f 148//148 136//136 120//120
f 120//120 136//136 68//68
f 121//121 136//136 148//148
f 135//135 136//136 121//121
f 139//139 132//132 141//141
f 141//141 140//140 139//139
f 137//137 150//150 139//139
f 139//139 140//140 137//137
f 146//146 127//127 131//131
f 131//131 132//132 146//146
f 131//131 141//141 132//132
f 140//140 141//141 131//131
f 148//148 149//149 122//122
f 122//122 149//149 135//135
f 122//122 121//121 148//148
f 135//135 121//121 122//122
f 134//134 9//9 135//135
f 245//245 21//21 242//242
f 21//21 241//241 242//242
f 21//21 244//244 239//239
f 239//239 241//241 21//21
f 240//240 244//244 51//51
f 51//51 237//237 240//240
f 21//21 24//24 23//23
f 23//23 24//24 51//51
f 23//23 244//244 21//21
f 51//51 244//244 23//23
f 98//98 87//87 88//88
f 99//99 87//87 98//98
f 109//109 84//84 83//83
f 101//101 80//80 83//83
f 83//83 84//84 101//101
f 108//108 104//104 109//109
f 108//108 106//106 104//104
f 109//109 83//83 108//108
f 104//104 6//6 172//172
f 172//172 182//182 104//104
f 172//172 6//6 180//180
f 180//180 182//182 172//172
f 91//91 58//58 59//59
f 59//59 58//58 6//6
f 56//56 57//57 6//6
f 112//112 57//57 56//56
f 6//6 111//111 92//92
f 89//89 78//78 95//95
f 95//95 111//111 89//89
f 78//78 90//90 95//95
f 90//90 111//111 95//95
f 220//220 219//219 223//223
f 76//76 77//77 66//66
f 66//66 61//61 60//60
f 66//66 77//77 61//61
f 72//72 75//75 181//181
f 72//72 77//77 76//76
f 60//60 75//75 72//72
f 181//181 63//63 72//72
f 72//72 66//66 60//60
f 76//76 66//66 72//72
f 72//72 63//63 64//64
f 64//64 77//77 72//72
f 67//67 75//75 60//60
f 74//74 75//75 73//73
f 73//73 71//71 74//74
f 157//157 71//71 68//68
f 179//179 9//9 7//7
f 7//7 178//178 179//179
f 7//7 9//9 146//146
f 146//146 178//178 7//7
f 9//9 54//54 52//52
f 147//147 119//119 68//68
f 147//147 116//116 119//119
f 118//118 116//116 147//147
f 126//126 137//137 127//127
f 150//150 137//137 126//126
f 135//135 149//149 123//123
f 123//123 134//134 135//135
f 9//9 134//134 129//129
f 129//129 127//127 146//146
f 146//146 9//9 129//129
f 129//129 126//126 127//127
f 124//124 149//149 150//150
f 150//150 134//134 124//124
f 124//124 123//123 149//149
f 134//134 123//123 124//124
f 85//85 83//83 80//80
f 85//85 108//108 83//83
f 106//106 108//108 85//85
f 78//78 87//87 79//79
f 101//101 78//78 79//79
f 79//79 80//80 101//101
f 110//110 87//87 99//99
f 110//110 100//100 87//87
f 110//110 6//6 104//104
f 104//104 106//106 110//110
f 6//6 58//58 55//55
f 55//55 56//56 6//6
f 55//55 58//58 91//91
f 91//91 112//112 55//55
f 112//112 56//56 55//55
f 93//93 111//111 90//90
f 93//93 92//92 111//111
f 93//93 90//90 91//91
f 91//91 92//92 93//93
f 94//94 92//92 91//91
f 6//6 92//92 94//94
f 75//75 67//67 69//69
f 69//69 73//73 75//75
f 69//69 67//67 60//60
f 68//68 119//119 159//159
f 119//119 52//52 159//159
f 159//159 52//52 54//54
f 159//159 54//54 160//160
f 160//160 74//74 156//156
f 156//156 157//157 160//160
f 74//74 71//71 156//156
f 71//71 157//157 156//156
f 53//53 52//52 119//119
f 9//9 52//52 53//53
f 68//68 118//118 115//115
f 115//115 147//147 68//68
f 118//118 147//147 115//115
f 127//127 137//137 138//138
f 138//138 130//130 127//127
f 140//140 131//131 133//133
f 130//130 138//138 133//133
f 133//133 131//131 127//127
f 127//127 130//130 133//133
f 133//133 137//137 140//140
f 133//133 138//138 137//137
f 125//125 134//134 150//150
f 150//150 129//129 125//125
f 125//125 129//129 134//134
f 150//150 126//126 128//128
f 128//128 129//129 150//150
f 126//126 129//129 128//128
f 86//86 85//85 80//80
f 87//87 100//100 82//82
f 82//82 79//79 87//87
f 100//100 79//79 82//82
f 114//114 110//110 99//99
f 6//6 110//110 114//114
f 113//113 6//6 114//114
f 114//114 97//97 113//113
f 99//99 98//98 114//114
f 88//88 97//97 114//114
f 114//114 98//98 88//88
f 81//81 79//79 100//100
f 100//100 110//110 81//81
f 81//81 110//110 106//106
f 81//81 106//106 80//80
f 80//80 79//79 81//81
f 60//60 71//71 70//70
f 70//70 69//69 60//60
f 71//71 73//73 70//70
f 73//73 69//69 70//70
f 158//158 157//157 68//68
f 68//68 159//159 158//158
f 160//160 157//157 158//158
f 158//158 159//159 160//160
f 8//8 53//53 119//119
f 9//9 53//53 8//8
f 106//106 85//85 107//107
f 85//85 86//86 107//107
f 80//80 106//106 107//107
f 107//107 86//86 80//80
f 224//224 225//225 16//16
f 16//16 5//5 224//224
f 2//2 18//18 19//19
f 3//3 18//18 2//2
f 221//221 236//236 238//238
f 222//222 236//236 221//221
f 221//221 225//225 224//224
f 224//224 222//222 221//221
f 215//215 214//214 184//184
f 184//184 183//183 215//215
f 36//36 38//38 32//32
f 32//32 38//38 37//37
f 228//228 226//226 217//217
f 227//227 226//226 228//228
f 214//214 215//215 223//223
f 224//224 214//214 223//223
f 186//186 216//216 223//223
f 223//223 215//215 183//183
f 223//223 183//183 186//186
f 216//216 228//228 223//223
f 210//210 204//204 211//211
f 199//199 201//201 210//210
f 210//210 209//209 208//208
f 211//211 212//212 210//210
f 208//208 206//206 210//210
f 203//203 204//204 210//210
f 210//210 202//202 203//203
f 210//210 212//212 213//213
f 206//206 205//205 210//210
f 210//210 200//200 199//199
f 201//201 202//202 210//210
f 207//207 200//200 210//210
f 210//210 205//205 207//207
f 17//17 18//18 3//3
f 17//17 3//3 4//4
f 5//5 16//16 17//17
f 4//4 5//5 17//17
f 14//14 15//15 47//47
f 47//47 45//45 14//14
f 245//245 230//230 22//22
f 22//22 21//21 245//245
f 22//22 29//29 26//26
f 26//26 21//21 22//22
f 233//233 243//243 240//240
f 240//240 235//235 233//233
f 240//240 232//232 231//231
f 238//238 236//236 240//240
f 231//231 230//230 240//240
f 240//240 230//230 245//245
f 236//236 235//235 240//240
f 240//240 237//237 238//238
f 240//240 234//234 232//232
f 243//243 234//234 240//240
f 245//245 242//242 240//240
f 240//240 239//239 244//244
f 240//240 242//242 241//241
f 241//241 239//239 240//240
f 220//220 223//223 228//228
f 228//228 229//229 220//220
f 217//217 219//219 220//220
f 220//220 229//229 217//217
f 94//94 59//59 6//6
f 91//91 59//59 94//94
f 117//117 9//9 8//8
f 8//8 119//119 117//117

