# https://github.com/mikedh/trimesh
v 16.34803963 -16.40482712 -45.59999847
v -8.93554878 -21.43356705 -45.59999847
v 8.82241535 -21.43356514 -45.59999847
v -21.49002075 -8.87926006 -45.59999847
v -16.46117592 -16.40482903 -45.59999847
v -23.25656891 -0.00000202 -45.59999847
v -16.46117783 16.40482712 -45.59999847
v -21.49002266 8.87925625 -45.59999847
v 8.82241249 21.43356705 -45.59999847
v -8.93555260 21.43356514 -45.59999847
v 21.37688255 8.87926006 -45.59999847
v 16.34803772 16.40482903 -45.59999847
v 23.14343071 0.00000200 -45.59999847
v 21.37688446 -8.87925625 -45.59999847
v -0.05656854 -23.20000076 -45.59999847
v -0.05656854 23.20000076 -45.59999847
v 12.37880611 35.37787628 -51.09999847
v 0.94343144 37.48666382 -51.09999847
v 22.62497520 29.86285210 -51.09999847
v 30.68459320 21.47611046 -51.09999847
v 35.78783417 11.01869202 -51.09999847
v 37.44013977 -0.49699706 -51.09999847
v 35.48319244 -11.96487427 -51.09999847
v 30.10452271 -22.28342247 -51.09999847
v 21.82531548 -30.45366096 -51.09999847
v -0.05656854 -37.50000000 -51.09999847
v 11.43635559 -35.69517517 -51.09999847
v -12.49194241 -35.37787628 -51.09999847
v -1.05656850 -37.48666382 -51.09999847
v -22.73811340 -29.86285210 -51.09999847
v -30.79773140 -21.47611046 -51.09999847
v -35.90097046 -11.01869202 -51.09999847
v -37.55327606 0.49699706 -51.09999847
v -35.59632874 11.96487427 -51.09999847
v -30.21765900 22.28342247 -51.09999847
v -21.93845367 30.45366096 -51.09999847
v -0.05656854 37.50000000 -51.09999847
v -11.54949284 35.69517517 -51.09999847
v -36.84809875 -43.63163757 -95.34442902
v -38.55656815 -20.75000191 -104.10005951
v -37.83607101 -42.55319595 -104.10004425
v -38.11647034 -18.07389259 -109.90458679
v -36.67272949 -44.43470001 -95.49040222
v -37.83174515 -42.50073242 -104.52755737
v -37.82257462 -42.44816589 -104.95500183
v -37.76329422 -42.86070633 -105.00677490
v -37.40902328 -43.89495468 -99.82807159
v -37.77787018 -42.96574020 -104.15293121
v -38.51705551 -21.55394363 -102.35629272
v -31.36220551 -45.97705841 -83.11396790
v -34.36132050 -45.30017090 -88.57749939
v 37.71860886 -42.50072861 -104.52759552
v 38.44342804 -20.75000191 -104.10005951
v 37.72293472 -42.55319595 -104.10004425
v 38.40402603 -21.55302429 -102.35828400
v 37.70943832 -42.44816589 -104.95500183
v 37.65015411 -42.86070633 -105.00677490
v 37.36971664 -43.20612335 -98.77737427
v 37.66473389 -42.96574020 -104.15293121
v 38.00333405 -18.07389069 -109.90458679
v 36.14675903 -41.23804855 -114.73633575
v 36.70154572 -15.47137356 -115.54949188
v 32.95368195 -40.30095291 -122.33571625
v 34.59105682 -13.01071739 -120.88669586
v 31.75231552 -10.75021553 -125.78976440
v 29.29989624 -39.63426971 -127.74441528
v 28.28381729 -8.73581123 -130.15904236
v 25.76016045 -39.16245270 -131.54972839
v 24.29215813 -7.00064135 -133.92265320
v 15.05912876 -38.28647614 -138.60562134
v 15.15797615 -4.44484806 -139.46621704
v 18.86160851 -38.52363586 -136.68341064
v 22.43562317 -38.81532669 -134.33082581
v 10.68090153 -38.08811188 -140.20376587
v 5.10986519 -3.16059399 -142.25178528
v -2.31177115 -37.90015030 -141.70071411
v -5.22303295 -3.16059589 -142.25178528
v 4.77101803 -37.93088913 -141.45666504
v -13.01016235 -38.17942047 -139.47100830
v -15.27113152 -4.44485188 -139.46620178
v -8.41246128 -38.01020432 -140.82768250
v -20.70164490 -38.65543747 -135.61982727
v -24.40530396 -7.00064468 -133.92265320
v -16.95574760 -38.38920593 -137.77136230
v -24.18935585 -38.97637558 -133.03901672
v -28.39696121 -8.73581409 -130.15904236
v -27.97731018 -39.42781448 -129.41471863
v -31.86545563 -10.75021744 -125.78976440
v -32.06053925 -40.09066010 -124.04006195
v -34.70419312 -13.01071930 -120.88669586
v -35.80399704 -41.06263733 -116.16503906
v -36.81468582 -15.47137451 -115.54949188
v -37.16927719 -41.69950867 -110.99874878
v -36.95415878 -42.50281143 -111.06189728
v -37.61852646 -43.25216293 -105.05351257
v -35.58459854 -41.86728668 -116.19348907
v -31.84650421 -40.89806366 -124.00997162
v -27.77948380 -40.23694992 -129.34004211
v -24.01153755 -39.78683090 -132.93202209
v -20.54601097 -39.46708298 -135.48789978
v -16.82616997 -39.20180511 -137.61776733
v -12.90893078 -38.99290085 -139.30010986
v -8.34599876 -38.82442093 -140.64274597
v -2.29378438 -38.71484756 -141.50657654
v 4.73202419 -38.74543762 -141.26516724
v 10.59624100 -38.90199280 -140.02531433
v 14.94232655 -39.09952164 -138.44351196
v 18.71765137 -39.33572388 -136.54093933
v 22.26804352 -39.62637711 -134.21142578
v 25.57283401 -39.97232437 -131.45634460
v 29.09558487 -40.44279099 -127.68408966
v 32.73633194 -41.10780334 -122.31996155
v 35.92797089 -42.04244995 -114.77481079
v 37.01229095 -42.62168884 -110.10809326
v 36.47176743 -43.76433182 -94.28321838
v 37.18294144 -44.00872421 -98.90724182
v 37.52096176 -43.35718155 -104.20272827
v 36.30014038 -44.56735611 -94.43374634
v 33.67651367 -45.45155334 -87.35327911
v 30.49338150 -46.11386871 -82.01686096
v -25.59933662 -50.62288666 -106.30323029
v -25.29126167 -51.33738708 -102.25110626
v -22.11657524 -51.79206085 -99.67254639
v -25.13991356 -49.79342651 -111.00730896
v -23.81927872 -48.98619080 -115.58535767
v -21.71755791 -48.24761200 -119.77403259
v -18.87557030 -47.58866882 -123.51107025
v -15.40266037 -47.03143692 -126.67129517
v 18.75889015 -47.58798981 -123.51493835
v 15.28776455 -47.03119659 -126.67264557
v 21.60226631 -48.24700165 -119.77748871
v 18.59753799 -48.79316711 -116.68006134
v 23.70498276 -48.98566437 -115.58834839
v 25.02649498 -49.79318237 -111.00870514
v 25.48619843 -50.62288666 -106.30323029
v 25.17817688 -51.33732986 -102.25143433
v 24.22416306 -52.04331589 -98.24760437
v 22.67233658 -52.70500565 -94.49499512
v 20.55809975 -53.31220627 -91.05139160
v 14.84561348 -54.31672668 -85.35448456
v 17.91535759 -53.85596085 -87.96762848
v 7.76901579 -54.95002365 -81.76290894
v 11.44172192 -54.68305969 -83.27691650
v -11.55486298 -54.68305969 -83.27692413
v -7.88172722 -54.95004654 -81.76277161
v 3.87938523 -55.11398315 -80.83305359
v -18.02952003 -53.85578156 -87.96864319
v -14.95950508 -54.31663132 -85.35503387
v -20.67176056 -53.31208038 -91.05210114
v -22.78558922 -52.70496368 -94.49521637
v -24.33734894 -52.04328918 -98.24775696
v 7.02523899 -46.30305481 -130.80213928
v 2.47481346 -46.14773178 -131.68299866
v 3.20083380 -45.88900375 -132.81968689
v 11.35299206 -46.60098648 -129.11248779
v -7.13868713 -46.30307007 -130.80204773
v -2.58795333 -46.14773178 -131.68301392
v -3.31411791 -45.88886642 -132.82006836
v -11.46635151 -46.60099792 -129.11242676
v -10.17993736 -45.30191803 -133.52436829
v -3.38417912 -44.99782181 -135.18495178
v -3.55656862 -45.46424484 -134.10005188
v -16.51174927 -45.87723160 -130.26162720
v -21.84360123 -46.70294189 -125.57879639
v -25.88051033 -47.72541428 -119.78009796
v -28.39421082 -48.88531876 -113.20197296
v -29.27227211 -50.11486053 -106.22891235
v -29.41478157 -50.79899597 -101.45191193
v -29.78038216 -49.96108627 -106.20391083
v -28.29940796 -51.61664581 -96.81479645
v -25.03446960 -52.73656464 -92.45330048
v -26.46882820 -52.38600159 -92.57335663
v -22.53733063 -53.38790512 -89.10005188
v -22.71622658 -53.28555679 -90.20471191
v -23.25478935 -53.12487793 -91.22313690
v -18.43150139 -54.11000061 -82.67432404
v -22.98107529 -53.33011627 -87.39438629
v -23.06782913 -53.30539703 -87.24747467
v -12.85102749 -54.72341156 -79.19552612
v -3.99197221 -55.11399841 -80.83296967
v -6.62134790 -55.10528183 -77.02983856
v -0.05656854 -55.16873932 -80.52250671
v -0.05656854 -55.23595047 -76.28878021
v 6.50955915 -55.10522461 -77.03014374
v 12.74045753 -54.72319412 -79.19675446
v 18.32175827 -54.10952759 -82.67700958
v 22.85287666 -53.33426666 -87.42165375
v 22.95404816 -53.30564117 -87.24850464
v 22.59560394 -53.28842926 -90.18194580
v 22.42419434 -53.38790512 -89.10005188
v 28.18612480 -51.61672592 -96.81435394
v 26.35372162 -52.38657379 -92.57360077
v 24.88054657 -52.74539948 -92.44083405
v 23.11111641 -53.13262558 -91.18250275
v 29.30160522 -50.79903793 -101.45166016
v 29.15913582 -50.11486053 -106.22891235
v 28.28110695 -48.88534164 -113.20183563
v 25.76746368 -47.72544479 -119.77993011
v 21.73063087 -46.70297623 -125.57861328
v 16.39887047 -45.87726212 -130.26144409
v 10.06704140 -45.30193710 -133.52427673
v 3.44343138 -45.46424484 -134.10005188
v 34.37486267 -44.80806732 -113.92704773
v 37.50539017 -43.25216293 -105.05351257
v 36.41592789 -45.05327606 -105.36657715
v 37.51558304 -43.30473328 -104.62818146
v 31.38819313 -43.41710281 -121.81557465
v 26.57660294 -42.18436813 -128.80673218
v 20.21439171 -41.18445587 -134.47750854
v 12.61865330 -40.47771072 -138.48564148
v 4.26207829 -40.11190414 -140.56022644
v -4.37540960 -40.11191177 -140.56018066
v -12.73179340 -40.47771072 -138.48564148
v -20.32751083 -41.18445206 -134.47752380
v -26.68967438 -42.18435287 -128.80680847
v -31.50128174 -43.41708755 -121.81566620
v -34.48797607 -44.80805206 -113.92713928
v -36.52906799 -45.05327606 -105.36657715
v -35.52936172 -46.28010178 -105.57874298
v -35.86414719 -46.29589844 -98.31932068
v -37.62871933 -43.30473709 -104.62813568
v -33.09576797 -49.03365326 -100.24695587
v -34.65349960 -47.14825439 -105.72817993
v -31.71334457 -47.27257156 -113.67432404
v -33.55424118 -48.04023361 -105.88089752
v -32.67336655 -48.62910461 -105.98107147
v -28.96204948 -45.99107361 -120.94202423
v -24.53432655 -44.85671616 -127.37526703
v -18.67975998 -43.93650055 -132.59403992
v -11.70103550 -43.28719711 -136.27641296
v -4.02179003 -42.95100784 -138.18302917
v 3.90847778 -42.95100403 -138.18305969
v 11.58788776 -43.28719711 -136.27642822
v 18.56666374 -43.93650818 -132.59400940
v 24.42124939 -44.85672760 -127.37519836
v 28.84895515 -45.99108887 -120.94194794
v 35.41622162 -46.28010178 -105.57874298
v 31.60022926 -47.27258682 -113.67424011
v 35.75099564 -46.29591370 -98.31923676
v 34.54035950 -47.14825439 -105.72817993
v -30.45680618 -49.72185898 -106.16454315
v -1.07216442 -43.69456482 -137.44946289
v -2.84685946 -44.46366119 -136.21293640
v 0.95522326 -43.69375610 -137.45060730
v 2.73441577 -44.46417618 -136.21202087
v 3.27190781 -44.99906921 -135.18229675
v 33.44110489 -48.04023361 -105.88089752
v 32.56023026 -48.62910461 -105.98107147
v 32.98263550 -49.03364944 -100.24698639
v 30.34366798 -49.72185898 -106.16454315
v 29.66724586 -49.96108627 -106.20391083
v -24.15926361 -52.90291977 -86.14660645
v -17.90789413 -53.06292725 -77.39588165
v -22.84183693 -52.39329910 -81.19352722
v -12.32955265 -53.56133652 -74.56927490
v -6.31069756 -53.86838913 -72.82789612
v -0.05656854 -54.95770645 -74.88809967
v -31.70163345 -49.99901581 -94.77214050
v -27.18903923 -52.16350555 -92.40513611
v -28.86011314 -51.41075516 -91.16932678
v -29.49729919 -50.85986710 -89.62789154
v -33.85372543 -47.49257278 -91.53266907
v -29.53733063 -50.73692322 -89.10005188
v -28.96058083 -50.68820572 -87.17531586
v -37.63409805 -43.35718155 -104.20272827
v -30.54574776 -48.60371399 -85.23110199
v -26.98620224 -51.55304337 -85.73113251
v -26.05848885 -49.58280563 -79.67842102
v -27.50314713 -51.29837036 -85.92178345
v -20.54780769 -50.39351654 -75.08065033
v -14.20169067 -51.00106049 -71.63512421
v -7.28320599 -51.37659073 -69.50537872
v -0.05656854 -52.44761276 -69.83928680
v -0.05656854 -53.97311020 -72.23399353
v 6.19603586 -53.86844254 -72.82760620
v 7.16997814 -51.37659454 -69.50536346
v -25.76625633 -52.16023254 -85.61056519
v 30.43271446 -48.60369110 -85.23123932
v 28.83559418 -50.69169617 -87.15744019
v 29.42419434 -50.73691940 -89.10005188
v 29.38479996 -50.85862350 -89.62370300
v 27.32450485 -51.33015442 -85.89238739
v 25.94531631 -49.58280945 -79.67839813
v 26.85729599 -51.56082153 -85.72673035
v 22.72444344 -52.39399719 -81.18956757
v 25.55512619 -52.20822525 -85.61956787
v 20.43457222 -50.39353180 -75.08058167
v 17.79100037 -53.06334686 -77.39351654
v 24.00029182 -52.92211914 -86.17625427
v 14.08843231 -51.00106812 -71.63507843
v 12.21358299 -53.56153488 -74.56815338
v 33.74054337 -47.49259186 -91.53256226
v 31.58853340 -49.99899673 -94.77224731
v 28.74854851 -51.40979004 -91.16718292
v 27.05695152 -52.16990280 -92.41167450
v -11.33649921 62.00000000 -138.81288147
v 11.22336197 62.00000000 -138.81288147
v -0.05656854 62.00000000 -140.59957886
v -21.51194000 62.00000000 -133.62786865
v 21.39880371 62.00000000 -133.62786865
v 29.47356033 62.00000000 -125.55247498
v 34.65739441 62.00000000 -115.37770844
v 36.44343185 62.00000000 -104.09999847
v 34.65748978 62.00000000 -92.82258606
v 29.47369194 62.00000000 -82.64770508
v 21.39892769 62.00000000 -74.57221985
v -21.51206017 62.00000000 -74.57221985
v 11.22343636 62.00000000 -69.38713837
v -11.33656788 62.00000000 -69.38713837
v -0.05656556 62.00000000 -67.60042572
v -29.58682632 62.00000000 -82.64769745
v -34.77062607 62.00000000 -92.82257843
v -36.55656815 62.00000000 -104.09999847
v -34.77053070 62.00000000 -115.37770844
v -29.58669853 62.00000000 -125.55247498
v -38.55656815 60.00000000 -104.09999847
v -36.73365021 60.00000000 -92.39352417
v -31.43715858 60.00000000 -126.40489960
v -36.73355484 60.00000000 -115.80677795
v -23.16895676 60.00000000 -134.89070129
v -12.71196651 60.00000000 -140.46057129
v -0.96337932 60.41027832 -142.17846680
v -1.05648422 60.00000000 -142.58700562
v -0.05657506 61.00000000 -141.60000610
v -0.73442739 60.72895432 -141.86480713
v 12.59882927 60.00000000 -140.46057129
v 0.94334710 60.00000000 -142.58700562
v 0.85023695 60.41028976 -142.17845154
v 0.62126511 60.72897720 -141.86479187
v 23.05582047 60.00000000 -134.89070129
v 31.32402039 60.00000000 -126.40489960
v 36.62041855 60.00000000 -115.80677795
v 38.44343185 60.00000000 -104.09999847
v 31.32415771 60.00000000 -81.79528809
v 36.62051773 60.00000000 -92.39353180
v 23.05594635 60.00000000 -73.30938721
v 12.59890366 60.00000000 -67.73945618
v 0.85024220 60.41027832 -66.02153778
v 0.94334710 60.00000000 -65.61298370
v -0.05656203 61.00000000 -66.59999847
v 0.62129033 60.72895432 -66.33518982
v -12.71203995 60.00000000 -67.73945618
v -1.05648422 60.00000000 -65.61298370
v -0.96337408 60.41028976 -66.02155304
v -0.73440224 60.72897720 -66.33521271
v -23.16908264 60.00000000 -73.30938721
v -31.43729210 60.00000000 -81.79528809
v -5.45218945 -3.17517734 -142.22003174
v -1.05648422 58.00000000 -142.58700562
v -0.05656854 58.00000000 -142.60000610
v 0.94334710 58.00000000 -142.58700562
v -15.91569328 -4.57588768 -139.18188477
v -25.33065033 -7.36024427 -133.14256287
v -32.81904221 -11.42754364 -124.32054138
v -38.41981888 -19.25528526 -107.34205627
v -37.43475342 -16.49639702 -113.32612610
v -38.55656815 -0.00000001 -62.90000153
v 5.33696938 -3.17504144 -142.22033691
v 15.80056667 -4.57547283 -139.18278503
v 25.21575546 -7.35953951 -133.14410400
v 32.70458984 -11.42656040 -124.32266998
v 37.32097244 -16.49519920 -113.32872009
v 38.30645370 -19.25404358 -107.34474945
v 38.44343185 -0.00000001 -104.09999847
v 38.44343185 -0.00000001 -62.90000153
vn 0.14069949 -0.14061857 0.98001534
vn -0.07569884 -0.18556427 0.97971199
vn 0.07575448 -0.18479226 0.97985360
vn -0.18449222 -0.07579579 0.97990694
vn -0.14056764 -0.14082022 0.98000531
vn -0.20085086 0.00042606 0.97962174
vn -0.14069950 0.14061858 0.98001534
vn -0.18514723 0.07572511 0.97978886
vn 0.07569886 0.18556427 0.97971199
vn -0.07575447 0.18479226 0.97985360
vn 0.18449220 0.07579579 0.97990695
vn 0.14056765 0.14082021 0.98000531
vn 0.20085083 -0.00042606 0.97962174
vn 0.18514721 -0.07572510 0.97978887
vn -0.00045051 -0.20095762 0.97959983
vn 0.00045051 0.20095762 0.97959983
vn 0.17185133 0.45199637 0.87530932
vn 0.04587742 0.45579546 0.88890144
vn 0.35107019 0.41979861 0.83697004
vn 0.54926255 0.33672834 0.76480369
vn 0.74061808 0.17481047 0.64878823
vn 0.80556801 -0.01555775 0.59229903
vn 0.74783327 -0.21145688 0.62931025
vn 0.58489541 -0.39687047 0.70738334
vn 0.39509810 -0.51817868 0.75854357
vn 0.04117038 -0.59753605 0.80078441
vn 0.19734747 -0.58367258 0.78764224
vn -0.21459347 -0.57977982 0.78600573
vn -0.05764754 -0.59607573 0.80085609
vn -0.41154574 -0.51048051 0.75500977
vn -0.60012903 -0.38405845 0.70167247
vn -0.76012837 -0.19288047 0.62048528
vn -0.80533500 -0.00122255 0.59281872
vn -0.72500592 0.19168052 0.66153230
vn -0.53175926 0.34622036 0.77289298
vn -0.33540139 0.42414301 0.84119475
vn -0.03243671 0.45620738 0.88928212
vn -0.15810470 0.45349924 0.87712105
vn -0.96618796 -0.20378458 0.15796411
vn -0.99956016 -0.01940622 -0.02242505
vn -0.99548735 -0.09344772 0.01650621
vn -0.98666086 -0.01399021 -0.16218701
vn -0.90107280 -0.40154896 0.16378721
vn -0.99590973 -0.08638855 -0.02647318
vn -0.99392039 -0.08327728 -0.07202186
vn -0.96796346 -0.23385325 -0.09142973
vn -0.94176816 -0.33243159 0.05061598
vn -0.97083202 -0.23968307 -0.00610037
vn -0.99947404 -0.02995548 0.01242243
vn -0.74261084 -0.53138016 0.40763252
vn -0.83924268 -0.45774946 0.29349131
vn 0.99590947 -0.08639103 -0.02647501
vn 0.99955969 -0.01940019 -0.02245136
vn 0.99559719 -0.09290301 0.01246081
vn 0.99947465 -0.02994242 0.01240463
vn 0.99360613 -0.08134716 -0.07829113
vn 0.96874932 -0.23113075 -0.09001849
vn 0.98047455 -0.17228375 0.09480487
vn 0.97016832 -0.24238101 -0.00498812
vn 0.98644153 -0.01658032 -0.16327338
vn 0.94304143 -0.12909895 -0.30660450
vn 0.94550293 -0.01548429 -0.32524520
vn 0.86583142 -0.13382911 -0.48210551
vn 0.90270760 -0.01368230 -0.43003696
vn 0.80977901 -0.01329493 -0.58658435
vn 0.76882296 -0.13207562 -0.62567347
vn 0.73861308 -0.01135509 -0.67403396
vn 0.67491888 -0.13081386 -0.72620399
vn 0.58677072 -0.01058567 -0.80968393
vn 0.38920858 -0.12854677 -0.91213618
vn 0.33858125 -0.00994924 -0.94088456
vn 0.49164616 -0.12735870 -0.86143126
vn 0.58408772 -0.12849129 -0.80145588
vn 0.26996392 -0.12768643 -0.95436663
vn 0.07121867 -0.01031073 -0.99740743
vn -0.05196854 -0.12778813 -0.99043903
vn -0.07172084 -0.01095595 -0.99736457
vn 0.11856919 -0.12750880 -0.98472476
vn -0.33154996 -0.12726510 -0.93481454
vn -0.33856170 -0.01054674 -0.94088508
vn -0.20979005 -0.12699106 -0.96946449
vn -0.53566319 -0.12765067 -0.83472765
vn -0.58665837 -0.01021250 -0.80977013
vn -0.43903065 -0.12782815 -0.88933236
vn -0.63173316 -0.12988180 -0.76422767
vn -0.73830430 -0.01245486 -0.67435275
vn -0.73238670 -0.13124486 -0.66812013
vn -0.80923818 -0.01335140 -0.58732896
vn -0.84005709 -0.13411933 -0.52565777
vn -0.90236385 -0.01366607 -0.43075830
vn -0.92646565 -0.13362289 -0.35186122
vn -0.94598932 -0.01437767 -0.32387881
vn -0.97125435 -0.13515572 -0.19595385
vn -0.88933836 -0.40226887 -0.21738685
vn -0.90191219 -0.41721953 -0.11172404
vn -0.84679210 -0.38891174 -0.36289228
vn -0.75972984 -0.38382451 -0.52487076
vn -0.66865898 -0.37284897 -0.64333414
vn -0.56653960 -0.39581616 -0.72274647
vn -0.48421720 -0.36646020 -0.79450653
vn -0.39063461 -0.39887482 -0.82964057
vn -0.30038108 -0.36140604 -0.88269864
vn -0.18967820 -0.39584140 -0.89851643
vn -0.03686075 -0.38186508 -0.92348273
vn 0.11219713 -0.35875688 -0.92666353
vn 0.23215318 -0.38772160 -0.89206326
vn 0.35957585 -0.38805813 -0.84859654
vn 0.42877694 -0.39106632 -0.81438165
vn 0.53514340 -0.38297394 -0.75296248
vn 0.59903263 -0.39199952 -0.69820934
vn 0.69981310 -0.38888164 -0.59919338
vn 0.79211755 -0.37955803 -0.47800156
vn 0.86076626 -0.38684793 -0.33080224
vn 0.92748482 -0.32031648 -0.19279333
vn 0.95828892 -0.22336844 0.17829437
vn 0.91982858 -0.38651273 0.06725546
vn 0.89945891 -0.43615131 -0.02730771
vn 0.89500901 -0.40733608 0.18175860
vn 0.82269323 -0.47343713 0.31469532
vn 0.72313782 -0.54644667 0.42245440
vn -0.07310273 -0.98203333 -0.17397281
vn -0.07958396 -0.98414462 -0.15851105
vn -0.00000031 -0.98480766 -0.17364871
vn -0.07284493 -0.97989914 -0.18571830
vn -0.06942598 -0.97746290 -0.19936476
vn -0.06277354 -0.97521891 -0.21214985
vn -0.05423699 -0.97354856 -0.22194945
vn -0.04587668 -0.97202122 -0.23036944
vn 0.05422407 -0.97354598 -0.22196392
vn 0.04587246 -0.97202029 -0.23037422
vn 0.06277162 -0.97521689 -0.21215971
vn 0.00000006 -0.98480765 -0.17364875
vn 0.06942427 -0.97746179 -0.19937082
vn 0.07284318 -0.97989855 -0.18572211
vn 0.07310334 -0.98203306 -0.17397407
vn 0.07958281 -0.98414461 -0.15851171
vn 0.07715299 -0.98502176 -0.15420619
vn 0.04239950 -0.98698094 -0.15514804
vn 0.03308169 -0.98838004 -0.14835939
vn 0.04729904 -0.99326552 -0.10576578
vn 0.04272027 -0.99111716 -0.12594348
vn 0.02655811 -0.99515653 -0.09464753
vn 0.03888219 -0.99419963 -0.10027593
vn -0.03888586 -0.99419948 -0.10027603
vn -0.02655583 -0.99515664 -0.09464695
vn 0.01253396 -0.99573790 -0.09137253
vn -0.04271476 -0.99111642 -0.12595118
vn -0.04729652 -0.99326525 -0.10576949
vn -0.03307211 -0.98837002 -0.14842820
vn -0.04223568 -0.98698097 -0.15519251
vn -0.07719467 -0.98502404 -0.15417073
vn 0.02050751 -0.97406090 -0.22535485
vn 0.00165876 -0.98013280 -0.19833541
vn 0.01726695 -0.96247456 -0.27082202
vn 0.03409890 -0.97057139 -0.23838715
vn -0.02051516 -0.97405604 -0.22537516
vn -0.00166244 -0.98012929 -0.19835274
vn -0.01727204 -0.96247008 -0.27083762
vn -0.03409982 -0.97057121 -0.23838776
vn -0.10405851 -0.89755717 -0.42844248
vn -0.04003008 -0.89514223 -0.44397972
vn -0.02965676 -0.93401813 -0.35599244
vn -0.16177992 -0.90323695 -0.39747990
vn -0.21340285 -0.91132985 -0.35204704
vn -0.25262486 -0.92105259 -0.29638288
vn -0.27337164 -0.93224137 -0.23705267
vn -0.22114293 -0.95989829 -0.17231099
vn -0.31264646 -0.94365538 -0.10847451
vn -0.31713749 -0.93242478 -0.17322772
vn -0.30757746 -0.94822536 -0.07915026
vn -0.18475575 -0.97948428 -0.08047276
vn -0.26618919 -0.96343589 -0.03057130
vn -0.15090529 -0.98745729 -0.04642943
vn -0.11493346 -0.98934822 -0.08933313
vn -0.11699527 -0.98769125 -0.10381761
vn -0.19576746 -0.97683705 0.08639721
vn -0.21366415 -0.97689917 0.00395465
vn -0.26103885 -0.96418984 0.04686872
vn -0.14022711 -0.98293045 0.11909697
vn -0.01253253 -0.99573780 -0.09137381
vn -0.07569141 -0.98716496 0.14062769
vn 0.00000051 -0.99584578 -0.09105596
vn 0.00000322 -0.99512840 0.09858738
vn 0.07570169 -0.98716461 0.14062461
vn 0.14025116 -0.98292871 0.11908302
vn 0.19578588 -0.97683379 0.08639230
vn 0.21263398 -0.97712696 0.00311342
vn 0.25987796 -0.96456081 0.04567150
vn 0.11486172 -0.98939576 -0.08889782
vn 0.15068291 -0.98748296 -0.04660536
vn 0.30770269 -0.94819211 -0.07906181
vn 0.26528951 -0.96366640 -0.03112137
vn 0.18329351 -0.97970665 -0.08110717
vn 0.11597914 -0.98779041 -0.10401414
vn 0.31265059 -0.94365353 -0.10847864
vn 0.22114275 -0.95989836 -0.17231084
vn 0.27337075 -0.93224195 -0.23705141
vn 0.25262605 -0.92105295 -0.29638075
vn 0.21340511 -0.91132978 -0.35204587
vn 0.16178303 -0.90323745 -0.39747749
vn 0.10406168 -0.89755770 -0.42844060
vn 0.02964877 -0.93403412 -0.35595114
vn 0.71162933 -0.63800263 -0.29417058
vn 0.90209831 -0.41827455 -0.10613691
vn 0.81558429 -0.56864892 -0.10705454
vn 0.90333235 -0.42350212 -0.06809271
vn 0.65122982 -0.61664786 -0.44231791
vn 0.54474978 -0.60115064 -0.58469273
vn 0.41199484 -0.58896011 -0.69525984
vn 0.25768333 -0.57587623 -0.77586459
vn 0.08367700 -0.56805896 -0.81872289
vn -0.09195635 -0.56014765 -0.82327313
vn -0.25628374 -0.58015707 -0.77313415
vn -0.41198962 -0.59062789 -0.69384670
vn -0.54675343 -0.60184576 -0.58210168
vn -0.65821453 -0.60933642 -0.44211170
vn -0.71197573 -0.63923969 -0.29062551
vn -0.81618288 -0.56726569 -0.10979592
vn -0.74537251 -0.65537335 -0.12208851
vn -0.78242639 -0.62096504 0.04702511
vn -0.90333168 -0.42350372 -0.06809160
vn -0.58927119 -0.80712719 -0.03612714
vn -0.67617268 -0.72375683 -0.13771914
vn -0.51874265 -0.80859421 -0.27763550
vn -0.60237886 -0.78303709 -0.15489555
vn -0.50612385 -0.84829319 -0.15568336
vn -0.47608028 -0.78906101 -0.38823998
vn -0.40456717 -0.77062348 -0.49240720
vn -0.30899370 -0.75542959 -0.57779670
vn -0.19518556 -0.74415369 -0.63885670
vn -0.07994651 -0.72451023 -0.68461192
vn 0.07993633 -0.72451758 -0.68460533
vn 0.19518532 -0.74415312 -0.63885744
vn 0.30899385 -0.75542996 -0.57779614
vn 0.40456781 -0.77062361 -0.49240648
vn 0.47608084 -0.78906118 -0.38823895
vn 0.74537260 -0.65537335 -0.12208793
vn 0.51874270 -0.80859452 -0.27763451
vn 0.78302421 -0.62026115 0.04635940
vn 0.67617316 -0.72375642 -0.13771890
vn -0.39801059 -0.90236991 -0.16527586
vn -0.00954226 -0.78193095 -0.62329201
vn -0.04725591 -0.85061069 -0.52366815
vn 0.00948138 -0.78172549 -0.62355061
vn 0.04725150 -0.85064237 -0.52361709
vn 0.03999712 -0.89521200 -0.44384198
vn 0.60237961 -0.78303655 -0.15489533
vn 0.50612352 -0.84829346 -0.15568296
vn 0.58927089 -0.80712737 -0.03612803
vn 0.39801068 -0.90237005 -0.16527489
vn 0.31713798 -0.93242482 -0.17322660
vn -0.32873685 -0.93737942 0.11511691
vn -0.32073799 -0.87652284 0.35893573
vn -0.40836925 -0.86154857 0.30161003
vn -0.21941063 -0.88531493 0.40997128
vn -0.11948868 -0.88991447 0.44019847
vn -0.00000004 -0.96162304 0.27437406
vn -0.57534635 -0.81670961 0.04429428
vn -0.35080994 -0.93641718 0.00743299
vn -0.44748630 -0.89204443 0.06334629
vn -0.53469328 -0.83505477 0.12956322
vn -0.75216952 -0.63099616 0.18996014
vn -0.58505632 -0.79106783 0.17866389
vn -0.58159883 -0.78019491 0.23030135
vn -0.89974392 -0.43519715 -0.03262398
vn -0.68431482 -0.64536713 0.33943260
vn -0.48185162 -0.84583552 0.22886959
vn -0.58097912 -0.69080351 0.43041117
vn -0.53040459 -0.80819080 0.25592695
vn -0.44392304 -0.73911772 0.50659385
vn -0.30334790 -0.77024883 0.56097843
vn -0.15759627 -0.79007132 0.59241095
vn 0.00041358 -0.81050479 0.58573187
vn -0.00000721 -0.89319541 0.44966873
vn 0.11945447 -0.88991745 0.44020173
vn 0.15671993 -0.78997839 0.59276725
vn -0.41620388 -0.89194707 0.17664869
vn 0.68453402 -0.64524106 0.33923023
vn 0.58079437 -0.78044990 0.23146459
vn 0.58513272 -0.79094736 0.17894686
vn 0.53460504 -0.83509632 0.12965949
vn 0.52892896 -0.80930098 0.25547227
vn 0.57830975 -0.69297148 0.43052104
vn 0.47901062 -0.84818850 0.22610860
vn 0.40829177 -0.86158692 0.30160539
vn 0.41209680 -0.89442861 0.17370573
vn 0.44441113 -0.73909866 0.50619356
vn 0.32067235 -0.87653235 0.35897113
vn 0.32607778 -0.93855836 0.11305525
vn 0.30286473 -0.77072719 0.56058234
vn 0.21935523 -0.88532153 0.40998668
vn 0.75319953 -0.62850458 0.19409395
vn 0.57533809 -0.81671524 0.04429784
vn 0.44738690 -0.89208976 0.06340999
vn 0.35001396 -0.93671687 0.00719259
vn -0.12129541 0.91001168 -0.39644189
vn 0.12129539 0.91001168 -0.39644190
vn 0.00000015 0.91681786 -0.39930565
vn -0.23887195 0.91027636 -0.33813775
vn 0.23887196 0.91027635 -0.33813776
vn 0.33254829 0.91040815 -0.24610694
vn 0.39298593 0.91039394 -0.12940221
vn 0.41385808 0.91034141 -0.00000094
vn 0.39298636 0.91039409 0.12939984
vn 0.33254975 0.91040820 0.24610479
vn 0.23887321 0.91027643 0.33813668
vn -0.23887291 0.91027656 0.33813653
vn 0.12129659 0.91001133 0.39644231
vn -0.12129648 0.91001141 0.39644218
vn -0.00000014 0.91681792 0.39930553
vn -0.33255011 0.91040796 0.24610521
vn -0.39298681 0.91039388 0.12939998
vn -0.41385810 0.91034140 -0.00000090
vn -0.39298593 0.91039395 -0.12940217
vn -0.33254831 0.91040814 -0.24610695
vn -0.92178403 0.38733001 -0.01701969
vn -0.85794368 0.45682211 0.23504509
vn -0.75820988 0.37265713 -0.53501817
vn -0.88459897 0.37264197 -0.28039725
vn -0.56052904 0.37257733 -0.73958997
vn -0.31037817 0.37294259 -0.87440220
vn -0.06752732 0.71622786 -0.69459176
vn -0.08333407 0.37808586 -0.92201221
vn -0.00000353 0.70597916 -0.70823260
vn -0.02324983 0.71071709 -0.70309363
vn 0.31037843 0.37294180 -0.87440245
vn 0.08333485 0.37808647 -0.92201189
vn 0.06755722 0.71623243 -0.69458414
vn 0.02331410 0.71073293 -0.70307549
vn 0.56052891 0.37257677 -0.73959035
vn 0.75820987 0.37265711 -0.53501820
vn 0.88459896 0.37264196 -0.28039731
vn 0.92183363 0.38722098 -0.01681305
vn 0.69587695 0.55138474 0.46014144
vn 0.85836606 0.45602019 0.23506018
vn 0.49074741 0.60658707 0.62547510
vn 0.26309919 0.62705820 0.73319631
vn 0.06756666 0.71623997 0.69457544
vn 0.06807076 0.62800352 0.77522768
vn -0.00000004 0.70598105 0.70823072
vn 0.02330206 0.71073284 0.70307599
vn -0.26321360 0.62723816 0.73300129
vn -0.06785720 0.62812789 0.77514564
vn -0.06757961 0.71624325 0.69457081
vn -0.02331850 0.71073689 0.70307135
vn -0.49062690 0.60671019 0.62545023
vn -0.69556076 0.55182716 0.46008913
vn -0.20015385 -0.01082414 -0.97970469
vn -0.04589530 -0.00119920 -0.99894554
vn 0.00000000 -0.00136772 -0.99999906
vn 0.04589559 -0.00119921 -0.99894552
vn -0.46212695 -0.01086502 -0.88674722
vn -0.66920777 -0.01165147 -0.74298399
vn -0.85588119 -0.01273896 -0.51701558
vn -0.99599609 -0.01601899 -0.08794985
vn -0.97110063 -0.01447173 -0.23823126
vn -0.99784653 -0.02051976 0.06229961
vn 0.20049452 -0.00984185 -0.97964539
vn 0.46238253 -0.01043741 -0.88661912
vn 0.66866902 -0.01167326 -0.74346854
vn 0.85527936 -0.01356745 -0.51798952
vn 0.97128762 -0.01478638 -0.23744837
vn 0.99582322 -0.01764895 -0.08958035
vn 0.99977751 -0.00000005 -0.02109353
vn 0.99804654 -0.01393500 0.06090084
f 333//333 365//365 364//364
f 50//50 268//268 31//31
f 272//272 29//29 28//28
f 15//15 29//29 26//26
f 28//28 29//29 15//15
f 227//227 217//217 216//216
f 319//319 318//318 90//90
f 90//90 92//92 319//319
f 359//359 330//330 69//69
f 22//22 365//365 333//333
f 112//112 66//66 63//63
f 66//66 65//65 63//63
f 53//53 364//364 365//365
f 365//365 55//55 53//53
f 335//335 334//334 21//21
f 335//335 22//22 333//333
f 21//21 22//22 335//335
f 347//347 317//317 34//34
f 34//34 317//317 33//33
f 5//5 31//31 30//30
f 30//30 270//270 28//28
f 268//268 270//270 30//30
f 30//30 31//31 268//268
f 1//1 25//25 24//24
f 14//14 1//1 24//24
f 23//23 14//14 24//24
f 24//24 25//25 283//283
f 24//24 119//119 23//23
f 28//28 270//270 271//271
f 271//271 272//272 28//28
f 271//271 270//270 253//253
f 3//3 25//25 1//1
f 28//28 15//15 2//2
f 2//2 30//30 28//28
f 5//5 30//30 2//2
f 180//180 182//182 183//183
f 233//233 200//200 201//201
f 321//321 80//80 352//352
f 352//352 320//320 321//321
f 92//92 90//90 91//91
f 166//166 227//227 165//165
f 318//318 320//320 86//86
f 44//44 45//45 46//46
f 44//44 41//41 40//40
f 40//40 45//45 44//44
f 355//355 45//45 40//40
f 40//40 41//41 49//49
f 49//49 357//357 40//40
f 41//41 357//357 49//49
f 332//332 62//62 64//64
f 67//67 65//65 66//66
f 66//66 68//68 67//67
f 107//107 74//74 70//70
f 69//69 73//73 72//72
f 72//72 359//359 69//69
f 72//72 70//70 359//359
f 358//358 78//78 75//75
f 74//74 78//78 358//358
f 64//64 63//63 361//361
f 361//361 63//63 65//65
f 333//333 364//364 363//363
f 364//364 53//53 363//363
f 21//21 334//334 20//20
f 334//334 305//305 336//336
f 336//336 20//20 334//334
f 19//19 20//20 336//336
f 347//347 34//34 35//35
f 8//8 35//35 34//34
f 253//253 270//270 254//254
f 254//254 270//270 268//268
f 266//266 268//268 50//50
f 148//148 179//179 176//176
f 176//176 173//173 148//148
f 176//176 179//179 253//253
f 253//253 254//254 176//176
f 277//277 254//254 267//267
f 224//224 227//227 166//166
f 217//217 227//227 224//224
f 290//290 25//25 27//27
f 27//27 276//276 290//290
f 26//26 276//276 27//27
f 25//25 3//3 27//27
f 27//27 3//3 15//15
f 27//27 15//15 26//26
f 23//23 119//119 118//118
f 291//291 288//288 290//290
f 290//290 276//276 291//291
f 291//291 276//276 275//275
f 283//283 25//25 287//287
f 287//287 25//25 290//290
f 290//290 288//288 287//287
f 120//120 24//24 283//283
f 119//119 24//24 120//120
f 255//255 271//271 253//253
f 272//272 271//271 255//255
f 253//253 179//179 255//255
f 275//275 274//274 257//257
f 29//29 272//272 273//273
f 26//26 29//29 273//273
f 273//273 276//276 26//26
f 275//275 276//276 273//273
f 273//273 274//274 275//275
f 181//181 180//180 183//183
f 183//183 257//257 181//181
f 181//181 255//255 179//179
f 144//144 179//179 148//148
f 105//105 78//78 106//106
f 106//106 78//78 74//74
f 106//106 211//211 105//105
f 210//210 211//211 106//106
f 106//106 74//74 107//107
f 107//107 210//210 106//106
f 76//76 78//78 105//105
f 75//75 78//78 76//76
f 320//320 352//352 83//83
f 84//84 352//352 80//80
f 316//316 313//313 319//319
f 317//317 313//313 316//316
f 319//319 42//42 316//316
f 42//42 355//355 316//316
f 316//316 355//355 40//40
f 33//33 317//317 316//316
f 316//316 357//357 33//33
f 312//312 313//313 317//317
f 312//312 317//317 347//347
f 347//347 311//311 312//312
f 314//314 318//318 319//319
f 319//319 313//313 314//314
f 347//347 35//35 346//346
f 346//346 35//35 36//36
f 346//346 311//311 347//347
f 215//215 227//227 216//216
f 216//216 217//217 96//96
f 89//89 91//91 90//90
f 89//89 96//96 91//91
f 92//92 91//91 356//356
f 319//319 92//92 356//356
f 356//356 42//42 319//319
f 318//318 86//86 88//88
f 334//334 335//335 304//304
f 304//304 305//305 334//334
f 302//302 332//332 331//331
f 331//331 67//67 330//330
f 65//65 67//67 331//331
f 331//331 361//361 65//65
f 331//331 332//332 64//64
f 64//64 361//361 331//331
f 330//330 359//359 326//326
f 297//297 300//300 326//326
f 326//326 300//300 330//330
f 69//69 330//330 360//360
f 330//330 67//67 360//360
f 360//360 67//67 68//68
f 360//360 73//73 69//69
f 360//360 68//68 73//73
f 297//297 326//326 327//327
f 327//327 326//326 358//358
f 75//75 351//351 327//327
f 327//327 358//358 75//75
f 75//75 76//76 77//77
f 71//71 70//70 74//74
f 359//359 70//70 71//71
f 74//74 358//358 71//71
f 71//71 326//326 359//359
f 358//358 326//326 71//71
f 107//107 70//70 108//108
f 70//70 72//72 108//108
f 108//108 210//210 107//107
f 60//60 332//332 333//333
f 333//333 363//363 60//60
f 114//114 60//60 363//363
f 21//21 20//20 11//11
f 19//19 336//336 337//337
f 306//306 336//336 305//305
f 308//308 337//337 306//306
f 306//306 337//337 336//336
f 6//6 34//34 33//33
f 6//6 8//8 34//34
f 33//33 32//32 6//6
f 268//268 266//266 269//269
f 269//269 254//254 268//268
f 267//267 254//254 269//269
f 259//259 172//172 178//178
f 252//252 176//176 254//254
f 254//254 277//277 252//252
f 252//252 178//178 176//176
f 259//259 178//178 252//252
f 166//166 124//124 167//167
f 167//167 169//169 166//166
f 226//226 225//225 224//224
f 256//256 257//257 274//274
f 256//256 181//181 257//257
f 255//255 181//181 256//256
f 272//272 255//255 256//256
f 256//256 273//273 272//272
f 274//274 273//273 256//256
f 180//180 181//181 145//145
f 145//145 144//144 180//180
f 145//145 181//181 179//179
f 179//179 144//144 145//145
f 235//235 208//208 236//236
f 200//200 199//199 130//130
f 195//195 137//137 136//136
f 353//353 86//86 320//320
f 320//320 83//83 353//353
f 353//353 83//83 85//85
f 85//85 83//83 82//82
f 82//82 83//83 352//352
f 352//352 84//84 82//82
f 213//213 214//214 101//101
f 315//315 320//320 318//318
f 318//318 314//314 315//315
f 342//342 346//346 36//36
f 311//311 346//346 307//307
f 307//307 342//342 309//309
f 346//346 342//342 307//307
f 227//227 215//215 228//228
f 228//228 165//165 227//227
f 214//214 215//215 99//99
f 85//85 82//82 99//99
f 91//91 96//96 94//94
f 94//94 96//96 217//217
f 217//217 218//218 94//94
f 98//98 99//99 215//215
f 85//85 99//99 98//98
f 216//216 96//96 97//97
f 96//96 89//89 97//97
f 97//97 215//215 216//216
f 97//97 98//98 215//215
f 165//165 126//126 125//125
f 125//125 124//124 166//166
f 166//166 165//165 125//125
f 128//128 125//125 126//126
f 126//126 127//127 128//128
f 163//163 159//159 128//128
f 354//354 90//90 318//318
f 318//318 88//88 354//354
f 354//354 89//89 90//90
f 354//354 88//88 89//89
f 333//333 332//332 303//303
f 303//303 332//332 302//302
f 303//303 335//335 333//333
f 303//303 304//304 335//335
f 301//301 331//331 330//330
f 330//330 300//300 301//301
f 302//302 331//331 301//301
f 350//350 327//327 351//351
f 350//350 77//77 349//349
f 350//350 351//351 75//75
f 75//75 77//77 350//350
f 349//349 77//77 323//323
f 323//323 350//350 349//349
f 327//327 350//350 323//323
f 348//348 80//80 321//321
f 321//321 323//323 348//348
f 348//348 323//323 77//77
f 348//348 77//77 76//76
f 210//210 108//108 209//209
f 112//112 63//63 113//113
f 23//23 118//118 115//115
f 13//13 22//22 21//21
f 21//21 11//11 13//13
f 13//13 14//14 23//23
f 23//23 22//22 13//13
f 4//4 6//6 32//32
f 4//4 31//31 5//5
f 4//4 32//32 31//31
f 36//36 35//35 7//7
f 7//7 10//10 36//36
f 35//35 8//8 7//7
f 259//259 252//252 260//260
f 260//260 252//252 277//277
f 264//264 269//269 266//266
f 266//266 262//262 264//264
f 173//173 176//176 177//177
f 176//176 178//178 177//177
f 177//177 178//178 172//172
f 121//121 167//167 124//124
f 122//122 167//167 121//121
f 121//121 151//151 122//122
f 124//124 125//125 121//121
f 125//125 128//128 121//121
f 174//174 175//175 149//149
f 149//149 175//175 150//150
f 150//150 151//151 149//149
f 175//175 151//151 150//150
f 123//123 128//128 180//180
f 151//151 121//121 123//123
f 123//123 121//121 128//128
f 171//171 151//151 175//175
f 173//173 177//177 171//171
f 171//171 177//177 172//172
f 171//171 174//174 173//173
f 175//175 174//174 171//171
f 219//219 218//218 217//217
f 241//241 226//226 224//224
f 166//166 169//169 241//241
f 241//241 224//224 166//166
f 288//288 291//291 185//185
f 185//185 142//142 143//143
f 111//111 66//66 112//112
f 111//111 68//68 66//66
f 197//197 236//236 238//238
f 240//240 247//247 238//238
f 207//207 236//236 208//208
f 207//207 111//111 112//112
f 208//208 111//111 207//207
f 112//112 113//113 207//207
f 235//235 236//236 198//198
f 198//198 199//199 235//235
f 198//198 236//236 197//197
f 131//131 199//199 198//198
f 129//129 159//159 152//152
f 129//129 128//128 159//159
f 129//129 132//132 180//180
f 180//180 128//128 129//129
f 129//129 199//199 131//131
f 129//129 130//130 199//199
f 197//197 238//238 250//250
f 137//137 195//195 193//193
f 249//249 247//247 240//240
f 213//213 103//103 212//212
f 102//102 103//103 213//213
f 213//213 101//101 102//102
f 100//100 101//101 214//214
f 214//214 99//99 100//100
f 100//100 99//99 82//82
f 100//100 82//82 84//84
f 84//84 101//101 100//100
f 321//321 320//320 299//299
f 320//320 315//315 299//299
f 339//339 337//337 308//308
f 163//163 230//230 160//160
f 160//160 159//159 163//163
f 152//152 159//159 157//157
f 165//165 228//228 164//164
f 163//163 128//128 164//164
f 164//164 128//128 127//127
f 164//164 126//126 165//165
f 164//164 127//127 126//126
f 229//229 230//230 163//163
f 163//163 164//164 229//229
f 229//229 164//164 228//228
f 229//229 214//214 213//213
f 213//213 230//230 229//229
f 229//229 215//215 214//214
f 229//229 228//228 215//215
f 46//46 94//94 95//95
f 95//95 94//94 218//218
f 93//93 356//356 91//91
f 91//91 94//94 93//93
f 42//42 356//356 93//93
f 93//93 355//355 42//42
f 45//45 355//355 93//93
f 46//46 45//45 93//93
f 93//93 94//94 46//46
f 85//85 98//98 87//87
f 87//87 353//353 85//85
f 86//86 353//353 87//87
f 87//87 88//88 86//86
f 89//89 88//88 87//87
f 87//87 97//97 89//89
f 98//98 97//97 87//87
f 328//328 298//298 297//297
f 297//297 327//327 328//328
f 327//327 323//323 324//324
f 79//79 84//84 80//80
f 79//79 101//101 84//84
f 79//79 102//102 101//101
f 76//76 103//103 81//81
f 81//81 348//348 76//76
f 103//103 102//102 81//81
f 102//102 79//79 81//81
f 80//80 348//348 81//81
f 81//81 79//79 80//80
f 234//234 208//208 235//235
f 234//234 209//209 208//208
f 234//234 200//200 233//233
f 233//233 210//210 234//234
f 210//210 209//209 234//234
f 234//234 199//199 200//200
f 235//235 199//199 234//234
f 208//208 209//209 110//110
f 68//68 111//111 110//110
f 110//110 111//111 208//208
f 73//73 68//68 110//110
f 61//61 113//113 63//63
f 64//64 62//62 61//61
f 61//61 63//63 64//64
f 60//60 114//114 61//61
f 114//114 113//113 61//61
f 237//237 205//205 239//239
f 239//239 249//249 237//237
f 237//237 249//249 240//240
f 116//116 118//118 239//239
f 19//19 9//9 12//12
f 12//12 20//20 19//19
f 12//12 11//11 20//20
f 267//267 269//269 261//261
f 261//261 277//277 267//267
f 261//261 260//260 277//277
f 225//225 226//226 222//222
f 32//32 43//43 51//51
f 51//51 43//43 262//262
f 50//50 31//31 51//51
f 31//31 32//32 51//51
f 51//51 266//266 50//50
f 51//51 262//262 266//266
f 39//39 43//43 32//32
f 147//147 123//123 180//180
f 147//147 144//144 148//148
f 180//180 144//144 147//147
f 151//151 123//123 147//147
f 149//149 151//151 147//147
f 147//147 174//174 149//149
f 148//148 173//173 147//147
f 173//173 174//174 147//147
f 122//122 151//151 168//168
f 151//151 171//171 168//168
f 168//168 167//167 122//122
f 169//169 167//167 168//168
f 168//168 241//241 169//169
f 226//226 241//241 168//168
f 168//168 222//222 226//226
f 182//182 180//180 146//146
f 183//183 182//182 146//146
f 143//143 142//142 141//141
f 142//142 146//146 141//141
f 180//180 132//132 141//141
f 141//141 146//146 180//180
f 288//288 185//185 186//186
f 278//278 120//120 283//283
f 119//119 120//120 278//278
f 131//131 198//198 133//133
f 133//133 129//129 131//131
f 134//134 129//129 133//133
f 197//197 134//134 133//133
f 133//133 198//198 197//197
f 155//155 129//129 152//152
f 130//130 129//129 155//155
f 155//155 201//201 200//200
f 200//200 130//130 155//155
f 196//196 134//134 197//197
f 196//196 135//135 134//134
f 196//196 195//195 136//136
f 136//136 135//135 196//196
f 137//137 193//193 194//194
f 195//195 250//250 248//248
f 248//248 249//249 195//195
f 247//247 249//249 248//248
f 248//248 238//238 247//247
f 248//248 250//250 238//238
f 232//232 210//210 233//233
f 232//232 211//211 210//210
f 231//231 230//230 213//213
f 213//213 212//212 231//231
f 231//231 212//212 211//211
f 211//211 232//232 231//231
f 105//105 211//211 104//104
f 211//211 212//212 104//104
f 104//104 76//76 105//105
f 104//104 103//103 76//76
f 104//104 212//212 103//103
f 321//321 299//299 296//296
f 298//298 322//322 296//296
f 296//296 323//323 321//321
f 296//296 322//322 323//323
f 19//19 337//337 17//17
f 17//17 9//9 19//19
f 337//337 339//339 17//17
f 16//16 9//9 17//17
f 38//38 342//342 36//36
f 36//36 10//10 38//38
f 38//38 10//10 16//16
f 16//16 37//37 38//38
f 338//338 339//339 308//308
f 309//309 342//342 343//343
f 342//342 38//38 343//343
f 37//37 339//339 343//343
f 343//343 38//38 37//37
f 159//159 160//160 158//158
f 298//298 328//328 329//329
f 329//329 324//324 298//298
f 329//329 328//328 327//327
f 327//327 324//324 329//329
f 323//323 322//322 325//325
f 325//325 324//324 323//323
f 325//325 322//322 298//298
f 298//298 324//324 325//325
f 73//73 110//110 109//109
f 109//109 110//110 209//209
f 109//109 209//209 108//108
f 109//109 72//72 73//73
f 109//109 108//108 72//72
f 362//362 61//61 62//62
f 60//60 61//61 362//362
f 62//62 332//332 362//362
f 332//332 60//60 362//362
f 203//203 207//207 113//113
f 203//203 113//113 114//114
f 240//240 238//238 203//203
f 203//203 237//237 240//240
f 203//203 238//238 236//236
f 236//236 207//207 203//203
f 114//114 205//205 203//203
f 205//205 237//237 203//203
f 239//239 205//205 117//117
f 117//117 116//116 239//239
f 269//269 264//264 263//263
f 263//263 261//261 269//269
f 263//263 264//264 262//262
f 225//225 222//222 223//223
f 223//223 222//222 219//219
f 223//223 219//219 217//217
f 217//217 224//224 223//223
f 224//224 225//225 223//223
f 218//218 219//219 220//220
f 219//219 222//222 220//220
f 262//262 43//43 220//220
f 170//170 171//171 172//172
f 170//170 168//168 171//171
f 170//170 172//172 259//259
f 259//259 260//260 170//170
f 222//222 168//168 170//170
f 142//142 185//185 184//184
f 184//184 146//146 142//142
f 183//183 146//146 184//184
f 184//184 257//257 183//183
f 275//275 257//257 184//184
f 184//184 291//291 275//275
f 184//184 185//185 291//291
f 143//143 141//141 140//140
f 140//140 185//185 143//143
f 140//140 186//186 185//185
f 140//140 141//141 190//190
f 190//190 186//186 140//140
f 282//282 278//278 283//283
f 251//251 250//250 195//195
f 195//195 196//196 251//251
f 197//197 250//250 251//251
f 251//251 196//196 197//197
f 137//137 194//194 138//138
f 138//138 194//194 139//139
f 139//139 141//141 138//138
f 134//134 135//135 138//138
f 138//138 141//141 132//132
f 136//136 137//137 138//138
f 138//138 135//135 136//136
f 132//132 129//129 138//138
f 138//138 129//129 134//134
f 189//189 141//141 139//139
f 139//139 194//194 189//189
f 190//190 141//141 189//189
f 189//189 193//193 190//190
f 189//189 194//194 193//193
f 286//286 289//289 294//294
f 294//294 289//289 295//295
f 201//201 246//246 245//245
f 233//233 201//201 245//245
f 245//245 232//232 233//233
f 245//245 246//246 161//161
f 243//243 160//160 230//230
f 230//230 231//231 243//243
f 161//161 160//160 243//243
f 243//243 245//245 161//161
f 18//18 37//37 16//16
f 16//16 17//17 18//18
f 18//18 339//339 37//37
f 18//18 17//17 339//339
f 310//310 338//338 308//308
f 162//162 160//160 161//161
f 162//162 158//158 160//160
f 161//161 246//246 162//162
f 156//156 157//157 159//159
f 159//159 158//158 156//156
f 156//156 158//158 157//157
f 157//157 158//158 154//154
f 158//158 162//162 154//154
f 154//154 155//155 152//152
f 201//201 155//155 154//154
f 221//221 95//95 218//218
f 218//218 265//265 221//221
f 46//46 95//95 221//221
f 48//48 44//44 46//46
f 41//41 44//44 48//48
f 46//46 221//221 48//48
f 48//48 221//221 265//265
f 204//204 205//205 114//114
f 365//365 22//22 58//58
f 58//58 22//22 23//23
f 23//23 115//115 58//58
f 58//58 115//115 118//118
f 118//118 116//116 58//58
f 47//47 265//265 218//218
f 218//218 220//220 47//47
f 47//47 220//220 43//43
f 47//47 48//48 265//265
f 43//43 39//39 47//47
f 41//41 48//48 47//47
f 33//33 357//357 47//47
f 47//47 357//357 41//41
f 47//47 32//32 33//33
f 47//47 39//39 32//32
f 258//258 170//170 260//260
f 222//222 170//170 258//258
f 260//260 261//261 258//258
f 258//258 263//263 262//262
f 261//261 263//263 258//258
f 262//262 220//220 258//258
f 258//258 220//220 222//222
f 188//188 289//289 186//186
f 295//295 289//289 188//188
f 188//188 192//192 295//295
f 288//288 186//186 285//285
f 186//186 289//289 285//285
f 285//285 289//289 286//286
f 286//286 284//284 285//285
f 283//283 287//287 285//285
f 285//285 287//287 288//288
f 285//285 282//282 283//283
f 284//284 282//282 285//285
f 281//281 284//284 286//286
f 286//286 294//294 281//281
f 281//281 282//282 284//284
f 191//191 294//294 295//295
f 295//295 192//192 191//191
f 195//195 249//249 191//191
f 191//191 193//193 195//195
f 191//191 192//192 193//193
f 232//232 245//245 244//244
f 244//244 231//231 232//232
f 344//344 310//310 309//309
f 309//309 343//343 344//344
f 340//340 343//343 339//339
f 152//152 157//157 153//153
f 153//153 154//154 152//152
f 157//157 154//154 153//153
f 202//202 162//162 246//246
f 202//202 154//154 162//162
f 202//202 246//246 201//201
f 201//201 154//154 202//202
f 206//206 117//117 205//205
f 205//205 204//204 206//206
f 56//56 114//114 363//363
f 56//56 363//363 53//53
f 187//187 186//186 190//190
f 187//187 188//188 186//186
f 190//190 193//193 187//187
f 193//193 192//192 187//187
f 192//192 188//188 187//187
f 278//278 282//282 279//279
f 239//239 118//118 292//292
f 278//278 279//279 292//292
f 292//292 118//118 119//119
f 119//119 278//278 292//292
f 245//245 243//243 242//242
f 242//242 244//244 245//245
f 242//242 243//243 231//231
f 231//231 244//244 242//242
f 338//338 310//310 341//341
f 310//310 340//340 341//341
f 339//339 338//338 341//341
f 341//341 340//340 339//339
f 310//310 344//344 345//345
f 345//345 340//340 310//310
f 345//345 344//344 343//343
f 343//343 340//340 345//345
f 57//57 204//204 114//114
f 114//114 56//56 57//57
f 57//57 206//206 204//204
f 282//282 281//281 280//280
f 280//280 279//279 282//282
f 280//280 292//292 279//279
f 293//293 249//249 239//239
f 239//239 292//292 293//293
f 293//293 281//281 294//294
f 293//293 280//280 281//281
f 292//292 280//280 293//293
f 293//293 191//191 249//249
f 294//294 191//191 293//293
f 117//117 206//206 59//59
f 206//206 57//57 59//59
f 116//116 117//117 59//59
f 59//59 58//58 116//116
f 52//52 57//57 56//56
f 52//52 59//59 57//57
f 52//52 56//56 53//53
f 58//58 59//59 54//54
f 59//59 52//52 54//54
f 365//365 58//58 54//54
f 54//54 55//55 365//365
f 54//54 53//53 55//55
f 54//54 52//52 53//53
f 40//40 357//357 316//316
f 12//12 9//9 16//16
f 12//12 3//3 1//1
f 12//12 1//1 14//14
f 5//5 2//2 12//12
f 15//15 3//3 12//12
f 12//12 2//2 15//15
f 14//14 13//13 12//12
f 16//16 10//10 12//12
f 8//8 6//6 12//12
f 12//12 4//4 5//5
f 12//12 7//7 8//8
f 12//12 13//13 11//11
f 6//6 4//4 12//12
f 10//10 7//7 12//12
f 298//298 296//296 310//310
f 311//311 307//307 310//310
f 310//310 303//303 302//302
f 302//302 301//301 310//310
f 310//310 314//314 313//313
f 310//310 312//312 311//311
f 313//313 312//312 310//310
f 308//308 306//306 310//310
f 305//305 304//304 310//310
f 310//310 300//300 297//297
f 310//310 306//306 305//305
f 310//310 315//315 314//314
f 310//310 307//307 309//309
f 304//304 303//303 310//310
f 310//310 301//301 300//300
f 297//297 298//298 310//310
f 310//310 299//299 315//315
f 310//310 296//296 299//299

