# https://github.com/mikedh/trimesh
v -14.55656815 -24.00000000 -73.00000000
v -14.05656815 -23.50000000 -83.50000000
v -14.55656815 -24.00000000 -83.00000000
v -14.55656815 24.00000000 -73.00000000
v -14.05656815 23.50000000 -83.50000000
v -14.55656815 24.00000000 -83.00000000
v 25.94343185 23.50000000 -83.50000000
v 26.44343185 24.00000000 -83.00000000
v 26.44343185 -24.00000000 -83.00000000
v 25.94343185 -23.50000000 -83.50000000
v 51.44343185 15.44037819 8.23678970
v 51.44343185 10.56909943 13.94790840
v 51.44343185 3.75322580 17.09278488
v 51.44343185 -3.75321698 17.09278679
v 51.44343185 -10.56909275 13.94791317
v 51.44343185 -15.44037533 8.23679638
v 53.44343185 -17.47079468 1.01061141
v 53.44343185 -15.44037533 8.23679638
v 53.44343185 -10.56909275 13.94791317
v 53.44343185 -3.75321698 17.09278679
v 53.44343185 3.75322580 17.09278488
v 53.44343185 10.56909943 13.94790840
v 53.44343185 15.44037819 8.23678970
v 53.44343185 17.47079468 1.01061141
v -39.55656815 9.02023888 14.86777687
v -39.55656815 9.82342625 14.48275852
v -39.55656815 15.21904087 8.63891125
v -39.55656815 12.85753918 11.87154961
v -39.55656815 16.78409767 4.95419455
v -39.55656815 -15.21904087 8.63891125
v -39.55656815 -16.78409767 4.95419407
v -39.55656815 -9.82342625 14.48275852
v -39.55656815 -12.85753918 11.87154865
v -39.55656815 -9.02023888 14.86777687
v -42.05656815 -16.97162819 0.98173684
v -42.05656815 -8.13941002 14.50000000
v -42.05656815 -8.87340450 14.38972855
v -42.05656815 -9.54275703 14.06896591
v -41.55656815 -8.13941002 15.00000000
v -41.55656815 -9.02023888 14.86777687
v -42.05656815 -14.78421307 8.39208126
v -41.55656815 -9.82342625 14.48275852
v -41.55656815 -15.21904087 8.63891125
v -41.55656815 -12.85753918 11.87154865
v -41.55656815 -17.47079468 1.01061141
v -41.55656815 -16.78409767 4.95419407
v -42.05656815 -20.50000000 -71.50000000
v -41.55656815 -21.00000000 -71.00000000
v -41.55656815 -21.00000000 -60.00000000
v -42.05656815 20.50000000 -71.50000000
v -41.55656815 -20.00000000 -72.00000000
v -41.55656815 21.00000000 -71.00000000
v -41.55656815 20.00000000 -72.00000000
v -42.05656815 16.97162819 0.98173684
v -41.55656815 21.00000000 -60.00000000
v -42.05656815 14.78421307 8.39208221
v -41.55656815 17.47079468 1.01061141
v -42.05656815 9.54275703 14.06896591
v -41.55656815 15.21904087 8.63891125
v -41.55656815 16.78409767 4.95419455
v -42.05656815 8.87340450 14.38972855
v -41.55656815 9.82342625 14.48275852
v -41.55656815 12.85753918 11.87154961
v -42.05656815 8.13941002 14.50000000
v -41.55656815 9.02023888 14.86777687
v -41.55656815 8.13941002 15.00000000
v -44.90657043 -20.75000000 -63.00000000
v -44.90657043 -19.94454384 -64.94454193
v -45.05656815 -19.24497795 -65.15660858
v -45.05656815 -19.24497795 -60.84339523
v -45.05656815 -20.49019241 -63.00000000
v -44.90657043 -12.00000000 -71.75000000
v -44.90657043 -13.94454384 -70.94454193
v -45.05656815 -13.24497890 -71.15660858
v -44.90657043 12.00000000 -71.75000000
v -44.90657043 13.94454384 -70.94454193
v -45.05656815 13.24497890 -71.15660858
v -44.90657043 19.94454384 -64.94454193
v -44.90657043 20.75000000 -63.00000000
v -45.05656815 20.49019241 -63.00000000
v -45.05656815 19.24497795 -60.84339523
v -45.05656815 19.24497795 -65.15660858
v 94.44487762 24.00000000 -50.32353210
v 128.48411560 -22.36160469 -53.09882355
v 128.48410034 22.36161423 -53.09882355
v 124.20722198 24.00000000 -53.18931961
v 131.58287048 -19.24850845 -53.39720154
v 131.58285522 19.24852371 -53.39720154
v 128.68623352 22.79438591 -53.62059784
v 132.71601868 -15.00000000 -53.50630951
v 132.71601868 15.00000000 -53.50630951
v 131.96571350 19.49973869 -53.93637848
v 133.16578674 15.00000000 -54.05193329
v 133.16578674 -15.00000000 -54.05193329
v 131.96572876 -19.49972534 -53.93637848
v 128.68624878 -22.79438019 -53.62060165
v 124.20722198 -24.00000000 -53.18931961
v 94.44487762 -24.00000000 -50.32353210
v 121.66731262 -23.50000000 -79.56732178
v 125.89627838 -22.36160660 -79.97452545
v 121.71523285 -24.00000000 -79.06961823
v 128.99504089 -19.24850845 -80.27289581
v 126.19425964 -22.79438019 -79.50090027
v 130.12817383 -15.00000000 -80.38201141
v 129.47373962 -19.49972725 -79.81668091
v 130.12817383 15.00000000 -80.38201141
v 130.67379761 -15.00000000 -79.93223572
v 128.99502563 19.24852180 -80.27289581
v 130.67379761 15.00000000 -79.93223572
v 125.89626312 22.36161423 -79.97451782
v 129.47372437 19.49973869 -79.81668091
v 121.66731262 23.50000000 -79.56732178
v 126.19424438 22.79438591 -79.50090027
v 121.71523285 24.00000000 -79.06961823
vn -0.04891642 -0.99835305 0.02997282
vn -0.15322557 -0.34601144 -0.92563384
vn -0.20179014 -0.84396376 -0.49699690
vn -0.04891642 0.99835305 0.02997282
vn -0.15322557 0.34601144 -0.92563384
vn -0.20179014 0.84396376 -0.49699690
vn 0.01293698 0.37967989 -0.92502747
vn 0.01136829 0.91917917 -0.39367552
vn 0.01136829 -0.91917917 -0.39367552
vn 0.01293698 -0.37967989 -0.92502747
vn -0.00000343 0.90224308 0.43122781
vn -0.00000598 0.62843188 0.77786463
vn -0.00593889 0.19502294 0.98078070
vn -0.00593889 -0.19502255 0.98078078
vn -0.00000598 -0.62843185 0.77786465
vn -0.00000343 -0.90224275 0.43122851
vn 0.04331460 -0.97603043 0.21328020
vn 0.17096721 -0.85019610 0.49793253
vn 0.27616177 -0.55902887 0.78180650
vn 0.32967150 -0.18966268 0.92484851
vn 0.32967149 0.18966312 0.92484843
vn 0.27616170 0.55902926 0.78180624
vn 0.17096708 0.85019630 0.49793222
vn 0.04331456 0.97603045 0.21328013
vn 0.00045059 0.41106812 0.91160452
vn 0.00043437 0.50927245 0.86060524
vn 0.00015801 0.84343963 0.53722394
vn 0.00020782 0.74361714 0.66860564
vn 0.00005633 0.96092555 0.27680695
vn 0.00015801 -0.84343918 0.53722465
vn 0.00005633 -0.96092555 0.27680695
vn 0.00043436 -0.50927246 0.86060524
vn 0.00020782 -0.74361707 0.66860572
vn 0.00045059 -0.41106798 0.91160458
vn -0.87714665 -0.47303082 0.08279850
vn -0.90927859 -0.03182112 0.41496971
vn -0.90266610 -0.12562078 0.41159851
vn -0.90295046 -0.23633228 0.35892551
vn -0.38453511 -0.06907951 0.92052201
vn -0.37391104 -0.27489931 0.88578829
vn -0.90015445 -0.37633540 0.21930263
vn -0.37197711 -0.50793963 0.77693652
vn -0.37328382 -0.80675433 0.45804655
vn -0.48587461 -0.64227815 0.59279393
vn -0.37881864 -0.91741037 0.12187961
vn -0.48579244 -0.83834209 0.24736258
vn -0.61520816 -0.56172817 -0.55315493
vn -0.33054137 -0.91329583 -0.23797715
vn -0.10303782 -0.99353257 0.04770989
vn -0.61520816 0.56172817 -0.55315493
vn -0.45471476 -0.26970988 -0.84881745
vn -0.33054137 0.91329583 -0.23797715
vn -0.45471476 0.26970988 -0.84881745
vn -0.87714665 0.47303083 0.08279850
vn -0.10303782 0.99353257 0.04770989
vn -0.90015435 0.37633556 0.21930275
vn -0.37881865 0.91741038 0.12187960
vn -0.90295047 0.23633224 0.35892552
vn -0.37328362 0.80675443 0.45804653
vn -0.48579243 0.83834209 0.24736258
vn -0.90266610 0.12562078 0.41159851
vn -0.37197712 0.50793956 0.77693657
vn -0.48587463 0.64227812 0.59279394
vn -0.90927859 0.03182112 0.41496971
vn -0.37391104 0.27489931 0.88578830
vn -0.38453511 0.06907952 0.92052201
vn -0.57081710 -0.81998826 -0.04227400
vn -0.86583808 -0.43825582 -0.24136335
vn -0.97880473 -0.15128578 -0.13803591
vn -0.99887346 -0.03646737 0.03036366
vn -0.95399378 -0.29652478 -0.04437247
vn -0.73944587 -0.05181025 -0.67121941
vn -0.87396393 -0.30945929 -0.37472924
vn -0.91590806 -0.15262744 -0.37123751
vn -0.73944587 0.05181025 -0.67121941
vn -0.87396393 0.30945929 -0.37472924
vn -0.91590806 0.15262744 -0.37123751
vn -0.86583808 0.43825582 -0.24136335
vn -0.57081710 0.81998826 -0.04227400
vn -0.95399378 0.29652478 -0.04437247
vn -0.99887346 0.03646736 0.03036366
vn -0.97880473 0.15128578 -0.13803591
vn 0.00335854 0.99760549 0.06907977
vn 0.53572851 -0.51842276 0.66650792
vn 0.53572840 0.51842268 0.66650807
vn 0.18063838 0.96595185 0.18522095
vn 0.65090679 -0.32288067 0.68707236
vn 0.65090645 0.32288222 0.68707195
vn 0.52757839 0.80120056 0.28238043
vn 0.71828529 -0.08862119 0.69008154
vn 0.71828522 0.08862215 0.69008149
vn 0.83818372 0.46612101 0.28315942
vn 0.95258998 0.11862869 0.28017774
vn 0.95259009 -0.11862757 0.28017783
vn 0.83818436 -0.46611962 0.28315979
vn 0.52757881 -0.80120040 0.28238008
vn 0.18063867 -0.96595175 0.18522118
vn 0.00335854 -0.99760549 0.06907977
vn 0.05833776 -0.59523192 -0.80143351
vn 0.18434699 -0.43715069 -0.88029283
vn 0.10831801 -0.92431770 -0.36592896
vn 0.33927712 -0.23951203 -0.90968402
vn 0.42926073 -0.80718625 -0.40519821
vn 0.37308722 -0.06298022 -0.92565621
vn 0.76875500 -0.46611966 -0.43789064
vn 0.37308741 0.06298076 -0.92565610
vn 0.88162518 -0.11862740 -0.45679818
vn 0.33927669 0.23951363 -0.90968376
vn 0.88162512 0.11862847 -0.45679802
vn 0.18434522 0.43714926 -0.88029391
vn 0.76875425 0.46612108 -0.43789044
vn 0.05833764 0.59523066 -0.80143445
vn 0.42925973 0.80718553 -0.40520069
vn 0.10831781 0.92431773 -0.36592894
f 4//4 79//79 55//55
f 4//4 55//55 57//57
f 57//57 55//55 79//79
f 54//54 57//57 79//79
f 4//4 57//57 83//83
f 83//83 57//57 24//24
f 24//24 86//86 83//83
f 23//23 86//86 24//24
f 22//22 89//89 23//23
f 23//23 89//89 86//86
f 93//93 92//92 91//91
f 22//22 21//21 88//88
f 88//88 91//91 92//92
f 21//21 91//91 88//88
f 3//3 1//1 67//67
f 35//35 45//45 46//46
f 67//67 45//45 35//35
f 107//107 105//105 104//104
f 110//110 111//111 108//108
f 113//113 111//111 110//110
f 86//86 89//89 113//113
f 28//28 23//23 27//27
f 22//22 23//23 28//28
f 6//6 79//79 4//4
f 6//6 52//52 79//79
f 110//110 108//108 7//7
f 90//90 91//91 20//20
f 20//20 91//91 21//21
f 18//18 19//19 33//33
f 39//39 40//40 14//14
f 57//57 54//54 60//60
f 63//63 59//59 56//56
f 56//56 60//60 54//54
f 59//59 60//60 56//56
f 92//92 89//89 85//85
f 85//85 88//88 92//92
f 85//85 89//89 22//22
f 22//22 88//88 85//85
f 67//67 1//1 49//49
f 49//49 45//45 67//67
f 1//1 45//45 49//49
f 17//17 97//97 18//18
f 18//18 31//31 17//17
f 67//67 47//47 48//48
f 48//48 3//3 67//67
f 47//47 3//3 48//48
f 51//51 72//72 2//2
f 47//47 72//72 51//51
f 74//74 72//72 47//47
f 94//94 105//105 107//107
f 100//100 105//105 103//103
f 100//100 10//10 102//102
f 10//10 104//104 102//102
f 102//102 105//105 100//100
f 102//102 104//104 105//105
f 106//106 111//111 109//109
f 106//106 108//108 111//111
f 106//106 7//7 108//108
f 86//86 113//113 114//114
f 5//5 75//75 53//53
f 19//19 20//20 34//34
f 34//34 32//32 19//19
f 16//16 43//43 46//46
f 18//18 33//33 30//30
f 99//99 9//9 10//10
f 99//99 101//101 9//9
f 99//99 10//10 100//100
f 100//100 103//103 99//99
f 99//99 103//103 101//101
f 81//81 56//56 80//80
f 80//80 54//54 79//79
f 80//80 56//56 54//54
f 82//82 80//80 78//78
f 78//78 80//80 79//79
f 66//66 65//65 64//64
f 62//62 12//12 63//63
f 25//25 21//21 22//22
f 22//22 26//26 25//25
f 11//11 60//60 59//59
f 29//29 23//23 24//24
f 63//63 56//56 58//58
f 58//58 62//62 63//63
f 58//58 56//56 81//81
f 65//65 62//62 58//58
f 98//98 17//17 45//45
f 97//97 17//17 98//98
f 98//98 45//45 1//1
f 36//36 70//70 37//37
f 36//36 37//37 40//40
f 40//40 39//39 36//36
f 41//41 35//35 46//46
f 46//46 43//43 41//41
f 41//41 43//43 44//44
f 15//15 42//42 44//44
f 77//77 78//78 76//76
f 82//82 78//78 77//77
f 96//96 103//103 105//105
f 96//96 19//19 18//18
f 18//18 97//97 96//96
f 112//112 113//113 110//110
f 112//112 114//114 113//113
f 110//110 7//7 112//112
f 112//112 7//7 8//8
f 8//8 114//114 112//112
f 52//52 6//6 50//50
f 76//76 78//78 50//50
f 50//50 77//77 76//76
f 79//79 52//52 50//50
f 50//50 78//78 79//79
f 75//75 77//77 50//50
f 50//50 53//53 75//75
f 65//65 66//66 13//13
f 13//13 66//66 14//14
f 81//81 64//64 61//61
f 61//61 58//58 81//81
f 64//64 65//65 61//61
f 65//65 58//58 61//61
f 37//37 70//70 38//38
f 70//70 41//41 38//38
f 38//38 41//41 44//44
f 44//44 42//42 38//38
f 38//38 42//42 40//40
f 40//40 37//37 38//38
f 71//71 41//41 70//70
f 67//67 35//35 71//71
f 35//35 41//41 71//71
f 68//68 47//47 67//67
f 68//68 71//71 69//69
f 67//67 71//71 68//68
f 68//68 69//69 74//74
f 95//95 94//94 90//90
f 105//105 94//94 95//95
f 95//95 96//96 105//105
f 73//73 74//74 47//47
f 47//47 68//68 73//73
f 73//73 68//68 74//74
f 90//90 20//20 87//87
f 87//87 95//95 90//90
f 87//87 20//20 19//19
f 96//96 95//95 84//84
f 95//95 87//87 84//84
f 19//19 96//96 84//84
f 84//84 87//87 19//19
f 111//111 92//92 93//93
f 93//93 109//109 111//111
f 2//2 10//10 9//9
f 9//9 3//3 2//2
f 92//92 111//111 113//113
f 113//113 89//89 92//92
f 27//27 59//59 28//28
f 28//28 59//59 63//63
f 2//2 5//5 7//7
f 7//7 10//10 2//2
f 7//7 6//6 8//8
f 5//5 6//6 7//7
f 2//2 72//72 75//75
f 75//75 5//5 2//2
f 12//12 28//28 63//63
f 22//22 28//28 12//12
f 17//17 31//31 46//46
f 46//46 45//45 17//17
f 2//2 3//3 51//51
f 51//51 3//3 47//47
f 94//94 91//91 90//90
f 93//93 91//91 94//94
f 94//94 109//109 93//93
f 94//94 107//107 109//109
f 109//109 107//107 106//106
f 107//107 104//104 106//106
f 10//10 7//7 106//106
f 106//106 104//104 10//10
f 114//114 83//83 86//86
f 4//4 83//83 114//114
f 114//114 6//6 4//4
f 8//8 6//6 114//114
f 34//34 20//20 14//14
f 14//14 40//40 34//34
f 40//40 42//42 34//34
f 34//34 42//42 32//32
f 46//46 31//31 16//16
f 16//16 31//31 18//18
f 30//30 16//16 18//18
f 43//43 16//16 30//30
f 44//44 43//43 30//30
f 30//30 33//33 44//44
f 66//66 39//39 14//14
f 22//22 12//12 62//62
f 62//62 26//26 22//22
f 26//26 62//62 25//25
f 25//25 62//62 65//65
f 11//11 59//59 27//27
f 27//27 23//23 11//11
f 57//57 60//60 29//29
f 24//24 57//57 29//29
f 29//29 11//11 23//23
f 60//60 11//11 29//29
f 98//98 101//101 97//97
f 9//9 101//101 98//98
f 1//1 3//3 98//98
f 3//3 9//9 98//98
f 81//81 70//70 36//36
f 36//36 64//64 81//81
f 39//39 66//66 36//36
f 36//36 66//66 64//64
f 44//44 33//33 15//15
f 15//15 33//33 19//19
f 32//32 42//42 15//15
f 19//19 32//32 15//15
f 77//77 75//75 72//72
f 72//72 74//74 77//77
f 97//97 101//101 96//96
f 101//101 103//103 96//96
f 50//50 6//6 5//5
f 5//5 53//53 50//50
f 13//13 25//25 65//65
f 21//21 25//25 13//13
f 14//14 20//20 13//13
f 13//13 20//20 21//21
f 71//71 77//77 74//74
f 81//81 80//80 71//71
f 82//82 77//77 71//71
f 71//71 70//70 81//81
f 71//71 80//80 82//82
f 74//74 69//69 71//71

