# https://github.com/mikedh/trimesh
v 17.22141075 -15.48546886 -45.59999847
v -7.74904442 -21.89050293 -45.59999847
v 9.98230171 -20.91856575 -45.59999847
v -20.97182465 -10.04215145 -45.59999847
v -15.53862476 -17.28119850 -45.59999847
v -23.22170830 -1.27288997 -45.59999847
v -17.33437920 15.47927666 -45.59999847
v -21.94379234 7.68974638 -45.59999847
v 7.63607693 21.88431168 -45.59999847
v -10.09526920 20.91237450 -45.59999847
v 20.85885620 10.03595924 -45.59999847
v 15.42565727 17.27500725 -45.59999847
v 23.10873985 1.26669765 -45.59999847
v 21.83082581 -7.69593859 -45.59999847
v 1.21330810 -23.16832161 -45.59999847
v -1.32627559 23.16212845 -45.59999847
v 35.94898224 -10.48351383 -51.09999847
v 37.42872238 1.05013812 -51.09999847
v 31.00302124 -21.01617622 -51.09999847
v 23.06997299 -29.52273941 -51.09999847
v 12.90754318 -35.19068909 -51.09999847
v 1.49954915 -37.47079849 -51.09999847
v -10.05824661 -36.14445114 -51.09999847
v -20.65571594 -31.33860207 -51.09999847
v -29.26684761 -23.51898384 -51.09999847
v -37.50027466 -2.05556130 -51.09999847
v -35.06911850 -13.43247509 -51.09999847
v -36.06195068 10.47732162 -51.09999847
v -37.54169083 -1.05633044 -51.09999847
v -31.11598778 21.00998497 -51.09999847
v -23.18293953 29.51654816 -51.09999847
v -13.02051067 35.18449783 -51.09999847
v -1.61251664 37.46460724 -51.09999847
v 9.94527912 36.13825989 -51.09999847
v 20.54274940 31.33241081 -51.09999847
v 29.15388107 23.51279068 -51.09999847
v 37.38730621 2.04936910 -51.09999847
v 34.95615005 13.42628288 -51.09999847
v 36.73504639 43.62854004 -95.34442902
v 38.44351578 20.74690437 -104.10005951
v 37.72301865 42.55010223 -104.10004425
v 38.00341797 18.07079506 -109.90458679
v 36.55967712 44.43160629 -95.49040222
v 37.71869278 42.49763870 -104.52755737
v 37.70952225 42.44507217 -104.95500183
v 37.65024185 42.85760880 -105.00677490
v 37.29597092 43.89185715 -99.82807159
v 37.66481781 42.96264648 -104.15293121
v 38.40400314 21.55084801 -102.35629272
v 31.24915314 45.97396469 -83.11396790
v 34.24826813 45.29707718 -88.57749939
v -37.83166122 42.49763489 -104.52759552
v -38.55648041 20.74690437 -104.10005951
v -37.83598709 42.55010223 -104.10004425
v -38.51707840 21.54992867 -102.35828400
v -37.82249069 42.44507217 -104.95500183
v -37.76320648 42.85760880 -105.00677490
v -37.48276901 43.20302582 -98.77737427
v -37.77778625 42.96264648 -104.15293121
v -38.11638641 18.07079506 -109.90458679
v -36.25981140 41.23495102 -114.73633575
v -36.81459808 15.46827698 -115.54949188
v -33.06673431 40.29785538 -122.33571625
v -34.70410919 13.00762177 -120.88669586
v -31.86536789 10.74711895 -125.78976440
v -29.41294861 39.63117218 -127.74441528
v -28.39686966 8.73271465 -130.15904236
v -25.87321281 39.15935516 -131.54972839
v -24.40521049 6.99754524 -133.92265320
v -15.17218113 38.28338242 -138.60562134
v -15.27102852 4.44175196 -139.46621704
v -18.97466087 38.52053833 -136.68341064
v -22.54867554 38.81223297 -134.33082581
v -10.79395390 38.08501434 -140.20376587
v -5.22291756 3.15749788 -142.25178528
v 2.19871879 37.89705276 -141.70071411
v 5.10998058 3.15749979 -142.25178528
v -4.88407040 37.92779541 -141.45666504
v 12.89710999 38.17632675 -139.47100830
v 15.15807915 4.44175577 -139.46620178
v 8.29940891 38.00710678 -140.82768250
v 20.58859253 38.65233994 -135.61982727
v 24.29225159 6.99754858 -133.92265320
v 16.84269524 38.38610840 -137.77136230
v 24.07630348 38.97327805 -133.03901672
v 28.28390884 8.73271751 -130.15904236
v 27.86425781 39.42472076 -129.41471863
v 31.75240326 10.74712086 -125.78976440
v 31.94748497 40.08756638 -124.04006195
v 34.59114075 13.00762272 -120.88669586
v 35.69094467 41.05953979 -116.16503906
v 36.70163345 15.46827793 -115.54949188
v 37.05622482 41.69641495 -110.99874878
v 36.84110641 42.49971390 -111.06189728
v 37.50547409 43.24906540 -105.05351257
v 35.47154617 41.86418915 -116.19348907
v 31.73345184 40.89496613 -124.00997162
v 27.66643143 40.23385239 -129.34004211
v 23.89848518 39.78373718 -132.93202209
v 20.43295860 39.46398544 -135.48789978
v 16.71311760 39.19870758 -137.61776733
v 12.79587841 38.98980713 -139.30010986
v 8.23294640 38.82132721 -140.64274597
v 2.18073225 38.71175385 -141.50657654
v -4.84507656 38.74234009 -141.26516724
v -10.70929337 38.89889908 -140.02531433
v -15.05537891 39.09642410 -138.44351196
v -18.83070374 39.33263016 -136.54093933
v -22.38109589 39.62328339 -134.21142578
v -25.68588638 39.96922684 -131.45634460
v -29.20863724 40.43969345 -127.68408966
v -32.84938431 41.10470963 -122.31996155
v -36.04102325 42.03935242 -114.77481079
v -37.12534332 42.61859131 -110.10809326
v -36.58481979 43.76123428 -94.28321838
v -37.29599380 44.00563049 -98.90724182
v -37.63401413 43.35408401 -104.20272827
v -36.41319275 44.56426239 -94.43374634
v -33.78956604 45.44845581 -87.35327911
v -30.60643387 46.11077118 -82.01686096
v 25.48628426 50.61978912 -106.30323029
v 25.17820930 51.33429337 -102.25110626
v 25.02686119 49.79033279 -111.00730896
v 23.70622635 48.98309708 -115.58535767
v 21.60450554 48.24451447 -119.77403259
v 18.76251793 47.58557510 -123.51107025
v 15.28960800 47.02833939 -126.67129517
v -18.87194252 47.58489227 -123.51493835
v -15.40081692 47.02809906 -126.67264557
v -21.71531677 48.24390793 -119.77748871
v -23.81803513 48.98257065 -115.58834839
v -20.81561852 49.47820282 -112.77748871
v -25.13954735 49.79008484 -111.00870514
v -25.59925079 50.61978912 -106.30323029
v -25.29122925 51.33423233 -102.25143433
v -24.33721542 52.04021835 -98.24760437
v -22.78538895 52.70190811 -94.49499512
v -20.67115211 53.30911255 -91.05139160
v -14.95866585 54.31363297 -85.35448456
v -18.02840996 53.85286331 -87.96762848
v -7.88206816 54.94692612 -81.76290894
v -11.55477333 54.67996597 -83.27691650
v 11.44181061 54.67996597 -83.27692413
v 7.76867485 54.94694901 -81.76277161
v -3.99243760 55.11088562 -80.83305359
v 17.91646767 53.85268402 -87.96864319
v 14.84645271 54.31353760 -85.35503387
v 20.55870819 53.30898666 -91.05210114
v 22.67253685 52.70186996 -94.49521637
v 24.22429657 52.04019165 -98.24775696
v -7.13829136 46.29995728 -130.80213928
v -2.58786583 46.14463806 -131.68299866
v -3.31388617 45.88590622 -132.81968689
v -11.46604443 46.59788895 -129.11248779
v 7.02563477 46.29997635 -130.80204773
v 2.47490096 46.14463425 -131.68301392
v 3.20106554 45.88576889 -132.82006836
v 11.35330009 46.59790039 -129.11242676
v 10.06688499 45.29882431 -133.52436829
v 3.27112699 44.99472427 -135.18495178
v 3.44351625 45.46114731 -134.10005188
v 16.39869690 45.87413788 -130.26162720
v 21.73054886 46.69984818 -125.57879639
v 25.76745796 47.72231674 -119.78009796
v 28.28115845 48.88222504 -113.20197296
v 29.15921974 50.11176682 -106.22891235
v 29.30172920 50.79589844 -101.45191193
v 29.66732979 49.95799255 -106.20391083
v 28.18635559 51.61354828 -96.81479645
v 24.92141724 52.73346710 -92.45330048
v 26.35577583 52.38290405 -92.57335663
v 22.42427826 53.38480759 -89.10005188
v 22.60317421 53.28245926 -90.20471191
v 23.14173889 53.12178421 -91.22313690
v 18.31844902 54.10690689 -82.67432404
v 22.86802292 53.32702255 -87.39438629
v 22.95477676 53.30230331 -87.24747467
v 12.73797512 54.72031403 -79.19552612
v 3.87891984 55.11090088 -80.83296967
v 6.50829554 55.10218430 -77.02983856
v -0.05648375 55.16564178 -80.52250671
v -0.05648375 55.23285294 -76.28878021
v -6.62261152 55.10213089 -77.03014374
v -12.85350990 54.72009659 -79.19675446
v -18.43481064 54.10643387 -82.67700958
v -22.96592903 53.33117294 -87.42165375
v -23.06710052 53.30254364 -87.24850464
v -22.70865631 53.28533173 -90.18194580
v -22.53724670 53.38480759 -89.10005188
v -28.29917717 51.61362839 -96.81435394
v -26.46677399 52.38347626 -92.57360077
v -24.99359894 52.74230194 -92.44083405
v -23.22416878 53.12952805 -91.18250275
v -29.41465759 50.79594421 -101.45166016
v -29.27218819 50.11176682 -106.22891235
v -28.39415932 48.88224792 -113.20183563
v -25.88051605 47.72234726 -119.77993011
v -21.84368324 46.69987869 -125.57861328
v -16.51192284 45.87416840 -130.26144409
v -10.18009377 45.29883957 -133.52427673
v -3.55648375 45.46114731 -134.10005188
v -34.48791504 44.80496979 -113.92704773
v -37.61844254 43.24906540 -105.05351257
v -36.52898026 45.05017853 -105.36657715
v -37.62863159 43.30163574 -104.62818146
v -31.50124550 43.41400528 -121.81557465
v -26.68965530 42.18127060 -128.80673218
v -20.32744408 41.18135834 -134.47750854
v -12.73170567 40.47461319 -138.48564148
v -4.37513065 40.10880661 -140.56022644
v 4.26235723 40.10881424 -140.56018066
v 12.61874104 40.47461319 -138.48564148
v 20.21445847 41.18135452 -134.47752380
v 26.57662201 42.18125916 -128.80680847
v 31.38822937 43.41399002 -121.81566620
v 34.37492371 44.80495453 -113.92713928
v 36.41601562 45.05017853 -105.36657715
v 35.41630936 46.27700806 -105.57874298
v 35.75109482 46.29280472 -98.31932068
v 37.51566696 43.30164337 -104.62813568
v 32.98271561 49.03055573 -100.24695587
v 34.54044724 47.14515686 -105.72817993
v 31.60029411 47.26947403 -113.67432404
v 33.44118881 48.03713989 -105.88089752
v 32.56031418 48.62600708 -105.98107147
v 28.84899712 45.98797607 -120.94202423
v 24.42127419 44.85361862 -127.37526703
v 18.56670761 43.93340683 -132.59403992
v 11.58798313 43.28409958 -136.27641296
v 3.90873766 42.94791412 -138.18302917
v -4.02153015 42.94790649 -138.18305969
v -11.70094013 43.28409958 -136.27642822
v -18.67971611 43.93341064 -132.59400940
v -24.53430176 44.85363007 -127.37519836
v -28.96200752 45.98799133 -120.94194794
v -35.52927399 46.27700806 -105.57874298
v -31.71328163 47.26948929 -113.67424011
v -35.86404800 46.29281616 -98.31923676
v -34.65341187 47.14515686 -105.72817993
v 30.34375381 49.71876526 -106.16454315
v 0.95911205 43.69146729 -137.44946289
v 2.73380709 44.46056366 -136.21293640
v -1.06827557 43.69065857 -137.45060730
v -2.84746790 44.46108246 -136.21202087
v -3.38496017 44.99597168 -135.18229675
v -33.55415726 48.03713989 -105.88089752
v -32.67328262 48.62600708 -105.98107147
v -33.09568787 49.03055191 -100.24698639
v -30.45672035 49.71876526 -106.16454315
v -29.78029823 49.95799255 -106.20391083
v 24.04621124 52.89982224 -86.14660645
v 17.79484177 53.05982971 -77.39588165
v 22.72878456 52.39020157 -81.19352722
v 12.21650028 53.55823898 -74.56927490
v 6.19764519 53.86529541 -72.82789612
v -0.05648375 54.95460892 -74.88809967
v 31.58858109 49.99591827 -94.77214050
v 27.07598686 52.16041183 -92.40513611
v 28.74706078 51.40765762 -91.16932678
v 29.38424683 50.85676956 -89.62789154
v 33.74067307 47.48947525 -91.53266907
v 29.42427826 50.73382950 -89.10005188
v 28.84752846 50.68511200 -87.17531586
v 37.52104568 43.35408401 -104.20272827
v 30.43269539 48.60061646 -85.23110199
v 26.87314987 51.54994965 -85.73113251
v 25.94543648 49.57970810 -79.67842102
v 27.39009476 51.29527664 -85.92178345
v 20.43475723 50.39042282 -75.08065033
v 14.08863926 50.99796295 -71.63512421
v 7.17015409 51.37349701 -69.50537872
v -0.05648375 52.44451523 -69.83928680
v -0.05648375 53.97001648 -72.23399353
v -6.30908823 53.86534500 -72.82760620
v -7.28303051 51.37349701 -69.50536346
v 25.65320396 52.15713501 -85.61056519
v -30.54576683 48.60059357 -85.23123932
v -28.94864655 50.68859863 -87.15744019
v -29.53724670 50.73382568 -89.10005188
v -29.49785233 50.85552597 -89.62370300
v -27.43755722 51.32705688 -85.89238739
v -26.05836868 49.57971191 -79.67839813
v -26.97034836 51.55772400 -85.72673035
v -22.83749580 52.39089966 -81.18956757
v -25.66817856 52.20512772 -85.61956787
v -20.54762459 50.39043427 -75.08058167
v -17.90405273 53.06024933 -77.39351654
v -24.11334419 52.91902542 -86.17625427
v -14.20148468 50.99797058 -71.63507843
v -12.32663536 53.55843735 -74.56815338
v -33.85359573 47.48949814 -91.53256226
v -31.70158577 49.99589920 -94.77224731
v -28.86160088 51.40669250 -91.16718292
v -27.17000389 52.16680527 -92.41167450
v 11.22344685 -62.00309753 -138.81288147
v -11.33641434 -62.00309753 -138.81288147
v -0.05648376 -62.00309753 -140.59957886
v 21.39888763 -62.00309753 -133.62786865
v -21.51185608 -62.00309753 -133.62786865
v -29.58661270 -62.00309753 -125.55247498
v -34.77044678 -62.00309753 -115.37770844
v -36.55648422 -62.00309753 -104.09999847
v -34.77054214 -62.00309753 -92.82258606
v -29.58674431 -62.00309753 -82.64770508
v -21.51198006 -62.00309753 -74.57221985
v 21.39900780 -62.00309753 -74.57221985
v -11.33648872 -62.00309753 -69.38713837
v 11.22351551 -62.00309753 -69.38713837
v -0.05648673 -62.00309753 -67.60042572
v 29.47377396 -62.00309753 -82.64769745
v 34.65757370 -62.00309753 -92.82257843
v 36.44351578 -62.00309753 -104.09999847
v 34.65747833 -62.00309753 -115.37770844
v 29.47364616 -62.00309753 -125.55247498
v 38.44351578 -60.00309753 -104.09999847
v 36.62060165 -60.00309753 -92.39352417
v 31.32410622 -60.00309753 -126.40489960
v 36.62050247 -60.00309753 -115.80677795
v 23.05590439 -60.00309753 -134.89070129
v 12.59891415 -60.00309753 -140.46057129
v 0.85032701 -60.41337204 -142.17846680
v 0.94343191 -60.00309753 -142.58700562
v -0.05647723 -61.00309753 -141.60000610
v 0.62137514 -60.73205185 -141.86480713
v -12.71188164 -60.00309753 -140.46057129
v -1.05639946 -60.00309753 -142.58700562
v -0.96328926 -60.41338348 -142.17845154
v -0.73431742 -60.73207474 -141.86479187
v -23.16887283 -60.00309753 -134.89070129
v -31.43707275 -60.00309753 -126.40489960
v -36.73347092 -60.00309753 -115.80677795
v -38.55648422 -60.00309753 -104.09999847
v -31.43721008 -60.00309753 -81.79528809
v -36.73357010 -60.00309753 -92.39353180
v -23.16899872 -60.00309753 -73.30938721
v -12.71195602 -60.00309753 -67.73945618
v -0.96329451 -60.41337204 -66.02153778
v -1.05639946 -60.00309753 -65.61298370
v -0.05649026 -61.00309753 -66.59999847
v -0.73434263 -60.73205185 -66.33518982
v 12.59898758 -60.00309753 -67.73945618
v 0.94343191 -60.00309753 -65.61298370
v 0.85032177 -60.41338348 -66.02155304
v 0.62134993 -60.73207474 -66.33521271
v 23.05603027 -60.00309753 -73.30938721
v 31.32423973 -60.00309753 -81.79528809
v 5.33913708 3.17208123 -142.22003174
v 0.94343191 -58.00309753 -142.58700562
v -0.05648375 -58.00309753 -142.60000610
v -1.05639946 -58.00309753 -142.58700562
v 15.80264091 4.57279110 -139.18188477
v 25.21759796 7.35714817 -133.14256287
v 32.70598984 11.42444706 -124.32054138
v 38.30676651 19.25218964 -107.34205627
v 37.32170105 16.49329948 -113.32612610
v 38.44351578 -0.00309614 -62.90000153
v -5.45002174 3.17194533 -142.22033691
v -15.91361904 4.57237673 -139.18278503
v -25.32880783 7.35644293 -133.14410400
v -32.81764221 11.42346382 -124.32266998
v -37.43402481 16.49210358 -113.32872009
v -38.41950607 19.25094604 -107.34474945
v -38.55648422 -0.00309614 -104.09999847
v -38.55648422 -0.00309614 -62.90000153
vn 0.14830083 -0.13265152 0.98000533
vn -0.06547610 -0.18901504 0.97978885
vn 0.08577799 -0.18006808 0.97990695
vn -0.18036812 -0.08575695 0.97985360
vn -0.13270493 -0.14818684 0.98001534
vn -0.20068116 -0.01054910 0.97959981
vn -0.14830086 0.13265151 0.98000532
vn -0.18942850 0.06543096 0.97971202
vn 0.06547608 0.18901505 0.97978885
vn -0.08577798 0.18006810 0.97990694
vn 0.18036812 0.08575693 0.97985361
vn 0.13270494 0.14818683 0.98001534
vn 0.20068116 0.01054911 0.97959981
vn 0.18942853 -0.06543095 0.97971201
vn 0.01056760 -0.20057300 0.97962176
vn -0.01056759 0.20057297 0.97962177
vn 0.74882732 -0.16456109 0.64201035
vn 0.80351523 -0.02184736 0.59488316
vn 0.55934363 -0.33072395 0.76010287
vn 0.36055216 -0.41725114 0.83420838
vn 0.18022973 -0.45183305 0.87370713
vn 0.02154688 -0.45960399 0.88786255
vn -0.13660270 -0.45510908 0.87989512
vn -0.31116762 -0.43065642 0.84717753
vn -0.50495405 -0.36071644 0.78415882
vn -0.79511665 -0.07391250 0.60193559
vn -0.70065836 -0.21738132 0.67957576
vn -0.76547300 0.18203013 0.61718402
vn -0.80611170 0.02865701 0.59106912
vn -0.60880483 0.37615191 0.69847435
vn -0.42152848 0.50557730 0.75279833
vn -0.22413447 0.57777963 0.78481490
vn -0.02522727 0.60356171 0.79691709
vn 0.16984039 0.58891113 0.79015057
vn 0.36922706 0.52961337 0.76366293
vn 0.56151849 0.41677644 0.71483871
vn 0.79875479 0.08506072 0.59561351
vn 0.72884490 0.24030888 0.64112148
vn 0.96505169 0.20703126 0.16066513
vn 0.99956016 0.01940621 -0.02242505
vn 0.99548735 0.09344774 0.01650625
vn 0.98666086 0.01399020 -0.16218702
vn 0.90117199 0.40122872 0.16402609
vn 0.99590970 0.08638884 -0.02647337
vn 0.99392034 0.08327787 -0.07202191
vn 0.96796338 0.23385335 -0.09143039
vn 0.94170820 0.33266725 0.05018135
vn 0.97083174 0.23968422 -0.00610035
vn 0.99947404 0.02995547 0.01242242
vn 0.74612297 0.52734716 0.40645477
vn 0.83891344 0.45790107 0.29419527
vn -0.99590943 0.08639133 -0.02647520
vn -0.99955969 0.01940018 -0.02245136
vn -0.99559719 0.09290302 0.01246084
vn -0.99947465 0.02994241 0.01240461
vn -0.99360608 0.08134773 -0.07829116
vn -0.96874897 0.23113245 -0.09001787
vn -0.98048854 0.17235312 0.09453377
vn -0.97016773 0.24238332 -0.00498975
vn -0.98644153 0.01658033 -0.16327337
vn -0.94304143 0.12909896 -0.30660450
vn -0.94550293 0.01548429 -0.32524520
vn -0.86583151 0.13382860 -0.48210549
vn -0.90270760 0.01368231 -0.43003697
vn -0.80977901 0.01329493 -0.58658435
vn -0.76882294 0.13207560 -0.62567350
vn -0.73861308 0.01135510 -0.67403396
vn -0.67491892 0.13081384 -0.72620396
vn -0.58677072 0.01058567 -0.80968393
vn -0.38920846 0.12854727 -0.91213616
vn -0.33858125 0.00994924 -0.94088456
vn -0.49164625 0.12735815 -0.86143129
vn -0.58408772 0.12849134 -0.80145587
vn -0.26996402 0.12768593 -0.95436667
vn -0.07121867 0.01031073 -0.99740743
vn 0.05196852 0.12778763 -0.99043909
vn 0.07172084 0.01095595 -0.99736457
vn -0.11856912 0.12750930 -0.98472470
vn 0.33154996 0.12726516 -0.93481453
vn 0.33856170 0.01054674 -0.94088508
vn 0.20979007 0.12699055 -0.96946456
vn 0.53566315 0.12765064 -0.83472768
vn 0.58665837 0.01021250 -0.80977013
vn 0.43903070 0.12782813 -0.88933234
vn 0.63173325 0.12988132 -0.76422768
vn 0.73830430 0.01245486 -0.67435275
vn 0.73238663 0.13124538 -0.66812011
vn 0.80923818 0.01335141 -0.58732895
vn 0.84005717 0.13411900 -0.52565773
vn 0.90236385 0.01366609 -0.43075832
vn 0.92646563 0.13362288 -0.35186128
vn 0.94598932 0.01437768 -0.32387881
vn 0.97125426 0.13515628 -0.19595392
vn 0.88933813 0.40226934 -0.21738690
vn 0.90191221 0.41721899 -0.11172591
vn 0.84679209 0.38891172 -0.36289230
vn 0.75973009 0.38382410 -0.52487070
vn 0.66865898 0.37284903 -0.64333410
vn 0.56653965 0.39581590 -0.72274657
vn 0.48421708 0.36646018 -0.79450661
vn 0.39063468 0.39887485 -0.82964053
vn 0.30038110 0.36140654 -0.88269843
vn 0.18967819 0.39584147 -0.89851640
vn 0.03686072 0.38186513 -0.92348271
vn -0.11219700 0.35875729 -0.92666339
vn -0.23215327 0.38772166 -0.89206321
vn -0.35957559 0.38805833 -0.84859657
vn -0.42877694 0.39106634 -0.81438164
vn -0.53514336 0.38297456 -0.75296220
vn -0.59903268 0.39199955 -0.69820928
vn -0.69981305 0.38888165 -0.59919342
vn -0.79211761 0.37955791 -0.47800154
vn -0.86076626 0.38684793 -0.33080223
vn -0.92748481 0.32031648 -0.19279334
vn -0.95812377 0.22484143 0.17732785
vn -0.91982861 0.38651267 0.06725538
vn -0.89945862 0.43615168 -0.02731142
vn -0.89495938 0.40738123 0.18190173
vn -0.82332207 0.47242775 0.31456761
vn -0.72236303 0.54685551 0.42325017
vn 0.07310537 0.98203312 -0.17397285
vn 0.07958296 0.98414472 -0.15851095
vn 0.07284424 0.97989924 -0.18571803
vn 0.06942593 0.97746285 -0.19936503
vn 0.06277641 0.97521836 -0.21215152
vn 0.05423582 0.97354882 -0.22194859
vn 0.04587677 0.97202114 -0.23036975
vn -0.05422397 0.97354592 -0.22196418
vn -0.04587233 0.97202038 -0.23037385
vn -0.06277007 0.97521712 -0.21215911
vn -0.06942400 0.97746182 -0.19937074
vn -0.00000003 0.98480765 -0.17364874
vn -0.07284394 0.97989853 -0.18572193
vn -0.07310311 0.98203308 -0.17397404
vn -0.07958245 0.98414463 -0.15851175
vn -0.07715269 0.98502178 -0.15420619
vn -0.04240020 0.98698092 -0.15514798
vn -0.03308023 0.98837996 -0.14836024
vn -0.04729784 0.99326538 -0.10576771
vn -0.04272096 0.99111715 -0.12594328
vn -0.02655824 0.99515659 -0.09464685
vn -0.03888115 0.99419956 -0.10027709
vn 0.03888557 0.99419950 -0.10027599
vn 0.02655642 0.99515690 -0.09464405
vn -0.01253378 0.99573789 -0.09137262
vn 0.04271629 0.99111646 -0.12595028
vn 0.04729586 0.99326516 -0.10577060
vn 0.03307126 0.98837009 -0.14842797
vn 0.04223531 0.98698086 -0.15519330
vn 0.07719766 0.98502398 -0.15416967
vn -0.02050765 0.97406086 -0.22535499
vn -0.00165860 0.98013300 -0.19833446
vn -0.01726719 0.96247426 -0.27082307
vn -0.03409866 0.97057144 -0.23838701
vn 0.02051777 0.97405475 -0.22538049
vn 0.00166242 0.98012884 -0.19835494
vn 0.01727176 0.96247004 -0.27083779
vn 0.03410045 0.97057097 -0.23838867
vn 0.10405838 0.89755715 -0.42844254
vn 0.04002988 0.89514229 -0.44397959
vn 0.02965647 0.93401813 -0.35599245
vn 0.16177963 0.90323710 -0.39747967
vn 0.21340322 0.91132979 -0.35204698
vn 0.25262493 0.92105249 -0.29638313
vn 0.27337193 0.93224124 -0.23705287
vn 0.22114277 0.95989837 -0.17231073
vn 0.31264679 0.94365532 -0.10847410
vn 0.31713749 0.93242485 -0.17322736
vn 0.30757747 0.94822536 -0.07915032
vn 0.18475651 0.97948412 -0.08047293
vn 0.26618705 0.96343643 -0.03057289
vn 0.15090432 0.98745740 -0.04643034
vn 0.11493402 0.98934830 -0.08933142
vn 0.11699902 0.98769124 -0.10381353
vn 0.19576761 0.97683700 0.08639748
vn 0.21366351 0.97689932 0.00395377
vn 0.26103970 0.96418958 0.04686940
vn 0.14022700 0.98293042 0.11909734
vn 0.01253250 0.99573782 -0.09137355
vn 0.07569143 0.98716501 0.14062738
vn -0.00000051 0.99584578 -0.09105596
vn -0.00000299 0.99512840 0.09858731
vn -0.07570165 0.98716462 0.14062460
vn -0.14025121 0.98292867 0.11908331
vn -0.19578596 0.97683375 0.08639258
vn -0.21264107 0.97712540 0.00311891
vn -0.25988387 0.96455899 0.04567632
vn -0.11486225 0.98939574 -0.08889734
vn -0.15068191 0.98748307 -0.04660629
vn -0.30770341 0.94819194 -0.07906117
vn -0.26528957 0.96366638 -0.03112143
vn -0.18329339 0.97970665 -0.08110745
vn -0.11597974 0.98779035 -0.10401405
vn -0.31265067 0.94365354 -0.10847838
vn -0.22114229 0.95989847 -0.17231084
vn -0.27337088 0.93224190 -0.23705145
vn -0.25262630 0.92105277 -0.29638109
vn -0.21340519 0.91132973 -0.35204595
vn -0.16178313 0.90323747 -0.39747741
vn -0.10406157 0.89755774 -0.42844054
vn -0.02964877 0.93403412 -0.35595114
vn -0.71162933 0.63800263 -0.29417060
vn -0.90209852 0.41827511 -0.10613287
vn -0.81558472 0.56864831 -0.10705449
vn -0.90333137 0.42350401 -0.06809391
vn -0.65122965 0.61664809 -0.44231786
vn -0.54474978 0.60115064 -0.58469273
vn -0.41199469 0.58896049 -0.69525960
vn -0.25768336 0.57587645 -0.77586442
vn -0.08367705 0.56805900 -0.81872286
vn 0.09195634 0.56014785 -0.82327299
vn 0.25628374 0.58015740 -0.77313391
vn 0.41198957 0.59062766 -0.69384693
vn 0.54675356 0.60184571 -0.58210161
vn 0.65821460 0.60933641 -0.44211161
vn 0.71197580 0.63923959 -0.29062555
vn 0.81618326 0.56726513 -0.10979600
vn 0.74537235 0.65537347 -0.12208880
vn 0.78242636 0.62096509 0.04702503
vn 0.90333125 0.42350463 -0.06809172
vn 0.58927089 0.80712740 -0.03612717
vn 0.67617243 0.72375701 -0.13771942
vn 0.51874306 0.80859390 -0.27763562
vn 0.60237868 0.78303725 -0.15489540
vn 0.50612305 0.84829371 -0.15568312
vn 0.47608029 0.78906100 -0.38824001
vn 0.40456732 0.77062353 -0.49240701
vn 0.30899373 0.75542942 -0.57779691
vn 0.19518559 0.74415350 -0.63885691
vn 0.07994647 0.72451048 -0.68461166
vn -0.07993643 0.72451726 -0.68460566
vn -0.19518535 0.74415304 -0.63885752
vn -0.30899407 0.75542975 -0.57779629
vn -0.40456781 0.77062361 -0.49240648
vn -0.47608086 0.78906113 -0.38823903
vn -0.74537248 0.65537346 -0.12208811
vn -0.51874305 0.80859426 -0.27763460
vn -0.78302403 0.62026139 0.04635927
vn -0.67617290 0.72375661 -0.13771922
vn 0.39801126 0.90236970 -0.16527539
vn 0.00954233 0.78193152 -0.62329130
vn 0.04725596 0.85061079 -0.52366798
vn -0.00948144 0.78172509 -0.62355111
vn -0.04725130 0.85064270 -0.52361657
vn -0.03999686 0.89521274 -0.44384050
vn -0.60237943 0.78303671 -0.15489526
vn -0.50612280 0.84829390 -0.15568289
vn -0.58927100 0.80712729 -0.03612782
vn -0.39801137 0.90236976 -0.16527480
vn -0.31713798 0.93242482 -0.17322660
vn 0.32873762 0.93737907 0.11511761
vn 0.32073775 0.87652292 0.35893573
vn 0.40836938 0.86154851 0.30161003
vn 0.21941078 0.88531496 0.40997113
vn 0.11948873 0.88991463 0.44019813
vn 0.00000004 0.96162318 0.27437359
vn 0.57534625 0.81670969 0.04429423
vn 0.35080910 0.93641750 0.00743212
vn 0.44748678 0.89204417 0.06334650
vn 0.53468983 0.83505731 0.12956105
vn 0.75216942 0.63099631 0.18996007
vn 0.58505371 0.79107023 0.17866182
vn 0.58159909 0.78019463 0.23030163
vn 0.89974315 0.43519884 -0.03262261
vn 0.68434926 0.64549878 0.33911269
vn 0.48185067 0.84583629 0.22886876
vn 0.57999931 0.69145339 0.43068899
vn 0.53040459 0.80819085 0.25592680
vn 0.44569437 0.73859528 0.50579991
vn 0.30168807 0.77160672 0.56000659
vn 0.15544655 0.78951191 0.59372326
vn 0.00146238 0.80974475 0.58678046
vn 0.00000694 0.89319541 0.44966871
vn -0.11945452 0.88991730 0.44020202
vn -0.15809035 0.79004618 0.59231281
vn 0.41620287 0.89194770 0.17664788
vn -0.68453398 0.64524104 0.33923034
vn -0.58079480 0.78044928 0.23146560
vn -0.58512971 0.79094991 0.17894542
vn -0.53460151 0.83509890 0.12965741
vn -0.52892892 0.80930099 0.25547231
vn -0.57880451 0.69247958 0.43064761
vn -0.47901062 0.84818850 0.22610860
vn -0.40829200 0.86158669 0.30160572
vn -0.41209754 0.89442818 0.17370622
vn -0.44404374 0.73928064 0.50625023
vn -0.32067236 0.87653227 0.35897135
vn -0.32607791 0.93855834 0.11305501
vn -0.30258771 0.77080251 0.56062837
vn -0.21935537 0.88532145 0.40998677
vn -0.75319948 0.62850464 0.19409393
vn -0.57533795 0.81671535 0.04429759
vn -0.44738702 0.89208970 0.06340994
vn -0.35001396 0.93671687 0.00719244
vn 0.12129540 -0.91001168 -0.39644190
vn -0.12129538 -0.91001168 -0.39644190
vn -0.00000015 -0.91681772 -0.39930598
vn 0.23887195 -0.91027636 -0.33813775
vn -0.23887196 -0.91027635 -0.33813776
vn -0.33254829 -0.91040815 -0.24610694
vn -0.39298593 -0.91039394 -0.12940221
vn -0.41385808 -0.91034141 -0.00000094
vn -0.39298636 -0.91039409 0.12939984
vn -0.33254975 -0.91040820 0.24610479
vn -0.23887321 -0.91027643 0.33813668
vn 0.23887291 -0.91027656 0.33813653
vn -0.12129658 -0.91001133 0.39644232
vn 0.12129647 -0.91001141 0.39644219
vn 0.00000015 -0.91681778 0.39930585
vn 0.33255011 -0.91040796 0.24610521
vn 0.39298640 -0.91039406 0.12939993
vn 0.41385807 -0.91034142 -0.00000096
vn 0.39298593 -0.91039395 -0.12940217
vn 0.33254831 -0.91040814 -0.24610695
vn 0.92186636 -0.38714885 -0.01667851
vn 0.85863582 -0.45550157 0.23508051
vn 0.75820988 -0.37265713 -0.53501817
vn 0.88459897 -0.37264197 -0.28039725
vn 0.56052904 -0.37257733 -0.73958997
vn 0.31037817 -0.37294259 -0.87440220
vn 0.06754117 -0.71623098 -0.69458719
vn 0.08333448 -0.37808693 -0.92201173
vn 0.00000353 -0.70597916 -0.70823260
vn 0.02327263 -0.71072274 -0.70308717
vn -0.31037843 -0.37294180 -0.87440245
vn -0.08333525 -0.37808754 -0.92201141
vn -0.06757106 -0.71623556 -0.69457957
vn -0.02333686 -0.71073857 -0.70306904
vn -0.56052891 -0.37257677 -0.73959035
vn -0.75820987 -0.37265711 -0.53501820
vn -0.88459896 -0.37264196 -0.28039731
vn -0.92172979 -0.38744871 -0.01725354
vn -0.69525689 -0.55216995 0.46013715
vn -0.85744490 -0.45774371 0.23507221
vn -0.49060715 -0.60654804 0.62562297
vn -0.26349126 -0.62716765 0.73296186
vn -0.06758051 -0.71624310 0.69457087
vn -0.06757669 -0.62809961 0.77519306
vn 0.00000004 -0.70598105 0.70823072
vn -0.02332483 -0.71073848 0.70306953
vn 0.26305375 -0.62688173 0.73336350
vn 0.06812076 -0.62779052 0.77539579
vn 0.06759345 -0.71624638 0.69456624
vn 0.02334127 -0.71074253 0.70306490
vn 0.49084974 -0.60644349 0.62553403
vn 0.69609551 -0.55106093 0.46019876
vn 0.20015385 0.01082414 -0.97970469
vn 0.04589530 0.00119920 -0.99894554
vn -0.00000000 0.00136772 -0.99999906
vn -0.04589559 0.00119921 -0.99894552
vn 0.46212695 0.01086502 -0.88674722
vn 0.66920777 0.01165147 -0.74298399
vn 0.85588118 0.01273898 -0.51701559
vn 0.99599609 0.01601899 -0.08794986
vn 0.97110063 0.01447173 -0.23823125
vn 0.99812992 0.01012178 0.06028435
vn -0.20049452 0.00984185 -0.97964539
vn -0.46238253 0.01043741 -0.88661912
vn -0.66866903 0.01167325 -0.74346854
vn -0.85527936 0.01356745 -0.51798952
vn -0.97128761 0.01478639 -0.23744838
vn -0.99582322 0.01764894 -0.08958034
vn -0.99977751 0.00000005 -0.02109353
vn -0.99771078 0.02325360 0.06350175
f 332//332 364//364 363//363
f 331//331 302//302 332//332
f 336//336 24//24 335//335
f 335//335 24//24 25//25
f 25//25 333//333 335//335
f 35//35 270//270 34//34
f 35//35 12//12 36//36
f 9//9 12//12 35//35
f 34//34 9//9 35//35
f 332//332 302//302 334//334
f 329//329 325//325 299//299
f 305//305 336//336 335//335
f 64//64 331//331 62//62
f 286//286 31//31 32//32
f 107//107 74//74 70//70
f 70//70 74//74 71//71
f 358//358 325//325 329//329
f 71//71 325//325 358//358
f 358//358 70//70 71//71
f 72//72 70//70 358//358
f 69//69 358//358 329//329
f 72//72 358//358 69//69
f 53//53 363//363 364//364
f 364//364 55//55 53//53
f 28//28 8//8 30//30
f 333//333 25//25 27//27
f 27//27 334//334 333//333
f 5//5 25//25 24//24
f 24//24 336//336 23//23
f 342//342 308//308 341//341
f 341//341 308//308 306//306
f 21//21 342//342 341//341
f 22//22 342//342 21//21
f 107//107 70//70 108//108
f 108//108 70//70 72//72
f 106//106 74//74 107//107
f 238//238 118//118 291//291
f 282//282 31//31 286//286
f 120//120 30//30 282//282
f 282//282 30//30 31//31
f 184//184 287//287 290//290
f 34//34 270//270 271//271
f 179//179 181//181 182//182
f 254//254 271//271 270//270
f 40//40 315//315 354//354
f 315//315 42//42 354//354
f 42//42 93//93 354//354
f 355//355 93//93 42//42
f 226//226 215//215 214//214
f 333//333 334//334 303//303
f 303//303 334//334 302//302
f 296//296 299//299 325//325
f 325//325 326//326 296//296
f 329//329 299//299 300//300
f 336//336 305//305 307//307
f 335//335 333//333 304//304
f 304//304 305//305 335//335
f 333//333 303//303 304//304
f 297//297 321//321 295//295
f 322//322 320//320 295//295
f 295//295 321//321 322//322
f 317//317 314//314 319//319
f 315//315 316//316 312//312
f 323//323 326//326 322//322
f 357//357 326//326 325//325
f 357//357 325//325 71//71
f 71//71 74//74 357//357
f 34//34 271//271 33//33
f 33//33 271//271 272//272
f 10//10 32//32 31//31
f 330//330 67//67 329//329
f 330//330 65//65 67//67
f 329//329 300//300 330//330
f 330//330 360//360 65//65
f 330//330 331//331 64//64
f 64//64 360//360 330//330
f 67//67 65//65 66//66
f 66//66 68//68 67//67
f 67//67 68//68 359//359
f 329//329 67//67 359//359
f 359//359 69//69 329//329
f 60//60 331//331 332//332
f 28//28 118//118 115//115
f 334//334 27//27 26//26
f 332//332 334//334 26//26
f 26//26 364//364 332//332
f 6//6 26//26 27//27
f 6//6 8//8 28//28
f 309//309 308//308 343//343
f 308//308 342//342 343//343
f 336//336 307//307 338//338
f 338//338 23//23 336//336
f 22//22 23//23 338//338
f 338//338 342//342 22//22
f 2//2 5//5 24//24
f 24//24 23//23 2//2
f 346//346 316//316 17//17
f 43//43 38//38 39//39
f 39//39 38//38 37//37
f 356//356 315//315 40//40
f 18//18 316//316 315//315
f 17//17 316//316 18//18
f 315//315 356//356 18//18
f 18//18 356//356 37//37
f 20//20 21//21 341//341
f 232//232 200//200 244//244
f 107//107 108//108 209//209
f 209//209 106//106 107//107
f 72//72 69//69 73//73
f 69//69 359//359 73//73
f 73//73 359//359 68//68
f 226//226 165//165 223//223
f 224//224 222//222 223//223
f 164//164 165//165 226//226
f 164//164 163//163 125//125
f 125//125 124//124 164//164
f 164//164 124//124 165//165
f 162//162 163//163 228//228
f 242//242 159//159 229//229
f 229//229 162//162 228//228
f 159//159 162//162 229//229
f 106//106 209//209 210//210
f 347//347 320//320 322//322
f 238//238 291//291 292//292
f 119//119 30//30 120//120
f 119//119 291//291 118//118
f 119//119 118//118 28//28
f 28//28 30//30 119//119
f 284//284 282//282 286//286
f 286//286 287//287 284//284
f 165//165 124//124 123//123
f 141//141 142//142 184//184
f 184//184 142//142 139//139
f 273//273 274//274 272//272
f 183//183 184//184 290//290
f 290//290 274//274 183//183
f 183//183 141//141 184//184
f 286//286 32//32 289//289
f 289//289 287//287 286//286
f 290//290 287//287 289//289
f 267//267 35//35 36//36
f 36//36 265//265 267//267
f 143//143 179//179 144//144
f 142//142 179//179 143//143
f 97//97 96//96 89//89
f 215//215 96//96 97//97
f 97//97 214//214 215//215
f 91//91 90//90 89//89
f 89//89 96//96 91//91
f 92//92 90//90 91//91
f 91//91 355//355 92//92
f 93//93 355//355 91//91
f 94//94 93//93 91//91
f 91//91 96//96 94//94
f 226//226 214//214 227//227
f 227//227 214//214 228//228
f 228//228 163//163 227//227
f 227//227 164//164 226//226
f 163//163 164//164 227//227
f 297//297 296//296 327//327
f 327//327 296//296 326//326
f 302//302 331//331 301//301
f 331//331 330//330 301//301
f 301//301 330//330 300//300
f 298//298 319//319 314//314
f 298//298 295//295 320//320
f 320//320 319//319 298//298
f 311//311 312//312 316//316
f 311//311 346//346 310//310
f 316//316 346//346 311//311
f 315//315 312//312 318//318
f 92//92 355//355 318//318
f 318//318 90//90 92//92
f 317//317 90//90 318//318
f 318//318 42//42 315//315
f 318//318 355//355 42//42
f 353//353 90//90 317//317
f 317//317 88//88 353//353
f 89//89 90//90 353//353
f 353//353 88//88 89//89
f 317//317 319//319 86//86
f 86//86 88//88 317//317
f 324//324 321//321 297//297
f 297//297 323//323 324//324
f 322//322 321//321 324//324
f 324//324 323//323 322//322
f 326//326 357//357 75//75
f 32//32 33//33 275//275
f 275//275 289//289 32//32
f 272//272 274//274 275//275
f 275//275 33//33 272//272
f 275//275 274//274 290//290
f 290//290 289//289 275//275
f 16//16 9//9 34//34
f 34//34 33//33 16//16
f 16//16 33//33 32//32
f 32//32 10//10 16//16
f 31//31 30//30 7//7
f 7//7 10//10 31//31
f 7//7 30//30 8//8
f 68//68 66//66 111//111
f 111//111 66//66 112//112
f 361//361 62//62 331//331
f 331//331 60//60 361//361
f 63//63 360//360 64//64
f 112//112 66//66 63//63
f 65//65 360//360 63//63
f 63//63 66//66 65//65
f 364//364 26//26 29//29
f 29//29 6//6 28//28
f 26//26 6//6 29//29
f 4//4 6//6 27//27
f 4//4 27//27 25//25
f 25//25 5//5 4//4
f 309//309 343//343 344//344
f 344//344 343//343 342//342
f 337//337 307//307 309//309
f 337//337 338//338 307//307
f 51//51 38//38 43//43
f 36//36 38//38 51//51
f 37//37 38//38 13//13
f 13//13 18//18 37//37
f 13//13 14//14 17//17
f 17//17 18//18 13//13
f 40//40 41//41 49//49
f 49//49 356//356 40//40
f 41//41 356//356 49//49
f 19//19 346//346 17//17
f 17//17 14//14 19//19
f 21//21 20//20 3//3
f 216//216 96//96 215//215
f 216//216 215//215 226//226
f 226//226 223//223 216//216
f 94//94 96//96 216//216
f 216//216 223//223 222//222
f 216//216 217//217 94//94
f 163//163 162//162 127//127
f 74//74 106//106 78//78
f 78//78 357//357 74//74
f 78//78 75//75 357//357
f 231//231 209//209 232//232
f 231//231 210//210 209//209
f 232//232 244//244 231//231
f 244//244 243//243 231//231
f 120//120 282//282 277//277
f 277//277 119//119 120//120
f 291//291 119//119 277//277
f 277//277 278//278 291//291
f 285//285 284//284 288//288
f 145//145 179//179 142//142
f 142//142 141//141 145//145
f 181//181 179//179 145//145
f 141//141 183//183 145//145
f 182//182 181//181 145//145
f 145//145 183//183 182//182
f 138//138 139//139 142//142
f 132//132 131//131 138//138
f 142//142 143//143 138//138
f 138//138 143//143 132//132
f 271//271 254//254 255//255
f 272//272 271//271 255//255
f 255//255 273//273 272//272
f 270//270 35//35 269//269
f 35//35 267//267 269//269
f 174//174 148//148 173//173
f 148//148 174//174 149//149
f 173//173 148//148 146//146
f 178//178 143//143 144//144
f 228//228 214//214 213//213
f 94//94 217//217 95//95
f 328//328 323//323 297//297
f 297//297 327//327 328//328
f 326//326 323//323 328//328
f 328//328 327//327 326//326
f 313//313 318//318 312//312
f 313//313 314//314 317//317
f 317//317 318//318 313//313
f 89//89 88//88 87//87
f 88//88 86//86 87//87
f 87//87 97//97 89//89
f 322//322 326//326 349//349
f 232//232 209//209 233//233
f 206//206 111//111 112//112
f 61//61 361//361 60//60
f 60//60 114//114 61//61
f 62//62 361//361 61//61
f 64//64 62//62 61//61
f 61//61 63//63 64//64
f 342//342 338//338 339//339
f 339//339 344//344 342//342
f 309//309 344//344 339//339
f 265//265 51//51 261//261
f 257//257 262//262 261//261
f 261//261 51//51 43//43
f 50//50 265//265 36//36
f 36//36 51//51 50//50
f 50//50 51//51 265//265
f 11//11 13//13 38//38
f 36//36 12//12 11//11
f 11//11 38//38 36//36
f 345//345 19//19 20//20
f 341//341 306//306 345//345
f 345//345 20//20 341//341
f 346//346 19//19 345//345
f 345//345 306//306 310//310
f 310//310 346//346 345//345
f 1//1 19//19 14//14
f 20//20 19//19 1//1
f 1//1 3//3 20//20
f 22//22 21//21 15//15
f 21//21 3//3 15//15
f 15//15 23//23 22//22
f 15//15 2//2 23//23
f 245//245 244//244 200//200
f 200//200 201//201 245//245
f 161//161 245//245 201//201
f 153//153 201//201 200//200
f 200//200 154//154 153//153
f 154//154 151//151 153//153
f 151//151 152//152 153//153
f 153//153 152//152 156//156
f 153//153 161//161 201//201
f 218//218 216//216 222//222
f 217//217 216//216 218//218
f 125//125 163//163 126//126
f 163//163 127//127 126//126
f 126//126 124//124 125//125
f 158//158 162//162 159//159
f 158//158 127//127 162//162
f 106//106 210//210 105//105
f 105//105 78//78 106//106
f 190//190 191//191 192//192
f 192//192 193//193 136//136
f 136//136 194//194 192//192
f 192//192 194//194 190//190
f 294//294 191//191 190//190
f 288//288 187//187 294//294
f 294//294 187//187 191//191
f 135//135 194//194 136//136
f 195//195 194//194 135//135
f 134//134 195//195 135//135
f 135//135 131//131 134//134
f 136//136 138//138 135//135
f 135//135 138//138 131//131
f 248//248 292//292 190//190
f 190//190 194//194 248//248
f 238//238 292//292 248//248
f 248//248 236//236 238//238
f 133//133 195//195 134//134
f 133//133 196//196 195//195
f 134//134 131//131 133//133
f 131//131 196//196 133//133
f 282//282 284//284 281//281
f 281//281 277//277 282//282
f 278//278 277//277 281//281
f 136//136 193//193 137//137
f 137//137 138//138 136//136
f 193//193 138//138 137//137
f 139//139 138//138 140//140
f 140//140 189//189 139//139
f 273//273 255//255 256//256
f 274//274 273//273 256//256
f 182//182 183//183 256//256
f 256//256 183//183 274//274
f 252//252 254//254 270//270
f 270//270 269//269 252//252
f 252//252 178//178 254//254
f 175//175 178//178 252//252
f 268//268 267//267 265//265
f 224//224 223//223 225//225
f 150//150 149//149 174//174
f 148//148 149//149 122//122
f 122//122 123//123 124//124
f 149//149 150//150 122//122
f 121//121 123//123 122//122
f 143//143 178//178 147//147
f 147//147 178//178 175//175
f 147//147 146//146 148//148
f 148//148 122//122 147//147
f 147//147 122//122 143//143
f 180//180 255//255 254//254
f 254//254 178//178 180//180
f 180//180 256//256 255//255
f 182//182 256//256 180//180
f 180//180 179//179 182//182
f 144//144 179//179 180//180
f 180//180 178//178 144//144
f 46//46 93//93 94//94
f 94//94 95//95 46//46
f 43//43 39//39 47//47
f 47//47 39//39 37//37
f 47//47 356//356 41//41
f 37//37 356//356 47//47
f 351//351 319//319 320//320
f 351//351 83//83 319//319
f 99//99 213//213 214//214
f 100//100 213//213 99//99
f 214//214 97//97 98//98
f 97//97 87//87 98//98
f 98//98 99//99 214//214
f 87//87 85//85 98//98
f 98//98 85//85 99//99
f 326//326 75//75 350//350
f 350//350 349//349 326//326
f 75//75 349//349 350//350
f 322//322 349//349 348//348
f 77//77 349//349 75//75
f 77//77 348//348 349//349
f 77//77 347//347 322//322
f 322//322 348//348 77//77
f 128//128 130//130 131//131
f 128//128 151//151 154//154
f 128//128 154//154 129//129
f 129//129 198//198 128//128
f 198//198 130//130 128//128
f 197//197 130//130 198//198
f 235//235 196//196 197//197
f 197//197 196//196 131//131
f 131//131 130//130 197//197
f 199//199 233//233 198//198
f 199//199 198//198 129//129
f 199//199 200//200 232//232
f 232//232 233//233 199//199
f 129//129 154//154 199//199
f 199//199 154//154 200//200
f 208//208 209//209 108//108
f 208//208 233//233 209//209
f 198//198 233//233 234//234
f 235//235 197//197 234//234
f 234//234 197//197 198//198
f 362//362 114//114 60//60
f 362//362 56//56 114//114
f 53//53 56//56 362//362
f 362//362 60//60 332//332
f 332//332 363//363 362//362
f 363//363 53//53 362//362
f 54//54 53//53 55//55
f 54//54 55//55 364//364
f 112//112 63//63 113//113
f 63//63 61//61 113//113
f 113//113 206//206 112//112
f 113//113 61//61 114//114
f 237//237 196//196 235//235
f 338//338 337//337 340//340
f 340//340 339//339 338//338
f 340//340 337//337 309//309
f 309//309 339//339 340//340
f 245//245 161//161 160//160
f 242//242 244//244 160//160
f 244//244 245//245 160//160
f 160//160 159//159 242//242
f 160//160 161//161 159//159
f 157//157 153//153 156//156
f 161//161 153//153 157//157
f 159//159 161//161 157//157
f 157//157 158//158 159//159
f 210//210 231//231 230//230
f 230//230 211//211 210//210
f 230//230 231//231 243//243
f 242//242 229//229 230//230
f 78//78 105//105 76//76
f 81//81 347//347 76//76
f 347//347 77//77 76//76
f 75//75 78//78 76//76
f 76//76 77//77 75//75
f 191//191 187//187 186//186
f 186//186 192//192 191//191
f 186//186 189//189 192//192
f 190//190 292//292 293//293
f 293//293 294//294 190//190
f 293//293 285//285 288//288
f 288//288 294//294 293//293
f 184//184 139//139 185//185
f 139//139 189//189 185//185
f 189//189 186//186 185//185
f 185//185 186//186 187//187
f 185//185 187//187 288//288
f 287//287 184//184 185//185
f 288//288 284//284 185//185
f 185//185 284//284 287//287
f 247//247 248//248 194//194
f 284//284 285//285 283//283
f 283//283 281//281 284//284
f 189//189 140//140 188//188
f 193//193 192//192 188//188
f 192//192 189//189 188//188
f 188//188 138//138 193//193
f 188//188 140//140 138//138
f 253//253 269//269 267//267
f 253//253 252//252 269//269
f 267//267 268//268 253//253
f 175//175 252//252 253//253
f 263//263 268//268 265//265
f 262//262 268//268 263//263
f 265//265 261//261 263//263
f 263//263 261//261 262//262
f 258//258 171//171 177//177
f 170//170 174//174 173//173
f 170//170 150//150 174//174
f 260//260 262//262 257//257
f 257//257 259//259 260//260
f 260//260 259//259 276//276
f 260//260 268//268 262//262
f 224//224 225//225 221//221
f 221//221 222//222 224//224
f 221//221 218//218 222//222
f 240//240 223//223 165//165
f 240//240 225//225 223//223
f 101//101 213//213 100//100
f 212//212 230//230 229//229
f 211//211 230//230 212//212
f 212//212 101//101 102//102
f 213//213 101//101 212//212
f 212//212 229//229 228//228
f 228//228 213//213 212//212
f 40//40 354//354 45//45
f 45//45 354//354 93//93
f 93//93 46//46 45//45
f 217//217 47//47 264//264
f 217//217 218//218 219//219
f 219//219 47//47 217//217
f 218//218 221//221 219//219
f 219//219 261//261 43//43
f 43//43 47//47 219//219
f 257//257 261//261 219//219
f 219//219 221//221 257//257
f 320//320 347//347 80//80
f 80//80 351//351 320//320
f 80//80 347//347 81//81
f 352//352 87//87 86//86
f 352//352 85//85 87//87
f 83//83 85//85 352//352
f 352//352 86//86 319//319
f 319//319 83//83 352//352
f 100//100 99//99 82//82
f 99//99 85//85 82//82
f 82//82 85//85 83//83
f 83//83 351//351 82//82
f 109//109 208//208 108//108
f 109//109 108//108 72//72
f 72//72 73//73 109//109
f 207//207 206//206 235//235
f 235//235 234//234 207//207
f 111//111 206//206 207//207
f 233//233 208//208 207//207
f 207//207 234//234 233//233
f 52//52 56//56 53//53
f 53//53 54//54 52//52
f 364//364 29//29 58//58
f 58//58 54//54 364//364
f 58//58 29//29 28//28
f 28//28 115//115 58//58
f 58//58 115//115 118//118
f 114//114 56//56 57//57
f 57//57 203//203 114//114
f 56//56 52//52 57//57
f 114//114 203//203 204//204
f 238//238 236//236 204//204
f 202//202 113//113 114//114
f 206//206 113//113 202//202
f 114//114 204//204 202//202
f 202//202 204//204 236//236
f 235//235 206//206 202//202
f 202//202 237//237 235//235
f 155//155 157//157 156//156
f 158//158 157//157 155//155
f 156//156 152//152 155//155
f 155//155 126//126 127//127
f 127//127 158//158 155//155
f 155//155 128//128 131//131
f 155//155 131//131 132//132
f 155//155 152//152 151//151
f 151//151 128//128 155//155
f 124//124 126//126 155//155
f 132//132 143//143 155//155
f 155//155 122//122 124//124
f 143//143 122//122 155//155
f 242//242 230//230 241//241
f 241//241 230//230 243//243
f 241//241 244//244 242//242
f 241//241 243//243 244//244
f 104//104 76//76 105//105
f 104//104 105//105 210//210
f 210//210 211//211 104//104
f 280//280 293//293 292//292
f 281//281 283//283 280//280
f 285//285 293//293 280//280
f 280//280 283//283 285//285
f 249//249 247//247 194//194
f 237//237 247//247 249//249
f 196//196 237//237 249//249
f 248//248 247//247 246//246
f 246//246 247//247 237//237
f 276//276 253//253 266//266
f 266//266 253//253 268//268
f 266//266 260//260 276//276
f 268//268 260//260 266//266
f 258//258 177//177 251//251
f 276//276 259//259 251//251
f 251//251 259//259 258//258
f 251//251 177//177 175//175
f 251//251 253//253 276//276
f 175//175 253//253 251//251
f 172//172 170//170 173//173
f 172//172 147//147 175//175
f 173//173 146//146 172//172
f 146//146 147//147 172//172
f 176//176 177//177 171//171
f 171//171 170//170 176//176
f 170//170 172//172 176//176
f 175//175 177//177 176//176
f 176//176 172//172 175//175
f 167//167 122//122 150//150
f 150//150 170//170 167//167
f 167//167 221//221 225//225
f 225//225 240//240 167//167
f 211//211 212//212 103//103
f 103//103 212//212 102//102
f 103//103 102//102 81//81
f 103//103 104//104 211//211
f 81//81 76//76 103//103
f 76//76 104//104 103//103
f 44//44 45//45 46//46
f 44//44 41//41 40//40
f 40//40 45//45 44//44
f 220//220 95//95 217//217
f 217//217 264//264 220//220
f 220//220 46//46 95//95
f 41//41 44//44 48//48
f 48//48 44//44 46//46
f 48//48 47//47 41//41
f 48//48 264//264 47//47
f 46//46 220//220 48//48
f 48//48 220//220 264//264
f 351//351 80//80 84//84
f 84//84 82//82 351//351
f 84//84 101//101 100//100
f 100//100 82//82 84//84
f 68//68 111//111 110//110
f 111//111 207//207 110//110
f 110//110 73//73 68//68
f 110//110 109//109 73//73
f 208//208 109//109 110//110
f 110//110 207//207 208//208
f 116//116 118//118 238//238
f 116//116 58//58 118//118
f 279//279 292//292 291//291
f 279//279 280//280 292//292
f 291//291 278//278 279//279
f 278//278 281//281 279//279
f 281//281 280//280 279//279
f 195//195 196//196 250//250
f 196//196 249//249 250//250
f 250//250 194//194 195//195
f 250//250 249//249 194//194
f 237//237 202//202 239//239
f 239//239 246//246 237//237
f 239//239 202//202 236//236
f 236//236 248//248 239//239
f 248//248 246//246 239//239
f 121//121 122//122 166//166
f 122//122 167//167 166//166
f 166//166 123//123 121//121
f 165//165 123//123 166//166
f 169//169 170//170 171//171
f 169//169 167//167 170//170
f 169//169 171//171 258//258
f 169//169 259//259 257//257
f 258//258 259//259 169//169
f 257//257 221//221 169//169
f 221//221 167//167 169//169
f 79//79 84//84 80//80
f 81//81 102//102 79//79
f 79//79 80//80 81//81
f 102//102 101//101 79//79
f 101//101 84//84 79//79
f 238//238 204//204 117//117
f 117//117 116//116 238//238
f 168//168 167//167 240//240
f 168//168 166//166 167//167
f 168//168 240//240 165//165
f 165//165 166//166 168//168
f 203//203 57//57 205//205
f 205//205 204//204 203//203
f 205//205 117//117 204//204
f 59//59 52//52 54//54
f 59//59 57//57 52//52
f 116//116 117//117 59//59
f 59//59 205//205 57//57
f 117//117 205//205 59//59
f 54//54 58//58 59//59
f 58//58 116//116 59//59
f 313//313 298//298 314//314
f 313//313 303//303 302//302
f 313//313 308//308 309//309
f 305//305 304//304 313//313
f 313//313 296//296 297//297
f 310//310 306//306 313//313
f 297//297 295//295 313//313
f 313//313 306//306 308//308
f 309//309 307//307 313//313
f 299//299 296//296 313//313
f 313//313 300//300 299//299
f 313//313 307//307 305//305
f 313//313 304//304 303//303
f 302//302 301//301 313//313
f 313//313 311//311 310//310
f 313//313 301//301 300//300
f 295//295 298//298 313//313
f 312//312 311//311 313//313
f 5//5 2//2 15//15
f 15//15 12//12 9//9
f 15//15 1//1 14//14
f 8//8 6//6 15//15
f 14//14 13//13 15//15
f 9//9 16//16 15//15
f 15//15 7//7 8//8
f 15//15 4//4 5//5
f 15//15 16//16 10//10
f 10//10 7//7 15//15
f 6//6 4//4 15//15
f 15//15 11//11 12//12
f 13//13 11//11 15//15
f 3//3 1//1 15//15

