# https://github.com/mikedh/trimesh
v -68.16974640 25.18074226 -199.50000000
v -68.66603088 -24.63565636 -199.50000000
v -72.31996155 -19.79450226 -199.50000000
v -47.16583633 36.49279785 -199.50000000
v -58.60406876 32.57629395 -199.50000000
v -53.04586792 35.00495911 -199.50000000
v -29.19170761 35.04460907 -199.50000000
v -35.07665253 36.51288986 -199.50000000
v -23.62546349 32.63443756 -199.50000000
v -14.03525162 25.27072334 -199.50000000
v -13.37710476 -24.54797554 -199.50000000
v -10.26923466 20.51500702 -199.50000000
v -34.11417770 -36.34207153 -199.50000000
v -22.76944160 -32.16246414 -199.50000000
v -28.27007484 -34.71884155 -199.50000000
v -53.74366760 -34.75821686 -199.50000000
v -47.89580536 -36.36314011 -199.50000000
v -59.25124359 -32.21938324 -199.50000000
v -41.12207031 36.99995041 -199.50000000
v -18.52760696 29.34704399 -199.50000000
v -7.33086967 15.20771599 -199.50000000
v -5.29920769 9.49152660 -199.50000000
v -6.94089842 -14.31136990 -199.50000000
v -9.73803520 -19.69443130 -199.50000000
v -17.76020813 -28.74154663 -199.50000000
v -40.14462280 -36.98866272 -199.50000000
v -41.86491776 -36.99125671 -199.50000000
v -64.27037811 -28.81472015 -199.50000000
v -75.13387299 -14.42141724 -199.50000000
v -77.03212738 -8.66090107 -199.50000000
v -74.84063721 15.09550667 -199.50000000
v -76.85328674 9.37259769 -199.50000000
v -71.91992950 20.41253471 -199.50000000
v -63.69096756 29.27197266 -199.50000000
v -41.96541214 -37.22488403 -199.26409912
v -40.04343414 -37.22195053 -199.26412964
v -28.67153549 -35.39437485 -199.00000000
v -40.00411224 -37.48511505 -199.00000000
v -18.50891304 -29.96118927 -199.00000000
v -10.47594261 -21.69863129 -199.00000000
v -5.06095076 -8.54350758 -199.50000000
v -5.33121443 -11.38697720 -199.00000000
v -4.22890997 3.52012730 -199.50000000
v -4.14877319 -2.54592061 -199.50000000
v -3.56056857 -0.00000001 -199.00000000
v -4.02225590 5.86629248 -199.00000000
v -5.39594936 11.58813763 -199.00000000
v -7.64782381 17.02464294 -199.00000000
v -10.72243118 22.04194641 -199.00000000
v -14.54406452 26.51650429 -199.00000000
v -19.01862144 30.33813667 -199.00000000
v -24.03592491 33.41274643 -199.00000000
v -29.47243118 35.66461945 -199.00000000
v -35.19427490 37.03831100 -199.00000000
v -46.92686081 37.03831100 -199.00000000
v -41.06056976 37.50000000 -199.00000000
v -52.64870453 35.66461945 -199.00000000
v -58.08521271 33.41274643 -199.00000000
v -63.10251617 30.33813667 -199.00000000
v -67.57707214 26.51650429 -199.00000000
v -71.39870453 22.04194641 -199.00000000
v -74.47331238 17.02464294 -199.00000000
v -76.72518921 11.58813763 -199.00000000
v -77.90370941 3.39759016 -199.50000000
v -78.09888458 5.86629248 -199.00000000
v -77.96376801 -2.66790032 -199.50000000
v -78.56056976 -0.00000001 -199.00000000
v -76.78304291 -11.40853405 -199.00000000
v -71.61898804 -21.73552513 -199.00000000
v -63.55795288 -30.00196266 -199.00000000
v -53.36413956 -35.42417526 -199.00000000
v -42.00392914 -37.48813248 -199.00000000
v 15.90999413 72.53503418 -15.90990257
v -26.97242546 72.46990967 -59.29158401
v -31.06056786 72.99172211 -59.12256241
v -31.06056786 72.83721924 -60.07073975
v -31.06056786 73.57286072 -53.41924286
v -31.06056786 74.02250671 -47.68807602
v 11.66848660 73.04625702 -15.90947151
v 14.94742393 72.57605743 -16.55373192
v 14.37049770 72.62675476 -16.73217010
v 13.77575588 72.69426727 -16.78792381
v 12.63026142 72.86122894 -16.55636597
v 37.21460724 70.78098297 -6.01796341
v -17.01815987 70.87719727 -59.70760345
v -3.33981347 68.32429504 -58.54878235
v -3.33289862 67.91245270 -60.28298950
v -3.34674335 68.72357178 -56.80752945
v 26.73043823 68.72357941 -26.73034668
v 30.45601273 68.86251068 -22.38149071
v 33.56658936 69.28468323 -17.32554054
v 35.85380554 69.95269775 -11.78285313
v 37.56006622 69.45886230 -8.45565987
v 16.55620193 72.57642365 -14.94211960
v 37.14421844 72.60393524 5.86152792
v 38.41045761 71.10188293 2.62558031
v 20.65784454 73.93497467 2.76803422
v 33.49659348 74.02619934 16.92404175
v 36.05215073 72.59980011 13.50922012
v 21.61821365 73.81426239 2.12298322
v 22.26700211 73.68249512 1.15993726
v 22.49927521 73.56192017 0.01957410
v 22.44448280 73.51222229 -0.57679218
v 22.26772308 73.47475433 -1.15342593
v 21.62141228 73.44414520 -2.12132025
v 13.79229546 73.36231232 -10.78919888
v 14.93067455 73.22313690 -11.01397324
v 15.89428711 73.04965210 -11.65324688
v 16.55413818 72.86204529 -12.62559032
v 16.78804016 72.69487762 -13.77068901
v 16.73307419 72.62727356 -14.36548042
v 9.99918938 74.37749481 0.02290880
v 30.40038109 74.43445587 21.96905708
v 9.81122112 74.30062103 -1.93146622
v 9.23327732 74.23464966 -3.83566523
v 7.07115936 74.17606354 -7.07106781
v 17.37877083 74.11026001 2.12132025
v 18.34697342 74.09033203 2.76757932
v 18.92406464 74.06498718 2.94474816
v 19.51730156 74.02983093 2.99931836
v 16.29247284 74.57524872 15.44005585
v 26.56403923 74.57669067 26.46898270
v 30.74712753 73.46659851 23.17045212
v 9.24760818 74.51737213 3.80157018
v 15.90999413 74.54070282 11.66726208
v 16.57271004 74.57114410 14.90555763
v 16.78850937 74.55844879 13.76716995
v 16.55446243 74.54589081 12.62953186
v 11.66735363 74.54070282 15.90990257
v 22.05104065 74.43919373 30.34062004
v 23.01401901 73.45840454 30.86436653
v 12.63729572 74.54597473 16.55688858
v 13.21471024 74.55193329 16.73374367
v 13.80757904 74.55893707 16.78790855
v 14.94843102 74.57154083 16.55564117
v 15.91742897 74.57670593 15.90137959
v 2.99993014 74.03263092 19.47546005
v 16.92285347 74.02606964 33.49715042
v -3.83906794 74.23453522 9.23177814
v -7.07097626 74.17606354 7.07106781
v 2.12141204 74.11026001 17.37867928
v -1.91872227 74.30110168 9.81364155
v 0.06084267 74.37902069 9.99874687
v 3.89220071 74.52013397 9.21010399
v 2.76529694 74.09063721 18.33953476
v -1.15538120 73.47466278 22.26654434
v 11.41905785 73.38357544 35.78528976
v 13.53660297 72.60323334 36.04182053
v -0.57822162 73.51209259 22.44429779
v 0.01540887 73.56151581 22.49936295
v 1.15976644 73.68245697 22.26709938
v 2.13052320 73.81539154 21.61111641
v 2.50554967 73.87960052 21.14894676
v 2.78540611 73.93937683 20.61375618
v -14.94724083 72.57605743 16.55373192
v 5.54375744 72.55671692 37.19540787
v -14.37031460 72.62675476 16.73217010
v -13.77557278 72.69426727 16.78792381
v -12.63007832 72.86122894 16.55636597
v -11.66830349 73.04625702 15.90947151
v -11.02087116 73.22069550 14.94686985
v -10.78929615 73.36077118 13.80757427
v -10.84411526 73.41392517 13.21171188
v -2.12122869 73.44414520 21.62132072
v -78.69580841 72.29669952 -45.08626938
v -6.47713232 70.71186066 37.14097977
v 2.96901989 71.15305328 38.38535309
v -15.90981102 72.53503418 15.90990257
v -77.77228546 69.33968353 -27.13980103
v -17.53973389 69.26255035 33.45623016
v -8.02871704 69.51930237 37.65353012
v -77.97520447 69.43334198 -27.78791428
v -78.15519714 69.53262329 -28.44455719
v -78.31176758 69.63719177 -29.10860825
v -78.44435120 69.74670410 -29.77883911
v -78.55245972 69.86083984 -30.45417404
v -78.63631439 69.97945404 -31.13530350
v -78.69599152 70.10237122 -31.82255745
v -78.73146057 70.22934723 -32.51597595
v -78.74267578 70.36013794 -33.21559906
v -73.20944214 68.72357941 -19.74883842
v -26.73025513 68.72357941 26.73034668
v -18.46732903 68.24130249 33.78171539
v -73.63207245 68.72632599 -20.18372536
v -74.04022980 68.73546600 -20.63266563
v -74.43389893 68.75099182 -21.09565926
v -74.81307983 68.77287292 -21.57271576
v -75.17783356 68.80107880 -22.06392670
v -75.52981567 68.83567047 -22.57143593
v -75.86814117 68.87652588 -23.09414482
v -76.19063568 68.92346191 -23.62929916
v -76.49511719 68.97625732 -24.17414856
v -76.77980042 69.03475952 -24.72656822
v -77.04660797 69.09914398 -25.28983307
v -77.29551697 69.16916656 -25.86326790
v -77.54562378 69.25154114 -26.49802780
v -27.22352028 67.77040100 27.22361183
v -73.70270538 67.77040100 -19.25557327
v -74.14749146 67.77346802 -19.71480942
v -74.57898712 67.78276825 -20.18986511
v -74.99657440 67.79830933 -20.68040848
v -75.39964294 67.82009888 -21.18608665
v -75.78761292 67.84813690 -21.70655441
v -76.16051483 67.88272095 -22.24236488
v -76.51734924 67.92369080 -22.79264069
v -76.85673523 67.97067261 -23.35566330
v -77.17745209 68.02330780 -23.92959023
v -77.47860718 68.08132935 -24.51266479
v -77.76038361 68.14543915 -25.10514259
v -78.02262115 68.21531677 -25.70662880
v -78.28598785 68.29739380 -26.37213898
v -78.52529144 68.38481140 -27.04638290
v -78.74008179 68.47749329 -27.72794151
v -78.93013000 68.57619476 -28.41574669
v -79.09556580 68.68017578 -29.11008072
v -79.23638153 68.78868103 -29.81128502
v -79.35239410 68.90102386 -30.51956749
v -79.44312286 69.01761627 -31.23343086
v -79.50822449 69.13861847 -31.95168877
v -79.54744720 69.26403809 -32.67342758
v -79.56056976 69.39387512 -33.39770889
v -22.49909210 73.56192017 -0.01957410
v -78.64587402 73.64822388 -57.13972473
v -79.56056976 71.32936096 -45.32949829
v -22.26753998 73.47475433 1.15342593
v -21.62122917 73.44414520 2.12132025
v -13.79211140 73.36231232 10.78919888
v -22.44429970 73.51222229 0.57679218
v -16.55601883 72.57642365 14.94211960
v -14.93049145 73.22313690 11.01397324
v -15.89410305 73.04965210 11.65324688
v -16.55395508 72.86204529 12.62559032
v -16.78785515 72.69487762 13.77068901
v -16.73289108 72.62727356 14.36548042
v -51.06056976 74.30464172 -39.40380478
v -64.88082886 74.47391510 -57.71329117
v -78.64589691 73.65570068 -57.23061752
v -50.60338211 74.21184540 -37.10665131
v -49.30320740 74.17606354 -35.16116333
v -17.37858772 74.11026001 -2.12132025
v -18.34679031 74.09033203 -2.76757932
v -18.92388153 74.06498718 -2.94474816
v -19.51711845 74.02983093 -2.99931836
v -20.65766144 73.93497467 -2.76803422
v -21.61803055 73.81426239 -2.12298322
v -22.26681900 73.68249512 -1.15993726
v -51.06056976 74.56687164 -48.84271622
v -53.22256470 74.52715302 -58.19975281
v -78.64671326 73.66224670 -57.32155609
v -51.06056976 74.47216797 -58.28910828
v -78.64615631 73.59492493 -59.33978271
v 11.65970612 74.57670593 11.67599106
v 7.10565901 74.57669830 7.03688574
v 11.02295303 74.54589081 14.94778156
v 11.28475189 74.57524872 12.13729572
v 11.00458813 74.57114410 12.67172432
v 10.78884411 74.55844879 13.81003380
v 14.94008732 74.54597473 11.02029133
v 14.36267567 74.55193329 10.84342861
v 13.76980209 74.55893707 10.78924847
v 12.62871361 74.57154083 11.02161312
v -29.30320930 74.17606354 -43.44543839
v -30.60388756 74.13854980 -45.39222717
v -2.99974680 74.03263092 -19.47546005
v -2.12122869 74.11026001 -17.37867928
v -2.76511383 74.09063721 -18.33953476
v -1.15958309 73.68245697 -22.26709938
v -2.13033986 73.81539154 -21.61111641
v -2.50536656 73.87960052 -21.14894676
v -2.78522277 73.93937683 -20.61375618
v 11.02105427 73.22069550 -14.94686985
v 10.78947926 73.36077118 -13.80757427
v 2.12141204 73.44414520 -21.62132072
v 1.15556443 73.47466278 -22.26654434
v 0.57840490 73.51209259 -22.44429779
v -0.01522561 73.56151581 -22.49936295
v 12.62790871 73.45281982 -11.02421093
v 11.66735363 73.48291779 -11.66726208
v 20.07840538 73.51209259 -2.94429803
v 19.48477364 73.56151581 -2.99936318
v 2.99927521 73.56192017 -19.48042679
v 18.34041595 73.68245697 -2.76710010
v 2.11821342 73.81426239 -17.37701607
v 17.36965942 73.81539154 -2.11111689
v 2.76700234 73.68249512 -18.34006310
v 1.15784538 73.93497467 -16.73196602
v 16.99463272 73.87960052 -1.64894640
v 16.71477699 73.93937683 -1.11375558
v 0.01730218 74.02983093 -16.50068092
v 16.50025368 74.03263092 0.02453995
v -1.15302575 74.09033203 -16.73241997
v -0.57593608 74.06498718 -16.55525208
v 2.76772308 73.47475433 -20.65342522
v 11.02086067 73.45240784 -12.63551426
v 10.84429836 73.41392517 -13.21171188
v -12.62772560 73.45281982 11.02421093
v -11.66717052 73.48291779 11.66726208
v -20.07822227 73.51209259 2.94429803
v -19.48459053 73.56151581 2.99936318
v -2.99909210 73.56192017 19.48042679
v -18.34023285 73.68245697 2.76710010
v -2.11803007 73.81426239 17.37701607
v -17.36947632 73.81539154 2.11111689
v -2.76681900 73.68249512 18.34006310
v -1.15766215 73.93497467 16.73196602
v -16.99444962 73.87960052 1.64894640
v -16.71459389 73.93937683 1.11375558
v -0.01711892 74.02983093 16.50068092
v -16.50007057 74.03263092 -0.02453995
v 1.15320897 74.09033203 16.73241997
v 0.57611930 74.06498718 16.55525208
v -11.02067757 73.45240784 12.63551426
v -2.76753998 73.47475433 20.65342522
v -78.64222717 73.12175751 -61.30486679
v -79.10310364 73.16349030 -57.32287979
v -79.56056976 72.66498566 -57.34323502
v -79.56056976 72.17908478 -60.98106003
v -79.56056976 70.28084564 -64.11785126
v -4.25448942 -21.25000000 -59.00000000
v -78.94528961 -16.93953133 -58.00000000
v -11.00853062 -30.05203819 -59.00000000
v -19.81056976 -36.80607986 -59.00000000
v -41.06056976 -41.50000000 -58.00000000
v -30.06076050 -41.05184937 -59.00000000
v -52.84395599 -39.79179382 -58.00000000
v -41.06056976 -42.50000000 -59.00000000
v -63.63637161 -34.82186127 -58.00000000
v -62.31056976 -36.80607986 -59.00000000
v -52.06037903 -41.05184555 -59.00000000
v -72.58262634 -26.99193192 -58.00000000
v -71.11260986 -30.05203819 -59.00000000
v -77.86664581 -21.25000000 -59.00000000
v -82.11241913 -10.99980927 -59.00000000
v -83.56056976 -0.00000001 -59.00000000
v -78.03816223 63.50000000 -25.74404144
v -73.70270538 63.50000000 -19.25557327
v -26.50728989 63.50000000 27.92147446
v -16.94182205 63.50000000 34.57197571
v 5.85482931 62.50000000 37.04011536
v -5.82501173 63.50000000 38.05677414
v 17.00389671 62.50000000 33.42333984
v 16.94200516 63.50000000 34.57197571
v 5.82519484 63.50000000 38.05677414
v 30.34852409 62.50000000 22.02776337
v 22.02785492 62.50000000 30.34843254
v 26.50747299 63.50000000 27.92147446
v 27.92156601 63.50000000 26.50738144
v 34.57206726 63.50000000 16.94191360
v 38.05686569 63.50000000 5.82510328
v 38.05686569 63.50000000 -5.82510328
v -4.25448942 -21.25000000 -67.00000000
v -11.00853062 -30.05203819 -67.00000000
v -19.81056976 -36.80607986 -67.00000000
v -30.06076050 -41.05184937 -67.00000000
v -41.06056976 -42.50000000 -67.00000000
v -52.06037903 -41.05184555 -67.00000000
v -62.31056976 -36.80607986 -67.00000000
v -71.11260986 -30.05203819 -67.00000000
v -77.86664581 -21.25000000 -67.00000000
v -82.11241913 -10.99980927 -67.00000000
v -83.56056976 -0.00000001 -67.00000000
v -27.93062592 63.50000000 26.51650429
v -27.22352028 66.50000000 27.22361183
v -26.86767006 66.50000000 27.57486916
v -26.50728989 66.50000000 27.92147446
v 27.92156601 66.50000000 26.50738144
v 27.22370338 66.50000000 27.22361183
v 26.50747299 66.50000000 27.92147446
v -51.05301666 74.33913422 -60.01855850
v -51.05301666 74.30098724 -60.47386932
v -51.05301666 74.22354126 -60.91097260
v -31.05301857 72.65978241 -60.91097260
v -31.05301857 72.73074341 -60.59347534
v -41.01629257 73.76638794 -60.14046478
vn -0.31868863 0.28082284 -0.90530442
vn -0.46136806 -0.44623741 -0.76681920
vn -0.44501195 -0.24126876 -0.86241159
vn -0.07260043 0.39476450 -0.91590948
vn -0.20577025 0.35779529 -0.91084639
vn -0.14105720 0.38129000 -0.91363056
vn 0.13763886 0.37969385 -0.91481590
vn 0.06865929 0.39384706 -0.91660809
vn 0.20269400 0.35610735 -0.91219663
vn 0.31605816 0.27976599 -0.90655294
vn 0.45971897 -0.44312306 -0.76961056
vn 0.36153639 0.22820804 -0.90399808
vn 0.12137436 -0.65584562 -0.74507368
vn 0.31161572 -0.57968496 -0.75290172
vn 0.15815432 -0.38233734 -0.91038748
vn -0.15612884 -0.38202992 -0.91086603
vn -0.11981260 -0.65749125 -0.74387512
vn -0.31127145 -0.58212848 -0.75115679
vn -0.00187323 0.39888156 -0.91700054
vn 0.26262356 0.32269280 -0.90933944
vn 0.39766172 0.16933222 -0.90177145
vn 0.42324051 0.10479569 -0.89993629
vn 0.54606999 -0.26773888 -0.79380316
vn 0.45185124 -0.24275437 -0.85842925
vn 0.30684955 -0.33533367 -0.89072705
vn 0.01800112 -0.39082921 -0.92028718
vn -0.01681709 -0.39087838 -0.92028869
vn -0.30325785 -0.33408991 -0.89242289
vn -0.55055874 -0.27082307 -0.78964545
vn -0.56953242 -0.09455083 -0.81651269
vn -0.39965833 0.16953844 -0.90084956
vn -0.42479698 0.10466494 -0.89921787
vn -0.36389056 0.22882621 -0.90289658
vn -0.26547246 0.32414205 -0.90799576
vn -0.04627863 -0.70191243 -0.71075821
vn 0.04844270 -0.70176254 -0.71076202
vn 0.29782631 -0.87497893 -0.38172157
vn 0.07245056 -0.91961858 -0.38607329
vn 0.54559791 -0.73879334 -0.39561006
vn 0.74275899 -0.53323089 -0.40493691
vn 0.57465685 -0.09486408 -0.81287780
vn 0.85358672 -0.29476982 -0.42953517
vn 0.43737530 0.03651556 -0.89853740
vn 0.55611307 -0.07850873 -0.82739026
vn 0.87281639 -0.03294407 -0.48693557
vn 0.84220354 0.13055545 -0.52311421
vn 0.80156132 0.26107989 -0.53790031
vn 0.74428508 0.38369071 -0.54664537
vn 0.67173568 0.49674302 -0.54956124
vn 0.58496270 0.59906930 -0.54674913
vn 0.48535468 0.68913120 -0.53807902
vn 0.37419562 0.76537350 -0.52362299
vn 0.25415541 0.82427069 -0.50594748
vn 0.13021373 0.85936361 -0.49450841
vn -0.12423382 0.85289886 -0.50707937
vn 0.00446116 0.86873080 -0.49526447
vn -0.25333984 0.81538549 -0.52054339
vn -0.37670030 0.76078027 -0.52849812
vn -0.49231607 0.69026793 -0.53024058
vn -0.59839276 0.60481302 -0.52547818
vn -0.69280155 0.50529278 -0.51449512
vn -0.77389346 0.39235635 -0.49713721
vn -0.83933553 0.26740340 -0.47329832
vn -0.43841351 0.03615740 -0.89804579
vn -0.88653575 0.13209574 -0.44340172
vn -0.56917617 -0.08260887 -0.81805517
vn -0.90739861 -0.02269065 -0.41965807
vn -0.86905894 -0.27914447 -0.40842983
vn -0.74217563 -0.53463930 -0.40414867
vn -0.54438051 -0.74017305 -0.39470714
vn -0.29594060 -0.87587080 -0.38114237
vn -0.06976909 -0.91985001 -0.38601584
vn 0.13833235 0.98069853 -0.13818307
vn 0.13464386 0.97367589 -0.18391924
vn 0.10230681 0.98598626 -0.13177408
vn 0.10725522 0.97789565 -0.17948934
vn 0.08577823 0.99222504 -0.09017514
vn 0.06605824 0.99537145 -0.06979968
vn 0.11007977 0.98780722 -0.11008789
vn 0.12593644 0.98401037 -0.12595077
vn 0.12428071 0.98442904 -0.12431320
vn 0.12141691 0.98513983 -0.12148027
vn 0.11707260 0.98619299 -0.11712125
vn 0.56351905 0.80828575 -0.17064705
vn 0.16579170 0.96383430 -0.20865415
vn 0.20997730 0.95209923 -0.22229842
vn 0.23089003 0.94048086 -0.24937030
vn 0.20289287 0.95680175 -0.20824239
vn 0.24552710 0.93905794 -0.24059641
vn 0.27372754 0.92946571 -0.24731908
vn 0.39355950 0.87870857 -0.27015213
vn 0.52744769 0.80369635 -0.27544711
vn 0.91227435 0.34569831 -0.21965470
vn 0.12595286 0.98400849 -0.12594903
vn 0.55754031 0.83014662 -0.00232020
vn 0.91797054 0.39655412 -0.00865489
vn 0.07213782 0.99479920 -0.07190751
vn 0.49028879 0.85356984 0.17616873
vn 0.86323048 0.43124376 0.26241563
vn 0.07857762 0.99387135 -0.07775154
vn 0.08596318 0.99275943 -0.08389901
vn 0.09309623 0.99163510 -0.08940315
vn 0.09724714 0.99088230 -0.09324841
vn 0.09974924 0.99025881 -0.09714723
vn 0.10120536 0.98983151 -0.09995523
vn 0.09911776 0.99013681 -0.09901901
vn 0.10438597 0.98911334 -0.10372260
vn 0.11050919 0.98780805 -0.10964932
vn 0.11657536 0.98634574 -0.11632828
vn 0.12141455 0.98515215 -0.12138262
vn 0.12399064 0.98450668 -0.12398754
vn 0.03988942 0.99841240 -0.03976818
vn 0.36301073 0.91074746 0.19688137
vn 0.04724811 0.99778663 -0.04679163
vn 0.05256230 0.99724631 -0.05231635
vn 0.05656292 0.99679679 -0.05654027
vn 0.05804052 0.99664943 -0.05762999
vn 0.06217660 0.99613339 -0.06206717
vn 0.06401146 0.99589668 -0.06397135
vn 0.06604726 0.99562826 -0.06604643
vn 0.00351707 0.99998787 -0.00344920
vn 0.35574527 0.86382067 0.35673400
vn 0.74973617 0.37025784 0.54845676
vn 0.02343123 0.99945201 -0.02338076
vn 0.02005306 0.99960574 -0.01965293
vn 0.00756076 0.99994559 -0.00718744
vn 0.01318641 0.99984133 -0.01197646
vn 0.01779757 0.99970255 -0.01667516
vn -0.01958063 0.99960930 0.01994615
vn 0.19923411 0.91308165 0.35579161
vn 0.54423698 0.36851473 0.75365974
vn -0.01705938 0.99969184 0.01803325
vn -0.01446836 0.99976914 0.01588480
vn -0.01124603 0.99986019 0.01237431
vn -0.00658620 0.99995358 0.00703345
vn -0.00078433 0.99999938 0.00079162
vn -0.06543413 0.99570885 0.06543902
vn 0.17940837 0.85625525 0.48439610
vn -0.05234559 0.99724025 0.05264803
vn -0.05661635 0.99678821 0.05663788
vn -0.05762643 0.99664974 0.05803872
vn -0.04677546 0.99777955 0.04741334
vn -0.03958809 0.99842389 0.03978096
vn -0.02247217 0.99949577 0.02243218
vn -0.06219379 0.99611610 0.06232702
vn -0.09368646 0.99117891 0.09374012
vn 0.02528367 0.86953588 0.49322215
vn 0.29547662 0.36334610 0.88355712
vn -0.09197385 0.99149337 0.09209624
vn -0.08903300 0.99201349 0.08934405
vn -0.08383665 0.99287671 0.08465959
vn -0.07842783 0.99376386 0.07926195
vn -0.07444482 0.99441736 0.07478017
vn -0.07084795 0.99496170 0.07093510
vn -0.12562547 0.98409132 0.12562852
vn -0.01534523 0.83674454 0.54737838
vn -0.12427373 0.98443352 0.12428470
vn -0.12139725 0.98514402 0.12146590
vn -0.11633980 0.98633264 0.11667462
vn -0.11014817 0.98774257 0.11059836
vn -0.10406864 0.98909697 0.10419650
vn -0.09954611 0.99003996 0.09955627
vn -0.09641978 0.99065994 0.09641630
vn -0.09513002 0.99090787 0.09514135
vn -0.46684664 0.87706658 0.11317430
vn -0.18014851 0.82275886 0.53908660
vn -0.00369418 0.38899695 0.92123164
vn -0.12947405 0.98309134 0.12949085
vn -0.49288671 0.82387463 0.27980938
vn -0.31895328 0.80557710 0.49931388
vn -0.25963343 0.33898105 0.90425789
vn -0.49641892 0.82589661 0.26732574
vn -0.49942542 0.82809415 0.25462585
vn -0.50194417 0.83048605 0.24154704
vn -0.50405387 0.83300784 0.22809567
vn -0.50572400 0.83563903 0.21436102
vn -0.50699060 0.83829733 0.20054456
vn -0.50780000 0.84102023 0.18661223
vn -0.50807999 0.84384724 0.17255888
vn -0.49807960 0.85414908 0.14948601
vn -0.41502795 0.81132617 0.41170578
vn -0.40028023 0.80566698 0.43666516
vn -0.49208631 0.30700869 0.81461446
vn -0.42171559 0.81016401 0.40717348
vn -0.42911513 0.81026781 0.39915697
vn -0.43606811 0.81065345 0.39075002
vn -0.44261281 0.81125535 0.38204536
vn -0.44872256 0.81205278 0.37311975
vn -0.45442474 0.81301033 0.36402248
vn -0.45996637 0.81397888 0.35478066
vn -0.46542471 0.81498235 0.34522980
vn -0.47087385 0.81599942 0.33529504
vn -0.47594135 0.81723046 0.32498338
vn -0.48046332 0.81866995 0.31453855
vn -0.48475683 0.82023503 0.30368620
vn -0.48895940 0.82196564 0.29204656
vn -0.63776565 0.31680760 0.70205977
vn -0.67711020 0.30966403 0.66755521
vn -0.69259138 0.30731988 0.65258844
vn -0.71273005 0.30358138 0.63234027
vn -0.73297551 0.29748549 0.61175917
vn -0.75335116 0.28894521 0.59073911
vn -0.77387103 0.27778533 0.56917390
vn -0.78951996 0.27253600 0.54989305
vn -0.80175237 0.28082114 0.52757238
vn -0.81423368 0.29237496 0.50153803
vn -0.82653078 0.30148217 0.47534763
vn -0.83860044 0.30821041 0.44917217
vn -0.85041388 0.31287804 0.42296994
vn -0.86252208 0.31524291 0.39582517
vn -0.87533069 0.31504410 0.36680159
vn -0.88843505 0.31202682 0.33663396
vn -0.90143324 0.30618913 0.30604956
vn -0.91163126 0.30290834 0.27780386
vn -0.91789016 0.30802766 0.25019316
vn -0.92273196 0.31677654 0.21958676
vn -0.92662932 0.32515329 0.18876822
vn -0.92943454 0.33342134 0.15805585
vn -0.93117286 0.34158790 0.12741590
vn -0.93187643 0.34960925 0.09684881
vn -0.93070832 0.35896142 0.07020490
vn -0.08951656 0.99195631 0.08949562
vn -0.44138580 0.89354606 0.08218283
vn -0.92464278 0.37746707 0.05054053
vn -0.09386012 0.99115950 0.09377167
vn -0.09746094 0.99047536 0.09726217
vn -0.09911460 0.99013696 0.09902064
vn -0.09202021 0.99150091 0.09196865
vn -0.12608703 0.98398259 0.12601712
vn -0.10415115 0.98912780 0.10382065
vn -0.11047988 0.98777478 0.10997809
vn -0.11668590 0.98633378 0.11631885
vn -0.12155052 0.98513607 0.12137705
vn -0.12438160 0.98442071 0.12427826
vn -0.04699506 0.99788135 0.04499201
vn -0.03960301 0.99541513 -0.08706504
vn -0.43513753 0.89764063 0.06997592
vn -0.05691382 0.99685304 0.05517995
vn -0.06235532 0.99613100 0.06192617
vn -0.06023358 0.99636550 0.06023047
vn -0.06230764 0.99611366 0.06225212
vn -0.06403001 0.99589839 0.06392622
vn -0.06693248 0.99552413 0.06672144
vn -0.07171482 0.99486762 0.07138213
vn -0.07822191 0.99387229 0.07809736
vn -0.08320115 0.99305396 0.08319492
vn -0.00713305 0.99995703 0.00592015
vn 0.00157961 0.99849943 -0.05473931
vn -0.42750614 0.90384474 0.01741238
vn 0.03536872 0.99786257 -0.05494856
vn -0.43696984 0.89073200 -0.12511542
vn -0.00084668 0.99999929 0.00084046
vn 0.00109448 0.99999854 -0.00130937
vn -0.01564471 0.99975655 0.01555935
vn -0.00339601 0.99998851 0.00338204
vn -0.00715339 0.99994886 0.00714883
vn -0.01226859 0.99984974 0.01224644
vn 0.01561563 0.99975594 -0.01562736
vn 0.01394665 0.99980509 -0.01397431
vn 0.01107763 0.99987643 -0.01115432
vn 0.00650244 0.99995661 -0.00667039
vn 0.05072727 0.99740314 -0.05112452
vn 0.05564734 0.99677747 -0.05777577
vn 0.06546692 0.99570453 -0.06547187
vn 0.06087643 0.99628707 -0.06087799
vn 0.06243731 0.99609193 -0.06246962
vn 0.08401477 0.99291167 -0.08407097
vn 0.07860625 0.99378716 -0.07879177
vn 0.07452779 0.99441832 -0.07468471
vn 0.07090225 0.99495709 -0.07094550
vn 0.10397805 0.98911484 -0.10411722
vn 0.09916327 0.99010908 -0.09925050
vn 0.09698072 0.99053361 -0.09714891
vn 0.09371860 0.99117275 -0.09377311
vn 0.09196493 0.99150444 -0.09198590
vn 0.09044669 0.99178543 -0.09044919
vn 0.09449432 0.99103060 -0.09449432
vn 0.09311909 0.99129091 -0.09311909
vn 0.09188910 0.99152054 -0.09188805
vn 0.09070956 0.99173765 -0.09070948
vn 0.09004359 0.99185901 -0.09004359
vn 0.08545700 0.99267025 -0.08545683
vn 0.07943180 0.99367052 -0.07943225
vn 0.07694772 0.99406150 -0.07694659
vn 0.08261494 0.99315131 -0.08261503
vn 0.07227030 0.99476327 -0.07227067
vn 0.07466502 0.99441033 -0.07465403
vn 0.07014733 0.99506726 -0.07014627
vn 0.06621345 0.99560611 -0.06621363
vn 0.06542988 0.99570973 -0.06542978
vn 0.06239397 0.99609922 -0.06239664
vn 0.06401364 0.99589374 -0.06401487
vn 0.09378888 0.99116458 -0.09378929
vn 0.09436055 0.99105569 -0.09436476
vn 0.09643945 0.99065500 -0.09644741
vn -0.09449438 0.99103059 0.09449438
vn -0.09311908 0.99129091 0.09311908
vn -0.09188910 0.99152054 0.09188805
vn -0.09070956 0.99173765 0.09070948
vn -0.08903962 0.99204008 0.08904168
vn -0.08458542 0.99281953 0.08458542
vn -0.07943194 0.99367050 0.07943239
vn -0.07694786 0.99406148 0.07694673
vn -0.08261053 0.99315205 0.08261062
vn -0.07227025 0.99476327 0.07227062
vn -0.07466411 0.99441033 0.07465492
vn -0.07008902 0.99507562 0.07008593
vn -0.06611681 0.99561897 0.06611681
vn -0.06542995 0.99570973 0.06542974
vn -0.06239396 0.99609922 0.06239663
vn -0.06401342 0.99589374 0.06401509
vn -0.09436071 0.99105566 0.09436491
vn -0.09378864 0.99116462 0.09378906
vn -0.43032620 0.86668359 -0.25234681
vn -0.73681728 0.67399169 0.05324932
vn -0.91647493 0.40004141 0.00636998
vn -0.91436454 0.38637685 -0.12103890
vn -0.99652303 0.07109471 -0.04344421
vn 0.82783644 -0.55062780 0.10721876
vn -0.71365418 -0.31260979 0.62687545
vn 0.66645511 -0.70860712 0.23176179
vn 0.45644813 -0.83234736 0.31440894
vn -0.00883125 -0.69040596 0.72336824
vn 0.22860566 -0.90330583 0.36301245
vn -0.21086063 -0.65632088 0.72441749
vn -0.00000015 -0.92828249 0.37187582
vn -0.40322230 -0.58527186 0.70346900
vn -0.44729175 -0.80516806 0.38940272
vn -0.22429270 -0.89607600 0.38306735
vn -0.57325673 -0.46939830 0.67159657
vn -0.64486531 -0.66133089 0.38313208
vn -0.80199146 -0.47378331 0.36378437
vn -0.91095781 -0.26830291 0.31332000
vn -0.98337007 -0.06834953 0.16826063
vn -0.90331507 -0.09475776 0.41838123
vn -0.74896276 -0.14123950 0.64738412
vn -0.61293615 -0.20835496 0.76216631
vn -0.39514237 -0.28911244 0.87193836
vn 0.19199029 -0.69960312 0.68825519
vn -0.12522953 -0.34300908 0.93094701
vn 0.35026533 -0.69988514 0.62247490
vn 0.39929160 -0.36766358 0.83987482
vn 0.14633287 -0.36671821 0.91875157
vn 0.65823631 -0.58889692 0.46896201
vn 0.45345393 -0.61278488 0.64720493
vn 0.61015701 -0.36448149 0.70346405
vn 0.70286179 -0.35835906 0.61446244
vn 0.84680851 -0.32377884 0.42199835
vn 0.94503507 -0.28080922 0.16749599
vn 0.97735037 -0.19879938 -0.07256077
vn 0.85253261 -0.52219845 -0.02229174
vn 0.70701563 -0.70697357 -0.01781193
vn 0.49986055 -0.86592153 -0.01786972
vn 0.25861479 -0.96580872 -0.01821851
vn -0.00001426 -0.99982967 -0.01845606
vn -0.25860704 -0.96581022 -0.01824892
vn -0.49985563 -0.86592415 -0.01788051
vn -0.70701375 -0.70697549 -0.01781057
vn -0.86594840 -0.49980792 -0.01803923
vn -0.96581824 -0.25855450 -0.01856605
vn -0.99912642 -0.03699418 -0.01943775
vn -0.69691047 -0.14580371 0.70218023
vn -0.70457063 -0.00065207 0.70963357
vn -0.69755226 0.00098479 0.71653323
vn -0.63557488 0.03293497 0.77133641
vn 0.73587310 0.01483955 0.67695685
vn 0.70653561 0.02447330 0.70725419
vn 0.67634467 0.01623625 0.73640632
vn 0.03693019 0.99605380 -0.08070307
vn 0.02326569 0.99062093 -0.13464353
vn 0.01454594 0.97579913 -0.21818450
vn 0.11409625 0.96491703 -0.23646811
vn 0.11015933 0.97191270 -0.20796787
vn 0.07025370 0.98415586 -0.16279332
f 318//318 67//67 361//361
f 361//361 317//317 318//318
f 65//65 67//67 318//318
f 318//318 317//317 65//65
f 317//317 63//63 65//65
f 338//338 331//331 327//327
f 96//96 99//99 349//349
f 349//349 99//99 348//348
f 338//338 325//325 340//340
f 360//360 361//361 67//67
f 251//251 314//314 317//317
f 58//58 314//314 57//57
f 59//59 314//314 58//58
f 60//60 314//314 59//59
f 60//60 34//34 1//1
f 59//59 34//34 60//60
f 32//32 65//65 63//63
f 95//95 99//99 96//96
f 328//328 325//325 338//338
f 338//338 327//327 328//328
f 328//328 327//327 331//331
f 348//348 347//347 344//344
f 348//348 344//344 321//321
f 321//321 344//344 347//347
f 339//339 342//342 343//343
f 343//343 340//340 323//323
f 335//335 336//336 204//204
f 180//180 165//165 224//224
f 68//68 360//360 67//67
f 29//29 69//69 68//68
f 333//333 335//335 334//334
f 336//336 335//335 333//333
f 13//13 37//37 38//38
f 57//57 314//314 55//55
f 314//314 251//251 371//371
f 96//96 349//349 350//350
f 57//57 55//55 4//4
f 4//4 55//55 19//19
f 5//5 34//34 59//59
f 59//59 58//58 5//5
f 61//61 60//60 1//1
f 317//317 314//314 61//61
f 314//314 60//60 61//61
f 167//167 340//340 343//343
f 99//99 95//95 98//98
f 358//358 69//69 70//70
f 346//346 342//342 345//345
f 319//319 349//349 348//348
f 348//348 321//321 319//319
f 345//345 342//342 341//341
f 334//334 335//335 214//214
f 334//334 224//224 316//316
f 316//316 361//361 334//334
f 317//317 361//361 316//316
f 316//316 251//251 317//317
f 316//316 249//249 251//251
f 316//316 165//165 223//223
f 316//316 224//224 165//165
f 180//180 224//224 221//221
f 221//221 224//224 334//334
f 204//204 336//336 203//203
f 200//200 201//201 336//336
f 364//364 197//197 363//363
f 365//365 197//197 364//364
f 359//359 68//68 69//69
f 360//360 68//68 359//359
f 69//69 358//358 359//359
f 330//330 331//331 338//338
f 37//37 39//39 353//353
f 25//25 39//39 14//14
f 14//14 39//39 37//37
f 19//19 55//55 56//56
f 56//56 54//54 19//19
f 56//56 55//55 314//314
f 314//314 371//371 56//56
f 10//10 20//20 50//50
f 50//50 20//20 51//51
f 93//93 350//350 45//45
f 96//96 350//350 93//93
f 236//236 371//371 251//251
f 251//251 249//249 236//236
f 6//6 58//58 57//57
f 6//6 5//5 58//58
f 57//57 4//4 6//6
f 31//31 32//32 63//63
f 30//30 68//68 67//67
f 67//67 66//66 30//30
f 29//29 68//68 30//30
f 67//67 65//65 64//64
f 64//64 66//66 67//67
f 65//65 32//32 64//64
f 343//343 342//342 148//148
f 148//148 167//167 343//343
f 338//338 340//340 171//171
f 340//340 167//167 171//171
f 167//167 148//148 156//156
f 156//156 168//168 165//165
f 87//87 54//54 85//85
f 325//325 328//328 329//329
f 326//326 323//323 329//329
f 329//329 340//340 325//325
f 329//329 323//323 340//340
f 71//71 356//356 357//357
f 70//70 71//71 357//357
f 357//357 358//358 70//70
f 355//355 356//356 72//72
f 38//38 355//355 72//72
f 72//72 356//356 71//71
f 71//71 17//17 72//72
f 322//322 321//321 347//347
f 347//347 346//346 322//322
f 322//322 346//346 345//345
f 345//345 341//341 322//322
f 322//322 341//341 342//342
f 347//347 366//366 367//367
f 367//367 346//346 347//347
f 213//213 335//335 212//212
f 213//213 214//214 335//335
f 215//215 216//216 334//334
f 334//334 214//214 215//215
f 205//205 335//335 204//204
f 205//205 206//206 335//335
f 207//207 208//208 335//335
f 335//335 206//206 207//207
f 212//212 335//335 211//211
f 335//335 210//210 211//211
f 335//335 208//208 209//209
f 209//209 210//210 335//335
f 336//336 201//201 202//202
f 202//202 203//203 336//336
f 336//336 198//198 199//199
f 199//199 200//200 336//336
f 187//187 202//202 201//201
f 337//337 364//364 363//363
f 365//365 364//364 337//337
f 337//337 330//330 338//338
f 165//165 233//233 232//232
f 331//331 330//330 332//332
f 330//330 337//337 332//332
f 37//37 353//353 354//354
f 38//38 37//37 354//354
f 354//354 355//355 38//38
f 352//352 353//353 39//39
f 39//39 40//40 352//352
f 37//37 13//13 15//15
f 15//15 14//14 37//37
f 38//38 72//72 26//26
f 26//26 72//72 27//27
f 374//374 56//56 371//371
f 54//54 56//56 374//374
f 51//51 20//20 9//9
f 10//10 50//50 49//49
f 45//45 44//44 43//43
f 238//238 236//236 249//249
f 249//249 316//316 315//315
f 315//315 237//237 249//249
f 315//315 316//316 223//223
f 223//223 237//237 315//315
f 246//246 237//237 223//223
f 33//33 61//61 1//1
f 62//62 63//63 317//317
f 62//62 31//31 63//63
f 317//317 61//61 62//62
f 62//62 33//33 31//31
f 61//61 33//33 62//62
f 338//338 171//171 183//183
f 183//183 197//197 365//365
f 182//182 197//197 183//183
f 183//183 337//337 338//338
f 365//365 337//337 183//183
f 147//147 148//148 138//138
f 147//147 156//156 148//148
f 147//147 138//138 151//151
f 160//160 156//156 147//147
f 182//182 183//183 170//170
f 170//170 183//183 171//171
f 166//166 171//171 167//167
f 167//167 156//156 166//166
f 166//166 170//170 171//171
f 166//166 165//165 180//180
f 166//166 156//156 165//165
f 99//99 98//98 123//123
f 123//123 367//367 366//366
f 348//348 99//99 123//123
f 123//123 347//347 348//348
f 123//123 366//366 347//347
f 18//18 71//71 70//70
f 35//35 17//17 27//27
f 27//27 72//72 35//35
f 35//35 72//72 17//17
f 346//346 367//367 368//368
f 223//223 225//225 228//228
f 228//228 222//222 223//223
f 228//228 298//298 299//299
f 299//299 222//222 228//228
f 334//334 216//216 217//217
f 180//180 221//221 220//220
f 220//220 221//221 334//334
f 334//334 219//219 220//220
f 203//203 202//202 188//188
f 202//202 187//187 188//188
f 188//188 187//187 182//182
f 200//200 199//199 185//185
f 362//362 363//363 336//336
f 362//362 337//337 363//363
f 164//164 147//147 146//146
f 234//234 233//233 165//165
f 159//159 232//232 233//233
f 159//159 156//156 160//160
f 160//160 232//232 159//159
f 333//333 332//332 320//320
f 336//336 333//333 320//320
f 320//320 362//362 336//336
f 320//320 332//332 337//337
f 337//337 362//362 320//320
f 324//324 339//339 343//343
f 342//342 339//339 324//324
f 324//324 322//322 342//342
f 324//324 323//323 326//326
f 343//343 323//323 324//324
f 351//351 352//352 40//40
f 36//36 26//26 13//13
f 36//36 13//13 38//38
f 38//38 26//26 36//36
f 54//54 374//374 372//372
f 74//74 85//85 372//372
f 372//372 85//85 54//54
f 19//19 54//54 8//8
f 47//47 22//22 21//21
f 46//46 43//43 22//22
f 46//46 22//22 47//47
f 47//47 93//93 46//46
f 46//46 93//93 45//45
f 45//45 43//43 46//46
f 51//51 9//9 52//52
f 52//52 91//91 51//51
f 92//92 49//49 50//50
f 93//93 49//49 92//92
f 92//92 50//50 51//51
f 51//51 91//91 92//92
f 53//53 54//54 87//87
f 91//91 52//52 53//53
f 53//53 8//8 54//54
f 85//85 92//92 88//88
f 88//88 92//92 91//91
f 138//138 130//130 142//142
f 223//223 151//151 301//301
f 301//301 246//246 223//223
f 239//239 238//238 249//249
f 237//237 246//246 245//245
f 245//245 306//306 237//237
f 223//223 230//230 227//227
f 127//127 126//126 122//122
f 16//16 17//17 71//71
f 71//71 18//18 16//16
f 70//70 69//69 2//2
f 367//367 123//123 131//131
f 131//131 368//368 367//367
f 131//131 122//122 130//130
f 123//123 122//122 131//131
f 131//131 148//148 342//342
f 342//342 346//346 131//131
f 346//346 368//368 131//131
f 138//138 148//148 131//131
f 131//131 130//130 138//138
f 24//24 23//23 40//40
f 45//45 350//350 42//42
f 350//350 351//351 42//42
f 40//40 23//23 42//42
f 42//42 351//351 40//40
f 218//218 219//219 334//334
f 334//334 217//217 218//218
f 204//204 203//203 189//189
f 203//203 188//188 189//189
f 189//189 188//188 182//182
f 201//201 200//200 186//186
f 200//200 185//185 186//186
f 186//186 187//187 201//201
f 182//182 187//187 186//186
f 186//186 185//185 182//182
f 184//184 199//199 198//198
f 184//184 185//185 199//199
f 297//297 228//228 225//225
f 298//298 228//228 297//297
f 299//299 298//298 150//150
f 150//150 151//151 223//223
f 150//150 147//147 151//151
f 165//165 168//168 229//229
f 229//229 234//234 165//165
f 168//168 156//156 229//229
f 234//234 229//229 157//157
f 156//156 159//159 158//158
f 158//158 159//159 233//233
f 158//158 157//157 156//156
f 233//233 234//234 158//158
f 234//234 157//157 158//158
f 250//250 78//78 374//374
f 250//250 248//248 124//124
f 250//250 112//112 114//114
f 114//114 262//262 250//250
f 10//10 49//49 12//12
f 48//48 93//93 47//47
f 47//47 21//21 48//48
f 48//48 49//49 93//93
f 21//21 12//12 48//48
f 48//48 12//12 49//49
f 96//96 93//93 84//84
f 93//93 92//92 84//84
f 84//84 95//95 96//96
f 84//84 92//92 85//85
f 84//84 73//73 95//95
f 84//84 85//85 74//74
f 74//74 73//73 84//84
f 89//89 53//53 87//87
f 7//7 52//52 9//9
f 7//7 53//53 52//52
f 8//8 53//53 7//7
f 124//124 248//248 125//125
f 236//236 238//238 235//235
f 139//139 235//235 238//238
f 142//142 235//235 139//139
f 138//138 142//142 139//139
f 244//244 239//239 249//249
f 249//249 237//237 244//244
f 237//237 306//306 244//244
f 304//304 245//245 246//246
f 304//304 301//301 151//151
f 246//246 301//301 304//304
f 151//151 138//138 152//152
f 160//160 147//147 161//161
f 231//231 230//230 223//223
f 231//231 232//232 160//160
f 160//160 161//161 231//231
f 231//231 161//161 230//230
f 223//223 165//165 231//231
f 165//165 232//232 231//231
f 163//163 147//147 164//164
f 163//163 227//227 147//147
f 260//260 126//126 127//127
f 260//260 259//259 248//248
f 127//127 259//259 260//260
f 74//74 75//75 82//82
f 82//82 75//75 83//83
f 83//83 75//75 109//109
f 95//95 105//105 104//104
f 108//108 105//105 95//95
f 95//95 109//109 108//108
f 108//108 75//75 79//79
f 108//108 109//109 75//75
f 28//28 18//18 70//70
f 70//70 2//2 28//28
f 3//3 69//69 29//29
f 3//3 2//2 69//69
f 11//11 24//24 40//40
f 11//11 39//39 25//25
f 11//11 40//40 39//39
f 41//41 42//42 23//23
f 41//41 44//44 45//45
f 45//45 42//42 41//41
f 190//190 205//205 204//204
f 204//204 189//189 190//190
f 190//190 189//189 182//182
f 181//181 184//184 198//198
f 198//198 197//197 181//181
f 181//181 197//197 182//182
f 182//182 185//185 181//181
f 185//185 184//184 181//181
f 313//313 297//297 225//225
f 146//146 297//297 313//313
f 225//225 296//296 313//313
f 313//313 296//296 146//146
f 298//298 297//297 149//149
f 149//149 297//297 146//146
f 149//149 150//150 298//298
f 149//149 146//146 147//147
f 147//147 150//150 149//149
f 164//164 146//146 312//312
f 312//312 296//296 164//164
f 146//146 296//296 312//312
f 300//300 222//222 299//299
f 299//299 150//150 300//300
f 223//223 222//222 300//300
f 300//300 150//150 223//223
f 155//155 229//229 156//156
f 156//156 157//157 155//155
f 155//155 157//157 229//229
f 374//374 75//75 76//76
f 76//76 75//75 74//74
f 79//79 75//75 271//271
f 271//271 108//108 79//79
f 98//98 100//100 97//97
f 78//78 292//292 264//264
f 292//292 119//119 264//264
f 115//115 262//262 114//114
f 115//115 114//114 98//98
f 98//98 117//117 115//115
f 78//78 250//250 263//263
f 263//263 250//250 262//262
f 370//370 374//374 371//371
f 371//371 236//236 370//370
f 236//236 248//248 370//370
f 91//91 53//53 90//90
f 53//53 89//89 90//90
f 90//90 88//88 91//91
f 90//90 89//89 88//88
f 86//86 89//89 87//87
f 88//88 89//89 86//86
f 87//87 85//85 86//86
f 85//85 88//88 86//86
f 127//127 122//122 128//128
f 128//128 259//259 127//127
f 143//143 142//142 130//130
f 143//143 235//235 142//142
f 143//143 130//130 236//236
f 236//236 235//235 143//143
f 238//238 239//239 140//140
f 140//140 139//139 238//238
f 140//140 239//239 240//240
f 239//239 244//244 243//243
f 302//302 304//304 151//151
f 245//245 304//304 302//302
f 151//151 152//152 302//302
f 302//302 152//152 245//245
f 306//306 245//245 303//303
f 245//245 152//152 303//303
f 154//154 305//305 153//153
f 306//306 303//303 153//153
f 153//153 303//303 152//152
f 138//138 154//154 153//153
f 153//153 152//152 138//138
f 153//153 244//244 306//306
f 153//153 305//305 244//244
f 162//162 227//227 230//230
f 230//230 161//161 162//162
f 147//147 227//227 162//162
f 162//162 161//161 147//147
f 164//164 296//296 226//226
f 226//226 163//163 164//164
f 226//226 296//296 225//225
f 227//227 163//163 226//226
f 226//226 225//225 223//223
f 223//223 227//227 226//226
f 261//261 260//260 248//248
f 126//126 260//260 261//261
f 236//236 130//130 144//144
f 130//130 122//122 133//133
f 133//133 132//132 130//130
f 247//247 248//248 236//236
f 247//247 261//261 248//248
f 253//253 261//261 247//247
f 236//236 144//144 247//247
f 74//74 82//82 81//81
f 110//110 82//82 83//83
f 83//83 109//109 110//110
f 110//110 109//109 95//95
f 95//95 104//104 103//103
f 103//103 98//98 95//95
f 103//103 102//102 98//98
f 374//374 78//78 77//77
f 77//77 75//75 374//374
f 206//206 205//205 191//191
f 205//205 190//190 191//191
f 191//191 190//190 182//182
f 373//373 372//372 374//374
f 374//374 76//76 373//373
f 74//74 372//372 373//373
f 373//373 76//76 74//74
f 105//105 108//108 107//107
f 108//108 271//271 107//107
f 288//288 78//78 98//98
f 98//98 97//97 288//288
f 118//118 117//117 98//98
f 98//98 119//119 118//118
f 98//98 78//78 289//289
f 78//78 264//264 289//289
f 290//290 119//119 98//98
f 290//290 264//264 119//119
f 290//290 289//289 264//264
f 116//116 115//115 117//117
f 262//262 115//115 116//116
f 117//117 263//263 116//116
f 116//116 263//263 262//262
f 266//266 292//292 78//78
f 78//78 263//263 266//266
f 369//369 250//250 374//374
f 374//374 370//370 369//369
f 248//248 250//250 369//369
f 369//369 370//370 248//248
f 113//113 128//128 122//122
f 113//113 123//123 98//98
f 113//113 122//122 123//123
f 125//125 128//128 113//113
f 98//98 114//114 113//113
f 114//114 112//112 113//113
f 124//124 125//125 113//113
f 113//113 250//250 124//124
f 112//112 250//250 113//113
f 258//258 125//125 248//248
f 258//258 128//128 125//125
f 248//248 259//259 258//258
f 259//259 128//128 258//258
f 141//141 140//140 240//240
f 138//138 139//139 141//141
f 139//139 140//140 141//141
f 239//239 243//243 242//242
f 138//138 311//311 137//137
f 307//307 243//243 244//244
f 307//307 305//305 154//154
f 244//244 305//305 307//307
f 307//307 154//154 138//138
f 138//138 243//243 307//307
f 121//121 253//253 122//122
f 121//121 261//261 253//253
f 121//121 122//122 126//126
f 126//126 261//261 121//121
f 130//130 132//132 129//129
f 129//129 144//144 130//130
f 129//129 247//247 144//144
f 132//132 133//133 254//254
f 133//133 247//247 254//254
f 254//254 129//129 132//132
f 247//247 129//129 254//254
f 80//80 81//81 95//95
f 80//80 73//73 74//74
f 74//74 81//81 80//80
f 111//111 81//81 82//82
f 82//82 110//110 111//111
f 95//95 81//81 111//111
f 111//111 110//110 95//95
f 272//272 271//271 75//75
f 75//75 77//77 272//272
f 272//272 107//107 271//271
f 285//285 283//283 100//100
f 192//192 207//207 206//206
f 206//206 191//191 192//192
f 182//182 170//170 192//192
f 192//192 191//191 182//182
f 287//287 97//97 100//100
f 100//100 284//284 287//287
f 287//287 284//284 269//269
f 286//286 288//288 97//97
f 269//269 284//284 268//268
f 268//268 77//77 78//78
f 78//78 269//269 268//268
f 100//100 283//283 268//268
f 268//268 284//284 100//100
f 98//98 289//289 120//120
f 120//120 290//290 98//98
f 289//289 290//290 120//120
f 292//292 266//266 291//291
f 291//291 119//119 292//292
f 291//291 118//118 119//119
f 117//117 118//118 291//291
f 240//240 239//239 241//241
f 239//239 242//242 241//241
f 308//308 243//243 138//138
f 138//138 137//137 308//308
f 309//309 242//242 243//243
f 243//243 308//308 309//309
f 309//309 308//308 137//137
f 311//311 242//242 309//309
f 309//309 137//137 311//311
f 122//122 253//253 136//136
f 253//253 252//252 136//136
f 134//134 133//133 122//122
f 122//122 135//135 134//134
f 253//253 247//247 255//255
f 255//255 252//252 253//253
f 255//255 136//136 252//252
f 255//255 135//135 122//122
f 122//122 136//136 255//255
f 95//95 73//73 94//94
f 94//94 80//80 95//95
f 73//73 80//80 94//94
f 77//77 274//274 273//273
f 273//273 272//272 77//77
f 105//105 107//107 106//106
f 107//107 272//272 106//106
f 281//281 77//77 102//102
f 281//281 276//276 77//77
f 101//101 285//285 100//100
f 98//98 102//102 101//101
f 101//101 100//100 98//98
f 102//102 77//77 101//101
f 208//208 207//207 193//193
f 207//207 192//192 193//193
f 193//193 192//192 170//170
f 270//270 286//286 269//269
f 270//270 269//269 78//78
f 78//78 288//288 270//270
f 288//288 286//286 270//270
f 77//77 268//268 267//267
f 283//283 285//285 267//267
f 267//267 268//268 283//283
f 117//117 291//291 265//265
f 265//265 291//291 266//266
f 265//265 263//263 117//117
f 265//265 266//266 263//263
f 145//145 311//311 138//138
f 138//138 141//141 145//145
f 310//310 242//242 311//311
f 310//310 241//241 242//242
f 311//311 145//145 310//310
f 310//310 145//145 141//141
f 310//310 141//141 240//240
f 240//240 241//241 310//310
f 257//257 247//247 133//133
f 133//133 134//134 257//257
f 257//257 134//134 247//247
f 247//247 134//134 256//256
f 256//256 134//134 135//135
f 256//256 255//255 247//247
f 135//135 255//255 256//256
f 278//278 293//293 274//274
f 104//104 293//293 278//278
f 278//278 103//103 104//104
f 278//278 279//279 103//103
f 280//280 279//279 276//276
f 280//280 281//281 102//102
f 276//276 281//281 280//280
f 102//102 103//103 280//280
f 103//103 279//279 280//280
f 277//277 104//104 105//105
f 105//105 273//273 277//277
f 277//277 293//293 104//104
f 274//274 293//293 277//277
f 272//272 273//273 295//295
f 295//295 106//106 272//272
f 295//295 273//273 105//105
f 105//105 106//106 295//295
f 194//194 209//209 208//208
f 208//208 193//193 194//194
f 194//194 193//193 170//170
f 285//285 101//101 282//282
f 282//282 267//267 285//285
f 282//282 101//101 77//77
f 77//77 267//267 282//282
f 275//275 278//278 274//274
f 279//279 278//278 275//275
f 275//275 274//274 77//77
f 77//77 276//276 275//275
f 276//276 279//279 275//275
f 294//294 273//273 274//274
f 274//274 277//277 294//294
f 294//294 277//277 273//273
f 210//210 209//209 195//195
f 209//209 194//194 195//195
f 195//195 194//194 170//170
f 196//196 211//211 210//210
f 210//210 195//195 196//196
f 196//196 195//195 170//170
f 212//212 211//211 169//169
f 211//211 196//196 169//169
f 169//169 196//196 170//170
f 172//172 213//213 212//212
f 212//212 169//169 172//172
f 172//172 169//169 170//170
f 214//214 213//213 173//173
f 213//213 172//172 173//173
f 173//173 172//172 170//170
f 174//174 215//215 214//214
f 214//214 173//173 174//174
f 174//174 173//173 170//170
f 216//216 215//215 175//175
f 215//215 174//174 175//175
f 175//175 174//174 170//170
f 176//176 217//217 216//216
f 216//216 175//175 176//176
f 176//176 175//175 170//170
f 177//177 218//218 217//217
f 217//217 176//176 177//177
f 170//170 166//166 177//177
f 177//177 176//176 170//170
f 219//219 218//218 178//178
f 218//218 177//177 178//178
f 178//178 177//177 166//166
f 179//179 220//220 219//219
f 219//219 178//178 179//179
f 180//180 220//220 179//179
f 179//179 166//166 180//180
f 179//179 178//178 166//166
f 336//336 363//363 197//197
f 197//197 198//198 336//336
f 361//361 360//360 333//333
f 334//334 361//361 333//333
f 329//329 356//356 355//355
f 329//329 355//355 326//326
f 356//356 329//329 357//357
f 357//357 329//329 328//328
f 357//357 328//328 331//331
f 331//331 358//358 357//357
f 332//332 358//358 331//331
f 332//332 359//359 358//358
f 332//332 333//333 360//360
f 360//360 359//359 332//332
f 352//352 322//322 353//353
f 321//321 322//322 352//352
f 326//326 355//355 324//324
f 355//355 354//354 324//324
f 353//353 322//322 324//324
f 324//324 354//354 353//353
f 321//321 352//352 351//351
f 351//351 319//319 321//321
f 351//351 350//350 349//349
f 349//349 319//319 351//351
f 41//41 6//6 4//4
f 1//1 34//34 41//41
f 41//41 43//43 44//44
f 41//41 64//64 32//32
f 17//17 16//16 41//41
f 34//34 5//5 41//41
f 25//25 14//14 41//41
f 41//41 20//20 10//10
f 41//41 4//4 19//19
f 19//19 8//8 41//41
f 29//29 30//30 41//41
f 41//41 33//33 1//1
f 41//41 15//15 13//13
f 13//13 26//26 41//41
f 18//18 28//28 41//41
f 5//5 6//6 41//41
f 32//32 31//31 41//41
f 41//41 30//30 66//66
f 66//66 64//64 41//41
f 27//27 17//17 41//41
f 14//14 15//15 41//41
f 41//41 26//26 27//27
f 41//41 9//9 20//20
f 22//22 43//43 41//41
f 31//31 33//33 41//41
f 41//41 3//3 29//29
f 41//41 11//11 25//25
f 10//10 12//12 41//41
f 41//41 21//21 22//22
f 41//41 16//16 18//18
f 41//41 7//7 9//9
f 23//23 24//24 41//41
f 41//41 12//12 21//21
f 8//8 7//7 41//41
f 41//41 28//28 2//2
f 2//2 3//3 41//41
f 24//24 11//11 41//41
f 286//286 287//287 269//269
f 97//97 287//287 286//286

