# https://github.com/mikedh/trimesh
v -0.05685696 69.57216644 -60.16287231
v -16.55167007 -31.43503761 -60.50000000
v -5.75021982 -35.04043961 -60.50000000
v 5.63707113 -35.04043961 -60.50000000
v 16.43852425 -31.43504333 -60.50000000
v -10.05656815 74.17606354 -51.50000000
v 9.94343185 74.17606354 -45.50000000
v 9.94343185 74.17606354 -51.50000000
v -16.08820343 -30.54853249 -51.50000000
v 15.97505665 -30.54853821 -51.50000000
v 25.54272461 -24.59524727 -52.50000000
v -5.59032202 -34.05287170 -51.50000000
v 5.47717333 -34.05287552 -51.50000000
v 16.43852425 -31.43504333 -52.50000000
v 5.63707113 -35.04043961 -52.50000000
v -5.75021982 -35.04043961 -52.50000000
v -16.55167007 -31.43503761 -52.50000000
v -25.65586853 -24.59523964 -52.50000000
v -32.12611008 -15.22480011 -52.50000000
v 38.44343185 67.77040100 -0.00000000
v 38.44343185 67.77040100 -51.50000000
v 38.43044281 66.50000000 0.99991554
v 36.65122223 68.30976105 11.60982418
v 37.74584961 68.72357941 -0.00000000
v 35.98614120 69.26765442 11.30672455
v 38.44343185 66.55279541 -55.91970444
v 37.74584961 68.72357941 -51.50000000
v 37.70945358 67.38285065 -56.40998840
v 37.70800781 67.33003235 -56.49893951
v -38.55656815 67.77040100 -51.50000000
v -38.55656815 66.56279755 -55.90260315
v -37.82291794 67.39394379 -56.39101791
v -37.82116318 67.33011627 -56.49879837
v -38.55656815 67.77040100 -0.00000000
v -37.85898972 68.72357941 -51.50000000
v -38.55331421 66.50000000 0.50043291
v -37.85898972 68.72357941 -0.00000000
v -36.73680115 68.31777954 11.69660282
v -38.54358292 66.50000000 0.99991548
v -36.48237228 63.50000000 12.46638489
v -38.54358292 63.50000000 0.99991548
v -31.08572197 63.50000000 22.79126167
v -12.52289391 63.50000000 36.42582321
v -22.84778404 63.50000000 31.02918816
v -1.05648422 63.50000000 38.48701477
v 12.40976810 63.50000000 36.42582321
v 0.94334710 63.50000000 38.48701477
v 22.73466492 63.50000000 31.02917480
v 36.36925125 63.50000000 12.46633625
v 30.97260475 63.50000000 22.79123306
v 9.15851304 74.23727303 -51.87900492
v 9.76070309 74.19060516 -44.46899033
v 8.33246426 74.29508329 -42.89693205
v -9.25494140 74.23793388 -43.73805743
v -7.55656862 74.35150146 -42.54196167
v -9.87386990 74.19060516 -44.46907425
v -10.05656815 74.17606354 -45.50000000
v -0.01544363 74.57669830 37.49998856
v -2.49645925 74.55289459 21.24515343
v -3.05656862 74.54070282 19.50000000
v -2.47489905 74.55330658 17.72488213
v -6.64828157 74.40277863 3.57698298
v -1.02666712 74.57294464 22.33850479
v 0.83803523 74.57350159 22.36316872
v 11.53720951 74.03787994 35.69278336
v 1.68571055 74.56455994 21.94215965
v 2.36177945 74.55330658 21.27509499
v 2.94343138 74.54070282 19.50000000
v -0.55630672 74.57570648 7.48472643
v 2.38330460 74.55289459 17.75482178
v 2.98624371 74.53998907 -18.64948377
v 0.91341019 74.57294464 16.66145706
v -0.95120811 74.57350159 16.63683701
v -1.79881155 74.56455994 17.05781364
v -11.57113171 74.04523468 35.71800995
v -16.28458023 73.51883698 15.53441143
v -16.84514999 73.44414520 13.78858185
v -16.55656815 73.48291779 -0.00000000
v -16.26286316 73.52167511 12.01258659
v -18.66219711 73.18427277 2.86321020
v -20.53034782 72.88860321 2.83721590
v -17.81437302 73.30891418 2.44224668
v -17.15196749 73.40220168 0.40146586
v -14.81746483 73.70211029 16.62631416
v -12.10309124 73.99487305 16.23091316
v -11.42753792 74.05843353 15.56470585
v -10.84515095 74.11026001 13.78858185
v -10.99121952 74.09751892 -12.86616707
v -11.40583611 74.06041718 12.04259682
v -10.84515095 74.11026001 -13.78858185
v -11.42919731 74.05828094 -12.01102257
v -12.97764064 73.90721033 16.22106196
v -14.78487392 73.70612769 11.68529039
v -16.26301193 73.52165985 -12.01351357
v -22.19827080 72.60005951 30.39390755
v -22.55656815 72.53503418 -0.00000000
v -24.11329460 72.23995972 -51.50000000
v -21.97299747 72.64039281 -1.75537763
v -16.84514999 73.44414520 -13.78858185
v -18.58635902 73.19566345 -2.83843970
v -20.45463943 72.90115356 -2.86204863
v -16.26286316 73.52167511 -15.56457710
v -11.40583611 74.06041718 -15.53456783
v -7.55656862 74.35150146 -0.00000000
v -12.87536526 73.91767883 -16.62718010
v -14.74188137 73.71107483 -16.65106773
v 11.31440067 74.05843353 12.01245880
v 10.87856388 74.09748077 -12.86450291
v 10.73201370 74.11026001 -13.78858185
v 11.31440067 74.05843353 -15.56470585
v 10.73201370 74.11026001 13.78858185
v 11.31604195 74.05828857 -12.01092243
v 11.98995399 73.99487305 11.34625244
v 12.81244278 73.91249847 -10.93315697
v 12.83790398 73.90985870 10.92527485
v 14.61880347 73.71239191 16.61256242
v 16.14995766 73.52164459 -12.01375198
v 16.44343185 73.48291779 -0.00000000
v 16.73201370 73.44414520 -13.78858185
v 16.17144394 73.51883698 12.04275322
v 16.17144394 73.51883698 -15.53441143
v 18.54906082 73.18427277 -2.86321020
v 20.30117152 72.90867692 -0.58273289
v 17.43038972 73.34772457 -3.46215948
v 14.70432758 73.70211029 -16.62631416
v 12.83790398 73.90985870 -16.65188980
v 11.98995399 73.99487305 -16.23091316
v 16.73201370 73.44414520 13.78858185
v 22.15388489 72.58766174 30.34449768
v 18.47322083 73.19566345 2.83843970
v 22.44343185 72.53503418 -0.00000000
v 21.86608763 72.63932314 -1.36998480
v 30.65331459 70.74560547 21.86651421
v 23.63264084 72.31146240 -51.50000000
v 11.29269886 74.06041718 15.53456783
v 12.76222897 73.91767883 16.62718010
v 16.14972496 73.52167511 15.56457710
v 31.21911430 69.77532196 22.45176125
v 34.37924576 68.95333862 17.21698570
v 22.56218338 71.60258484 31.15512848
v 27.23895073 70.69165802 27.15151215
v 11.75003147 73.04161835 36.64497375
v 4.51949653 74.49335965 6.46282115
v 7.13982391 74.36938477 2.10727215
v 7.44343138 74.35150146 -0.00000000
v 7.44343138 74.35150146 -42.54196167
v 17.34517097 72.41180420 34.34282303
v -0.01468573 73.57636261 38.49997711
v -11.78249359 73.04891968 36.67086792
v -30.71667099 70.75821686 21.93520927
v -22.60529518 71.61488342 31.20584869
v -17.38186264 72.42205811 34.38145065
v -36.07242584 69.27573395 11.39130402
v -31.28151703 69.78782654 22.52226830
v -27.29083633 70.70474243 27.21295166
v -34.45507812 68.96356201 17.29139709
v -19.17270279 71.75048065 -56.50000000
v 19.05821228 71.75069427 -56.50000000
v -1.05648422 66.50000000 38.48701477
v -0.05656854 66.50000000 38.50000000
v 0.94334710 66.50000000 38.48701477
v -0.05725351 73.23696136 -56.50000000
v 7.24343157 74.36336517 -0.00000000
v 6.88459301 74.38383484 2.25990081
v 7.24343157 74.36336517 -42.67415619
v 8.92555332 74.25357056 -53.47822571
v 6.94343138 74.38055420 -54.29999924
v -7.05656862 74.38055420 -54.29999924
v -0.05656854 74.57669830 -54.29999924
v -9.03621006 74.25375366 -53.48070908
v -9.84868804 74.19258596 -51.49568789
v -8.45129941 74.29469436 -42.91610718
v -7.35656834 74.36336517 -42.67415619
v -7.35656834 74.36336517 -0.00000000
v -5.95898056 74.43727112 4.29612160
v -2.29140234 74.55672455 6.94963264
v -4.28472094 74.50534047 6.00621128
v 2.17587519 74.55677032 6.95040274
v 6.11855857 74.42458871 4.06850880
v -2.17415905 74.55876923 -21.62504387
v -0.05656854 74.57670593 -22.50000000
v 2.04470491 74.55904388 -21.64118004
v -2.99754421 74.54240576 -19.77972139
v -2.81318283 74.54630280 -18.31632805
v -2.15727425 74.55905151 -17.35826302
v -0.05656854 74.57670593 -16.50000000
v 2.06155610 74.55876160 -17.37548828
v 2.71377206 74.54600525 -18.34882164
v 2.70045614 74.54629517 -20.68271446
v 44.94343185 -19.00000000 -67.50000000
v 44.94343185 -21.00000000 -69.50000000
v 44.94343185 -21.00000000 -107.50000000
v 44.94343185 21.00000000 -107.50000000
v 44.94343185 19.00000000 -109.50000000
v 44.94343185 -19.00000000 -109.50000000
v 48.44343185 -20.50000000 -88.50000000
v 48.44343185 -18.94060326 -80.65880585
v 48.44343185 -18.93072701 -96.36512756
v 48.44343185 -20.10276413 -92.51525116
v 48.44343185 -7.87053442 -107.42865753
v 48.44343185 -0.05017423 -108.99992371
v 48.44343185 7.80160284 -107.45711517
v 50.64343262 -16.50000000 -88.50000000
v 50.64343262 -15.25832367 -82.22038269
v 50.64343262 -15.24401188 -94.81427765
v 50.94343185 -0.00000053 -104.69999695
v 50.94343185 -7.01153612 -103.10363770
v 50.94343185 7.03239536 -103.09355927
v 50.94343185 12.64059067 -98.63145447
v 50.94343185 15.77505207 -92.18579865
v 50.94343185 15.81993484 -85.01165771
v 50.94343185 -15.78695869 -92.13467407
v 50.94343185 -15.80850410 -84.96042633
v 50.94343185 -12.64634895 -98.62416077
v 50.94343185 -12.73386002 -78.48602295
v 50.94343185 -7.16722012 -73.97218323
v 50.94343185 -0.15000001 -72.30069733
v 50.94343185 12.73954773 -78.49337006
v 50.94343185 7.14645338 -73.96190643
v 50.94343185 0.14999999 -72.30069733
v -33.35656738 -21.00000000 -108.00000000
v -33.35656738 19.50000000 -109.50000000
v -33.35656738 -19.50000000 -109.50000000
v -38.55656815 -19.37573624 -109.19999695
v -38.55656815 -19.37573624 -67.80000305
v -38.55656815 -20.70000076 -107.87573242
v -38.55656815 -20.70000076 -69.12426758
v -38.25656891 -21.00000000 -69.00000000
v -38.25656891 -21.00000000 -108.00000000
v -38.25656891 -19.50000000 -109.50000000
v -38.37019348 -12.86599159 -109.38637543
v -38.37023163 -11.13347149 -109.38633728
v -38.55656815 19.37573624 -109.19999695
v -38.37023163 12.86652851 -109.38633728
v -38.55656815 20.70000076 -107.87573242
v -38.25656891 19.50000000 -109.50000000
v -38.25656891 21.00000000 -108.00000000
v -39.05656815 15.66216087 -81.88988495
v -39.05656815 11.96748734 -76.42632294
v -39.05656815 -7.37522078 -73.18318939
v -39.05656815 6.47149515 -72.78005219
v -39.05656815 -13.29053783 -77.90010071
v -39.05656815 -16.57354927 -84.71686554
v -39.05656815 -13.29053593 -99.09989929
v -39.05656815 -16.57354736 -92.28313446
v -39.05656815 6.47149706 -104.21994019
v -39.05656815 -7.37521791 -103.81681824
v -39.05656815 11.96748829 -100.57367706
v -39.05656815 15.66216087 -95.11011505
v -39.05656815 -0.00000001 -71.50000000
v -39.05656815 -0.00000001 -105.50000000
v -39.05657630 17.00908646 -88.54432590
vn 0.00298077 0.70582157 -0.70838339
vn -0.36693943 -0.93001529 -0.02066431
vn -0.12993987 -0.98542620 -0.10977632
vn 0.12514846 -0.98635898 -0.10692906
vn 0.31902882 -0.94773916 -0.00333130
vn -0.11133652 0.99371256 -0.01181223
vn 0.08124306 0.99669432 0.00000144
vn 0.10996947 0.99387041 -0.01132820
vn -0.24931406 -0.66010619 0.70859178
vn 0.24931368 -0.66010625 0.70859186
vn 0.53517390 -0.62849582 0.56443060
vn -0.10813980 -0.68712109 0.71844999
vn 0.10813957 -0.68712179 0.71844935
vn 0.36733006 -0.83972981 0.39990309
vn 0.14901347 -0.91716010 0.36961106
vn -0.14901371 -0.91715975 0.36961182
vn -0.39080486 -0.83660919 0.38387058
vn -0.59753762 -0.64470633 0.47676255
vn -0.74873581 -0.46395725 0.47343253
vn 0.93127888 0.35623754 0.07625261
vn 0.89681353 0.43889053 -0.05568302
vn 0.98798696 0.05528491 0.14430986
vn 0.92345079 0.30396127 0.23419263
vn 0.59248845 0.80510190 0.02771944
vn 0.57355252 0.81361432 0.09523259
vn 0.87374274 0.44864444 -0.18786110
vn 0.54465815 0.83111758 -0.11220994
vn 0.52580251 0.77715948 -0.34576706
vn 0.50679113 0.70328219 -0.49855482
vn -0.93999998 0.33769181 -0.04862387
vn -0.93187681 0.32096088 -0.16908497
vn -0.52615080 0.77727581 -0.34497485
vn -0.51544512 0.68654446 -0.51280897
vn -0.94663920 0.31836722 0.05016501
vn -0.54534647 0.83074027 -0.11165945
vn -0.99990284 0.00134280 0.01387456
vn -0.59253194 0.80506168 0.02795675
vn -0.92371596 0.30261314 0.23489171
vn -0.99405454 0.03586126 0.10280829
vn -0.92227456 -0.17950587 0.34232628
vn -0.99240676 -0.05511064 0.10996199
vn -0.76138145 -0.27125554 0.58882826
vn -0.29087354 -0.34966250 0.89057774
vn -0.54684865 -0.32468827 0.77170855
vn -0.08022424 -0.35747078 0.93047231
vn 0.29069633 -0.34943875 0.89072341
vn 0.08038427 -0.35734322 0.93050749
vn 0.54687619 -0.32470149 0.77168347
vn 0.92373647 -0.14795586 0.35329873
vn 0.75884791 -0.26730775 0.59388250
vn 0.07416034 0.99724624 -0.00043479
vn 0.07776327 0.99697185 0.00007515
vn 0.06745245 0.99772249 0.00001087
vn -0.07342770 0.99730054 0.00007269
vn -0.06130411 0.99811913 -0.00005150
vn -0.07792986 0.99695884 0.00003699
vn -0.08124959 0.99669379 0.00000143
vn 0.00073496 0.91127686 0.41179356
vn -0.02338673 0.99972466 0.00191691
vn -0.03696737 0.99931456 0.00195553
vn -0.01921156 0.99981544 -0.00000068
vn -0.05609149 0.99842503 0.00110207
vn -0.00929507 0.99995675 0.00033110
vn 0.00725505 0.99997367 0.00013757
vn 0.18180954 0.90568699 0.38298351
vn 0.01419461 0.99989911 0.00053371
vn 0.02391988 0.99971258 0.00161150
vn 0.03703135 0.99931215 0.00197818
vn -0.00416821 0.99999131 -0.00001649
vn 0.02026342 0.99979468 0.00000338
vn 0.02941622 0.99956722 -0.00022857
vn 0.00834833 0.99996515 -0.00002780
vn -0.00768053 0.99997050 -0.00000608
vn -0.01355182 0.99990817 0.00001583
vn -0.18048223 0.90581907 0.38329880
vn -0.13383544 0.99100025 0.00256530
vn -0.14154167 0.98993171 0.00108076
vn -0.13201749 0.99124739 -0.00000045
vn -0.12671564 0.99193908 0.00000189
vn -0.15082741 0.98855999 0.00048043
vn -0.16289976 0.98664259 0.00026799
vn -0.14235037 0.98981632 0.00015295
vn -0.13759455 0.99048864 -0.00003815
vn -0.11871577 0.99292688 0.00166650
vn -0.09688440 0.99529564 0.00003623
vn -0.09005388 0.99593689 0.00001032
vn -0.07958301 0.99682820 0.00030567
vn -0.08801265 0.99611936 -0.00000513
vn -0.08980042 0.99595978 0.00000492
vn -0.08531125 0.99635435 -0.00004340
vn -0.09287595 0.99567769 -0.00001208
vn -0.10533208 0.99443707 0.00026883
vn -0.11713895 0.99311554 0.00000278
vn -0.12737186 0.99185503 -0.00000106
vn -0.36531830 0.88000755 0.30352800
vn -0.18441014 0.98284938 0.00005738
vn -0.20103867 0.96929146 -0.14162460
vn -0.17382532 0.98477647 -0.00022979
vn -0.14274736 0.98975841 -0.00121262
vn -0.14967208 0.98873548 -0.00063994
vn -0.16248201 0.98671126 -0.00069238
vn -0.13347148 0.99104967 -0.00243290
vn -0.09253290 0.99570962 -0.00014093
vn -0.06562211 0.99784448 0.00035259
vn -0.10341234 0.99463842 -0.00055497
vn -0.11805515 0.99300552 -0.00173877
vn 0.09144442 0.99581018 0.00000025
vn 0.08804860 0.99611618 -0.00000591
vn 0.08529580 0.99635567 -0.00004309
vn 0.09110193 0.99584157 -0.00009776
vn 0.07934707 0.99684699 0.00034844
vn 0.09106530 0.99584492 -0.00000144
vn 0.09701394 0.99528302 0.00000214
vn 0.10140719 0.99484500 -0.00000295
vn 0.10651267 0.99431135 0.00000502
vn 0.11798524 0.99301427 0.00146367
vn 0.12672139 0.99193835 -0.00000175
vn 0.13204212 0.99124411 0.00000002
vn 0.14220850 0.98983611 -0.00110838
vn 0.13050308 0.99144790 0.00000580
vn 0.13331964 0.99107046 -0.00228219
vn 0.15082559 0.98856017 -0.00066236
vn 0.16246222 0.98671476 -0.00010438
vn 0.14085388 0.99003038 -0.00018868
vn 0.11863575 0.99293622 -0.00179667
vn 0.10524046 0.99444660 -0.00063612
vn 0.09659976 0.99532328 -0.00023866
vn 0.14163659 0.98991810 0.00110907
vn 0.36636791 0.87977620 0.30293298
vn 0.14975883 0.98872241 0.00053886
vn 0.18335862 0.98304609 0.00003434
vn 0.17372315 0.98479451 -0.00021384
vn 0.48986484 0.84629217 0.20933707
vn 0.19976404 0.96969726 -0.14064687
vn 0.08997403 0.99594411 0.00002059
vn 0.10452014 0.99452273 0.00026960
vn 0.13368796 0.99102009 0.00259043
vn 0.79280006 0.32588945 0.51503799
vn 0.84715891 0.37370227 0.37771471
vn 0.58588510 0.35029630 0.73077435
vn 0.68662147 0.41156331 0.59930509
vn 0.27570874 0.37391540 0.88553485
vn 0.03802622 0.99927642 0.00080122
vn 0.06144566 0.99811002 0.00090271
vn 0.06577227 0.99783465 0.00016342
vn 0.06128946 0.99812003 -0.00005186
vn 0.45124134 0.44521451 0.77341146
vn 0.00136114 0.38706042 0.92205335
vn -0.27364200 0.37409489 0.88609992
vn -0.48921922 0.84647776 0.21009511
vn -0.58395195 0.35039306 0.73227373
vn -0.44957690 0.44541580 0.77426441
vn -0.57339692 0.81365047 0.09585865
vn -0.79142786 0.32609528 0.51701432
vn -0.68543237 0.41182400 0.60048602
vn -0.84651737 0.37381358 0.37904056
vn -0.13997352 0.85810038 -0.49403558
vn 0.13888346 0.85888929 -0.49297116
vn -0.09145935 0.00393980 0.99580102
vn -0.00012165 -0.00045559 0.99999989
vn 0.09221245 0.00360913 0.99573281
vn 0.00002099 0.78475410 -0.61980723
vn 0.05861780 0.99828050 0.00001542
vn 0.05549994 0.99845839 0.00077147
vn 0.05826199 0.99830133 -0.00001923
vn 0.11978673 0.98642228 -0.11234868
vn 0.06385883 0.94677502 -0.31549818
vn -0.06390814 0.94677394 -0.31549145
vn 0.00000209 0.96300173 -0.26949521
vn -0.12049054 0.98617638 -0.11374611
vn -0.07748409 0.99699343 -0.00055445
vn -0.06692483 0.99775802 -0.00001309
vn -0.05822909 0.99830325 -0.00001838
vn -0.05752357 0.99834413 0.00020823
vn -0.04679102 0.99890391 0.00125403
vn -0.01752572 0.99984641 0.00000063
vn -0.03535557 0.99937470 0.00043486
vn 0.01758655 0.99984534 -0.00000064
vn 0.05047421 0.99872469 0.00115693
vn -0.01573492 0.99987611 -0.00042562
vn -0.00073940 0.99999973 -0.00000024
vn 0.01511862 0.99988564 -0.00036440
vn -0.02834253 0.99959822 -0.00032566
vn -0.02039209 0.99979206 -0.00000576
vn -0.01581006 0.99987501 -0.00000356
vn -0.00090721 0.99999959 0.00000001
vn 0.01758435 0.99984538 -0.00000329
vn 0.02163974 0.99976583 0.00000375
vn 0.02476013 0.99969322 -0.00063237
vn 0.77588177 -0.42644415 0.46492243
vn 0.67453231 -0.68547957 0.27408742
vn 0.48747233 -0.76496328 -0.42095357
vn 0.54937490 0.61608599 -0.56446902
vn 0.45676542 0.37570337 -0.80635745
vn 0.45562864 -0.37770282 -0.80606645
vn 0.64236768 -0.76638748 0.00374132
vn 0.83007783 -0.53660423 0.15174551
vn 0.85617894 -0.48683132 -0.17306901
vn 0.74170489 -0.66381905 -0.09601103
vn 0.82918394 -0.14105608 -0.54088554
vn 0.58405642 -0.00093448 -0.81171253
vn 0.82755316 0.14000704 -0.54364859
vn 0.89608839 -0.44387411 -0.00117326
vn 0.89514847 -0.40537074 0.18542863
vn 0.89530908 -0.40396773 -0.18770117
vn 0.95701239 0.00000462 -0.29004705
vn 0.96202085 -0.10607183 -0.25152464
vn 0.96213377 0.10637874 -0.25096249
vn 0.96819332 0.19331209 -0.15884623
vn 0.98016643 0.18443849 -0.07249973
vn 0.99287912 0.11873758 0.00961436
vn 0.96066662 -0.27076032 -0.06171302
vn 0.95796812 -0.28022128 0.06142577
vn 0.96674039 -0.20236757 -0.15639816
vn 0.96663721 -0.20420991 0.15463124
vn 0.97331566 -0.13045973 0.18877734
vn 0.99427721 -0.01918206 0.10509457
vn 0.99690950 0.06421653 0.04525148
vn 0.99706544 0.03114706 0.06993122
vn 0.99632387 0.00569224 0.08547717
vn 0.00143655 -0.85922796 -0.51159091
vn 0.00087163 0.37957115 -0.92516214
vn 0.00122572 -0.38334620 -0.92360391
vn -0.89067248 -0.17681389 -0.41885484
vn -0.93466558 -0.24872628 0.25403838
vn -0.89065383 -0.41891025 -0.17677656
vn -0.89551220 -0.41652814 0.15672335
vn -0.63730422 -0.74661970 0.19079402
vn -0.40624942 -0.82148014 -0.40016470
vn -0.36885379 -0.35569927 -0.85873448
vn -0.70711040 -0.00000000 -0.70710317
vn -0.70711040 -0.00000000 -0.70710316
vn -0.89058172 0.17690122 -0.41901093
vn -0.70711040 0.00000000 -0.70710316
vn -0.91374078 0.29438764 -0.28002446
vn -0.36982972 0.35417516 -0.85894466
vn -0.39786058 0.66009173 -0.63717020
vn -0.99999283 0.00361090 0.00113893
vn -0.99999545 0.00217062 0.00209272
vn -0.99982841 -0.01126092 0.01470856
vn -0.99999503 0.00106261 0.00296694
vn -0.99967879 -0.02055497 0.01482578
vn -0.99818930 -0.06010551 0.00233391
vn -0.99967755 -0.02049446 -0.01499264
vn -0.99818931 -0.06010542 -0.00233393
vn -0.99942100 0.00909607 -0.03278595
vn -0.99949069 -0.01021604 -0.03023241
vn -0.99971974 0.01560846 -0.01779923
vn -0.99992348 0.01052418 -0.00650163
vn -0.99998953 -0.00062818 0.00453362
vn -0.99774635 -0.00012153 -0.06709847
vn -0.99998218 0.00592387 -0.00074043
f 42//42 19//19 18//18
f 227//227 18//18 19//19
f 42//42 18//18 44//44
f 44//44 18//18 17//17
f 17//17 43//43 44//44
f 201//201 195//195 194//194
f 50//50 11//11 190//190
f 190//190 11//11 191//191
f 215//215 190//190 191//191
f 216//216 190//190 215//215
f 246//246 233//233 251//251
f 246//246 248//248 233//233
f 29//29 193//193 158//158
f 17//17 18//18 228//228
f 18//18 227//227 228//228
f 4//4 196//196 5//5
f 50//50 190//190 49//49
f 49//49 190//190 216//216
f 58//58 75//75 148//148
f 148//148 75//75 149//149
f 148//148 65//65 58//58
f 152//152 75//75 95//95
f 149//149 75//75 152//152
f 152//152 44//44 43//43
f 43//43 149//149 152//152
f 48//48 11//11 50//50
f 162//162 193//193 194//194
f 162//162 158//158 193//193
f 237//237 157//157 162//162
f 162//162 157//157 168//168
f 162//162 236//236 237//237
f 206//206 201//201 202//202
f 202//202 201//201 194//194
f 207//207 214//214 195//195
f 195//195 214//214 192//192
f 192//192 196//196 4//4
f 42//42 40//40 225//225
f 225//225 19//19 42//42
f 225//225 227//227 19//19
f 233//233 248//248 235//235
f 248//248 31//31 235//235
f 249//249 31//31 248//248
f 249//249 30//30 31//31
f 42//42 44//44 155//155
f 155//155 154//154 42//42
f 58//58 65//65 68//68
f 50//50 49//49 139//139
f 22//22 219//219 20//20
f 47//47 13//13 46//46
f 9//9 43//43 17//17
f 11//11 48//48 14//14
f 14//14 48//48 46//46
f 191//191 11//11 14//14
f 14//14 196//196 191//191
f 14//14 5//5 196//196
f 26//26 193//193 29//29
f 158//158 162//162 167//167
f 167//167 134//134 158//158
f 206//206 207//207 200//200
f 200//200 201//201 206//206
f 195//195 201//201 200//200
f 200//200 207//207 195//195
f 191//191 196//196 197//197
f 196//196 213//213 197//197
f 204//204 213//213 215//215
f 204//204 215//215 191//191
f 191//191 197//197 204//204
f 204//204 197//197 213//213
f 194//194 222//222 1//1
f 1//1 162//162 194//194
f 1//1 222//222 236//236
f 236//236 162//162 1//1
f 233//233 236//236 234//234
f 177//177 183//183 168//168
f 168//168 175//175 177//177
f 33//33 31//31 32//32
f 33//33 235//235 31//31
f 237//237 235//235 33//33
f 33//33 157//157 237//237
f 32//32 157//157 33//33
f 252//252 238//238 34//34
f 238//238 239//239 34//34
f 34//34 239//239 241//241
f 241//241 250//250 34//34
f 32//32 31//31 35//35
f 31//31 30//30 35//35
f 30//30 249//249 252//252
f 44//44 152//152 151//151
f 151//151 155//155 44//44
f 151//151 152//152 95//95
f 95//95 155//155 151//151
f 46//46 48//48 147//147
f 147//147 129//129 65//65
f 143//143 68//68 179//179
f 179//179 167//167 143//143
f 29//29 158//158 28//28
f 158//158 134//134 28//28
f 28//28 26//26 29//29
f 129//129 134//134 131//131
f 133//133 134//134 129//129
f 133//133 139//139 25//25
f 211//211 20//20 218//218
f 20//20 219//219 218//218
f 25//25 139//139 23//23
f 23//23 139//139 49//49
f 23//23 22//22 20//20
f 23//23 24//24 25//25
f 20//20 24//24 23//23
f 217//217 49//49 216//216
f 217//217 23//23 49//49
f 159//159 148//148 149//149
f 148//148 47//47 161//161
f 46//46 13//13 10//10
f 10//10 14//14 46//46
f 13//13 14//14 10//10
f 13//13 16//16 15//15
f 15//15 14//14 13//13
f 17//17 16//16 12//12
f 12//12 9//9 17//17
f 43//43 9//9 12//12
f 12//12 16//16 13//13
f 193//193 26//26 209//209
f 209//209 26//26 210//210
f 194//194 193//193 209//209
f 210//210 26//26 21//21
f 211//211 210//210 21//21
f 21//21 20//20 211//211
f 134//134 167//167 166//166
f 169//169 162//162 168//168
f 169//169 167//167 162//162
f 169//169 180//180 73//73
f 181//181 58//58 169//169
f 189//189 167//167 169//169
f 169//169 182//182 189//189
f 169//169 69//69 181//181
f 73//73 69//69 169//169
f 196//196 192//192 199//199
f 199//199 212//212 196//196
f 214//214 212//212 205//205
f 205//205 192//192 214//214
f 203//203 212//212 213//213
f 203//203 213//213 196//196
f 196//196 212//212 203//203
f 221//221 192//192 4//4
f 231//231 224//224 232//232
f 230//230 224//224 231//231
f 226//226 243//243 245//245
f 227//227 243//243 226//226
f 245//245 244//244 226//226
f 226//226 244//244 224//224
f 242//242 243//243 227//227
f 227//227 225//225 242//242
f 186//186 58//58 181//181
f 181//181 69//69 186//186
f 186//186 69//69 58//58
f 150//150 155//155 95//95
f 154//154 155//155 150//150
f 41//41 250//250 240//240
f 240//240 242//242 41//41
f 41//41 242//242 225//225
f 41//41 225//225 40//40
f 38//38 41//41 40//40
f 37//37 34//34 38//38
f 97//97 157//157 32//32
f 32//32 35//35 97//97
f 168//168 157//157 97//97
f 97//97 150//150 95//95
f 35//35 150//150 97//97
f 58//58 68//68 67//67
f 67//67 66//66 58//58
f 46//46 147//147 142//142
f 142//142 147//147 65//65
f 65//65 148//148 142//142
f 148//148 161//161 142//142
f 142//142 47//47 46//46
f 142//142 161//161 47//47
f 71//71 167//167 189//189
f 143//143 167//167 71//71
f 165//165 167//167 144//144
f 65//65 145//145 144//144
f 132//132 131//131 134//134
f 129//129 131//131 132//132
f 123//123 129//129 132//132
f 134//134 122//122 123//123
f 123//123 132//132 134//134
f 130//130 128//128 129//129
f 124//124 130//130 122//122
f 128//128 130//130 124//124
f 141//141 133//133 129//129
f 141//141 48//48 50//50
f 219//219 22//22 220//220
f 22//22 23//23 220//220
f 23//23 217//217 220//220
f 160//160 47//47 148//148
f 148//148 159//159 160//160
f 43//43 12//12 45//45
f 13//13 47//47 45//45
f 45//45 12//12 13//13
f 45//45 149//149 43//43
f 45//45 159//159 149//149
f 47//47 160//160 45//45
f 45//45 160//160 159//159
f 194//194 209//209 208//208
f 208//208 202//202 194//194
f 206//206 202//202 208//208
f 26//26 28//28 27//27
f 27//27 21//21 26//26
f 27//27 28//28 134//134
f 25//25 24//24 27//27
f 27//27 133//133 25//25
f 134//134 133//133 27//27
f 53//53 166//166 167//167
f 198//198 199//199 192//192
f 212//212 199//199 198//198
f 192//192 205//205 198//198
f 198//198 205//205 212//212
f 251//251 224//224 247//247
f 224//224 244//244 247//247
f 3//3 2//2 229//229
f 183//183 184//184 180//180
f 180//180 169//169 183//183
f 183//183 169//169 168//168
f 92//92 84//84 75//75
f 85//85 92//92 75//75
f 75//75 104//104 87//87
f 105//105 85//85 103//103
f 75//75 175//175 62//62
f 62//62 104//104 75//75
f 62//62 175//175 168//168
f 172//172 104//104 55//55
f 172//172 55//55 168//168
f 168//168 55//55 173//173
f 36//36 34//34 250//250
f 250//250 41//41 36//36
f 156//156 38//38 40//40
f 156//156 40//40 42//42
f 42//42 154//154 156//156
f 154//154 150//150 156//156
f 105//105 103//103 6//6
f 182//182 169//169 72//72
f 72//72 66//66 182//182
f 189//189 182//182 70//70
f 70//70 67//67 68//68
f 66//66 67//67 178//178
f 67//67 70//70 178//178
f 137//137 128//128 118//118
f 137//137 116//116 65//65
f 65//65 129//129 137//137
f 129//129 128//128 137//137
f 65//65 116//116 136//136
f 136//136 116//116 115//115
f 136//136 113//113 65//65
f 188//188 71//71 189//189
f 68//68 71//71 188//188
f 189//189 70//70 188//188
f 188//188 70//70 68//68
f 68//68 143//143 71//71
f 165//165 144//144 163//163
f 163//163 144//144 145//145
f 65//65 144//144 179//179
f 179//179 68//68 65//65
f 123//123 130//130 129//129
f 122//122 130//130 123//123
f 139//139 133//133 138//138
f 133//133 141//141 138//138
f 50//50 139//139 138//138
f 138//138 141//141 50//50
f 129//129 147//147 140//140
f 140//140 141//141 129//129
f 140//140 147//147 48//48
f 48//48 141//141 140//140
f 146//146 167//167 165//165
f 146//146 53//53 167//167
f 145//145 53//53 146//146
f 65//65 135//135 111//111
f 111//111 145//145 65//65
f 108//108 109//109 111//111
f 111//111 135//135 108//108
f 145//145 111//111 51//51
f 63//63 59//59 58//58
f 58//58 69//69 63//63
f 63//63 69//69 73//73
f 60//60 59//59 184//184
f 60//60 177//177 175//175
f 184//184 183//183 60//60
f 60//60 175//175 75//75
f 60//60 75//75 58//58
f 58//58 59//59 60//60
f 180//180 184//184 61//61
f 184//184 59//59 61//61
f 84//84 92//92 93//93
f 84//84 79//79 76//76
f 75//75 84//84 76//76
f 95//95 75//75 76//76
f 76//76 77//77 95//95
f 92//92 85//85 105//105
f 91//91 85//85 75//75
f 91//91 103//103 85//85
f 174//174 62//62 168//168
f 104//104 62//62 174//174
f 168//168 173//173 174//174
f 41//41 38//38 39//39
f 39//39 36//36 41//41
f 39//39 38//38 34//34
f 34//34 36//36 39//39
f 153//153 156//156 150//150
f 38//38 156//156 153//153
f 37//37 38//38 153//153
f 153//153 35//35 37//37
f 153//153 150//150 35//35
f 168//168 97//97 170//170
f 97//97 6//6 170//170
f 170//170 172//172 168//168
f 98//98 101//101 97//97
f 98//98 81//81 101//101
f 102//102 6//6 97//97
f 64//64 169//169 58//58
f 64//64 72//72 169//169
f 58//58 66//66 64//64
f 66//66 72//72 64//64
f 187//187 70//70 182//182
f 187//187 178//178 70//70
f 182//182 66//66 187//187
f 66//66 178//178 187//187
f 65//65 112//112 107//107
f 107//107 135//135 65//65
f 112//112 135//135 107//107
f 115//115 116//116 126//126
f 164//164 144//144 167//167
f 167//167 179//179 164//164
f 164//164 179//179 144//144
f 51//51 111//111 52//52
f 145//145 51//51 53//53
f 53//53 51//51 166//166
f 59//59 63//63 74//74
f 180//180 185//185 74//74
f 73//73 180//180 74//74
f 74//74 63//63 73//73
f 177//177 60//60 183//183
f 87//87 89//89 86//86
f 75//75 87//87 86//86
f 86//86 91//91 75//75
f 86//86 89//89 103//103
f 103//103 91//91 86//86
f 88//88 87//87 90//90
f 103//103 89//89 88//88
f 88//88 89//89 87//87
f 90//90 6//6 88//88
f 88//88 6//6 103//103
f 96//96 97//97 95//95
f 96//96 98//98 97//97
f 95//95 81//81 98//98
f 98//98 96//96 95//95
f 97//97 101//101 100//100
f 94//94 76//76 79//79
f 94//94 79//79 84//84
f 84//84 102//102 94//94
f 106//106 92//92 105//105
f 105//105 6//6 106//106
f 6//6 102//102 106//106
f 106//106 93//93 92//92
f 119//119 121//121 118//118
f 118//118 128//128 119//119
f 128//128 124//124 119//119
f 119//119 124//124 122//122
f 119//119 122//122 134//134
f 134//134 121//121 119//119
f 120//120 137//137 118//118
f 118//118 121//121 120//120
f 120//120 121//121 137//137
f 137//137 121//121 117//117
f 125//125 117//117 121//121
f 125//125 116//116 137//137
f 137//137 117//117 125//125
f 110//110 112//112 65//65
f 108//108 135//135 110//110
f 110//110 135//135 112//112
f 114//114 136//136 115//115
f 115//115 126//126 114//114
f 7//7 52//52 111//111
f 176//176 74//74 185//185
f 176//176 185//185 180//180
f 180//180 61//61 176//176
f 176//176 61//61 59//59
f 59//59 74//74 176//176
f 87//87 54//54 56//56
f 171//171 170//170 6//6
f 171//171 54//54 170//170
f 6//6 56//56 171//171
f 172//172 170//170 54//54
f 54//54 104//104 172//172
f 54//54 87//87 104//104
f 99//99 102//102 97//97
f 97//97 100//100 99//99
f 101//101 81//81 80//80
f 80//80 100//100 101//101
f 80//80 81//81 95//95
f 95//95 77//77 80//80
f 93//93 102//102 84//84
f 93//93 106//106 102//102
f 116//116 125//125 126//126
f 126//126 125//125 8//8
f 8//8 125//125 121//121
f 51//51 52//52 8//8
f 52//52 7//7 8//8
f 8//8 121//121 134//134
f 108//108 110//110 8//8
f 8//8 166//166 51//51
f 134//134 166//166 8//8
f 8//8 109//109 108//108
f 127//127 114//114 126//126
f 113//113 136//136 127//127
f 136//136 114//114 127//127
f 65//65 113//113 127//127
f 127//127 110//110 65//65
f 126//126 8//8 127//127
f 127//127 8//8 110//110
f 87//87 56//56 57//57
f 57//57 56//56 6//6
f 171//171 56//56 54//54
f 82//82 99//99 100//100
f 82//82 80//80 77//77
f 100//100 80//80 82//82
f 77//77 76//76 78//78
f 78//78 99//99 77//77
f 102//102 99//99 78//78
f 76//76 94//94 78//78
f 78//78 94//94 102//102
f 83//83 82//82 77//77
f 99//99 82//82 83//83
f 77//77 99//99 83//83
f 235//235 236//236 233//233
f 237//237 236//236 235//235
f 17//17 2//2 16//16
f 16//16 2//2 3//3
f 194//194 195//195 223//223
f 223//223 222//222 194//194
f 230//230 236//236 223//223
f 236//236 222//222 223//223
f 251//251 233//233 224//224
f 234//234 224//224 233//233
f 232//232 224//224 234//234
f 35//35 34//34 37//37
f 30//30 34//34 35//35
f 252//252 34//34 30//30
f 3//3 4//4 15//15
f 15//15 16//16 3//3
f 4//4 5//5 15//15
f 5//5 14//14 15//15
f 221//221 223//223 195//195
f 195//195 192//192 221//221
f 231//231 236//236 230//230
f 232//232 234//234 231//231
f 231//231 234//234 236//236
f 216//216 215//215 208//208
f 211//211 218//218 208//208
f 208//208 217//217 216//216
f 208//208 207//207 206//206
f 208//208 210//210 211//211
f 214//214 207//207 208//208
f 215//215 213//213 208//208
f 208//208 212//212 214//214
f 213//213 212//212 208//208
f 208//208 218//218 219//219
f 219//219 220//220 208//208
f 208//208 209//209 210//210
f 208//208 220//220 217//217
f 20//20 21//21 27//27
f 27//27 24//24 20//20
f 240//240 250//250 247//247
f 247//247 246//246 251//251
f 247//247 238//238 252//252
f 248//248 246//246 247//247
f 247//247 249//249 248//248
f 247//247 250//250 241//241
f 247//247 242//242 240//240
f 241//241 239//239 247//247
f 245//245 243//243 247//247
f 247//247 239//239 238//238
f 247//247 252//252 249//249
f 247//247 244//244 245//245
f 243//243 242//242 247//247
f 229//229 2//2 17//17
f 17//17 228//228 229//229
f 229//229 228//228 227//227
f 227//227 226//226 229//229
f 229//229 4//4 3//3
f 229//229 221//221 4//4
f 230//230 223//223 229//229
f 223//223 221//221 229//229
f 229//229 224//224 230//230
f 229//229 226//226 224//224
f 146//146 163//163 145//145
f 165//165 163//163 146//146
f 174//174 173//173 55//55
f 55//55 104//104 174//174
f 8//8 7//7 111//111
f 8//8 111//111 109//109
f 57//57 6//6 90//90
f 90//90 87//87 57//57

