# https://github.com/mikedh/trimesh
v -14.55648422 -24.00309563 -73.00000000
v -14.05648422 -23.50309563 -83.50000000
v -14.55648422 -24.00309563 -83.00000000
v -14.55648422 23.99690437 -73.00000000
v -14.05648422 23.49690437 -83.50000000
v -14.55648422 23.99690437 -83.00000000
v 25.94351578 23.49690437 -83.50000000
v 26.44351578 23.99690437 -83.00000000
v 26.44351578 -24.00309563 -83.00000000
v 25.94351578 -23.50309563 -83.50000000
v 51.44351578 15.43728256 8.23678970
v 51.44351578 10.56600285 13.94790840
v 51.44351578 3.75012970 17.09278488
v 51.44351578 -3.75631309 17.09278679
v 51.44351578 -10.57218838 13.94791317
v 51.44351578 -15.44347095 8.23679638
v 53.44351578 -17.47389030 1.01061141
v 53.44351578 -15.44347095 8.23679638
v 53.44351578 -10.57218838 13.94791317
v 53.44351578 -3.75631309 17.09278679
v 53.44351578 3.75012970 17.09278488
v 53.44351578 10.56600285 13.94790840
v 53.44351578 15.43728256 8.23678970
v 53.44351578 17.46769905 1.01061141
v -39.55648422 9.01714230 14.86777687
v -39.55648422 9.82032967 14.48275852
v -39.55648422 15.21594429 8.63891125
v -39.55648422 12.85444355 11.87154961
v -39.55648422 16.78100204 4.95419455
v -39.55648422 -15.22213745 8.63891125
v -39.55648422 -16.78719521 4.95419407
v -39.55648422 -9.82652283 14.48275852
v -39.55648422 -12.86063576 11.87154865
v -39.55648422 -9.02333450 14.86777687
v -42.05648422 -16.97472572 0.98173684
v -42.05648422 -8.14250660 14.50000000
v -42.05648422 -8.87650013 14.38972855
v -42.05648422 -9.54585266 14.06896591
v -41.55648422 -8.14250660 15.00000000
v -41.55648422 -9.02333450 14.86777687
v -42.05648422 -14.78730965 8.39208126
v -41.55648422 -9.82652283 14.48275852
v -41.55648422 -15.22213745 8.63891125
v -41.55648422 -12.86063576 11.87154865
v -41.55648422 -17.47389030 1.01061141
v -41.55648422 -16.78719521 4.95419407
v -42.05648422 -20.50309563 -71.50000000
v -41.55648422 -21.00309563 -71.00000000
v -41.55648422 -21.00309563 -60.00000000
v -42.05648422 20.49690437 -71.50000000
v -41.55648422 -20.00309563 -72.00000000
v -41.55648422 20.99690437 -71.00000000
v -41.55648422 19.99690437 -72.00000000
v -42.05648422 16.96853256 0.98173684
v -41.55648422 20.99690437 -60.00000000
v -42.05648422 14.78111744 8.39208221
v -41.55648422 17.46769905 1.01061141
v -42.05648422 9.53966045 14.06896591
v -41.55648422 15.21594429 8.63891125
v -41.55648422 16.78100204 4.95419455
v -42.05648422 8.87030792 14.38972855
v -41.55648422 9.82032967 14.48275852
v -41.55648422 12.85444355 11.87154961
v -42.05648422 8.13631439 14.50000000
v -41.55648422 9.01714230 14.86777687
v -41.55648422 8.13631439 15.00000000
v -44.90648270 -20.75309563 -63.00000000
v -44.90648270 -19.94763947 -64.94454193
v -45.05648422 -19.24807549 -65.15660858
v -45.05648422 -19.24807549 -60.84339523
v -45.05648422 -20.49328804 -63.00000000
v -44.90648270 -12.00309658 -71.75000000
v -44.90648270 -13.94763947 -70.94454193
v -45.05648422 -13.24807453 -71.15660858
v -44.90648270 11.99690342 -71.75000000
v -44.90648270 13.94144726 -70.94454193
v -45.05648422 13.24188232 -71.15660858
v -44.90648270 19.94144821 -64.94454193
v -44.90648270 20.74690437 -63.00000000
v -45.05648422 20.48709679 -63.00000000
v -45.05648422 19.24188232 -60.84339523
v -45.05648422 19.24188232 -65.15660858
v 94.44496155 23.99690437 -50.32353210
v 128.48419189 -22.36470222 -53.09882355
v 128.48417664 22.35851860 -53.09882355
v 124.20730591 23.99690437 -53.18931961
v 131.58296204 -19.25160408 -53.39720154
v 131.58294678 19.24542618 -53.39720154
v 128.68632507 22.79129028 -53.62059784
v 132.71609497 -15.00309658 -53.50630951
v 132.71609497 14.99690342 -53.50630951
v 131.96580505 19.49664307 -53.93637848
v 133.16587830 14.99690342 -54.05193329
v 133.16587830 -15.00309658 -54.05193329
v 131.96580505 -19.50282288 -53.93637848
v 128.68632507 -22.79747581 -53.62060165
v 124.20730591 -24.00309563 -53.18931961
v 94.44496155 -24.00309563 -50.32353210
v 121.66739655 -23.50309563 -79.56732178
v 125.89636230 -22.36470222 -79.97452545
v 121.71531677 -24.00309563 -79.06961823
v 128.99511719 -19.25160408 -80.27289581
v 126.19434357 -22.79747581 -79.50090027
v 130.12826538 -15.00309658 -80.38201141
v 129.47381592 -19.50282288 -79.81668091
v 130.12826538 14.99690342 -80.38201141
v 130.67388916 -15.00309658 -79.93223572
v 128.99511719 19.24542618 -80.27289581
v 130.67388916 14.99690342 -79.93223572
v 125.89634705 22.35851860 -79.97451782
v 129.47381592 19.49664307 -79.81668091
v 121.66739655 23.49690437 -79.56732178
v 126.19432831 22.79129028 -79.50090027
v 121.71531677 23.99690437 -79.06961823
vn -0.04891642 -0.99835305 0.02997282
vn -0.15322558 -0.34601143 -0.92563384
vn -0.20179014 -0.84396376 -0.49699690
vn -0.04891642 0.99835305 0.02997282
vn -0.15322558 0.34601143 -0.92563384
vn -0.20179014 0.84396376 -0.49699690
vn 0.01293698 0.37967989 -0.92502747
vn 0.01136829 0.91917917 -0.39367552
vn 0.01136829 -0.91917917 -0.39367552
vn 0.01293698 -0.37967989 -0.92502747
vn -0.00000343 0.90224269 0.43122863
vn -0.00000598 0.62843180 0.77786469
vn -0.00593889 0.19502296 0.98078070
vn -0.00593889 -0.19502257 0.98078078
vn -0.00000598 -0.62843201 0.77786452
vn -0.00000343 -0.90224303 0.43122791
vn 0.04331460 -0.97603043 0.21328020
vn 0.17096723 -0.85019610 0.49793253
vn 0.27616176 -0.55902889 0.78180649
vn 0.32967151 -0.18966268 0.92484851
vn 0.32967149 0.18966312 0.92484842
vn 0.27616169 0.55902924 0.78180626
vn 0.17096709 0.85019628 0.49793227
vn 0.04331456 0.97603045 0.21328013
vn 0.00045059 0.41106813 0.91160451
vn 0.00043437 0.50927245 0.86060524
vn 0.00015801 0.84343919 0.53722463
vn 0.00020782 0.74361714 0.66860565
vn 0.00005633 0.96092555 0.27680695
vn 0.00015801 -0.84343967 0.53722389
vn 0.00005633 -0.96092554 0.27680696
vn 0.00043437 -0.50927252 0.86060520
vn 0.00020782 -0.74361700 0.66860580
vn 0.00045059 -0.41106779 0.91160467
vn -0.87714624 -0.47303160 0.08279848
vn -0.90927858 -0.03182116 0.41496973
vn -0.90266611 -0.12562082 0.41159848
vn -0.90295056 -0.23633208 0.35892540
vn -0.38453510 -0.06907959 0.92052201
vn -0.37391110 -0.27489921 0.88578830
vn -0.90015446 -0.37633535 0.21930266
vn -0.37197732 -0.50793944 0.77693655
vn -0.37328383 -0.80675428 0.45804663
vn -0.48587468 -0.64227810 0.59279392
vn -0.37881783 -0.91741074 0.12187940
vn -0.48579244 -0.83834211 0.24736253
vn -0.61520837 -0.56172806 -0.55315481
vn -0.33054144 -0.91329583 -0.23797708
vn -0.10303789 -0.99353257 0.04770986
vn -0.61520838 0.56172805 -0.55315481
vn -0.45471482 -0.26970977 -0.84881746
vn -0.33054144 0.91329583 -0.23797708
vn -0.45471483 0.26970975 -0.84881746
vn -0.87714664 0.47303084 0.08279849
vn -0.10303789 0.99353257 0.04770986
vn -0.90015418 0.37633587 0.21930291
vn -0.37881865 0.91741037 0.12187959
vn -0.90295047 0.23633220 0.35892553
vn -0.37328327 0.80675454 0.45804662
vn -0.48579241 0.83834209 0.24736265
vn -0.90266611 0.12562082 0.41159848
vn -0.37197713 0.50793950 0.77693660
vn -0.48587466 0.64227810 0.59279394
vn -0.90927858 0.03182116 0.41496973
vn -0.37391104 0.27489938 0.88578827
vn -0.38453510 0.06907959 0.92052201
vn -0.57081308 -0.81999102 -0.04227471
vn -0.86583636 -0.43825832 -0.24136496
vn -0.97880362 -0.15128973 -0.13803947
vn -0.99887345 -0.03646744 0.03036367
vn -0.95399193 -0.29653055 -0.04437365
vn -0.73944387 -0.05181015 -0.67122162
vn -0.87396369 -0.30946258 -0.37472707
vn -0.91590758 -0.15262776 -0.37123856
vn -0.73944388 0.05181012 -0.67122162
vn -0.87396372 0.30946256 -0.37472703
vn -0.91590755 0.15262774 -0.37123866
vn -0.86583653 0.43825803 -0.24136486
vn -0.57081308 0.81999102 -0.04227470
vn -0.95399194 0.29653055 -0.04437365
vn -0.99887346 0.03646736 0.03036366
vn -0.97880377 0.15128920 -0.13803900
vn 0.00335854 0.99760549 0.06907977
vn 0.53572783 -0.51842453 0.66650709
vn 0.53572892 0.51841622 0.66651268
vn 0.18063810 0.96595194 0.18522076
vn 0.65091201 -0.32288191 0.68706683
vn 0.65090655 0.32288101 0.68707243
vn 0.52757893 0.80119899 0.28238389
vn 0.71827982 -0.08862053 0.69008731
vn 0.71827953 0.08862077 0.69008758
vn 0.83818369 0.46612057 0.28316022
vn 0.95258781 0.11862828 0.28018530
vn 0.95258778 -0.11862861 0.28018526
vn 0.83818484 -0.46612173 0.28315492
vn 0.52757861 -0.80120069 0.28237965
vn 0.18063894 -0.96595166 0.18522138
vn 0.00335854 -0.99760549 0.06907977
vn 0.05833776 -0.59523192 -0.80143351
vn 0.18434725 -0.43715061 -0.88029281
vn 0.10831801 -0.92431770 -0.36592896
vn 0.33927656 -0.23951230 -0.90968416
vn 0.42926117 -0.80718602 -0.40519819
vn 0.37308746 -0.06298095 -0.92565606
vn 0.76875447 -0.46612041 -0.43789077
vn 0.37308741 0.06298074 -0.92565610
vn 0.88162510 -0.11862877 -0.45679798
vn 0.33927666 0.23951389 -0.90968371
vn 0.88162512 0.11862844 -0.45679802
vn 0.18434497 0.43714934 -0.88029392
vn 0.76875404 0.46612146 -0.43789041
vn 0.05833764 0.59523066 -0.80143445
vn 0.42925925 0.80718575 -0.40520077
vn 0.10831780 0.92431773 -0.36592895
f 4//4 79//79 55//55
f 4//4 55//55 57//57
f 57//57 55//55 79//79
f 54//54 57//57 79//79
f 4//4 57//57 83//83
f 83//83 57//57 24//24
f 24//24 86//86 83//83
f 92//92 111//111 89//89
f 23//23 86//86 24//24
f 22//22 89//89 23//23
f 23//23 89//89 86//86
f 93//93 92//92 91//91
f 22//22 21//21 88//88
f 92//92 89//89 88//88
f 88//88 91//91 92//92
f 21//21 91//91 88//88
f 3//3 1//1 67//67
f 35//35 45//45 46//46
f 67//67 45//45 35//35
f 110//110 111//111 108//108
f 113//113 111//111 110//110
f 113//113 89//89 111//111
f 28//28 23//23 27//27
f 22//22 23//23 28//28
f 6//6 79//79 4//4
f 6//6 52//52 79//79
f 110//110 108//108 7//7
f 90//90 91//91 20//20
f 20//20 91//91 21//21
f 18//18 19//19 33//33
f 39//39 40//40 14//14
f 57//57 54//54 60//60
f 63//63 59//59 56//56
f 56//56 60//60 54//54
f 59//59 60//60 56//56
f 85//85 89//89 22//22
f 22//22 88//88 85//85
f 85//85 88//88 89//89
f 67//67 1//1 49//49
f 49//49 45//45 67//67
f 1//1 45//45 49//49
f 17//17 97//97 18//18
f 18//18 31//31 17//17
f 67//67 47//47 48//48
f 48//48 3//3 67//67
f 47//47 3//3 48//48
f 51//51 72//72 2//2
f 47//47 72//72 51//51
f 74//74 72//72 47//47
f 100//100 105//105 103//103
f 97//97 101//101 103//103
f 102//102 105//105 100//100
f 100//100 10//10 102//102
f 106//106 111//111 109//109
f 106//106 108//108 111//111
f 106//106 7//7 108//108
f 86//86 89//89 114//114
f 89//89 113//113 114//114
f 5//5 75//75 53//53
f 19//19 20//20 34//34
f 34//34 32//32 19//19
f 16//16 43//43 46//46
f 18//18 33//33 30//30
f 99//99 9//9 10//10
f 99//99 101//101 9//9
f 99//99 10//10 100//100
f 100//100 103//103 99//99
f 99//99 103//103 101//101
f 81//81 56//56 80//80
f 80//80 54//54 79//79
f 80//80 56//56 54//54
f 82//82 80//80 78//78
f 78//78 80//80 79//79
f 66//66 65//65 64//64
f 62//62 12//12 63//63
f 25//25 21//21 22//22
f 22//22 26//26 25//25
f 11//11 60//60 59//59
f 29//29 23//23 24//24
f 63//63 56//56 58//58
f 58//58 62//62 63//63
f 58//58 56//56 81//81
f 65//65 62//62 58//58
f 98//98 17//17 45//45
f 97//97 17//17 98//98
f 98//98 45//45 1//1
f 36//36 70//70 37//37
f 36//36 37//37 40//40
f 40//40 39//39 36//36
f 41//41 35//35 46//46
f 46//46 43//43 41//41
f 41//41 43//43 44//44
f 15//15 42//42 44//44
f 82//82 78//78 77//77
f 77//77 78//78 76//76
f 97//97 103//103 96//96
f 96//96 19//19 18//18
f 18//18 97//97 96//96
f 104//104 102//102 10//10
f 107//107 105//105 104//104
f 105//105 102//102 104//104
f 112//112 113//113 110//110
f 112//112 114//114 113//113
f 110//110 7//7 112//112
f 112//112 7//7 8//8
f 8//8 114//114 112//112
f 52//52 6//6 50//50
f 79//79 52//52 50//50
f 50//50 78//78 79//79
f 76//76 78//78 50//50
f 50//50 77//77 76//76
f 75//75 77//77 50//50
f 50//50 53//53 75//75
f 65//65 66//66 13//13
f 13//13 66//66 14//14
f 81//81 64//64 61//61
f 61//61 58//58 81//81
f 64//64 65//65 61//61
f 65//65 58//58 61//61
f 37//37 70//70 38//38
f 70//70 41//41 38//38
f 38//38 41//41 44//44
f 44//44 42//42 38//38
f 38//38 42//42 40//40
f 40//40 37//37 38//38
f 71//71 41//41 70//70
f 67//67 35//35 71//71
f 35//35 41//41 71//71
f 68//68 47//47 67//67
f 68//68 71//71 69//69
f 67//67 71//71 68//68
f 95//95 103//103 105//105
f 95//95 96//96 103//103
f 95//95 94//94 90//90
f 73//73 69//69 74//74
f 73//73 68//68 69//69
f 73//73 74//74 47//47
f 47//47 68//68 73//73
f 90//90 20//20 87//87
f 87//87 95//95 90//90
f 87//87 20//20 19//19
f 96//96 95//95 87//87
f 19//19 96//96 84//84
f 84//84 87//87 19//19
f 96//96 87//87 84//84
f 111//111 92//92 93//93
f 93//93 109//109 111//111
f 2//2 10//10 9//9
f 9//9 3//3 2//2
f 27//27 59//59 28//28
f 28//28 59//59 63//63
f 2//2 5//5 7//7
f 7//7 10//10 2//2
f 7//7 6//6 8//8
f 5//5 6//6 7//7
f 2//2 72//72 75//75
f 75//75 5//5 2//2
f 12//12 28//28 63//63
f 22//22 28//28 12//12
f 17//17 31//31 46//46
f 46//46 45//45 17//17
f 2//2 3//3 51//51
f 51//51 3//3 47//47
f 94//94 91//91 90//90
f 93//93 91//91 94//94
f 94//94 109//109 93//93
f 94//94 107//107 109//109
f 114//114 83//83 86//86
f 4//4 83//83 114//114
f 114//114 6//6 4//4
f 8//8 6//6 114//114
f 34//34 20//20 14//14
f 14//14 40//40 34//34
f 40//40 42//42 34//34
f 34//34 42//42 32//32
f 46//46 31//31 16//16
f 16//16 31//31 18//18
f 30//30 16//16 18//18
f 43//43 16//16 30//30
f 44//44 43//43 30//30
f 30//30 33//33 44//44
f 66//66 39//39 14//14
f 22//22 12//12 62//62
f 62//62 26//26 22//22
f 26//26 62//62 25//25
f 25//25 62//62 65//65
f 11//11 59//59 27//27
f 27//27 23//23 11//11
f 57//57 60//60 29//29
f 24//24 57//57 29//29
f 29//29 11//11 23//23
f 60//60 11//11 29//29
f 98//98 101//101 97//97
f 9//9 101//101 98//98
f 1//1 3//3 98//98
f 3//3 9//9 98//98
f 81//81 70//70 36//36
f 36//36 64//64 81//81
f 39//39 66//66 36//36
f 36//36 66//66 64//64
f 44//44 33//33 15//15
f 15//15 33//33 19//19
f 32//32 42//42 15//15
f 19//19 32//32 15//15
f 77//77 75//75 72//72
f 72//72 74//74 77//77
f 10//10 7//7 104//104
f 7//7 106//106 104//104
f 109//109 107//107 104//104
f 104//104 106//106 109//109
f 50//50 6//6 5//5
f 5//5 53//53 50//50
f 13//13 25//25 65//65
f 21//21 25//25 13//13
f 14//14 20//20 13//13
f 13//13 20//20 21//21
f 71//71 77//77 74//74
f 81//81 80//80 71//71
f 82//82 77//77 71//71
f 71//71 70//70 81//81
f 71//71 80//80 82//82
f 74//74 69//69 71//71
f 107//107 94//94 95//95
f 95//95 105//105 107//107

