# https://github.com/mikedh/trimesh
v -27.82091331 4.90427351 -50.00000000
v -27.82091141 -4.90427780 -50.00000000
v -24.46446609 14.12586594 -50.00000000
v -18.15940285 21.64015198 -50.00000000
v 18.15939903 21.64015388 -50.00000000
v 9.66138840 26.54627800 -50.00000000
v -9.66139221 26.54627609 -50.00000000
v 24.46446419 14.12586975 -50.00000000
v 27.82091141 4.90427780 -50.00000000
v 27.82091331 -4.90427351 -50.00000000
v 24.46446609 -14.12586594 -50.00000000
v 18.15940285 -21.64015198 -50.00000000
v -18.15939903 -21.64015388 -50.00000000
v -9.66138840 -26.54627800 -50.00000000
v 9.66139221 -26.54627609 -50.00000000
v -24.46446419 -14.12586975 -50.00000000
v 0.00000000 -28.25000000 -50.00000000
v 0.00000000 28.25000000 -50.00000000
v -21.74725723 -29.93416023 -53.00000000
v 21.74726105 -29.93415833 -53.00000000
v -29.93309784 -21.74831390 -53.00000000
v -35.18939209 -11.43200779 -53.00000000
v -37.00000000 -0.00000001 -53.00000000
v -35.18939590 11.43200397 -53.00000000
v -29.93309975 21.74831009 -53.00000000
v -21.74726105 29.93415833 -53.00000000
v 21.74725723 29.93416023 -53.00000000
v 29.93309784 21.74831390 -53.00000000
v 35.18939209 11.43200779 -53.00000000
v 37.00000000 -0.00000001 -53.00000000
v 35.18939590 -11.43200397 -53.00000000
v 29.93309975 -21.74831009 -53.00000000
v 37.50000000 -0.00000001 -53.50000000
v 35.66471863 11.58783531 -53.50000000
v 35.66471863 -11.58783150 -53.50000000
v 30.33827782 -22.04175186 -53.50000000
v -11.43510342 -35.18848038 -53.00000000
v 11.43510818 -35.18848038 -53.00000000
v 22.04209328 -30.33803177 -53.50000000
v 0.00000233 -36.99969864 -53.00000000
v 11.58821964 -35.66459274 -53.50000000
v 0.00000241 -37.50000000 -53.50000000
v -11.58821487 -35.66459274 -53.50000000
v -22.04208946 -30.33803368 -53.50000000
v -30.33827591 -22.04175568 -53.50000000
v -35.66471863 -11.58783531 -53.50000000
v -37.50000000 -0.00000001 -53.50000000
v -35.66471863 11.58783150 -53.50000000
v -30.33827782 22.04175186 -53.50000000
v 11.43510342 35.18848038 -53.00000000
v -11.43510818 35.18848038 -53.00000000
v -22.04209328 30.33803177 -53.50000000
v -0.00000232 36.99969864 -53.00000000
v -11.58821964 35.66459274 -53.50000000
v -0.00000241 37.50000000 -53.50000000
v 11.58821487 35.66459274 -53.50000000
v 22.04208946 30.33803368 -53.50000000
v 30.33827591 22.04175568 -53.50000000
v 8.79739666 -43.83167648 -154.82438660
v 13.78049660 -20.95004463 -162.22361755
v 14.28994846 -42.75324249 -161.71414185
v 18.19611359 -18.27393913 -166.01684570
v 9.02461624 -44.63473892 -154.80358887
v 14.59530258 -42.70077896 -162.01338196
v 14.90403938 -42.64821243 -162.30914307
v 14.98256302 -43.06074905 -162.30383301
v 11.57117558 -44.09499359 -158.39143372
v 14.36849689 -43.16578293 -161.71038818
v 12.57540607 -21.75398636 -160.96266174
v 5.77087069 -45.50020599 -148.28102112
v 68.30792236 -43.06074905 -108.97846985
v 74.12470245 -41.43809509 -116.92137909
v 75.09199524 -15.67142391 -117.10408020
v 77.24043274 -40.50100708 -124.55279541
v 77.37362671 -13.21077061 -122.37039948
v 78.83332825 -10.95027065 -127.84468079
v 78.48133850 -39.83432770 -130.96093750
v 79.47027588 -8.93586922 -133.38682556
v 78.66913605 -39.36251068 -136.15467834
v 79.30902863 -7.20070219 -138.87063599
v 76.09162903 -38.48654175 -148.71070862
v 76.77007294 -4.64491177 -149.24935913
v 77.42118073 -38.72369766 -144.66275024
v 78.28485870 -39.01538849 -140.47200012
v 74.12581635 -38.28817749 -152.93664551
v 71.63468170 -3.36065960 -158.32414246
v 65.99710846 -38.10021591 -163.18235779
v 64.32821655 -3.36066151 -165.63061523
v 70.83283234 -38.13095474 -158.00149536
v 56.85556412 -38.37948608 -169.17062378
v 55.25344086 -4.64491558 -170.76599121
v 61.06594467 -38.21026611 -166.87887573
v 48.69367218 -38.85549927 -171.88612366
v 44.87471390 -7.20070553 -173.30493164
v 52.86377716 -38.58926773 -170.75874329
v 44.40258026 -39.17643738 -172.52740479
v 39.39091110 -8.93587303 -173.46618652
v 39.16131973 -39.62787247 -172.64312744
v 33.84876633 -10.95027351 -172.82923889
v 32.47358704 -40.29071426 -171.72994995
v 28.37448311 -13.21077251 -171.36953735
v 24.25807571 -41.26268768 -168.80848694
v 23.10816765 -15.67142487 -169.08790588
v 19.63956261 -41.89955521 -166.12075806
v 19.83632851 -42.70285797 -166.01330566
v 15.11798000 -43.45220566 -162.23451233
v 24.43333435 -42.06733704 -168.67346191
v 32.60365677 -41.09811783 -171.55732727
v 39.24839783 -40.43700790 -172.45042419
v 44.45265579 -39.98689270 -172.32600403
v 48.71043777 -39.66714478 -171.68278503
v 52.84680176 -39.40186691 -170.55850220
v 56.80630493 -39.19296646 -168.97819519
v 60.98217010 -39.02448654 -166.70111084
v 65.87255096 -38.91491318 -163.03236389
v 70.66985321 -38.94550323 -157.89366150
v 73.93977356 -39.10205841 -152.87033081
v 75.89440918 -39.29958344 -148.67868042
v 77.21864319 -39.53578568 -144.66378784
v 78.08193970 -39.82643890 -140.50607300
v 78.47064209 -40.17238235 -136.22109985
v 78.29421234 -40.64284515 -131.06274414
v 77.07559967 -41.30785751 -124.69534302
v 73.99720001 -42.24250031 -117.10328674
v 71.46406555 -42.82173538 -113.03668976
v 63.66453171 -44.20876694 -104.99581909
v 67.64802551 -43.55722427 -108.50128174
v 24.50050926 -50.82293320 -154.61933899
v 21.85306358 -51.53742981 -151.53622437
v 28.15165520 -49.99347687 -157.62077332
v 32.32265472 -49.18624115 -159.92411804
v 36.77064133 -48.44766617 -161.39981079
v 41.10956192 -48.39300919 -157.49926758
v 41.42271042 -47.78872681 -162.03269958
v 46.11304474 -47.23149109 -161.81159973
v 68.03702545 -47.78804398 -135.42385864
v 67.81541443 -47.23125458 -140.11116028
v 67.40482330 -48.44705582 -130.77052307
v 65.92949677 -49.18571472 -126.32149506
v 63.62565231 -49.99322891 -122.14875793
v 60.62343597 -50.82293320 -118.49641418
v 57.54058075 -51.53737259 -115.84917450
v 54.03485489 -52.24335480 -113.69262695
v 50.28404999 -52.90504074 -112.13643646
v 46.35406494 -53.51224136 -111.19642639
v 38.28640747 -54.51676178 -111.20745087
v 42.30481720 -54.05599213 -110.88458252
v 30.74287033 -55.15005112 -113.67173004
v 34.41043091 -54.88309097 -112.14530182
v 18.14939117 -54.88309097 -128.40634155
v 19.67602730 -55.15007782 -124.73838043
v 27.33497620 -55.31401062 -115.76460266
v 16.88866806 -54.05581284 -136.30216980
v 17.21139145 -54.51666260 -132.28323364
v 17.20065498 -53.51211548 -140.35084534
v 18.91823769 -53.42960739 -139.29504395
v 18.14060402 -52.90500259 -144.28019714
v 20.18929482 -52.74147797 -143.54306030
v 19.69679070 -52.24332809 -148.03091431
v 64.89290619 -46.50311279 -148.87362671
v 62.29814529 -46.34779358 -152.71414185
v 63.61527252 -46.08906555 -153.00451660
v 54.87743759 -46.50312805 -158.88897705
v 66.75833130 -46.80104446 -144.61868286
v 58.71822739 -46.34778976 -156.29405212
v 59.00876999 -46.08892441 -157.61155701
v 50.62257385 -46.80105591 -160.75434875
v 54.55935287 -45.50822449 -163.00692749
v 60.59903336 -45.21434402 -159.31661987
v 59.74242020 -45.66430283 -158.68807983
v 47.78776169 -46.08537674 -165.14952087
v 40.72555923 -46.91097641 -165.59008789
v 33.79281235 -47.93174744 -164.33584595
v 27.38516617 -49.08880234 -161.46342468
v 21.85080147 -50.31490707 -157.16395569
v 18.39489555 -50.99231339 -153.91807556
v 21.47383499 -50.16113281 -157.50556946
v 15.91702366 -51.80372620 -149.88809204
v 15.22607613 -52.99211502 -144.18286133
v 14.13372040 -52.57065964 -145.55900574
v 14.43977165 -52.67955017 -145.29937744
v 14.50119019 -53.58794022 -140.28970337
v 15.27471447 -53.44870758 -141.46153259
v 15.52483559 -53.23476410 -142.86637878
v 12.85970497 -54.30902863 -132.85188293
v 13.53706646 -53.58835602 -139.60742188
v 12.82542515 -53.50691605 -139.35700989
v 14.34484005 -54.92296982 -126.44268036
v 21.76902390 -55.31402588 -121.33043671
v 17.21891975 -55.30518723 -120.50307465
v 24.33224869 -55.36876678 -118.32815552
v 21.33854866 -55.43597794 -115.33445740
v 26.50637817 -55.30522537 -111.21532440
v 32.44510651 -54.92310715 -108.34133911
v 38.85342026 -54.30931091 -106.85591125
v 45.36112213 -53.50697708 -106.82138824
v 47.62589645 -53.42570496 -109.33040619
v 45.62108231 -53.58969879 -107.55281830
v 46.29378891 -53.58794022 -108.49710083
v 55.88413239 -51.80524445 -109.90881348
v 51.55473709 -52.57457352 -108.14066315
v 50.66832733 -52.87768173 -108.96183014
v 49.21314621 -53.17751312 -109.49388885
v 48.41197968 -53.30780792 -109.50400543
v 59.91849899 -50.99310684 -112.38813019
v 63.16804886 -50.31490707 -115.84671021
v 67.46744537 -49.08882904 -121.38095093
v 70.33987427 -47.93178177 -127.78851318
v 71.59415436 -46.91101456 -134.72117615
v 71.15367889 -46.08541489 -141.78330994
v 69.01114655 -45.50824738 -148.55496216
v 64.69216919 -45.66430664 -153.73832703
v 72.29953003 -45.00811768 -117.60203552
v 68.23860931 -43.45220566 -109.11389160
v 67.68961334 -45.25331879 -110.10561371
v 67.94506073 -43.50477600 -108.80592346
v 75.76566315 -43.61715698 -125.29196167
v 77.30685425 -42.38442612 -133.63777161
v 76.81793213 -41.38451385 -142.14637756
v 74.28111267 -40.67777252 -150.35154724
v 69.83907318 -40.31196976 -157.72749329
v 63.73142242 -40.31197357 -163.83509827
v 56.35564041 -40.67777252 -168.27702332
v 48.15048981 -41.38451004 -170.81384277
v 39.64196396 -42.38441086 -171.30276489
v 31.29615211 -43.61714172 -169.76159668
v 23.60621071 -45.00809860 -166.29548645
v 16.10970879 -45.25331879 -161.68551636
v 16.96663475 -46.48014832 -161.12864685
v 11.59671593 -46.49594116 -156.23219299
v 14.80998611 -43.50478363 -161.94093323
v 14.93200493 -49.22929382 -155.65827942
v 17.69163132 -47.34829712 -160.61499023
v 25.38940239 -47.47261810 -164.15475464
v 18.57690620 -48.24028015 -159.94567871
v 19.27061081 -48.82914734 -159.39364624
v 32.47390747 -46.19112778 -167.34834290
v 40.15377045 -45.05677414 -168.76644897
v 47.98380661 -44.13656235 -168.31687927
v 55.52233887 -43.48725891 -165.98600769
v 62.30056763 -43.15107346 -161.90414429
v 67.90813446 -43.15106583 -156.29661560
v 71.99009705 -43.48725891 -149.51826477
v 74.32098389 -44.13656616 -141.97966003
v 74.77053833 -45.05678558 -134.14958191
v 73.35240173 -46.19114304 -126.46972656
v 67.13273621 -46.48014832 -110.96253967
v 70.15879822 -47.47263336 -119.38523865
v 62.23621368 -46.49595261 -105.59258270
v 66.61907959 -47.34829712 -111.68753815
v 20.96769142 -49.92190552 -157.95602417
v 63.63177490 -43.95288086 -159.41464233
v 60.90651321 -45.05890274 -159.45848083
v 62.30731583 -44.41517639 -159.71205139
v 64.68861389 -43.79097748 -158.69163513
v 65.41767883 -43.95224762 -157.63006592
v 65.71615601 -44.41549301 -156.30247498
v 65.46157837 -45.06010056 -154.89996338
v 65.32010651 -45.21493149 -154.59376526
v 65.94976807 -48.24028015 -112.57281494
v 65.39772797 -48.82914734 -113.26651764
v 61.65713882 -49.23041153 -108.92417145
v 63.96011734 -49.92190552 -114.96360016
v 63.50965500 -50.16113281 -115.46974182
v 12.40598011 -53.42919159 -139.28521729
v 9.50681114 -53.26644516 -128.70390320
v 8.69694996 -52.59923172 -134.86506653
v 11.26590633 -53.10295105 -139.34817505
v 11.45427895 -53.76296616 -122.77413177
v 14.47598267 -54.06882477 -117.29930115
v 20.34812164 -55.15773392 -114.34403229
v 12.05402565 -50.19059753 -150.82623291
v 13.30510902 -52.27705002 -146.02259827
v 12.02505589 -51.80873871 -146.26457214
v 10.70862675 -51.32033920 -146.00704956
v 9.98937607 -51.07150650 -145.61077881
v 8.21941376 -47.69260788 -150.01171875
v 9.55144310 -50.93695831 -145.23944092
v 8.80085564 -50.82188416 -144.12339783
v 14.50537395 -43.55722427 -161.64393616
v 6.10262299 -48.80374527 -143.21673584
v 8.99246407 -51.77183914 -141.01936340
v 5.34925699 -49.78283310 -136.11743164
v 8.74245453 -51.49840546 -141.55368042
v 8.52643585 -51.03609085 -142.79342651
v 9.33724213 -52.06864548 -140.52429199
v 10.21821308 -52.63541412 -139.76777649
v 51.60571289 -51.06728745 -103.97255707
v 47.01910400 -51.77423477 -102.99088287
v 40.87053680 -52.59906769 -102.69280243
v 46.45159149 -52.11894989 -103.39902496
v 45.29366684 -53.43709183 -106.43985748
v 45.34082031 -53.12215424 -105.31519318
v 45.72826385 -52.67491150 -104.28845215
v 56.01570129 -47.69262695 -102.21527100
v 56.81875610 -50.19274139 -106.04429626
v 52.07798004 -51.38577271 -104.88273621
v 52.24808884 -51.95022964 -106.40116119
v 51.76166153 -52.46688080 -107.83660126
v 57.57369232 62.00000000 -167.52183533
v 66.81318665 62.00000000 -160.80909729
v 46.71220779 62.00000000 -171.05059814
v 77.05468750 62.00000000 -140.70811462
v 73.52592468 62.00000000 -151.56959534
v 35.29232788 62.00000000 -171.05014038
v 24.43215561 62.00000000 -167.52102661
v 8.48320961 62.00000000 -151.57220459
v 15.19469452 62.00000000 -160.80940247
v 4.95347309 62.00000000 -129.29203796
v 4.95398092 62.00000000 -140.71199036
v 24.43455505 62.00000000 -102.47813416
v 15.19499397 62.00000000 -109.19091034
v 35.29611969 62.00000000 -98.94937897
v 8.48222446 62.00000000 -118.43046570
v 46.71606827 62.00000000 -98.94989014
v 57.57629776 62.00000000 -102.47911835
v 73.52511597 62.00000000 -118.42806244
v 66.81349182 62.00000000 -109.19060516
v 77.05423737 62.00000000 -129.28823853
v 68.22769928 60.00000000 -107.77639008
v 75.21658325 60.00000000 -117.34339905
v 58.66098022 60.00000000 -100.78765869
v 2.88882661 60.00000000 -129.57077026
v 3.04275656 60.00000000 -141.41770935
v 6.79175138 60.00000000 -152.65689087
v 13.78048038 60.00000000 -162.22361755
v 34.58660889 60.00000000 -172.96138000
v 23.34748840 60.00000000 -169.21249390
v 46.43348312 60.00000000 -173.11524963
v 57.76617813 60.00000000 -169.65951538
v 67.23414612 60.61431503 -162.33695984
v 67.51147461 60.00000000 -162.92147827
v 67.31918335 60.33543396 -162.64144897
v 67.52060699 61.00000000 -161.51649475
v 67.24643707 60.82596588 -162.03094482
v 67.34764099 60.95698166 -161.74874878
v 75.66361237 60.00000000 -151.76208496
v 68.92556763 60.00000000 -161.50738525
v 68.64555359 60.33542252 -161.31509399
v 67.75287628 60.95697021 -161.34353638
v 68.03508759 60.82593536 -161.24234009
v 68.34107971 60.61429214 -161.23005676
v 79.11933136 60.00000000 -140.42938232
v 78.96546936 60.00000000 -128.58251953
v 67.51147461 58.00000000 -162.92147827
v 68.92556763 58.00000000 -161.50738525
v 68.22769928 58.00000000 -162.22361755
v 64.14542389 -3.17504168 -165.76895142
v 71.77429199 -3.17517591 -158.13967896
v 54.59869003 -4.57546902 -171.01995850
v 43.67118073 -7.35952711 -173.40750122
v 32.13810730 -11.42653465 -172.46524048
v 13.78048038 -0.00000001 -162.22361755
v 16.17180252 -19.25399590 -164.42120361
v 21.09994698 -16.49515915 -167.95565796
v -15.50788212 -0.00000001 -132.93524170
v 77.02480316 -4.57587862 -148.59257507
v 79.41175842 -7.36022329 -137.66479492
v 78.46876526 -11.42750645 -126.13160706
v 73.95837402 -16.49634171 -115.09358978
v -25.27036476 -0.00000001 -121.03962708
v -26.63241005 10.84670353 -115.89760590
v -22.69007301 -20.81467056 -113.62149811
v -27.98299408 -0.00000001 -116.67736816
v -26.63241005 -10.84670353 -115.89760590
v -23.11238861 -30.79070473 -77.42736816
v -22.99450493 -29.09635925 -94.28901672
v -31.38059044 -22.30490112 -77.42736816
v -29.92659378 -20.81467056 -96.14452362
v -36.67698669 -11.70677757 -77.42736816
v -34.32400894 -10.84670353 -97.32157135
v -36.99164581 -0.00000001 -92.74195862
v -35.83049393 -0.00000001 -97.72480774
v -38.50000000 -0.00000001 -77.42736816
v -36.67698669 11.70677757 -77.42736816
v -32.52454376 -0.00000001 -107.46801758
v -34.32400894 10.84670353 -97.32157135
v -38.50000000 -0.00000001 -75.80000305
v -36.67698669 11.70677757 -75.80000305
v -36.67698669 -11.70677757 -75.80000305
v -31.38059044 -22.30490112 -75.80000305
v -23.11238861 -30.79070473 -75.80000305
v -31.38059044 22.30490112 -77.42736816
v -23.11238861 30.79070473 -75.80000305
v -29.92659378 20.81467056 -96.14452362
v -31.38059044 22.30490112 -75.80000305
vn -0.17569221 0.03085797 0.98396140
vn -0.17569220 -0.03085802 0.98396140
vn -0.15476611 0.08903628 0.98393089
vn -0.11519319 0.13696260 0.98385557
vn 0.11519316 0.13696260 0.98385557
vn 0.06127783 0.16901774 0.98370627
vn -0.06127784 0.16901770 0.98370628
vn 0.15476612 0.08903630 0.98393088
vn 0.17569220 0.03085802 0.98396140
vn 0.17569221 -0.03085797 0.98396140
vn 0.15476611 -0.08903628 0.98393089
vn 0.11519319 -0.13696260 0.98385557
vn -0.11519316 -0.13696260 0.98385557
vn -0.06127783 -0.16901774 0.98370627
vn 0.06127784 -0.16901770 0.98370628
vn -0.15476612 -0.08903630 0.98393088
vn -0.00000000 -0.18042694 0.98358839
vn 0.00000000 0.18042694 0.98358839
vn -0.32024592 -0.44225583 0.83776628
vn 0.32024600 -0.44225577 0.83776628
vn -0.44152799 -0.32163213 0.83761913
vn -0.51961688 -0.16911669 0.83749498
vn -0.54659265 -0.00000001 0.83739863
vn -0.51961846 0.16911709 0.83749392
vn -0.44152806 0.32163206 0.83761912
vn -0.32024600 0.44225577 0.83776628
vn 0.31983701 0.44218444 0.83796015
vn 0.44145755 0.32121156 0.83781762
vn 0.51961688 0.16911669 0.83749498
vn 0.54659265 0.00000001 0.83739863
vn 0.51961846 -0.16911709 0.83749392
vn 0.44152806 -0.32163206 0.83761912
vn 0.77743900 -0.00513631 0.62893737
vn 0.71482574 0.20994330 0.66704420
vn 0.72966846 -0.22397813 0.64607874
vn 0.60659267 -0.44311734 0.66006996
vn -0.16789813 -0.51895577 0.83814982
vn 0.16789818 -0.51895574 0.83814983
vn 0.44062364 -0.63237234 0.63714679
vn -0.00000000 -0.54507074 0.83839006
vn 0.22676034 -0.78260065 0.57975510
vn -0.02910970 -0.86391131 0.50280202
vn -0.30192634 -0.84955506 0.43254674
vn -0.54379711 -0.73924004 0.39725164
vn -0.74446242 -0.54066072 0.39174186
vn -0.87526125 -0.28425841 0.39129898
vn -0.92039379 0.00000002 0.39099268
vn -0.87526185 0.28425862 0.39129751
vn -0.74446252 0.54066059 0.39174186
vn 0.16789813 0.51895577 0.83814982
vn -0.16789818 0.51895574 0.83814983
vn -0.55580143 0.71795560 0.41907580
vn 0.00000000 0.54507074 0.83839006
vn -0.29507117 0.81626028 0.49664087
vn -0.03329384 0.81634361 0.57660613
vn 0.21099761 0.72315694 0.65766560
vn 0.41109803 0.58570267 0.69853475
vn 0.58097089 0.41168508 0.70213120
vn -0.79440107 -0.20258961 -0.57261190
vn -0.69040483 -0.01962832 -0.72315690
vn -0.71559584 -0.09343700 -0.69223705
vn -0.58268422 -0.01460857 -0.81256735
vn -0.75185697 -0.40219603 -0.52244564
vn -0.68549299 -0.08638764 -0.72293605
vn -0.65184845 -0.08320683 -0.75377067
vn -0.61979935 -0.23385719 -0.74910585
vn -0.70181187 -0.33236123 -0.63007627
vn -0.68216694 -0.23968369 -0.69079663
vn -0.71554275 -0.02993978 -0.69792706
vn -0.79434745 -0.46637871 -0.38923391
vn 0.75001641 -0.29328668 0.59283919
vn 0.88705121 -0.13468139 0.44158926
vn 0.89839683 -0.01582546 0.43889942
vn 0.95313605 -0.13382474 0.27133485
vn 0.94253512 -0.01385351 0.33381976
vn 0.98729498 -0.01372598 0.15830421
vn 0.98605784 -0.13207583 0.10122210
vn 0.99890559 -0.01151334 0.04533293
vn 0.99074579 -0.13079289 -0.03627664
vn 0.98754499 -0.01130741 -0.15693002
vn 0.92020404 -0.12850866 -0.36974322
vn 0.90530499 -0.01115150 -0.42461573
vn 0.95676823 -0.12732812 -0.26149971
vn 0.97973266 -0.12846819 -0.15368745
vn 0.86572643 -0.12765243 -0.48396551
vn 0.76000416 -0.01366976 -0.64977443
vn 0.66359522 -0.12777959 -0.73709821
vn 0.64907270 -0.01426811 -0.76059256
vn 0.78016455 -0.12747229 -0.61244926
vn 0.42657171 -0.12726686 -0.89545504
vn 0.42465453 -0.01170839 -0.90527976
vn 0.53717673 -0.12697777 -0.83385719
vn 0.21148958 -0.12762337 -0.96901209
vn 0.15718381 -0.01089668 -0.98750925
vn 0.31839093 -0.12779542 -0.93930589
vn 0.09365713 -0.12984145 -0.98710159
vn -0.04478853 -0.01266287 -0.99891623
vn -0.04541803 -0.13121591 -0.99031287
vn -0.15733241 -0.01377540 -0.98744962
vn -0.22231470 -0.13411338 -0.96570688
vn -0.33303787 -0.01381865 -0.94281219
vn -0.40635808 -0.13356089 -0.90389966
vn -0.44020721 -0.01476816 -0.89777476
vn -0.54825265 -0.13501957 -0.82534160
vn -0.47514277 -0.40226657 -0.78257329
vn -0.55874488 -0.41722261 -0.71674923
vn -0.34216826 -0.38891430 -0.85537509
vn -0.16607053 -0.38382615 -0.90834909
vn -0.01790632 -0.37285580 -0.92771651
vn 0.11045465 -0.39582025 -0.91166118
vn 0.21940783 -0.36646107 -0.90419383
vn 0.31042407 -0.39887726 -0.86286374
vn 0.41175959 -0.36140812 -0.83656333
vn 0.50122379 -0.39584145 -0.76947012
vn 0.62693703 -0.38186431 -0.67906525
vn 0.73458521 -0.35875683 -0.57591502
vn 0.79494183 -0.38772041 -0.46662659
vn 0.85430728 -0.38805812 -0.34578892
vn 0.87904458 -0.39106916 -0.27266379
vn 0.91082929 -0.38297196 -0.15402105
vn 0.91728813 -0.39200060 -0.07012862
vn 0.91853635 -0.38888133 0.07114971
vn 0.89810921 -0.37955967 0.22211326
vn 0.84256640 -0.38684688 0.37474172
vn 0.79194155 -0.35256288 0.49852582
vn 0.60760352 -0.51454846 0.60502715
vn 0.65824038 -0.45771051 0.59767942
vn 0.07132564 -0.98203349 -0.17470799
vn 0.05581994 -0.98414012 -0.16838160
vn 0.07982972 -0.97990027 -0.18281870
vn 0.09187285 -0.97746911 -0.19003557
vn 0.10559855 -0.97522407 -0.19438866
vn 0.12278780 -0.98480774 -0.12278793
vn 0.11866403 -0.97353316 -0.19532547
vn 0.13045378 -0.97202782 -0.19530417
vn 0.19532980 -0.97353003 -0.11868254
vn 0.19530116 -0.97202766 -0.13045950
vn 0.19439225 -0.97522239 -0.10560746
vn 0.19003772 -0.97746814 -0.09187879
vn 0.18282031 -0.97989966 -0.07983356
vn 0.17470945 -0.98203318 -0.07132632
vn 0.16836139 -0.98414599 -0.05577737
vn 0.16361978 -0.98503084 -0.05424772
vn 0.13945172 -0.98698407 -0.08009788
vn 0.12847909 -0.98829543 -0.08225119
vn 0.10823382 -0.99326540 -0.04134338
vn 0.11928565 -0.99111549 -0.05883038
vn 0.08570531 -0.99515658 -0.04814532
vn 0.09839775 -0.99419972 -0.04341432
vn 0.04341482 -0.99419974 -0.09839727
vn 0.04814480 -0.99515664 -0.08570496
vn 0.07347214 -0.99573800 -0.05574652
vn 0.05884798 -0.99111640 -0.11926942
vn 0.04134053 -0.99326535 -0.10823539
vn 0.08190304 -0.98827360 -0.12886885
vn 0.12278691 -0.98480785 -0.12278793
vn 0.08016664 -0.98702119 -0.13914914
vn 0.12278740 -0.98480778 -0.12278800
vn 0.05499811 -0.98501512 -0.16346383
vn 0.17384645 -0.97406196 -0.14484720
vn 0.14141592 -0.98013310 -0.13907065
vn 0.20371122 -0.96247370 -0.17929339
vn 0.14485815 -0.97405579 -0.17387189
vn 0.19266466 -0.97058421 -0.14438361
vn 0.13908185 -0.98012895 -0.14143369
vn 0.17929993 -0.96246963 -0.20372467
vn 0.14438271 -0.97058424 -0.19266517
vn 0.22892012 -0.89745550 -0.37705331
vn 0.27665066 -0.90353625 -0.32724097
vn 0.23029188 -0.93424111 -0.27232188
vn 0.16572530 -0.90329799 -0.39571184
vn 0.09734225 -0.91138735 -0.39987197
vn 0.03048155 -0.92110319 -0.38812342
vn -0.02582443 -0.93227603 -0.36082476
vn -0.03449098 -0.95990701 -0.27818862
vn -0.14411074 -0.94361427 -0.29803391
vn -0.10172219 -0.93241683 -0.34677291
vn -0.16008048 -0.94811038 -0.27470156
vn -0.06425358 -0.98047685 -0.18584031
vn -0.18959424 -0.95778715 -0.21609673
vn -0.13666027 -0.96968771 -0.20255794
vn -0.06246094 -0.98826806 -0.13937311
vn -0.00977262 -0.98925692 -0.14586037
vn -0.01175293 -0.98724239 -0.15879019
vn -0.19948045 -0.97686065 -0.07714160
vn -0.13041144 -0.98079945 -0.14500102
vn -0.18558997 -0.97089758 -0.15137454
vn -0.18336579 -0.98293035 -0.01499705
vn 0.05574625 -0.99573818 -0.07347001
vn -0.15295669 -0.98716636 0.04590015
vn 0.06438730 -0.99584569 -0.06438656
vn -0.06971584 -0.99512802 0.06971313
vn -0.03898932 -0.98968629 0.13784366
vn 0.02249009 -0.98499852 0.17109094
vn 0.07903591 -0.97751839 0.19547665
vn 0.15144282 -0.97108458 0.18455303
vn 0.14476106 -0.98942782 0.00876540
vn 0.14505492 -0.98088114 0.12973534
vn 0.13942536 -0.98836828 0.06073475
vn 0.27423879 -0.94834763 0.15946741
vn 0.20944904 -0.96355035 0.16643863
vn 0.19429561 -0.97711146 0.08661649
vn 0.17059471 -0.98496283 0.02730694
vn 0.15213232 -0.98836013 0.00005078
vn 0.29796481 -0.94363252 0.14413410
vn 0.27818912 -0.95990662 0.03449772
vn 0.36082328 -0.93227659 0.02582479
vn 0.38812300 -0.92110345 -0.03047907
vn 0.39987212 -0.91138758 -0.09733940
vn 0.39571364 -0.90329806 -0.16572065
vn 0.37705439 -0.89745626 -0.22891536
vn 0.27230774 -0.93424754 -0.23028248
vn 0.71120763 -0.63800296 0.29518797
vn 0.71346303 -0.41908365 0.56155088
vn 0.65240409 -0.56864798 0.50100736
vn 0.68621818 -0.43130085 0.58573388
vn 0.77325476 -0.61664813 0.14772324
vn 0.79863652 -0.60115058 -0.02824345
vn 0.78294709 -0.58896024 -0.20029901
vn 0.73082774 -0.57587829 -0.36640827
vn 0.63809203 -0.56806086 -0.51975516
vn 0.51711951 -0.56014704 -0.64716513
vn 0.36546758 -0.58015775 -0.72790826
vn 0.19930288 -0.59062767 -0.78194457
vn 0.02499484 -0.60184531 -0.79822145
vn -0.15280832 -0.60933675 -0.77804778
vn -0.29794010 -0.63923943 -0.70894615
vn -0.49949154 -0.56726467 -0.65476636
vn -0.44072159 -0.65535107 -0.61341621
vn -0.58652392 -0.62091868 -0.52004776
vn -0.59059734 -0.42350729 -0.68690346
vn -0.39087257 -0.80704331 -0.44260561
vn -0.38068832 -0.72373270 -0.57557570
vn -0.17043426 -0.80860077 -0.56313138
vn -0.31633768 -0.78301864 -0.53554858
vn -0.24773935 -0.84828721 -0.46801071
vn -0.06202091 -0.78907763 -0.61115457
vn 0.06222760 -0.77065647 -0.63420527
vn 0.19019896 -0.75548268 -0.62695317
vn 0.31393093 -0.74429684 -0.58946551
vn 0.42671011 -0.72394262 -0.54205678
vn 0.54205437 -0.72394040 -0.42671696
vn 0.58946608 -0.74429619 -0.31393139
vn 0.62695337 -0.75548263 -0.19019849
vn 0.63420440 -0.77065727 -0.06222664
vn 0.61115371 -0.78907821 0.06202197
vn 0.61340751 -0.65535787 0.44072360
vn 0.56313072 -0.80860110 0.17043490
vn 0.53217033 -0.63622541 0.55858031
vn 0.57555806 -0.72373935 0.38070234
vn -0.16454660 -0.90234770 -0.39836296
vn 0.40809746 -0.80217673 -0.43585428
vn 0.30909016 -0.87318619 -0.37684101
vn 0.34904779 -0.84099199 -0.41339825
vn 0.46439605 -0.75408251 -0.46443070
vn 0.43594850 -0.80203281 -0.40827966
vn 0.41337142 -0.84101606 -0.34902158
vn 0.37672094 -0.87326291 -0.30901979
vn 0.32717430 -0.90357327 -0.27660861
vn 0.53552863 -0.78302426 0.31635754
vn 0.46800225 -0.84828754 0.24775420
vn 0.44251672 -0.80705922 0.39094037
vn 0.39835487 -0.90235020 0.16455247
vn 0.34676469 -0.93241889 0.10173137
vn -0.23680311 -0.95965065 -0.15164072
vn -0.45032420 -0.89286503 -0.00040466
vn -0.49684561 -0.86413317 -0.08011437
vn -0.31173203 -0.93837758 -0.14923355
vn -0.37085372 -0.92510956 0.08148512
vn -0.29265925 -0.94576572 0.14098856
vn -0.18106296 -0.96854741 0.17068133
vn -0.43837507 -0.81580800 -0.37720631
vn -0.25473470 -0.93596048 -0.24308068
vn -0.33423354 -0.90380652 -0.26724842
vn -0.41719485 -0.86613764 -0.27523453
vn -0.47777020 -0.83053963 -0.28625086
vn -0.66612265 -0.63082700 -0.39791697
vn -0.52930538 -0.79721728 -0.29031092
vn -0.56571313 -0.77898496 -0.27046459
vn -0.61314217 -0.43519990 -0.65928577
vn -0.71542321 -0.65015335 -0.25587157
vn -0.50828524 -0.84212736 -0.18018776
vn -0.67056074 -0.73092017 -0.12690154
vn -0.55207353 -0.81169967 -0.19067897
vn -0.57251683 -0.79058050 -0.21727158
vn -0.45650304 -0.87201131 -0.17663872
vn -0.38727528 -0.90731638 -0.16369133
vn 0.28309982 -0.83843517 0.46570479
vn 0.22415229 -0.87144487 0.43627926
vn 0.09267145 -0.92950485 0.35697721
vn 0.20520249 -0.88764526 0.41228367
vn 0.15219996 -0.96013919 0.23445237
vn 0.14892148 -0.93977555 0.30764317
vn 0.16811746 -0.91438049 0.36829993
vn 0.43552523 -0.70830977 0.55553132
vn 0.38187880 -0.81689961 0.43225411
vn 0.27452192 -0.87215075 0.40495776
vn 0.26136901 -0.91396240 0.31041742
vn 0.22897458 -0.94696059 0.22546904
vn 0.19455638 0.91001099 -0.36609810
vn 0.28225104 0.91687988 -0.28225101
vn 0.07019156 0.91027662 -0.40800688
vn 0.40800772 0.91027624 -0.07019163
vn 0.36609720 0.91001144 -0.19455597
vn -0.06112297 0.91040883 -0.40916958
vn -0.18638187 0.91039397 -0.36938411
vn -0.36938268 0.91039420 -0.18638355
vn -0.29264115 0.91034147 -0.29264237
vn -0.38400381 0.92279615 0.03143794
vn -0.40917095 0.91040800 -0.06112606
vn -0.09902562 0.97446387 0.20152937
vn -0.17054112 0.97246193 0.15885059
vn -0.02627460 0.96778075 0.25041979
vn -0.26467747 0.95796824 0.11064666
vn 0.08314041 0.94125807 0.32729332
vn 0.19460460 0.91488078 0.35372619
vn 0.36938426 0.91039387 0.18638207
vn 0.29264279 0.91034126 0.29264140
vn 0.40917062 0.91040836 0.06112305
vn 0.66116704 0.46358151 0.58987314
vn 0.82641693 0.38333876 0.41241539
vn 0.41857336 0.62314389 0.66067242
vn -0.71806707 0.69584903 0.01318385
vn -0.78857059 0.58794804 -0.18020413
vn -0.76821247 0.46002534 -0.44522611
vn -0.63977672 0.38730522 -0.66383764
vn -0.15782046 0.37265060 -0.91445297
vn -0.42723604 0.37263513 -0.82377936
vn 0.12661298 0.37257365 -0.91932477
vn 0.39882516 0.37294079 -0.83776707
vn 0.44747748 0.71905567 -0.53171689
vn 0.59348725 0.37733124 -0.71091069
vn 0.44452736 0.71462338 -0.54010077
vn 0.50122148 0.70537011 -0.50122852
vn 0.49099408 0.70768666 -0.50803976
vn 0.49738237 0.70594010 -0.50424136
vn 0.83776659 0.37294228 -0.39882477
vn 0.71091046 0.37733127 -0.59348751
vn 0.54010099 0.71462328 -0.44452727
vn 0.50424039 0.70593882 -0.49738518
vn 0.50804807 0.70769035 -0.49098018
vn 0.53172168 0.71905719 -0.44746935
vn 0.91932499 0.37257335 -0.12661226
vn 0.91445330 0.37264983 0.15782036
vn 0.67390935 -0.00119555 -0.73881307
vn 0.73881362 -0.00119557 -0.67390875
vn 0.70710609 -0.00136194 -0.70710616
vn 0.54926935 -0.00698877 -0.83561614
vn 0.83558916 -0.00661565 -0.54931502
vn 0.29855881 -0.00944777 -0.95434447
vn 0.05100702 -0.01076416 -0.99864028
vn -0.24053877 -0.01198419 -0.97056554
vn -0.69203311 -0.00000015 -0.72186576
vn -0.64257653 -0.01539087 -0.76606692
vn -0.51888968 -0.01386078 -0.85472884
vn -0.75540026 -0.01832614 -0.65500733
vn 0.95439608 -0.00919087 -0.29840182
vn 0.99861236 -0.01072875 -0.05155825
vn 0.97076282 -0.01270050 0.23970448
vn 0.86601734 -0.01797475 0.49969077
vn -0.82023183 -0.01063271 -0.57193241
vn -0.86847353 0.22192963 -0.44328429
vn -0.82676762 -0.43550686 -0.35607453
vn -0.87405512 -0.00000000 -0.48582676
vn -0.85130089 -0.26903173 -0.45045390
vn -0.65258314 -0.75726465 -0.02618199
vn -0.70974910 -0.69479372 -0.11626655
vn -0.81648125 -0.57534494 -0.04833808
vn -0.82912488 -0.51996638 -0.20539448
vn -0.95092475 -0.30448551 -0.05505170
vn -0.92374633 -0.29296473 -0.24670709
vn -0.98758768 -0.00000000 -0.15706868
vn -0.96161769 -0.00000000 -0.27439282
vn -0.99880692 -0.00000000 -0.04883372
vn -0.95092475 0.30448551 -0.05505170
vn -0.92390832 -0.00000000 -0.38261393
vn -0.92923061 0.28310444 -0.23744967
vn -0.99975008 -0.00000000 0.02235564
vn -0.95248387 0.30378401 0.02213039
vn -0.95248387 -0.30378400 0.02213037
vn -0.81503234 -0.57900955 0.02168473
vn -0.62728937 -0.77828578 0.02791579
vn -0.83208852 0.55333678 -0.03804072
vn -0.70901625 0.70396404 0.04160034
vn -0.86353727 0.47419188 -0.17159676
vn -0.81736735 0.57553153 0.02596306
f 97//97 327//327 329//329
f 328//328 62//62 326//326
f 328//328 306//306 327//327
f 326//326 353//353 356//356
f 94//94 329//329 350//350
f 330//330 91//91 350//350
f 350//350 329//329 330//330
f 300//300 332//332 330//330
f 330//330 302//302 300//300
f 329//329 302//302 330//330
f 360//360 73//73 321//321
f 320//320 58//58 34//34
f 322//322 58//58 320//320
f 101//101 328//328 327//327
f 361//361 365//365 364//364
f 326//326 356//356 361//361
f 369//369 370//370 371//371
f 371//371 363//363 369//369
f 365//365 363//363 371//371
f 36//36 35//35 32//32
f 12//12 20//20 32//32
f 32//32 39//39 36//36
f 32//32 20//20 39//39
f 97//97 329//329 351//351
f 329//329 94//94 351//351
f 327//327 306//306 305//305
f 305//305 329//329 327//327
f 305//305 302//302 329//329
f 348//348 332//332 88//88
f 348//348 330//330 332//332
f 91//91 330//330 348//348
f 321//321 73//73 75//75
f 337//337 304//304 303//303
f 308//308 328//328 326//326
f 306//306 328//328 308//308
f 310//310 323//323 309//309
f 362//362 361//361 364//364
f 313//313 55//55 315//315
f 322//322 320//320 318//318
f 318//318 316//316 322//322
f 318//318 320//320 321//321
f 322//322 316//316 56//56
f 316//316 315//315 56//56
f 56//56 315//315 55//55
f 311//311 55//55 313//313
f 52//52 384//384 49//49
f 309//309 323//323 52//52
f 323//323 384//384 52//52
f 328//328 101//101 103//103
f 352//352 101//101 327//327
f 60//60 356//356 353//353
f 39//39 20//20 41//41
f 271//271 190//190 192//192
f 192//192 193//193 271//271
f 368//368 370//370 369//369
f 12//12 32//32 11//11
f 25//25 52//52 49//49
f 374//374 370//370 378//378
f 22//22 46//46 21//21
f 343//343 303//303 319//319
f 337//337 303//303 343//343
f 359//359 76//76 344//344
f 321//321 75//75 344//344
f 344//344 75//75 359//359
f 344//344 343//343 319//319
f 344//344 76//76 78//78
f 78//78 343//343 344//344
f 333//333 332//332 300//300
f 338//338 304//304 337//337
f 338//338 347//347 332//332
f 346//346 347//347 338//338
f 385//385 377//377 375//375
f 375//375 383//383 385//385
f 323//323 383//383 386//386
f 386//386 384//384 323//323
f 49//49 384//384 386//386
f 324//324 310//310 307//307
f 324//324 377//377 385//385
f 385//385 383//383 324//324
f 324//324 383//383 323//323
f 323//323 310//310 324//324
f 317//317 318//318 321//321
f 321//321 344//344 317//317
f 317//317 344//344 319//319
f 27//27 322//322 57//57
f 57//57 56//56 27//27
f 322//322 56//56 57//57
f 54//54 311//311 312//312
f 55//55 311//311 54//54
f 354//354 60//60 353//353
f 326//326 62//62 354//354
f 354//354 353//353 326//326
f 356//356 60//60 69//69
f 371//371 373//373 376//376
f 364//364 365//365 376//376
f 365//365 371//371 376//376
f 376//376 373//373 377//377
f 376//376 362//362 364//364
f 377//377 362//362 376//376
f 372//372 373//373 371//371
f 372//372 370//370 374//374
f 372//372 371//371 370//370
f 377//377 373//373 372//372
f 374//374 375//375 372//372
f 372//372 375//375 377//377
f 38//38 41//41 20//20
f 270//270 269//269 190//190
f 43//43 269//269 270//270
f 190//190 271//271 270//270
f 270//270 271//271 43//43
f 380//380 378//378 370//370
f 283//283 366//366 367//367
f 367//367 368//368 369//369
f 367//367 366//366 368//368
f 46//46 380//380 381//381
f 33//33 30//30 35//35
f 33//33 360//360 321//321
f 321//321 320//320 33//33
f 33//33 320//320 34//34
f 34//34 30//30 33//33
f 34//34 58//58 28//28
f 28//28 322//322 27//27
f 28//28 58//58 322//322
f 10//10 30//30 9//9
f 27//27 56//56 50//50
f 31//31 32//32 35//35
f 31//31 11//11 32//32
f 10//10 11//11 31//31
f 35//35 30//30 31//31
f 31//31 30//30 10//10
f 44//44 19//19 21//21
f 43//43 19//19 44//44
f 266//266 269//269 44//44
f 44//44 269//269 43//43
f 88//88 332//332 345//345
f 345//345 347//347 88//88
f 332//332 347//347 345//345
f 102//102 103//103 101//101
f 97//97 351//351 98//98
f 188//188 269//269 266//266
f 190//190 269//269 188//188
f 125//125 33//33 35//35
f 300//300 301//301 331//331
f 331//331 333//333 300//300
f 332//332 333//333 331//331
f 304//304 338//338 339//339
f 374//374 378//378 379//379
f 379//379 375//375 374//374
f 325//325 324//324 307//307
f 325//325 362//362 377//377
f 377//377 324//324 325//325
f 307//307 308//308 325//325
f 325//325 308//308 326//326
f 326//326 361//361 325//325
f 361//361 362//362 325//325
f 314//314 54//54 312//312
f 309//309 52//52 314//314
f 52//52 54//54 314//314
f 17//17 38//38 15//15
f 15//15 20//20 12//12
f 15//15 38//38 20//20
f 40//40 38//38 17//17
f 41//41 38//38 40//40
f 291//291 41//41 294//294
f 29//29 30//30 34//34
f 29//29 9//9 30//30
f 8//8 9//9 29//29
f 34//34 28//28 29//29
f 29//29 28//28 8//8
f 45//45 44//44 21//21
f 21//21 46//46 45//45
f 46//46 381//381 45//45
f 382//382 366//366 266//266
f 266//266 44//44 382//382
f 44//44 45//45 382//382
f 382//382 45//45 381//381
f 16//16 22//22 21//21
f 100//100 102//102 101//101
f 101//101 352//352 100//100
f 100//100 98//98 108//108
f 104//104 354//354 62//62
f 96//96 351//351 94//94
f 96//96 98//98 351//351
f 337//337 343//343 357//357
f 190//190 188//188 151//151
f 108//108 98//98 109//109
f 98//98 96//96 109//109
f 107//107 100//100 108//108
f 102//102 100//100 107//107
f 334//334 338//338 332//332
f 55//55 54//54 53//53
f 53//53 18//18 50//50
f 53//53 56//56 55//55
f 53//53 50//50 56//56
f 5//5 28//28 27//27
f 8//8 28//28 5//5
f 17//17 14//14 37//37
f 37//37 40//40 17//17
f 43//43 40//40 37//37
f 37//37 19//19 43//43
f 37//37 14//14 19//19
f 42//42 40//40 43//43
f 43//43 271//271 42//42
f 42//42 271//271 193//193
f 42//42 193//193 194//194
f 42//42 290//290 294//294
f 294//294 41//41 42//42
f 41//41 40//40 42//42
f 41//41 291//291 289//289
f 195//195 42//42 194//194
f 290//290 42//42 195//195
f 296//296 295//295 39//39
f 39//39 41//41 296//296
f 1//1 24//24 23//23
f 46//46 22//22 23//23
f 19//19 14//14 13//13
f 13//13 16//16 21//21
f 21//21 19//19 13//13
f 1//1 23//23 2//2
f 22//22 16//16 2//2
f 2//2 23//23 22//22
f 99//99 100//100 352//352
f 98//98 100//100 99//99
f 97//97 98//98 99//99
f 99//99 327//327 97//97
f 99//99 352//352 327//327
f 103//103 102//102 355//355
f 102//102 104//104 355//355
f 355//355 104//104 62//62
f 62//62 328//328 355//355
f 328//328 103//103 355//355
f 60//60 354//354 65//65
f 354//354 104//104 65//65
f 93//93 94//94 350//350
f 93//93 96//96 94//94
f 80//80 357//357 343//343
f 349//349 338//338 337//337
f 190//190 151//151 189//189
f 192//192 190//190 189//189
f 189//189 191//191 192//192
f 194//194 193//193 148//148
f 148//148 149//149 194//194
f 301//301 334//334 336//336
f 336//336 334//334 332//332
f 27//27 50//50 6//6
f 6//6 5//5 27//27
f 50//50 18//18 6//6
f 26//26 54//54 52//52
f 52//52 25//25 26//26
f 51//51 7//7 18//18
f 18//18 53//53 51//51
f 51//51 53//53 54//54
f 54//54 26//26 51//51
f 51//51 26//26 7//7
f 25//25 24//24 3//3
f 3//3 24//24 1//1
f 198//198 195//195 199//199
f 288//288 296//296 41//41
f 41//41 289//289 288//288
f 288//288 289//289 291//291
f 295//295 296//296 249//249
f 39//39 295//295 249//249
f 36//36 39//39 249//249
f 48//48 23//23 24//24
f 386//386 379//379 48//48
f 49//49 386//386 48//48
f 48//48 25//25 49//49
f 48//48 24//24 25//25
f 61//61 69//69 60//60
f 356//356 69//69 61//61
f 350//350 91//91 95//95
f 95//95 93//93 350//350
f 358//358 343//343 78//78
f 358//358 80//80 343//343
f 89//89 87//87 86//86
f 86//86 349//349 89//89
f 86//86 87//87 88//88
f 88//88 347//347 86//86
f 86//86 347//347 346//346
f 346//346 338//338 86//86
f 338//338 349//349 86//86
f 226//226 107//107 108//108
f 219//219 218//218 244//244
f 107//107 226//226 227//227
f 227//227 226//226 237//237
f 281//281 285//285 283//283
f 281//281 367//367 369//369
f 283//283 367//367 281//281
f 152//152 148//148 193//193
f 152//152 193//193 192//192
f 192//192 191//191 152//152
f 191//191 189//189 152//152
f 152//152 189//189 151//151
f 194//194 149//149 146//146
f 146//146 195//195 194//194
f 199//199 195//195 146//146
f 146//146 147//147 199//199
f 146//146 152//152 151//151
f 149//149 148//148 146//146
f 148//148 152//152 146//146
f 357//357 81//81 82//82
f 337//337 357//357 82//82
f 82//82 349//349 337//337
f 357//357 80//80 83//83
f 83//83 81//81 357//357
f 335//335 331//331 301//301
f 301//301 336//336 335//335
f 332//332 331//331 335//335
f 335//335 336//336 332//332
f 342//342 341//341 301//301
f 342//342 301//301 304//304
f 304//304 339//339 342//342
f 342//342 339//339 338//338
f 338//338 341//341 342//342
f 340//340 334//334 301//301
f 301//301 341//341 340//340
f 338//338 334//334 340//340
f 340//340 341//341 338//338
f 4//4 26//26 25//25
f 25//25 3//3 4//4
f 7//7 26//26 4//4
f 143//143 146//146 142//142
f 297//297 291//291 294//294
f 297//297 288//288 291//291
f 296//296 288//288 297//297
f 71//71 125//125 35//35
f 35//35 214//214 71//71
f 71//71 214//214 125//125
f 262//262 249//249 296//296
f 296//296 200//200 262//262
f 127//127 249//249 215//215
f 215//215 213//213 125//125
f 125//125 214//214 215//215
f 126//126 127//127 36//36
f 36//36 249//249 126//126
f 126//126 249//249 127//127
f 23//23 48//48 47//47
f 46//46 23//23 47//47
f 47//47 379//379 378//378
f 47//47 48//48 379//379
f 47//47 380//380 46//46
f 378//378 380//380 47//47
f 60//60 65//65 64//64
f 64//64 61//61 60//60
f 67//67 361//361 356//356
f 356//356 61//61 67//67
f 91//91 348//348 92//92
f 92//92 348//348 88//88
f 88//88 87//87 92//92
f 150//150 151//151 188//188
f 188//188 154//154 150//150
f 185//185 154//154 188//188
f 185//185 188//188 266//266
f 267//267 185//185 266//266
f 268//268 185//185 267//267
f 266//266 366//366 267//267
f 267//267 366//366 283//283
f 245//245 244//244 218//218
f 116//116 87//87 89//89
f 128//128 130//130 158//158
f 176//176 178//178 232//232
f 234//234 237//237 174//174
f 234//234 227//227 237//237
f 174//174 251//251 234//234
f 233//233 227//227 234//234
f 66//66 65//65 104//104
f 66//66 64//64 65//65
f 156//156 146//146 151//151
f 158//158 130//130 156//156
f 130//130 133//133 156//156
f 81//81 83//83 119//119
f 145//145 147//147 144//144
f 147//147 146//146 144//144
f 146//146 143//143 144//144
f 208//208 207//207 139//139
f 202//202 198//198 199//199
f 143//143 200//200 202//202
f 205//205 143//143 142//142
f 205//205 200//200 143//143
f 261//261 262//262 205//205
f 205//205 262//262 200//200
f 125//125 213//213 124//124
f 213//213 217//217 124//124
f 260//260 262//262 261//261
f 261//261 248//248 260//260
f 249//249 262//262 247//247
f 247//247 215//215 249//249
f 213//213 215//215 247//247
f 127//127 215//215 216//216
f 216//216 215//215 214//214
f 216//216 214//214 35//35
f 216//216 35//35 36//36
f 36//36 127//127 216//216
f 365//365 361//361 59//59
f 361//361 67//67 59//59
f 90//90 95//95 91//91
f 91//91 92//92 90//90
f 87//87 116//116 115//115
f 96//96 93//93 110//110
f 110//110 109//109 96//96
f 241//241 254//254 240//240
f 172//172 238//238 239//239
f 154//154 185//185 182//182
f 129//129 128//128 159//159
f 159//159 128//128 158//158
f 159//159 157//157 184//184
f 158//158 156//156 159//159
f 159//159 156//156 157//157
f 274//274 273//273 268//268
f 274//274 178//178 273//273
f 218//218 217//217 246//246
f 246//246 245//245 218//218
f 213//213 248//248 246//246
f 246//246 217//217 213//213
f 208//208 245//245 246//246
f 246//246 207//207 208//208
f 248//248 207//207 246//246
f 219//219 244//244 220//220
f 244//244 243//243 220//220
f 220//220 119//119 219//219
f 220//220 243//243 242//242
f 129//129 176//176 175//175
f 175//175 128//128 129//129
f 174//174 130//130 175//175
f 130//130 128//128 175//175
f 142//142 146//146 141//141
f 236//236 234//234 251//251
f 236//236 251//251 176//176
f 176//176 232//232 236//236
f 280//280 228//228 67//67
f 229//229 227//227 233//233
f 229//229 228//228 227//227
f 233//233 232//232 229//229
f 227//227 228//228 105//105
f 107//107 227//227 105//105
f 105//105 228//228 106//106
f 105//105 104//104 102//102
f 102//102 107//107 105//105
f 105//105 66//66 104//104
f 106//106 66//66 105//105
f 285//285 281//281 279//279
f 279//279 278//278 285//285
f 275//275 286//286 276//276
f 285//285 278//278 284//284
f 278//278 276//276 284//284
f 283//283 285//285 284//284
f 284//284 267//267 283//283
f 146//146 156//156 137//137
f 137//137 141//141 146//146
f 121//121 218//218 219//219
f 143//143 202//202 203//203
f 203//203 202//202 199//199
f 298//298 297//297 294//294
f 298//298 200//200 296//296
f 296//296 297//297 298//298
f 261//261 205//205 263//263
f 263//263 248//248 261//261
f 263//263 207//207 248//248
f 359//359 75//75 74//74
f 74//74 76//76 359//359
f 33//33 125//125 72//72
f 125//125 124//124 72//72
f 360//360 33//33 72//72
f 73//73 360//360 72//72
f 124//124 74//74 72//72
f 72//72 75//75 73//73
f 72//72 74//74 75//75
f 262//262 260//260 250//250
f 250//250 247//247 262//262
f 213//213 247//247 250//250
f 250//250 248//248 213//213
f 250//250 260//260 248//248
f 70//70 363//363 365//365
f 369//369 363//363 70//70
f 70//70 281//281 369//369
f 239//239 224//224 223//223
f 223//223 240//240 239//239
f 241//241 240//240 223//223
f 111//111 110//110 93//93
f 224//224 110//110 111//111
f 93//93 95//95 111//111
f 109//109 110//110 225//225
f 225//225 110//110 224//224
f 108//108 109//109 225//225
f 225//225 226//226 108//108
f 237//237 226//226 225//225
f 225//225 238//238 237//237
f 225//225 224//224 239//239
f 239//239 238//238 225//225
f 237//237 238//238 173//173
f 238//238 172//172 173//173
f 174//174 237//237 173//173
f 168//168 240//240 254//254
f 254//254 253//253 168//168
f 184//184 182//182 179//179
f 179//179 159//159 184//184
f 179//179 178//178 176//176
f 179//179 176//176 129//129
f 129//129 159//159 179//179
f 154//154 182//182 153//153
f 153//153 150//150 154//154
f 157//157 156//156 153//153
f 153//153 155//155 157//157
f 151//151 150//150 153//153
f 153//153 156//156 151//151
f 287//287 274//274 268//268
f 268//268 267//267 287//287
f 267//267 286//286 287//287
f 287//287 286//286 275//275
f 275//275 274//274 287//287
f 253//253 258//258 169//169
f 170//170 168//168 169//169
f 169//169 168//168 253//253
f 259//259 258//258 211//211
f 170//170 169//169 259//259
f 259//259 169//169 258//258
f 81//81 119//119 118//118
f 119//119 220//220 118//118
f 221//221 220//220 242//242
f 221//221 115//115 116//116
f 221//221 242//242 241//241
f 176//176 251//251 177//177
f 177//177 175//175 176//176
f 177//177 251//251 174//174
f 174//174 175//175 177//177
f 206//206 205//205 142//142
f 142//142 141//141 206//206
f 233//233 234//234 235//235
f 234//234 236//236 235//235
f 235//235 232//232 233//233
f 235//235 236//236 232//232
f 231//231 66//66 106//106
f 106//106 228//228 231//231
f 228//228 280//280 231//231
f 61//61 64//64 68//68
f 64//64 66//66 68//68
f 68//68 67//67 61//61
f 68//68 280//280 67//67
f 66//66 231//231 68//68
f 68//68 231//231 280//280
f 67//67 228//228 230//230
f 228//228 229//229 230//230
f 230//230 229//229 232//232
f 282//282 276//276 286//286
f 282//282 284//284 276//276
f 282//282 286//286 267//267
f 267//267 284//284 282//282
f 141//141 137//137 138//138
f 208//208 139//139 138//138
f 211//211 243//243 210//210
f 210//210 243//243 244//244
f 211//211 210//210 164//164
f 164//164 210//210 137//137
f 120//120 119//119 83//83
f 219//219 119//119 120//120
f 120//120 121//121 219//219
f 211//211 164//164 162//162
f 162//162 164//164 160//160
f 204//204 144//144 143//143
f 143//143 203//203 204//204
f 145//145 144//144 204//204
f 293//293 298//298 294//294
f 294//294 290//290 293//293
f 290//290 195//195 293//293
f 123//123 124//124 217//217
f 123//123 74//74 124//124
f 365//365 59//59 63//63
f 63//63 70//70 365//365
f 63//63 59//59 67//67
f 67//67 230//230 63//63
f 95//95 90//90 112//112
f 112//112 111//111 95//95
f 112//112 223//223 224//224
f 224//224 111//111 112//112
f 114//114 92//92 87//87
f 87//87 115//115 114//114
f 132//132 133//133 130//130
f 132//132 173//173 172//172
f 171//171 135//135 172//172
f 171//171 172//172 239//239
f 239//239 240//240 171//171
f 240//240 168//168 171//171
f 265//265 185//185 268//268
f 265//265 187//187 185//185
f 268//268 273//273 265//265
f 186//186 182//182 185//185
f 185//185 187//187 186//186
f 186//186 179//179 182//182
f 183//183 182//182 184//184
f 183//183 153//153 182//182
f 155//155 153//153 183//183
f 184//184 157//157 183//183
f 157//157 155//155 183//183
f 257//257 253//253 254//254
f 257//257 258//258 253//253
f 257//257 256//256 242//242
f 242//242 243//243 257//257
f 257//257 243//243 211//211
f 211//211 258//258 257//257
f 252//252 254//254 241//241
f 252//252 257//257 254//254
f 256//256 257//257 252//252
f 117//117 118//118 220//220
f 117//117 221//221 116//116
f 220//220 221//221 117//117
f 117//117 116//116 89//89
f 207//207 263//263 264//264
f 264//264 206//206 207//207
f 264//264 263//263 205//205
f 205//205 206//206 264//264
f 272//272 276//276 278//278
f 272//272 230//230 232//232
f 275//275 276//276 272//272
f 272//272 274//274 275//275
f 272//272 232//232 178//178
f 178//178 274//274 272//272
f 140//140 138//138 139//139
f 141//141 138//138 140//140
f 140//140 139//139 207//207
f 207//207 206//206 140//140
f 140//140 206//206 141//141
f 137//137 210//210 209//209
f 208//208 138//138 209//209
f 209//209 245//245 208//208
f 244//244 245//245 209//209
f 209//209 210//210 244//244
f 84//84 83//83 80//80
f 84//84 120//120 83//83
f 121//121 120//120 84//84
f 170//170 162//162 166//166
f 166//166 162//162 165//165
f 165//165 163//163 166//166
f 166//166 168//168 170//170
f 161//161 162//162 160//160
f 165//165 162//162 161//161
f 161//161 163//163 165//165
f 160//160 164//164 161//161
f 161//161 164//164 137//137
f 161//161 156//156 133//133
f 161//161 137//137 156//156
f 170//170 259//259 212//212
f 212//212 162//162 170//170
f 212//212 259//259 211//211
f 211//211 162//162 212//212
f 197//197 147//147 145//145
f 145//145 204//204 197//197
f 199//199 147//147 197//197
f 197//197 203//203 199//199
f 197//197 204//204 203//203
f 298//298 293//293 299//299
f 200//200 298//298 299//299
f 122//122 217//217 218//218
f 122//122 123//123 217//217
f 218//218 121//121 122//122
f 70//70 63//63 277//277
f 277//277 63//63 230//230
f 230//230 272//272 277//277
f 281//281 70//70 277//277
f 277//277 272//272 278//278
f 277//277 279//279 281//281
f 278//278 279//279 277//277
f 113//113 112//112 90//90
f 223//223 112//112 113//113
f 113//113 114//114 223//223
f 113//113 90//90 92//92
f 92//92 114//114 113//113
f 222//222 114//114 115//115
f 222//222 221//221 241//241
f 115//115 221//221 222//222
f 241//241 223//223 222//222
f 223//223 114//114 222//222
f 131//131 132//132 130//130
f 173//173 132//132 131//131
f 131//131 130//130 174//174
f 174//174 173//173 131//131
f 135//135 171//171 167//167
f 167//167 171//171 168//168
f 168//168 166//166 167//167
f 167//167 166//166 163//163
f 163//163 161//161 167//167
f 179//179 186//186 181//181
f 178//178 179//179 181//181
f 181//181 186//186 187//187
f 255//255 252//252 241//241
f 256//256 252//252 255//255
f 241//241 242//242 255//255
f 242//242 256//256 255//255
f 81//81 118//118 85//85
f 118//118 117//117 85//85
f 85//85 82//82 81//81
f 349//349 82//82 85//85
f 89//89 349//349 85//85
f 85//85 117//117 89//89
f 136//136 138//138 137//137
f 137//137 209//209 136//136
f 136//136 209//209 138//138
f 121//121 84//84 79//79
f 79//79 358//358 78//78
f 80//80 358//358 79//79
f 79//79 84//84 80//80
f 79//79 122//122 121//121
f 133//133 132//132 134//134
f 134//134 161//161 133//133
f 134//134 167//167 161//161
f 135//135 167//167 134//134
f 172//172 135//135 134//134
f 134//134 132//132 172//172
f 292//292 299//299 293//293
f 292//292 293//293 195//195
f 198//198 202//202 201//201
f 299//299 292//292 201//201
f 201//201 202//202 200//200
f 200//200 299//299 201//201
f 187//187 265//265 180//180
f 180//180 181//181 187//187
f 180//180 265//265 273//273
f 273//273 178//178 180//180
f 178//178 181//181 180//180
f 77//77 79//79 78//78
f 122//122 79//79 77//77
f 78//78 76//76 77//77
f 76//76 74//74 77//77
f 74//74 123//123 77//77
f 123//123 122//122 77//77
f 198//198 201//201 196//196
f 196//196 201//201 292//292
f 195//195 198//198 196//196
f 196//196 292//292 195//195
f 381//381 380//380 370//370
f 370//370 368//368 381//381
f 379//379 386//386 383//383
f 383//383 375//375 379//379
f 300//300 302//302 314//314
f 314//314 310//310 309//309
f 314//314 301//301 300//300
f 319//319 303//303 314//314
f 314//314 311//311 313//313
f 314//314 305//305 306//306
f 306//306 308//308 314//314
f 313//313 315//315 314//314
f 314//314 317//317 319//319
f 302//302 305//305 314//314
f 314//314 303//303 304//304
f 304//304 301//301 314//314
f 314//314 308//308 307//307
f 307//307 310//310 314//314
f 314//314 315//315 316//316
f 316//316 318//318 314//314
f 312//312 311//311 314//314
f 318//318 317//317 314//314
f 382//382 381//381 368//368
f 368//368 366//366 382//382
f 4//4 6//6 18//18
f 12//12 11//11 4//4
f 4//4 11//11 10//10
f 10//10 9//9 4//4
f 4//4 9//9 8//8
f 4//4 14//14 17//17
f 4//4 15//15 12//12
f 8//8 5//5 4//4
f 17//17 15//15 4//4
f 4//4 13//13 14//14
f 1//1 2//2 4//4
f 18//18 7//7 4//4
f 16//16 13//13 4//4
f 4//4 2//2 16//16
f 5//5 6//6 4//4
f 4//4 3//3 1//1

