# https://github.com/mikedh/trimesh
v 3.51004195 46.36733246 -66.00000000
v -9.18498611 45.58383560 -66.00000000
v -21.19303131 41.38967896 -66.00000000
v -31.61543083 34.09859848 -66.00000000
v -39.67221832 24.25623703 -66.00000000
v -44.76057816 12.59922791 -66.00000000
v -46.50000000 -0.00000060 -66.00000000
v -39.67221832 -24.25623703 -66.00000000
v -44.76057816 -12.59922886 -66.00000000
v -31.61543083 -34.09859848 -66.00000000
v -21.19303131 -41.38967896 -66.00000000
v -9.18498611 -45.58383560 -66.00000000
v 3.51004219 -46.36733246 -66.00000000
v 3.50908899 -46.36740494 -53.00000000
v -9.18640327 -45.58354950 -53.00000000
v -21.19449806 -41.38892746 -53.00000000
v -31.61670685 -34.09741592 -53.00000000
v -39.67321014 -24.25461769 -53.00000000
v -44.76119995 -12.59701920 -53.00000000
v -46.50000000 0.00311337 -53.00000000
v -44.75952148 12.60299015 -53.00000000
v -39.67000580 24.25985718 -53.00000000
v -31.61245537 34.10136032 -53.00000000
v -21.19044113 41.39100266 -53.00000000
v -9.18327522 45.58417892 -53.00000000
v 3.51076531 46.36727905 -53.00000000
v -39.61843872 22.37397957 -52.00000000
v -33.07481384 31.24590492 -52.00000000
v -32.64402771 32.01267242 -52.22104263
v -43.83521271 12.19384098 -52.00000000
v -45.71920395 -0.44635740 -52.22105789
v -45.48161697 1.29323483 -52.00000000
v -45.71920395 0.44635731 -52.22107315
v -39.61917877 -22.37343979 -52.00000000
v -43.83594513 -12.19262028 -52.00000000
v -45.48161697 -1.29323483 -52.00000000
v -33.07481384 -31.24590492 -52.00000000
v -32.64401245 -32.01269150 -52.22106171
v 70.30245209 -43.50000000 0.00000000
v 70.30245209 -43.50000000 -57.00000000
v 67.00000000 -43.48850632 0.99993396
v 70.88805389 -41.82236099 11.96411991
v 71.24188232 -42.84274292 0.00000000
v 71.83169556 -41.19018555 11.69070625
v 69.62248993 -43.50000000 -60.32959747
v 71.24188232 -42.84274292 -57.00000000
v 70.49466705 -42.82007217 -60.69955444
v 70.30245209 43.50000000 -57.00000000
v 69.61338806 43.50000000 -60.35098648
v 70.48466492 42.81976700 -60.72331619
v 70.30245209 43.50000000 -0.00000000
v 71.24188232 42.84274292 -57.00000000
v 71.24188232 42.84274292 -0.00000000
v 70.87879181 41.84937668 11.86927605
v 67.00000000 43.48850632 0.99993396
v 78.41254425 -10.00000000 -57.00000000
v 64.00000000 41.84027100 11.90133190
v 64.00000000 43.48850632 0.99993396
v 64.00000000 37.50429916 22.03809547
v 64.00000000 22.03801155 37.50434875
v 64.00000000 30.75910950 30.75918007
v 64.00000000 11.90122986 41.84030151
v 64.00000000 0.99993396 43.48850632
v 64.00000000 -11.90124607 41.84029388
v 64.00000000 -0.99993396 43.48850632
v 64.00000000 -22.03804016 37.50432968
v 64.00000000 -30.75914574 30.75914574
v 64.00000000 -37.50432968 22.03804016
v 64.00000000 -41.84029388 11.90124607
v 78.66761780 6.03082848 42.07682037
v 78.75828552 3.70412850 24.50724030
v 78.74916840 4.00000000 23.00000000
v 78.75124359 3.93462348 9.19340706
v 78.75859070 3.69398570 21.46853828
v 78.60957336 7.13173914 7.00987148
v 78.67195129 -5.94036674 42.08948517
v 78.78068542 2.85003638 25.80641174
v 78.80326080 1.57474077 26.67712975
v 78.81317139 0.05089101 26.99977875
v 78.80420685 -1.49806476 26.70895195
v 78.78151703 -2.81343269 25.84302139
v 78.75859070 -3.69399214 24.53144646
v 78.74916840 -4.00000000 23.00000000
v 78.75439453 -3.83314300 9.23617935
v 78.81317902 0.04491986 9.99989891
v 78.78068542 -2.85001230 20.19356346
v 78.80326843 -1.57466090 19.32283401
v 78.81317139 -0.05057894 19.00021935
v 78.80420685 1.49805117 19.29104614
v 78.78151703 2.81340742 20.15695381
v 77.55963135 17.65833473 38.72127914
v 77.20825195 19.96637535 17.77357292
v 77.15982056 20.26345634 16.26345634
v 77.17215729 20.18820953 2.84470582
v 77.20993042 19.95603752 14.72872353
v 76.94997406 21.50185776 3.70895147
v 76.66847992 23.05595207 3.99964547
v 77.34317017 19.11391258 19.06949615
v 77.53321838 17.84246635 19.93877602
v 77.74352264 16.31784058 20.26315498
v 77.93797302 14.76604939 19.97268867
v 78.08735657 13.45100117 19.10746956
v 78.17950439 12.57052231 17.79740715
v 78.21015930 12.26345634 16.26345634
v 78.17950439 12.57052231 -14.72950459
v 78.18054199 12.56022167 14.75405216
v 78.21015930 12.26345634 -16.26345634
v 78.09133911 13.41416264 13.45627117
v 78.08735657 13.45100117 -13.41944313
v 77.94710541 14.68911839 12.58613873
v 77.93797302 14.76604939 -12.55422401
v 77.75692749 16.21566963 12.26367283
v 77.74352264 16.31784058 -12.26375580
v 77.54426575 17.76569557 12.55616951
v 77.36074829 19.00000000 -0.00000000
v 77.34886932 19.07708168 13.42056370
v 77.53321838 17.84246635 -12.58813572
v 77.31294250 19.30825424 1.53674507
v 75.61637878 28.08880424 32.08980560
v 75.92795563 26.70174217 1.51292515
v 75.86235046 27.00000000 -0.00000000
v 75.78850555 27.33168602 -57.00000000
v 75.93325806 26.67746544 -1.57193804
v 76.11099243 25.85045052 2.80609250
v 76.37227631 24.58187103 3.67410946
v 77.34317017 19.11391258 -13.45741558
v 77.31747437 19.27925301 -1.46603084
v 77.18891907 20.08549309 -2.73944378
v 77.15982056 20.26345634 -16.26345634
v 76.98784637 21.28384399 -3.61339092
v 76.72595978 22.74750710 -3.99225807
v 76.41840363 24.35077286 -3.76478648
v 76.13098907 25.75565910 -2.89876223
v 77.20993042 19.95603752 -17.79818916
v 77.39465332 18.77820969 -57.00000000
v 78.18054199 12.56022167 -17.77285957
v 78.41254425 10.00000000 -0.00000000
v 78.41254425 10.00000000 -57.00000000
v 78.09133911 13.41416264 -19.07064056
v 77.94710541 14.68911839 -19.94077301
v 77.75692749 16.21566963 -20.26323891
v 77.54426575 17.76569557 -19.97074318
v 77.34886932 19.07708168 -19.10634804
v 78.17950439 -12.57052231 14.72950459
v 78.18054199 -12.56022167 -14.75405216
v 78.21015930 -12.26345634 -16.26345634
v 78.17950439 -12.57052231 -17.79740715
v 78.21015930 -12.26345634 16.26345634
v 78.09133911 -13.41416264 -13.45627117
v 78.08735657 -13.45100117 13.41944313
v 77.94710541 -14.68911839 -12.58613873
v 77.93797302 -14.76604939 12.55422401
v 77.75692749 -16.21566963 -12.26367283
v 77.74352264 -16.31784058 12.26375580
v 77.54426575 -17.76569557 -12.55616951
v 77.36074829 -19.00000000 -0.00000000
v 77.34886932 -19.07708359 -13.42056370
v 77.53321838 -17.84246635 12.58813572
v 77.31294250 -19.30825424 -1.53674507
v 77.20993042 -19.95603752 -14.72872353
v 77.17215729 -20.18820953 -2.84470582
v 77.15982056 -20.26345634 -16.26345634
v 77.29904175 -19.39698219 -57.00000000
v 77.20825195 -19.96637535 -17.77357292
v 76.94997406 -21.50185776 -3.70895147
v 77.34317017 -19.11391258 -19.06949615
v 77.53321838 -17.84246635 -19.93877602
v 77.74352264 -16.31784058 -20.26315498
v 77.93797302 -14.76604939 -19.97268867
v 78.08735657 -13.45100117 -19.10746956
v 77.34317017 -19.11391258 13.45741558
v 77.31747437 -19.27925301 1.46603084
v 77.18891907 -20.08549309 2.73944378
v 77.15982056 -20.26345634 16.26345634
v 76.98784637 -21.28384399 3.61339092
v 75.63294983 -28.01687622 32.15161514
v 76.72595978 -22.74750710 3.99225807
v 76.41840363 -24.35077286 3.76478648
v 76.13098907 -25.75565910 2.89876223
v 75.93325806 -26.67746544 1.57193804
v 75.86235046 -27.00000000 0.00000000
v 75.92795563 -26.70174217 -1.51292515
v 75.61132812 -28.11072350 -57.00000000
v 76.11099243 -25.85045052 -2.80609250
v 76.37227631 -24.58187103 -3.67410946
v 76.66847992 -23.05595207 -3.99964547
v 78.47104645 -9.24217129 3.81867361
v 78.18054199 -12.56022167 17.77285957
v 78.41254425 -10.00000000 -0.00000000
v 77.57173920 -17.57329750 38.75933456
v 78.09133911 -13.41416264 19.07064056
v 78.61261749 -7.07821465 7.06391382
v 77.94710541 -14.68911839 19.94077301
v 77.75692749 -16.21566963 20.26323891
v 77.54426575 -17.76569557 19.97074318
v 77.34886932 -19.07708359 19.10634804
v 77.20993042 -19.95603752 17.79818916
v 75.29251862 -26.03939247 -60.82683563
v 73.46432495 -36.17463303 22.77034760
v 72.50836182 -36.73114014 23.30393410
v 71.59049225 -39.70417786 17.77156067
v 74.65923309 -28.44911003 32.90741730
v 73.56356812 -32.94868469 28.40130615
v 76.58161163 -17.84423447 39.67156982
v 75.69456482 -23.36477089 36.69247055
v 77.67272186 -6.03179169 43.07978058
v 77.66841888 6.12363958 43.06682205
v 78.46994019 9.25705528 3.78245020
v 76.56960297 17.93058014 39.63261795
v 73.44907379 36.22504807 22.69157600
v 74.64280701 28.52213669 32.84414291
v 75.67975616 23.44559288 36.64088058
v 71.82234955 41.21693802 11.59808826
v 72.49324036 36.78221130 23.22324181
v 73.54697418 33.01182556 28.32788849
v 71.57867432 39.74102783 17.68900108
v 75.29281616 26.03799629 -60.82683563
v 63.98850632 -43.48850632 0.99993396
v 67.00000000 -0.99993396 43.48850632
v 67.00000000 -0.00000001 43.50000000
v 67.00000000 0.99993396 43.48850632
v 78.62808990 -6.80000019 -60.00000000
v 78.53037262 -8.40369129 -59.56885529
v 78.62808990 6.80000019 -60.00000000
v 78.81316376 -0.00000001 -60.00000000
v 78.53034973 8.40402126 -59.56866074
v 78.44631195 9.56995583 -58.40177155
v 78.55105591 8.09094715 5.87642479
v 78.45079803 9.51126099 3.08777332
v 78.67497253 5.87645054 8.09093380
v 78.77503967 3.08780241 9.51125622
v 78.81318665 -0.00000001 10.00000000
v 78.67497253 -5.87645102 8.09093285
v 78.77503967 -3.08780265 9.51125622
v 78.55105591 -8.09094715 5.87642431
v 78.45079803 -9.51126194 3.08777308
v 78.44632721 -9.56976509 -58.40209198
v 78.79115295 2.34675407 -26.23935699
v 78.81318665 -0.00000001 -27.00000000
v 78.79146576 -2.32980347 -26.25156975
v 78.77155304 3.22588062 -25.36562347
v 78.75519562 3.80713868 -24.22346306
v 78.74916840 3.99989438 -22.97091866
v 78.75576019 3.78859234 -21.71961212
v 78.79150391 2.32811022 -19.74721718
v 78.79111481 -2.34892726 -19.76221466
v 78.75530243 -3.80359793 -21.76506615
v 78.74916840 -3.99998903 -23.00939751
v 78.75556183 -3.79505754 -24.26041412
v 8.09371281 40.70275497 -217.50000000
v 19.56096840 36.60066986 -217.50000000
v 29.34493065 29.34493256 -217.50000000
v 23.05807114 -34.50431442 -217.50000000
v 12.04888439 -39.71227646 -217.50000000
v 0.00000000 -41.50000000 -217.50000000
v -10.74445724 -40.08486938 -217.50000000
v -29.34409332 -29.34520340 -217.50000000
v -26.32577324 32.08053207 -217.50000000
v -4.06922579 41.29949570 -217.50000000
v 40.70275497 8.09371567 -217.50000000
v 36.60066986 19.56097221 -217.50000000
v 38.34045410 -15.88113785 -217.50000000
v 41.29949570 -4.06922722 -217.50000000
v 32.08052826 -26.32577705 -217.50000000
v -20.75207520 -35.93848801 -217.50000000
v -35.93774414 -20.75336456 -217.50000000
v -40.08459091 -10.74545193 -217.50000000
v -39.71227646 12.04888725 -217.50000000
v -41.50000000 -0.00000001 -217.50000000
v -34.50431442 23.05807495 -217.50000000
v -15.88113403 38.34045410 -217.50000000
v 0.00000000 -42.50000000 -216.50000000
v -10.83822155 -41.09480286 -216.50000000
v 22.97684097 -35.75352859 -216.50000000
v 11.97311401 -40.77860260 -216.50000000
v 32.11912155 -27.83185387 -216.50000000
v 38.65926743 -17.65534401 -216.50000000
v 42.06740189 -6.04844713 -216.50000000
v 42.06739807 6.04846001 -216.50000000
v 38.65925980 17.65535545 -216.50000000
v 32.11911392 27.83186150 -216.50000000
v 22.97682953 35.75353622 -216.50000000
v 11.97310543 40.77860641 -216.50000000
v 0.00000000 42.50000000 -216.50000000
v -10.83822727 41.09480286 -216.50000000
v -20.96023560 36.97186279 -216.50000000
v -29.69613075 30.40377998 -216.50000000
v -36.46807861 21.82496834 -216.50000000
v -40.82824326 11.80273247 -216.50000000
v -41.54154205 -0.28523874 -217.45747375
v -41.54159546 0.28540909 -217.45742798
v -40.82824326 -11.80273438 -216.50000000
v -42.48823547 -0.99993080 -216.50000000
v -42.15448761 -0.93841380 -216.83506775
v -41.66926575 -0.55666733 -217.32701111
v -41.87787247 -0.78291547 -217.11480713
v -36.46807480 -21.82497215 -216.50000000
v -29.69612694 -30.40378380 -216.50000000
v -20.96022797 -36.97186661 -216.50000000
v -11.87610817 -44.95771027 -67.00000000
v -39.93174744 -23.82591438 -67.00000000
v -32.52494431 -33.23158264 -67.00000000
v -46.48924637 0.99994218 -67.00000000
v -46.48924637 -0.99994218 -67.00000000
v -44.69203186 -12.83978748 -67.00000000
v -32.52494431 33.23158264 -67.00000000
v -39.93174744 23.82591438 -67.00000000
v -11.87610817 44.95771027 -67.00000000
v -22.96221161 40.43458176 -67.00000000
v -44.69203186 12.83978748 -67.00000000
v -22.96221161 -40.43458176 -67.00000000
v -46.48924637 -0.99994218 -70.00000000
v -46.02668762 -6.61769390 -79.00000000
v -46.48924637 0.99994218 -70.00000000
v -42.29781723 19.31695175 -79.00000000
v -46.02668762 6.61769581 -79.00000000
v -35.14217758 30.45123100 -79.00000000
v -25.13946533 39.11850357 -79.00000000
v -13.10010910 44.61655807 -79.00000000
v 0.00000000 46.50000000 -67.00000000
v 0.00000000 46.50000000 -79.00000000
v 0.00000000 -46.50000000 -67.00000000
v 0.00000000 -46.50000000 -79.00000000
v -13.10011005 -44.61655807 -79.00000000
v -25.13946724 -39.11849976 -79.00000000
v -35.14217758 -30.45122910 -79.00000000
v -42.29781723 -19.31694984 -79.00000000
v -46.50000000 -0.00000001 -70.00000000
v -42.48823547 0.99993080 -216.50000000
v -42.15593338 0.93894506 -216.83361816
v -41.87966919 0.78433937 -217.11299133
v -41.67037582 0.55832499 -217.32588196
vn 0.04060484 0.99917518 -0.00044933
vn -0.16323411 0.98657575 -0.00478744
vn -0.42378772 0.90574510 -0.00545744
vn -0.65263973 0.75764511 -0.00593919
vn -0.83254067 0.55395065 -0.00383558
vn -0.97062327 0.24060127 -0.00121954
vn -0.99998554 -0.00537827 0.00000097
vn -0.83252045 -0.55398114 -0.00382067
vn -0.97061426 -0.24063756 -0.00123219
vn -0.65261346 -0.75766784 -0.00592516
vn -0.42376287 -0.90575679 -0.00544670
vn -0.16322064 -0.98657801 -0.00478141
vn 0.04061015 -0.99917497 -0.00045197
vn -0.01968034 -0.99843480 0.05235105
vn -0.22621965 -0.95842359 0.17392209
vn -0.46072152 -0.84436508 0.27346535
vn -0.64703365 -0.68999905 0.32442066
vn -0.79533736 -0.48836973 0.35907311
vn -0.89192934 -0.25274643 0.37494172
vn -0.93334356 0.00009257 0.35898437
vn -0.89184414 0.25290799 0.37503545
vn -0.79528037 0.48845330 0.35908565
vn -0.64695088 0.69009137 0.32438936
vn -0.46063994 0.84441659 0.27344372
vn -0.22615196 0.95844463 0.17389418
vn -0.01964914 0.99843627 0.05233477
vn -0.65908809 0.31188072 0.68434882
vn -0.60235218 0.49526162 0.62600941
vn -0.59897777 0.51826879 0.61042860
vn -0.66639939 0.17746715 0.72416660
vn -0.69698710 -0.00584587 0.71705983
vn -0.70341791 0.06481436 0.70781519
vn -0.69697106 0.00582209 0.71707562
vn -0.65905822 -0.31187137 0.68438185
vn -0.66642960 -0.17755725 0.72411671
vn -0.70354505 -0.06482029 0.70768827
vn -0.60241342 -0.49526482 0.62594794
vn -0.59891858 -0.51813723 0.61059835
vn 0.30721746 -0.94983744 0.05853442
vn 0.33677757 -0.94091929 -0.03538013
vn 0.01254562 -0.99498495 0.09923482
vn 0.29503897 -0.93123093 0.21391813
vn 0.78666256 -0.61689382 0.02457718
vn 0.79521104 -0.60039402 0.08465474
vn 0.32864498 -0.93971531 -0.09448599
vn 0.81485081 -0.57373415 -0.08274833
vn 0.78938755 -0.57947006 -0.20268631
vn 0.33687899 0.94087304 -0.03564353
vn 0.32861725 0.93970204 -0.09471423
vn 0.78973038 0.57897113 -0.20277660
vn 0.30721427 0.94986420 0.05811541
vn 0.81574362 0.57236235 -0.08344873
vn 0.78669952 0.61685536 0.02435820
vn 0.29492546 0.93167663 0.21212647
vn 0.01233684 0.99502830 0.09882557
vn 0.99503029 -0.09948436 -0.00419343
vn -0.12366364 0.94855697 0.29145667
vn -0.02968560 0.99325715 0.11206696
vn -0.21567065 0.82930320 0.51550206
vn -0.31832083 0.47063127 0.82290829
vn -0.27760362 0.66668096 0.69171723
vn -0.33742678 0.25174021 0.90706672
vn -0.35004718 0.06555397 0.93443547
vn -0.33743798 -0.25167297 0.90708121
vn -0.35005647 -0.06555947 0.93443161
vn -0.31836610 -0.47058546 0.82291698
vn -0.27759918 -0.66678698 0.69161682
vn -0.21561989 -0.82928779 0.51554809
vn -0.12328283 -0.94865616 0.29129509
vn 0.90944122 0.09842477 0.40401637
vn 0.99954517 0.03015375 0.00046326
vn 0.99937655 0.03530590 0.00004922
vn 0.99951364 0.03118466 0.00000065
vn 0.99959486 0.02846243 0.00000534
vn 0.99836567 0.05714867 0.00010969
vn 0.90952907 -0.09696842 0.40417076
vn 0.99973707 0.02290292 0.00111452
vn 0.99991705 0.01260359 0.00265430
vn 0.99999165 0.00039967 0.00406802
vn 0.99992514 -0.01193990 0.00267404
vn 0.99974582 -0.02251869 0.00109680
vn 0.99955202 -0.02992591 0.00044267
vn 0.99937978 -0.03521437 0.00003828
vn 0.99952706 -0.03075147 0.00000026
vn 0.99999493 0.00318542 -0.00000194
vn 0.99973991 -0.02280590 0.00000038
vn 0.99991736 -0.01285611 -0.00000337
vn 0.99999503 -0.00315385 0.00000099
vn 0.99994759 0.01023771 -0.00000956
vn 0.99978399 0.02078407 0.00001234
vn 0.89474678 0.26349087 0.36055618
vn 0.98625787 0.16520757 0.00136555
vn 0.98473260 0.17406553 0.00170480
vn 0.98690208 0.16132045 0.00000191
vn 0.98735604 0.15851832 0.00000599
vn 0.98488418 0.17321383 0.00035575
vn 0.98279216 0.18471097 0.00119236
vn 0.98827453 0.15268703 0.00035243
vn 0.98942473 0.14504726 0.00002638
vn 0.99152031 0.12995151 0.00026871
vn 0.99306270 0.11757915 0.00127443
vn 0.99454237 0.10429221 0.00293331
vn 0.99550768 0.09465925 0.00202243
vn 0.99598709 0.08949261 0.00088309
vn 0.99477597 0.10208218 -0.00000039
vn 0.99501096 0.09976567 0.00000010
vn 0.99555471 0.09418504 -0.00001788
vn 0.99439690 0.10571091 0.00000072
vn 0.99392934 0.11002030 -0.00000101
vn 0.99334002 0.11521982 0.00000169
vn 0.99266400 0.12090569 -0.00000191
vn 0.99190174 0.12700761 0.00000238
vn 0.99109110 0.13318571 -0.00000711
vn 0.98985870 0.14205545 0.00000001
vn 0.98869222 0.14995899 0.00000711
vn 0.98863011 0.15036788 0.00001344
vn 0.98951086 0.14445848 -0.00000015
vn 0.98783068 0.15553311 0.00000197
vn 0.86309874 0.42362210 0.27496341
vn 0.97706614 0.21293598 0.00012819
vn 0.97609562 0.21734154 0.00000860
vn 0.96670473 0.23480148 -0.10173612
vn 0.97720414 0.21230184 -0.00003634
vn 0.97850099 0.20624180 0.00036387
vn 0.98054208 0.19630649 0.00099680
vn 0.98814328 0.15353452 -0.00000410
vn 0.98791267 0.15501144 -0.00001031
vn 0.98700383 0.16069673 -0.00000122
vn 0.98584312 0.16766997 -0.00034520
vn 0.98523504 0.17120710 -0.00021039
vn 0.98324511 0.18228742 -0.00058906
vn 0.98091397 0.19444175 -0.00043915
vn 0.97872620 0.20517066 -0.00014117
vn 0.98726992 0.15905376 -0.00011822
vn 0.98238466 0.15620180 -0.10257373
vn 0.99493920 0.10047835 -0.00029498
vn 0.99650343 0.08355183 0.00003962
vn 0.99516209 0.09816971 -0.00388989
vn 0.99419429 0.10759806 -0.00060503
vn 0.99307073 0.11751510 -0.00085697
vn 0.99156892 0.12957963 -0.00045130
vn 0.99007789 0.14051962 -0.00009757
vn 0.98807752 0.15395720 -0.00001984
vn 0.99477597 -0.10208218 0.00000039
vn 0.99501096 -0.09976567 -0.00000010
vn 0.99555397 -0.09419284 -0.00001960
vn 0.99492730 -0.10059606 -0.00030244
vn 0.99599870 -0.08936312 0.00090455
vn 0.99439690 -0.10571091 -0.00000072
vn 0.99392934 -0.11002030 0.00000101
vn 0.99334002 -0.11521982 -0.00000169
vn 0.99266400 -0.12090569 0.00000191
vn 0.99190174 -0.12700761 -0.00000238
vn 0.99113933 -0.13282631 0.00000054
vn 0.99023122 -0.13943504 -0.00001078
vn 0.98871033 -0.14983953 0.00000003
vn 0.98862955 -0.15037158 -0.00001344
vn 0.98943068 -0.14500666 0.00001056
vn 0.98781545 -0.15562981 0.00000152
vn 0.98730792 -0.15881773 -0.00000009
vn 0.98690208 -0.16132045 -0.00000191
vn 0.98626794 -0.16515306 -0.00011893
vn 0.98186058 -0.15897459 -0.10332902
vn 0.98718444 -0.15958345 -0.00003012
vn 0.98489487 -0.17315321 -0.00022840
vn 0.98856082 -0.15082275 -0.00001992
vn 0.98983629 -0.14221142 -0.00015500
vn 0.99147818 -0.13027127 -0.00064039
vn 0.99299507 -0.11815171 -0.00097988
vn 0.99415895 -0.10792399 -0.00062893
vn 0.98814323 -0.15353489 0.00000405
vn 0.98791267 -0.15501144 0.00001032
vn 0.98700383 -0.16069673 0.00000122
vn 0.98474448 -0.17399860 0.00167239
vn 0.98523411 -0.17121244 0.00022231
vn 0.86335903 -0.42265478 0.27563404
vn 0.98318546 -0.18260621 0.00114642
vn 0.98090134 -0.19450272 0.00112263
vn 0.97868897 -0.20534786 0.00040228
vn 0.97713546 -0.21261769 0.00013346
vn 0.97606281 -0.21748884 0.00000484
vn 0.97709903 -0.21278504 -0.00008148
vn 0.96499220 -0.24049504 -0.10465267
vn 0.97852203 -0.20614216 -0.00021730
vn 0.98055272 -0.19625504 -0.00056514
vn 0.98281791 -0.18457669 -0.00063279
vn 0.99722953 -0.07438151 0.00080608
vn 0.99553634 -0.09435713 0.00203040
vn 0.99650342 -0.08355192 0.00003962
vn 0.89496762 -0.26217575 0.36096653
vn 0.99458956 -0.10384123 0.00293480
vn 0.99838841 -0.05675001 0.00011827
vn 0.99313352 -0.11697956 0.00125872
vn 0.99166622 -0.12883333 0.00029643
vn 0.98952108 -0.14438850 0.00003000
vn 0.98831913 -0.15239798 0.00038032
vn 0.98620230 -0.16553797 0.00148180
vn 0.95220696 -0.21483526 -0.21713523
vn 0.82782550 -0.52879672 0.18729380
vn 0.31266992 -0.82298115 0.47427792
vn 0.37214600 -0.86580355 0.33450197
vn 0.33634566 -0.65203206 0.67950407
vn 0.40566913 -0.73631251 0.54155004
vn 0.36924444 -0.39129111 0.84294117
vn 0.44025141 -0.53791398 0.71890698
vn 0.38689500 -0.14466004 0.91070617
vn 0.38681317 0.14680828 0.91039711
vn 0.99723305 0.07433484 0.00076243
vn 0.36912202 0.39321701 0.84209816
vn 0.82768966 0.52929404 0.18648764
vn 0.33610205 0.65347240 0.67823981
vn 0.43987542 0.53982991 0.71769999
vn 0.79509210 0.60063122 0.08408734
vn 0.31277620 0.82408135 0.47229331
vn 0.40540079 0.73746598 0.54017972
vn 0.37195797 0.86642921 0.33308813
vn 0.95196682 0.21629578 -0.21673787
vn -0.02967432 -0.99324696 0.11216025
vn 0.01052820 -0.04137522 0.99908821
vn 0.01739474 0.00016557 0.99984869
vn 0.01092850 0.04175217 0.99906823
vn 0.99038600 -0.06151967 -0.12389878
vn 0.98712333 -0.10912353 -0.11695980
vn 0.99038332 0.06153402 -0.12391309
vn 0.99336950 -0.00000881 -0.11496533
vn 0.98712857 0.10901638 -0.11701542
vn 0.99480396 0.09947118 -0.02169235
vn 0.99782842 0.06586589 0.00037077
vn 0.99686387 0.07913389 0.00050086
vn 0.99899983 0.04471395 -0.00000605
vn 0.99968381 0.02514508 -0.00000009
vn 1.00000000 -0.00006586 0.00000010
vn 0.99899182 -0.04489266 -0.00000404
vn 0.99968758 -0.02499468 -0.00001385
vn 0.99783415 -0.06577880 0.00039994
vn 0.99686605 -0.07910644 0.00050739
vn 0.99464258 -0.10084549 -0.02272273
vn 0.99985574 0.01698010 -0.00041669
vn 1.00000000 -0.00009567 -0.00000069
vn 0.99983194 -0.01832557 -0.00052140
vn 0.99965635 0.02620781 -0.00057596
vn 0.99949842 0.03166635 -0.00037845
vn 0.99933692 0.03641027 -0.00008197
vn 0.99956941 0.02934263 -0.00000167
vn 0.99984553 0.01757588 -0.00000341
vn 0.99982323 -0.01880181 -0.00000119
vn 0.99952807 -0.03071879 -0.00000007
vn 0.99933795 -0.03638207 -0.00008432
vn 0.99955700 -0.02975899 -0.00044764
vn 0.07615211 0.47837322 -0.87484851
vn 0.20662739 0.43092747 -0.87841143
vn 0.31623388 0.34837215 -0.88240182
vn 0.24482199 -0.33945271 -0.90820375
vn 0.12757516 -0.39312127 -0.91059335
vn 0.00306614 -0.41019899 -0.91199089
vn -0.10893716 -0.39423532 -0.91253011
vn -0.29720033 -0.28416968 -0.91154789
vn -0.28552361 0.36906645 -0.88445815
vn -0.05627391 0.46855057 -0.88164256
vn 0.43929700 0.11241678 -0.89128032
vn 0.39583289 0.23877145 -0.88673813
vn 0.41006767 -0.14519058 -0.90042446
vn 0.44384180 -0.01935272 -0.89589616
vn 0.34165886 -0.25474012 -0.90464175
vn -0.21038910 -0.35161806 -0.91219579
vn -0.36357298 -0.19641043 -0.91062486
vn -0.40496280 -0.09427606 -0.90945982
vn -0.39191153 0.12821889 -0.91102430
vn -0.38567462 0.00041829 -0.92263477
vn -0.35575752 0.26081505 -0.89744754
vn -0.18092048 0.44201289 -0.87857407
vn -0.00056835 -0.92001944 -0.39187230
vn -0.23224930 -0.89282773 -0.38590014
vn 0.45948743 -0.75627891 -0.46573974
vn 0.23254076 -0.87591468 -0.42272717
vn 0.64574581 -0.58405291 -0.49182776
vn 0.78277751 -0.37163426 -0.49914662
vn 0.85522965 -0.13835245 -0.49944053
vn 0.85684108 0.10575451 -0.50461802
vn 0.78742218 0.33946942 -0.51451611
vn 0.65331603 0.55293154 -0.51715073
vn 0.46969567 0.72730452 -0.50041394
vn 0.24416725 0.85079221 -0.46533319
vn 0.00772061 0.89763641 -0.44066911
vn -0.22584992 0.86775417 -0.44271267
vn -0.44688128 0.77786202 -0.44184590
vn -0.63894484 0.63600051 -0.43272722
vn -0.78984502 0.45200317 -0.41453345
vn -0.88708761 0.24619904 -0.39046333
vn -0.59953672 -0.03855835 -0.79941790
vn -0.59004043 0.04180747 -0.80629054
vn -0.88091666 -0.26578621 -0.39159102
vn -0.91834522 -0.06928212 -0.38966915
vn -0.69763603 -0.05843297 -0.71406551
vn -0.66810621 -0.04970794 -0.74240367
vn -0.68739824 -0.05446640 -0.72423551
vn -0.78543707 -0.48077861 -0.38979551
vn -0.63858769 -0.66445328 -0.38821076
vn -0.45006162 -0.80483928 -0.38688276
vn -0.28599368 -0.95822075 0.00454008
vn -0.86058618 -0.50918183 -0.01119364
vn -0.70969293 -0.70448367 -0.00622040
vn -0.99859777 0.05287264 0.00264242
vn -0.99859578 -0.05290910 0.00266510
vn -0.95685235 -0.29046378 -0.00802371
vn -0.70974959 0.70442682 -0.00619531
vn -0.86060687 0.50914720 -0.01117822
vn -0.28597050 0.95822766 0.00454158
vn -0.52296300 0.85234898 0.00330467
vn -0.95686194 0.29043175 -0.00803963
vn -0.52298714 -0.85233417 0.00330334
vn -0.99905110 -0.04255847 -0.00925634
vn -0.98855015 -0.14938095 -0.02130578
vn -0.99905108 0.04255877 -0.00925681
vn -0.91009379 0.41383862 -0.02160780
vn -0.98855003 0.14938172 -0.02130593
vn -0.75707506 0.65295926 -0.02194444
vn -0.54267556 0.83964250 -0.02244343
vn -0.28284881 0.95887704 -0.02348131
vn -0.03118265 0.99950830 0.00328488
vn -0.04177651 0.99892479 -0.02009951
vn -0.03119889 -0.99950780 0.00328585
vn -0.04177598 -0.99892481 -0.02009934
vn -0.28284930 -0.95887694 -0.02347935
vn -0.54267628 -0.83964212 -0.02244035
vn -0.75707559 -0.65295866 -0.02194404
vn -0.91009414 -0.41383786 -0.02160757
vn -0.99990682 -0.00000031 -0.01365089
vn -0.91764692 0.07122350 -0.39096208
vn -0.69608201 0.06345772 -0.71515240
vn -0.68478455 0.06007376 -0.72626528
vn -0.66340412 0.05482816 -0.74624986
f 68//68 15//15 69//69
f 320//320 321//321 25//25
f 292//292 267//267 266//266
f 79//79 70//70 76//76
f 15//15 68//68 16//16
f 46//46 199//199 44//44
f 183//183 199//199 46//46
f 183//183 198//198 163//163
f 253//253 276//276 274//274
f 274//274 254//254 253//253
f 59//59 25//25 24//24
f 23//23 61//61 24//24
f 24//24 61//61 59//59
f 24//24 309//309 23//23
f 2//2 25//25 321//321
f 320//320 25//25 26//26
f 23//23 309//309 318//318
f 310//310 21//21 315//315
f 286//286 271//271 258//258
f 258//258 287//287 286//286
f 287//287 318//318 286//286
f 250//250 259//259 284//284
f 284//284 283//283 250//250
f 283//283 251//251 250//250
f 261//261 280//280 260//260
f 261//261 252//252 281//281
f 281//281 280//280 261//261
f 275//275 255//255 254//254
f 272//272 255//255 275//275
f 254//254 274//274 275//275
f 272//272 323//323 273//273
f 273//273 255//255 272//272
f 297//297 327//327 292//292
f 292//292 266//266 297//297
f 265//265 299//299 298//298
f 305//305 327//327 19//19
f 292//292 327//327 305//305
f 305//305 313//313 292//292
f 34//34 19//19 18//18
f 19//19 327//327 18//18
f 38//38 18//18 17//17
f 37//37 18//18 38//38
f 298//298 299//299 325//325
f 232//232 79//79 88//88
f 279//279 263//263 260//260
f 278//278 263//263 279//279
f 260//260 280//280 279//279
f 232//232 88//88 239//239
f 201//201 44//44 199//199
f 201//201 68//68 69//69
f 45//45 275//275 274//274
f 272//272 275//275 45//45
f 45//45 323//323 272//272
f 308//308 24//24 25//25
f 25//25 2//2 308//308
f 48//48 321//321 1//1
f 1//1 321//321 320//320
f 320//320 26//26 1//1
f 59//59 61//61 215//215
f 21//21 32//32 30//30
f 30//30 27//27 21//21
f 7//7 304//304 20//20
f 20//20 32//32 21//21
f 20//20 313//313 19//19
f 20//20 304//304 313//313
f 21//21 316//316 20//20
f 287//287 317//317 4//4
f 4//4 318//318 287//287
f 23//23 318//318 4//4
f 270//270 287//287 258//258
f 6//6 316//316 21//21
f 21//21 310//310 6//6
f 6//6 310//310 316//316
f 24//24 308//308 319//319
f 319//319 308//308 2//2
f 49//49 321//321 48//48
f 49//49 283//283 284//284
f 284//284 321//321 49//49
f 252//252 251//251 282//282
f 281//281 252//252 282//282
f 282//282 251//251 283//283
f 283//283 49//49 282//282
f 262//262 263//263 278//278
f 278//278 277//277 262//262
f 299//299 273//273 324//324
f 326//326 297//297 298//298
f 17//17 18//18 326//326
f 326//326 18//18 8//8
f 257//257 265//265 298//298
f 298//298 297//297 257//257
f 257//257 297//297 266//266
f 256//256 273//273 299//299
f 299//299 265//265 256//256
f 255//255 273//273 256//256
f 19//19 313//313 9//9
f 9//9 305//305 19//19
f 313//313 305//305 9//9
f 70//70 79//79 78//78
f 78//78 77//77 70//70
f 301//301 18//18 327//327
f 8//8 18//18 301//301
f 327//327 297//297 301//301
f 301//301 326//326 8//8
f 297//297 326//326 301//301
f 311//311 16//16 17//17
f 17//17 325//325 311//311
f 80//80 79//79 76//76
f 76//76 81//81 80//80
f 80//80 88//88 79//79
f 225//225 222//222 278//278
f 278//278 279//279 225//225
f 225//225 279//279 224//224
f 249//249 222//222 225//225
f 225//225 239//239 88//88
f 88//88 80//80 225//225
f 76//76 222//222 233//233
f 233//233 83//83 76//76
f 46//46 44//44 43//43
f 42//42 201//201 69//69
f 44//44 201//201 42//42
f 42//42 43//43 44//44
f 39//39 43//43 42//42
f 68//68 203//203 67//67
f 67//67 38//38 17//17
f 17//17 16//16 67//67
f 67//67 16//16 68//68
f 176//176 203//203 199//199
f 199//199 183//183 176//176
f 200//200 201//201 199//199
f 199//199 203//203 200//200
f 68//68 201//201 200//200
f 200//200 203//203 68//68
f 63//63 30//30 32//32
f 40//40 45//45 46//46
f 39//39 14//14 40//40
f 323//323 45//45 40//40
f 47//47 274//274 276//276
f 47//47 45//45 274//274
f 46//46 45//45 47//47
f 276//276 277//277 47//47
f 47//47 183//183 46//46
f 198//198 183//183 47//47
f 278//278 198//198 47//47
f 47//47 277//277 278//278
f 59//59 215//215 214//214
f 214//214 215//215 210//210
f 211//211 61//61 60//60
f 211//211 215//215 61//61
f 57//57 25//25 59//59
f 48//48 1//1 51//51
f 51//51 1//1 26//26
f 29//29 61//61 23//23
f 60//60 61//61 29//29
f 29//29 28//28 60//60
f 315//315 21//21 22//22
f 22//22 307//307 315//315
f 21//21 27//27 22//22
f 23//23 317//317 22//22
f 22//22 29//29 23//23
f 28//28 29//29 22//22
f 22//22 27//27 60//60
f 60//60 28//28 22//22
f 306//306 317//317 23//23
f 23//23 4//4 306//306
f 306//306 4//4 317//317
f 288//288 270//270 268//268
f 315//315 307//307 288//288
f 288//288 307//307 317//317
f 288//288 317//317 287//287
f 287//287 270//270 288//288
f 289//289 329//329 316//316
f 316//316 310//310 289//289
f 289//289 310//310 315//315
f 315//315 288//288 289//289
f 289//289 288//288 268//268
f 313//313 304//304 312//312
f 312//312 304//304 7//7
f 309//309 24//24 3//3
f 24//24 319//319 3//3
f 3//3 318//318 309//309
f 3//3 286//286 318//318
f 3//3 319//319 286//286
f 271//271 286//286 285//285
f 286//286 319//319 285//285
f 259//259 271//271 285//285
f 284//284 259//259 285//285
f 285//285 319//319 2//2
f 285//285 321//321 284//284
f 285//285 2//2 321//321
f 281//281 282//282 50//50
f 50//50 282//282 49//49
f 50//50 280//280 281//281
f 50//50 279//279 280//280
f 50//50 217//217 279//279
f 264//264 276//276 253//253
f 264//264 277//277 276//276
f 264//264 262//262 277//277
f 12//12 273//273 323//323
f 12//12 324//324 273//273
f 15//15 16//16 300//300
f 16//16 324//324 300//300
f 300//300 12//12 15//15
f 324//324 12//12 300//300
f 298//298 325//325 10//10
f 10//10 326//326 298//298
f 10//10 325//325 17//17
f 230//230 224//224 70//70
f 72//72 230//230 70//70
f 11//11 311//311 325//325
f 11//11 325//325 299//299
f 299//299 324//324 11//11
f 11//11 324//324 16//16
f 16//16 311//311 11//11
f 241//241 225//225 224//224
f 239//239 225//225 85//85
f 85//85 79//79 232//232
f 232//232 239//239 85//85
f 147//147 56//56 146//146
f 278//278 222//222 223//223
f 223//223 198//198 278//278
f 163//163 198//198 223//223
f 248//248 222//222 249//249
f 248//248 233//233 222//222
f 83//83 233//233 248//248
f 70//70 224//224 75//75
f 75//75 228//228 70//70
f 322//322 14//14 15//15
f 323//323 14//14 322//322
f 15//15 12//12 322//322
f 322//322 12//12 323//323
f 69//69 15//15 218//218
f 15//15 14//14 218//218
f 205//205 204//204 66//66
f 66//66 204//204 64//64
f 34//34 18//18 66//66
f 66//66 64//64 34//34
f 66//66 18//18 37//37
f 37//37 38//38 66//66
f 38//38 67//67 66//66
f 202//202 176//176 205//205
f 203//203 176//176 202//202
f 202//202 67//67 203//203
f 205//205 66//66 202//202
f 202//202 66//66 67//67
f 164//164 162//162 163//163
f 206//206 204//204 76//76
f 64//64 204//204 206//206
f 76//76 70//70 206//206
f 70//70 207//207 206//206
f 62//62 63//63 207//207
f 30//30 63//63 62//62
f 60//60 27//27 62//62
f 27//27 30//30 62//62
f 13//13 14//14 323//323
f 323//323 40//40 13//13
f 13//13 40//40 14//14
f 216//216 214//214 210//210
f 59//59 214//214 216//216
f 216//216 57//57 59//59
f 54//54 57//57 216//216
f 212//212 211//211 60//60
f 25//25 57//57 58//58
f 58//58 26//26 25//25
f 58//58 57//57 54//54
f 53//53 51//51 54//54
f 134//134 129//129 128//128
f 317//317 307//307 5//5
f 5//5 22//22 317//317
f 307//307 22//22 5//5
f 331//331 289//289 268//268
f 293//293 267//267 292//292
f 329//329 269//269 293//293
f 292//292 313//313 293//293
f 313//313 312//312 293//293
f 303//303 20//20 316//316
f 316//316 329//329 314//314
f 314//314 303//303 316//316
f 20//20 303//303 314//314
f 224//224 279//279 226//226
f 279//279 217//217 226//226
f 226//226 75//75 224//224
f 228//228 75//75 226//226
f 52//52 49//49 48//48
f 52//52 50//50 49//49
f 17//17 326//326 302//302
f 302//302 10//10 17//17
f 326//326 10//10 302//302
f 247//247 248//248 249//249
f 82//82 81//81 76//76
f 76//76 83//83 82//82
f 249//249 225//225 240//240
f 90//90 231//231 77//77
f 241//241 231//231 90//90
f 225//225 241//241 238//238
f 241//241 90//90 238//238
f 224//224 230//230 243//243
f 243//243 72//72 73//73
f 230//230 72//72 243//243
f 163//163 56//56 169//169
f 237//237 56//56 163//163
f 163//163 223//223 237//237
f 104//104 103//103 70//70
f 41//41 14//14 39//39
f 41//41 218//218 14//14
f 39//39 42//42 41//41
f 41//41 42//42 69//69
f 69//69 218//218 41//41
f 76//76 204//204 190//190
f 205//205 176//176 190//190
f 190//190 204//204 205//205
f 163//163 197//197 160//160
f 160//160 164//164 163//163
f 173//173 160//160 197//197
f 164//164 160//160 173//173
f 176//176 178//178 177//177
f 145//145 147//147 146//146
f 64//64 206//206 65//65
f 220//220 206//206 207//207
f 63//63 65//65 220//220
f 32//32 20//20 33//33
f 33//33 31//31 32//32
f 20//20 31//31 33//33
f 36//36 20//20 19//19
f 36//36 31//31 20//20
f 32//32 31//31 36//36
f 113//113 141//141 142//142
f 91//91 113//113 142//142
f 140//140 139//139 138//138
f 54//54 51//51 55//55
f 55//55 58//58 54//54
f 55//55 51//51 26//26
f 26//26 58//58 55//55
f 213//213 53//53 54//54
f 213//213 216//216 210//210
f 54//54 216//216 213//213
f 213//213 52//52 53//53
f 210//210 52//52 213//213
f 332//332 331//331 268//268
f 329//329 331//331 332//332
f 329//329 289//289 330//330
f 330//330 331//331 329//329
f 289//289 331//331 330//330
f 328//328 293//293 312//312
f 329//329 293//293 328//328
f 328//328 314//314 329//329
f 328//328 312//312 7//7
f 7//7 20//20 328//328
f 20//20 314//314 328//328
f 135//135 226//226 217//217
f 135//135 134//134 143//143
f 129//129 134//134 135//135
f 142//142 141//141 135//135
f 143//143 115//115 135//135
f 135//135 140//140 138//138
f 141//141 140//140 135//135
f 228//228 226//226 208//208
f 70//70 228//228 208//208
f 217//217 50//50 122//122
f 50//50 52//52 122//122
f 122//122 135//135 217//217
f 122//122 52//52 210//210
f 234//234 86//86 81//81
f 81//81 82//82 234//234
f 234//234 82//82 249//249
f 249//249 240//240 234//234
f 234//234 240//240 86//86
f 84//84 247//247 249//249
f 249//249 82//82 84//84
f 84//84 82//82 83//83
f 83//83 248//248 84//84
f 248//248 247//247 84//84
f 87//87 225//225 80//80
f 87//87 240//240 225//225
f 87//87 80//80 81//81
f 73//73 72//72 71//71
f 77//77 231//231 71//71
f 70//70 77//77 71//71
f 71//71 72//72 70//70
f 89//89 238//238 78//78
f 225//225 238//238 89//89
f 89//89 85//85 225//225
f 89//89 78//78 79//79
f 79//79 85//85 89//89
f 78//78 238//238 245//245
f 245//245 238//238 90//90
f 77//77 78//78 245//245
f 245//245 90//90 77//77
f 56//56 147//147 170//170
f 170//170 169//169 56//56
f 138//138 139//139 136//136
f 159//159 197//197 163//163
f 195//195 190//190 196//196
f 196//196 190//190 197//197
f 154//154 190//190 168//168
f 163//163 169//169 168//168
f 168//168 167//167 163//163
f 155//155 190//190 195//195
f 155//155 168//168 190//190
f 167//167 168//168 155//155
f 185//185 184//184 183//183
f 181//181 176//176 183//183
f 179//179 178//178 176//176
f 179//179 185//185 178//178
f 184//184 185//185 179//179
f 192//192 222//222 76//76
f 235//235 223//223 222//222
f 222//222 192//192 235//235
f 235//235 192//192 76//76
f 207//207 63//63 221//221
f 221//221 220//220 207//207
f 63//63 220//220 221//221
f 219//219 65//65 206//206
f 206//206 220//220 219//219
f 219//219 220//220 65//65
f 65//65 36//36 35//35
f 35//35 36//36 19//19
f 64//64 65//65 35//35
f 35//35 19//19 34//34
f 34//34 64//64 35//35
f 113//113 91//91 100//100
f 209//209 207//207 70//70
f 70//70 91//91 209//209
f 209//209 62//62 207//207
f 209//209 91//91 212//212
f 60//60 62//62 209//209
f 209//209 212//212 60//60
f 103//103 108//108 102//102
f 70//70 103//103 102//102
f 102//102 91//91 70//70
f 111//111 140//140 141//141
f 268//268 269//269 291//291
f 291//291 332//332 268//268
f 291//291 269//269 329//329
f 329//329 332//332 291//291
f 267//267 296//296 295//295
f 295//295 296//296 293//293
f 267//267 293//293 294//294
f 294//294 296//296 267//267
f 293//293 296//296 294//294
f 227//227 135//135 138//138
f 226//226 135//135 227//227
f 227//227 208//208 226//226
f 138//138 137//137 227//227
f 99//99 135//135 115//115
f 119//119 122//122 210//210
f 210//210 215//215 119//119
f 215//215 211//211 119//119
f 211//211 212//212 119//119
f 212//212 91//91 119//119
f 246//246 87//87 81//81
f 240//240 87//87 246//246
f 81//81 86//86 246//246
f 86//86 240//240 246//246
f 74//74 231//231 241//241
f 74//74 71//71 231//231
f 194//194 190//190 154//154
f 190//190 194//194 193//193
f 193//193 194//194 152//152
f 105//105 136//136 139//139
f 103//103 104//104 106//106
f 138//138 136//136 107//107
f 187//187 235//235 76//76
f 187//187 237//237 223//223
f 223//223 235//235 187//187
f 195//195 196//196 158//158
f 171//171 196//196 172//172
f 197//197 159//159 172//172
f 172//172 196//196 197//197
f 172//172 159//159 163//163
f 162//162 164//164 161//161
f 164//164 173//173 161//161
f 177//177 175//175 174//174
f 176//176 177//177 174//174
f 197//197 190//190 174//174
f 174//174 190//190 176//176
f 174//174 173//173 197//197
f 174//174 161//161 173//173
f 174//174 175//175 162//162
f 162//162 161//161 174//174
f 163//163 162//162 165//165
f 162//162 175//175 165//165
f 165//165 175//175 177//177
f 184//184 179//179 180//180
f 176//176 181//181 180//180
f 180//180 179//179 176//176
f 143//143 134//134 127//127
f 134//134 118//118 127//127
f 127//127 126//126 143//143
f 139//139 140//140 109//109
f 101//101 102//102 110//110
f 101//101 100//100 91//91
f 91//91 102//102 101//101
f 290//290 269//269 267//267
f 267//267 295//295 290//290
f 290//290 293//293 269//269
f 290//290 295//295 293//293
f 229//229 227//227 137//137
f 208//208 227//227 229//229
f 137//137 104//104 229//229
f 229//229 104//104 70//70
f 70//70 208//208 229//229
f 114//114 91//91 142//142
f 114//114 99//99 91//91
f 142//142 135//135 117//117
f 135//135 99//99 117//117
f 91//91 99//99 98//98
f 98//98 127//127 118//118
f 126//126 127//127 98//98
f 92//92 98//98 118//118
f 91//91 98//98 92//92
f 242//242 241//241 224//224
f 224//224 243//243 242//242
f 242//242 243//243 73//73
f 73//73 71//71 242//242
f 153//153 168//168 169//169
f 190//190 193//193 191//191
f 76//76 190//190 191//191
f 169//169 170//170 151//151
f 236//236 148//148 189//189
f 236//236 189//189 237//237
f 237//237 187//187 236//236
f 76//76 148//148 236//236
f 236//236 187//187 76//76
f 167//167 157//157 166//166
f 163//163 167//167 166//166
f 166//166 172//172 163//163
f 171//171 172//172 166//166
f 167//167 158//158 156//156
f 156//156 158//158 196//196
f 196//196 157//157 156//156
f 156//156 157//157 167//167
f 163//163 165//165 186//186
f 186//186 165//165 177//177
f 186//186 183//183 163//163
f 186//186 185//185 183//183
f 186//186 177//177 178//178
f 178//178 185//185 186//186
f 183//183 184//184 182//182
f 184//184 180//180 182//182
f 182//182 181//181 183//183
f 182//182 180//180 181//181
f 100//100 101//101 112//112
f 116//116 99//99 115//115
f 116//116 98//98 99//99
f 116//116 115//115 143//143
f 95//95 134//134 128//128
f 128//128 92//92 95//95
f 95//95 118//118 134//134
f 95//95 92//92 118//118
f 119//119 125//125 124//124
f 135//135 122//122 131//131
f 244//244 74//74 241//241
f 241//241 242//242 244//244
f 71//71 74//74 244//244
f 244//244 242//242 71//71
f 188//188 191//191 144//144
f 188//188 148//148 76//76
f 76//76 191//191 188//188
f 150//150 191//191 193//193
f 149//149 170//170 147//147
f 119//119 124//124 120//120
f 133//133 124//124 125//125
f 128//128 129//129 94//94
f 94//94 92//92 128//128
f 92//92 94//94 93//93
f 93//93 119//119 91//91
f 91//91 92//92 93//93
f 93//93 94//94 129//129
f 132//132 131//131 122//122
f 122//122 133//133 132//132
f 132//132 133//133 125//125
f 96//96 131//131 97//97
f 97//97 93//93 96//96
f 97//97 132//132 125//125
f 131//131 132//132 97//97
f 97//97 125//125 119//119
f 119//119 93//93 97//97
f 129//129 135//135 130//130
f 135//135 131//131 130//130
f 130//130 131//131 96//96
f 130//130 93//93 129//129
f 96//96 93//93 130//130
f 122//122 119//119 121//121
f 119//119 120//120 121//121
f 123//123 120//120 124//124
f 124//124 133//133 123//123
f 123//123 133//133 122//122
f 122//122 121//121 123//123
f 123//123 121//121 120//120
f 40//40 43//43 39//39
f 46//46 43//43 40//40
f 267//267 269//269 264//264
f 258//258 271//271 264//264
f 254//254 255//255 264//264
f 264//264 261//261 260//260
f 260//260 263//263 264//264
f 264//264 271//271 259//259
f 259//259 250//250 264//264
f 253//253 254//254 264//264
f 264//264 270//270 258//258
f 264//264 266//266 267//267
f 255//255 256//256 264//264
f 264//264 251//251 252//252
f 264//264 250//250 251//251
f 252//252 261//261 264//264
f 264//264 257//257 266//266
f 268//268 270//270 264//264
f 263//263 262//262 264//264
f 265//265 257//257 264//264
f 264//264 256//256 265//265
f 264//264 269//269 268//268
f 51//51 53//53 52//52
f 48//48 51//51 52//52
f 56//56 237//237 189//189
f 36//36 65//65 63//63
f 36//36 63//63 32//32
f 56//56 189//189 148//148
f 146//146 56//56 148//148
f 139//139 108//108 105//105
f 105//105 108//108 103//103
f 106//106 105//105 103//103
f 136//136 105//105 106//106
f 107//107 104//104 137//137
f 107//107 137//137 138//138
f 136//136 106//106 107//107
f 107//107 106//106 104//104
f 167//167 155//155 158//158
f 158//158 155//155 195//195
f 109//109 108//108 139//139
f 109//109 102//102 108//108
f 109//109 140//140 110//110
f 110//110 102//102 109//109
f 110//110 140//140 101//101
f 140//140 111//111 101//101
f 99//99 114//114 117//117
f 117//117 114//114 142//142
f 152//152 194//194 153//153
f 169//169 152//152 153//153
f 154//154 168//168 153//153
f 153//153 194//194 154//154
f 151//151 152//152 169//169
f 151//151 193//193 152//152
f 166//166 157//157 196//196
f 166//166 196//196 171//171
f 113//113 100//100 112//112
f 141//141 113//113 112//112
f 112//112 101//101 111//111
f 112//112 111//111 141//141
f 126//126 98//98 116//116
f 143//143 126//126 116//116
f 147//147 145//145 188//188
f 188//188 144//144 147//147
f 146//146 148//148 188//188
f 188//188 145//145 146//146
f 193//193 151//151 150//150
f 150//150 151//151 170//170
f 147//147 144//144 149//149
f 144//144 191//191 149//149
f 149//149 150//150 170//170
f 191//191 150//150 149//149

