# https://github.com/mikedh/trimesh
v -288.61621094 -199.79943848 11.20056915
v -288.61621094 -187.00000000 5.89887094
v -280.39999390 -200.43502808 10.56497097
v -280.39999390 -187.00000000 5.00000000
v -288.61621094 161.00000000 5.89887094
v -280.39999390 161.00000000 5.00000000
v -402.89990234 -50.80618286 256.19104004
v -402.89999390 -52.22160339 257.60406494
v 3.59999990 -301.00000000 35.00000000
v 19.86345673 -294.26345825 35.00000000
v 217.86344910 -138.16345215 35.00000000
v 224.60000610 -121.90000153 35.00000000
v 214.60000610 228.00000000 330.00000000
v 175.70768738 286.20498657 330.00000000
v 196.14772034 272.54772949 330.00000000
v 209.80497742 252.10769653 330.00000000
v 214.60000610 -228.00000000 330.00000000
v 209.80497742 -252.10768127 330.00000000
v 196.14773560 -272.54772949 330.00000000
v 175.70770264 -286.20498657 330.00000000
v -80.23085785 300.99850464 320.00000000
v -80.69999695 300.99395752 320.00000000
v -79.76169586 301.00000000 320.00000000
v 151.60000610 301.00000000 320.00000000
v 179.53431702 295.44384766 320.00000000
v 203.21879578 279.61880493 320.00000000
v 219.04385376 255.93432617 320.00000000
v 224.60000610 228.00000000 320.00000000
v 224.60000610 -228.00000000 320.00000000
v 219.04385376 -255.93431091 320.00000000
v 203.21879578 -279.61880493 320.00000000
v 179.53431702 -295.44384766 320.00000000
v 151.60000610 -301.00000000 320.00000000
v -79.76169586 -301.00000000 320.00000000
v -80.23085785 -300.99850464 320.00000000
v -80.69999695 -300.99395752 320.00000000
v -79.76169586 -301.00000000 35.00000000
v 151.60000610 -301.00000000 220.00000000
v 179.54690552 -295.43600464 220.00000000
v -79.76169586 301.00000000 35.00000000
v 151.60000610 301.00000000 220.00000000
v 179.54690552 295.43600464 220.00000000
v -79.90000153 300.99987793 35.00000000
v -79.90000153 -300.99987793 35.00000000
v -80.34925842 -300.99765015 35.10659790
v -80.34925842 300.99765015 35.10659790
v 224.60000610 -228.00000000 220.00000000
v 224.60000610 228.00000000 220.00000000
v 219.03601074 255.94689941 220.00000000
v 219.03601074 -255.94689941 220.00000000
v 203.21574402 279.61575317 220.00000000
v 203.21574402 -279.61575317 220.00000000
v -80.69999695 300.99395752 35.40000153
v -80.69999695 -300.99395752 35.40000153
v 3.59999990 301.00000000 35.00000000
v 19.86345673 294.26345825 35.00000000
v 217.86344910 138.16345215 35.00000000
v 224.60000610 121.90000153 35.00000000
v -90.28266907 -300.23785400 320.00000000
v -80.90000153 -300.99111938 320.00000000
v -99.49041748 -298.28353882 320.00000000
v -324.12872314 -235.22718811 320.00000000
v -362.57730103 -209.03898621 320.00000000
v -377.39999390 -164.94363403 320.00000000
v -377.39999390 164.94363403 320.00000000
v -362.57730103 209.03898621 320.00000000
v -324.12872314 235.22718811 320.00000000
v -99.49041748 298.28353882 320.00000000
v -90.28266907 300.23785400 320.00000000
v -377.39999390 164.94363403 35.00000000
v -377.39999390 -164.94363403 35.00000000
v -362.57568359 209.03779602 35.00000000
v -362.57568359 -209.03779602 35.00000000
v -99.49041748 298.28353882 35.00000000
v -324.12872314 235.22718811 35.00000000
v -90.77403259 300.16448975 35.00000000
v -324.12872314 -235.22718811 35.00000000
v -99.49041748 -298.28353882 35.00000000
v -90.77403259 -300.16448975 35.00000000
v -81.90000153 -300.96868896 35.00000000
v -81.19506836 300.98593140 35.29273224
v -80.90000153 300.99111938 320.00000000
v -80.90000153 300.99111938 36.00000000
v -81.90000153 300.96868896 35.00000000
v -81.19506836 -300.98593140 35.29273224
v -80.90000153 -300.99111938 36.00000000
v -373.07476807 -178.50000000 202.00000000
v -373.07476807 -178.50000000 103.00000000
v -373.07476807 178.50000000 103.00000000
v -373.07476807 178.50000000 202.00000000
v -161.39999390 61.54621506 680.00000000
v -161.39999390 64.87137604 678.73297119
v -176.39999390 61.54621506 680.00000000
v -176.39999390 65.00000000 678.61541748
v -176.49298096 63.39925003 679.64361572
v -176.39999390 66.02072906 677.23095703
v -176.76118469 65.00000000 678.61541748
v -161.39999390 -64.87137604 678.73297119
v -161.39999390 -61.54621506 680.00000000
v -176.49298096 -63.39925003 679.64361572
v -176.39999390 -66.02072906 677.23095703
v -176.39999390 -65.00000000 678.61541748
v -176.76118469 -65.00000000 678.61541748
v -176.39999390 -61.54621506 680.00000000
vn -0.15964006 -0.40369932 -0.90085621
vn -0.19772878 -0.18168939 -0.96327166
vn -0.09505869 -0.39542547 -0.91356584
vn -0.04734887 -0.17314208 -0.98375805
vn -0.18496129 0.13771882 -0.97304823
vn -0.04662249 0.14284170 -0.98864685
vn -0.99949626 0.02761251 -0.01564516
vn -0.98791448 -0.05749519 0.14394197
vn 0.09880201 -0.75403225 -0.64936394
vn 0.29525463 -0.56099917 -0.77337225
vn 0.55641118 -0.34820993 -0.75442458
vn 0.73201403 -0.09347150 -0.67484705
vn 0.68469202 0.07365292 0.72510143
vn 0.35671371 0.60458198 0.71220499
vn 0.48818898 0.47910013 0.72947556
vn 0.62656736 0.26162872 0.73414151
vn 0.68469201 -0.07365296 0.72510144
vn 0.62656747 -0.26162855 0.73414148
vn 0.48818934 -0.47910002 0.72947538
vn 0.35671353 -0.60458228 0.71220483
vn -0.00596788 0.95817493 0.28612092
vn -0.01130169 0.95826675 0.28565207
vn -0.00142797 0.95804241 0.28662292
vn 0.10693198 0.94285508 0.31557860
vn 0.36921355 0.85968865 0.35301101
vn 0.65781361 0.65781380 0.36682728
vn 0.85947916 0.35599476 0.36682871
vn 0.92330986 0.08939998 0.37350576
vn 0.92330985 -0.08940003 0.37350576
vn 0.85947919 -0.35599465 0.36682874
vn 0.65781376 -0.65781376 0.36682710
vn 0.36921351 -0.85968872 0.35301089
vn 0.10693198 -0.94285508 0.31557860
vn -0.00142797 -0.95804241 0.28662292
vn -0.00596788 -0.95817493 0.28612092
vn -0.01130169 -0.95826675 0.28565207
vn -0.00030261 -0.79207263 -0.61042678
vn 0.11843933 -0.99141841 -0.05533230
vn 0.41005513 -0.89368189 -0.18217427
vn -0.00030723 0.77775188 -0.62857133
vn 0.11843933 0.99141841 -0.05533230
vn 0.41005513 0.89368189 -0.18217427
vn -0.00289508 0.77812683 -0.62810051
vn -0.00288356 -0.79247860 -0.60989290
vn -0.01187651 -0.99970020 -0.02141169
vn -0.01187651 0.99970020 -0.02141169
vn 0.99279173 -0.11394912 -0.03715072
vn 0.99279173 0.11394912 -0.03715073
vn 0.90295542 0.40810926 -0.13460439
vn 0.90295542 -0.40810926 -0.13460438
vn 0.68057519 0.70107712 -0.21285741
vn 0.68057519 -0.70107712 -0.21285741
vn -0.01360899 0.99990527 -0.00206284
vn -0.01360899 -0.99990527 -0.00206284
vn 0.09593199 0.74981925 -0.65465116
vn 0.29310936 0.55867700 -0.77586527
vn 0.55568740 0.34808860 -0.75501380
vn 0.73185526 0.09364577 -0.67499507
vn -0.13400680 -0.95339771 0.27032386
vn -0.04299237 -0.95865866 0.28129208
vn -0.22823597 -0.93846180 0.25922538
vn -0.41286355 -0.87224690 0.26216224
vn -0.76651585 -0.58191612 0.27171139
vn -0.93541950 -0.20014408 0.29143216
vn -0.94240270 0.18651567 0.27764917
vn -0.76651585 0.58191612 0.27171139
vn -0.41286355 0.87224690 0.26216224
vn -0.22823597 0.93846180 0.25922538
vn -0.13400680 0.95339771 0.27032386
vn -0.80708975 0.14836584 -0.57148378
vn -0.80684048 -0.14663362 -0.57228229
vn -0.67377114 0.50906687 -0.53561495
vn -0.68911291 -0.50946145 -0.51533720
vn -0.19132303 0.78830339 -0.58478480
vn -0.35268667 0.75653664 -0.55069450
vn -0.11442887 0.79028475 -0.60196017
vn -0.37124036 -0.78101065 -0.50219812
vn -0.19631901 -0.81593264 -0.54379478
vn -0.11522091 -0.80867358 -0.57686323
vn -0.04043616 -0.79915759 -0.59976000
vn -0.01930397 0.99978783 -0.00718647
vn -0.04299237 0.95865866 0.28129208
vn -0.01588612 0.99987381 -0.00007172
vn -0.04066633 0.78433040 -0.61900894
vn -0.01930397 -0.99978783 -0.00718647
vn -0.01588612 -0.99987381 -0.00007172
vn -0.94924425 -0.31453988 0.00011471
vn -0.94923044 -0.31458141 -0.00033764
vn -0.94923044 0.31458141 -0.00033764
vn -0.94924425 0.31453988 0.00011471
vn 0.33969360 0.14817907 0.92879019
vn 0.23863883 0.55790434 0.79485486
vn -0.48535411 0.06905161 0.87158663
vn 0.00056962 0.74352896 0.66870349
vn -0.46014951 0.28430741 0.84108961
vn -0.14875799 0.82356554 0.54736721
vn -0.44111348 0.55894301 0.70214073
vn 0.23863884 -0.55790434 0.79485486
vn 0.33969360 -0.14817907 0.92879019
vn -0.46014951 -0.28430741 0.84108961
vn -0.14875799 -0.82356554 0.54736721
vn 0.00056962 -0.74352896 0.66870349
vn -0.44111348 -0.55894301 0.70214073
vn -0.48535411 -0.06905161 0.87158663
f 75//75 66//66 67//67
f 72//72 66//66 75//75
f 77//77 62//62 63//63
f 70//70 71//71 7//7
f 7//7 71//71 8//8
f 8//8 65//65 7//7
f 7//7 65//65 70//70
f 90//90 65//65 66//66
f 66//66 65//65 97//97
f 97//97 67//67 66//66
f 14//14 92//92 15//15
f 15//15 26//26 14//14
f 15//15 92//92 16//16
f 27//27 26//26 16//16
f 16//16 26//26 15//15
f 16//16 92//92 91//91
f 91//91 13//13 16//16
f 16//16 28//28 27//27
f 16//16 13//13 28//28
f 8//8 71//71 64//64
f 64//64 65//65 8//8
f 77//77 63//63 73//73
f 59//59 61//61 79//79
f 79//79 61//61 78//78
f 89//89 72//72 70//70
f 66//66 72//72 89//89
f 89//89 90//90 66//66
f 96//96 68//68 67//67
f 67//67 97//97 96//96
f 96//96 24//24 23//23
f 96//96 92//92 24//24
f 75//75 74//74 6//6
f 79//79 4//4 80//80
f 45//45 85//85 80//80
f 80//80 59//59 79//79
f 76//76 74//74 68//68
f 76//76 6//6 74//74
f 25//25 14//14 26//26
f 24//24 92//92 25//25
f 92//92 14//14 25//25
f 63//63 64//64 87//87
f 12//12 47//47 50//50
f 54//54 45//45 36//36
f 54//54 85//85 45//45
f 1//1 78//78 77//77
f 3//3 4//4 79//79
f 79//79 78//78 3//3
f 3//3 1//1 4//4
f 78//78 1//1 3//3
f 68//68 96//96 69//69
f 69//69 76//76 68//68
f 94//94 97//97 92//92
f 92//92 96//96 94//94
f 94//94 96//96 97//97
f 5//5 72//72 75//75
f 75//75 6//6 5//5
f 70//70 72//72 5//5
f 57//57 6//6 56//56
f 56//56 51//51 57//57
f 58//58 6//6 57//57
f 59//59 80//80 60//60
f 60//60 80//80 85//85
f 88//88 73//73 63//63
f 63//63 87//87 88//88
f 71//71 73//73 88//88
f 42//42 25//25 26//26
f 26//26 51//51 42//42
f 51//51 56//56 42//42
f 10//10 39//39 9//9
f 52//52 39//39 10//10
f 9//9 4//4 10//10
f 11//11 50//50 52//52
f 52//52 10//10 11//11
f 12//12 50//50 11//11
f 11//11 10//10 4//4
f 11//11 4//4 12//12
f 9//9 39//39 38//38
f 32//32 38//38 39//39
f 36//36 45//45 35//35
f 101//101 35//35 34//34
f 36//36 35//35 101//101
f 101//101 60//60 36//36
f 59//59 60//60 101//101
f 61//61 59//59 101//101
f 62//62 61//61 101//101
f 77//77 73//73 2//2
f 2//2 1//1 77//77
f 2//2 73//73 71//71
f 4//4 1//1 2//2
f 82//82 69//69 96//96
f 55//55 6//6 40//40
f 55//55 56//56 6//6
f 55//55 42//42 56//56
f 57//57 51//51 49//49
f 49//49 58//58 57//57
f 49//49 26//26 27//27
f 49//49 51//51 26//26
f 4//4 37//37 44//44
f 44//44 80//80 4//4
f 45//45 80//80 44//44
f 44//44 35//35 45//45
f 44//44 37//37 34//34
f 34//34 35//35 44//44
f 85//85 54//54 86//86
f 86//86 60//60 85//85
f 65//65 93//93 95//95
f 95//95 97//97 65//65
f 92//92 97//97 95//95
f 95//95 93//93 91//91
f 91//91 92//92 95//95
f 24//24 25//25 41//41
f 25//25 42//42 41//41
f 42//42 55//55 41//41
f 21//21 96//96 23//23
f 6//6 76//76 84//84
f 76//76 69//69 84//84
f 69//69 82//82 84//84
f 58//58 49//49 48//48
f 27//27 28//28 48//48
f 48//48 49//49 27//27
f 103//103 63//63 62//62
f 62//62 101//101 103//103
f 103//103 64//64 63//63
f 38//38 32//32 33//33
f 33//33 101//101 34//34
f 22//22 82//82 96//96
f 96//96 21//21 22//22
f 23//23 40//40 43//43
f 43//43 21//21 23//23
f 40//40 6//6 43//43
f 6//6 84//84 43//43
f 17//17 99//99 18//18
f 29//29 17//17 18//18
f 20//20 19//19 98//98
f 98//98 18//18 99//99
f 19//19 18//18 98//98
f 32//32 20//20 98//98
f 98//98 33//33 32//32
f 101//101 33//33 98//98
f 46//46 22//22 21//21
f 21//21 43//43 46//46
f 46//46 43//43 84//84
f 29//29 18//18 30//30
f 30//30 18//18 19//19
f 47//47 29//29 30//30
f 30//30 50//50 47//47
f 99//99 104//104 100//100
f 100//100 98//98 99//99
f 103//103 98//98 100//100
f 100//100 104//104 64//64
f 64//64 103//103 100//100
f 102//102 103//103 101//101
f 101//101 98//98 102//102
f 102//102 98//98 103//103
f 22//22 46//46 53//53
f 52//52 50//50 31//31
f 50//50 30//30 31//31
f 31//31 39//39 52//52
f 31//31 32//32 39//39
f 31//31 30//30 19//19
f 31//31 20//20 32//32
f 31//31 19//19 20//20
f 81//81 84//84 82//82
f 81//81 46//46 84//84
f 81//81 53//53 46//46
f 83//83 81//81 82//82
f 53//53 81//81 83//83
f 67//67 68//68 74//74
f 75//75 67//67 74//74
f 17//17 29//29 28//28
f 28//28 13//13 17//17
f 78//78 61//61 62//62
f 78//78 62//62 77//77
f 65//65 90//90 89//89
f 70//70 65//65 89//89
f 99//99 17//17 13//13
f 99//99 13//13 91//91
f 4//4 6//6 58//58
f 12//12 4//4 58//58
f 37//37 4//4 9//9
f 88//88 87//87 64//64
f 88//88 64//64 71//71
f 70//70 5//5 2//2
f 2//2 71//71 70//70
f 2//2 6//6 4//4
f 2//2 5//5 6//6
f 36//36 60//60 86//86
f 86//86 54//54 36//36
f 41//41 40//40 23//23
f 23//23 24//24 41//41
f 41//41 55//55 40//40
f 104//104 99//99 91//91
f 91//91 93//93 104//104
f 104//104 93//93 65//65
f 65//65 64//64 104//104
f 28//28 29//29 48//48
f 48//48 47//47 12//12
f 12//12 58//58 48//48
f 48//48 29//29 47//47
f 33//33 37//37 9//9
f 34//34 37//37 33//33
f 9//9 38//38 33//33
f 22//22 53//53 83//83
f 82//82 22//22 83//83

