# https://github.com/mikedh/trimesh
v -92.49557495 -60.87573624 29.99344826
v -92.49557495 60.87573624 29.99344826
v -92.49557495 60.87573624 -90.00655365
v -92.47270203 60.99052811 29.99344826
v -92.47270203 60.99052811 -90.00655365
v -92.47270203 -60.99052811 29.99344826
v -92.47270203 -60.99052811 -90.00655365
v -92.49557495 -60.87573624 -90.00655365
v -55.49557114 -135.73579407 -131.84811401
v -55.49557114 -148.86085510 -51.24062347
v -54.05883026 -131.56089783 43.82313156
v -54.25465393 -152.01458740 -13.88872910
v -54.22836685 -148.48905945 10.83880901
v -54.90576935 -151.40196228 -30.40609550
v -54.96329880 -145.59251404 -98.15393829
v -54.71902847 -127.12329865 -163.65771484
v -53.03227234 -77.08215332 -242.41159058
v -53.70425034 -94.79813385 -223.81858826
v -54.08722305 0.00000431 80.33776855
v -54.07442856 46.09999847 79.07981110
v -54.05887985 -67.21942902 77.66220856
v -54.05883026 -102.86215973 67.33876038
v -49.07918549 -134.78366089 -148.66268921
v -47.95018768 -119.72609711 -188.48034668
v -42.41332626 -100.39778137 -226.08325195
v -48.85738754 -98.76229858 -226.09162903
v -37.51852798 -84.12506104 -247.10104370
v -46.39187241 -81.57817841 -246.83108521
v -50.92179108 -136.08383179 -144.85017395
v -52.61788940 -128.94041443 -164.31433105
v -50.76795578 -145.97773743 -105.06253815
v -51.71318817 -147.74832153 -95.63068390
v -53.52310181 -146.89204407 -98.38384247
v -51.54325485 -151.91899109 -62.52943039
v -53.31000137 -152.86419678 -30.40106201
v -35.85656357 -156.47033691 -32.65987015
v -36.19605637 -88.38955688 -242.36560059
v -58.99557114 -134.06480408 31.20503998
v -58.55623245 -121.00723267 47.17917633
v -58.55623245 -139.77116394 22.72150421
v -58.55623245 -127.76191711 41.91381073
v -58.99557114 -140.07118225 18.50497437
v -58.55623245 -141.56065369 14.54805470
v -58.55623245 -141.56065369 -84.50655365
v -58.55623245 -139.69108582 -93.90550995
v -57.49557114 -135.34671021 31.98394585
v -58.55623245 141.56065369 -84.50655365
v -58.55623245 141.56065369 14.54805756
v -57.49557114 134.07998657 34.00656509
v -58.55626297 139.77113342 22.72148323
v -58.55623245 121.00724030 47.17917633
v -58.55623245 127.76192474 41.91380692
v -58.55623245 139.69108582 -93.90550995
v -51.06421280 -117.42277527 58.99822998
v -51.18341827 -137.30581665 37.58849335
v -47.12147522 -153.30732727 11.45640659
v -48.46675110 -156.06703186 -1.67830336
v -54.05883026 -148.63330078 10.87942982
v -51.01716614 -109.96691895 64.26209259
v -35.86731720 156.47509766 -32.64805603
v -53.28165817 152.86094666 -30.42107582
v -51.24310684 152.18003845 -59.04287338
v -53.09579468 146.77653503 -98.33123016
v -50.77499771 145.98022461 -105.06124115
v -46.24066162 -156.88107300 -14.62303925
v -41.99217987 -156.75315857 -24.26629066
v -48.46690369 156.06784058 -1.67392170
v -47.12127304 153.30876160 11.45722866
v -51.18430328 137.31059265 37.58318710
v -46.24240112 156.88269043 -14.61752701
v -41.99672699 156.75592041 -24.25841713
v -51.06421280 117.42502594 58.99822998
v -54.07412338 46.59999847 79.05236053
v -44.33165359 74.96730042 -251.99794006
v -54.05879211 131.56190491 43.82361984
v -54.05879211 102.86218262 67.34061432
v -51.01720428 109.97057343 64.26157379
v -54.05879211 148.63456726 10.87823391
v -54.25487518 152.01502991 -13.88621902
v -54.22865677 148.49003601 10.83753109
v -54.89801788 151.38299561 -30.42672157
v -54.84785843 145.19833374 -98.05335236
v -55.49557114 147.63317871 -64.92083740
v -54.24614334 152.18490601 -30.42450142
v -55.49557114 110.64703369 -185.38955688
v -53.32320023 93.44749451 -223.29287720
v -54.44414902 126.17722321 -163.34875488
v -47.44693756 98.25492096 -226.04902649
v -51.60004425 128.63758850 -164.23599243
v -55.33432388 131.00000000 -145.50654602
v -39.63924789 100.26053619 -226.00453186
v -49.08152390 134.78636169 -148.66314697
v -45.50525665 119.24796295 -189.21208191
v -36.63564682 90.00137329 -240.50421143
v -54.25899506 -152.19807434 -30.40190697
v -50.91915512 -93.67115784 72.50226593
v -50.96884918 -101.99799347 68.79116821
v -50.83504486 -33.41638184 80.57119751
v -50.91916656 93.67799377 72.50144958
v -54.05879211 67.21775055 77.66392517
v -50.96884918 102.00329590 68.79032135
v -58.99557114 140.07135010 18.50419807
v -58.99557114 132.81964111 33.19322968
v -33.52652359 77.89201355 -252.66683960
v -53.99557114 29.00000000 -286.31884766
v -52.23645782 33.24439621 -285.78631592
v -53.99557114 -0.00000001 -288.00634766
v -53.99557114 -29.00000000 -286.31884766
v -52.23645782 -33.24439621 -285.78631592
v -47.99557114 -35.00000000 -285.54443359
v -47.99557114 35.00000000 -285.54443359
v 38.34606934 -157.00000000 15.87302017
v 38.34606934 -157.00000000 -15.88612270
v 41.50394058 -157.00000000 -0.00655136
v 29.34762764 -157.00000000 -29.35282707
v 29.34762764 -157.00000000 29.33972549
v 15.88688183 -157.00000000 -38.34663773
v 0.00442821 -157.00000000 -41.50654984
v -15.87740707 -157.00000000 -38.34689331
v -29.33834648 -157.00000000 -29.35325241
v -38.33707809 -157.00000000 -15.88644886
v -38.33708191 -157.00000000 15.87334251
v -41.49508667 -157.00000000 -0.00655353
v -29.33835030 -157.00000000 29.34014702
v -15.87741184 -157.00000000 38.33378983
v 0.00442821 -157.00000000 41.49345016
v 15.88688183 -157.00000000 38.33353424
v 0.00442821 -155.00000000 43.49345016
v -30.39868736 -155.00000000 31.10454941
v 30.40788460 -155.00000000 31.10421562
v 42.76399994 -155.73493958 0.66587412
v 43.49292755 -155.00000000 0.99367285
v 38.34606934 157.00000000 -15.88612270
v 38.34606934 157.00000000 15.87302017
v 41.50394058 157.00000000 -0.00655135
v 29.34762764 157.00000000 29.33972549
v 29.34762764 157.00000000 -29.35282707
v 15.88688183 157.00000000 38.33353424
v 0.00442821 157.00000000 41.49345016
v -15.87740707 157.00000000 38.33378983
v -29.33834648 157.00000000 29.34015083
v -38.33707809 157.00000000 15.87334633
v -38.33708191 157.00000000 -15.88644505
v -41.49508667 157.00000000 -0.00654918
v -29.33835030 157.00000000 -29.35324860
v -15.87741184 157.00000000 -38.34688950
v 0.00442821 157.00000000 -41.50654984
v 15.88688183 157.00000000 -38.34663773
v 43.49293900 155.00000000 0.99309230
v 30.40809250 155.00000000 31.10401344
v 0.00442821 155.00000000 43.49345016
v -30.39868546 155.00000000 31.10455132
v 40.85691452 21.60000038 120.67388153
v 43.58896637 21.60000038 121.40593719
v 55.98784256 24.29999924 113.38141632
v 69.13671875 -21.60000038 106.65593719
v 69.13671875 21.60000038 106.65593719
v 40.85691452 -21.60000038 120.67388153
v 43.58896637 -21.60000038 121.40593719
v 55.98784256 -24.29999924 113.38141632
v 72.76559448 -19.00000000 101.22022247
v 77.10546112 -0.00000001 98.71459961
v 72.76559448 19.00000000 101.22022247
v 73.28652191 76.87743378 28.29892159
v 49.99815750 116.67660522 45.70645142
v 84.89415741 46.59999847 2.60865712
v 81.06992340 71.50887299 -8.20866203
v 65.56484985 108.44844055 19.54221725
v 86.44079590 46.59999847 -23.61382675
v 81.61468506 66.37398529 -48.22588348
v 72.57772827 100.70206451 -13.27439690
v 82.65016174 46.59999847 -76.32688141
v 77.74600983 61.53981781 -88.90642548
v 73.29455566 93.30406952 -51.54970169
v 85.39765930 46.59999847 -50.17600250
v 77.68008423 46.59999847 -107.52115631
v 71.11909485 57.07343292 -129.42498779
v 69.76802063 86.35557556 -91.90434265
v 69.45612335 46.59999847 -147.54580688
v 62.94029236 53.04188156 -169.55047607
v 63.46027374 79.95768738 -132.93595886
v 61.72418213 46.59999847 -180.47116089
v 53.76128769 49.51221848 -209.27006531
v 55.54268646 74.21149445 -173.86009216
v 51.73979187 46.59999847 -219.49195862
v 44.14831543 46.59999847 -247.65237427
v 46.52629089 69.21810913 -214.50202942
v 36.24656296 65.57485962 -255.95333862
v 39.12368774 46.59999847 -265.87506104
v 33.79742050 75.25967407 -249.70114136
v 38.46584702 46.59999847 -266.90173340
v 50.34767151 132.86625671 30.34316254
v 48.46088409 123.34866333 41.50276947
v 59.60166550 130.78170776 -8.47193432
v 51.43040848 141.83953857 14.43561459
v 62.34212494 121.37667084 -40.45522690
v 60.96900940 112.48302460 -77.57791901
v 56.46823883 104.22348785 -117.11578369
v 49.96432495 96.72081757 -157.40957642
v 42.13866425 90.09774017 -197.66096497
v 32.56712341 85.74493408 -238.05584717
v 34.44340515 75.59511566 -248.28933716
v 51.58231735 144.58610535 6.19719076
v 50.02433395 147.40231323 -18.08576775
v 51.02460861 146.89657593 -7.95914412
v 48.88589859 137.69079590 -61.57070541
v 48.25435638 147.65364075 -29.89336586
v 47.82137299 147.65934753 -32.41606140
v 46.98070908 128.30793762 -95.70262909
v 42.84655762 119.62430573 -132.26789856
v 37.20403290 111.75437164 -169.45541382
v 30.21224022 103.97930145 -209.21238708
v 30.11005402 96.67311096 -223.91362000
v 31.02978325 96.06768799 -223.51843262
v 30.36634827 96.57436371 -223.84364319
v 44.89642715 148.03457642 -44.48698807
v 46.71530151 147.60560608 -38.52172852
v 37.75124359 144.42094421 -81.89099121
v 45.55012512 147.45722961 -44.59148407
v 42.35705185 146.63862610 -60.12627792
v 32.12140656 138.74070740 -114.25960541
v 28.91556168 128.24270630 -152.28540039
v 29.33256340 112.48520660 -191.99403381
v 27.95176506 113.07708740 -192.31991577
v 36.43059540 145.07090759 -81.71327209
v 30.88297653 139.29557800 -114.21493530
v 27.66480255 128.76763916 -152.41566467
v -36.52964401 90.01840210 -240.48283386
v -29.80171013 91.25897980 -238.32974243
v -28.57938766 91.07595825 -238.44865417
v 32.80531693 76.03152466 -249.37088013
v -27.18365479 91.20067596 -238.16073608
v -31.07841301 91.73384857 -237.84092712
v -31.25109863 91.73384857 -237.85710144
v -39.52566910 100.25483704 -226.00119019
v -31.79432487 92.82184601 -236.48271179
v -31.67418671 93.89421844 -235.01419067
v -29.99440765 95.14105225 -233.08076477
v -27.68743134 95.11649323 -232.88134766
v -25.71610641 93.86327362 -234.46899414
v -25.33201027 92.81019592 -235.87626648
v -25.60982704 91.73384857 -237.32720947
v -25.78250313 91.73384857 -237.34349060
v 35.18437958 62.07666016 -259.63574219
v 49.55170822 -138.88853455 -53.00975037
v 48.63930893 -130.55172729 -81.85754395
v 63.75725937 -112.94290924 -58.96376801
v 29.50721741 96.77286530 -224.00216675
v -45.39619827 119.27946472 -189.13664246
v 63.54437256 -121.03971100 -26.30318260
v -50.74788284 80.74971008 76.44686890
v -36.02253342 -88.15639496 -242.62477112
v -39.52569580 -100.25153351 -225.99929810
v -31.67247772 -93.89159393 -235.00888062
v 27.37830162 -114.45909119 -189.26834106
v 29.16206551 -96.77276611 -224.00212097
v -29.99311638 -95.13453674 -233.08013916
v -45.39611053 -119.27542877 -189.13737488
v 33.39852142 -71.43748474 -253.17127991
v -27.18163872 -91.19732666 -238.15544128
v -28.57940674 -91.07205200 -238.44474792
v -29.80571175 -91.25646973 -238.32479858
v -31.79546165 -92.82145691 -236.47497559
v -31.25639725 -91.73384857 -237.84942627
v 36.23017883 -54.09523392 -264.01736450
v -50.74792862 -80.75030518 76.44493866
v 49.64862061 -127.85699463 36.25003815
v 50.36371994 -135.69982910 26.30495071
v 51.11621475 -141.66986084 14.86257744
v 50.72072983 -138.42430115 21.71148872
v 47.94823074 -151.91917419 -7.33060122
v 44.83930969 -152.52011108 -18.50205231
v 47.43101501 -148.75921631 10.14080620
v 44.48284912 -148.03630066 -44.48494720
v 39.13314056 -146.83068848 -66.29813385
v 29.26444054 -108.84740448 -199.64288330
v 29.72658539 -96.68524933 -223.92070007
v -25.60514069 -91.73384857 -237.31663513
v -25.33242989 -92.80976105 -235.86616516
v -25.71953201 -93.86015320 -234.46263123
v -27.68905449 -95.10946655 -232.88088989
v 29.87057877 -103.47924805 -210.17596436
v 26.93725014 -126.20001221 -159.91510010
v -48.98273468 -134.75018311 -148.75373840
v 31.94635773 -141.55702209 -103.27484131
v -50.70592880 -145.95782471 -105.16539001
v 38.33953857 -145.08576965 -76.59152985
v 45.13487244 -147.46325684 -44.59116745
v 33.19234467 -140.98663330 -103.36919403
v 28.37131691 -118.29018402 -178.84266663
v 28.86896706 -131.78512573 -141.10731506
v 36.38201141 -59.52309418 -260.76638794
v 32.50206375 -80.52384186 -244.87600708
v 41.55983353 -0.00152424 -275.09051514
v 39.71956635 -35.02389526 -270.64648438
v -25.77748108 -91.73384857 -237.33293152
v -31.08404732 -91.73384857 -237.83322144
v 39.81608200 35.02075577 -270.64685059
v -48.33721542 151.26499939 -67.86945343
v -50.70590591 145.95941162 -105.16650391
v -48.98275757 134.75299072 -148.75337219
v 44.86435699 152.53147888 -18.44121552
v 47.95717239 151.92375183 -7.27183247
v 47.42243576 148.75773621 10.18081856
v 45.77696228 -122.71234894 -113.15550232
v 60.90750885 -105.31021881 -94.25008392
v 41.50575638 -115.44657898 -145.52270508
v 55.86677933 -98.23207855 -130.79408264
v 75.12973785 -65.63581848 30.69561577
v 65.52035522 -102.02133179 27.06993484
v 59.51714706 -129.51022339 1.03463864
v 50.71311569 -146.89895630 -7.96215534
v 49.42308807 -147.47335815 -20.05348587
v 48.16707230 -147.64501953 -28.21547699
v 47.88239670 -147.65823364 -29.89722443
v 46.50688171 -147.62634277 -37.52357101
v 36.21369934 -108.83055115 -178.09748840
v 30.01670837 -96.57729340 -223.84272766
v 30.67855263 -96.07630920 -223.51867676
v 42.00342560 -86.10105896 -204.20606995
v 32.82445145 -82.80092621 -241.35055542
v 35.07882309 -70.92552948 -252.11865234
v 37.97991180 -53.73328781 -262.75015259
v 36.98842239 -60.04134750 -259.40066528
v 39.99210358 -38.52620697 -268.65560913
v 40.39782715 -34.84418488 -269.67367554
v 41.81778717 -16.48657990 -273.08950806
v 41.91833878 -14.31070232 -273.32962036
v 42.23513412 -0.00241943 -274.05972290
v 46.23205948 -63.27729034 -222.37008667
v 49.68099213 -40.56679153 -231.57669067
v 51.56433105 -17.99943924 -236.45532227
v 52.01603317 3.86694098 -237.58149719
v 42.22608948 3.01066327 -274.02743530
v 42.01609421 12.74701500 -273.48022461
v 41.47912979 23.22402763 -272.12750244
v 40.49445343 34.83892441 -269.67361450
v 39.87319565 40.51186371 -268.04193115
v 39.18849182 46.09999847 -266.06988525
v 51.16643906 26.00382996 -235.04254150
v 38.53030396 46.09999847 -267.09637451
v 49.44002533 -91.79888153 -167.54797363
v 73.67851257 -95.38588715 -2.50637865
v 75.85691833 -88.99875641 -36.96701431
v 48.97218323 46.09999847 -230.28491211
v 57.17513657 46.09999847 -199.03936768
v 63.98971939 46.09999847 -171.56703186
v 60.43903732 27.59969139 -198.39129639
v 69.58612823 46.09999847 -147.39982605
v 69.08363342 29.45482826 -161.38415527
v 77.80031586 46.09999847 -107.35945129
v 76.85430908 31.53981972 -123.92543030
v 82.76027679 46.09999847 -76.14794159
v 83.20143127 33.82524872 -85.91696930
v 85.50318909 46.09999847 -49.84517288
v 86.51741791 46.09999847 -23.19861794
v 87.07330322 36.28169250 -47.25656128
v 84.90531158 46.09999847 3.10790110
v 86.98785400 38.87973404 -8.31629467
v 61.41795349 4.08795118 -201.00735474
v 70.22895813 4.34554482 -164.06600952
v 78.20626831 4.63560343 -126.64620972
v 84.83721161 4.95401096 -88.60023499
v 89.07203674 5.29664898 -49.70766068
v 89.45334625 5.65940142 -10.12941742
v 60.91344833 -19.12874031 -199.80792236
v 69.65275574 -20.44358444 -162.79818726
v 77.53735352 -21.92299080 -125.32219696
v 84.03526306 -23.54597473 -87.25506592
v 88.09245300 -25.29155922 -48.43373489
v 88.23286438 -27.13876152 -9.12475109
v 58.82231903 -43.15039062 -194.51391602
v 67.26776886 -46.14607620 -157.11216736
v 74.75754547 -49.50613022 -119.30020142
v 80.66552734 -53.18284607 -81.08036041
v 83.91535950 -57.12850571 -42.54753113
v 82.93793488 -61.29539871 -4.47890949
v 54.74230957 -67.35592651 -185.47595215
v 62.43861008 -72.03852081 -148.32316589
v 69.04400635 -77.25393677 -110.92296600
v 73.85385132 -82.93106079 -73.61037445
v -25.99557114 -36.09999847 -290.00656128
v 22.12574768 -31.10000038 -289.12786865
v 18.53996277 34.63553238 -290.00656128
v 22.12574768 31.10000038 -289.12786865
v -25.99557114 -38.22119522 -289.12774658
v 18.53996277 -34.63553238 -290.00656128
v 15.00442791 -38.22132111 -289.12786865
v -25.99557114 36.09999847 -290.00656128
v 15.00442791 36.09999847 -290.00656128
v -25.99557114 38.22119522 -289.12774658
v 15.00442791 38.22132111 -289.12786865
v 20.00442886 31.10000038 -290.00656128
v 20.00442886 -31.10000038 -290.00656128
v 15.00442791 -36.09999847 -290.00656128
vn -0.94337438 -0.09261789 0.31853838
vn -0.94360324 0.09284242 0.31779429
vn -0.98938881 0.10202022 -0.10344881
vn -0.91868848 0.25994991 0.29738446
vn -0.95505188 0.27995556 -0.09747195
vn -0.91868606 -0.25992835 0.29741078
vn -0.95544612 -0.27905131 -0.09619294
vn -0.98938881 -0.10202022 -0.10344881
vn -0.80179010 -0.57352798 -0.16792346
vn -0.81658881 -0.57529231 -0.04713252
vn -0.53907923 -0.63508481 0.55322769
vn -0.76899362 -0.63871011 0.02642355
vn -0.73801834 -0.65552537 0.16004817
vn -0.85430538 -0.51963012 -0.01211844
vn -0.78036404 -0.61373598 -0.11983370
vn -0.81272924 -0.53354118 -0.23410468
vn -0.78135125 -0.43523893 -0.44727765
vn -0.83028102 -0.43751432 -0.34527473
vn -0.60949420 -0.00270469 0.79278591
vn -0.60562734 0.03323893 0.79505390
vn -0.59450093 -0.11781194 0.79541749
vn -0.58369284 -0.37581294 0.71976892
vn 0.00186247 -0.94542447 -0.32583601
vn -0.26500021 -0.87046223 -0.41481369
vn -0.08573327 -0.84155760 -0.53332037
vn -0.46188092 -0.72120346 -0.51626697
vn -0.09850334 -0.70994188 -0.69733752
vn -0.45035188 -0.62379410 -0.63879895
vn -0.31055721 -0.91326488 -0.26363132
vn -0.37823048 -0.86064796 -0.34092052
vn -0.12088180 -0.96974055 -0.21211050
vn -0.12884990 -0.97974412 -0.15329439
vn -0.45243596 -0.87621554 -0.16597598
vn -0.39216915 -0.91480112 -0.09665540
vn -0.50162846 -0.86440040 -0.03436330
vn -0.06558907 -0.99345704 -0.09349432
vn -0.06014823 -0.76915620 -0.63622397
vn -0.80713795 -0.50300153 0.30905954
vn -0.78177494 -0.37769124 0.49616255
vn -0.75347844 -0.59982737 0.26921621
vn -0.77144149 -0.47357957 0.42497108
vn -0.87281888 -0.47781551 0.09939588
vn -0.87226031 -0.48416962 0.06886019
vn -0.88047723 -0.47172921 -0.04723769
vn -0.89966161 -0.42530755 -0.09860262
vn -0.66301072 -0.64075814 0.38709921
vn -0.87188623 0.48695331 -0.05187367
vn -0.87232133 0.48407885 0.06872527
vn -0.67523724 0.62855518 0.38597027
vn -0.75370532 0.59926374 0.26983560
vn -0.78182066 0.37766050 0.49611389
vn -0.77084843 0.47305284 0.42663065
vn -0.89060968 0.44229717 -0.10577154
vn -0.43514131 -0.55451570 0.70934081
vn -0.53033364 -0.73672074 0.41951017
vn -0.52048966 -0.80390055 0.28780971
vn -0.45183824 -0.88777186 0.08776857
vn -0.60726344 -0.75266974 0.25440005
vn -0.27238358 -0.51806924 0.81080913
vn -0.06687778 0.99315854 -0.09572610
vn -0.50140383 0.86444664 -0.03641706
vn -0.38750696 0.91644704 -0.09981571
vn -0.40795209 0.90043234 -0.15098574
vn -0.19495135 0.95736013 -0.21320307
vn -0.24010631 -0.97053846 -0.02010111
vn -0.09230848 -0.99370241 -0.06351899
vn -0.45189086 0.88774753 0.08774382
vn -0.52046551 0.80390275 0.28784722
vn -0.53035321 0.73669831 0.41952483
vn -0.24086776 0.97034465 -0.02034629
vn -0.09397519 0.99349254 -0.06435241
vn -0.43517711 0.55452770 0.70930947
vn -0.60290591 0.04922080 0.79629252
vn -0.39054657 0.63067496 -0.67061351
vn -0.53885207 0.63506428 0.55347250
vn -0.58371029 0.37580662 0.71975807
vn -0.27246054 0.51809961 0.81076387
vn -0.60731360 0.75262990 0.25439815
vn -0.76909029 0.63862900 0.02555621
vn -0.73806105 0.65547758 0.16004695
vn -0.85413112 0.51989693 -0.01293070
vn -0.76865049 0.62641676 -0.12953174
vn -0.77453183 0.62999666 -0.05660963
vn -0.68074699 0.73203762 -0.02654151
vn -0.91497345 0.34639434 -0.20696510
vn -0.82673504 0.44133457 -0.34890254
vn -0.80998248 0.53343524 -0.24367032
vn -0.46796287 0.71895489 -0.51392083
vn -0.40447117 0.84684044 -0.34534671
vn -0.79779918 0.57453409 -0.18283065
vn -0.08166848 0.84948798 -0.52124891
vn -0.23826478 0.93071595 -0.27748462
vn -0.22761244 0.87265908 -0.43204016
vn -0.15141398 0.73626744 -0.65953322
vn -0.68151978 -0.73139853 -0.02422742
vn -0.38839799 -0.31387437 0.86638899
vn -0.19233080 -0.44540793 0.87442589
vn -0.41427919 -0.03657691 0.90941458
vn -0.38826404 0.31394169 0.86642464
vn -0.59335369 0.12608859 0.79500508
vn -0.19227807 0.44547669 0.87440246
vn -0.87282067 0.47781348 0.09938991
vn -0.80634710 0.50230314 0.31224335
vn -0.08693443 0.68529695 -0.72305635
vn -0.69145440 0.15185718 -0.70627913
vn -0.50554120 0.42737338 -0.74951990
vn -0.66287891 -0.00000000 -0.74872662
vn -0.69081055 -0.14930738 -0.70745183
vn -0.49901217 -0.42245493 -0.75664965
vn -0.21492259 -0.62483871 -0.75058968
vn -0.21665851 0.63051382 -0.74532638
vn 0.42777538 -0.88192899 0.19801383
vn 0.27959253 -0.95684385 -0.07923301
vn 0.37616381 -0.92605719 0.03031277
vn 0.13313180 -0.98524884 -0.10752041
vn 0.30710553 -0.90570192 0.29221607
vn 0.05370115 -0.99183895 -0.11563598
vn 0.01126216 -0.99451048 -0.10402913
vn -0.02316289 -0.99712802 -0.07210544
vn -0.02391691 -0.99913816 -0.03392526
vn -0.00922251 -0.99994619 -0.00475103
vn -0.27262890 -0.94712003 0.16922508
vn -0.03233661 -0.99945945 0.00592849
vn -0.26871992 -0.91787554 0.29205152
vn -0.15529946 -0.88298519 0.44296640
vn 0.00000188 -0.90660034 0.42199031
vn 0.19449699 -0.85957986 0.47253929
vn 0.00650498 -0.61379513 0.78943855
vn -0.39511719 -0.71461874 0.57723692
vn 0.53362430 -0.62659792 0.56799661
vn 0.67550671 -0.72832332 0.11504703
vn 0.70064706 -0.70153674 0.13015338
vn 0.27824759 0.95739360 -0.07730307
vn 0.42748743 0.88205772 0.19806231
vn 0.37685762 0.92574411 0.03124398
vn 0.30709968 0.90570302 0.29221880
vn 0.12842481 0.98607434 -0.10566207
vn 0.19449802 0.85957962 0.47253930
vn 0.00000187 0.90660034 0.42199032
vn -0.15529431 0.88299124 0.44295614
vn -0.26870605 0.91787909 0.29205315
vn -0.27253448 0.94715502 0.16918136
vn -0.00909870 0.99994762 -0.00468834
vn -0.03184947 0.99947563 0.00583828
vn -0.02370908 0.99915259 -0.03364507
vn -0.02375178 0.99689705 -0.07504748
vn 0.01043666 0.99447475 -0.10445598
vn 0.05445600 0.99176855 -0.11588655
vn 0.69833548 0.70388653 0.12988961
vn 0.53268175 0.62748249 0.56790481
vn 0.00651040 0.61379958 0.78943504
vn -0.39508810 0.71462704 0.57724655
vn -0.30162451 0.13254991 0.94416798
vn 0.14309884 0.23388291 0.96167640
vn 0.45190042 0.42313102 0.78533187
vn 0.67828577 -0.27705379 0.68056566
vn 0.67797548 0.27653665 0.68108496
vn -0.30195820 -0.13261997 0.94405147
vn 0.14309702 -0.23388465 0.96167625
vn 0.45190039 -0.42313095 0.78533193
vn 0.90449380 -0.23867328 0.35344876
vn 0.91529607 -0.00049189 0.40278140
vn 0.90436766 0.23770743 0.35442110
vn 0.94464995 0.26177443 0.19776404
vn 0.63334923 0.50468097 0.58665652
vn 0.97610857 0.17927066 0.12277659
vn 0.96661132 0.24520842 0.07440017
vn 0.90729821 0.35754114 0.22130138
vn 0.98460698 0.17468543 -0.00583984
vn 0.96748340 0.24305357 -0.07000599
vn 0.94025842 0.33881285 0.03346582
vn 0.97383562 0.18641708 -0.12997252
vn 0.95791207 0.24329715 -0.15235144
vn 0.93574710 0.33946464 -0.09560920
vn 0.98172910 0.17380245 -0.07746402
vn 0.96486747 0.19194838 -0.17940620
vn 0.94980903 0.24063981 -0.19988818
vn 0.92515398 0.34017292 -0.16844138
vn 0.95590413 0.20192432 -0.21324602
vn 0.94231506 0.24597763 -0.22701834
vn 0.91740631 0.33806626 -0.20994491
vn 0.95276707 0.19076686 -0.23631107
vn 0.93805618 0.24410895 -0.24588906
vn 0.91288942 0.33453230 -0.23392528
vn 0.94782378 0.19657064 -0.25097820
vn 0.93736197 0.23616549 -0.25608278
vn 0.91144783 0.32873586 -0.24737741
vn 0.75304933 0.44405938 -0.48551826
vn 0.87047459 0.30044943 -0.38987705
vn 0.52056753 0.60423107 -0.60325306
vn 0.68827786 0.38321424 -0.61597113
vn 0.75559893 0.49494898 0.42906383
vn 0.62317883 0.51803750 0.58590554
vn 0.90389149 0.42697775 0.02588787
vn 0.82021110 0.50715514 0.26466472
vn 0.88867481 0.44741221 -0.10039624
vn 0.87473084 0.45444896 -0.16829173
vn 0.86570547 0.45469242 -0.20930564
vn 0.86161452 0.45137180 -0.23212910
vn 0.86365927 0.44082676 -0.24446767
vn 0.53169087 0.68265768 -0.50128167
vn 0.80387269 0.47293643 -0.36072126
vn 0.84517507 0.51804909 0.13154561
vn 0.83662564 0.54049393 -0.08901601
vn 0.86799722 0.49649516 -0.00856596
vn 0.81399642 0.55262522 -0.17892788
vn 0.79043133 0.59968872 -0.12486694
vn 0.76579769 0.62818062 -0.13763362
vn 0.79362291 0.56905110 -0.21527544
vn 0.78549948 0.57341784 -0.23277145
vn 0.79238266 0.55993214 -0.24208617
vn 0.56718524 0.74132448 -0.35880205
vn 0.31506405 0.81473085 -0.48677334
vn 0.75725727 0.57659663 -0.30675357
vn 0.54688205 0.72793663 -0.41355565
vn 0.57164966 0.80569945 -0.15512915
vn 0.73186148 0.66552153 -0.14649188
vn 0.58918999 0.77770357 -0.21916276
vn 0.72503531 0.66848395 -0.16568948
vn 0.60737101 0.77072038 -0.19258909
vn 0.56228432 0.78806188 -0.25058894
vn 0.57180026 0.77096664 -0.28045480
vn 0.61135528 0.72835811 -0.30941751
vn 0.24748016 0.88607070 -0.39195955
vn 0.29443340 0.93431463 -0.20091080
vn 0.22569488 0.94231948 -0.24717568
vn 0.22596610 0.92158314 -0.31563243
vn 0.02294273 0.76671049 -0.64158293
vn 0.05632768 0.78301496 -0.61944715
vn 0.06235178 0.76845014 -0.63686470
vn 0.20550538 0.71552949 -0.66767139
vn 0.06376245 0.77069943 -0.63400058
vn 0.05714965 0.79065873 -0.60958403
vn 0.05267680 0.78880790 -0.61237836
vn 0.05803022 0.87954820 -0.47225783
vn 0.04130474 0.80100565 -0.59723017
vn 0.03086476 0.81487864 -0.57880926
vn 0.04898897 0.82970571 -0.55604723
vn 0.05875539 0.83146957 -0.55245466
vn 0.06268640 0.81317578 -0.57863249
vn 0.06524683 0.80086229 -0.59528349
vn 0.06705829 0.78591915 -0.61468226
vn 0.05740640 0.79097300 -0.60915205
vn 0.53132858 0.50874148 -0.67740096
vn 0.82190595 -0.54470036 -0.16664974
vn 0.80457698 -0.55898089 -0.20049003
vn 0.88890639 -0.43751310 -0.13574871
vn 0.13610879 0.84257416 -0.52109805
vn 0.03027738 0.91830228 -0.39472040
vn 0.90254730 -0.42713848 -0.05441597
vn -0.44584199 0.23389335 0.86401321
vn 0.03733324 -0.74703976 -0.66373024
vn 0.05829769 -0.86892560 -0.49149738
vn 0.03079232 -0.81253097 -0.58210416
vn 0.27357243 -0.87974641 -0.38885007
vn 0.13256993 -0.84336071 -0.52073787
vn 0.05079558 -0.82936010 -0.55640061
vn 0.05368067 -0.90309297 -0.42607684
vn 0.38720506 -0.62335890 -0.67933492
vn 0.06192429 -0.77633841 -0.62726714
vn 0.05992712 -0.77312482 -0.63141646
vn 0.05481796 -0.77937417 -0.62415615
vn 0.02559170 -0.80045191 -0.59885041
vn 0.04463147 -0.78647558 -0.61600666
vn 0.58990506 -0.40259853 -0.69994745
vn -0.44583755 -0.23389248 0.86401573
vn 0.71208670 -0.48483363 0.50780791
vn 0.77240453 -0.49513435 0.39778540
vn 0.83136604 -0.50666800 0.22829377
vn 0.80201170 -0.50162552 0.32426698
vn 0.74224592 -0.66992698 -0.01639614
vn 0.57928357 -0.80383990 -0.13517386
vn 0.77747150 -0.59723713 0.19709357
vn 0.56815175 -0.80620447 -0.16503922
vn 0.44145153 -0.87859762 -0.18217237
vn 0.52761391 -0.76981860 -0.35916970
vn 0.30582294 -0.81537912 -0.49155795
vn 0.06604167 -0.78781217 -0.61236467
vn 0.06550092 -0.80094689 -0.59514176
vn 0.06293198 -0.81323666 -0.57852027
vn 0.05903156 -0.83147287 -0.55242025
vn 0.54299514 -0.75625666 -0.36500978
vn 0.29626658 -0.89918880 -0.32200252
vn 0.03568528 -0.94384861 -0.32844539
vn 0.22968527 -0.94433954 -0.23551540
vn -0.01142933 -0.97392345 -0.22658878
vn 0.53795017 -0.81611489 -0.21110685
vn 0.71746598 -0.67473366 -0.17313881
vn 0.56819345 -0.78618625 -0.24303784
vn 0.53164465 -0.78741333 -0.31198431
vn 0.41874116 -0.86535056 -0.27536203
vn 0.60971109 -0.48044193 -0.63041886
vn 0.43537675 -0.68583961 -0.58315616
vn 0.72691635 -0.00743527 -0.68668577
vn 0.73902947 -0.24200650 -0.62870366
vn 0.05757116 -0.79101951 -0.60907610
vn 0.05735537 -0.79073615 -0.60946427
vn 0.74495154 0.23465839 -0.62448591
vn -0.06895433 0.98878109 -0.13250383
vn -0.01454503 0.97275257 -0.23138901
vn 0.03158202 0.94348001 -0.32992127
vn 0.57150984 0.81031285 -0.12949744
vn 0.72328515 0.69031125 -0.01813746
vn 0.74721314 0.63059926 0.20980253
vn 0.79169400 -0.56803526 -0.22484786
vn 0.87864460 -0.43948139 -0.18665415
vn 0.79152638 -0.56386580 -0.23567211
vn 0.87234511 -0.43784213 -0.21750465
vn 0.94826762 -0.25097407 0.19442362
vn 0.90109287 -0.34795440 0.25876510
vn 0.90324377 -0.41826715 0.09593380
vn 0.87907248 -0.47665098 -0.00595109
vn 0.84190486 -0.53038679 -0.09942861
vn 0.81238696 -0.56974661 -0.12416210
vn 0.78170086 -0.60861784 -0.13611793
vn 0.73466488 -0.66211932 -0.14786994
vn 0.79965550 -0.54898343 -0.24324530
vn 0.54036586 -0.72864030 -0.42081831
vn 0.75708228 -0.57509949 -0.30997902
vn 0.87187433 -0.42354420 -0.24585660
vn 0.68631476 -0.60383218 -0.40541183
vn 0.75554857 -0.47698968 -0.44902917
vn 0.80212449 -0.33299632 -0.49569120
vn 0.84233271 -0.37646424 -0.38568158
vn 0.82827407 -0.27764133 -0.48670048
vn 0.89758425 -0.17554671 -0.40438331
vn 0.85243720 -0.11835435 -0.50925736
vn 0.85057652 -0.07218549 -0.52087315
vn 0.91186718 -0.01750673 -0.41011189
vn 0.92142310 -0.29882600 -0.24835961
vn 0.94958086 -0.18840181 -0.25060117
vn 0.96397227 -0.08347868 -0.25256440
vn 0.96755789 0.01595517 -0.25214511
vn 0.89112815 0.03432684 -0.45245141
vn 0.84908321 0.07677983 -0.52264956
vn 0.85339711 0.13405031 -0.50372997
vn 0.89663564 0.18617017 -0.40172775
vn 0.86602275 0.23903867 -0.43916410
vn 0.88277076 0.25721048 -0.39313935
vn 0.96103035 0.11444000 -0.25164290
vn 0.72074481 0.31699358 -0.61647545
vn 0.86956594 -0.43411110 -0.23537764
vn 0.94486610 -0.31360488 0.09423391
vn 0.94853404 -0.31251515 -0.05116102
vn 0.94567708 0.20424250 -0.25294242
vn 0.95086390 0.19328681 -0.24186371
vn 0.95652494 0.18172311 -0.22811565
vn 0.96400778 0.11294598 -0.24069110
vn 0.96287956 0.17034681 -0.20939176
vn 0.96915250 0.11065852 -0.22022291
vn 0.97177332 0.16013075 -0.17324770
vn 0.97533129 0.11103128 -0.19079026
vn 0.98091612 0.15172223 -0.12158921
vn 0.98441931 0.10652518 -0.13989639
vn 0.98589071 0.15324301 -0.06735050
vn 0.99133433 0.13054540 0.01463352
vn 0.99327827 0.10034481 -0.05769923
vn 0.97964459 0.14319730 0.14068054
vn 0.99196600 0.10958959 0.06319473
vn 0.97047782 0.01668104 -0.24061283
vn 0.97525456 0.01686726 -0.22044054
vn 0.98154315 0.01698231 -0.19048531
vn 0.98991588 0.01704570 -0.14062711
vn 0.99806305 0.01696514 -0.05985259
vn 0.99848346 0.01785105 0.05207803
vn 0.96698099 -0.08478929 -0.24033006
vn 0.97167980 -0.08577500 -0.22018404
vn 0.97794887 -0.08644461 -0.19011402
vn 0.98635484 -0.08684395 -0.13986515
vn 0.99453525 -0.08652472 -0.05842187
vn 0.99401312 -0.09197111 0.05898504
vn 0.95183087 -0.19185082 -0.23918875
vn 0.95621389 -0.19409816 -0.21904543
vn 0.96242173 -0.19586354 -0.18810072
vn 0.97097261 -0.19691620 -0.13577997
vn 0.97908088 -0.19714272 -0.05035248
vn 0.97465311 -0.20589764 0.08750702
vn 0.92122867 -0.30794560 -0.23771252
vn 0.92485393 -0.31117746 -0.21866367
vn 0.93079961 -0.31347054 -0.18801146
vn 0.93966254 -0.31382358 -0.13619498
vn -0.07704464 -0.20892266 -0.97489253
vn 0.54272755 -0.18274829 -0.81978648
vn 0.28983059 0.28471701 -0.91374748
vn 0.54007614 0.18012114 -0.82211565
vn -0.09473442 -0.53074031 -0.84222332
vn 0.29116560 -0.28518261 -0.91317768
vn 0.15684804 -0.55079157 -0.81977274
vn -0.07704464 0.20892266 -0.97489253
vn 0.04944814 0.21764157 -0.97477537
vn -0.09654805 0.53329722 -0.84040023
vn 0.15575870 0.55131543 -0.81962828
vn 0.21764193 0.04944826 -0.97477529
vn 0.21764193 -0.04944826 -0.97477529
vn 0.04944814 -0.21764157 -0.97477537
f 365//365 356//356 359//359
f 371//371 377//377 376//376
f 76//76 4//4 100//100
f 100//100 251//251 76//76
f 101//101 77//77 76//76
f 155//155 138//138 154//154
f 154//154 157//157 155//155
f 100//100 4//4 2//2
f 357//357 356//356 365//365
f 357//357 169//169 356//356
f 169//169 170//170 167//167
f 167//167 359//359 356//356
f 356//356 169//169 167//167
f 370//370 371//371 376//376
f 365//365 371//371 370//370
f 163//163 157//157 162//162
f 365//365 359//359 162//162
f 162//162 371//371 365//365
f 377//377 371//371 162//162
f 162//162 161//161 377//377
f 156//156 162//162 157//157
f 161//161 162//162 156//156
f 174//174 197//197 196//196
f 101//101 76//76 99//99
f 99//99 76//76 251//251
f 154//154 101//101 99//99
f 4//4 76//76 51//51
f 153//153 251//251 100//100
f 154//154 99//99 153//153
f 153//153 99//99 251//251
f 138//138 155//155 150//150
f 150//150 155//155 157//157
f 4//4 103//103 50//50
f 73//73 2//2 20//20
f 100//100 2//2 73//73
f 73//73 153//153 100//100
f 20//20 153//153 73//73
f 127//127 159//159 128//128
f 6//6 41//41 39//39
f 38//38 6//6 40//40
f 38//38 41//41 6//6
f 54//54 128//128 59//59
f 125//125 128//128 54//54
f 108//108 8//8 107//107
f 15//15 14//14 10//10
f 10//10 44//44 15//15
f 14//14 44//44 10//10
f 15//15 44//44 45//45
f 88//88 106//106 86//86
f 214//214 211//211 199//199
f 354//354 363//363 352//352
f 175//175 170//170 169//169
f 172//172 170//170 175//175
f 359//359 167//167 166//166
f 163//163 162//162 166//166
f 364//364 357//357 365//365
f 365//365 370//370 364//364
f 363//363 354//354 364//364
f 364//364 354//354 357//357
f 160//160 156//156 159//159
f 160//160 159//159 127//127
f 377//377 161//161 309//309
f 377//377 309//309 343//343
f 117//117 286//286 285//285
f 133//133 225//225 137//137
f 137//137 226//226 148//148
f 225//225 226//226 137//137
f 227//227 301//301 92//92
f 92//92 226//226 227//227
f 199//199 184//184 200//200
f 200//200 214//214 199//199
f 177//177 176//176 349//349
f 181//181 184//184 199//199
f 199//199 198//198 181//181
f 72//72 140//140 75//75
f 72//72 76//76 77//77
f 154//154 138//138 151//151
f 151//151 101//101 154//154
f 151//151 77//77 101//101
f 151//151 72//72 77//77
f 140//140 72//72 151//151
f 52//52 103//103 4//4
f 4//4 51//51 52//52
f 52//52 72//72 75//75
f 52//52 51//51 76//76
f 76//76 72//72 52//52
f 164//164 168//168 163//163
f 167//167 168//168 164//164
f 163//163 166//166 164//164
f 164//164 166//166 167//167
f 194//194 168//168 171//171
f 171//171 168//168 167//167
f 174//174 196//196 171//171
f 171//171 196//196 194//194
f 171//171 170//170 174//174
f 171//171 167//167 170//170
f 165//165 150//150 157//157
f 193//193 150//150 165//165
f 203//203 168//168 194//194
f 203//203 195//195 168//168
f 102//102 48//48 4//4
f 4//4 50//50 102//102
f 102//102 50//50 48//48
f 75//75 50//50 49//49
f 49//49 50//50 103//103
f 49//49 52//52 75//75
f 103//103 52//52 49//49
f 127//127 128//128 126//126
f 126//126 128//128 125//125
f 40//40 6//6 42//42
f 11//11 54//54 41//41
f 125//125 54//54 11//11
f 56//56 124//124 40//40
f 295//295 325//325 383//383
f 292//292 387//387 383//383
f 352//352 363//363 362//362
f 361//361 362//362 367//367
f 74//74 88//88 94//94
f 106//106 88//88 74//74
f 106//106 391//391 389//389
f 389//389 391//391 392//392
f 86//86 106//106 105//105
f 107//107 3//3 105//105
f 105//105 389//389 107//107
f 106//106 389//389 105//105
f 86//86 85//85 87//87
f 87//87 88//88 86//86
f 221//221 226//226 225//225
f 227//227 226//226 221//221
f 201//201 200//200 202//202
f 214//214 200//200 201//201
f 231//231 232//232 201//201
f 215//215 201//201 213//213
f 214//214 201//201 215//215
f 212//212 223//223 211//211
f 211//211 214//214 212//212
f 214//214 215//215 212//212
f 212//212 215//215 213//213
f 357//357 354//354 353//353
f 172//172 175//175 353//353
f 169//169 357//357 355//355
f 355//355 175//175 169//169
f 357//357 353//353 355//355
f 355//355 353//353 175//175
f 358//358 162//162 359//359
f 359//359 166//166 358//358
f 358//358 166//166 162//162
f 130//130 267//267 156//156
f 130//130 160//160 127//127
f 156//156 160//160 130//130
f 310//310 309//309 161//161
f 310//310 343//343 309//309
f 117//117 285//285 115//115
f 287//287 113//113 115//115
f 115//115 285//285 287//287
f 29//29 285//285 286//286
f 29//29 291//291 285//285
f 283//283 291//291 29//29
f 15//15 45//45 9//9
f 30//30 29//29 9//9
f 30//30 9//9 16//16
f 288//288 287//287 246//246
f 114//114 113//113 272//272
f 322//322 378//378 320//320
f 320//320 378//378 342//342
f 253//253 255//255 25//25
f 256//256 255//255 253//253
f 25//25 281//281 253//253
f 253//253 281//281 256//256
f 24//24 255//255 283//283
f 18//18 28//28 26//26
f 25//25 24//24 26//26
f 26//26 24//24 30//30
f 26//26 16//16 18//18
f 30//30 16//16 26//26
f 110//110 28//28 109//109
f 220//220 225//225 133//133
f 206//206 196//196 197//197
f 187//187 188//188 202//202
f 187//187 200//200 184//184
f 202//202 200//200 187//187
f 184//184 183//183 187//187
f 351//351 354//354 352//352
f 352//352 349//349 351//351
f 351//351 349//349 176//176
f 351//351 353//353 354//354
f 351//351 176//176 172//172
f 172//172 353//353 351//351
f 173//173 170//170 172//172
f 172//172 176//176 173//173
f 173//173 176//176 177//177
f 174//174 170//170 173//173
f 346//346 183//183 180//180
f 180//180 183//183 184//184
f 184//184 181//181 180//180
f 180//180 181//181 177//177
f 140//140 141//141 152//152
f 75//75 140//140 152//152
f 152//152 141//141 75//75
f 69//69 50//50 75//75
f 75//75 141//141 69//69
f 69//69 141//141 50//50
f 139//139 151//151 138//138
f 140//140 151//151 139//139
f 168//168 195//195 192//192
f 192//192 165//165 157//157
f 193//193 165//165 192//192
f 192//192 157//157 163//163
f 163//163 168//168 192//192
f 192//192 150//150 193//193
f 134//134 192//192 195//195
f 150//150 192//192 134//134
f 40//40 124//124 55//55
f 55//55 11//11 40//40
f 124//124 11//11 55//55
f 46//46 38//38 40//40
f 40//40 11//11 46//46
f 41//41 38//38 46//46
f 46//46 11//11 41//41
f 129//129 124//124 125//125
f 125//125 11//11 129//129
f 129//129 11//11 124//124
f 122//122 56//56 57//57
f 124//124 56//56 122//122
f 57//57 65//65 122//122
f 35//35 65//65 57//57
f 34//34 65//65 35//35
f 325//325 295//295 326//326
f 383//383 325//325 323//323
f 392//392 244//244 384//384
f 183//183 345//345 186//186
f 186//186 187//187 183//183
f 189//189 188//188 186//186
f 188//188 187//187 186//186
f 185//185 183//183 346//346
f 185//185 345//345 183//183
f 294//294 385//385 335//335
f 383//383 385//385 294//294
f 294//294 328//328 383//383
f 294//294 329//329 328//328
f 360//360 348//348 361//361
f 361//361 348//348 350//350
f 352//352 362//362 350//350
f 350//350 362//362 361//361
f 350//350 349//349 352//352
f 375//375 370//370 376//376
f 392//392 391//391 104//104
f 104//104 74//74 94//94
f 104//104 231//231 392//392
f 228//228 104//104 94//94
f 231//231 104//104 228//228
f 86//86 105//105 5//5
f 5//5 105//105 3//3
f 5//5 85//85 86//86
f 5//5 87//87 85//85
f 90//90 87//87 5//5
f 227//227 221//221 222//222
f 190//190 201//201 202//202
f 231//231 201//201 190//190
f 202//202 188//188 190//190
f 190//190 188//188 244//244
f 190//190 244//244 392//392
f 392//392 231//231 190//190
f 381//381 375//375 376//376
f 380//380 375//375 381//381
f 343//343 310//310 311//311
f 311//311 250//250 343//343
f 287//287 285//285 289//289
f 285//285 291//291 289//289
f 245//245 288//288 246//246
f 316//316 288//288 245//245
f 245//245 315//315 316//316
f 275//275 113//113 287//287
f 342//342 378//378 379//379
f 380//380 308//308 379//379
f 379//379 308//308 342//342
f 306//306 308//308 380//380
f 380//380 381//381 306//306
f 246//246 287//287 305//305
f 305//305 306//306 246//246
f 308//308 306//306 305//305
f 317//317 342//342 307//307
f 342//342 308//308 307//307
f 308//308 305//305 307//307
f 259//259 292//292 322//322
f 387//387 292//292 259//259
f 259//259 388//388 387//387
f 387//387 388//388 395//395
f 25//25 26//26 27//27
f 27//27 26//26 28//28
f 25//25 255//255 258//258
f 258//258 24//24 25//25
f 255//255 24//24 258//258
f 30//30 24//24 284//284
f 283//283 29//29 284//284
f 284//284 24//24 283//283
f 277//277 255//255 256//256
f 277//277 282//282 255//255
f 283//283 255//255 290//290
f 290//290 291//291 283//283
f 290//290 307//307 305//305
f 290//290 289//289 291//291
f 287//287 289//289 290//290
f 290//290 305//305 287//287
f 17//17 28//28 18//18
f 17//17 109//109 28//28
f 18//18 108//108 17//17
f 108//108 109//109 17//17
f 218//218 221//221 225//225
f 225//225 220//220 218//218
f 218//218 222//222 221//221
f 148//148 226//226 300//300
f 226//226 92//92 300//300
f 92//92 64//64 300//300
f 63//63 64//64 92//92
f 88//88 93//93 91//91
f 238//238 237//237 91//91
f 94//94 88//88 91//91
f 91//91 228//228 94//94
f 91//91 237//237 228//228
f 249//249 92//92 301//301
f 249//249 93//93 92//92
f 249//249 301//301 227//227
f 249//249 91//91 93//93
f 88//88 87//87 89//89
f 89//89 93//93 88//88
f 92//92 93//93 89//89
f 89//89 87//87 90//90
f 90//90 63//63 89//89
f 89//89 63//63 92//92
f 177//177 181//181 178//178
f 178//178 173//173 177//177
f 174//174 173//173 178//178
f 178//178 197//197 174//174
f 178//178 198//198 197//197
f 178//178 181//181 198//198
f 349//349 350//350 347//347
f 347//347 350//350 348//348
f 177//177 349//349 179//179
f 179//179 180//180 177//177
f 349//349 347//347 179//179
f 179//179 347//347 180//180
f 2//2 1//1 19//19
f 20//20 2//2 19//19
f 19//19 153//153 20//20
f 158//158 96//96 159//159
f 153//153 19//19 158//158
f 159//159 96//96 97//97
f 59//59 128//128 97//97
f 97//97 128//128 159//159
f 205//205 203//203 194//194
f 205//205 303//303 203//203
f 194//194 196//196 205//205
f 216//216 220//220 133//133
f 138//138 150//150 136//136
f 150//150 134//134 136//136
f 203//203 303//303 304//304
f 195//195 203//203 304//304
f 304//304 134//134 195//195
f 33//33 34//34 15//15
f 33//33 32//32 34//34
f 15//15 9//9 33//33
f 33//33 9//9 29//29
f 43//43 42//42 6//6
f 14//14 12//12 43//43
f 40//40 42//42 43//43
f 6//6 14//14 43//43
f 66//66 65//65 34//34
f 34//34 36//36 66//66
f 66//66 120//120 65//65
f 36//36 120//120 66//66
f 57//57 12//12 95//95
f 95//95 35//35 57//57
f 95//95 12//12 14//14
f 34//34 35//35 95//95
f 95//95 14//14 15//15
f 15//15 34//34 95//95
f 265//265 292//292 383//383
f 383//383 323//323 265//265
f 265//265 323//323 292//292
f 322//322 292//292 324//324
f 292//292 323//323 324//324
f 341//341 298//298 385//385
f 335//335 385//385 336//336
f 385//385 298//298 336//336
f 390//390 389//389 392//392
f 392//392 384//384 390//390
f 393//393 384//384 385//385
f 346//346 348//348 340//340
f 340//340 185//185 346//346
f 335//335 336//336 340//340
f 348//348 360//360 340//340
f 334//334 294//294 335//335
f 329//329 294//294 334//334
f 370//370 375//375 369//369
f 363//363 364//364 369//369
f 369//369 364//364 370//370
f 106//106 74//74 111//111
f 74//74 104//104 111//111
f 111//111 391//391 106//106
f 111//111 104//104 391//391
f 240//240 237//237 238//238
f 241//241 237//237 240//240
f 242//242 201//201 232//232
f 230//230 232//232 231//231
f 231//231 228//228 230//230
f 116//116 130//130 127//127
f 116//116 112//112 130//130
f 344//344 381//381 376//376
f 376//376 377//377 344//344
f 377//377 343//343 344//344
f 343//343 250//250 344//344
f 271//271 272//272 316//316
f 316//316 315//315 271//271
f 114//114 272//272 271//271
f 7//7 16//16 9//9
f 7//7 9//9 45//45
f 7//7 45//45 44//44
f 18//18 16//16 7//7
f 7//7 44//44 14//14
f 8//8 108//108 7//7
f 7//7 108//108 18//18
f 7//7 14//14 6//6
f 113//113 275//275 274//274
f 274//274 272//272 113//113
f 287//287 288//288 274//274
f 274//274 275//275 287//287
f 274//274 288//288 316//316
f 316//316 272//272 274//274
f 325//325 326//326 331//331
f 331//331 323//323 325//325
f 330//330 372//372 378//378
f 330//330 324//324 323//323
f 323//323 331//331 330//330
f 330//330 331//331 372//372
f 330//330 378//378 322//322
f 322//322 324//324 330//330
f 373//373 379//379 378//378
f 378//378 372//372 373//373
f 373//373 372//372 367//367
f 247//247 306//306 381//381
f 247//247 344//344 250//250
f 381//381 344//344 247//247
f 247//247 245//245 246//246
f 246//246 306//306 247//247
f 257//257 281//281 25//25
f 256//256 279//279 278//278
f 256//256 281//281 280//280
f 280//280 279//279 256//256
f 281//281 257//257 280//280
f 382//382 395//395 388//388
f 382//382 109//109 108//108
f 382//382 108//108 107//107
f 25//25 27//27 37//37
f 23//23 29//29 30//30
f 30//30 284//284 23//23
f 23//23 284//284 29//29
f 282//282 277//277 318//318
f 255//255 282//282 276//276
f 276//276 290//290 255//255
f 276//276 282//282 317//317
f 317//317 307//307 276//276
f 307//307 290//290 276//276
f 220//220 206//206 209//209
f 209//209 218//218 220//220
f 197//197 198//198 209//209
f 209//209 206//206 197//197
f 70//70 145//145 71//71
f 70//70 67//67 142//142
f 70//70 71//71 62//62
f 62//62 71//71 60//60
f 71//71 145//145 60//60
f 61//61 70//70 62//62
f 67//67 70//70 61//61
f 142//142 67//67 68//68
f 68//68 141//141 142//142
f 50//50 141//141 68//68
f 80//80 79//79 48//48
f 80//80 67//67 79//79
f 48//48 50//50 80//80
f 82//82 63//63 90//90
f 47//47 83//83 82//82
f 223//223 212//212 224//224
f 224//224 249//249 227//227
f 224//224 212//212 213//213
f 227//227 222//222 224//224
f 224//224 222//222 223//223
f 91//91 249//249 224//224
f 224//224 235//235 91//91
f 346//346 180//180 182//182
f 180//180 347//347 182//182
f 182//182 348//348 346//346
f 182//182 347//347 348//348
f 21//21 19//19 1//1
f 21//21 1//1 6//6
f 22//22 97//97 96//96
f 59//59 97//97 22//22
f 22//22 21//21 6//6
f 6//6 39//39 22//22
f 22//22 54//54 59//59
f 22//22 39//39 41//41
f 41//41 54//54 22//22
f 204//204 205//205 196//196
f 303//303 205//205 204//204
f 217//217 303//303 208//208
f 208//208 206//206 217//217
f 302//302 216//216 133//133
f 133//133 135//135 302//302
f 302//302 135//135 303//303
f 303//303 217//217 302//302
f 302//302 217//217 216//216
f 149//149 135//135 134//134
f 303//303 135//135 149//149
f 149//149 304//304 303//303
f 134//134 304//304 149//149
f 286//286 32//32 31//31
f 32//32 33//33 31//31
f 31//31 29//29 286//286
f 31//31 33//33 29//29
f 13//13 12//12 57//57
f 13//13 43//43 12//12
f 40//40 43//43 13//13
f 65//65 120//120 121//121
f 118//118 286//286 117//117
f 118//118 32//32 286//286
f 385//385 384//384 191//191
f 191//191 341//341 385//385
f 191//191 384//384 244//244
f 244//244 188//188 191//191
f 191//191 188//188 189//189
f 337//337 336//336 298//298
f 337//337 340//340 336//336
f 345//345 185//185 337//337
f 185//185 340//340 337//337
f 383//383 387//387 394//394
f 335//335 340//340 333//333
f 333//333 340//340 360//360
f 333//333 334//334 335//335
f 329//329 334//334 333//333
f 239//239 240//240 238//238
f 238//238 91//91 239//239
f 236//236 237//237 241//241
f 241//241 242//242 236//236
f 228//228 237//237 236//236
f 313//313 247//247 250//250
f 250//250 311//311 312//312
f 311//311 271//271 312//312
f 312//312 313//313 250//250
f 271//271 313//313 312//312
f 269//269 271//271 311//311
f 269//269 311//311 310//310
f 332//332 331//331 326//326
f 332//332 333//333 360//360
f 328//328 329//329 332//332
f 329//329 333//333 332//332
f 380//380 379//379 374//374
f 379//379 373//373 374//374
f 374//374 375//375 380//380
f 374//374 369//369 375//375
f 296//296 260//260 278//278
f 254//254 280//280 257//257
f 254//254 257//257 25//25
f 279//279 280//280 254//254
f 388//388 27//27 386//386
f 386//386 382//382 388//388
f 386//386 28//28 110//110
f 386//386 27//27 28//28
f 110//110 109//109 386//386
f 109//109 382//382 386//386
f 262//262 37//37 261//261
f 264//264 37//37 262//262
f 261//261 260//260 262//262
f 262//262 260//260 264//264
f 322//322 320//320 321//321
f 222//222 218//218 210//210
f 218//218 209//209 210//210
f 211//211 223//223 210//210
f 223//223 222//222 210//210
f 210//210 209//209 198//198
f 199//199 211//211 210//210
f 210//210 198//198 199//199
f 145//145 70//70 143//143
f 148//148 300//300 147//147
f 147//147 300//300 64//64
f 79//79 67//67 84//84
f 67//67 61//61 84//84
f 84//84 61//61 62//62
f 84//84 82//82 83//83
f 62//62 63//63 84//84
f 63//63 82//82 84//84
f 78//78 68//68 67//67
f 67//67 80//80 78//78
f 50//50 68//68 78//78
f 78//78 80//80 50//50
f 53//53 82//82 90//90
f 47//47 82//82 53//53
f 90//90 5//5 53//53
f 53//53 5//5 47//47
f 98//98 158//158 19//19
f 19//19 21//21 98//98
f 98//98 21//21 158//158
f 96//96 158//158 266//266
f 158//158 21//21 266//266
f 266//266 22//22 96//96
f 21//21 22//22 266//266
f 208//208 303//303 207//207
f 303//303 204//204 207//207
f 207//207 204//204 196//196
f 196//196 206//206 207//207
f 207//207 206//206 208//208
f 220//220 216//216 219//219
f 216//216 217//217 219//219
f 219//219 206//206 220//220
f 219//219 217//217 206//206
f 57//57 56//56 58//58
f 58//58 13//13 57//57
f 58//58 56//56 40//40
f 40//40 13//13 58//58
f 123//123 122//122 65//65
f 65//65 121//121 123//123
f 119//119 120//120 36//36
f 32//32 118//118 119//119
f 34//34 32//32 119//119
f 119//119 36//36 34//34
f 298//298 341//341 338//338
f 338//338 337//337 298//298
f 338//338 186//186 345//345
f 345//345 337//337 338//338
f 91//91 235//235 248//248
f 248//248 239//239 91//91
f 248//248 224//224 213//213
f 235//235 224//224 248//248
f 240//240 239//239 248//248
f 241//241 240//240 248//248
f 213//213 201//201 248//248
f 201//201 242//242 248//248
f 248//248 242//242 241//241
f 228//228 236//236 234//234
f 314//314 271//271 315//315
f 314//314 313//313 271//271
f 247//247 313//313 314//314
f 315//315 245//245 314//314
f 245//245 247//247 314//314
f 131//131 112//112 114//114
f 131//131 132//132 112//112
f 114//114 271//271 131//131
f 271//271 132//132 131//131
f 112//112 269//269 270//270
f 270//270 269//269 310//310
f 112//112 132//132 273//273
f 273//273 269//269 112//112
f 273//273 132//132 271//271
f 271//271 269//269 273//273
f 328//328 332//332 327//327
f 327//327 332//332 326//326
f 327//327 326//326 295//295
f 383//383 328//328 327//327
f 327//327 295//295 383//383
f 372//372 331//331 366//366
f 331//331 332//332 366//366
f 367//367 372//372 366//366
f 366//366 332//332 360//360
f 361//361 367//367 366//366
f 366//366 360//360 361//361
f 369//369 374//374 368//368
f 368//368 367//367 362//362
f 368//368 373//373 367//367
f 368//368 374//374 373//373
f 368//368 362//362 363//363
f 363//363 369//369 368//368
f 264//264 260//260 297//297
f 260//260 296//296 297//297
f 279//279 254//254 263//263
f 264//264 297//297 263//263
f 263//263 37//37 264//264
f 263//263 297//297 296//296
f 25//25 37//37 263//263
f 263//263 254//254 25//25
f 263//263 278//278 279//279
f 263//263 296//296 278//278
f 319//319 321//321 320//320
f 318//318 321//321 319//319
f 319//319 320//320 342//342
f 319//319 342//342 317//317
f 317//317 282//282 319//319
f 282//282 318//318 319//319
f 293//293 259//259 322//322
f 322//322 321//321 293//293
f 388//388 259//259 293//293
f 293//293 27//27 388//388
f 293//293 260//260 261//261
f 278//278 260//260 293//293
f 256//256 278//278 293//293
f 293//293 277//277 256//256
f 293//293 318//318 277//277
f 293//293 321//321 318//318
f 144//144 70//70 142//142
f 144//144 143//143 70//70
f 146//146 60//60 145//145
f 146//146 147//147 64//64
f 81//81 83//83 47//47
f 81//81 84//84 83//83
f 47//47 5//5 81//81
f 81//81 5//5 4//4
f 79//79 84//84 81//81
f 4//4 48//48 81//81
f 48//48 79//79 81//81
f 189//189 186//186 339//339
f 186//186 338//338 339//339
f 339//339 338//338 341//341
f 339//339 191//191 189//189
f 341//341 191//191 339//339
f 243//243 236//236 242//242
f 243//243 242//242 232//232
f 232//232 230//230 229//229
f 229//229 234//234 232//232
f 229//229 230//230 228//228
f 228//228 234//234 229//229
f 130//130 112//112 268//268
f 112//112 270//270 268//268
f 267//267 130//130 268//268
f 268//268 270//270 310//310
f 268//268 310//310 161//161
f 161//161 156//156 268//268
f 156//156 267//267 268//268
f 252//252 37//37 27//27
f 27//27 293//293 252//252
f 261//261 37//37 252//252
f 252//252 293//293 261//261
f 62//62 60//60 299//299
f 60//60 146//146 299//299
f 299//299 63//63 62//62
f 64//64 63//63 299//299
f 299//299 146//146 64//64
f 233//233 234//234 236//236
f 236//236 243//243 233//233
f 232//232 234//234 233//233
f 233//233 243//243 232//232
f 154//154 159//159 156//156
f 156//156 157//157 154//154
f 107//107 8//8 3//3
f 3//3 1//1 2//2
f 8//8 1//1 3//3
f 5//5 3//3 2//2
f 5//5 2//2 4//4
f 158//158 159//159 154//154
f 154//154 153//153 158//158
f 7//7 1//1 8//8
f 6//6 1//1 7//7
f 107//107 389//389 382//382
f 395//395 382//382 394//394
f 389//389 390//390 394//394
f 394//394 382//382 389//389
f 387//387 395//395 394//394
f 394//394 390//390 384//384
f 384//384 393//393 394//394
f 394//394 385//385 383//383
f 394//394 393//393 385//385
f 117//117 115//115 119//119
f 114//114 112//112 119//119
f 119//119 113//113 114//114
f 125//125 124//124 119//119
f 127//127 126//126 119//119
f 119//119 126//126 125//125
f 119//119 115//115 113//113
f 124//124 122//122 119//119
f 119//119 118//118 117//117
f 119//119 116//116 127//127
f 112//112 116//116 119//119
f 119//119 121//121 120//120
f 122//122 123//123 119//119
f 119//119 123//123 121//121
f 146//146 139//139 138//138
f 148//148 147//147 146//146
f 142//142 141//141 146//146
f 138//138 136//136 146//146
f 133//133 137//137 146//146
f 146//146 137//137 148//148
f 146//146 141//141 140//140
f 140//140 139//139 146//146
f 146//146 135//135 133//133
f 146//146 136//136 134//134
f 134//134 135//135 146//146
f 145//145 143//143 146//146
f 146//146 144//144 142//142
f 143//143 144//144 146//146

