# https://github.com/mikedh/trimesh
v 0.00000000 0.02988800 -0.06775100
v 0.00146700 0.02985200 -0.06775100
v 0.00147200 0.02996400 0.07069700
v 0.00294100 0.02985500 0.07069700
v 0.00440200 0.02967500 0.07069700
v 0.00585300 0.02942400 0.07069700
v 0.00429650 0.02888494 -0.07015521
v 0.00583100 0.02931400 -0.06775100
v 0.00293000 0.02974400 -0.06775100
v 0.00726200 0.02899200 -0.06775100
v 0.00728900 0.02910100 0.07069700
v 0.00870900 0.02870800 0.07069700
v 0.01010700 0.02824600 0.07069700
v 0.01148727 0.02766697 0.07100091
v 0.01006900 0.02814100 -0.06775100
v 0.01143800 0.02761300 -0.06775100
v 0.00867600 0.02860100 -0.06775100
v 0.01248512 0.02639955 -0.07015515
v 0.01282700 0.02712000 0.07069700
v 0.01414200 0.02645800 0.07069700
v 0.01542300 0.02573200 0.07069700
v 0.01666700 0.02494400 0.07069700
v 0.01536500 0.02563600 -0.06775100
v 0.01660500 0.02485100 -0.06775100
v 0.01408900 0.02635900 -0.06775100
v 0.01780400 0.02400600 -0.06775100
v 0.01787100 0.02409600 0.07069700
v 0.01903200 0.02319000 0.07069700
v 0.02014700 0.02222800 0.07069700
v 0.02121300 0.02121300 0.07069700
v 0.01927113 0.02189992 -0.07027527
v 0.02113400 0.02113400 -0.06775100
v 0.01896100 0.02310300 -0.06775100
v 0.02189992 0.01927113 -0.07027527
v 0.02222800 0.02014700 0.07069700
v 0.02319000 0.01903200 0.07069700
v 0.02409600 0.01787100 0.07069700
v 0.02494400 0.01666700 0.07069700
v 0.02400600 0.01780400 -0.06775100
v 0.02485100 0.01660500 -0.06775100
v 0.02310300 0.01896100 -0.06775100
v 0.02563600 0.01536500 -0.06775100
v 0.02573200 0.01542300 0.07069700
v 0.02645800 0.01414200 0.07069700
v 0.02712000 0.01282700 0.07069700
v 0.02639955 0.01248512 -0.07015515
v 0.02761300 0.01143800 -0.06775100
v 0.02635900 0.01408900 -0.06775100
v 0.02814100 0.01006900 -0.06775100
v 0.02824600 0.01010700 0.07069700
v 0.02870800 0.00870900 0.07069700
v 0.02910100 0.00728900 0.07069700
v 0.02942400 0.00585300 0.07069700
v 0.02899200 0.00726200 -0.06775100
v 0.02931400 0.00583100 -0.06775100
v 0.02860100 0.00867600 -0.06775100
v 0.02967500 0.00440200 0.07069700
v 0.02985500 0.00294100 0.07069700
v 0.02996400 0.00147200 0.07069700
v 0.02988800 -0.00000000 -0.06775100
v 0.02974400 0.00293000 -0.06775100
v 0.02911562 -0.00180264 -0.07027513
v 0.02996400 -0.00147200 0.07069700
v 0.02985500 -0.00294100 0.07069700
v 0.02967500 -0.00440200 0.07069700
v 0.02942400 -0.00585300 0.07069700
v 0.02888494 -0.00429650 -0.07015521
v 0.02931400 -0.00583100 -0.06775100
v 0.02974400 -0.00293000 -0.06775100
v 0.02899200 -0.00726200 -0.06775100
v 0.02910100 -0.00728900 0.07069700
v 0.02870800 -0.00870900 0.07069700
v 0.02824600 -0.01010700 0.07069700
v 0.02766697 -0.01148727 0.07100091
v 0.02814100 -0.01006900 -0.06775100
v 0.02761300 -0.01143800 -0.06775100
v 0.02860100 -0.00867600 -0.06775100
v 0.02639955 -0.01248512 -0.07015515
v 0.02712000 -0.01282700 0.07069700
v 0.02645800 -0.01414200 0.07069700
v 0.02573200 -0.01542300 0.07069700
v 0.02494400 -0.01666700 0.07069700
v 0.02563600 -0.01536500 -0.06775100
v 0.02485100 -0.01660500 -0.06775100
v 0.02635900 -0.01408900 -0.06775100
v 0.02400600 -0.01780400 -0.06775100
v 0.02409600 -0.01787100 0.07069700
v 0.02319000 -0.01903200 0.07069700
v 0.02222800 -0.02014700 0.07069700
v 0.02118166 -0.02118166 0.07100724
v 0.02214500 -0.02007100 -0.06775100
v 0.02113400 -0.02113400 -0.06775100
v 0.02310300 -0.01896100 -0.06775100
v 0.02014700 -0.02222800 0.07069700
v 0.01903200 -0.02319000 0.07069700
v 0.01787100 -0.02409600 0.07069700
v 0.01666700 -0.02494400 0.07069700
v 0.01780400 -0.02400600 -0.06775100
v 0.01660500 -0.02485100 -0.06775100
v 0.01896100 -0.02310300 -0.06775100
v 0.01536500 -0.02563600 -0.06775100
v 0.01542300 -0.02573200 0.07069700
v 0.01414200 -0.02645800 0.07069700
v 0.01282700 -0.02712000 0.07069700
v 0.01148100 -0.02771600 0.07069700
v 0.01248512 -0.02639955 -0.07015515
v 0.01143800 -0.02761300 -0.06775100
v 0.01408900 -0.02635900 -0.06775100
v 0.01006900 -0.02814100 -0.06775100
v 0.01010700 -0.02824600 0.07069700
v 0.00870900 -0.02870800 0.07069700
v 0.00728900 -0.02910100 0.07069700
v 0.00585300 -0.02942400 0.07069700
v 0.00726200 -0.02899200 -0.06775100
v 0.00583100 -0.02931400 -0.06775100
v 0.00867600 -0.02860100 -0.06775100
v 0.00438500 -0.02956400 -0.06775100
v 0.00440200 -0.02967500 0.07069700
v 0.00294100 -0.02985500 0.07069700
v 0.00147200 -0.02996400 0.07069700
v -0.00000000 -0.02995576 0.07100700
v 0.00146700 -0.02985200 -0.06775100
v -0.00000000 -0.02988800 -0.06775100
v 0.00293000 -0.02974400 -0.06775100
v -0.00147200 -0.02996400 0.07069700
v -0.00294100 -0.02985500 0.07069700
v -0.00440200 -0.02967500 0.07069700
v -0.00585300 -0.02942400 0.07069700
v -0.00583100 -0.02931400 -0.06775100
v -0.00293000 -0.02974400 -0.06775100
v -0.00726200 -0.02899200 -0.06775100
v -0.00728900 -0.02910100 0.07069700
v -0.00870900 -0.02870800 0.07069700
v -0.01010700 -0.02824600 0.07069700
v -0.01148100 -0.02771600 0.07069700
v -0.01006900 -0.02814100 -0.06775100
v -0.01143800 -0.02761300 -0.06775100
v -0.00867600 -0.02860100 -0.06775100
v -0.01248512 -0.02639955 -0.07015515
v -0.01282700 -0.02712000 0.07069700
v -0.01414200 -0.02645800 0.07069700
v -0.01542300 -0.02573200 0.07069700
v -0.01666700 -0.02494400 0.07069700
v -0.01536500 -0.02563600 -0.06775100
v -0.01660500 -0.02485100 -0.06775100
v -0.01408900 -0.02635900 -0.06775100
v -0.01780400 -0.02400600 -0.06775100
v -0.01787100 -0.02409600 0.07069700
v -0.01903200 -0.02319000 0.07069700
v -0.02014700 -0.02222800 0.07069700
v -0.01927113 -0.02189992 -0.07027527
v -0.02113400 -0.02113400 -0.06775100
v -0.01896100 -0.02310300 -0.06775100
v -0.02222800 -0.02014700 0.07069700
v -0.02319000 -0.01903200 0.07069700
v -0.02409600 -0.01787100 0.07069700
v -0.02494400 -0.01666700 0.07069700
v -0.02400600 -0.01780400 -0.06775100
v -0.02485100 -0.01660500 -0.06775100
v -0.02310300 -0.01896100 -0.06775100
v -0.02563600 -0.01536500 -0.06775100
v -0.02573200 -0.01542300 0.07069700
v -0.02645800 -0.01414200 0.07069700
v -0.02712000 -0.01282700 0.07069700
v -0.02639955 -0.01248512 -0.07015515
v -0.02761300 -0.01143800 -0.06775100
v -0.02635900 -0.01408900 -0.06775100
v -0.02814100 -0.01006900 -0.06775100
v -0.02824600 -0.01010700 0.07069700
v -0.02870800 -0.00870900 0.07069700
v -0.02910100 -0.00728900 0.07069700
v -0.02819224 -0.00749560 -0.07027503
v -0.02931400 -0.00583100 -0.06775100
v -0.02860100 -0.00867600 -0.06775100
v -0.02956400 -0.00438500 -0.06775100
v -0.02967500 -0.00440200 0.07069700
v -0.02985500 -0.00294100 0.07069700
v -0.02996400 -0.00147200 0.07069700
v -0.02985200 -0.00146700 -0.06775100
v -0.02988800 -0.00000000 -0.06775100
v -0.02974400 -0.00293000 -0.06775100
v -0.02985200 0.00146700 -0.06775100
v -0.02996400 0.00147200 0.07069700
v -0.02985500 0.00294100 0.07069700
v -0.02967500 0.00440200 0.07069700
v -0.02888494 0.00429650 -0.07015521
v -0.02931400 0.00583100 -0.06775100
v -0.02974400 0.00293000 -0.06775100
v -0.02899200 0.00726200 -0.06775100
v -0.02910100 0.00728900 0.07069700
v -0.02870800 0.00870900 0.07069700
v -0.02824600 0.01010700 0.07069700
v -0.02766697 0.01148727 0.07100091
v -0.02814100 0.01006900 -0.06775100
v -0.02761300 0.01143800 -0.06775100
v -0.02860100 0.00867600 -0.06775100
v -0.02712000 0.01282700 0.07069700
v -0.02645800 0.01414200 0.07069700
v -0.02573200 0.01542300 0.07069700
v -0.02494400 0.01666700 0.07069700
v -0.02563600 0.01536500 -0.06775100
v -0.02485100 0.01660500 -0.06775100
v -0.02635900 0.01408900 -0.06775100
v -0.02400600 0.01780400 -0.06775100
v -0.02409600 0.01787100 0.07069700
v -0.02319000 0.01903200 0.07069700
v -0.02222800 0.02014700 0.07069700
v -0.02118166 0.02118166 0.07100724
v -0.02113400 0.02113400 -0.06775100
v -0.02310300 0.01896100 -0.06775100
v -0.02014700 0.02222800 0.07069700
v -0.01903200 0.02319000 0.07069700
v -0.01787100 0.02409600 0.07069700
v -0.01666700 0.02494400 0.07069700
v -0.01780400 0.02400600 -0.06775100
v -0.01660500 0.02485100 -0.06775100
v -0.01896100 0.02310300 -0.06775100
v -0.01536500 0.02563600 -0.06775100
v -0.01542300 0.02573200 0.07069700
v -0.01414200 0.02645800 0.07069700
v -0.01282700 0.02712000 0.07069700
v -0.01277900 0.02701800 -0.06775100
v -0.01143800 0.02761300 -0.06775100
v -0.01408900 0.02635900 -0.06775100
v -0.01006900 0.02814100 -0.06775100
v -0.01010700 0.02824600 0.07069700
v -0.00870900 0.02870800 0.07069700
v -0.00728900 0.02910100 0.07069700
v -0.00749560 0.02819224 -0.07027503
v -0.00583100 0.02931400 -0.06775100
v -0.00867600 0.02860100 -0.06775100
v -0.00438500 0.02956400 -0.06775100
v -0.00440200 0.02967500 0.07069700
v -0.00409137 0.02968461 0.07109436
v -0.00147200 0.02996400 0.07069700
v -0.00293000 0.02974400 -0.06775100
v -0.02795832 0.00637090 -0.07070228
v -0.02718766 0.00911715 -0.07070103
v -0.02623657 0.01086587 -0.07102000
v 0.01754609 0.02268079 -0.07070005
v 0.01592700 0.02383600 -0.07070100
v 0.02027100 0.02027100 -0.07070100
v 0.01927113 -0.02189992 -0.07027527
v 0.01754609 -0.02268079 -0.07070005
v 0.02027100 -0.02027100 -0.07070100
v 0.01525763 -0.02427913 -0.07070163
v -0.02489838 -0.01422438 -0.07070161
v -0.02279819 -0.01722103 -0.07087713
v -0.02648500 -0.01097100 -0.07070100
v -0.00911715 0.02718766 -0.07070103
v -0.01097100 0.02648500 -0.07070100
v -0.00492750 0.02825267 -0.07070002
v 0.02852900 -0.00281000 -0.07070100
v 0.02866800 -0.00000000 -0.07070100
v 0.02811700 -0.00559300 -0.07070100
v -0.00637090 -0.02795832 -0.07070228
v -0.00911715 -0.02718766 -0.07070103
v -0.01097100 -0.02648500 -0.07070100
v -0.02639955 0.01248512 -0.07015515
v -0.02489838 0.01422438 -0.07070161
v 0.02268079 0.01754609 -0.07070005
v 0.02378577 0.01537893 -0.07106374
v 0.01337121 -0.02505295 -0.07101958
v -0.02718766 -0.00911715 -0.07070103
v 0.00212216 0.02859326 -0.07070231
v -0.00000000 0.02866800 -0.07070100
v 0.00559300 0.02811700 -0.07070100
v -0.00281000 0.02852900 -0.07070100
v -0.00180264 0.02911562 -0.07027513
v 0.02724279 -0.00903389 -0.07070408
v -0.01422438 -0.02489838 -0.07070161
v -0.02338244 0.01659853 -0.07070232
v -0.02216000 0.01818600 -0.07070100
v -0.02189992 0.01927113 -0.07027527
v -0.02027100 0.02027100 -0.07070100
v 0.02489838 0.01422438 -0.07070161
v 0.02648500 0.01097100 -0.07070100
v 0.01024460 -0.02663563 -0.07090640
v 0.00832200 -0.02743300 -0.07070100
v 0.00637090 -0.02795832 -0.07070228
v -0.02825267 -0.00492750 -0.07070002
v -0.02852900 -0.00281000 -0.07070100
v -0.02867048 -0.00069817 -0.07070100
v 0.00765434 0.02763184 -0.07070103
v 0.01021339 0.02679456 -0.07070231
v 0.02489838 -0.01422438 -0.07070161
v -0.01659853 -0.02338244 -0.07070232
v -0.01818600 -0.02216000 -0.07070100
v -0.01927551 -0.02089400 -0.07099027
v -0.01927113 0.02189992 -0.07027527
v -0.01818600 0.02216000 -0.07070100
v -0.01659853 0.02338244 -0.07070232
v 0.02718766 0.00911715 -0.07070103
v 0.00362329 -0.02844554 -0.07070003
v 0.00069817 -0.02867048 -0.07070100
v -0.02859326 0.00212216 -0.07070231
v 0.01422438 0.02489838 -0.07070161
v 0.02253817 -0.01778302 -0.07070213
v -0.02189992 -0.01927113 -0.07027527
v -0.01473800 0.02458900 -0.07070100
v -0.01280204 0.02565861 -0.07070166
v 0.02885119 0.00333149 -0.07051924
v 0.02852900 0.00281000 -0.07070100
v 0.02911562 0.00180264 -0.07027513
v -0.00180264 -0.02911562 -0.07027513
v -0.00281000 -0.02852900 -0.07070100
v -0.00429650 -0.02888494 -0.07015521
v 0.02092811 -0.01064545 -0.07238100
v 0.02035676 -0.01219644 -0.07235618
v 0.02167000 -0.01010664 -0.07231395
v 0.01986300 -0.01327200 -0.07231500
v 0.01951700 -0.01304100 -0.07238100
v 0.02168700 -0.00898300 -0.07238100
v -0.02370655 0.00071529 -0.07235785
v -0.02377400 0.00234200 -0.07231500
v -0.02363100 0.00350500 -0.07231500
v -0.02330042 0.00287647 -0.07238100
v -0.02388900 -0.00000000 -0.07231500
v -0.02331352 0.00523128 -0.07231502
v -0.02302200 0.00457900 -0.07238100
v -0.02346966 -0.00068325 -0.07238100
v 0.01918800 -0.01423100 -0.07231500
v 0.01846700 -0.01515500 -0.07231500
v 0.01858022 -0.01435506 -0.07238100
v 0.01727580 -0.01625061 -0.07235784
v 0.01675435 -0.01675435 -0.07235966
v -0.02263103 0.00626745 -0.07238100
v -0.02271453 0.00741433 -0.07231581
v -0.02186517 0.00855707 -0.07238100
v 0.01560212 -0.01810543 -0.07231439
v 0.01542635 -0.01770138 -0.07238100
v 0.01377017 -0.01931121 -0.07235780
v 0.01327200 -0.01986300 -0.07231500
v 0.01304100 -0.01951700 -0.07238100
v -0.02145285 0.01014684 -0.07235613
v -0.02106800 0.01126100 -0.07231500
v -0.02070200 0.01106500 -0.07238100
v -0.02035676 0.01219644 -0.07235618
v -0.01986300 0.01327200 -0.07231500
v -0.01951700 0.01304100 -0.07238100
v 0.01228200 -0.02049000 -0.07231500
v 0.01158211 -0.02042770 -0.07238100
v 0.01014684 -0.02145285 -0.07235613
v 0.00898300 -0.02168700 -0.07238100
v 0.00234200 0.02377400 -0.07231500
v 0.00287647 0.02330042 -0.07238100
v 0.00071529 0.02370655 -0.07235785
v 0.00000000 0.02388900 -0.07231500
v 0.00400229 0.02355620 -0.07231579
v 0.00515170 0.02291022 -0.07238100
v 0.00000000 0.02347300 -0.07238100
v -0.01931121 0.01377017 -0.07235780
v -0.01846700 0.01515500 -0.07231500
v -0.01814500 0.01489100 -0.07238100
v -0.01727580 0.01625061 -0.07235784
v -0.01659800 0.01659800 -0.07238100
v 0.00798874 -0.02230758 -0.07235963
v 0.00688078 -0.02271225 -0.07235612
v 0.00523128 -0.02331352 -0.07231502
v 0.00515170 -0.02291022 -0.07238100
v 0.00580500 0.02317300 -0.07231500
v 0.00688078 0.02271225 -0.07235612
v 0.00804800 0.02249300 -0.07231500
v 0.00970587 0.02184123 -0.07231437
v 0.00855707 0.02186517 -0.07238100
v -0.01648445 0.01729297 -0.07231580
v -0.01515500 0.01846700 -0.07231500
v -0.01542635 0.01770138 -0.07238100
v -0.01377017 0.01931121 -0.07235780
v -0.01327200 0.01986300 -0.07231500
v -0.01304100 0.01951700 -0.07238100
v 0.00293155 -0.02371794 -0.07231504
v 0.00172295 -0.02341895 -0.07238100
v 0.00344400 -0.02321900 -0.07238100
v 0.00055278 -0.02388444 -0.07231580
v 0.00000000 -0.02347300 -0.07238100
v 0.01126100 0.02106800 -0.07231500
v 0.01064545 0.02092811 -0.07238100
v 0.01219644 0.02035676 -0.07235618
v 0.01327200 0.01986300 -0.07231500
v -0.01219644 0.02035676 -0.07235618
v -0.01126100 0.02106800 -0.07231500
v -0.01021400 0.02159600 -0.07231500
v -0.01064545 0.02092811 -0.07238100
v -0.00866681 0.02207783 -0.07235782
v -0.00117200 -0.02386000 -0.07231500
v -0.00172295 -0.02341895 -0.07238100
v -0.00293155 -0.02371794 -0.07231504
v -0.00400732 -0.02313266 -0.07238100
v 0.01471431 0.01883412 -0.07231437
v 0.01489100 0.01814500 -0.07238100
v 0.01361210 0.01913112 -0.07238100
v 0.01648445 0.01729297 -0.07231580
v 0.01610335 0.01708769 -0.07238100
v -0.00741433 0.02271453 -0.07231581
v -0.00734992 0.02229754 -0.07238100
v -0.00533007 0.02311088 -0.07235784
v -0.00463817 0.02323616 -0.07235964
v -0.00693500 -0.02286100 -0.07231500
v -0.00492778 -0.02319404 -0.07236122
v -0.00754302 -0.02246708 -0.07236007
v -0.00790800 -0.02210100 -0.07238100
v 0.01770100 0.01604300 -0.07231500
v 0.01883412 0.01471431 -0.07231437
v 0.01770138 0.01542635 -0.07238100
v 0.01885400 0.01398300 -0.07238100
v 0.01970759 0.01315432 -0.07235965
v -0.00350500 0.02363100 -0.07231500
v -0.00187292 0.02364368 -0.07235782
v -0.00344400 0.02321900 -0.07238100
v -0.00071529 0.02370655 -0.07235785
v -0.00970587 -0.02184123 -0.07231437
v -0.01186683 -0.02074262 -0.07231439
v -0.01064545 -0.02092811 -0.07238100
v -0.01254769 -0.01984325 -0.07238100
v -0.01297269 -0.01988484 -0.07234944
v 0.02106800 0.01126100 -0.07231500
v 0.02042770 0.01158211 -0.07238100
v 0.02159600 0.01021400 -0.07231500
v 0.02122000 0.01003600 -0.07238100
v 0.02207783 0.00866681 -0.07235782
v -0.01471431 -0.01883412 -0.07231437
v -0.01489100 -0.01814500 -0.07238100
v -0.01689200 -0.01689200 -0.07231500
v -0.01610334 -0.01708769 -0.07238100
v 0.02271453 0.00741433 -0.07231581
v 0.02263103 0.00626745 -0.07238100
v 0.02210100 0.00790800 -0.07238100
v 0.02331352 0.00523128 -0.07231502
v 0.02313266 0.00400732 -0.07238100
v -0.01810543 -0.01560212 -0.07231439
v -0.01814500 -0.01489100 -0.07238100
v -0.01739300 -0.01576400 -0.07238100
v -0.01996380 -0.01277073 -0.07236011
v -0.01951700 -0.01304100 -0.07238100
v 0.02371794 0.00293155 -0.07231504
v 0.02341895 0.00172295 -0.07238100
v 0.02386000 0.00117200 -0.07231500
v 0.02347300 -0.00000000 -0.07238100
v -0.02049000 -0.01228200 -0.07231500
v -0.02106800 -0.01126100 -0.07231500
v -0.02042770 -0.01158211 -0.07238100
v -0.02145285 -0.01014684 -0.07235613
v -0.02207100 -0.00914200 -0.07231500
v -0.02168700 -0.00898300 -0.07238100
v 0.02388444 -0.00055278 -0.07231580
v 0.02341895 -0.00172295 -0.07238100
v 0.02371794 -0.00293155 -0.07231504
v 0.02321900 -0.00344400 -0.07238100
v 0.02291022 -0.00515170 -0.07238100
v -0.02230758 -0.00798874 -0.07235963
v -0.02303372 -0.00638702 -0.07231357
v -0.02263103 -0.00626745 -0.07238100
v -0.02323616 -0.00463817 -0.07235964
v 0.02331352 -0.00523128 -0.07231502
v 0.02261787 -0.00716130 -0.07235766
v -0.02371794 -0.00293155 -0.07231504
v -0.02330042 -0.00287647 -0.07238100
v -0.02386000 -0.00117200 -0.07231500
v -0.02118166 -0.02118166 0.07100724
v -0.01993448 -0.01719764 0.07667078
v -0.02159917 -0.01514992 0.07659050
v -0.02599300 -0.00256000 0.07694800
v -0.02570600 -0.00253200 0.07704000
v -0.02582042 -0.00362189 0.07698505
v -0.02995576 -0.00000000 0.07100700
v -0.02632600 -0.00129300 0.07661400
v -0.02609150 -0.00046040 0.07697477
v -0.02617936 -0.00326250 0.07659086
v -0.02546486 -0.00572532 0.07697477
v -0.02583100 -0.00000000 0.07704000
v 0.02607200 0.00386700 0.07661400
v 0.02610121 0.00128133 0.07694099
v 0.02995576 -0.00000000 0.07100700
v -0.02260800 -0.01355100 0.07661400
v -0.02356243 -0.01178245 0.07664307
v -0.02766697 -0.01148727 0.07100091
v 0.02627230 -0.00199459 0.07664228
v 0.02597148 -0.00451270 0.07661610
v -0.02503609 -0.00827139 0.07661559
v -0.02905457 -0.00725461 0.07114333
v 0.02540648 -0.00697931 0.07664264
v 0.02461148 -0.00880614 0.07693881
v 0.02356243 -0.01178245 0.07664307
v 0.02227627 -0.01410680 0.07661583
v -0.02632600 0.00129300 0.07661400
v -0.02617936 0.00326250 0.07659086
v -0.02938303 0.00583925 0.07100051
v 0.02078053 -0.01621927 0.07661641
v 0.01953000 -0.01770100 0.07661400
v -0.02556800 0.00640400 0.07661400
v -0.02503609 0.00827139 0.07661559
v 0.01719764 -0.01993448 0.07667078
v 0.01570100 -0.02117100 0.07661400
v 0.01410680 -0.02227627 0.07661583
v -0.02356243 0.01178245 0.07664307
v -0.02265997 0.01302336 0.07694687
v -0.02159917 0.01514992 0.07659050
v 0.01178245 -0.02356243 0.07664307
v 0.00949584 -0.02463218 0.07656304
v 0.00000000 0.02995576 0.07100700
v 0.00199459 0.02627230 0.07664228
v 0.00451270 0.02597148 0.07661610
v -0.01993448 0.01719764 0.07667078
v 0.00697931 -0.02540648 0.07664264
v 0.00514200 -0.02585100 0.07661400
v 0.00697931 0.02540648 0.07664264
v 0.00888000 0.02481700 0.07661400
v -0.01719764 0.01993448 0.07667078
v -0.01514992 0.02159917 0.07659050
v 0.00326250 -0.02617936 0.07659086
v 0.01178245 0.02356243 0.07664307
v 0.01410680 0.02227627 0.07661583
v -0.01355100 0.02260800 0.07661400
v -0.01178245 0.02356243 0.07664307
v -0.01148727 0.02766697 0.07100091
v -0.00199459 -0.02627230 0.07664228
v -0.00451270 -0.02597148 0.07661610
v 0.01672100 0.02037500 0.07661400
v 0.01816062 0.01913773 0.07659008
v -0.00697931 0.02540648 0.07664264
v -0.00583925 0.02938303 0.07100051
v -0.00697931 -0.02540648 0.07664264
v -0.00949584 -0.02463218 0.07656304
v 0.01953000 0.01770100 0.07661400
v 0.02078053 0.01621927 0.07661641
v 0.02227627 0.01410680 0.07661583
v -0.00386700 0.02607200 0.07661400
v -0.00129300 0.02632600 0.07661400
v -0.01126900 -0.02382700 0.07661400
v -0.01300269 -0.02293106 0.07661632
v -0.01514992 -0.02159917 0.07659050
v 0.02356243 0.01178245 0.07664307
v 0.02766697 0.01148727 0.07100091
v -0.01770100 -0.01953000 0.07661400
v 0.02503609 0.00827139 0.07661559
v 0.02571974 0.00577728 0.07661679
v 0.02226132 -0.01357700 0.07698415
v 0.02300158 -0.01229329 0.07698272
v 0.02361100 -0.01116700 0.07694800
v 0.02171700 -0.01451100 0.07694800
v 0.02413176 -0.00989120 0.07698336
v 0.02386500 -0.00988500 0.07704000
v 0.02147800 -0.01435100 0.07704000
v -0.02599300 0.00256000 0.07694800
v -0.02570600 0.00253200 0.07704000
v -0.02581224 0.00354524 0.07700045
v -0.02601921 0.00129022 0.07699621
v -0.02557826 0.00508619 0.07698393
v 0.01979588 -0.01704467 0.07694922
v 0.01996700 -0.01638700 0.07704000
v 0.01913900 -0.01734700 0.07704000
v 0.02094801 -0.01553732 0.07698235
v 0.01843744 -0.01843474 0.07699034
v -0.02459200 0.00879900 0.07694800
v -0.02499400 0.00758200 0.07694800
v -0.02490400 0.00689645 0.07703994
v -0.02404862 0.01008833 0.07698442
v -0.02533600 0.00634600 0.07694800
v 0.01555900 -0.02097900 0.07694800
v 0.01671465 -0.02001361 0.07698460
v 0.01696202 -0.01949007 0.07704005
v 0.01754000 -0.01935300 0.07694800
v -0.02240300 0.01342800 0.07694800
v -0.02248184 0.01272968 0.07704009
v -0.02361100 0.01116700 0.07694800
v -0.02357951 0.01056478 0.07704003
v -0.02171700 0.01451100 0.07694800
v 0.01116700 -0.02361100 0.07694800
v 0.01231200 -0.02303500 0.07694800
v 0.01217700 -0.02278100 0.07704000
v 0.01395658 -0.02208206 0.07694924
v 0.01391936 -0.02176837 0.07704006
v 0.01002297 -0.02408017 0.07698131
v 0.01056316 -0.02358014 0.07704006
v 0.00448429 0.02574182 0.07694710
v 0.00233845 0.02596747 0.07698554
v 0.00379000 0.02555100 0.07704000
v -0.00045125 0.02586491 0.07704010
v 0.00051617 0.02612087 0.07694801
v -0.02019000 0.01657000 0.07694800
v -0.01948932 0.01696298 0.07704003
v -0.02097900 0.01555900 0.07694800
v -0.02112917 0.01487730 0.07703994
v -0.01883831 0.01810231 0.07694801
v 0.00634600 -0.02533600 0.07694800
v 0.00756752 -0.02494767 0.07698364
v 0.00879900 -0.02459200 0.07694800
v 0.00509600 -0.02561700 0.07694800
v 0.00554556 -0.02523596 0.07704007
v 0.00697018 0.02517630 0.07694802
v 0.00749800 0.02471900 0.07704000
v 0.00857830 0.02462085 0.07698558
v 0.00554400 0.02523641 0.07704003
v -0.01555900 0.02097900 0.07694800
v -0.01689223 0.01958252 0.07704023
v -0.01704467 0.01979588 0.07694922
v -0.01448048 0.02167124 0.07698736
v 0.00128133 -0.02610121 0.07694099
v 0.00256000 -0.02599300 0.07694800
v 0.00316464 -0.02563984 0.07704020
v 0.00126700 -0.02580000 0.07704000
v 0.00383200 -0.02583600 0.07694800
v 0.00000000 -0.02611900 0.07694800
v 0.01342800 0.02240300 0.07694800
v 0.01184201 0.02328871 0.07694707
v 0.01217700 0.02278100 0.07704000
v 0.00972237 0.02417685 0.07699864
v 0.01451100 0.02171700 0.07694800
v 0.01392069 0.02176762 0.07704003
v -0.01116700 0.02361100 0.07694800
v -0.01272928 0.02248190 0.07704014
v -0.01104400 0.02335100 0.07704000
v -0.01288091 0.02273353 0.07694802
v -0.00915111 0.02448691 0.07694449
v -0.00988500 0.02386500 0.07704000
v -0.00383200 -0.02583600 0.07694800
v -0.00194923 -0.02604959 0.07694926
v -0.00316464 -0.02563984 0.07704020
v -0.00074607 -0.02582713 0.07704010
v -0.00508701 -0.02558289 0.07698040
v 0.01754000 0.01935300 0.07694800
v 0.01657000 0.02019000 0.07694800
v 0.01638700 0.01996700 0.07704000
v 0.01564425 0.02093649 0.07694084
v 0.01538700 0.02074800 0.07704000
v 0.01846900 0.01846900 0.07694800
v 0.01773621 0.01878856 0.07704003
v -0.00697018 0.02517630 0.07694802
v -0.00749800 0.02471900 0.07704000
v -0.00857830 0.02462085 0.07698558
v -0.00509600 0.02561700 0.07694800
v -0.00554400 0.02523641 0.07704003
v -0.00879900 -0.02459200 0.07694800
v -0.00697018 -0.02517630 0.07694802
v -0.00689643 -0.02490423 0.07703987
v -0.01047585 -0.02393375 0.07694803
v -0.00930576 -0.02410095 0.07704019
v 0.02097900 0.01555900 0.07694800
v 0.02019000 0.01657000 0.07694800
v 0.01931393 0.01748278 0.07699621
v 0.02171700 0.01451100 0.07694800
v -0.00128200 0.02608700 0.07694800
v -0.00309828 0.02594075 0.07694922
v -0.00379000 0.02555100 0.07704000
v -0.01342800 -0.02240300 0.07694800
v -0.01229370 -0.02300400 0.07698098
v -0.01328000 -0.02215600 0.07704000
v -0.01104400 -0.02335100 0.07704000
v -0.01448243 -0.02167594 0.07698450
v 0.02285217 0.01252257 0.07699868
v 0.02235937 0.01341216 0.07698492
v 0.02215600 0.01328000 0.07704000
v 0.02393375 0.01047585 0.07694803
v 0.02386500 0.00988500 0.07704000
v -0.01754000 -0.01935300 0.07694800
v -0.01657754 -0.02020038 0.07694269
v -0.01588971 -0.02037056 0.07704016
v -0.01555900 -0.02097900 0.07694800
v -0.01773673 -0.01878781 0.07704009
v 0.02533600 0.00634600 0.07694800
v 0.02499400 0.00758200 0.07694800
v 0.02481754 0.00649218 0.07709743
v 0.02563289 0.00475122 0.07699725
v 0.02459200 0.00879900 0.07694800
v 0.02432100 0.00870200 0.07704000
v -0.02094801 -0.01553732 0.07698235
v -0.02003188 -0.01669300 0.07698369
v -0.01883831 -0.01810231 0.07694801
v -0.01913900 -0.01734700 0.07704000
v -0.02171700 -0.01451100 0.07694800
v -0.02147800 -0.01435100 0.07704000
v 0.02601275 0.00256513 0.07693964
v 0.02570600 0.00253200 0.07704000
v 0.02583600 0.00383200 0.07694800
v 0.02547425 0.00431934 0.07704006
v 0.02611900 -0.00000000 0.07694800
v 0.02582742 0.00074789 0.07703998
v -0.02361100 -0.01116700 0.07694800
v -0.02300158 -0.01229329 0.07698272
v -0.02226132 -0.01357700 0.07698415
v -0.02413176 -0.00989120 0.07698336
v -0.02386500 -0.00988500 0.07704000
v 0.02583600 -0.00383200 0.07694800
v 0.02604959 -0.00194923 0.07694926
v 0.02570600 -0.00253200 0.07704000
v 0.02580000 -0.00126700 0.07704000
v 0.02547430 -0.00431953 0.07704004
v -0.02494255 -0.00756701 0.07698656
v -0.02505700 -0.00627600 0.07704000
v -0.02461918 -0.00858722 0.07698466
v 0.02499400 -0.00758200 0.07694800
v 0.02453907 -0.00809967 0.07703993
v 0.02549389 -0.00572905 0.07694703
v 0.02505700 -0.00627600 0.07704000
v 0.00511200 -0.00300900 0.07760000
v -0.00393400 0.00269900 0.07760300
v -0.00132894 0.00353674 0.07761463
v 0.00363776 -0.01341592 0.07760100
v 0.00194974 -0.01456762 0.07760100
v 0.00454941 -0.01257152 0.07760105
v 0.00205100 -0.01513700 0.07760000
v 0.00395421 0.00141837 0.07760200
v 0.02206541 0.01336474 0.07710272
v 0.00236300 0.00309500 0.07761000
v -0.00363776 -0.01341592 0.07760100
v -0.00194989 -0.01456746 0.07760100
v -0.00205100 -0.01513700 0.07760000
v -0.00454941 -0.01257152 0.07760105
v -0.00049300 0.00368500 0.07761800
v -0.00000000 0.00372100 0.07761900
v 0.00442422 0.00018877 0.07760102
v -0.00457592 -0.00068612 0.07760098
v 0.00518972 -0.01074933 0.07760104
v 0.00514800 -0.01124800 0.07760100
v -0.00518200 -0.01016300 0.07760100
v -0.00519100 -0.01075100 0.07760100
v -0.00514800 -0.01124800 0.07760100
v 0.00486000 -0.01211500 0.07760100
v 0.00504100 -0.01169600 0.07760100
v 0.00167436 0.00345611 0.07761317
v 0.00049300 0.00368500 0.07761800
v -0.00486000 -0.01211500 0.07760100
v -0.00504100 -0.01169600 0.07760100
vn -0.13445723 0.98091079 -0.14048232
vn 0.04753031 0.97979792 -0.19425992
vn 0.05822859 0.96604946 0.25170988
vn 0.09506101 0.95790654 0.27088459
vn 0.14043875 0.95227886 0.27100172
vn 0.18821356 0.94399661 0.27100931
vn 0.12806690 0.80894481 -0.57376578
vn 0.03045397 0.99015097 -0.13665145
vn 0.25602651 0.95749391 -0.13287528
vn 0.23783106 0.95168159 -0.19426411
vn 0.23350963 0.93385491 0.27090267
vn 0.27980768 0.92115018 0.27053652
vn 0.31652584 0.91391143 0.25412063
vn 0.36421792 0.87956022 0.30613578
vn 0.32911367 0.92400638 -0.19466998
vn 0.52423401 0.84128989 -0.13194705
vn 0.28573218 0.93824404 -0.19507753
vn 0.34474440 0.73457327 -0.58442571
vn 0.42339701 0.87015142 0.25213385
vn 0.45429133 0.84861916 0.27104411
vn 0.49448756 0.82592334 0.27080008
vn 0.53540250 0.80000801 0.27079761
vn 0.50540009 0.84062962 -0.19471158
vn 0.54485954 0.81533709 -0.19584054
vn 0.31801395 0.93884947 -0.13201816
vn 0.58339708 0.78852127 -0.19463313
vn 0.57333452 0.77290968 0.27184217
vn 0.61046653 0.74400958 0.27162540
vn 0.64609469 0.71363675 0.27071060
vn 0.68115054 0.68019428 0.27086839
vn 0.52386177 0.60402392 -0.60060299
vn 0.70449239 0.70449239 -0.08591235
vn 0.79526340 0.59311004 -0.12560496
vn 0.60583311 0.52375108 -0.59887482
vn 0.71292360 0.64666078 0.27123748
vn 0.74399333 0.61093979 0.27060394
vn 0.77345875 0.57299675 0.27099131
vn 0.80000801 0.53540250 0.27079761
vn 0.78852127 0.58339708 -0.19463313
vn 0.81400319 0.54371113 -0.20439426
vn 0.59311004 0.79526340 -0.12560496
vn 0.84062962 0.50540009 -0.19471158
vn 0.82592334 0.49448756 0.27080008
vn 0.84861916 0.45429133 0.27104411
vn 0.87015142 0.42339701 0.25213385
vn 0.74225764 0.34512043 -0.57440882
vn 0.84096430 0.52335992 -0.13738063
vn 0.93884947 0.31801395 -0.13201816
vn 0.92313332 0.33159261 -0.19460529
vn 0.91446771 0.31637338 0.25230276
vn 0.92134674 0.27888916 0.27081547
vn 0.93355770 0.23456070 0.27101899
vn 0.94425100 0.18748587 0.27062722
vn 0.94986660 0.24474470 -0.19455972
vn 0.98961359 0.06415338 -0.12864406
vn 0.93905717 0.28224138 -0.19624330
vn 0.95215910 0.14059319 0.27134221
vn 0.95767494 0.09446512 0.27191001
vn 0.96531698 0.05780641 0.25460078
vn 0.99643250 -0.00000000 -0.08439356
vn 0.95015818 0.30611004 -0.05912759
vn 0.80369730 -0.07729095 -0.58999726
vn 0.96605380 -0.05822887 0.25169317
vn 0.95790654 -0.09506101 0.27088459
vn 0.95227886 -0.14043875 0.27100172
vn 0.94399661 -0.18821356 0.27100931
vn 0.81727119 -0.11867430 -0.56390089
vn 0.99015097 -0.03045397 -0.13665145
vn 0.99705676 -0.03082977 -0.07019499
vn 0.95122110 -0.23817841 -0.19608537
vn 0.93385491 -0.23350963 0.27090267
vn 0.92091973 -0.28009892 0.27101929
vn 0.91370346 -0.31635079 0.25508463
vn 0.87963342 -0.36375232 0.30647889
vn 0.92370180 -0.33202928 -0.19113224
vn 0.84178082 -0.52450414 -0.12767322
vn 0.93977053 -0.28317831 -0.19141944
vn 0.72943922 -0.34313247 -0.59175885
vn 0.87015142 -0.42339701 0.25213385
vn 0.84861916 -0.45429133 0.27104411
vn 0.82592334 -0.49448756 0.27080008
vn 0.80000801 -0.53540250 0.27079761
vn 0.84062962 -0.50540009 -0.19471158
vn 0.81544373 -0.54397885 -0.19783463
vn 0.93884947 -0.31801395 -0.13201816
vn 0.78945252 -0.58333718 -0.19100380
vn 0.77345875 -0.57299675 0.27099131
vn 0.74399333 -0.61093979 0.27060394
vn 0.72350639 -0.64209686 0.25347610
vn 0.67381970 -0.67225344 0.30666320
vn 0.72337482 -0.66074053 -0.20037668
vn 0.60379717 -0.78407152 -0.14373877
vn 0.75808480 -0.62396406 -0.18967415
vn 0.64208408 -0.72406392 0.25191165
vn 0.61055464 -0.74430742 0.27060951
vn 0.57316560 -0.77325570 0.27121360
vn 0.53540250 -0.80000801 0.27079761
vn 0.58339708 -0.78852127 -0.19463313
vn 0.54608992 -0.81471783 -0.19498887
vn 0.79526340 -0.59311004 -0.12560496
vn 0.50308372 -0.84201798 -0.19471128
vn 0.49448756 -0.82592334 0.27080008
vn 0.45429133 -0.84861916 0.27104411
vn 0.41094603 -0.87045032 0.27099742
vn 0.36879183 -0.88917878 0.27083886
vn 0.37258982 -0.74463251 -0.55380435
vn 0.52228053 -0.84170149 -0.13697318
vn 0.31774904 -0.93721790 -0.14372945
vn 0.32855539 -0.92265636 -0.20188266
vn 0.32375057 -0.90655541 0.27081885
vn 0.28003666 -0.92096650 0.27092465
vn 0.23350963 -0.93385491 0.27090267
vn 0.18771861 -0.94395101 0.27151100
vn 0.23976267 -0.95110374 -0.19471914
vn 0.18995180 -0.96223720 -0.19498176
vn 0.28642250 -0.93736686 -0.19825621
vn 0.14509584 -0.97008012 -0.19465804
vn 0.14153302 -0.95218130 0.27077513
vn 0.09383988 -0.95802811 0.27088046
vn 0.05776722 -0.96532542 0.25457766
vn 0.00185963 -0.95170677 0.30700286
vn 0.04974435 -0.97960684 -0.19466877
vn -0.13480676 -0.98147543 -0.13613642
vn 0.09490620 -0.97616035 -0.19520190
vn -0.05822887 -0.96605380 0.25169317
vn -0.09506101 -0.95790654 0.27088459
vn -0.14043875 -0.95227886 0.27100172
vn -0.18821356 -0.94399661 0.27100931
vn -0.03035459 -0.99079939 -0.13189072
vn -0.03082977 -0.99705676 -0.07019499
vn -0.23976267 -0.95110374 -0.19471914
vn -0.23350963 -0.93385491 0.27090267
vn -0.28003666 -0.92096650 0.27092465
vn -0.32375057 -0.90655541 0.27081885
vn -0.36879183 -0.88917878 0.27083886
vn -0.33159261 -0.92313332 -0.19460529
vn -0.52335984 -0.84096417 -0.13738173
vn -0.28324099 -0.93899350 -0.19510447
vn -0.34235333 -0.74302433 -0.57507307
vn -0.41114687 -0.87028056 0.27123791
vn -0.45367322 -0.84907577 0.27064911
vn -0.49540857 -0.82532596 0.27093802
vn -0.53440372 -0.80069913 0.27072785
vn -0.50540009 -0.84062962 -0.19471158
vn -0.54383647 -0.81620894 -0.19505091
vn -0.31801395 -0.93884947 -0.13201816
vn -0.58551477 -0.78694170 -0.19466692
vn -0.57397486 -0.77276883 0.27088963
vn -0.61034757 -0.74416724 0.27146078
vn -0.64209975 -0.72350967 0.25345940
vn -0.55768547 -0.62577980 -0.54533161
vn -0.70224423 -0.70586457 -0.09278067
vn -0.79427304 -0.59309730 -0.13177987
vn -0.72406392 -0.64208408 0.25191165
vn -0.74441157 -0.61023014 0.27105458
vn -0.77276883 -0.57397486 0.27088963
vn -0.80069913 -0.53440372 0.27072785
vn -0.78753160 -0.58362424 -0.19793113
vn -0.81435773 -0.54493974 -0.19965510
vn -0.59405141 -0.79434102 -0.12698530
vn -0.84062962 -0.50540009 -0.19471158
vn -0.82540089 -0.49516321 0.27115820
vn -0.84884182 -0.45410701 0.27065549
vn -0.87015142 -0.42339701 0.25213385
vn -0.74152808 -0.34487682 -0.57549639
vn -0.84096430 -0.52335992 -0.13738063
vn -0.93884947 -0.31801395 -0.13201816
vn -0.92313332 -0.33159261 -0.19460529
vn -0.91446771 -0.31637338 0.25230276
vn -0.92134674 -0.27888916 0.27081547
vn -0.96337812 0.21895460 0.15479495
vn -0.77202671 -0.21307834 -0.59880913
vn -0.93750756 -0.31991318 -0.13687631
vn -0.99066196 -0.05289455 -0.12566242
vn -0.97049350 -0.14222097 -0.19471920
vn -0.95571919 -0.14360246 0.25686411
vn -0.95802811 -0.09383988 0.27088046
vn -0.96549105 -0.05808906 0.25387534
vn -0.97960684 -0.04974435 -0.19466877
vn -0.98087900 0.00156610 -0.19461229
vn -0.97585272 -0.09633271 -0.19603947
vn -0.97963990 0.04685676 -0.19521812
vn -0.96549105 0.05808906 0.25387534
vn -0.95802811 0.09383988 0.27088046
vn -0.95879896 0.13118274 0.25198343
vn -0.80343371 0.11909949 -0.58336059
vn -0.99079954 0.03035460 -0.13188963
vn -0.95749391 0.25602651 -0.13287528
vn -0.95110374 0.23976267 -0.19471914
vn -0.93552245 0.24524944 0.25426454
vn -0.92134674 0.27888916 0.27081547
vn -0.91446771 0.31637338 0.25230276
vn -0.87943728 0.36545300 0.30501504
vn -0.92313332 0.33159261 -0.19460529
vn -0.84005129 0.52317684 -0.14352642
vn -0.93899350 0.28324099 -0.19510447
vn -0.87015142 0.42339701 0.25213385
vn -0.84869228 0.45424024 0.27090076
vn -0.82538576 0.49494639 0.27159975
vn -0.80069913 0.53440372 0.27072785
vn -0.84062962 0.50540009 -0.19471158
vn -0.81620894 0.54383647 -0.19505091
vn -0.93884947 0.31801395 -0.13201816
vn -0.78694170 0.58551477 -0.19466692
vn -0.77276883 0.57397486 0.27088963
vn -0.74441157 0.61023014 0.27105458
vn -0.72406392 0.64208408 0.25191165
vn -0.67328244 0.67329951 0.30554628
vn -0.70449247 0.70449247 -0.08591117
vn -0.59309730 0.79427304 -0.13177987
vn -0.64208408 0.72406392 0.25191165
vn -0.61023014 0.74441157 0.27105458
vn -0.57397486 0.77276883 0.27088963
vn -0.53440372 0.80069913 0.27072785
vn -0.58551477 0.78694170 -0.19466692
vn -0.54443201 0.81602475 -0.19415817
vn -0.79427304 0.59309730 -0.13177987
vn -0.50424944 0.84132493 -0.19469169
vn -0.49516321 0.82540089 0.27115820
vn -0.45410701 0.84884182 0.27065549
vn -0.42339519 0.87014769 0.25214978
vn -0.41821268 0.88723626 -0.19470485
vn -0.37544691 0.90591819 -0.19583629
vn -0.46303664 0.86480990 -0.19416722
vn -0.33159261 0.92313332 -0.19460529
vn -0.31648254 0.91344519 0.25584504
vn -0.28020148 0.92083929 0.27118653
vn -0.24543312 0.93600732 0.25229524
vn -0.21226740 0.76750204 -0.60488277
vn -0.31991313 0.93750741 -0.13687747
vn -0.05289455 0.99066196 -0.12566242
vn -0.14222097 0.97049350 -0.19471920
vn -0.16269029 0.97074950 0.17657087
vn -0.28388909 0.89405709 0.34650960
vn -0.05509377 0.96900284 0.24082811
vn 0.13040910 0.98257484 -0.13243922
vn -0.65466794 0.14076494 -0.74269450
vn -0.67224014 0.20825428 -0.71043885
vn -0.52534629 0.28165676 -0.80292014
vn 0.41053318 0.51847191 -0.75009958
vn 0.38161151 0.57149202 -0.72647747
vn 0.44210582 0.44709469 -0.77759166
vn 0.52736608 -0.60775538 -0.59373262
vn 0.40539937 -0.52834315 -0.74599254
vn 0.47603445 -0.46034911 -0.74931295
vn 0.38501811 -0.58562775 -0.71330302
vn -0.59111484 -0.32295911 -0.73910802
vn -0.51687884 -0.39712371 -0.75837261
vn -0.59022738 -0.27158610 -0.76017934
vn -0.20400510 0.62924475 -0.74995531
vn -0.26270336 0.63486755 -0.72658801
vn -0.11532776 0.66189334 -0.74067315
vn 0.57723398 -0.05380604 -0.81480418
vn 0.62686751 -0.00379622 -0.77911663
vn 0.64333887 -0.11495153 -0.75690240
vn -0.14383234 -0.65533206 -0.74152016
vn -0.21662571 -0.65321433 -0.72552349
vn -0.27535465 -0.58477423 -0.76303271
vn -0.75342128 0.33983194 -0.56291263
vn -0.58534847 0.32419970 -0.74314313
vn 0.52538670 0.42491507 -0.73716756
vn 0.51739632 0.33347700 -0.78809526
vn 0.22708813 -0.54900418 -0.80437889
vn -0.63169421 -0.21170160 -0.74575121
vn 0.05769471 0.66602639 -0.74369360
vn -0.00047339 0.65588500 -0.75486068
vn 0.09683886 0.63938157 -0.76276696
vn -0.04570242 0.63417770 -0.77183543
vn -0.07463935 0.80683470 -0.58604328
vn 0.64701690 -0.21991933 -0.73007165
vn -0.32833578 -0.58557108 -0.74114919
vn -0.56246693 0.39612369 -0.72575269
vn -0.46973771 0.41965951 -0.77668036
vn -0.62801876 0.51163191 -0.58636612
vn -0.44280836 0.44287394 -0.77960466
vn 0.61398070 0.32249509 -0.72043363
vn 0.59102039 0.27025590 -0.76003727
vn 0.24510708 -0.59158191 -0.76808422
vn 0.19255913 -0.67091945 -0.71609222
vn 0.15086976 -0.67114771 -0.72580925
vn -0.66494207 -0.11183988 -0.73847402
vn -0.68422280 -0.06725561 -0.72616517
vn -0.68842839 -0.01459841 -0.72515739
vn 0.18576288 0.66205120 -0.72607187
vn 0.24844189 0.62021437 -0.74405024
vn 0.58317135 -0.32997343 -0.74231308
vn -0.39628146 -0.56270682 -0.72548056
vn -0.42367784 -0.45672202 -0.78224170
vn -0.33804839 -0.46732622 -0.81690238
vn -0.51169557 0.62807443 -0.58625092
vn -0.41965951 0.46973771 -0.77668036
vn -0.39747916 0.56109159 -0.72607613
vn 0.65342613 0.20798431 -0.72785769
vn 0.08663116 -0.68306896 -0.72519779
vn 0.02127955 -0.67287136 -0.73945339
vn -0.66492726 0.05811380 -0.74464389
vn 0.32634764 0.58631123 -0.74144208
vn 0.54409890 -0.42731206 -0.72205318
vn -0.60804612 -0.53294226 -0.58843220
vn -0.35270923 0.58856412 -0.72745342
vn -0.30780180 0.61515206 -0.72584158
vn 0.79130116 -0.03272244 -0.61055034
vn 0.55319148 -0.04265076 -0.83196160
vn 0.80493174 0.07868301 -0.58812743
vn -0.08156527 -0.80106940 -0.59298813
vn -0.05380604 -0.57723398 -0.81480418
vn -0.11233442 -0.81035427 -0.57507125
vn 0.06759672 -0.03488919 -0.99710252
vn 0.14637726 -0.08924295 -0.98519510
vn 0.22733209 -0.10441677 -0.96820311
vn 0.20707800 -0.13591231 -0.96883773
vn 0.05808376 -0.03043858 -0.99784757
vn 0.06933962 -0.02484913 -0.99728358
vn -0.16939927 0.00537595 -0.98553284
vn -0.24387606 0.02304033 -0.96953268
vn -0.24480082 0.03767249 -0.96884124
vn -0.08014721 0.00961060 -0.99673671
vn -0.25512656 0.00078398 -0.96690735
vn -0.23432014 0.05324078 -0.97070052
vn -0.07944866 0.01516298 -0.99672363
vn -0.05539089 0.00797059 -0.99843293
vn 0.19266002 -0.14106957 -0.97107234
vn 0.18787354 -0.15690705 -0.96957914
vn 0.06357896 -0.05017079 -0.99671491
vn 0.11992393 -0.11892323 -0.98563458
vn 0.11351233 -0.11152516 -0.98725736
vn -0.08152511 0.02239728 -0.99641960
vn -0.22061034 0.07162326 -0.97272873
vn -0.10343302 0.05070195 -0.99334331
vn 0.16297679 -0.18847997 -0.96845953
vn 0.04813467 -0.04920177 -0.99762831
vn 0.09920648 -0.13561666 -0.98578202
vn 0.13833137 -0.20495493 -0.96894680
vn 0.03776031 -0.01934248 -0.99909961
vn -0.15959324 0.07053341 -0.98465986
vn -0.21923156 0.11592176 -0.96876192
vn -0.04622649 0.03546150 -0.99830135
vn -0.14939109 0.08624415 -0.98500977
vn -0.20837247 0.13792157 -0.96827607
vn -0.02759110 0.03945679 -0.99884027
vn 0.10969773 -0.20712274 -0.97214535
vn 0.05136407 -0.10998386 -0.99260530
vn 0.06585351 -0.15776670 -0.98527812
vn 0.04961408 -0.09236722 -0.99448818
vn 0.02376412 0.24419956 -0.96943377
vn 0.00829819 0.07994527 -0.99676471
vn 0.00926828 0.16538515 -0.98618551
vn 0.00000000 0.25247000 -0.96760472
vn 0.03987939 0.24053840 -0.96982004
vn 0.02058615 0.07681676 -0.99683268
vn 0.00590440 0.06068113 -0.99813974
vn -0.13531470 0.09794251 -0.98594990
vn -0.19173062 0.16833117 -0.96690433
vn -0.04963940 0.04670037 -0.99767480
vn -0.14221697 0.11686805 -0.98291210
vn -0.04814857 0.04892570 -0.99764121
vn 0.06063369 -0.15189630 -0.98653488
vn 0.04386065 -0.15609256 -0.98676814
vn 0.05226429 -0.23865326 -0.96969741
vn 0.01896052 -0.05844969 -0.99811028
vn 0.05869022 0.24169956 -0.96857461
vn 0.04825180 0.15895389 -0.98610619
vn 0.08450117 0.23443969 -0.96845113
vn 0.10135463 0.22428608 -0.96923836
vn 0.02731456 0.07605365 -0.99672953
vn -0.16855710 0.18596132 -0.96799116
vn -0.16687288 0.19226247 -0.96705149
vn -0.04842081 0.06075769 -0.99697740
vn -0.10534907 0.13372742 -0.98540274
vn -0.13792157 0.20837247 -0.96827607
vn -0.02977038 0.05545567 -0.99801723
vn 0.02949087 -0.23853661 -0.97068562
vn 0.00612103 -0.08461405 -0.99639500
vn 0.01358071 -0.08072020 -0.99664428
vn 0.00629318 -0.23977621 -0.97080779
vn -0.00155639 -0.08210540 -0.99662244
vn 0.11533067 0.21987367 -0.96868695
vn 0.03846287 0.06919206 -0.99686161
vn 0.08553261 0.14190383 -0.98617822
vn 0.13932548 0.20644459 -0.96848802
vn -0.08828174 0.14437528 -0.98557705
vn -0.11762355 0.21924665 -0.96855336
vn -0.10361169 0.22174832 -0.96958357
vn -0.03291660 0.06893722 -0.99707781
vn -0.06471723 0.15477373 -0.98582796
vn -0.01756497 -0.25152734 -0.96769079
vn -0.00609057 -0.08261094 -0.99656326
vn -0.02669202 -0.25105193 -0.96760553
vn -0.00764063 -0.06708224 -0.99771819
vn 0.15947074 0.19143864 -0.96846287
vn 0.05315000 0.06241821 -0.99663386
vn 0.04438061 0.06701881 -0.99676418
vn 0.16761455 0.18645618 -0.96805963
vn 0.05524018 0.05937644 -0.99670606
vn -0.07037217 0.24416070 -0.96717801
vn -0.02019267 0.06873522 -0.99743056
vn -0.04371398 0.17082690 -0.98433087
vn -0.03721355 0.15944136 -0.98650575
vn -0.07930197 -0.25668606 -0.96323594
vn -0.04171775 -0.17963087 -0.98284911
vn -0.06783047 -0.18650300 -0.98011002
vn -0.02634761 -0.04927743 -0.99843755
vn 0.19003370 0.16478426 -0.96784985
vn 0.18058358 0.15950857 -0.97053933
vn 0.06204080 0.05393864 -0.99661505
vn 0.05879915 0.04152064 -0.99740598
vn 0.12615354 0.07418707 -0.98923282
vn -0.03689448 0.24346848 -0.96920684
vn -0.00354950 0.17463070 -0.98462760
vn -0.00814280 0.07041520 -0.99748453
vn -0.02207866 0.17790516 -0.98379992
vn -0.09973043 -0.22426264 -0.96941225
vn -0.11957603 -0.20822729 -0.97074351
vn -0.02479986 -0.05459477 -0.99820057
vn -0.03318163 -0.05933520 -0.99768648
vn -0.11955773 -0.17893483 -0.97656965
vn 0.20382606 0.11730429 -0.97195403
vn 0.09493684 0.06859878 -0.99311691
vn 0.22542075 0.10658872 -0.96841331
vn 0.07018773 0.03205858 -0.99701852
vn 0.15571122 0.06336484 -0.98576818
vn -0.14545400 -0.18895284 -0.97115393
vn -0.05303189 -0.06232890 -0.99664574
vn -0.14746236 -0.17127705 -0.97412475
vn -0.08019550 -0.09706794 -0.99204158
vn 0.23360208 0.07267331 -0.96961263
vn 0.08156970 0.02222785 -0.99641974
vn 0.05424639 0.02701180 -0.99816216
vn 0.24406356 0.05748274 -0.96805409
vn 0.08248043 0.01445716 -0.99648782
vn -0.18148830 -0.15225787 -0.97153463
vn -0.02899046 -0.01621672 -0.99944813
vn -0.05923668 -0.05483731 -0.99673662
vn -0.15714968 -0.10772386 -0.98168200
vn -0.05219606 -0.04572414 -0.99758953
vn 0.24760656 0.02654694 -0.96849690
vn 0.08261326 0.00609127 -0.99656307
vn 0.25053469 0.01778764 -0.96794420
vn 0.08210382 0.00155554 -0.99662257
vn -0.21508945 -0.12295550 -0.96882324
vn -0.22031256 -0.11738554 -0.96834034
vn -0.00478545 0.01568107 -0.99986559
vn -0.17175035 -0.08574177 -0.98140214
vn -0.22903102 -0.09332610 -0.96893500
vn 0.02011530 0.03674677 -0.99912214
vn 0.24950234 -0.01366874 -0.96827772
vn 0.08461557 -0.00612032 -0.99639487
vn 0.25140621 -0.02468515 -0.96756683
vn 0.08071920 -0.01358136 -0.99664435
vn 0.07795407 -0.01738142 -0.99680542
vn -0.16343515 -0.05950849 -0.98475768
vn -0.24260366 -0.06668693 -0.96783073
vn -0.05246634 -0.00700383 -0.99859813
vn -0.16887521 -0.03645954 -0.98496287
vn 0.23779150 -0.05241054 -0.96990120
vn 0.15928045 -0.05387178 -0.98576243
vn -0.24061368 -0.03002642 -0.97015641
vn -0.07804161 -0.00820327 -0.99691635
vn -0.23914324 -0.01412466 -0.97088156
vn -0.67229469 -0.67388058 0.30643892
vn -0.62153367 -0.53008749 0.57680426
vn -0.67555724 -0.47882838 0.56066550
vn -0.59751097 -0.05065829 0.80025894
vn -0.15391319 -0.00935578 0.98804008
vn -0.46782535 -0.08747026 0.87948189
vn -0.95154383 -0.00000015 0.30751315
vn -0.82327191 -0.04078749 0.56617995
vn -0.51849346 -0.02467773 0.85472542
vn -0.81838314 -0.10641847 0.56473370
vn -0.49524854 -0.09777595 0.86323157
vn -0.11881797 -0.01451841 0.99280990
vn 0.82567804 0.12428226 0.55028147
vn 0.61581453 0.03339310 0.78718318
vn 0.95170677 0.00185963 0.30700286
vn -0.70820032 -0.42298698 0.56527367
vn -0.73758881 -0.36940272 0.56524718
vn -0.87943830 -0.36545621 0.30500826
vn 0.82637331 -0.06506720 0.55935089
vn 0.81731189 -0.14242335 0.55831610
vn -0.77585141 -0.25653976 0.57640432
vn -0.79557251 -0.54752644 0.25938230
vn 0.79653564 -0.21846460 0.56374125
vn 0.59632028 -0.20940821 0.77495182
vn 0.73703998 -0.37148565 0.56459762
vn 0.69893447 -0.43917973 0.56445705
vn -0.81840765 0.03738843 0.57342046
vn -0.81653282 0.10733966 0.56723218
vn -0.93363756 0.18662869 0.30576239
vn 0.65165606 -0.50525921 0.56573626
vn 0.60750164 -0.56014872 0.56318307
vn -0.80727640 0.19936820 0.55547920
vn -0.78500275 0.26133503 0.56167133
vn 0.53618947 -0.62216298 0.57045077
vn 0.49669780 -0.66902086 0.55290360
vn 0.44303489 -0.70285412 0.55652149
vn -0.73841678 0.36909687 0.56436527
vn -0.52996330 0.30926633 0.78961588
vn -0.68097266 0.47698861 0.55566006
vn 0.37114533 -0.74205240 0.55821983
vn 0.30034532 -0.77408867 0.55729653
vn -0.00127055 0.95192874 0.30631694
vn 0.06673413 0.81561415 0.57473482
vn 0.14271865 0.82354183 0.54900842
vn -0.62293695 0.53447162 0.57121768
vn 0.22315469 -0.79182000 0.56852710
vn 0.16240418 -0.81742663 0.55266499
vn 0.21702613 0.80011474 0.55921022
vn 0.28304674 0.77322082 0.56746286
vn -0.54106478 0.62685625 0.56062478
vn -0.47209465 0.67605382 0.56575425
vn 0.10038735 -0.82492778 0.55625223
vn 0.36524788 0.74452849 0.55881241
vn 0.44335466 0.70094253 0.55867362
vn -0.43120608 0.70589334 0.56193941
vn -0.36916424 0.73838223 0.56436641
vn -0.36314250 0.87971387 0.30697073
vn -0.06506720 -0.82637331 0.55935089
vn -0.14398137 -0.81648551 0.55912500
vn 0.53012520 0.64520203 0.55016508
vn 0.57168226 0.60234881 0.55709542
vn -0.22270874 0.79812109 0.55982457
vn -0.18435454 0.93409985 0.30573007
vn -0.21814103 -0.80086736 0.55769702
vn -0.29718942 -0.77614889 0.55612171
vn 0.60914107 0.55181656 0.56960129
vn 0.65666487 0.50980748 0.55577656
vn 0.69890139 0.43839717 0.56510597
vn -0.12809011 0.81450157 0.56584460
vn -0.04000179 0.82828393 0.55887887
vn -0.35853193 -0.74607736 0.56109128
vn -0.40813534 -0.72090089 0.56011378
vn -0.47232940 -0.67749969 0.56382542
vn 0.72543438 0.36976645 0.58053229
vn 0.87949560 0.36546830 0.30482849
vn -0.55854570 -0.61746454 0.55386302
vn 0.78626954 0.25823198 0.56133454
vn 0.80685666 0.18039562 0.56252977
vn 0.40619589 -0.23084137 0.88414770
vn 0.41858410 -0.23129686 0.87823067
vn 0.60463390 -0.27349036 0.74807812
vn 0.50030512 -0.34834875 0.79268401
vn 0.50179937 -0.23662244 0.83198991
vn 0.11400354 -0.43065352 0.89528807
vn 0.13134560 -0.07625777 0.98839925
vn -0.60085001 0.05254910 0.79763266
vn -0.15013523 0.01426145 0.98856261
vn -0.44945802 0.07741395 0.88994077
vn -0.45336327 0.01764192 0.89115123
vn -0.48697660 0.09014236 0.86875091
vn 0.45467167 -0.38973353 0.80086294
vn 0.12564909 -0.08855088 0.98811490
vn 0.11811875 -0.10919445 0.98697747
vn 0.39549566 -0.29135674 0.87103067
vn 0.35131368 -0.36256979 0.86320440
vn -0.56714889 0.21154548 0.79598407
vn -0.57069637 0.16858552 0.80366945
vn -0.16425006 0.04281875 0.98548895
vn -0.47013665 0.18304968 0.86340277
vn -0.58498812 0.14973539 0.79709988
vn 0.34874423 -0.47547872 0.80764934
vn 0.29440026 -0.38510457 0.87465591
vn 0.09899057 -0.11187272 0.98877973
vn 0.42377448 -0.45386085 0.78385299
vn -0.50118158 0.31673770 0.80529141
vn -0.14775137 0.08090229 0.98571007
vn -0.54587009 0.25207480 0.79905203
vn -0.13702462 0.04352243 0.98961106
vn -0.49928338 0.32264205 0.80412575
vn 0.25113792 -0.54756559 0.79818649
vn 0.29021301 -0.52834419 0.79789023
vn 0.08544503 -0.15901715 0.98357140
vn 0.31283017 -0.49830893 0.80859476
vn 0.10000261 -0.14463024 0.98441941
vn 0.18362500 -0.46443473 0.86636150
vn 0.06136820 -0.15349367 0.98624218
vn 0.10318768 0.58644876 0.80338668
vn 0.04462912 0.46190056 0.88580817
vn 0.01697468 0.15641620 0.98754536
vn 0.00012063 0.19346615 0.98110694
vn 0.01003319 0.61649246 0.78729688
vn -0.46546862 0.37041543 0.80382298
vn -0.13440330 0.11801329 0.98387429
vn -0.47446443 0.36389854 0.80153687
vn -0.14432323 0.10165745 0.98429496
vn -0.42476325 0.41720577 0.80343981
vn 0.13808704 -0.58818391 0.79685109
vn 0.14246858 -0.44567791 0.88378386
vn 0.21286600 -0.61480740 0.75940762
vn 0.11257353 -0.58043651 0.80648661
vn 0.04488261 -0.17769167 0.98306217
vn 0.15629827 0.56494327 0.81019131
vn 0.05120064 0.14224386 0.98850654
vn 0.15896055 0.44186281 0.88288663
vn 0.04038875 0.17953874 0.98292146
vn -0.36955072 0.48206933 0.79438116
vn -0.11644648 0.13911618 0.98340577
vn -0.39150943 0.45327084 0.80079080
vn -0.25500553 0.38667652 0.88625812
vn 0.03153068 -0.61848755 0.78516174
vn 0.05237272 -0.59179835 0.80438288
vn 0.02297469 -0.18443862 0.98257547
vn 0.00900747 -0.18498566 0.98269994
vn 0.09576262 -0.58607307 0.80457932
vn -0.00000746 -0.60662746 0.79498624
vn 0.29810207 0.51873310 0.80128093
vn 0.27347876 0.52995940 0.80271564
vn 0.07884519 0.15041893 0.98547328
vn 0.18408017 0.45145357 0.87310032
vn 0.33455958 0.48672282 0.80695153
vn 0.09396978 0.14711901 0.98464495
vn -0.24880179 0.54935197 0.79769047
vn -0.08313445 0.14013843 0.98663564
vn -0.07244614 0.15384462 0.98543563
vn -0.29604456 0.52928467 0.79511971
vn -0.23087571 0.59150407 0.77254083
vn -0.06305805 0.16463189 0.98433735
vn -0.07971539 -0.60352739 0.79334743
vn -0.04257322 -0.57882381 0.81434054
vn -0.02738752 -0.18279081 0.98277029
vn -0.00593087 -0.19076156 0.98161849
vn -0.10206039 -0.48257111 0.86989011
vn 0.39297578 0.44697610 0.80360588
vn 0.37835893 0.45424987 0.80653678
vn 0.10760966 0.13025473 0.98562359
vn 0.36803833 0.49788596 0.78527534
vn 0.10143202 0.13922545 0.98505219
vn 0.42924208 0.42883161 0.79489288
vn 0.12062751 0.12146099 0.98523917
vn -0.15767315 0.56393118 0.81062988
vn -0.05129151 0.14201929 0.98853412
vn -0.13171325 0.41962828 0.89808893
vn -0.11662612 0.59341101 0.79640550
vn -0.03908273 0.17310935 0.98412687
vn -0.19257092 -0.56418950 0.80287400
vn -0.16100042 -0.57071018 0.80521348
vn -0.04590755 -0.17544202 0.98341883
vn -0.23930360 -0.54853858 0.80114868
vn -0.06770973 -0.17452314 0.98232228
vn 0.48494892 0.35595252 0.79882560
vn 0.46938215 0.38447094 0.79489779
vn 0.33365062 0.30247390 0.89285318
vn 0.50055722 0.34632868 0.79340968
vn -0.03298216 0.59458200 0.80335821
vn -0.06411995 0.59080405 0.80426315
vn -0.02950962 0.17649583 0.98385893
vn -0.31661364 -0.51603220 0.79590613
vn -0.22489897 -0.43788842 0.87044482
vn -0.08819397 -0.13385661 0.98706850
vn -0.07811767 -0.14117890 0.98689723
vn -0.26014926 -0.39438672 0.88135207
vn 0.41784682 0.22585585 0.87999612
vn 0.51077724 0.27170243 0.81564968
vn 0.23220202 -0.13008911 0.96392896
vn 0.55873574 0.23944748 0.79402725
vn 0.15797674 0.06957869 0.98498840
vn -0.39503460 -0.43574043 0.80875086
vn -0.38895810 -0.47436564 0.78973973
vn -0.10948015 -0.14410059 0.98348824
vn -0.36508860 -0.48119840 0.79696826
vn -0.12642032 -0.13275351 0.98305361
vn 0.58543797 0.15672471 0.79542426
vn 0.56627069 0.16705618 0.80711198
vn 0.15460006 0.03442427 0.98737723
vn 0.47957789 0.09209322 0.87265336
vn 0.56260969 0.21024483 0.79954202
vn 0.22719884 0.08206829 0.97038419
vn -0.38199990 -0.30437510 0.87260064
vn -0.36770990 -0.28895552 0.88390844
vn -0.43276985 -0.42049429 0.79743013
vn -0.11952142 -0.09161190 0.98859592
vn -0.51271031 -0.33021730 0.79251793
vn -0.13134560 -0.07625777 0.98839925
vn 0.61704796 0.05819802 0.78477055
vn 0.17158940 0.01693954 0.98502291
vn 0.58245601 0.08468102 0.80843931
vn 0.11985158 0.03776467 0.99207330
vn 0.60660810 -0.00288754 0.79499577
vn 0.17707915 0.00566070 0.98418033
vn -0.60463390 -0.27349036 0.74807812
vn -0.41568630 -0.22708491 0.88070275
vn -0.40374091 -0.24045229 0.88270945
vn -0.50412083 -0.23483497 0.83109249
vn -0.10812079 -0.41696694 0.90246799
vn 0.59249449 -0.07875786 0.80171534
vn 0.58392068 -0.04291623 0.81067554
vn 0.17642081 -0.02111780 0.98408828
vn 0.17346024 -0.00646247 0.98481967
vn 0.17608642 -0.03042747 0.98390434
vn -0.45021641 -0.14016796 0.88184926
vn -0.10600856 0.01270602 0.99428404
vn -0.43848613 -0.15234976 0.88573103
vn 0.56398240 -0.17025765 0.80804467
vn 0.17183047 -0.05593898 0.98353705
vn 0.59499156 -0.13218989 0.79278678
vn 0.17335845 -0.04705139 0.98373422
vn 0.01602872 0.00147790 0.99987044
vn -0.01482527 0.00972273 0.99984283
vn -0.00723851 0.01264225 0.99989388
vn 0.00197001 -0.00225521 0.99999552
vn 0.00044637 -0.00137074 0.99999896
vn 0.01669393 -0.01506701 0.99974712
vn 0.00950925 -0.02850836 0.99954832
vn 0.01488623 0.00681545 0.99986597
vn 0.24786557 -0.06283419 0.96675463
vn 0.01156469 0.01037511 0.99987930
vn -0.00197001 -0.00225521 0.99999552
vn -0.00044644 -0.00137062 0.99999896
vn -0.00899308 -0.02850952 0.99955307
vn -0.01627102 -0.01408200 0.99976845
vn -0.00440936 0.01293085 0.99990667
vn 0.00000555 0.01331167 0.99991140
vn 0.01540074 0.00347244 0.99987537
vn -0.01666162 0.00175268 0.99985965
vn 0.01571179 -0.00086481 0.99987619
vn 0.01642090 -0.00310703 0.99986034
vn -0.01566526 0.00072490 0.99987703
vn -0.01583378 -0.00083241 0.99987429
vn -0.01650915 -0.00307547 0.99985898
vn 0.01724091 -0.01002775 0.99980108
vn 0.01696652 -0.00622542 0.99983668
vn 0.00846421 0.01269375 0.99988361
vn 0.00453016 0.01296293 0.99990572
vn -0.01724091 -0.01002775 0.99980108
vn -0.01704477 -0.00621121 0.99983543
f 60//60 59//59 474//474
f 110//110 107//107 105//105
f 47//47 50//50 49//49
f 116//116 112//112 114//114
f 111//111 112//112 116//116
f 121//121 123//123 120//120
f 123//123 122//122 120//120
f 150//150 460//460 152//152
f 152//152 460//460 154//154
f 157//157 159//159 156//156
f 165//165 164//164 166//166
f 167//167 164//164 165//165
f 176//176 173//173 481//481
f 125//125 123//123 121//121
f 133//133 134//134 136//136
f 127//127 129//129 307//307
f 128//128 129//129 127//127
f 153//153 147//147 149//149
f 149//149 150//150 153//153
f 149//149 147//147 148//148
f 160//160 154//154 155//155
f 158//158 156//156 159//159
f 155//155 156//156 158//158
f 158//158 160//160 155//155
f 147//147 153//153 287//287
f 72//72 77//77 71//71
f 68//68 66//66 71//71
f 298//298 84//84 86//86
f 86//86 93//93 298//298
f 70//70 255//255 68//68
f 68//68 71//71 70//70
f 70//70 71//71 77//77
f 49//49 50//50 51//51
f 705//705 703//703 704//704
f 711//711 579//579 645//645
f 711//711 645//645 710//710
f 710//710 645//645 633//633
f 1//1 266//266 269//269
f 62//62 254//254 60//60
f 61//61 58//58 59//59
f 302//302 57//57 61//61
f 57//57 58//58 61//61
f 55//55 57//57 302//302
f 55//55 54//54 52//52
f 293//293 47//47 49//49
f 54//54 55//55 302//302
f 49//49 51//51 56//56
f 56//56 293//293 49//49
f 52//52 54//54 56//56
f 56//56 51//51 52//52
f 96//96 97//97 99//99
f 94//94 92//92 90//90
f 95//95 100//100 94//94
f 99//99 97//97 102//102
f 9//9 3//3 4//4
f 4//4 5//5 9//9
f 9//9 5//5 7//7
f 88//88 93//93 86//86
f 163//163 164//164 167//167
f 167//167 161//161 163//163
f 176//176 481//481 469//469
f 166//166 164//164 477//477
f 477//477 169//169 166//166
f 227//227 225//225 226//226
f 225//225 223//223 226//226
f 231//231 225//225 227//227
f 185//185 188//188 184//184
f 487//487 488//488 185//185
f 487//487 549//549 488//488
f 690//690 470//470 689//689
f 171//171 174//174 170//170
f 171//171 481//481 173//173
f 116//116 279//279 278//278
f 133//133 136//136 138//138
f 123//123 125//125 305//305
f 130//130 126//126 127//127
f 127//127 307//307 130//130
f 125//125 126//126 130//130
f 130//130 305//305 125//125
f 151//151 150//150 152//152
f 151//151 153//153 150//150
f 152//152 154//154 299//299
f 154//154 160//160 299//299
f 248//248 158//158 159//159
f 160//160 158//158 248//248
f 257//257 138//138 136//136
f 137//137 140//140 139//139
f 137//137 257//257 136//136
f 137//137 136//136 134//134
f 358//358 278//278 279//279
f 176//176 469//469 177//177
f 469//469 178//178 177//177
f 185//185 488//488 187//187
f 187//187 488//488 190//190
f 166//166 169//169 168//168
f 168//168 169//169 170//170
f 170//170 174//174 168//168
f 172//172 171//171 173//173
f 174//174 171//171 172//172
f 114//114 112//112 115//115
f 115//115 112//112 113//113
f 113//113 118//118 115//115
f 118//118 117//117 115//115
f 119//119 120//120 124//124
f 124//124 120//120 122//122
f 124//124 118//118 119//119
f 124//124 117//117 118//118
f 63//63 60//60 474//474
f 63//63 62//62 60//60
f 63//63 64//64 69//69
f 69//69 62//62 63//63
f 65//65 66//66 68//68
f 68//68 67//67 65//65
f 69//69 64//64 65//65
f 65//65 67//67 69//69
f 85//85 80//80 83//83
f 53//53 55//55 52//52
f 57//57 55//55 53//53
f 48//48 42//42 44//44
f 711//711 578//578 577//577
f 577//577 579//579 711//711
f 513//513 22//22 21//21
f 608//608 721//721 607//607
f 705//705 704//704 641//641
f 624//624 721//721 705//705
f 705//705 628//628 624//624
f 630//630 710//710 633//633
f 698//698 710//710 630//630
f 290//290 211//211 217//217
f 212//212 211//211 509//509
f 212//212 217//217 211//211
f 193//193 192//192 492//492
f 492//492 192//192 191//191
f 456//456 455//455 270//270
f 270//270 455//455 255//255
f 255//255 70//70 270//270
f 270//270 70//70 77//77
f 456//456 270//270 310//310
f 75//75 270//270 77//77
f 76//76 270//270 75//75
f 75//75 77//77 72//72
f 313//313 456//456 310//310
f 78//78 310//310 270//270
f 286//286 310//310 78//78
f 270//270 76//76 78//78
f 85//85 286//286 78//78
f 276//276 42//42 48//48
f 40//40 42//42 276//276
f 67//67 253//253 69//69
f 68//68 255//255 67//67
f 253//253 448//448 62//62
f 69//69 253//253 62//62
f 60//60 254//254 304//304
f 59//59 60//60 304//304
f 304//304 61//61 59//59
f 455//455 450//450 448//448
f 255//255 455//455 448//448
f 448//448 67//67 255//255
f 253//253 67//67 448//448
f 46//46 47//47 277//277
f 47//47 293//293 277//277
f 302//302 56//56 54//54
f 293//293 56//56 302//302
f 92//92 94//94 243//243
f 243//243 94//94 100//100
f 98//98 96//96 99//99
f 99//99 244//244 98//98
f 244//244 100//100 98//98
f 98//98 100//100 95//95
f 95//95 96//96 98//98
f 97//97 96//96 495//495
f 495//495 102//102 97//97
f 104//104 106//106 108//108
f 105//105 107//107 104//104
f 107//107 106//106 104//104
f 106//106 107//107 278//278
f 101//101 246//246 99//99
f 108//108 246//246 101//101
f 99//99 102//102 101//101
f 12//12 17//17 11//11
f 12//12 15//15 17//17
f 16//16 15//15 13//13
f 15//15 12//12 13//13
f 250//250 223//223 225//225
f 225//225 231//231 250//250
f 265//265 9//9 7//7
f 9//9 265//265 2//2
f 1//1 3//3 2//2
f 3//3 9//9 2//2
f 2//2 266//266 1//1
f 2//2 265//265 266//266
f 8//8 6//6 11//11
f 8//8 5//5 6//6
f 7//7 5//5 8//8
f 345//345 265//265 349//349
f 349//349 265//265 7//7
f 7//7 8//8 267//267
f 267//267 349//349 7//7
f 135//135 137//137 134//134
f 140//140 137//137 135//135
f 141//141 142//142 144//144
f 682//682 683//683 691//691
f 705//705 721//721 696//696
f 162//162 163//163 161//161
f 162//162 159//159 157//157
f 162//162 161//161 159//159
f 155//155 154//154 461//461
f 154//154 460//460 461//461
f 470//470 469//469 481//481
f 222//222 224//224 221//221
f 221//221 223//223 222//222
f 516//516 223//223 221//221
f 516//516 226//226 223//223
f 480//480 691//691 689//689
f 689//689 470//470 480//480
f 470//470 481//481 480//480
f 480//480 171//171 170//170
f 480//480 481//481 171//171
f 682//682 477//477 476//476
f 476//476 477//477 164//164
f 164//164 163//163 476//476
f 169//169 477//477 480//480
f 682//682 691//691 480//480
f 480//480 477//477 682//682
f 170//170 169//169 480//480
f 467//467 463//463 468//468
f 469//469 463//463 467//467
f 467//467 468//468 466//466
f 467//467 178//178 469//469
f 467//467 466//466 178//178
f 466//466 468//468 486//486
f 185//185 184//184 487//487
f 487//487 486//486 545//545
f 549//549 487//487 547//547
f 547//547 487//487 545//545
f 548//548 546//546 545//545
f 548//548 468//468 471//471
f 548//548 713//713 546//546
f 468//468 463//463 464//464
f 463//463 465//465 464//464
f 465//465 469//469 470//470
f 465//465 463//463 469//469
f 109//109 278//278 107//107
f 116//116 278//278 109//109
f 107//107 110//110 109//109
f 109//109 110//110 111//111
f 111//111 116//116 109//109
f 295//295 122//122 123//123
f 123//123 305//305 295//295
f 305//305 386//386 295//295
f 299//299 160//160 248//248
f 299//299 431//431 289//289
f 299//299 289//289 152//152
f 258//258 137//137 139//139
f 257//257 137//137 258//258
f 144//144 271//271 146//146
f 146//146 141//141 144//144
f 146//146 271//271 139//139
f 139//139 140//140 146//146
f 140//140 141//141 146//146
f 145//145 271//271 144//144
f 145//145 287//287 271//271
f 147//147 287//287 145//145
f 143//143 148//148 145//145
f 145//145 148//148 147//147
f 145//145 142//142 143//143
f 144//144 142//142 145//145
f 388//388 386//386 305//305
f 388//388 400//400 389//389
f 166//166 168//168 264//264
f 264//264 168//168 174//174
f 281//281 172//172 173//173
f 431//431 299//299 248//248
f 246//246 244//244 99//99
f 357//357 344//344 278//278
f 278//278 358//358 357//357
f 114//114 115//115 280//280
f 375//375 295//295 386//386
f 186//186 188//188 185//185
f 185//185 187//187 186//186
f 189//189 187//187 190//190
f 189//189 237//237 187//187
f 85//85 83//83 286//286
f 286//286 84//84 298//298
f 286//286 83//83 84//84
f 45//45 46//46 48//48
f 48//48 44//44 45//45
f 47//47 46//46 45//45
f 43//43 42//42 40//40
f 43//43 44//44 42//42
f 4//4 3//3 502//502
f 502//502 5//5 4//4
f 592//592 721//721 593//593
f 721//721 608//608 593//593
f 610//610 607//607 721//721
f 704//704 653//653 652//652
f 652//652 653//653 651//651
f 705//705 641//641 628//628
f 610//610 721//721 626//626
f 721//721 624//624 626//626
f 626//626 625//625 610//610
f 633//633 645//645 644//644
f 630//630 633//633 629//629
f 616//616 698//698 631//631
f 631//631 698//698 630//630
f 631//631 615//615 616//616
f 227//227 226//226 615//615
f 226//226 516//516 615//615
f 206//206 207//207 210//210
f 202//202 199//199 200//200
f 200//200 205//205 202//202
f 205//205 200//200 498//498
f 498//498 200//200 199//199
f 214//214 216//216 213//213
f 219//219 216//216 214//214
f 218//218 216//216 219//219
f 213//213 216//216 215//215
f 215//215 212//212 213//213
f 217//217 212//212 215//215
f 549//549 697//697 557//557
f 240//240 26//26 33//33
f 450//450 455//455 456//456
f 308//308 313//313 310//310
f 48//48 46//46 276//276
f 262//262 261//261 40//40
f 40//40 276//276 262//262
f 40//40 261//261 39//39
f 261//261 41//41 39//39
f 39//39 37//37 40//40
f 33//33 29//29 31//31
f 31//31 29//29 32//32
f 285//285 362//362 284//284
f 285//285 15//15 16//16
f 284//284 17//17 285//285
f 17//17 15//15 285//285
f 16//16 19//19 18//18
f 23//23 297//297 25//25
f 25//25 18//18 19//19
f 303//303 304//304 436//436
f 303//303 436//436 302//302
f 302//302 61//61 303//303
f 61//61 304//304 303//303
f 254//254 62//62 446//446
f 446//446 62//62 448//448
f 438//438 304//304 254//254
f 254//254 446//446 438//438
f 436//436 304//304 438//438
f 302//302 436//436 429//429
f 103//103 104//104 108//108
f 108//108 101//101 103//103
f 103//103 101//101 102//102
f 263//263 341//341 246//246
f 263//263 246//246 108//108
f 108//108 106//106 263//263
f 14//14 19//19 16//16
f 16//16 13//13 14//14
f 410//410 408//408 409//409
f 250//250 231//231 229//229
f 392//392 380//380 390//390
f 17//17 284//284 10//10
f 11//11 17//17 10//10
f 10//10 8//8 11//11
f 284//284 267//267 10//10
f 10//10 267//267 8//8
f 680//680 682//682 679//679
f 682//682 476//476 679//679
f 679//679 476//476 680//680
f 133//133 138//138 132//132
f 138//138 131//131 132//132
f 129//129 128//128 132//132
f 132//132 131//131 129//129
f 127//127 126//126 517//517
f 517//517 126//126 125//125
f 121//121 517//517 125//125
f 722//722 721//721 592//592
f 592//592 594//594 722//722
f 722//722 578//578 711//711
f 722//722 594//594 578//578
f 712//712 703//703 705//705
f 81//81 83//83 80//80
f 82//82 84//84 81//81
f 84//84 83//83 81//81
f 79//79 76//76 74//74
f 78//78 76//76 79//79
f 79//79 80//80 85//85
f 85//85 78//78 79//79
f 73//73 75//75 72//72
f 74//74 76//76 73//73
f 76//76 75//75 73//73
f 462//462 156//156 155//155
f 183//183 184//184 188//188
f 466//466 486//486 183//183
f 183//183 487//487 184//184
f 486//486 487//487 183//183
f 545//545 546//546 547//547
f 547//547 546//546 713//713
f 547//547 697//697 549//549
f 547//547 713//713 697//697
f 545//545 486//486 548//548
f 548//548 486//486 468//468
f 294//294 124//124 295//295
f 295//295 124//124 122//122
f 256//256 307//307 129//129
f 129//129 131//131 256//256
f 256//256 400//400 388//388
f 388//388 307//307 256//256
f 305//305 130//130 306//306
f 130//130 307//307 306//306
f 306//306 388//388 305//305
f 306//306 307//307 388//388
f 386//386 388//388 387//387
f 387//387 375//375 386//386
f 249//249 165//165 166//166
f 166//166 264//264 249//249
f 247//247 161//161 167//167
f 248//248 159//159 247//247
f 159//159 161//161 247//247
f 264//264 174//174 172//172
f 188//188 296//296 182//182
f 182//182 183//183 188//188
f 283//283 182//182 296//296
f 328//328 238//238 239//239
f 329//329 328//328 239//239
f 296//296 188//188 186//186
f 187//187 237//237 186//186
f 152//152 289//289 151//151
f 289//289 431//431 424//424
f 271//271 287//287 413//413
f 278//278 344//344 343//343
f 343//343 106//106 278//278
f 343//343 263//263 106//106
f 332//332 330//330 244//244
f 244//244 246//246 332//332
f 308//308 310//310 309//309
f 309//309 286//286 298//298
f 310//310 286//286 309//309
f 280//280 358//358 279//279
f 280//280 116//116 114//114
f 280//280 279//279 116//116
f 280//280 372//372 359//359
f 375//375 373//373 372//372
f 372//372 295//295 375//375
f 294//294 295//295 372//372
f 294//294 372//372 280//280
f 117//117 124//124 294//294
f 294//294 115//115 117//117
f 294//294 280//280 115//115
f 623//623 622//622 520//520
f 625//625 626//626 623//623
f 623//623 626//626 624//624
f 623//623 624//624 628//628
f 628//628 622//622 623//623
f 520//520 525//525 35//35
f 35//35 41//41 34//34
f 34//34 32//32 35//35
f 50//50 47//47 534//534
f 47//47 45//45 534//534
f 533//533 45//45 44//44
f 534//534 45//45 533//533
f 40//40 37//37 38//38
f 38//38 43//43 40//40
f 592//592 593//593 591//591
f 20//20 25//25 19//19
f 20//20 21//21 23//23
f 23//23 25//25 20//20
f 21//21 20//20 513//513
f 513//513 20//20 512//512
f 653//653 704//704 703//703
f 651//651 653//653 703//703
f 639//639 704//704 652//652
f 627//627 628//628 641//641
f 627//627 622//622 628//628
f 520//520 622//622 627//627
f 627//627 525//525 520//520
f 627//627 641//641 525//525
f 520//520 29//29 28//28
f 33//33 26//26 28//28
f 28//28 29//29 33//33
f 644//644 645//645 579//579
f 632//632 629//629 633//633
f 633//633 644//644 632//632
f 632//632 644//644 528//528
f 528//528 522//522 632//632
f 521//521 629//629 632//632
f 632//632 522//522 521//521
f 521//521 522//522 228//228
f 229//229 231//231 228//228
f 228//228 231//231 227//227
f 229//229 228//228 230//230
f 230//230 228//228 522//522
f 614//614 515//515 514//514
f 220//220 219//219 514//514
f 514//514 515//515 220//220
f 221//221 224//224 220//220
f 220//220 515//515 221//221
f 224//224 218//218 220//220
f 220//220 218//218 219//219
f 515//515 615//615 516//516
f 221//221 515//515 516//516
f 207//207 208//208 209//209
f 209//209 211//211 290//290
f 209//209 208//208 211//211
f 204//204 205//205 206//206
f 206//206 210//210 204//204
f 202//202 205//205 204//204
f 496//496 198//198 197//197
f 558//558 557//557 697//697
f 697//697 567//567 558//558
f 549//549 557//557 559//559
f 557//557 556//556 559//559
f 190//190 488//488 491//491
f 488//488 549//549 491//491
f 549//549 559//559 491//491
f 492//492 191//191 190//190
f 190//190 491//491 492//492
f 492//492 559//559 556//556
f 492//492 491//491 559//559
f 213//213 212//212 510//510
f 697//697 598//598 596//596
f 31//31 390//390 240//240
f 240//240 33//33 31//31
f 26//26 240//240 24//24
f 24//24 297//297 23//23
f 23//23 21//21 24//24
f 21//21 22//22 24//24
f 421//421 277//277 293//293
f 393//393 390//390 31//31
f 394//394 390//390 393//393
f 41//41 261//261 34//34
f 297//297 364//364 18//18
f 18//18 25//25 297//297
f 449//449 448//448 450//450
f 449//449 447//447 448//448
f 447//447 446//446 448//448
f 90//90 92//92 89//89
f 92//92 91//91 89//89
f 93//93 88//88 89//89
f 89//89 91//91 93//93
f 87//87 88//88 86//86
f 87//87 84//84 82//82
f 86//86 84//84 87//87
f 408//408 398//398 252//252
f 397//397 229//229 252//252
f 252//252 398//398 397//397
f 229//229 230//230 252//252
f 408//408 410//410 398//398
f 272//272 204//204 210//210
f 202//202 204//204 272//272
f 301//301 222//222 223//223
f 224//224 222//222 301//301
f 241//241 240//240 390//390
f 390//390 380//380 241//241
f 297//297 24//24 241//241
f 241//241 24//24 240//240
f 379//379 297//297 241//241
f 241//241 380//380 379//379
f 391//391 390//390 394//394
f 391//391 392//392 390//390
f 379//379 380//380 392//392
f 409//409 269//269 411//411
f 266//266 348//348 411//411
f 411//411 269//269 266//266
f 104//104 103//103 499//499
f 505//505 112//112 111//111
f 718//718 464//464 465//465
f 718//718 465//465 470//470
f 470//470 690//690 718//718
f 703//703 712//712 663//663
f 705//705 696//696 712//712
f 651//651 703//703 655//655
f 703//703 663//663 655//655
f 676//676 712//712 696//696
f 461//461 462//462 155//155
f 681//681 680//680 475//475
f 475//475 680//680 476//476
f 476//476 163//163 475//475
f 163//163 162//162 475//475
f 157//157 156//156 462//462
f 462//462 162//162 157//157
f 462//462 475//475 162//162
f 681//681 475//475 462//462
f 256//256 138//138 257//257
f 256//256 131//131 138//138
f 256//256 257//257 399//399
f 399//399 400//400 256//256
f 388//388 389//389 387//387
f 373//373 375//375 376//376
f 375//375 387//387 376//376
f 441//441 442//442 440//440
f 248//248 247//247 440//440
f 434//434 431//431 248//248
f 167//167 165//165 247//247
f 441//441 440//440 247//247
f 282//282 281//281 181//181
f 176//176 177//177 181//181
f 181//181 177//177 178//178
f 178//178 179//179 181//181
f 457//457 281//281 282//282
f 282//282 181//181 283//283
f 283//283 181//181 179//179
f 180//180 283//283 179//179
f 182//182 283//283 180//180
f 180//180 178//178 466//466
f 180//180 179//179 178//178
f 466//466 183//183 180//180
f 183//183 182//182 180//180
f 237//237 328//328 319//319
f 238//238 328//328 237//237
f 202//202 272//272 260//260
f 318//318 314//314 321//321
f 288//288 287//287 153//153
f 153//153 151//151 288//288
f 412//412 258//258 139//139
f 139//139 271//271 412//412
f 331//331 326//326 330//330
f 298//298 91//91 92//92
f 93//93 91//91 298//298
f 330//330 332//332 331//331
f 333//333 246//246 341//341
f 333//333 332//332 246//246
f 341//341 342//342 333//333
f 323//323 325//325 324//324
f 323//323 298//298 325//325
f 323//323 324//324 322//322
f 298//298 323//323 322//322
f 360//360 358//358 359//359
f 358//358 280//280 359//359
f 360//360 359//359 372//372
f 372//372 374//374 360//360
f 373//373 374//374 372//372
f 201//201 199//199 202//202
f 201//201 198//198 199//199
f 202//202 260//260 201//201
f 197//197 198//198 203//203
f 203//203 259//259 197//197
f 198//198 201//201 203//203
f 203//203 201//201 260//260
f 191//191 192//192 194//194
f 625//625 623//623 519//519
f 519//519 28//28 625//625
f 519//519 623//623 520//520
f 520//520 28//28 519//519
f 30//30 29//29 520//520
f 520//520 35//35 30//30
f 32//32 29//29 30//30
f 30//30 35//35 32//32
f 43//43 38//38 527//527
f 526//526 639//639 527//527
f 37//37 526//526 527//527
f 527//527 38//38 37//37
f 579//579 577//577 580//580
f 578//578 594//594 576//576
f 576//576 577//577 578//578
f 502//502 577//577 576//576
f 508//508 13//13 12//12
f 508//508 14//14 13//13
f 609//609 625//625 513//513
f 610//610 625//625 609//609
f 654//654 533//533 651//651
f 36//36 35//35 525//525
f 525//525 526//526 36//36
f 41//41 35//35 36//36
f 36//36 526//526 37//37
f 37//37 39//39 36//36
f 36//36 39//39 41//41
f 704//704 639//639 640//640
f 640//640 641//641 704//704
f 640//640 639//639 526//526
f 525//525 641//641 640//640
f 640//640 526//526 525//525
f 625//625 28//28 27//27
f 22//22 513//513 27//27
f 513//513 625//625 27//27
f 27//27 28//28 26//26
f 27//27 24//24 22//22
f 26//26 24//24 27//27
f 630//630 629//629 631//631
f 227//227 615//615 521//521
f 615//615 631//631 521//521
f 521//521 631//631 629//629
f 521//521 228//228 227//227
f 236//236 252//252 232//232
f 252//252 230//230 232//232
f 611//611 615//615 515//515
f 515//515 614//614 611//611
f 612//612 697//697 698//698
f 268//268 252//252 236//236
f 236//236 269//269 268//268
f 268//268 269//269 409//409
f 409//409 408//408 268//268
f 408//408 252//252 268//268
f 206//206 205//205 498//498
f 567//567 566//566 558//558
f 558//558 566//566 496//496
f 504//504 207//207 206//206
f 510//510 214//214 213//213
f 510//510 614//614 514//514
f 598//598 614//614 510//510
f 514//514 219//219 510//510
f 219//219 214//214 510//510
f 509//509 510//510 212//212
f 595//595 596//596 598//598
f 597//597 596//596 595//595
f 598//598 510//510 595//595
f 595//595 509//509 597//597
f 510//510 509//509 595//595
f 426//426 302//302 429//429
f 293//293 302//302 426//426
f 417//417 262//262 276//276
f 242//242 393//393 31//31
f 31//31 32//32 242//242
f 32//32 34//34 242//242
f 365//365 364//364 378//378
f 379//379 378//378 377//377
f 377//377 378//378 364//364
f 377//377 297//297 379//379
f 364//364 297//297 377//377
f 362//362 285//285 363//363
f 285//285 364//364 363//363
f 363//363 365//365 362//362
f 363//363 364//364 365//365
f 16//16 18//18 285//285
f 18//18 364//364 285//285
f 436//436 438//438 437//437
f 437//437 438//438 446//446
f 430//430 429//429 436//436
f 80//80 79//79 484//484
f 274//274 210//210 207//207
f 207//207 209//209 274//274
f 395//395 229//229 397//397
f 395//395 250//250 229//229
f 383//383 301//301 251//251
f 223//223 250//250 251//251
f 251//251 301//301 223//223
f 217//217 215//215 292//292
f 292//292 215//215 216//216
f 347//347 265//265 345//345
f 266//266 265//265 347//347
f 347//347 348//348 266//266
f 351//351 411//411 348//348
f 348//348 347//347 351//351
f 346//346 347//347 345//345
f 345//345 349//349 346//346
f 362//362 350//350 361//361
f 361//361 350//350 349//349
f 361//361 284//284 362//362
f 361//361 267//267 284//284
f 349//349 267//267 361//361
f 346//346 349//349 350//350
f 517//517 121//121 604//604
f 511//511 118//118 113//113
f 599//599 121//121 120//120
f 599//599 604//604 121//121
f 113//113 112//112 505//505
f 111//111 110//110 500//500
f 500//500 505//505 111//111
f 500//500 110//110 105//105
f 714//714 696//696 721//721
f 721//721 722//722 714//714
f 716//716 548//548 471//471
f 713//713 548//548 716//716
f 716//716 698//698 697//697
f 697//697 713//713 716//716
f 710//710 698//698 716//716
f 524//524 134//134 133//133
f 524//524 135//135 134//134
f 532//532 148//148 143//143
f 143//143 142//142 532//532
f 651//651 655//655 654//654
f 534//534 533//533 654//654
f 664//664 663//663 712//712
f 712//712 676//676 664//664
f 64//64 63//63 478//478
f 478//478 65//65 64//64
f 681//681 462//462 671//671
f 671//671 672//672 681//681
f 461//461 669//669 668//668
f 668//668 669//669 670//670
f 669//669 461//461 460//460
f 434//434 440//440 442//442
f 248//248 440//440 434//434
f 433//433 424//424 431//431
f 175//175 281//281 173//173
f 175//175 181//181 281//281
f 175//175 173//173 176//176
f 176//176 181//181 175//175
f 282//282 283//283 457//457
f 329//329 327//327 328//328
f 327//327 319//319 328//328
f 259//259 203//203 260//260
f 338//338 260//260 272//272
f 296//296 315//315 314//314
f 318//318 283//283 314//314
f 314//314 283//283 296//296
f 314//314 315//315 317//317
f 316//316 317//317 315//315
f 316//316 237//237 319//319
f 316//316 186//186 237//237
f 296//296 186//186 316//316
f 316//316 315//315 296//296
f 413//413 412//412 271//271
f 257//257 258//258 412//412
f 263//263 342//342 341//341
f 343//343 342//342 263//263
f 245//245 330//330 326//326
f 326//326 325//325 245//245
f 245//245 325//325 298//298
f 245//245 298//298 92//92
f 334//334 333//333 342//342
f 332//332 333//333 334//334
f 311//311 309//309 298//298
f 298//298 322//322 311//311
f 311//311 322//322 324//324
f 237//237 189//189 196//196
f 196//196 238//238 237//237
f 191//191 194//194 196//196
f 196//196 194//194 238//238
f 190//190 191//191 196//196
f 196//196 189//189 190//190
f 195//195 239//239 238//238
f 238//238 194//194 195//195
f 259//259 239//239 195//195
f 193//193 197//197 195//195
f 197//197 259//259 195//195
f 195//195 192//192 193//193
f 195//195 194//194 192//192
f 44//44 43//43 527//527
f 527//527 533//533 44//44
f 652//652 651//651 527//527
f 527//527 651//651 533//533
f 652//652 527//527 642//642
f 642//642 527//527 639//639
f 642//642 639//639 652//652
f 608//608 607//607 606//606
f 606//606 513//513 512//512
f 643//643 644//644 579//579
f 579//579 580//580 643//643
f 502//502 580//580 577//577
f 528//528 644//644 234//234
f 1//1 269//269 235//235
f 269//269 236//236 235//235
f 236//236 234//234 235//235
f 233//233 522//522 528//528
f 233//233 230//230 522//522
f 233//233 232//232 230//230
f 233//233 234//234 236//236
f 236//236 232//232 233//233
f 528//528 234//234 233//233
f 612//612 598//598 697//697
f 612//612 614//614 598//598
f 616//616 615//615 613//613
f 615//615 611//611 613//613
f 613//613 698//698 616//616
f 613//613 612//612 698//698
f 613//613 611//611 614//614
f 614//614 612//612 613//613
f 565//565 567//567 697//697
f 555//555 556//556 557//557
f 557//557 558//558 555//555
f 555//555 558//558 492//492
f 555//555 492//492 556//556
f 492//492 558//558 193//193
f 193//193 558//558 496//496
f 193//193 496//496 197//197
f 504//504 498//498 583//583
f 206//206 498//498 504//504
f 509//509 211//211 208//208
f 207//207 504//504 208//208
f 596//596 597//597 585//585
f 585//585 597//597 509//509
f 509//509 208//208 585//585
f 585//585 208//208 504//504
f 404//404 34//34 261//261
f 426//426 421//421 293//293
f 262//262 417//417 418//418
f 446//446 447//447 439//439
f 439//439 437//437 446//446
f 427//427 426//426 429//429
f 429//429 430//430 427//427
f 436//436 437//437 430//430
f 95//95 94//94 493//493
f 72//72 71//71 482//482
f 485//485 81//81 80//80
f 608//608 508//508 593//593
f 14//14 508//508 608//608
f 512//512 20//20 19//19
f 19//19 14//14 512//512
f 14//14 608//608 512//512
f 512//512 608//608 606//606
f 396//396 395//395 397//397
f 383//383 251//251 385//385
f 250//250 395//395 385//385
f 385//385 251//251 250//250
f 383//383 385//385 384//384
f 367//367 369//369 368//368
f 383//383 384//384 382//382
f 384//384 381//381 382//382
f 301//301 383//383 382//382
f 382//382 381//381 301//301
f 367//367 292//292 369//369
f 301//301 381//381 300//300
f 300//300 381//381 292//292
f 224//224 301//301 300//300
f 300//300 218//218 224//224
f 216//216 218//218 300//300
f 300//300 292//292 216//216
f 291//291 290//290 217//217
f 217//217 292//292 291//291
f 367//367 290//290 291//291
f 291//291 292//292 367//367
f 517//517 604//604 618//618
f 119//119 118//118 511//511
f 600//600 599//599 511//511
f 511//511 120//120 119//119
f 511//511 599//599 120//120
f 495//495 103//103 102//102
f 495//495 499//499 103//103
f 506//506 511//511 113//113
f 113//113 505//505 506//506
f 505//505 500//500 588//588
f 720//720 722//722 711//711
f 544//544 701//701 553//553
f 686//686 687//687 714//714
f 714//714 687//687 678//678
f 696//696 714//714 678//678
f 702//702 575//575 571//571
f 702//702 708//708 620//620
f 717//717 471//471 468//468
f 717//717 716//716 471//471
f 468//468 464//464 717//717
f 464//464 718//718 717//717
f 717//717 718//718 710//710
f 710//710 716//716 717//717
f 518//518 128//128 127//127
f 127//127 517//517 518//518
f 523//523 132//132 128//128
f 128//128 518//518 523//523
f 518//518 621//621 523//523
f 708//708 621//621 619//619
f 140//140 135//135 524//524
f 659//659 657//657 532//532
f 149//149 148//148 532//532
f 532//532 657//657 149//149
f 531//531 532//532 142//142
f 646//646 532//532 531//531
f 142//142 141//141 531//531
f 667//667 668//668 709//709
f 672//672 667//667 709//709
f 709//709 668//668 670//670
f 66//66 65//65 479//479
f 65//65 478//478 479//479
f 687//687 686//686 685//685
f 685//685 686//686 688//688
f 672//672 671//671 667//667
f 667//667 671//671 462//462
f 462//462 461//461 667//667
f 461//461 668//668 667//667
f 435//435 434//434 442//442
f 431//431 434//434 432//432
f 432//432 433//433 431//431
f 289//289 424//424 425//425
f 264//264 172//172 452//452
f 452//452 451//451 264//264
f 443//443 442//442 441//441
f 443//443 247//247 165//165
f 441//441 247//247 443//443
f 165//165 249//249 443//443
f 459//459 457//457 283//283
f 459//459 283//283 318//318
f 318//318 321//321 459//459
f 321//321 457//457 459//459
f 319//319 327//327 320//320
f 320//320 316//316 319//319
f 317//317 316//316 320//320
f 329//329 239//239 335//335
f 335//335 239//239 259//259
f 259//259 260//260 335//335
f 367//367 368//368 366//366
f 366//366 290//290 367//367
f 399//399 257//257 401//401
f 257//257 412//412 401//401
f 401//401 400//400 399//399
f 330//330 245//245 243//243
f 243//243 244//244 330//330
f 100//100 244//244 243//243
f 243//243 245//245 92//92
f 312//312 311//311 324//324
f 309//309 311//311 312//312
f 6//6 5//5 503//503
f 5//5 502//502 503//503
f 502//502 576//576 503//503
f 11//11 6//6 507//507
f 513//513 606//606 605//605
f 605//605 609//609 513//513
f 610//610 609//609 605//605
f 607//607 610//610 605//605
f 605//605 606//606 607//607
f 501//501 3//3 1//1
f 1//1 235//235 501//501
f 529//529 643//643 580//580
f 529//529 235//235 234//234
f 644//644 643//643 529//529
f 529//529 234//234 644//644
f 697//697 582//582 584//584
f 596//596 585//585 582//582
f 697//697 596//596 582//582
f 581//581 504//504 583//583
f 583//583 584//584 581//581
f 581//581 584//584 582//582
f 581//581 582//582 585//585
f 581//581 585//585 504//504
f 697//697 584//584 565//565
f 584//584 564//564 565//565
f 496//496 566//566 497//497
f 565//565 564//564 497//497
f 497//497 566//566 567//567
f 567//567 565//565 497//497
f 497//497 498//498 199//199
f 497//497 564//564 498//498
f 199//199 198//198 497//497
f 198//198 496//496 497//497
f 568//568 583//583 498//498
f 498//498 564//564 568//568
f 568//568 584//584 583//583
f 568//568 564//564 584//584
f 393//393 405//405 394//394
f 261//261 262//262 404//404
f 403//403 405//405 393//393
f 403//403 404//404 405//405
f 34//34 404//404 403//403
f 393//393 242//242 403//403
f 403//403 242//242 34//34
f 428//428 426//426 427//427
f 421//421 426//426 428//428
f 419//419 418//418 417//417
f 46//46 277//277 419//419
f 277//277 421//421 419//419
f 419//419 276//276 46//46
f 419//419 417//417 276//276
f 495//495 560//560 572//572
f 572//572 560//560 573//573
f 90//90 493//493 94//94
f 695//695 720//720 693//693
f 484//484 485//485 80//80
f 82//82 81//81 485//485
f 485//485 87//87 82//82
f 396//396 385//385 395//395
f 292//292 381//381 370//370
f 370//370 369//369 292//292
f 586//586 505//505 587//587
f 505//505 588//588 587//587
f 105//105 104//104 500//500
f 104//104 499//499 500//500
f 74//74 542//542 484//484
f 74//74 484//484 79//79
f 711//711 701//701 719//719
f 719//719 720//720 711//711
f 701//701 544//544 719//719
f 719//719 543//543 720//720
f 715//715 714//714 722//722
f 722//722 720//720 715//715
f 688//688 686//686 715//715
f 715//715 686//686 714//714
f 715//715 695//695 688//688
f 720//720 695//695 715//715
f 587//587 588//588 574//574
f 702//702 587//587 574//574
f 574//574 575//575 702//702
f 702//702 571//571 573//573
f 573//573 571//571 572//572
f 601//601 590//590 702//702
f 590//590 587//587 702//702
f 586//586 587//587 590//590
f 586//586 590//590 589//589
f 589//589 505//505 586//586
f 589//589 506//506 505//505
f 511//511 506//506 589//589
f 620//620 619//619 618//618
f 620//620 708//708 619//619
f 620//620 618//618 604//604
f 602//602 601//601 702//702
f 702//702 620//620 602//602
f 600//600 601//601 602//602
f 602//602 599//599 600//600
f 604//604 599//599 602//602
f 602//602 620//620 604//604
f 133//133 132//132 523//523
f 523//523 524//524 133//133
f 635//635 523//523 621//621
f 617//617 619//619 621//621
f 618//618 619//619 617//617
f 621//621 518//518 617//617
f 617//617 517//517 618//618
f 617//617 518//518 517//517
f 140//140 524//524 530//530
f 524//524 637//637 530//530
f 530//530 141//141 140//140
f 530//530 531//531 141//141
f 723//723 681//681 672//672
f 672//672 709//709 723//723
f 680//680 681//681 723//723
f 723//723 682//682 680//680
f 683//683 682//682 723//723
f 723//723 709//709 711//711
f 673//673 58//58 57//57
f 59//59 58//58 673//673
f 696//696 678//678 674//674
f 674//674 676//676 696//696
f 537//537 53//53 52//52
f 482//482 71//71 66//66
f 684//684 479//479 478//478
f 478//478 685//685 684//684
f 684//684 685//685 688//688
f 424//424 433//433 425//425
f 412//412 413//413 414//414
f 457//457 458//458 454//454
f 458//458 457//457 321//321
f 452//452 172//172 281//281
f 451//451 452//452 453//453
f 272//272 352//352 339//339
f 339//339 338//338 272//272
f 353//353 352//352 272//272
f 353//353 274//274 355//355
f 503//503 507//507 6//6
f 576//576 507//507 503//503
f 591//591 507//507 576//576
f 591//591 576//576 594//594
f 591//591 594//594 592//592
f 507//507 12//12 11//11
f 507//507 508//508 12//12
f 507//507 591//591 593//593
f 593//593 508//508 507//507
f 235//235 529//529 501//501
f 501//501 529//529 580//580
f 580//580 502//502 501//501
f 501//501 502//502 3//3
f 405//405 404//404 406//406
f 262//262 418//418 407//407
f 407//407 404//404 262//262
f 407//407 406//406 404//404
f 420//420 419//419 421//421
f 418//418 419//419 420//420
f 561//561 702//702 573//573
f 561//561 562//562 702//702
f 573//573 560//560 561//561
f 563//563 562//562 561//561
f 560//560 493//493 561//561
f 561//561 493//493 563//563
f 702//702 701//701 699//699
f 699//699 701//701 711//711
f 88//88 87//87 489//489
f 87//87 485//485 489//489
f 489//489 485//485 553//553
f 553//553 550//550 489//489
f 553//553 701//701 551//551
f 701//701 552//552 551//551
f 551//551 550//550 553//553
f 551//551 552//552 550//550
f 554//554 562//562 563//563
f 550//550 552//552 554//554
f 563//563 493//493 554//554
f 493//493 90//90 554//554
f 494//494 96//96 95//95
f 95//95 493//493 494//494
f 494//494 493//493 560//560
f 494//494 495//495 96//96
f 494//494 560//560 495//495
f 485//485 484//484 539//539
f 369//369 370//370 371//371
f 371//371 370//370 381//381
f 572//572 571//571 570//570
f 570//570 571//571 575//575
f 575//575 569//569 570//570
f 570//570 495//495 572//572
f 499//499 495//495 570//570
f 570//570 569//569 499//499
f 574//574 569//569 575//575
f 574//574 588//588 500//500
f 574//574 500//500 499//499
f 499//499 569//569 574//574
f 542//542 719//719 539//539
f 543//543 719//719 542//542
f 720//720 543//543 693//693
f 693//693 543//543 542//542
f 482//482 692//692 483//483
f 483//483 693//693 542//542
f 483//483 692//692 693//693
f 74//74 73//73 483//483
f 542//542 74//74 483//483
f 483//483 73//73 72//72
f 72//72 482//482 483//483
f 539//539 719//719 538//538
f 538//538 719//719 544//544
f 603//603 601//601 600//600
f 511//511 589//589 603//603
f 590//590 601//601 603//603
f 603//603 589//589 590//590
f 600//600 511//511 603//603
f 636//636 635//635 621//621
f 636//636 621//621 708//708
f 638//638 636//636 708//708
f 647//647 530//530 637//637
f 531//531 530//530 647//647
f 646//646 531//531 647//647
f 649//649 637//637 638//638
f 649//649 647//647 637//637
f 649//649 638//638 708//708
f 708//708 647//647 649//649
f 706//706 709//709 708//708
f 711//711 709//709 706//706
f 724//724 691//691 683//683
f 683//683 723//723 724//724
f 689//689 691//691 724//724
f 724//724 723//723 711//711
f 724//724 690//690 689//689
f 724//724 718//718 690//690
f 711//711 710//710 724//724
f 710//710 718//718 724//724
f 52//52 51//51 536//536
f 536//536 537//537 52//52
f 663//663 665//665 666//666
f 666//666 655//655 663//663
f 666//666 654//654 655//655
f 666//666 665//665 654//654
f 661//661 663//663 664//664
f 537//537 536//536 661//661
f 479//479 482//482 66//66
f 694//694 692//692 482//482
f 694//694 695//695 693//693
f 693//693 692//692 694//694
f 673//673 674//674 678//678
f 673//673 675//675 676//676
f 676//676 674//674 673//673
f 657//657 656//656 535//535
f 535//535 460//460 150//150
f 535//535 669//669 460//460
f 535//535 656//656 669//669
f 535//535 150//150 149//149
f 149//149 657//657 535//535
f 287//287 288//288 422//422
f 422//422 151//151 289//289
f 422//422 288//288 151//151
f 289//289 425//425 422//422
f 281//281 457//457 454//454
f 454//454 452//452 281//281
f 453//453 452//452 454//454
f 451//451 445//445 444//444
f 444//444 445//445 443//443
f 444//444 443//443 249//249
f 444//444 249//249 264//264
f 264//264 451//451 444//444
f 338//338 337//337 336//336
f 336//336 337//337 335//335
f 260//260 338//338 336//336
f 336//336 335//335 260//260
f 340//340 339//339 352//352
f 338//338 339//339 340//340
f 352//352 353//353 354//354
f 354//354 353//353 355//355
f 273//273 353//353 272//272
f 274//274 353//353 273//273
f 273//273 272//272 210//210
f 210//210 274//274 273//273
f 356//356 366//366 368//368
f 355//355 366//366 356//356
f 275//275 209//209 290//290
f 275//275 274//274 209//209
f 290//290 366//366 275//275
f 355//355 274//274 275//275
f 275//275 366//366 355//355
f 711//711 700//700 699//699
f 699//699 700//700 702//702
f 550//550 554//554 490//490
f 490//490 554//554 90//90
f 490//490 489//489 550//550
f 490//490 90//90 89//89
f 490//490 89//89 88//88
f 88//88 489//489 490//490
f 702//702 562//562 554//554
f 554//554 701//701 702//702
f 554//554 552//552 701//701
f 485//485 539//539 538//538
f 540//540 542//542 539//539
f 484//484 542//542 540//540
f 540//540 539//539 484//484
f 634//634 638//638 637//637
f 634//634 637//637 524//524
f 635//635 636//636 634//634
f 636//636 638//638 634//634
f 634//634 523//523 635//635
f 524//524 523//523 634//634
f 659//659 532//532 650//650
f 650//650 532//532 646//646
f 646//646 647//647 648//648
f 648//648 650//650 646//646
f 648//648 647//647 708//708
f 708//708 650//650 648//648
f 658//658 657//657 659//659
f 659//659 650//650 658//658
f 658//658 650//650 708//708
f 708//708 707//707 706//706
f 706//706 707//707 711//711
f 57//57 53//53 472//472
f 53//53 537//537 472//472
f 472//472 673//673 57//57
f 675//675 673//673 472//472
f 536//536 51//51 50//50
f 50//50 534//534 536//536
f 534//534 654//654 536//536
f 654//654 665//665 536//536
f 662//662 665//665 663//663
f 663//663 661//661 662//662
f 662//662 536//536 665//665
f 662//662 661//661 536//536
f 676//676 675//675 664//664
f 675//675 472//472 664//664
f 664//664 472//472 537//537
f 537//537 661//661 664//664
f 479//479 684//684 694//694
f 694//694 684//684 688//688
f 482//482 479//479 694//694
f 688//688 695//695 694//694
f 474//474 478//478 63//63
f 677//677 678//678 687//687
f 687//687 685//685 677//677
f 677//677 685//685 478//478
f 478//478 474//474 677//677
f 416//416 413//413 287//287
f 287//287 422//422 416//416
f 415//415 414//414 413//413
f 413//413 416//416 415//415
f 400//400 401//401 402//402
f 414//414 401//401 412//412
f 541//541 544//544 553//553
f 541//541 538//538 544//544
f 553//553 485//485 541//541
f 485//485 538//538 541//541
f 669//669 656//656 660//660
f 660//660 656//656 657//657
f 473//473 673//673 678//678
f 678//678 677//677 473//473
f 423//423 422//422 425//425
f 423//423 416//416 422//422
f 670//670 669//669 660//660
f 660//660 709//709 670//670
f 708//708 709//709 660//660
f 708//708 660//660 658//658
f 658//658 660//660 657//657
f 473//473 677//677 474//474
f 59//59 673//673 473//473
f 473//473 474//474 59//59
f 700//700 707//707 708//708
f 700//700 708//708 702//702
f 711//711 707//707 700//700
f 423//423 326//326 331//331
f 346//346 350//350 423//423
f 411//411 351//351 423//423
f 308//308 309//309 423//423
f 423//423 458//458 321//321
f 409//409 411//411 423//423
f 423//423 432//432 434//434
f 344//344 357//357 423//423
f 456//456 313//313 423//423
f 423//423 439//439 447//447
f 423//423 389//389 400//400
f 423//423 442//442 443//443
f 453//453 454//454 423//423
f 423//423 358//358 360//360
f 423//423 450//450 456//456
f 313//313 308//308 423//423
f 423//423 449//449 450//450
f 423//423 410//410 409//409
f 397//397 398//398 423//423
f 423//423 391//391 394//394
f 379//379 392//392 423//423
f 423//423 387//387 389//389
f 373//373 376//376 423//423
f 317//317 320//320 423//423
f 423//423 343//343 344//344
f 423//423 357//357 358//358
f 423//423 334//334 342//342
f 423//423 378//378 379//379
f 447//447 449//449 423//423
f 365//365 378//378 423//423
f 423//423 398//398 410//410
f 423//423 430//430 437//437
f 392//392 391//391 423//423
f 362//362 365//365 423//423
f 423//423 350//350 362//362
f 423//423 376//376 387//387
f 423//423 381//381 384//384
f 423//423 321//321 314//314
f 423//423 331//331 332//332
f 423//423 324//324 325//325
f 325//325 326//326 423//423
f 352//352 354//354 423//423
f 423//423 360//360 374//374
f 374//374 373//373 423//423
f 423//423 312//312 324//324
f 423//423 396//396 397//397
f 423//423 351//351 347//347
f 347//347 346//346 423//423
f 423//423 435//435 442//442
f 423//423 425//425 433//433
f 327//327 329//329 423//423
f 314//314 317//317 423//423
f 342//342 343//343 423//423
f 332//332 334//334 423//423
f 423//423 356//356 368//368
f 437//437 439//439 423//423
f 423//423 427//427 430//430
f 423//423 428//428 427//427
f 423//423 384//384 385//385
f 423//423 368//368 369//369
f 423//423 420//420 421//421
f 434//434 435//435 423//423
f 433//433 432//432 423//423
f 385//385 396//396 423//423
f 414//414 415//415 423//423
f 443//443 445//445 423//423
f 423//423 320//320 327//327
f 329//329 335//335 423//423
f 423//423 340//340 352//352
f 309//309 312//312 423//423
f 423//423 394//394 405//405
f 421//421 428//428 423//423
f 369//369 371//371 423//423
f 423//423 454//454 458//458
f 423//423 445//445 451//451
f 451//451 453//453 423//423
f 423//423 337//337 338//338
f 405//405 406//406 423//423
f 418//418 420//420 423//423
f 423//423 371//371 381//381
f 423//423 407//407 418//418
f 400//400 402//402 423//423
f 423//423 335//335 337//337
f 338//338 340//340 423//423
f 423//423 354//354 355//355
f 355//355 356//356 423//423
f 406//406 407//407 423//423
f 415//415 416//416 423//423
f 423//423 402//402 401//401
f 401//401 414//414 423//423

