# https://github.com/mikedh/trimesh
v -12.06855296 -48.61176910 22.28355983
v -17.38700676 -59.08039093 20.19359589
v 13.43662453 51.52725983 22.45424271
v 15.79043770 -62.19775772 20.21897888
v -34.26809335 -41.12639298 21.44526750
v -14.29833052 48.20913312 22.27845137
v -46.19563293 -49.86262131 18.70449448
v -35.99205539 39.89130698 21.43567084
v -52.00807975 -28.77364501 20.33546751
v -66.08994293 -33.67105865 17.87299538
v -52.98726278 26.94867504 20.35007957
v -76.17649078 -16.96537018 17.36791992
v -69.76957746 -1.33517510 18.82602842
v -76.84646606 13.95584297 17.36454201
v -67.44367981 31.10036087 17.87499428
v -48.25241089 48.02198792 18.72427368
v -20.01313210 58.42574692 20.19308662
v 13.19972229 62.97322464 20.22004318
v -61.59619904 66.62982941 -6.99093866
v -61.61019135 66.65438843 -19.38735199
v -25.90182304 83.95279694 -22.24882889
v -29.64133510 82.86761711 -14.48675509
v -25.36924171 81.47016907 -3.47076821
v 5.07469250 89.92074625 -17.66711723
v -13.35748386 87.27791595 -16.36828041
v -59.30095291 63.16830444 3.94346356
v -24.21607399 76.00495148 6.69830799
v -54.82076645 56.79129410 12.74004745
v -22.41321182 68.15512085 14.80755901
v 12.90460449 79.81836454 7.40552507
v -77.12099457 36.58563232 13.24646378
v -83.82389069 40.55659103 6.59465170
v -87.49485779 42.80566406 -1.79137373
v -88.07639313 43.12527466 -11.62254620
v -25.02634048 81.29405975 -34.19930649
v -59.33916855 63.06475830 -32.31173706
v -85.56067657 41.38491058 -22.49255371
v -23.67566490 75.67311096 -45.47727585
v -54.98398590 56.44478607 -44.25918579
v -80.17211914 37.81416702 -33.44721985
v -21.78657532 67.70899200 -54.95571899
v -49.17482352 47.68026781 -53.37293504
v -71.65885978 34.74556143 -43.25965399
v -59.48302064 45.50679080 -47.90064512
v -19.45989418 57.96194839 -61.58055496
v -39.61329651 46.22396088 -58.29806137
v -32.69204728 43.82937546 -60.99796678
v -13.99586296 87.07546997 -23.58205414
v 4.14159727 89.85121155 -24.50000000
v -11.62881514 48.62193964 -65.14135933
v -98.74701757 22.66880422 -14.82778310
v -97.54173633 19.98081271 -19.71682448
v -94.27191162 17.08691406 -26.16107750
v -101.93147278 -2.01131153 -17.44010925
v -104.98340607 -2.07523632 -8.54687977
v -87.66992188 15.49156189 -34.28487778
v -94.29536438 -1.85296428 -28.88139153
v -98.79183960 -1.94611371 -22.89894104
v -80.30226418 10.38553970 -41.33832576
v -88.49620819 -1.73297942 -34.94969177
v -76.49349976 21.69805908 -42.75403595
v -101.83474731 19.06237221 -5.81250048
v -100.36119080 18.80104256 1.98084414
v -95.70565796 17.83117867 8.50053310
v -87.86759949 16.20028114 13.65796661
v -81.73292542 -1.59074950 16.62740898
v -93.04293060 -1.82896519 12.60910416
v -99.82749939 -1.97049153 7.98844576
v -105.16791534 -2.08002138 -2.01571870
v -103.48252869 -2.04590869 3.23130608
v -100.18557799 18.17517307 -15.02593855
v -87.05263519 -19.74770546 13.66852283
v -94.78882599 -21.76752472 8.52034664
v -99.38909912 -22.97877121 2.01236367
v -100.85747528 -23.33539009 -5.76645470
v -99.27597250 -22.36881602 -14.99175011
v -93.31156158 -21.03135872 -26.30220413
v -86.84009552 -19.15964508 -34.34463120
v -81.52466788 -5.83415083 -40.66828929
v 7.85178566 -89.40733337 -24.50000000
v -10.40711021 -87.37943268 -23.58013725
v 10.66473406 -89.65859425 -22.41346371
v -9.76280689 -87.55606842 -16.36620712
v -21.46924782 -82.39825439 -3.51375914
v 16.27004785 -83.52962796 0.73250760
v -20.61766815 -76.88058472 6.67397070
v -56.19764709 -65.71054840 3.82138824
v -58.21222305 -69.30673218 -7.18881845
v -19.24559021 -68.94115448 14.79872322
v -52.16730499 -59.05537796 12.68072987
v 16.19993696 -79.03143120 7.41231707
v -21.06353188 -82.21939850 -34.28123474
v -19.96183205 -76.55193329 -45.56380463
v -18.44225502 -68.51262665 -55.04070282
v -16.58247948 -58.65834045 -61.65715408
v -9.38255729 -49.01546745 -65.14836363
v 10.46936486 -35.76335314 -67.10720220
v -30.68584049 -44.76590394 -61.09767468
v -37.66675949 -47.82345581 -58.25630951
v -51.90355301 -58.72374344 -44.61203766
v -55.97673798 -65.59938049 -32.64781952
v -21.86100197 -84.89958191 -22.32238007
v -58.13705444 -69.32454681 -19.66363716
v -46.74173174 -49.67365666 -53.53539708
v -78.27075958 -41.40193558 -33.41179276
v -57.51260370 -47.93703729 -47.83634169
v -83.44285583 -45.17522430 -22.45645523
v -85.85860443 -46.97249603 -11.59222794
v -85.31145477 -46.56129837 -1.76905525
v -81.80377197 -44.07095718 6.60949516
v -75.38133240 -39.70602417 13.25348949
v -70.13439276 -37.68405186 -43.20987980
v -76.82324833 -21.70706411 -42.44652556
v -97.67380041 -26.70310112 -14.79204657
v -96.52326242 -24.08435915 -19.73898961
v -13.44904440 87.37255466 -20.16940119
v -34.17492617 81.31783234 -19.43477807
v 6.93940745 90.21824332 -22.38072159
v 8.78919503 -89.43793333 -17.65660771
v -9.68991535 -87.68695352 -20.28668112
v -30.76663039 -82.47071990 -19.48370366
v -25.94748020 -83.89801611 -14.44467161
v 50.98929967 52.59400164 21.21524779
v 20.73330303 -50.98837351 22.42728102
v 50.80129242 62.70463562 19.01632881
v 53.52228165 -49.94646454 21.11818504
v 51.41550064 52.08319855 21.11789322
v 56.17648697 52.32276917 19.58025169
v 55.52732849 63.89265060 16.81121063
v 56.15999603 52.57349014 19.58406830
v 53.52659988 -49.67270279 21.11759758
v 53.21833801 1.21335304 21.07331276
v 58.29351807 -49.71453476 19.57985878
v 53.36519623 -60.19242859 19.07491112
v 49.59295273 74.45301819 11.54397297
v 12.97949801 74.52805642 12.99018665
v 50.28995895 68.48764801 16.05474281
v 48.72463608 80.14653015 5.51187372
v 12.80712228 84.30935947 0.74513042
v 47.76234818 84.96883392 -1.63488376
v 12.73313781 87.67263097 -6.60022758
v 46.82025909 88.45379639 -9.22469425
v 12.75642759 89.70620343 -14.10092035
v 45.99400711 90.45861053 -16.64946747
v 44.84630203 90.52913666 -29.99864769
v 45.33522797 91.09329987 -23.55894089
v 44.47884369 88.72795868 -36.60889053
v 12.85189827 87.71892693 -36.98376894
v 12.69253505 89.79641221 -29.20830641
v 44.25160217 85.57606506 -43.34093094
v 44.18691635 81.10519409 -49.80417252
v 12.92111576 84.30135759 -44.46127005
v 44.27980804 75.60504913 -55.46905899
v 12.99239442 79.61262444 -51.46960660
v 44.75710678 63.47115707 -62.92076111
v 13.39653429 62.46349379 -64.79291705
v 13.08061631 74.09126024 -57.36907054
v 44.48965073 69.56655121 -59.89799500
v 13.80914245 51.38693836 -67.01843312
v 45.26418686 52.18342209 -65.11931610
v 40.29429245 21.28041267 -65.79623413
v 17.64693504 -50.43660663 -67.06991333
v 49.91552734 52.42952728 -63.21561050
v 45.27083588 52.04424667 -65.11888123
v 49.44460678 63.53513718 -60.98013687
v 49.14869308 73.07559204 -55.50699997
v 49.08609009 80.84659576 -47.89818192
v 49.31135559 86.59759521 -38.60935974
v 49.90815735 89.67179108 -27.93082809
v 50.90177536 89.25765228 -16.82122040
v 52.09770203 85.93347168 -6.47774029
v 53.32902908 80.46102142 2.78045058
v 54.50226212 73.13596344 10.72363377
v 16.05229732 -73.75221219 12.98968833
v 53.09864044 -65.99327850 16.14763069
v 52.65327454 -71.99442291 11.66839314
v 52.02349091 -77.74344635 5.65798235
v 16.33396881 -86.88571410 -6.61483498
v 51.26113892 -82.63525391 -1.48285317
v 16.41968300 -88.91178866 -14.12157469
v 50.46145630 -86.19164276 -9.08177757
v 49.71525955 -88.25922394 -16.52453232
v 16.37839573 -88.99210352 -29.24349280
v 49.07978058 -88.94327545 -23.45451546
v 48.12304688 -86.64689636 -36.52379990
v 48.56581116 -88.41674805 -29.90612030
v 16.47003619 -86.91613840 -36.99647436
v 16.39589386 -83.49940356 -44.47640722
v 47.76464844 -83.51775360 -43.26765442
v 16.27232952 -78.81604441 -51.48089494
v 47.51406479 -79.05772400 -49.74725723
v 16.13186362 -73.30241475 -57.37416669
v 47.37806702 -73.55510712 -55.43078613
v 47.33621979 -67.50361633 -59.87662506
v 47.38614273 -50.07188034 -65.11863708
v 15.96882880 -61.67617247 -64.79255724
v 47.34925079 -61.39030075 -62.91149902
v 31.46996880 -50.40110016 -66.65010834
v 28.62909913 51.79847108 -66.70028597
v 41.14903641 -19.58398819 -65.79528046
v 52.02751541 -61.23845673 -60.98464966
v 47.27669144 -7.02232981 -65.01198578
v 47.38746643 -49.94934845 -65.11811829
v 52.08472824 -49.87644958 -63.18490219
v 52.03831482 -50.12309265 -63.21907043
v 58.13298798 -61.35227966 16.79347610
v 58.35597024 -50.02124371 19.54816985
v 57.48856735 -70.62728119 10.70718479
v 56.61672592 -77.99414062 2.76671934
v 55.61067963 -83.51313019 -6.48941708
v 54.55183029 -86.88344574 -16.83194542
v 53.57590103 -87.33585358 -27.94093132
v 52.85297775 -84.28617859 -38.61740875
v 52.38985443 -78.54843903 -47.90394211
v 52.12945175 -70.78191376 -55.51139832
v 13.50430679 -38.72884750 -67.09999847
v 47.38876724 -49.82660294 -65.11760712
v 47.47342300 -28.42048836 -65.04591370
v 48.23748779 1.00533319 -64.79162598
v 14.88961220 39.31652832 -67.09999847
v 46.25361252 30.44251251 -65.04611969
v 46.94564056 8.97248363 -65.01198578
v 45.27824020 51.90268707 -65.11827850
v 49.96925354 52.14735413 -63.18484879
v 61.86163578 -51.94325077 15.62515003
v 61.33076859 4.74093246 15.86819172
v 56.26296234 52.57921600 19.51785088
v 59.55722697 54.90052076 15.75798356
v 58.99030685 61.35603333 14.05783653
v 58.66565249 66.24401413 11.18884391
v 51.76540756 52.53115845 -61.41204453
v 52.65901596 63.88849590 -56.85388322
v 52.53531637 75.50344853 -48.74056594
v 52.75027590 83.42549384 -38.19944043
v 53.42506277 86.78954151 -27.59134281
v 54.14933395 86.55876923 -19.46834755
v 55.47004835 83.66841587 -9.22788349
v 57.25611865 75.89566391 2.88165719
v 53.11600024 52.58669898 -59.14759365
v 55.24381481 -50.14782053 -59.16495556
v 54.91613007 2.50483274 -59.05028915
v 52.08238220 -50.12364197 -63.18595505
v 55.24203977 -60.75952022 -57.18536296
v 61.61556254 -58.76593638 13.84028537
v 61.19140513 -65.23914661 10.10615456
v 60.18758446 -73.57587087 2.83182778
v 59.47072825 -78.62422163 -5.06590919
v 58.17623989 -83.29081755 -15.77723561
v 57.02593261 -84.27782897 -27.50150438
v 56.11691226 -80.92984877 -38.40556029
v 55.56912270 -72.17057225 -49.64012559
v 8.95305729 36.19301605 -67.09999847
vn -0.03441628 -0.09358090 0.99501665
vn -0.09219600 -0.32668281 0.94062652
vn 0.00605952 0.09898503 0.99507047
vn 0.00344940 -0.36992464 0.92905536
vn -0.08332600 -0.07996590 0.99330873
vn -0.03973212 0.09133576 0.99502720
vn -0.19109557 -0.28984067 0.93780321
vn -0.08653235 0.07623793 0.99332771
vn -0.10841136 -0.04855059 0.99291984
vn -0.22735486 -0.17060424 0.95875125
vn -0.11002232 0.04425312 0.99294348
vn -0.22837533 -0.07499004 0.97068079
vn -0.13789026 -0.00282240 0.99044349
vn -0.23139262 0.06548782 0.97065380
vn -0.23427755 0.16109866 0.95872898
vn -0.20239473 0.28041375 0.93829873
vn -0.10603713 0.32248196 0.94061762
vn -0.00948442 0.36907078 0.92935290
vn -0.53938859 0.82185384 0.18334723
vn -0.57821590 0.79978986 -0.16125306
vn -0.30402926 0.94459347 -0.12373107
vn -0.32842519 0.93509192 0.13319161
vn -0.25151787 0.89622388 0.36540595
vn -0.09710594 0.98599052 0.13562127
vn -0.17807718 0.97192430 0.15379097
vn -0.45047476 0.73280289 0.50997296
vn -0.20904918 0.77657206 0.59433515
vn -0.33343601 0.53736358 0.77463592
vn -0.16186623 0.58168818 0.79714377
vn -0.03301999 0.77968521 0.62530045
vn -0.41337047 0.34674674 0.84195698
vn -0.60171996 0.52098136 0.60540194
vn -0.74103279 0.61919837 0.25973790
vn -0.78132694 0.61665185 -0.09627415
vn -0.32337571 0.87537634 -0.35936669
vn -0.56374468 0.70448513 -0.43115268
vn -0.75039877 0.53389002 -0.38969620
vn -0.31455272 0.77155330 -0.55295758
vn -0.51735248 0.56790917 -0.64017621
vn -0.69549233 0.41026024 -0.58989572
vn -0.29086276 0.60441852 -0.74167183
vn -0.44636877 0.31548870 -0.83738988
vn -0.58329680 0.26464393 -0.76793778
vn -0.54795403 0.34800301 -0.76068409
vn -0.24094863 0.37092415 -0.89686065
vn -0.37431771 0.19941642 -0.90560441
vn -0.27999087 0.08652343 -0.95609561
vn -0.20732894 0.96288511 -0.17282065
vn -0.13054552 0.98237578 -0.13377481
vn -0.14769547 0.11716395 -0.98206856
vn -0.87775405 0.39714106 -0.26800522
vn -0.84242736 0.26714451 -0.46792088
vn -0.79387338 0.19990278 -0.57428559
vn -0.91033745 -0.01978511 -0.41339361
vn -0.98539731 -0.02145446 -0.16891370
vn -0.70687609 0.15600285 -0.68991978
vn -0.76737394 -0.01644627 -0.64098888
vn -0.84049184 -0.01824144 -0.54151705
vn -0.53406723 0.04098321 -0.84444809
vn -0.68827478 -0.01363337 -0.72532197
vn -0.54341452 0.11956036 -0.83090673
vn -0.94575289 0.32469249 0.01123661
vn -0.86339628 0.32166316 0.38868969
vn -0.65566692 0.24901791 0.71280500
vn -0.41977662 0.15011753 0.89512698
vn -0.26871467 -0.00568246 0.96320306
vn -0.46850607 -0.01004971 0.88340312
vn -0.69932396 -0.01517003 0.71464388
vn -0.98947299 -0.02159508 0.14309737
vn -0.88745366 -0.01934043 0.46049098
vn -0.92509849 0.21273119 -0.31454446
vn -0.41260960 -0.16789337 0.89530170
vn -0.64347020 -0.27730209 0.71347716
vn -0.84750584 -0.35954871 0.39045945
vn -0.93006542 -0.36713364 0.01382798
vn -0.91532982 -0.25325511 -0.31310250
vn -0.78366415 -0.23486065 -0.57507475
vn -0.69777377 -0.18547074 -0.69189043
vn -0.53675470 -0.03615828 -0.84296321
vn -0.08977297 -0.98688755 -0.13414090
vn -0.16717202 -0.97074229 -0.17237440
vn -0.02213295 -0.99957160 -0.01915091
vn -0.13801846 -0.97865983 0.15223613
vn -0.21073674 -0.90687937 0.36491072
vn -0.00780649 -0.87292867 0.48778540
vn -0.17485271 -0.78557456 0.59354792
vn -0.41771315 -0.75436351 0.50641033
vn -0.50162007 -0.84627007 0.17945549
vn -0.13670231 -0.58860093 0.79678192
vn -0.31039485 -0.55354207 0.77281706
vn 0.00030974 -0.78054513 0.62509935
vn -0.28267472 -0.88952292 -0.35894844
vn -0.27899854 -0.78528687 -0.55270638
vn -0.26254247 -0.61686938 -0.74198627
vn -0.22301909 -0.38064968 -0.89742315
vn -0.14078045 -0.12306152 -0.98236283
vn -0.04866608 -0.00955617 -0.99876939
vn -0.27851671 -0.09591710 -0.95562982
vn -0.36585861 -0.21550063 -0.90537669
vn -0.48832174 -0.58971581 -0.64325512
vn -0.52935988 -0.72903361 -0.43392179
vn -0.26209936 -0.95717700 -0.12294760
vn -0.54057384 -0.82493187 -0.16512824
vn -0.43149186 -0.33282847 -0.83847480
vn -0.67686415 -0.44448658 -0.58675941
vn -0.53392456 -0.37431204 -0.75816559
vn -0.72561415 -0.56982149 -0.38572992
vn -0.75193370 -0.65264412 -0.09301268
vn -0.71126456 -0.65236824 0.26176020
vn -0.57729385 -0.54716172 0.60609063
vn -0.39774346 -0.36418706 0.84212109
vn -0.57103022 -0.28544834 -0.76970367
vn -0.53123130 -0.11743735 -0.83904814
vn -0.85957013 -0.43643046 -0.26583387
vn -0.82979388 -0.30532484 -0.46713901
vn -0.20038153 0.97967068 -0.00962322
vn -0.41715478 0.90449097 -0.08875793
vn -0.06358848 0.99780804 -0.01832010
vn -0.05602775 -0.98916332 0.13570855
vn -0.15747339 -0.98745860 -0.01129814
vn -0.37729681 -0.92164275 -0.09067395
vn -0.28778991 -0.94829834 0.13381785
vn 0.15771783 0.11641266 0.98059838
vn 0.01867628 -0.10356722 0.99444710
vn 0.17867631 0.33339770 0.92570014
vn 0.17430698 -0.09680985 0.97992088
vn 0.27352370 0.02852255 0.96144228
vn 0.45383525 0.01069297 0.89102145
vn 0.52567756 0.37894223 0.76162057
vn 0.42154552 0.11982545 0.89885551
vn 0.18520616 0.00058309 0.98269952
vn 0.20608852 0.00427217 0.97852403
vn 0.39657423 -0.00437278 0.91799224
vn 0.19289870 -0.31897775 0.92792418
vn 0.16306031 0.67227682 0.72211856
vn -0.02432115 0.63865699 0.76910710
vn 0.17964522 0.53707414 0.82418382
vn 0.15825981 0.77680372 0.60953245
vn -0.04469660 0.87149690 0.48835987
vn 0.14890992 0.86846178 0.47286359
vn -0.05409536 0.93763623 0.34338317
vn 0.13730642 0.93798080 0.31833782
vn -0.03697944 0.98081506 0.19140101
vn 0.11536856 0.98004217 0.16188715
vn 0.10859300 0.97561476 -0.19074434
vn 0.12143090 0.99259541 -0.00298117
vn 0.11619296 0.93402744 -0.33777499
vn -0.09759139 0.93396155 -0.34379025
vn -0.06455772 0.98038874 -0.18619943
vn 0.12867327 0.85670210 -0.49950445
vn 0.13842258 0.76323889 -0.63111455
vn -0.09998761 0.86791478 -0.48654538
vn 0.16362786 0.65398006 -0.73860409
vn -0.09229944 0.77772735 -0.62178854
vn 0.20741641 0.32463511 -0.92281660
vn -0.05443230 0.37896683 -0.92380802
vn -0.08050032 0.63792982 -0.76587548
vn 0.19295701 0.51232748 -0.83683221
vn -0.02967760 0.10796410 -0.99371173
vn 0.23291548 0.10238564 -0.96709232
vn 0.10083937 0.00251823 -0.99489953
vn -0.01470606 -0.10607967 -0.99424888
vn 0.53314690 0.10998051 -0.83884365
vn 0.18122057 0.00557812 -0.98342666
vn 0.56203938 0.30414638 -0.76915975
vn 0.54693949 0.51200282 -0.66235210
vn 0.50405169 0.67445683 -0.53948111
vn 0.46330897 0.80414277 -0.37242341
vn 0.44851301 0.88254081 -0.14127209
vn 0.46609824 0.87750684 0.11284583
vn 0.47853450 0.81893577 0.31677901
vn 0.50662860 0.72829763 0.46142175
vn 0.52869663 0.59224312 0.60805259
vn 0.00298391 -0.63921648 0.76902106
vn 0.20214980 -0.52595810 0.82613772
vn 0.19079503 -0.66116859 0.72557105
vn 0.19104474 -0.76714626 0.61236307
vn -0.01481922 -0.93945506 0.34235155
vn 0.18541293 -0.85996961 0.47547274
vn 0.00378484 -0.98172073 0.19028945
vn 0.17620211 -0.93055890 0.32095630
vn 0.15586591 -0.97382491 0.16544143
vn -0.02415771 -0.98210218 -0.18679326
vn 0.16254694 -0.98670058 -0.00067602
vn 0.15479030 -0.92907860 -0.33593589
vn 0.14791565 -0.97099265 -0.18786759
vn -0.05800397 -0.93740558 -0.34337490
vn -0.06265786 -0.87147857 -0.48641454
vn 0.16380342 -0.85145181 -0.49819499
vn -0.05865768 -0.78099318 -0.62177884
vn 0.16962315 -0.75803764 -0.62976735
vn -0.05275081 -0.64071113 -0.76596775
vn 0.19067622 -0.64749234 -0.73783213
vn 0.21399321 -0.50449853 -0.83647363
vn 0.23743809 -0.09270140 -0.96696929
vn -0.03877651 -0.37931379 -0.92445521
vn 0.22061477 -0.31652128 -0.92257433
vn 0.06225254 -0.11350414 -0.99158531
vn 0.05475165 0.11563203 -0.99178198
vn 0.10121565 0.00173072 -0.99486300
vn 0.57532634 -0.27776528 -0.76931532
vn 0.16672994 0.00311102 -0.98599769
vn 0.33381502 0.00038496 -0.94263852
vn 0.67934878 0.00586517 -0.73379209
vn 0.48795884 -0.08561939 -0.86865729
vn 0.54502866 -0.35682974 0.75869381
vn 0.53694126 -0.09413232 0.83835147
vn 0.54668144 -0.57236123 0.61118084
vn 0.52902059 -0.70878249 0.46665255
vn 0.52461492 -0.79429395 0.30639241
vn 0.50115694 -0.85889232 0.10557318
vn 0.48465038 -0.86309289 -0.14207274
vn 0.49563740 -0.78489685 -0.37186086
vn 0.53530235 -0.65036906 -0.53895406
vn 0.56425952 -0.48854047 -0.66553693
vn 0.00326971 -0.00115483 -0.99999399
vn 0.24069224 0.00150358 -0.97060032
vn 0.18443701 0.00256732 -0.98284098
vn 0.34954971 0.00724952 -0.93688977
vn -0.01685092 0.00200794 -0.99985600
vn 0.18456929 0.00507909 -0.98280638
vn 0.16671640 0.00379123 -0.98599760
vn 0.22735163 0.00765150 -0.97378267
vn 0.62763814 0.02342396 -0.77815274
vn 0.93163034 -0.06976242 0.35664846
vn 0.93094797 0.02042117 0.36458037
vn 0.62693203 0.11221207 0.77095050
vn 0.92429047 0.11088518 0.36522816
vn 0.89383761 0.22062302 0.39035856
vn 0.92287306 0.27963995 0.26477689
vn 0.77593355 0.09293730 -0.62393091
vn 0.90149233 0.20017820 -0.38371898
vn 0.88794702 0.32131676 -0.32909821
vn 0.86878783 0.42786553 -0.24927653
vn 0.86098411 0.49256359 -0.12683637
vn 0.85998255 0.50955090 -0.02806954
vn 0.88669491 0.45528505 0.08054607
vn 0.90815417 0.37490486 0.18628567
vn 0.94473213 0.06896436 -0.32050760
vn 0.92342944 -0.03354777 -0.38229912
vn 0.91582965 0.01871813 -0.40113050
vn 0.69194110 -0.07270886 -0.71828333
vn 0.90799211 -0.15000632 -0.39121405
vn 0.93289565 -0.16587100 0.31967565
vn 0.93208122 -0.25436933 0.25791634
vn 0.90376703 -0.36826435 0.21814334
vn 0.92080364 -0.37465751 0.10840851
vn 0.89675570 -0.44223661 0.01599997
vn 0.88219905 -0.45430400 -0.12382532
vn 0.88041718 -0.39877919 -0.25659452
vn 0.90037018 -0.27774592 -0.33494886
vn -0.04272507 0.00609916 -0.99906825
f 26//26 23//23 19//19
f 19//19 33//33 26//26
f 26//26 33//33 32//32
f 32//32 33//33 63//63
f 95//95 196//196 192//192
f 198//198 195//195 197//197
f 188//188 92//92 93//93
f 100//100 105//105 106//106
f 102//102 92//92 81//81
f 29//29 17//17 18//18
f 109//109 87//87 110//110
f 69//69 75//75 74//74
f 74//74 109//109 110//110
f 75//75 109//109 74//74
f 55//55 75//75 69//69
f 31//31 65//65 15//15
f 32//32 63//63 64//64
f 64//64 31//31 32//32
f 65//65 31//31 64//64
f 67//67 65//65 64//64
f 10//10 72//72 111//111
f 18//18 123//123 125//125
f 129//129 230//230 173//173
f 30//30 138//138 139//139
f 40//40 56//56 53//53
f 205//205 195//195 219//219
f 197//197 195//195 205//205
f 95//95 192//192 94//94
f 93//93 100//100 94//94
f 196//196 198//198 197//197
f 189//189 188//188 190//190
f 102//102 81//81 120//120
f 80//80 81//81 187//187
f 80//80 120//120 81//81
f 181//181 182//182 211//211
f 197//197 205//205 201//201
f 201//201 205//205 242//242
f 202//202 222//222 219//219
f 219//219 218//218 202//202
f 202//202 218//218 222//222
f 15//15 11//11 8//8
f 8//8 11//11 5//5
f 23//23 26//26 27//27
f 27//27 30//30 139//139
f 27//27 29//29 136//136
f 136//136 29//29 18//18
f 229//229 230//230 129//129
f 129//129 125//125 130//130
f 130//130 125//125 123//123
f 126//126 133//133 131//131
f 133//133 132//132 131//131
f 225//225 241//241 226//226
f 207//207 133//133 126//126
f 126//126 134//134 207//207
f 124//124 134//134 126//126
f 126//126 123//123 124//124
f 134//134 124//124 4//4
f 67//67 64//64 68//68
f 28//28 27//27 26//26
f 29//29 27//27 28//28
f 28//28 26//26 32//32
f 32//32 31//31 28//28
f 15//15 65//65 14//14
f 12//12 72//72 10//10
f 10//10 9//9 12//12
f 156//156 50//50 45//45
f 159//159 50//50 156//156
f 157//157 156//156 45//45
f 23//23 27//27 139//139
f 48//48 49//49 148//148
f 23//23 141//141 25//25
f 141//141 24//24 25//25
f 25//25 22//22 23//23
f 143//143 24//24 141//141
f 154//154 38//38 152//152
f 44//44 43//43 40//40
f 60//60 56//56 59//59
f 135//135 173//173 138//138
f 155//155 160//160 199//199
f 219//219 222//222 221//221
f 222//222 218//218 221//221
f 198//198 199//199 161//161
f 161//161 199//199 160//160
f 242//242 205//205 204//204
f 106//106 105//105 112//112
f 50//50 47//47 45//45
f 50//50 98//98 47//47
f 96//96 98//98 50//50
f 99//99 113//113 98//98
f 95//95 99//99 98//98
f 98//98 96//96 95//95
f 104//104 94//94 100//100
f 104//104 99//99 95//95
f 95//95 94//94 104//104
f 104//104 113//113 99//99
f 190//190 94//94 192//192
f 93//93 94//94 190//190
f 190//190 188//188 93//93
f 92//92 188//188 187//187
f 187//187 81//81 92//92
f 185//185 186//186 187//187
f 185//185 188//188 189//189
f 185//185 187//187 188//188
f 187//187 186//186 183//183
f 183//183 80//80 187//187
f 186//186 185//185 212//212
f 178//178 181//181 85//85
f 85//85 84//84 178//178
f 197//197 201//201 194//194
f 194//194 196//196 197//197
f 192//192 196//196 194//194
f 194//194 193//193 192//192
f 215//215 201//201 243//243
f 193//193 194//194 215//215
f 215//215 194//194 201//201
f 238//238 173//173 230//230
f 163//163 160//160 155//155
f 155//155 165//165 163//163
f 219//219 160//160 163//163
f 163//163 205//205 219//219
f 15//15 14//14 11//11
f 84//84 85//85 86//86
f 87//87 84//84 86//86
f 5//5 10//10 7//7
f 10//10 111//111 7//7
f 6//6 17//17 8//8
f 8//8 5//5 6//6
f 3//3 1//1 124//124
f 3//3 6//6 1//1
f 17//17 6//6 3//3
f 3//3 124//124 123//123
f 18//18 17//17 3//3
f 3//3 123//123 18//18
f 230//230 229//229 228//228
f 228//228 229//229 129//129
f 132//132 130//130 127//127
f 127//127 131//131 132//132
f 127//127 123//123 126//126
f 126//126 131//131 127//127
f 128//128 132//132 133//133
f 128//128 130//130 132//132
f 228//228 226//226 241//241
f 87//87 109//109 88//88
f 88//88 84//84 87//87
f 107//107 103//103 108//108
f 108//108 109//109 75//75
f 108//108 88//88 109//109
f 103//103 88//88 108//108
f 101//101 103//103 107//107
f 105//105 100//100 101//101
f 101//101 107//107 105//105
f 101//101 100//100 93//93
f 93//93 92//92 101//101
f 92//92 103//103 101//101
f 206//206 207//207 134//134
f 91//91 176//176 174//174
f 174//174 86//86 91//91
f 69//69 74//74 70//70
f 70//70 63//63 69//69
f 70//70 64//64 63//63
f 70//70 68//68 64//64
f 73//73 74//74 110//110
f 73//73 70//70 74//74
f 68//68 70//70 73//73
f 73//73 72//72 67//67
f 67//67 68//68 73//73
f 110//110 111//111 73//73
f 73//73 111//111 72//72
f 17//17 29//29 16//16
f 29//29 28//28 16//16
f 8//8 17//17 16//16
f 16//16 31//31 15//15
f 16//16 28//28 31//31
f 15//15 8//8 16//16
f 11//11 14//14 13//13
f 9//9 10//10 5//5
f 5//5 11//11 9//9
f 66//66 12//12 13//13
f 13//13 14//14 66//66
f 67//67 72//72 66//66
f 72//72 12//12 66//66
f 66//66 65//65 67//67
f 66//66 14//14 65//65
f 41//41 38//38 154//154
f 154//154 157//157 41//41
f 41//41 157//157 45//45
f 116//116 49//49 48//48
f 116//116 118//118 49//49
f 118//118 24//24 146//146
f 22//22 117//117 19//19
f 19//19 23//23 22//22
f 48//48 148//148 35//35
f 148//148 152//152 35//35
f 35//35 152//152 38//38
f 148//148 147//147 152//152
f 147//147 168//168 150//150
f 150//150 152//152 147//147
f 57//57 60//60 78//78
f 56//56 60//60 57//57
f 58//58 53//53 57//57
f 57//57 53//53 56//56
f 105//105 107//107 115//115
f 77//77 78//78 105//105
f 105//105 115//115 77//77
f 58//58 57//57 77//77
f 77//77 57//57 78//78
f 137//137 135//135 136//136
f 18//18 125//125 137//137
f 137//137 136//136 18//18
f 137//137 125//125 129//129
f 129//129 173//173 137//137
f 173//173 135//135 137//137
f 30//30 135//135 138//138
f 136//136 135//135 30//30
f 30//30 27//27 136//136
f 159//159 252//252 50//50
f 155//155 199//199 156//156
f 223//223 160//160 219//219
f 219//219 221//221 223//223
f 195//195 198//198 200//200
f 198//198 161//161 200//200
f 69//69 63//63 62//62
f 62//62 55//55 69//69
f 62//62 63//63 33//33
f 71//71 54//54 55//55
f 34//34 33//33 19//19
f 34//34 62//62 33//33
f 43//43 61//61 56//56
f 43//43 56//56 40//40
f 243//243 201//201 242//242
f 242//242 240//240 243//243
f 242//242 204//204 240//240
f 78//78 60//60 79//79
f 100//100 106//106 104//104
f 113//113 104//104 112//112
f 78//78 113//113 112//112
f 105//105 78//78 112//112
f 112//112 104//104 106//106
f 198//198 196//196 162//162
f 96//96 97//97 162//162
f 96//96 162//162 196//196
f 96//96 196//196 95//95
f 249//249 248//248 211//211
f 211//211 212//212 249//249
f 213//213 212//212 185//185
f 213//213 185//185 189//189
f 183//183 186//186 82//82
f 177//177 176//176 91//91
f 178//178 119//119 180//180
f 178//178 83//83 119//119
f 182//182 181//181 178//178
f 178//178 180//180 182//182
f 84//84 83//83 178//178
f 102//102 120//120 122//122
f 122//122 83//83 84//84
f 249//249 251//251 248//248
f 251//251 215//215 243//243
f 189//189 190//190 191//191
f 192//192 193//193 191//191
f 191//191 190//190 192//192
f 138//138 173//173 172//172
f 173//173 238//238 172//172
f 23//23 139//139 141//141
f 224//224 204//204 205//205
f 205//205 163//163 224//224
f 147//147 148//148 145//145
f 87//87 86//86 90//90
f 90//90 7//7 111//111
f 110//110 87//87 90//90
f 90//90 111//111 110//110
f 1//1 6//6 5//5
f 129//129 130//130 227//227
f 227//227 228//228 129//129
f 130//130 128//128 227//227
f 227//227 128//128 133//133
f 123//123 127//127 130//130
f 207//207 206//206 225//225
f 225//225 226//226 207//207
f 207//207 227//227 133//133
f 226//226 227//227 207//207
f 175//175 206//206 134//134
f 134//134 4//4 175//175
f 86//86 174//174 89//89
f 89//89 90//90 86//86
f 7//7 90//90 89//89
f 11//11 13//13 9//9
f 42//42 41//41 45//45
f 61//61 43//43 42//42
f 25//25 24//24 116//116
f 116//116 24//24 118//118
f 22//22 25//25 116//116
f 36//36 35//35 38//38
f 152//152 150//150 154//154
f 151//151 154//154 150//150
f 107//107 108//108 114//114
f 115//115 54//54 58//58
f 58//58 77//77 115//115
f 159//159 156//156 199//199
f 159//159 199//199 220//220
f 160//160 223//223 164//164
f 195//195 200//200 164//164
f 164//164 161//161 160//160
f 164//164 200//200 161//161
f 217//217 218//218 219//219
f 195//195 164//164 217//217
f 217//217 164//164 223//223
f 217//217 221//221 218//218
f 217//217 223//223 221//221
f 55//55 62//62 71//71
f 52//52 53//53 58//58
f 58//58 54//54 52//52
f 56//56 61//61 59//59
f 59//59 98//98 113//113
f 240//240 204//204 241//241
f 234//234 168//168 235//235
f 79//79 60//60 59//59
f 79//79 59//59 113//113
f 78//78 79//79 113//113
f 162//162 199//199 198//198
f 220//220 199//199 162//162
f 252//252 97//97 50//50
f 249//249 213//213 250//250
f 212//212 213//213 249//249
f 193//193 215//215 214//214
f 214//214 191//191 193//193
f 214//214 213//213 189//189
f 189//189 191//191 214//214
f 182//182 180//180 119//119
f 184//184 82//82 186//186
f 186//186 212//212 184//184
f 182//182 119//119 184//184
f 184//184 119//119 82//82
f 211//211 182//182 184//184
f 184//184 212//212 211//211
f 209//209 177//177 179//179
f 179//179 85//85 181//181
f 83//83 122//122 120//120
f 119//119 83//83 120//120
f 84//84 88//88 122//122
f 209//209 247//247 246//246
f 211//211 248//248 210//210
f 248//248 247//247 210//210
f 210//210 247//247 209//209
f 210//210 181//181 211//211
f 210//210 179//179 181//181
f 209//209 179//179 210//210
f 248//248 251//251 247//247
f 251//251 243//243 247//247
f 142//142 143//143 141//141
f 231//231 163//163 165//165
f 165//165 232//232 231//231
f 231//231 224//224 163//163
f 241//241 204//204 231//231
f 204//204 224//224 231//231
f 149//149 145//145 148//148
f 149//149 148//148 49//49
f 86//86 85//85 91//91
f 91//91 179//179 177//177
f 85//85 179//179 91//91
f 228//228 227//227 226//226
f 176//176 175//175 174//174
f 174//174 175//175 4//4
f 4//4 89//89 174//174
f 208//208 209//209 246//246
f 246//246 245//245 208//208
f 208//208 245//245 206//206
f 176//176 177//177 208//208
f 208//208 177//177 209//209
f 208//208 175//175 176//176
f 206//206 175//175 208//208
f 206//206 245//245 244//244
f 2//2 89//89 4//4
f 124//124 1//1 2//2
f 2//2 4//4 124//124
f 7//7 89//89 2//2
f 5//5 7//7 2//2
f 2//2 1//1 5//5
f 12//12 9//9 13//13
f 20//20 117//117 35//35
f 35//35 36//36 20//20
f 19//19 117//117 20//20
f 20//20 34//34 19//19
f 38//38 41//41 39//39
f 39//39 36//36 38//38
f 41//41 42//42 39//39
f 39//39 44//44 40//40
f 40//40 36//36 39//39
f 37//37 36//36 40//40
f 34//34 20//20 37//37
f 37//37 20//20 36//36
f 154//154 151//151 157//157
f 21//21 117//117 22//22
f 22//22 116//116 21//21
f 21//21 116//116 48//48
f 48//48 35//35 21//21
f 35//35 117//117 21//21
f 114//114 115//115 107//107
f 114//114 108//108 75//75
f 219//219 195//195 203//203
f 203//203 217//217 219//219
f 195//195 217//217 203//203
f 71//71 62//62 51//51
f 71//71 52//52 54//54
f 34//34 37//37 51//51
f 47//47 98//98 46//46
f 98//98 59//59 46//46
f 46//46 59//59 61//61
f 61//61 42//42 46//46
f 45//45 47//47 46//46
f 46//46 42//42 45//45
f 245//245 243//243 244//244
f 247//247 243//243 245//245
f 246//246 247//247 245//245
f 225//225 244//244 240//240
f 240//240 241//241 225//225
f 244//244 243//243 240//240
f 216//216 162//162 97//97
f 96//96 50//50 97//97
f 251//251 214//214 215//215
f 82//82 80//80 183//183
f 119//119 120//120 82//82
f 120//120 80//80 82//82
f 121//121 88//88 103//103
f 169//169 145//145 146//146
f 169//169 235//235 168//168
f 169//169 168//168 147//147
f 147//147 145//145 169//169
f 138//138 172//172 140//140
f 139//139 138//138 140//140
f 140//140 141//141 139//139
f 140//140 142//142 141//141
f 146//146 24//24 144//144
f 24//24 143//143 144//144
f 143//143 142//142 144//144
f 241//241 231//231 239//239
f 149//149 118//118 146//146
f 146//146 145//145 149//149
f 49//49 118//118 149//149
f 232//232 238//238 230//230
f 225//225 206//206 244//244
f 153//153 157//157 151//151
f 168//168 234//234 167//167
f 234//234 233//233 167//167
f 167//167 150//150 168//168
f 167//167 151//151 150//150
f 167//167 153//153 151//151
f 55//55 54//54 76//76
f 52//52 71//71 51//51
f 51//51 37//37 52//52
f 52//52 37//37 40//40
f 62//62 34//34 51//51
f 238//238 237//237 172//172
f 172//172 237//237 171//171
f 171//171 140//140 172//172
f 142//142 140//140 171//171
f 251//251 249//249 250//250
f 214//214 251//251 250//250
f 213//213 214//214 250//250
f 121//121 122//122 88//88
f 121//121 103//103 92//92
f 239//239 231//231 232//232
f 42//42 44//44 39//39
f 43//43 44//44 42//42
f 158//158 165//165 155//155
f 155//155 156//156 158//158
f 158//158 156//156 157//157
f 157//157 153//153 158//158
f 153//153 167//167 166//166
f 165//165 158//158 166//166
f 166//166 158//158 153//153
f 166//166 232//232 165//165
f 166//166 167//167 233//233
f 75//75 55//55 76//76
f 115//115 114//114 76//76
f 54//54 115//115 76//76
f 40//40 53//53 52//52
f 233//233 237//237 238//238
f 232//232 233//233 238//238
f 234//234 235//235 233//233
f 235//235 237//237 233//233
f 121//121 92//92 102//102
f 239//239 232//232 230//230
f 230//230 228//228 239//239
f 239//239 228//228 241//241
f 232//232 166//166 233//233
f 236//236 237//237 235//235
f 102//102 122//122 121//121
f 76//76 114//114 75//75
f 171//171 237//237 170//170
f 237//237 236//236 170//170
f 170//170 144//144 142//142
f 142//142 171//171 170//170
f 170//170 169//169 146//146
f 146//146 144//144 170//170
f 235//235 169//169 170//170
f 170//170 236//236 235//235
f 220//220 162//162 216//216
f 216//216 159//159 220//220
f 252//252 159//159 216//216
f 216//216 97//97 252//252

