# https://github.com/mikedh/trimesh
v -8.19999981 -0.39117646 9.49194336
v -5.00000000 -1.35665333 9.40260410
v -8.19999981 -1.67544425 9.35109043
v -10.00000000 7.75000000 9.50000000
v -10.00000000 7.36731672 9.42387962
v -11.00000000 7.75000000 8.50000000
v -11.00000000 20.50000000 8.50000000
v -8.39962700 -8.90092681 2.69576847
v -8.39999962 -8.41010761 3.96984935
v -8.39999962 -7.79350281 5.07445717
v -8.39999962 -7.03327608 6.08450747
v -8.39999962 -6.14356041 6.98172665
v -8.39999962 -6.94911098 -6.18044662
v -8.39999962 -7.74674988 -5.14552975
v -8.39999962 -8.39189053 -4.00820923
v -8.40000053 -8.89792077 -2.70533668
v -8.20133917 -9.10265330 -2.66436834
v -8.19999981 -9.06242275 -2.84999990
v -8.19999981 -7.91475725 -5.25419998
v -8.19999981 -8.57328415 -4.09252930
v -8.19999981 -7.09985304 -6.31205893
v -8.39999962 -6.01474380 -7.09298372
v -8.19999981 -6.14467144 -7.24520636
v -8.39999962 -4.96189880 -7.86556530
v -8.39999962 -3.81108236 -8.48314285
v -8.19999981 -5.06808472 -8.03520489
v -8.39999962 -2.58453465 -8.93357658
v -8.19999981 -3.89136481 -8.66644573
v -8.19999981 -2.63775992 -9.12645721
v -8.19999981 -1.33203900 -9.40615082
v -10.00000000 7.36731672 -9.42387962
v -8.39999962 -5.14061117 7.74996471
v -8.39999962 -4.04261923 8.37528706
v -8.39688356 -2.78809265 8.87898414
v -8.19999981 -2.92872453 9.03728771
v -8.19999981 -4.12783766 8.55634022
v -8.19999981 -5.25060606 7.91714191
v -8.19999981 -6.27626371 7.13151550
v -8.20263436 -7.10768244 6.30442291
v -8.19999981 -7.96251631 5.18153763
v -8.19999981 -8.59192371 4.05325127
v -8.19999981 -9.06242275 2.84999990
v -8.20057155 -9.10236266 2.66830358
v -5.00000000 -8.63888168 3.95195222
v -7.46424592 -9.26818041 2.09566456
v -5.00000000 -9.11331463 2.68258834
v -5.00000000 -2.68258834 9.11331463
v -5.00000000 -3.95195222 8.63888168
v -5.00000000 -6.22224522 7.17852497
v -4.15535896 -8.21245070 4.78329509
v -5.00000000 -9.11331463 -2.68258834
v -5.00000000 -9.40260410 1.35665333
v -5.00000000 -9.40260410 -1.35665333
v -5.00000000 -9.50000000 0.00000000
v -7.40000010 -9.50000000 -0.00000000
v -7.39891961 -9.45023273 0.97728547
v -7.40000010 -9.45104504 -0.96319246
v -7.40000010 -9.30467987 -1.91648638
v -5.00000000 -8.63888168 -3.95195222
v -5.00000000 -7.98950052 -5.13961649
v -5.00000000 -7.17852497 -6.22224522
v -5.00000000 -5.13961649 -7.98950052
v -5.00000000 -3.95195222 -8.63888168
v -5.00000000 -2.68258834 -9.11331463
v -5.00000000 -1.35665333 -9.40260410
v -10.00000000 7.75000000 -9.50000000
v -11.00000000 20.50000000 -8.50000000
v -11.00000000 7.75000000 -8.50000000
v -8.15017015 -0.37785967 -9.48777036
v -4.94999981 -1.35026670 9.40356922
v -4.94999981 -2.67547655 9.11539268
v -4.94999981 -3.94572568 8.64164734
v -4.94999981 -5.13048077 7.99579859
v -4.94999981 -7.61283112 5.68279028
v -4.94999981 -8.65014744 3.92728591
v -4.94999981 -9.11000347 -2.69383574
v -4.94999981 -8.63588905 -3.95853758
v -4.94999981 -7.98713636 -5.14334059
v -4.94999981 -7.17592192 -6.22526789
v -4.94999981 -5.13485479 -7.99298716
v -4.94999981 -3.95548463 -8.63716412
v -4.94999981 -2.68739033 -9.11184692
v -4.94999981 -1.35933053 -9.40221214
v 4.94999981 -1.35933053 9.40221214
v 4.15795607 -1.19426320 9.42565933
v 4.94999981 -2.68739033 9.11184692
v 4.94999981 -3.95548463 8.63716412
v 4.94999981 -5.13485479 7.99298716
v 4.94999981 -6.21636581 7.18325377
v 4.94999981 -7.98713636 5.14334059
v 4.94999981 -8.63588905 3.95853758
v 4.94999981 -9.11000347 2.69383574
v -4.94999981 -9.40012264 -1.37373006
v 7.44672901 -9.30344321 1.95834026
v -4.94999981 -9.49996090 -0.02432229
v 4.94999981 -9.49996090 0.02432229
v 4.94999981 -9.40683079 -1.32716608
v 4.94999981 -9.12191200 -2.65331769
v 4.94999981 -8.65014744 -3.92728591
v 4.94999981 -8.34731770 -4.53550673
v 4.94999981 -7.61283112 -5.68279028
v 4.94999981 -8.00029182 -5.12281513
v 4.94999981 -7.18479156 -6.21498156
v 4.94999981 -5.13048077 -7.99579859
v 4.94999981 -3.94572568 -8.64164734
v 4.94999981 -2.67547655 -9.11539268
v 4.94999981 -1.35026670 -9.40356922
v 5.00000000 -2.67547655 9.11539268
v 8.19999981 -1.67544425 9.35109043
v 8.19999981 -0.39117646 9.49194336
v 5.00000000 -3.94572568 8.64164734
v 8.19999981 -2.92872453 9.03728771
v 5.00000000 -5.13048077 7.99579859
v 8.19999981 -4.12783766 8.55634022
v 8.19999981 -5.25060606 7.91714191
v 5.00000000 -6.71995783 6.71506357
v 8.19999981 -6.27626371 7.13151550
v 8.19483348 -7.26084218 6.13118970
v 4.80512386 -8.22385948 4.75653297
v 8.19999981 -7.96251631 5.18153763
v 5.00000000 -8.65014744 3.92728591
v 8.19999981 -8.59192371 4.05325127
v 5.00000000 -9.40012264 -1.37373006
v 5.00000000 -9.40683079 1.32716608
v 5.00000000 -9.11000347 -2.69383574
v 5.00000000 -9.49996090 -0.02432229
v 7.40000010 -9.48226643 0.57830465
v 7.40000010 -9.48226643 -0.57830465
v 7.40000010 -9.34185123 -1.72607362
v 5.00000000 -8.63588905 -3.95853758
v 5.00000000 -7.98713636 -5.14334059
v 8.19999981 -8.57328415 -4.09252930
v 8.19999981 -9.06242275 -2.84999990
v 5.00000000 -7.17592192 -6.22526789
v 8.19999981 -7.91475725 -5.25419998
v 8.19433177 -6.26948136 -7.14154169
v 8.19999981 -7.09985304 -6.31205893
v 5.00000000 -5.13485479 -7.99298716
v 5.00000000 -3.95548463 -8.63716412
v 8.19999981 -5.06808472 -8.03520489
v 5.00000000 -2.68739033 -9.11184692
v 8.19999981 -3.89136481 -8.66644573
v 5.00000000 -1.35933053 -9.40221214
v 8.19999981 -2.63775992 -9.12645721
v 4.98825454 -0.38822580 -9.49600303
v 8.19999981 -1.33203900 -9.40615082
v 8.19999981 0.00000001 -9.50000000
v 10.00000000 7.75000000 -9.50000000
v 10.00000000 7.75000000 9.50000000
v 11.00000000 20.50000000 8.50000000
v 10.00000000 7.36731672 9.42387962
v 11.00000000 7.75000000 8.50000000
v 8.39970614 -8.90073347 -2.69672083
v 8.39999962 -8.39188099 -4.00822926
v 8.39999962 -7.74672842 -5.14556170
v 8.39999962 -6.94907808 -6.18048382
v 8.39999962 -6.01470137 -7.09301949
v 10.00000000 7.36731672 -9.42387962
v 8.39999962 -2.58449745 -8.93358707
v 8.39999962 -3.81103706 -8.48316383
v 8.39999962 -4.96185207 -7.86559486
v 8.19806645 -9.11090556 -2.62367753
v 8.39999962 -7.03323412 6.08455563
v 8.39999962 -6.14350700 6.98177338
v 8.39999962 -5.14055204 7.75000429
v 8.39999962 -4.04256153 8.37531471
v 8.39688617 -2.78806016 8.87899059
v 8.39999962 -7.79347563 5.07449865
v 8.39999962 -8.41009521 3.96987510
v 11.00000000 7.75000000 -8.50000000
v 11.00000000 20.50000000 -8.50000000
v 8.19999981 -9.06242275 2.84999990
v 8.40025593 -8.89797756 2.70348351
v 8.20095569 -9.10389930 2.65727226
v -10.19999981 -1.90430546 -1.10148203
v -10.20040675 -2.19857758 -0.30585762
v -10.19857953 -2.04551431 0.87205175
v 9.79020996 -4.11611128 -3.50043163
v 9.79970400 -4.80048177 2.36615974
v 9.80240999 -4.98700495 -1.95655812
v 9.80284395 -5.26553221 0.96681626
v 9.79891592 -5.33835806 -0.45716421
v 9.80082855 -4.06970053 3.47372155
v -9.99571840 47.44537704 4.92606668
v -10.00000000 47.50000000 -1.64550424
v -8.00000000 32.50000000 -9.50000000
v 8.00000000 32.50000000 -9.50000000
v 10.00000000 47.50000000 -1.64550424
v 7.97369727 48.72962050 -3.31806525
v 9.97568130 48.03966522 -1.50809515
v -7.97298969 48.73519968 -3.31585172
v 7.76161506 49.58565182 -2.99118976
v 7.41102542 50.31058370 -2.71502461
v 7.05325474 50.79597946 -2.53010334
v 6.67289476 51.19747030 -2.37716466
v 5.24942870 52.01858977 -2.06436790
v 4.74436235 52.14199066 -2.01733756
v 4.37253618 52.19503021 -1.99713182
v 4.39638346 53.49066997 -0.12828074
v -7.75815393 49.59502027 -2.98762764
v -7.42390222 50.28656821 -2.72417012
v -4.94888309 52.10130677 -2.03284182
v -5.87906807 51.75144020 -2.16615008
v -4.00000000 52.21199036 -1.99067020
v -4.38070631 52.19397736 -1.99753261
v -4.39538914 53.49072649 -0.12811086
v -9.97661400 48.02923203 -1.51074541
v -9.90947116 48.53969840 4.50045973
v -9.90676975 48.55360031 -1.37800884
v -9.72106455 49.32702300 -1.18216591
v -9.31146864 50.30308714 -0.93386264
v -8.73362827 51.19623520 -0.70119474
v -8.21033080 51.77471049 -0.55998935
v -7.64335253 52.27432082 -0.43203271
v -6.80345947 51.07294793 -2.42464558
v -6.96548796 52.71592712 -0.32077539
v -6.27630288 53.05752743 -0.23270579
v -5.26698057 53.37038118 -0.15344065
v 3.88345143 53.50041436 5.33213021
v -6.05407254 53.13747021 4.50090443
v -7.85815079 52.09502129 4.50024168
v -9.19681229 50.49907963 4.50062252
v -9.63875237 49.55101468 4.50069918
v 3.99999333 52.21199066 -1.99067009
v 5.29545030 53.36423250 -0.15206454
v 6.75912531 52.83431331 -0.28640371
v 8.56713018 51.36554788 5.08813533
v 8.21056189 51.77448095 -0.56006706
v 8.72204917 51.21104305 -0.69848389
v 9.63744962 49.55414127 4.50019015
v 9.17549896 50.53549194 -0.87467921
v 9.94414481 48.38555783 4.40220306
v 9.78571320 49.08919144 -1.24185753
v 9.53273105 49.83618592 -1.05246129
v 9.90368366 48.57075500 -1.37365341
v 6.07090974 53.13134021 -0.21673265
v 7.68819483 52.24006025 -0.44124281
v 5.95696135 51.70290015 -2.18462431
v 2.42371669 47.50437944 12.49098397
v 1.95896492 32.46119268 12.50061754
v 3.12944007 32.50000000 12.41987133
v -2.00000000 47.50000000 12.50000000
v -3.12944007 47.50000000 12.41987133
v -2.32241319 32.46408519 12.49556747
v 2.00000000 48.43173599 12.42721462
v -2.00000000 48.45925903 12.42282200
v -3.12572670 48.53466797 12.32960129
v 3.16130233 47.50000000 12.41526222
v 3.12554622 48.54188919 12.32834625
v 2.00000000 48.54181290 12.40886021
v 3.69743538 32.50000000 12.31784534
v 3.75643539 47.50000000 12.30480194
v 4.25151491 32.50000000 12.17663193
v 4.60456988 47.49485001 12.06919413
v 4.22817945 48.54188919 12.08848286
v 5.27412653 32.50000000 11.79932117
v 5.41185951 47.50000000 11.73596668
v 5.28545380 48.54188919 11.69413948
v 6.17456536 47.53354385 11.32855327
v 6.27584505 48.54188919 11.15334511
v 7.33333635 47.50000000 10.46284485
v 7.09959364 48.43382418 10.57403835
v 7.98308964 48.53110477 9.67656492
v 8.65401182 48.54120919 8.77510157
v 9.29932117 47.50000000 7.77412653
v 9.19413948 48.54188919 7.78545380
v 9.59566426 48.53030030 6.71467529
v 9.84505384 48.41629179 5.69395637
v -2.00000000 48.53393555 12.41024303
v 3.08697200 49.55310440 12.06005573
v 2.00719039 49.42967742 12.18463479
v 4.15181637 49.55310440 11.82841301
v 5.17285585 49.55310440 11.44758511
v 6.12930489 49.55310440 10.92532444
v 7.00169373 49.55310440 10.27226257
v 7.77226210 49.55310440 9.50169373
v 8.42532444 49.55310440 8.62930489
v 8.94758511 49.55310440 7.67285585
v 9.32841301 49.55310440 6.65181637
v 9.56005573 49.55310440 5.58697176
v 9.12186909 50.50181198 5.52397013
v 9.19501071 50.50188941 4.50001718
v -2.00932635 49.48120436 12.16592940
v 3.02397013 50.50181198 11.62186909
v 2.00433107 50.31403149 11.80432231
v 4.02709532 50.50181198 11.40365219
v 4.98895454 50.50181198 11.04489803
v 5.88996744 50.50181198 10.55290699
v 6.71179152 50.50181198 9.93769741
v 7.43769741 50.50181198 9.21179199
v 8.05290699 50.50181198 8.38996696
v 8.54489803 50.50181198 7.48895454
v 8.90365219 50.50181198 6.52709532
v 2.00000000 50.96794510 11.39626026
v -2.01517578 50.39428375 11.75970243
v 2.93845916 51.35913086 11.02712631
v 3.85781407 51.35913086 10.82713318
v 4.73934889 51.35913086 10.49833775
v 5.56511879 51.35913086 10.04743290
v 6.31831312 51.35913086 9.48359871
v 6.98359919 51.35913086 8.81831360
v 7.54743338 51.35913086 8.06511879
v 7.99833775 51.35913086 7.23934889
v 8.32713318 51.35913086 6.35781384
v 7.83710824 52.09495392 5.07045446
v -2.01835765 51.22973512 11.20520381
v 2.01720079 51.52905695 10.95229376
v 2.83304214 52.09895706 10.29393578
v 3.64912605 52.09895706 10.11640739
v 4.43163824 52.09895706 9.82454491
v 5.16464949 52.09895706 9.42429066
v 5.83323765 52.09895706 8.92379189
v 6.42379236 52.09895706 8.33323765
v 6.92429113 52.09895706 7.66464949
v 7.32454538 52.09895706 6.93163824
v 7.61640739 52.09895706 6.14912605
v 6.97505696 52.69977808 5.00379828
v -2.01665104 51.95383414 10.52727699
v 2.02638944 52.20634673 10.22826274
v 3.03755751 52.69787218 9.39802903
v 2.03361773 52.76010138 9.39336200
v 4.34228808 52.70052196 8.92199258
v 5.27133369 52.69876862 8.27532005
v 6.02079520 52.70679856 7.46424464
v 6.68471994 52.70055447 6.24731102
v 6.03314499 53.14018566 4.86466805
v -2.00000000 52.39625931 9.96794415
v -2.51894548 52.69669377 9.48020162
v 2.33611609 53.15206306 8.50847429
v 3.36852194 53.14080888 8.31627674
v 4.42610124 53.13885717 7.75829478
v 5.23538473 53.14519750 6.92198126
v 5.80982254 53.13885717 5.90985977
v -2.00000000 52.86885834 9.17868996
v -2.35546821 53.15908673 8.49247267
v 2.47922375 53.41048950 7.50846032
v 3.45824794 53.40996142 7.17322355
v 4.30247307 53.41113917 6.49406986
v 4.98331332 53.41077711 5.22287426
v 2.00000000 53.42282104 7.45925951
v -2.00000000 53.40885925 7.54181385
v 2.66973517 53.50021562 6.42783067
v -5.02917957 53.40887926 4.81574124
v -3.94794329 53.50017644 5.04356888
v -3.00255004 53.50026168 6.32197160
v -6.97924314 52.69706709 5.00739959
v -7.79949427 52.09424591 5.33384132
v -8.59719985 51.35566078 4.50047424
v -8.53178978 51.35351562 5.43912983
v -9.12549496 50.49546432 5.52449179
v -9.56253433 49.54621506 5.58732843
v -9.84505404 48.46243524 5.61948494
v -4.76497116 32.43117831 12.01651758
v -3.75643539 32.50000000 12.30480194
v -3.16130233 32.50000000 12.41526222
v -9.61964195 48.46597457 6.68447787
v -8.68190704 48.51757815 8.74137727
v -7.96284533 47.50000000 9.83333683
v -8.02445152 48.51174318 9.63551973
v -6.22363045 48.38087747 11.22295823
v -5.27412653 47.50000000 11.79932117
v -4.25151491 47.50000000 12.17663193
v -3.69743538 47.50000000 12.31784534
v -9.19529343 48.53466797 7.78598070
v -7.12801962 48.46059705 10.54316832
v -5.28598070 48.53466797 11.69529343
v -4.22853708 48.53466797 12.08969975
v -4.67237529 53.40978366 6.02225393
v -3.79773268 53.40906438 6.96149647
v -2.74014782 53.41517110 7.44261903
v -3.14189172 53.13779831 8.38892555
v -3.94811768 53.13833416 8.06771366
v -4.86933558 53.13832156 7.36933564
v -5.53940028 53.13831205 6.49133740
v -5.96266434 53.14069366 5.37407230
v -3.72136142 52.70309064 9.19169226
v -4.96802129 52.70318326 8.52587020
v -5.78011847 52.69510651 7.77549124
v -6.42760608 52.69687185 6.84526079
v -6.79920483 52.69510651 5.90917397
v -2.83384132 52.09424591 10.29949379
v -3.65070820 52.09424591 10.12179565
v -4.43397141 52.09424591 9.82965374
v -5.16768599 52.09424591 9.42901516
v -5.83691549 52.09424591 8.92803669
v -6.42803621 52.09424591 8.33691502
v -6.92901516 52.09424591 7.66768599
v -7.32965374 52.09424591 6.93397141
v -7.62179565 52.09424591 6.15070820
v -2.93912959 51.35351562 11.03178978
v -3.85914135 51.35351562 10.83165359
v -4.74130630 51.35351562 10.50262356
v -5.56766605 51.35351562 10.05139637
v -6.32139874 51.35351562 9.48715973
v -6.98715973 51.35351562 8.82139874
v -7.55139685 51.35351562 8.06766605
v -8.00262356 51.35351562 7.24130630
v -8.33165359 51.35351562 6.35914135
v -3.02449155 50.49546432 11.62549496
v -4.02812767 50.49546432 11.40716743
v -4.99047661 50.49546432 11.04823017
v -5.89194822 50.49546432 10.55598927
v -6.71419096 50.49546432 9.94046593
v -7.44046640 50.49546432 9.21419048
v -8.05598927 50.49546432 8.39194775
v -8.54823017 50.49546432 7.49047661
v -8.90716743 50.49546432 6.52812767
v -3.08732820 49.54621506 12.06253433
v -4.15252161 49.54621506 11.83081532
v -5.17389584 49.54621506 11.44986248
v -6.13065910 49.54621506 10.92743111
v -7.00333357 49.54621506 10.27415466
v -7.77415466 49.54621506 9.50333309
v -8.42743111 49.54621506 8.63065910
v -8.94986248 49.54621506 7.67389584
v -9.33081532 49.54621506 6.65252161
v 10.25000000 28.50000000 9.50000000
v 10.25000000 22.50000000 9.50000000
v 10.25000000 22.50000000 -9.50000000
v 10.24801805 28.67349245 -9.48862734
v 10.50000000 28.78710365 9.19284439
v 10.50000000 28.50000000 9.25000000
v 10.50000000 28.78710365 -9.19284439
v 10.50000000 22.50000000 -9.25000000
v 10.50000000 29.03029823 -9.03029823
v 10.50000000 28.50000000 -9.25000000
v 10.50000000 22.50000000 9.25000000
v -10.25000000 22.50000000 9.50000000
v -10.25000000 28.50000000 9.50000000
v -10.24801688 28.67348952 -9.48862829
v -10.25000000 22.50000000 -9.50000000
v -10.50000000 22.50000000 9.25000000
v -10.50000000 28.78710365 9.19284439
v -10.50000000 28.50000000 -9.25000000
v -10.50000000 28.78710365 -9.19284439
v -10.50000000 29.03029823 -9.03029823
v -10.50000000 22.50000000 -9.25000000
v -10.50000000 28.50000000 9.25000000
vn -0.22380401 -0.09794119 0.96970062
vn -0.00233744 -0.13640468 0.99065044
vn -0.37829335 -0.17846793 0.90831897
vn -0.50347213 -0.06662856 0.86143859
vn -0.69352664 -0.14242634 0.70621211
vn -0.91921263 -0.07553605 0.38644849
vn -0.95870977 0.01079816 0.28418126
vn -0.85839057 -0.50426253 0.09425993
vn -0.86415445 -0.45562704 0.21363776
vn -0.86441263 -0.42076793 0.27521839
vn -0.86287945 -0.38867190 0.32306842
vn -0.85238519 -0.34958320 0.38888440
vn -0.86206147 -0.38171103 -0.33338674
vn -0.86434385 -0.41883064 -0.27837133
vn -0.86424181 -0.45451535 -0.21564297
vn -0.85947047 -0.50190009 -0.09698867
vn -0.42595062 -0.89513343 -0.13153787
vn -0.38206570 -0.88070079 -0.27998558
vn -0.37791190 -0.77136616 -0.51203208
vn -0.37846877 -0.83565561 -0.39804660
vn -0.37755962 -0.69189962 -0.61540527
vn -0.85061847 -0.34452891 -0.39717508
vn -0.37734491 -0.59910822 -0.70617290
vn -0.83389534 -0.30100644 -0.46261614
vn -0.80825033 -0.25065996 -0.53282360
vn -0.37752557 -0.49393499 -0.78326411
vn -0.76672339 -0.19180392 -0.61265528
vn -0.37735133 -0.37921154 -0.84486957
vn -0.37710227 -0.25705367 -0.88978497
vn -0.36421382 -0.15651732 -0.91806896
vn -0.69233195 -0.14309057 -0.70724929
vn -0.83704973 -0.30841957 0.45191274
vn -0.81391515 -0.26055274 0.51928259
vn -0.77295843 -0.20093700 0.60179696
vn -0.37638528 -0.29022701 0.87983089
vn -0.37853124 -0.40193934 0.83376187
vn -0.37792979 -0.51189646 0.77144740
vn -0.37866305 -0.60985748 0.69619548
vn -0.38549977 -0.68942236 0.61325911
vn -0.37944307 -0.77445154 0.50620921
vn -0.37930003 -0.83748679 0.39337942
vn -0.38389611 -0.87966332 0.28074226
vn -0.42468589 -0.89555276 0.13276730
vn -0.00009242 -0.90855723 0.41776040
vn -0.04017608 -0.97940966 0.19784488
vn -0.00005555 -0.96206404 0.27282371
vn -0.00132020 -0.27907049 0.96026971
vn -0.00111066 -0.40779487 0.91307289
vn -0.00009518 -0.63118068 0.77563583
vn -0.00031607 -0.86796005 0.49663392
vn -0.00037332 -0.96468412 -0.26340922
vn -0.00075165 -0.98855468 0.15086109
vn -0.00200101 -0.99028793 -0.13901728
vn 0.00000000 -1.00000000 0.00000000
vn -0.21349058 -0.97694512 0.00008724
vn -0.14197487 -0.98621835 0.08495001
vn -0.14357921 -0.98620646 -0.08235179
vn -0.04249276 -0.98115209 -0.18850716
vn -0.00043621 -0.92175573 -0.38777080
vn -0.00101176 -0.85709000 -0.51516571
vn -0.00095404 -0.77501811 -0.63193830
vn -0.00053644 -0.58882819 -0.80825805
vn -0.00035562 -0.42989558 -0.90287854
vn -0.00009508 -0.28775245 -0.95770482
vn -0.00001222 -0.14419083 -0.98954990
vn -0.39975164 -0.04523221 -0.91550678
vn -0.95871529 0.01122344 -0.28414612
vn -0.91914810 -0.07568842 -0.38657216
vn -0.13240797 -0.05347193 -0.98975193
vn -0.00069960 -0.12195305 0.99253562
vn -0.00029877 -0.25500892 0.96693865
vn -0.00024170 -0.38433435 0.92319394
vn -0.00016999 -0.51815162 0.85528876
vn -0.00079596 -0.79939825 0.60080097
vn -0.00017278 -0.92224295 0.38661079
vn -0.00001744 -0.95795007 -0.28693495
vn -0.00001341 -0.90820111 -0.41853405
vn -0.00001234 -0.84077742 -0.54138095
vn -0.00000433 -0.75489193 -0.65584920
vn -0.00003292 -0.56299404 -0.82646095
vn -0.00009327 -0.45668410 -0.88962892
vn -0.00006756 -0.31976958 -0.94749534
vn -0.00003734 -0.17798701 -0.98403284
vn 0.00171881 -0.14177327 0.98989766
vn 0.00056402 -0.11543202 0.99331522
vn 0.00003310 -0.29022586 0.95695817
vn 0.00002231 -0.42099267 0.90706404
vn 0.00000617 -0.54438769 0.83883374
vn 0.00009942 -0.62924773 0.77720479
vn 0.00018989 -0.84681651 0.53188511
vn 0.00002031 -0.90841898 0.41806095
vn 0.00010699 -0.96201302 0.27300354
vn -0.00047704 -0.98745048 -0.15792824
vn 0.05889318 -0.98250497 0.17667930
vn -0.00019109 -0.99977794 -0.02107195
vn 0.00090070 -0.99987283 0.01592211
vn 0.00107678 -0.99247758 -0.12242178
vn 0.00051655 -0.96637226 -0.25714665
vn 0.00025039 -0.92231914 -0.38642895
vn 0.00082805 -0.87611832 -0.48209543
vn 0.00075427 -0.79861238 -0.60184524
vn 0.00054537 -0.85174540 -0.52395560
vn 0.00042535 -0.76856528 -0.63977123
vn 0.00000298 -0.53734111 -0.84336500
vn 0.00000920 -0.41640198 -0.90918062
vn 0.00000397 -0.28340207 -0.95900118
vn 0.00000129 -0.14415365 -0.98955532
vn 0.00055434 -0.25861081 0.96598144
vn 0.37834537 -0.17848961 0.90829304
vn 0.22421331 -0.09804872 0.96959519
vn 0.00038698 -0.39093573 0.92041790
vn 0.37640946 -0.29022862 0.87982002
vn 0.00029943 -0.51566156 0.85679231
vn 0.37854916 -0.40194115 0.83375287
vn 0.37794592 -0.51189594 0.77143984
vn 0.00065682 -0.70893063 0.70527791
vn 0.37842169 -0.61163976 0.69476171
vn 0.37673558 -0.70806495 0.59725566
vn 0.00069337 -0.86973536 0.49351790
vn 0.37940094 -0.77677566 0.50266739
vn 0.00024179 -0.92226280 0.38656341
vn 0.37928880 -0.83747221 0.39342129
vn 0.00148458 -0.98855651 -0.15084371
vn 0.00108181 -0.99127216 0.13182694
vn 0.00021299 -0.95810917 -0.28640316
vn 0.00253665 -0.99991517 -0.01277539
vn 0.20222050 -0.97849940 0.04056850
vn 0.20110675 -0.97880475 -0.03869533
vn 0.06100729 -0.98450963 -0.16437426
vn 0.00018466 -0.90803533 -0.41889354
vn 0.00016554 -0.83984688 -0.54282335
vn 0.37947078 -0.83559994 -0.39720860
vn 0.38264262 -0.88149351 -0.27668359
vn 0.00015573 -0.75509504 -0.65561532
vn 0.37961701 -0.77083747 -0.51156673
vn 0.37560941 -0.61073584 -0.69707913
vn 0.37920392 -0.69357943 -0.61249650
vn 0.00020594 -0.57025228 -0.82146959
vn 0.00011050 -0.44680806 -0.89462984
vn 0.37665240 -0.49584042 -0.78248019
vn 0.00008778 -0.31619606 -0.94869386
vn 0.37735804 -0.37921102 -0.84486680
vn 0.00005727 -0.17944058 -0.98376881
vn 0.37710765 -0.25705327 -0.88978280
vn 0.00020194 -0.04764333 -0.99886439
vn 0.36329254 -0.15380763 -0.91889158
vn 0.13683236 -0.04782133 -0.98943925
vn 0.39959532 -0.04502836 -0.91558507
vn 0.50343959 -0.06663155 0.86145738
vn 0.95874400 0.01100509 0.28405780
vn 0.69352664 -0.14242634 0.70621211
vn 0.91944429 -0.07383669 0.38622576
vn 0.83582095 -0.53868595 -0.10592821
vn 0.84108625 -0.48839938 -0.23246497
vn 0.84131813 -0.45058988 -0.29858427
vn 0.84116127 -0.40458319 -0.35883166
vn 0.83695117 -0.34940791 -0.42122068
vn 0.69233195 -0.14309057 -0.70724929
vn 0.76672138 -0.19180043 -0.61265890
vn 0.80824840 -0.25065628 -0.53282826
vn 0.83389433 -0.30100223 -0.46262069
vn 0.42496905 -0.89656529 -0.12478776
vn 0.83902580 -0.40825506 0.35967139
vn 0.84191958 -0.35641238 0.40514397
vn 0.83704833 -0.30841439 0.45191887
vn 0.81391330 -0.26054807 0.51928783
vn 0.77295730 -0.20093473 0.60179918
vn 0.84163765 -0.45287764 0.29419025
vn 0.84120870 -0.48956833 0.22954469
vn 0.91938584 -0.07400635 -0.38633243
vn 0.95874671 0.01134942 -0.28403510
vn 0.38363865 -0.88010169 0.27971844
vn 0.83650143 -0.53774689 0.10532637
vn 0.43204970 -0.89271611 0.12802732
vn -0.98100226 -0.17251453 -0.08873164
vn -0.98385406 -0.17815947 -0.01704105
vn -0.98298529 -0.17212284 0.06413768
vn 0.96525585 -0.20232783 -0.16536198
vn 0.97109673 -0.21603648 0.10148583
vn 0.97235395 -0.21853463 -0.08228246
vn 0.97289506 -0.22862602 0.03471797
vn 0.97217716 -0.23377779 -0.01481624
vn 0.96519207 -0.19936083 0.16929126
vn -0.99615691 0.06268048 0.06117652
vn -0.99678572 0.05642746 -0.05686973
vn -0.22349731 0.22499144 -0.94838168
vn 0.22346949 0.22511277 -0.94835944
vn 0.99666873 0.05706448 -0.05826744
vn 0.38106251 0.37004925 -0.84726319
vn 0.94105538 0.17081215 -0.29195544
vn -0.38111000 0.37036859 -0.84710228
vn 0.35167746 0.43644202 -0.82815538
vn 0.30877390 0.49148682 -0.81430915
vn 0.26761792 0.52752854 -0.80628425
vn 0.23057794 0.56230351 -0.79413385
vn 0.11000953 0.61478776 -0.78098266
vn 0.06225067 0.61982463 -0.78226740
vn 0.03126813 0.62296285 -0.78162625
vn 0.06317128 0.95455837 -0.29125195
vn -0.35162746 0.43695119 -0.82790808
vn -0.30869536 0.49578094 -0.81173175
vn -0.08747749 0.62204444 -0.77807994
vn -0.16805673 0.60001240 -0.78213941
vn -0.00686674 0.62096105 -0.78381134
vn -0.03533148 0.62416327 -0.78049465
vn -0.06189621 0.95449494 -0.29173321
vn -0.94281046 0.16892538 -0.28735458
vn -0.98398545 0.17530188 0.03227812
vn -0.90227895 0.25645405 -0.34658911
vn -0.86759129 0.36468368 -0.33806975
vn -0.80109740 0.50148073 -0.32674153
vn -0.71307227 0.62519040 -0.31727732
vn -0.62964375 0.71034068 -0.31458681
vn -0.53841978 0.78542960 -0.30529409
vn -0.25047904 0.55246651 -0.79501007
vn -0.44259754 0.84456584 -0.30135687
vn -0.33075433 0.89682657 -0.29377487
vn -0.19363230 0.93682470 -0.29131772
vn 0.04572338 0.99872725 0.02128969
vn -0.34445864 0.93868264 0.01493806
vn -0.64324563 0.76531928 0.02283549
vn -0.86610141 0.49879965 0.03266894
vn -0.93939491 0.34101896 0.03525996
vn 0.00659772 0.62085919 -0.78389434
vn 0.19083941 0.93823195 -0.28861935
vn 0.41892942 0.85844678 -0.29591766
vn 0.76198674 0.64332034 0.07426396
vn 0.63022135 0.71105478 -0.31180466
vn 0.70906842 0.63101064 -0.31471819
vn 0.94062832 0.33747262 0.03647739
vn 0.77771754 0.53785587 -0.32537132
vn 0.98861413 0.14629750 0.03520136
vn 0.87865180 0.33201531 -0.34312802
vn 0.83725746 0.43334441 -0.33348549
vn 0.90233537 0.25349303 -0.34861464
vn 0.30479917 0.90538764 -0.29558532
vn 0.54029999 0.78491017 -0.30330175
vn 0.17142315 0.59388625 -0.78607457
vn 0.05494158 0.04310933 0.99755852
vn 0.03213838 -0.04339078 0.99854112
vn 0.12107091 -0.03490591 0.99202995
vn -0.03477393 0.04007661 0.99859133
vn -0.12471762 0.04284511 0.99126677
vn -0.04627798 -0.04216397 0.99803835
vn 0.03226931 0.12248398 0.99194575
vn -0.03610469 0.12309112 0.99173839
vn -0.13965410 0.17536880 0.97454734
vn 0.14268470 0.04353896 0.98881011
vn 0.14267340 0.17793839 0.97364379
vn 0.03479873 0.20442593 0.97826330
vn 0.20995528 -0.02736067 0.97732808
vn 0.22364141 0.04539565 0.97361376
vn 0.29279911 -0.01854643 0.95599409
vn 0.32593606 0.04450560 0.94434366
vn 0.27676588 0.17936262 0.94404963
vn 0.38032477 -0.00663957 0.92482917
vn 0.42443593 0.04690745 0.90424213
vn 0.40919265 0.17830973 0.89485586
vn 0.52677169 0.05869597 0.84797781
vn 0.53062234 0.17867897 0.82856126
vn 0.65025012 0.06488520 0.75694431
vn 0.63629065 0.15944801 0.75479172
vn 0.74411577 0.17242972 0.64541437
vn 0.82831761 0.17461230 0.53235371
vn 0.92602690 0.08780711 0.36710228
vn 0.89566444 0.17533639 0.40870817
vn 0.94496794 0.17278490 0.27781463
vn 0.97759873 0.15450563 0.14292911
vn -0.03505300 0.20741691 0.97762442
vn 0.13876957 0.34054621 0.92993080
vn 0.03455398 0.31901027 0.94712115
vn 0.26485486 0.34091711 0.90201299
vn 0.39052893 0.34091678 0.85513911
vn 0.50825284 0.34091699 0.79085691
vn 0.61647860 0.33917723 0.71057226
vn 0.71040309 0.34087689 0.61573566
vn 0.79086152 0.34095119 0.50822273
vn 0.85522882 0.34080941 0.39042620
vn 0.90218472 0.34050739 0.26479699
vn 0.93182445 0.33782009 0.13259252
vn 0.85766954 0.49853959 0.12594144
vn 0.86499446 0.50093436 0.02914344
vn -0.03493979 0.32760194 0.94416957
vn 0.13061435 0.49842142 0.85703908
vn 0.03260287 0.46209472 0.88623108
vn 0.24421578 0.49859328 0.83172315
vn 0.36009670 0.49859330 0.78850180
vn 0.46864710 0.49859342 0.72922870
vn 0.56765667 0.49859340 0.65511108
vn 0.65511109 0.49859318 0.56765686
vn 0.72922884 0.49859331 0.46864701
vn 0.78850182 0.49859327 0.36009671
vn 0.83172313 0.49859330 0.24421578
vn 0.03136538 0.57472740 0.81774362
vn -0.03313212 0.47943051 0.87695419
vn 0.11741188 0.64115134 0.75837946
vn 0.21618397 0.64124298 0.73625534
vn 0.31876372 0.64124318 0.69799489
vn 0.41485426 0.64124307 0.64552558
vn 0.50249919 0.64124308 0.57991540
vn 0.57991519 0.64124302 0.50249952
vn 0.64552579 0.64124294 0.41485412
vn 0.69799502 0.64124313 0.31876355
vn 0.73702709 0.64227867 0.21040241
vn 0.64235102 0.76347612 0.06700284
vn -0.03069359 0.61829691 0.78534504
vn 0.02963292 0.67624177 0.73608353
vn 0.09604344 0.76364658 0.63845091
vn 0.18440638 0.76552447 0.61641428
vn 0.26470851 0.76471082 0.58749193
vn 0.35029721 0.76424450 0.54149996
vn 0.42210371 0.76454496 0.48713392
vn 0.48630135 0.76403437 0.42398406
vn 0.54364855 0.76502764 0.34522306
vn 0.58361869 0.76578929 0.27010366
vn 0.62060148 0.76436581 0.17492488
vn 0.49862446 0.86490632 0.05753870
vn -0.02775826 0.73477967 0.67773765
vn 0.02687617 0.78526642 0.61857443
vn 0.11047116 0.86460190 0.49016291
vn 0.02492068 0.87528871 0.48295822
vn 0.23180811 0.86507466 0.44487170
vn 0.32903620 0.86607921 0.37635353
vn 0.40283427 0.86709772 0.29302918
vn 0.46851441 0.86569790 0.17624242
vn 0.34378666 0.93834858 0.03623095
vn -0.02178456 0.81681037 0.57649480
vn -0.07154155 0.86509191 0.49648544
vn 0.03555267 0.94132703 0.33561799
vn 0.11819011 0.93819656 0.32529728
vn 0.20878081 0.93798957 0.27674202
vn 0.27593729 0.93910962 0.20477238
vn 0.32448333 0.93769395 0.12426030
vn -0.01735158 0.89853040 0.43856818
vn -0.04036755 0.94155860 0.33442168
vn 0.03267648 0.98340506 0.17845656
vn 0.08681306 0.98390276 0.15620130
vn 0.13629713 0.98394848 0.11518894
vn 0.17686374 0.98319604 0.04521913
vn 0.00296791 0.98844363 0.15155981
vn -0.00575312 0.98559939 0.16899923
vn 0.01794001 0.99877909 0.04602707
vn -0.17695218 0.98391091 0.02464238
vn -0.04513030 0.99887895 0.01428629
vn -0.02451530 0.99869808 0.04473410
vn -0.50104074 0.86378364 0.05325417
vn -0.63858149 0.76376685 0.09420125
vn -0.76667070 0.64137024 0.02933020
vn -0.76027933 0.64031332 0.10942667
vn -0.85859069 0.49753324 0.12362320
vn -0.93123586 0.33891391 0.13392956
vn -0.97640912 0.16364055 0.14087938
vn -0.34018714 -0.01285619 0.94026987
vn -0.22521384 -0.02542443 0.97397758
vn -0.13753441 -0.03306538 0.98994493
vn -0.94768284 0.16536565 0.27304108
vn -0.83169438 0.17346522 0.52744126
vn -0.72400150 0.07931476 0.68522332
vn -0.74777922 0.17347745 0.64088362
vn -0.52885301 0.14323093 0.83654014
vn -0.41484860 0.04274935 0.90888566
vn -0.29636208 0.04369680 0.95407553
vn -0.21184176 0.04633496 0.97620497
vn -0.89637528 0.17582541 0.40693585
vn -0.63859463 0.15941247 0.75285096
vn -0.40616886 0.17563424 0.89676054
vn -0.27970057 0.17581020 0.94385294
vn -0.15752221 0.98337210 0.09036632
vn -0.10856506 0.98344093 0.14511224
vn -0.04447985 0.98473602 0.16827509
vn -0.09604869 0.93637525 0.33760337
vn -0.16747108 0.93828837 0.30260266
vn -0.24455391 0.93870767 0.24294299
vn -0.30512511 0.93698964 0.17014430
vn -0.33557143 0.93864928 0.07955718
vn -0.17304277 0.86518218 0.47065486
vn -0.29499508 0.86490454 0.40610102
vn -0.38081288 0.86473399 0.32743959
vn -0.44368139 0.86506935 0.23409794
vn -0.48217886 0.86390561 0.14550133
vn -0.10170604 0.76424625 0.63685442
vn -0.17939426 0.76410170 0.61965013
vn -0.27038643 0.76521705 0.58423800
vn -0.34571625 0.76424481 0.54443562
vn -0.42459816 0.76324730 0.48700098
vn -0.48783772 0.76375885 0.42271359
vn -0.54227892 0.76345885 0.35080503
vn -0.58834206 0.76392616 0.26508572
vn -0.61767313 0.76515640 0.18170192
vn -0.11547556 0.64042823 0.75928722
vn -0.21640365 0.64030819 0.73700399
vn -0.31908778 0.64030821 0.69870479
vn -0.41527600 0.64030825 0.64618201
vn -0.50301033 0.64030813 0.58050505
vn -0.58050495 0.64030820 0.50301035
vn -0.64618207 0.64030817 0.41527603
vn -0.69870483 0.64030821 0.31908770
vn -0.73700399 0.64030818 0.21640369
vn -0.12829793 0.49750031 0.85792371
vn -0.24438668 0.49753735 0.83230508
vn -0.36034855 0.49753727 0.78905360
vn -0.46897487 0.49753756 0.72973896
vn -0.56805413 0.49753736 0.65556928
vn -0.65556938 0.49753731 0.56805406
vn -0.72973900 0.49753753 0.46897482
vn -0.78905358 0.49753727 0.36034859
vn -0.83230507 0.49753735 0.24438670
vn -0.13720976 0.33944263 0.93056552
vn -0.26497177 0.33977205 0.90241061
vn -0.39070079 0.33977189 0.85551620
vn -0.50895320 0.33765696 0.79180453
vn -0.61704611 0.33832917 0.71048397
vn -0.70994220 0.33960878 0.61696673
vn -0.79124907 0.34017513 0.50813954
vn -0.85595568 0.33921440 0.39022234
vn -0.90242011 0.33890284 0.26605040
vn 0.58126160 0.02086427 0.81344922
vn 0.56845310 -0.00601042 0.82269371
vn 0.38061233 -0.00193505 -0.92473267
vn 0.41699696 0.10367519 -0.90297563
vn 0.95586464 0.07159561 0.28495062
vn 0.87235544 0.04122170 0.48713115
vn 0.89059219 0.15828698 -0.42636930
vn 0.77197634 -0.00275544 -0.63564530
vn 0.99463782 0.06002666 -0.08421649
vn 0.86652174 0.04765351 -0.49685935
vn 0.77213010 -0.00312599 0.63545679
vn -0.56784325 -0.00595111 0.82311520
vn -0.58016832 0.02079905 0.81423100
vn -0.41642815 0.10354764 -0.90325272
vn -0.38323418 -0.00204670 -0.92364895
vn -0.77213010 -0.00312599 0.63545679
vn -0.95538898 0.07143594 0.28658122
vn -0.86652156 0.04765375 -0.49685965
vn -0.89059210 0.15828604 -0.42636984
vn -0.99463782 0.06002666 -0.08421649
vn -0.77197633 -0.00275543 -0.63564530
vn -0.87235650 0.04120612 0.48713057
f 170//170 152//152 181//181
f 420//420 189//189 235//235
f 235//235 423//423 420//420
f 152//152 164//164 183//183
f 109//109 152//152 151//151
f 151//151 149//149 109//109
f 152//152 149//149 151//151
f 109//109 149//149 110//110
f 171//171 423//423 425//425
f 425//425 188//188 171//171
f 423//423 188//188 425//425
f 426//426 420//420 423//423
f 426//426 423//423 171//171
f 247//247 243//243 246//246
f 242//242 246//246 243//243
f 34//34 3//3 6//6
f 177//177 11//11 6//6
f 167//167 166//166 152//152
f 165//165 164//164 152//152
f 152//152 166//166 165//165
f 418//418 256//256 149//149
f 251//251 110//110 149//149
f 109//109 110//110 85//85
f 150//150 421//421 422//422
f 150//150 232//232 268//268
f 268//268 421//421 150//150
f 245//245 242//242 239//239
f 246//246 242//242 245//245
f 190//190 232//232 188//188
f 190//190 423//423 235//235
f 190//190 188//188 423//423
f 189//189 420//420 187//187
f 186//186 193//193 187//187
f 187//187 193//193 189//189
f 362//362 353//353 354//354
f 243//243 355//355 244//244
f 244//244 242//242 243//243
f 354//354 353//353 4//4
f 3//3 34//34 35//35
f 166//166 167//167 114//114
f 41//41 8//8 42//42
f 8//8 41//41 9//9
f 9//9 41//41 40//40
f 364//364 415//415 356//356
f 352//352 356//356 351//351
f 351//351 350//350 223//223
f 122//122 41//41 91//91
f 91//91 41//41 44//44
f 75//75 41//41 42//42
f 44//44 41//41 75//75
f 75//75 91//91 44//44
f 170//170 180//180 178//178
f 167//167 152//152 109//109
f 163//163 183//183 164//164
f 118//118 168//168 163//163
f 40//40 41//41 50//50
f 152//152 179//179 181//181
f 183//183 179//179 152//152
f 183//183 163//163 168//168
f 241//241 240//240 110//110
f 110//110 251//251 241//241
f 84//84 3//3 109//109
f 109//109 85//85 84//84
f 85//85 110//110 240//240
f 240//240 244//244 85//85
f 61//61 101//101 19//19
f 29//29 144//144 64//64
f 138//138 136//136 62//62
f 263//263 422//422 264//264
f 351//351 356//356 416//416
f 416//416 356//356 415//415
f 407//407 350//350 351//351
f 351//351 416//416 407//407
f 246//246 245//245 250//250
f 248//248 251//251 252//252
f 248//248 241//241 251//251
f 399//399 306//306 390//390
f 295//295 306//306 399//399
f 273//273 274//274 287//287
f 301//301 302//302 314//314
f 290//290 302//302 301//301
f 287//287 274//274 288//288
f 259//259 417//417 262//262
f 255//255 252//252 254//254
f 266//266 422//422 421//421
f 275//275 276//276 290//290
f 275//275 288//288 274//274
f 189//189 234//234 233//233
f 235//235 189//189 233//233
f 233//233 232//232 235//235
f 231//231 234//234 192//192
f 232//232 190//190 235//235
f 363//363 243//243 247//247
f 363//363 362//362 354//354
f 354//354 355//355 363//363
f 363//363 355//355 243//243
f 367//367 363//363 247//247
f 362//362 363//363 367//367
f 358//358 429//429 365//365
f 438//438 359//359 357//357
f 429//429 358//358 438//438
f 358//358 359//359 438//438
f 359//359 358//358 365//365
f 365//365 429//429 360//360
f 6//6 3//3 5//5
f 5//5 4//4 6//6
f 3//3 4//4 5//5
f 353//353 429//429 428//428
f 428//428 4//4 353//353
f 117//117 163//163 164//164
f 118//118 163//163 117//117
f 34//34 36//36 35//35
f 112//112 114//114 167//167
f 112//112 167//167 109//109
f 112//112 86//86 35//35
f 115//115 165//165 166//166
f 166//166 114//114 115//115
f 164//164 165//165 115//115
f 115//115 117//117 164//164
f 120//120 40//40 90//90
f 90//90 119//119 120//120
f 120//120 168//168 118//118
f 120//120 119//119 122//122
f 127//127 174//174 94//94
f 133//133 18//18 99//99
f 58//58 18//18 51//51
f 16//16 20//20 18//18
f 11//11 177//177 10//10
f 177//177 9//9 10//10
f 10//10 9//9 40//40
f 10//10 39//39 11//11
f 40//40 39//39 10//10
f 351//351 223//223 208//208
f 208//208 352//352 351//351
f 223//223 210//210 208//208
f 185//185 436//436 67//67
f 184//184 207//207 185//185
f 210//210 223//223 211//211
f 91//91 75//75 121//121
f 122//122 91//91 121//121
f 172//172 173//173 122//122
f 174//174 173//173 172//172
f 122//122 121//121 172//172
f 94//94 174//174 172//172
f 169//169 179//179 168//168
f 122//122 173//173 169//169
f 169//169 120//120 122//122
f 168//168 120//120 169//169
f 170//170 181//181 182//182
f 182//182 180//180 170//170
f 50//50 119//119 90//90
f 173//173 181//181 179//179
f 179//179 169//169 173//173
f 179//179 183//183 168//168
f 257//257 417//417 259//259
f 257//257 254//254 256//256
f 418//418 417//417 257//257
f 256//256 418//418 257//257
f 262//262 417//417 261//261
f 261//261 417//417 422//422
f 422//422 263//263 261//261
f 3//3 84//84 2//2
f 60//60 20//20 19//19
f 100//100 20//20 60//60
f 135//135 101//101 137//137
f 19//19 101//101 135//135
f 137//137 101//101 103//103
f 101//101 61//61 103//103
f 158//158 148//148 170//170
f 146//146 147//147 148//148
f 148//148 158//158 146//146
f 170//170 144//144 146//146
f 146//146 158//158 170//170
f 30//30 66//66 69//69
f 30//30 29//29 68//68
f 147//147 146//146 145//145
f 83//83 30//30 65//65
f 29//29 30//30 83//83
f 68//68 29//29 27//27
f 27//27 29//29 28//28
f 68//68 22//22 13//13
f 23//23 13//13 22//22
f 23//23 62//62 136//136
f 262//262 261//261 263//263
f 263//263 275//275 262//262
f 276//276 275//275 263//263
f 232//232 233//233 230//230
f 230//230 233//233 234//234
f 406//406 416//416 415//415
f 406//406 407//407 416//416
f 406//406 397//397 407//407
f 396//396 397//397 406//406
f 304//304 316//316 303//303
f 314//314 302//302 303//303
f 305//305 316//316 304//304
f 304//304 227//227 305//305
f 305//305 317//317 316//316
f 268//268 232//232 280//280
f 232//232 230//230 280//280
f 281//281 280//280 230//230
f 281//281 304//304 293//293
f 281//281 227//227 304//304
f 317//317 226//226 326//326
f 326//326 226//226 236//236
f 241//241 248//248 239//239
f 240//240 241//241 239//239
f 249//249 250//250 245//245
f 249//249 252//252 255//255
f 249//249 248//248 252//252
f 245//245 239//239 249//249
f 249//249 239//239 248//248
f 271//271 250//250 249//249
f 249//249 270//270 271//271
f 394//394 403//403 402//402
f 402//402 393//393 394//394
f 392//392 382//382 383//383
f 393//393 402//402 392//392
f 341//341 336//336 340//340
f 340//340 370//370 341//341
f 390//390 318//318 381//381
f 381//381 382//382 390//390
f 306//306 318//318 390//390
f 306//306 307//307 318//318
f 247//247 283//283 408//408
f 408//408 367//367 247//247
f 274//274 273//273 260//260
f 262//262 275//275 260//260
f 260//260 275//275 274//274
f 260//260 259//259 262//262
f 287//287 288//288 299//299
f 290//290 301//301 289//289
f 289//289 301//301 300//300
f 289//289 275//275 290//290
f 288//288 275//275 289//289
f 300//300 299//299 289//289
f 289//289 299//299 288//288
f 296//296 308//308 307//307
f 294//294 285//285 284//284
f 294//294 296//296 307//307
f 284//284 296//296 294//294
f 307//307 306//306 294//294
f 294//294 306//306 295//295
f 295//295 285//285 294//294
f 295//295 408//408 283//283
f 399//399 408//408 295//295
f 285//285 270//270 284//284
f 285//285 295//295 283//283
f 272//272 273//273 287//287
f 284//284 270//270 272//272
f 255//255 273//273 272//272
f 272//272 249//249 255//255
f 270//270 249//249 272//272
f 252//252 251//251 253//253
f 253//253 254//254 252//252
f 149//149 256//256 253//253
f 253//253 251//251 149//149
f 256//256 254//254 253//253
f 265//265 266//266 421//421
f 267//267 266//266 265//265
f 422//422 266//266 264//264
f 278//278 266//266 267//267
f 264//264 266//266 278//278
f 421//421 268//268 267//267
f 267//267 265//265 421//421
f 236//236 226//226 238//238
f 226//226 317//317 237//237
f 237//237 317//317 305//305
f 189//189 193//193 192//192
f 192//192 234//234 189//189
f 7//7 438//438 433//433
f 356//356 352//352 433//433
f 433//433 438//438 364//364
f 364//364 438//438 357//357
f 396//396 404//404 395//395
f 366//366 367//367 410//410
f 74//74 39//39 40//40
f 6//6 11//11 12//12
f 12//12 32//32 6//6
f 3//3 35//35 71//71
f 35//35 36//36 72//72
f 37//37 36//36 33//33
f 33//33 32//32 37//37
f 36//36 34//34 33//33
f 6//6 32//32 33//33
f 33//33 34//34 6//6
f 108//108 112//112 109//109
f 86//86 112//112 108//108
f 87//87 114//114 111//111
f 114//114 112//112 111//111
f 73//73 36//36 37//37
f 94//94 45//45 52//52
f 124//124 127//127 94//94
f 124//124 52//52 56//56
f 97//97 129//129 128//128
f 58//58 129//129 93//93
f 93//93 53//53 58//58
f 18//18 20//20 59//59
f 59//59 99//99 18//18
f 76//76 51//51 18//18
f 133//133 129//129 98//98
f 98//98 129//129 58//58
f 58//58 51//51 98//98
f 6//6 68//68 176//176
f 17//17 16//16 18//18
f 17//17 18//18 58//58
f 208//208 207//207 184//184
f 352//352 208//208 184//184
f 7//7 433//433 184//184
f 184//184 433//433 352//352
f 435//435 430//430 434//434
f 434//434 67//67 435//435
f 67//67 436//436 435//435
f 435//435 185//185 207//207
f 436//436 185//185 435//435
f 209//209 435//435 207//207
f 430//430 435//435 209//209
f 209//209 208//208 210//210
f 207//207 208//208 209//209
f 198//198 224//224 199//199
f 204//204 198//198 205//205
f 224//224 198//198 204//204
f 186//186 430//430 191//191
f 430//430 209//209 191//191
f 92//92 172//172 42//42
f 94//94 172//172 92//92
f 162//162 127//127 128//128
f 127//127 162//162 174//174
f 162//162 129//129 133//133
f 128//128 129//129 162//162
f 182//182 173//173 153//153
f 181//181 173//173 182//182
f 90//90 40//40 50//50
f 70//70 84//84 85//85
f 70//70 2//2 84//84
f 3//3 2//2 70//70
f 153//153 162//162 133//133
f 153//153 154//154 180//180
f 78//78 60//60 19//19
f 100//100 60//60 102//102
f 131//131 135//135 102//102
f 102//102 135//135 100//100
f 102//102 78//78 131//131
f 60//60 78//78 102//102
f 100//100 135//135 132//132
f 132//132 20//20 100//100
f 132//132 99//99 130//130
f 133//133 99//99 132//132
f 132//132 135//135 154//154
f 132//132 153//153 133//133
f 154//154 153//153 132//132
f 137//137 103//103 134//134
f 159//159 144//144 170//170
f 170//170 160//160 159//159
f 144//144 159//159 142//142
f 142//142 159//159 160//160
f 142//142 141//141 144//144
f 170//170 178//178 157//157
f 64//64 141//141 82//82
f 82//82 29//29 64//64
f 28//28 29//29 82//82
f 64//64 144//144 106//106
f 106//106 141//141 64//64
f 144//144 141//141 106//106
f 68//68 66//66 31//31
f 31//31 30//30 68//68
f 66//66 30//30 31//31
f 143//143 146//146 144//144
f 25//25 27//27 28//28
f 68//68 27//27 25//25
f 62//62 23//23 26//26
f 28//28 81//81 26//26
f 26//26 25//25 28//28
f 13//13 23//23 21//21
f 21//21 61//61 19//19
f 21//21 136//136 137//137
f 21//21 23//23 136//136
f 336//336 337//337 342//342
f 342//342 338//338 219//219
f 337//337 338//338 342//342
f 345//345 370//370 342//342
f 370//370 340//340 342//342
f 335//335 336//336 341//341
f 341//341 370//370 335//335
f 222//222 223//223 350//350
f 211//211 223//223 222//222
f 407//407 397//397 398//398
f 316//316 317//317 325//325
f 227//227 281//281 282//282
f 231//231 229//229 282//282
f 282//282 229//229 227//227
f 411//411 402//402 403//403
f 411//411 365//365 360//360
f 411//411 366//366 410//410
f 360//360 366//366 411//411
f 390//390 382//382 391//391
f 382//382 392//392 391//391
f 327//327 381//381 318//318
f 382//382 381//381 328//328
f 328//328 381//381 327//327
f 269//269 250//250 271//271
f 271//271 283//283 269//269
f 246//246 250//250 269//269
f 247//247 246//246 269//269
f 269//269 283//283 247//247
f 410//410 367//367 409//409
f 367//367 408//408 409//409
f 258//258 257//257 259//259
f 259//259 260//260 258//258
f 255//255 254//254 258//258
f 254//254 257//257 258//258
f 258//258 273//273 255//255
f 258//258 260//260 273//273
f 287//287 299//299 298//298
f 320//320 308//308 309//309
f 309//309 322//322 320//320
f 300//300 301//301 312//312
f 312//312 299//299 300//300
f 270//270 285//285 271//271
f 271//271 285//285 283//283
f 279//279 281//281 293//293
f 280//280 281//281 279//279
f 279//279 278//278 267//267
f 279//279 267//267 268//268
f 268//268 280//280 279//279
f 290//290 276//276 277//277
f 264//264 278//278 277//277
f 277//277 263//263 264//264
f 276//276 263//263 277//277
f 293//293 304//304 292//292
f 304//304 303//303 292//292
f 292//292 279//279 293//293
f 278//278 279//279 292//292
f 292//292 303//303 302//302
f 292//292 277//277 278//278
f 339//339 225//225 199//199
f 326//326 236//236 225//225
f 225//225 339//339 326//326
f 226//226 237//237 195//195
f 195//195 194//194 193//193
f 231//231 192//192 193//193
f 193//193 229//229 231//231
f 229//229 194//194 228//228
f 237//237 305//305 228//228
f 228//228 227//227 229//229
f 305//305 227//227 228//228
f 194//194 229//229 193//193
f 414//414 413//413 404//404
f 414//414 406//406 415//415
f 414//414 415//415 364//364
f 364//364 357//357 414//414
f 414//414 357//357 359//359
f 359//359 413//413 414//414
f 362//362 367//367 361//361
f 367//367 366//366 361//361
f 361//361 366//366 360//360
f 353//353 362//362 361//361
f 361//361 429//429 353//353
f 361//361 360//360 429//429
f 116//116 39//39 118//118
f 118//118 117//117 116//116
f 37//37 32//32 38//38
f 32//32 12//12 38//38
f 11//11 39//39 38//38
f 38//38 12//12 11//11
f 35//35 86//86 47//47
f 47//47 71//71 35//35
f 47//47 108//108 71//71
f 86//86 108//108 47//47
f 48//48 72//72 36//36
f 48//48 114//114 87//87
f 48//48 36//36 114//114
f 48//48 111//111 72//72
f 87//87 111//111 48//48
f 113//113 115//115 114//114
f 56//56 52//52 45//45
f 56//56 55//55 127//127
f 127//127 124//124 56//56
f 128//128 127//127 126//126
f 52//52 124//124 94//94
f 123//123 97//97 53//53
f 53//53 93//93 123//123
f 129//129 97//97 123//123
f 123//123 93//93 129//129
f 77//77 59//59 20//20
f 130//130 99//99 77//77
f 99//99 59//59 77//77
f 133//133 98//98 125//125
f 51//51 76//76 125//125
f 125//125 98//98 51//51
f 6//6 176//176 177//177
f 8//8 9//9 177//177
f 57//57 55//55 17//17
f 57//57 17//17 58//58
f 58//58 53//53 57//57
f 128//128 55//55 57//57
f 57//57 97//97 128//128
f 53//53 97//97 57//57
f 206//206 204//204 205//205
f 191//191 201//201 186//186
f 203//203 201//201 215//215
f 214//214 203//203 215//215
f 42//42 45//45 46//46
f 46//46 92//92 42//42
f 46//46 45//45 94//94
f 94//94 92//92 46//46
f 1//1 85//85 244//244
f 1//1 70//70 85//85
f 3//3 70//70 1//1
f 1//1 244//244 355//355
f 1//1 355//355 354//354
f 354//354 4//4 1//1
f 1//1 4//4 3//3
f 180//180 182//182 153//153
f 140//140 142//142 160//160
f 140//140 157//157 136//136
f 140//140 136//136 138//138
f 138//138 104//104 140//140
f 139//139 142//142 140//140
f 104//104 26//26 140//140
f 155//155 135//135 137//137
f 154//154 135//135 155//155
f 180//180 154//154 155//155
f 155//155 178//178 180//180
f 178//178 155//155 156//156
f 156//156 157//157 178//178
f 156//156 155//155 137//137
f 137//137 136//136 156//156
f 136//136 157//157 156//156
f 28//28 142//142 63//63
f 139//139 81//81 63//63
f 63//63 81//81 28//28
f 146//146 143//143 107//107
f 107//107 30//30 146//146
f 65//65 30//30 107//107
f 107//107 143//143 83//83
f 107//107 83//83 65//65
f 62//62 26//26 80//80
f 80//80 26//26 104//104
f 138//138 62//62 80//80
f 80//80 104//104 138//138
f 24//24 23//23 22//22
f 24//24 26//26 23//23
f 25//25 26//26 24//24
f 24//24 22//22 68//68
f 68//68 25//25 24//24
f 61//61 21//21 79//79
f 79//79 103//103 61//61
f 79//79 134//134 103//103
f 342//342 340//340 336//336
f 222//222 348//348 212//212
f 218//218 217//217 220//220
f 350//350 407//407 349//349
f 407//407 398//398 349//349
f 349//349 222//222 350//350
f 349//349 348//348 222//222
f 339//339 199//199 219//219
f 314//314 303//303 315//315
f 315//315 303//303 316//316
f 282//282 281//281 230//230
f 230//230 234//234 282//282
f 282//282 234//234 231//231
f 339//339 219//219 338//338
f 326//326 339//339 333//333
f 333//333 317//317 326//326
f 333//333 325//325 317//317
f 412//412 411//411 403//403
f 403//403 404//404 412//412
f 404//404 413//413 412//412
f 365//365 411//411 412//412
f 359//359 365//365 412//412
f 412//412 413//413 359//359
f 400//400 399//399 390//390
f 390//390 391//391 400//400
f 400//400 408//408 399//399
f 400//400 409//409 408//408
f 400//400 391//391 392//392
f 307//307 308//308 319//319
f 318//318 307//307 319//319
f 286//286 272//272 287//287
f 284//284 272//272 286//286
f 335//335 328//328 334//334
f 335//335 334//334 329//329
f 333//333 339//339 332//332
f 332//332 339//339 338//338
f 313//313 301//301 314//314
f 313//313 312//312 301//301
f 311//311 298//298 299//299
f 299//299 312//312 311//311
f 291//291 302//302 290//290
f 291//291 292//292 302//302
f 290//290 277//277 291//291
f 277//277 292//292 291//291
f 226//226 195//195 238//238
f 356//356 433//433 364//364
f 405//405 414//414 404//404
f 406//406 414//414 405//405
f 405//405 404//404 396//396
f 396//396 406//406 405//405
f 117//117 115//115 89//89
f 89//89 115//115 37//37
f 37//37 115//115 88//88
f 88//88 113//113 73//73
f 88//88 73//73 37//37
f 115//115 113//113 88//88
f 55//55 56//56 43//43
f 17//17 55//55 43//43
f 95//95 55//55 128//128
f 128//128 126//126 95//95
f 127//127 55//55 96//96
f 96//96 126//126 127//127
f 68//68 175//175 176//176
f 68//68 13//13 14//14
f 14//14 175//175 68//68
f 14//14 21//21 19//19
f 13//13 21//21 14//14
f 196//196 238//238 195//195
f 196//196 236//236 238//238
f 196//196 225//225 236//236
f 202//202 201//201 203//203
f 203//203 217//217 202//202
f 217//217 218//218 202//202
f 205//205 198//198 197//197
f 197//197 202//202 205//205
f 197//197 195//195 193//193
f 201//201 202//202 197//197
f 197//197 196//196 195//195
f 197//197 193//193 186//186
f 186//186 201//201 197//197
f 197//197 198//198 199//199
f 197//197 225//225 196//196
f 197//197 199//199 225//225
f 204//204 206//206 224//224
f 224//224 206//206 199//199
f 191//191 209//209 210//210
f 200//200 210//210 211//211
f 200//200 191//191 210//210
f 191//191 200//200 201//201
f 161//161 140//140 160//160
f 157//157 140//140 161//161
f 161//161 160//160 170//170
f 170//170 157//157 161//161
f 105//105 142//142 139//139
f 139//139 63//63 105//105
f 105//105 63//63 142//142
f 214//214 221//221 346//346
f 387//387 379//379 388//388
f 396//396 395//395 387//387
f 395//395 386//386 387//387
f 387//387 397//397 396//396
f 387//387 388//388 397//397
f 389//389 398//398 397//397
f 397//397 388//388 389//389
f 388//388 379//379 389//389
f 222//222 212//212 211//211
f 212//212 201//201 211//211
f 211//211 201//201 200//200
f 201//201 212//212 215//215
f 216//216 217//217 203//203
f 216//216 203//203 214//214
f 214//214 346//346 216//216
f 220//220 346//346 375//375
f 375//375 379//379 374//374
f 375//375 374//374 368//368
f 385//385 395//395 394//394
f 385//385 386//386 395//395
f 410//410 409//409 401//401
f 409//409 400//400 401//401
f 401//401 411//411 410//410
f 402//402 411//411 401//401
f 401//401 392//392 402//402
f 401//401 400//400 392//392
f 327//327 318//318 319//319
f 297//297 298//298 309//309
f 297//297 296//296 284//284
f 284//284 286//286 297//297
f 287//287 298//298 297//297
f 297//297 286//286 287//287
f 309//309 308//308 297//297
f 308//308 296//296 297//297
f 336//336 335//335 329//329
f 325//325 315//315 316//316
f 330//330 320//320 322//322
f 330//330 337//337 336//336
f 331//331 332//332 338//338
f 331//331 338//338 337//337
f 333//333 332//332 324//324
f 324//324 325//325 333//333
f 314//314 315//315 324//324
f 315//315 325//325 324//324
f 312//312 313//313 323//323
f 323//323 311//311 312//312
f 322//322 311//311 323//323
f 310//310 322//322 309//309
f 310//310 311//311 322//322
f 309//309 298//298 310//310
f 298//298 311//311 310//310
f 195//195 237//237 194//194
f 194//194 237//237 228//228
f 37//37 38//38 49//49
f 49//49 89//89 37//37
f 49//49 38//38 117//117
f 117//117 89//89 49//49
f 43//43 45//45 42//42
f 43//43 56//56 45//45
f 42//42 8//8 43//43
f 54//54 96//96 55//55
f 126//126 96//96 54//54
f 175//175 14//14 15//15
f 16//16 176//176 15//15
f 15//15 176//176 175//175
f 20//20 16//16 15//15
f 19//19 20//20 15//15
f 15//15 14//14 19//19
f 202//202 206//206 205//205
f 202//202 218//218 206//206
f 348//348 349//349 347//347
f 347//347 221//221 348//348
f 347//347 349//349 398//398
f 398//398 389//389 347//347
f 346//346 221//221 347//347
f 347//347 389//389 346//346
f 346//346 389//389 380//380
f 380//380 389//389 379//379
f 380//380 375//375 346//346
f 380//380 379//379 375//375
f 213//213 214//214 215//215
f 343//343 218//218 220//220
f 343//343 220//220 375//375
f 217//217 216//216 346//346
f 346//346 220//220 217//217
f 370//370 345//345 369//369
f 369//369 372//372 370//370
f 368//368 345//345 344//344
f 335//335 370//370 371//371
f 370//370 372//372 371//371
f 378//378 374//374 379//379
f 386//386 385//385 378//378
f 379//379 387//387 378//378
f 378//378 387//387 386//386
f 320//320 319//319 308//308
f 331//331 330//330 322//322
f 322//322 323//323 331//331
f 337//337 330//330 331//331
f 324//324 323//323 313//313
f 324//324 313//313 314//314
f 176//176 16//16 8//8
f 221//221 214//214 213//213
f 213//213 212//212 348//348
f 348//348 221//221 213//213
f 213//213 215//215 212//212
f 206//206 218//218 343//343
f 343//343 344//344 206//206
f 343//343 375//375 368//368
f 368//368 344//344 343//343
f 345//345 368//368 369//369
f 368//368 373//373 369//369
f 369//369 373//373 372//372
f 383//383 377//377 384//384
f 384//384 392//392 383//383
f 393//393 392//392 384//384
f 394//394 393//393 384//384
f 384//384 385//385 394//394
f 383//383 382//382 376//376
f 382//382 328//328 376//376
f 376//376 371//371 372//372
f 376//376 328//328 335//335
f 335//335 371//371 376//376
f 372//372 373//373 377//377
f 377//377 378//378 385//385
f 385//385 384//384 377//377
f 374//374 378//378 373//373
f 373//373 368//368 374//374
f 378//378 377//377 373//373
f 319//319 320//320 321//321
f 321//321 328//328 327//327
f 327//327 319//319 321//321
f 329//329 320//320 330//330
f 330//330 336//336 329//329
f 8//8 177//177 176//176
f 376//376 377//377 383//383
f 372//372 377//377 376//376
f 321//321 334//334 328//328
f 321//321 329//329 334//334
f 320//320 329//329 321//321
f 171//171 152//152 170//170
f 150//150 152//152 171//171
f 424//424 148//148 419//419
f 170//170 148//148 424//424
f 150//150 171//171 232//232
f 171//171 188//188 232//232
f 426//426 171//171 170//170
f 170//170 424//424 426//426
f 6//6 7//7 67//67
f 67//67 68//68 6//6
f 68//68 67//67 437//437
f 437//437 67//67 434//434
f 431//431 66//66 437//437
f 437//437 66//66 68//68
f 430//430 437//437 434//434
f 431//431 437//437 430//430
f 152//152 427//427 418//418
f 418//418 149//149 152//152
f 239//239 242//242 240//240
f 240//240 242//242 244//244
f 422//422 152//152 150//150
f 422//422 427//427 152//152
f 420//420 424//424 419//419
f 420//420 426//426 424//424
f 50//50 41//41 122//122
f 122//122 119//119 50//50
f 417//417 418//418 427//427
f 427//427 422//422 417//417
f 438//438 7//7 6//6
f 6//6 432//432 438//438
f 428//428 438//438 432//432
f 429//429 438//438 428//428
f 428//428 432//432 6//6
f 6//6 4//4 428//428
f 185//185 67//67 7//7
f 185//185 7//7 184//184
f 172//172 75//75 42//42
f 172//172 121//121 75//75
f 69//69 66//66 145//145
f 145//145 187//187 420//420
f 419//419 148//148 145//145
f 145//145 420//420 419//419
f 431//431 430//430 145//145
f 148//148 147//147 145//145
f 145//145 66//66 431//431
f 145//145 430//430 186//186
f 186//186 187//187 145//145
f 145//145 30//30 69//69
f 146//146 30//30 145//145
f 395//395 404//404 403//403
f 395//395 403//403 394//394
f 74//74 120//120 118//118
f 40//40 120//120 74//74
f 118//118 39//39 74//74
f 3//3 71//71 108//108
f 109//109 3//3 108//108
f 35//35 72//72 111//111
f 111//111 112//112 35//35
f 174//174 162//162 153//153
f 153//153 173//173 174//174
f 78//78 135//135 131//131
f 19//19 135//135 78//78
f 82//82 142//142 28//28
f 141//141 142//142 82//82
f 29//29 83//83 143//143
f 144//144 29//29 143//143
f 38//38 116//116 117//117
f 39//39 116//116 38//38
f 36//36 73//73 113//113
f 114//114 36//36 113//113
f 20//20 132//132 77//77
f 77//77 132//132 130//130
f 125//125 76//76 18//18
f 125//125 18//18 133//133
f 140//140 81//81 139//139
f 140//140 26//26 81//81
f 79//79 21//21 137//137
f 137//137 134//134 79//79
f 54//54 95//95 126//126
f 55//55 95//95 54//54
f 345//345 342//342 219//219
f 345//345 219//219 199//199
f 199//199 206//206 345//345
f 206//206 344//344 345//345
f 331//331 323//323 324//324
f 332//332 331//331 324//324
f 17//17 43//43 8//8
f 8//8 16//16 17//17

