# https://github.com/mikedh/trimesh
v -9.30000019 -11.00000000 11.50000000
v -9.30000019 -11.00000000 13.50000000
v -9.50000000 -10.80000019 11.50000000
v -9.21208191 -11.00000000 13.71209431
v -9.50000000 -10.80000019 13.50000000
v -9.35355377 -10.80000019 13.85355377
v 9.21209431 -11.00000000 13.71208191
v 9.30000019 -11.00000000 11.50000000
v 9.30000019 -11.00000000 13.50000000
v 9.50000000 -10.80000019 13.50000000
v 9.50000000 -10.80000019 11.50000000
v -6.05000019 -11.50000000 3.50000000
v -5.23873425 -11.50000000 6.52614832
v -6.03703642 -11.30000019 -1.61761904
v -6.05000019 -11.50000000 -0.00000000
v 6.05000019 -11.50000000 3.50000000
v 6.05000019 -11.50000000 0.00000000
v 5.23875189 -11.50000000 6.52611780
v 3.02614832 -11.50000000 8.73873425
v -0.00000000 -11.50000000 9.55000019
v -3.02611780 -11.50000000 8.73875237
v 1.61761165 -7.50001526 -6.03703833
v 1.61761904 -11.30000019 -6.03703642
v -0.00000000 -11.30000019 -6.25000000
v -0.00000000 -11.50000000 -6.05000019
v -0.00001826 -7.50001526 -6.25000000
v -1.61761904 -11.30000019 -6.03703642
v -3.02614832 -11.50000000 -5.23873425
v 3.12500191 -7.50001526 -5.41265774
v 3.12500000 -11.30000019 -5.41265869
v 4.41942406 -7.50001526 -4.41941071
v 4.41941738 -11.30000019 -4.41941738
v 3.02611780 -11.50000000 -5.23875189
v 5.41266489 -7.50001526 -3.12498927
v 5.41265869 -11.30000019 -3.12500000
v 5.23873425 -11.50000000 -3.02614832
v 6.03703880 -7.50001526 -1.61760974
v 6.03703642 -11.30000019 -1.61761904
v -1.61764562 -7.50001526 -6.03702927
v -3.12500000 -11.30000019 -5.41265869
v -3.12502933 -7.50001526 -5.41264200
v -4.41941738 -11.30000019 -4.41941738
v -4.41944218 -7.50001526 -4.41939259
v -5.41265869 -11.30000019 -3.12500000
v -5.41267395 -7.50001526 -3.12497354
v -5.23875189 -11.50000000 -3.02611780
v 5.41231728 8.39999962 -3.12560344
v 3.12517190 8.39999962 -5.41255569
v -5.40816307 8.39999962 -3.13276458
v -3.11988997 8.39999962 -5.41560173
v -6.03548527 8.39999962 -1.62316644
v 5.41265869 11.30000019 -3.12500000
v 6.25000000 11.30000019 0.00000000
v 0.00325134 8.39999962 -6.24991703
v 3.12500000 11.30000019 -5.41265869
v 0.00000000 11.30000019 -6.25000000
v -3.12500000 11.30000019 -5.41265869
v -5.41265869 11.30000019 -3.12500000
v 6.05000019 11.50000000 0.00000000
v 6.05000019 11.50000000 3.50000000
v 5.23875189 11.50000000 -3.02611780
v 3.02614832 11.50000000 -5.23873425
v 0.00000000 11.50000000 -6.05000019
v -3.02611780 11.50000000 -5.23875189
v -6.25000000 11.30000019 0.00000001
v -5.23873425 11.50000000 -3.02614832
v -6.05000019 11.50000000 0.00000001
v 9.50000000 10.80000019 11.50000000
v 9.50000000 10.80000019 13.50000000
v -9.50000000 10.80000019 13.50000000
v -9.50000000 10.80000019 11.50000000
v -9.35355377 10.80000019 13.85355377
v -9.21209431 11.00000000 13.71208191
v -9.30000019 11.00000000 13.50000000
v -9.30000019 11.00000000 11.50000000
v 9.30000019 11.00000000 11.50000000
v 9.30000019 11.00000000 13.50000000
v 9.21208191 11.00000000 13.71209431
v 5.23873425 11.50000000 6.52614832
v -6.05000019 11.50000000 3.50000000
v -5.23875189 11.50000000 6.52611780
v -3.02614832 11.50000000 8.73873425
v -0.00000000 11.50000000 9.55000019
v 3.02611780 11.50000000 8.73875237
v 4.50000000 10.00000000 32.00000000
v 4.50000000 -10.00000000 32.00000000
v -1.64550424 -10.00000000 32.00000000
v -9.50000000 8.50000000 10.50000000
v -9.50000000 -8.50000000 10.50000000
v -9.50000000 -8.00000000 17.00000000
v -9.50000000 8.00000000 17.00000000
v -3.51447964 8.00000000 32.71199036
v -1.64550424 10.00000000 32.00000000
v -3.10732841 7.85444069 33.78076172
v -1.24185753 9.78571320 33.58919144
v -3.51447964 -8.00000000 32.71199036
v -3.10228610 -7.85079384 33.79399872
v -2.73840761 7.44235897 34.74917984
v -0.87467921 9.17549896 35.03549194
v -2.49047613 1.54999995 35.40000153
v -2.41971278 6.78222704 35.58575439
v -2.18535805 5.95633459 36.20093536
v -0.32287234 6.98006964 37.20760727
v -1.99067020 4.00000000 36.71199036
v -0.17263462 5.53811264 37.79949951
v -0.12169476 4.00000000 38.00000000
v -1.64529407 -0.00009094 36.95000839
v -2.73440027 -7.43611240 34.75970078
v -2.18758368 -5.96671247 36.19509125
v -2.49047613 -1.54999995 35.40000153
v -1.99067020 -4.00000000 36.71199036
v -0.12169476 -4.00000000 38.00000000
v -0.32077539 -6.96548796 37.21592712
v -0.17130980 -5.51836109 37.80470276
v -0.87812364 -9.18341541 35.02195358
v -0.56002796 -8.21097279 36.27407455
v -1.24692166 -9.79116154 33.56921768
v 4.50000000 -9.19479752 35.00222397
v 4.50000000 -4.00000000 38.00000000
v 4.50000000 4.00000000 38.00000000
v 4.50000000 -7.00222492 37.19479752
v 4.50000000 7.00222492 37.19479752
v 4.50000000 9.19479752 35.00222397
v 12.50000000 2.00000000 32.00000000
v 12.50000000 -2.00000000 17.00000000
v 12.50000000 2.00000000 17.00000000
v 11.72573662 -2.00000000 14.05183506
v 11.90656471 5.02370501 17.00000000
v 12.28141022 2.00000000 15.39522839
v 12.50000000 -2.00000000 32.00000000
v 11.90656471 -5.02370501 32.00000000
v 12.33690071 -3.60716867 17.00000000
v 11.72573662 2.00000000 34.94816589
v 11.69754696 -2.00000000 34.99758148
v 11.14982891 -4.75444937 34.99728012
v 12.33690071 3.60716867 32.00000000
v 11.85381031 5.14983702 32.00000000
v 11.14837837 4.75384808 35.00000000
v 11.69660282 2.00000000 34.99921799
v 11.08275127 6.54613972 32.00000000
v 10.07026768 7.74213600 32.00000000
v 9.58844852 7.08844805 35.00000000
v 7.52370501 9.40656471 32.00000000
v 7.25384808 8.64837837 35.00000000
v 4.50000000 9.19624329 34.99972153
v 11.59887791 5.00514412 15.15336132
v 9.57231236 2.00000000 37.15372467
v 11.65372658 -2.00000000 35.07231140
v 9.11688328 3.91237593 37.19772339
v 9.49758339 2.00000000 37.19754791
v 8.03360939 5.53360987 37.19772339
v 6.41237593 6.61688375 37.19772339
v 4.50000000 6.99700451 37.19781113
v 5.26616526 3.84742594 38.00000000
v 4.50000000 -6.99972248 37.19624329
v 9.49921894 -2.00000000 37.19660187
v 6.50000000 2.00000000 38.00000000
v 9.44816494 -2.00000000 37.22573471
v 6.34743547 2.76614261 38.00000000
v 5.91422272 3.41419959 38.00000000
v 6.50000000 -2.00000000 38.00000000
v 6.41341734 -6.61939764 37.19615173
v 5.91419983 -3.41422272 38.00000000
v 5.26614285 -3.84743547 38.00000000
v 6.34742594 -2.76616526 38.00000000
v 4.50000000 -9.19781208 34.99700546
v 7.25444937 -8.64982891 34.99728012
v 6.10716867 -9.83690071 32.00000000
v 11.60225201 -4.86822319 15.00763798
v 11.85381031 -5.14983702 17.00000000
v 11.51872826 -4.54266977 14.52357388
v 7.64983702 -9.35381031 32.00000000
v 10.24213600 -7.57026720 32.00000000
v 9.04613972 -8.58275127 32.00000000
v 9.58955860 -7.08955860 34.99728012
v 8.03553391 -5.53553391 37.19615173
v 9.11939812 -3.91341710 37.19615173
vn -0.47265669 -0.87995932 -0.04761566
vn -0.44996215 -0.88714712 0.10248933
vn -0.91774987 -0.38654356 -0.09120990
vn -0.38173185 -0.90567055 0.18450379
vn -0.90445686 -0.41246877 0.10875340
vn -0.72119845 -0.61990177 0.30918374
vn 0.14081855 -0.98707946 0.07644782
vn 0.47265669 -0.87995932 -0.04761566
vn 0.42795575 -0.90273523 0.04385182
vn 0.82239935 -0.56821728 0.02807906
vn 0.86548130 -0.48318629 -0.13218596
vn -0.07628923 -0.99708357 0.00207694
vn -0.04090271 -0.99900573 0.01773460
vn -0.81617786 -0.51362636 -0.26465383
vn -0.26879787 -0.96154319 -0.05641271
vn 0.07628923 -0.99708357 0.00207692
vn 0.26879786 -0.96154319 -0.05641277
vn 0.04090296 -0.99900572 0.01773446
vn 0.01814682 -0.99930748 0.03248479
vn -0.00049412 -0.99929034 0.03766405
vn -0.01808743 -0.99927749 0.03342682
vn 0.25891721 0.00031243 -0.96589947
vn 0.22500309 -0.49439004 -0.83961425
vn -0.00000296 -0.37188003 -0.92828080
vn -0.00000006 -0.91267392 -0.40868853
vn -0.06540401 0.00000001 -0.99785887
vn -0.22499244 -0.49439649 -0.83961331
vn -0.20447650 -0.91269952 -0.35379225
vn 0.48288683 -0.00000002 -0.87568277
vn 0.46401527 -0.37193031 -0.80396373
vn 0.70709357 0.00031222 -0.70711992
vn 0.61472975 -0.49417855 -0.61473157
vn 0.20447221 -0.91269952 -0.35379472
vn 0.89862434 -0.00000000 -0.43871893
vn 0.80396544 -0.37193133 -0.46401148
vn 0.35379225 -0.91269952 -0.20447650
vn 0.93160109 0.00063525 -0.36348177
vn 0.80675551 -0.52259580 -0.27575203
vn -0.25860412 0.00031279 -0.96598334
vn -0.46401631 -0.37193943 -0.80395891
vn -0.55506817 0.00000001 -0.83180486
vn -0.61471879 -0.49418965 -0.61473360
vn -0.70686501 0.00031312 -0.70734840
vn -0.80395838 -0.37195155 -0.46400751
vn -0.89691006 -0.00000050 -0.44221301
vn -0.35379472 -0.91269952 -0.20447221
vn 0.83377066 0.00001612 -0.55211093
vn 0.56238012 0.00000382 -0.82687883
vn -0.82979750 0.00020052 -0.55806457
vn -0.44041731 0.00013026 -0.89779317
vn -0.94692057 0.02107189 -0.32077625
vn 0.79299614 0.37769433 -0.47802105
vn 0.82717758 0.51887416 -0.21574718
vn 0.07881288 0.00005769 -0.99688943
vn 0.46488153 0.36717706 -0.80564643
vn -0.00000006 0.36713943 -0.93016592
vn -0.46488567 0.36718058 -0.80564244
vn -0.79564575 0.37706400 -0.47409976
vn 0.38092119 0.91967066 -0.09541969
vn 0.07628923 0.99708357 0.00207694
vn 0.37589472 0.90077022 -0.21752281
vn 0.21753344 0.90077019 -0.37588865
vn 0.00000003 0.90073629 -0.43436637
vn -0.21752281 0.90077022 -0.37589472
vn -0.82717758 0.51887417 -0.21574718
vn -0.37588865 0.90077019 -0.21753344
vn -0.38092118 0.91967066 -0.09541972
vn 0.86612266 0.47992126 -0.13966787
vn 0.82237831 0.56825648 0.02790145
vn -0.90445686 0.41246877 0.10875340
vn -0.91715681 0.38671106 -0.09632203
vn -0.72120378 0.61989588 0.30918314
vn -0.38174587 0.90566492 0.18450240
vn -0.44996368 0.88714671 0.10248616
vn -0.47370864 0.87922307 -0.05066482
vn 0.47370864 0.87922307 -0.05066482
vn 0.42793412 0.90272974 0.04417470
vn 0.14560458 0.98622066 0.07853740
vn 0.04090271 0.99900573 0.01773460
vn -0.07628923 0.99708357 0.00207692
vn -0.04090296 0.99900572 0.01773446
vn -0.01808758 0.99927748 0.03342676
vn -0.00049424 0.99929034 0.03766406
vn 0.01814667 0.99930748 0.03248485
vn 0.09624753 0.98177852 0.16385162
vn 0.05490810 -0.98562573 0.15977175
vn -0.21168335 -0.96411276 0.16023964
vn -0.98753416 0.03481251 -0.15350694
vn -0.98827722 -0.03058423 -0.14957519
vn -0.96116587 -0.16225585 0.22323354
vn -0.96116587 0.16225584 0.22323354
vn -0.85491064 0.37189186 0.36169634
vn -0.21549214 0.96294871 0.16215091
vn -0.83404549 0.36823450 0.41081806
vn -0.32668099 0.88732218 0.32548253
vn -0.85485595 -0.37180463 0.36191520
vn -0.83380474 -0.36791376 0.41159339
vn -0.80702426 0.31859775 0.49719948
vn -0.30362071 0.76126894 0.57296078
vn -0.93448766 0.00000002 0.35599552
vn -0.78710986 0.26649485 0.55627202
vn -0.77811659 0.16029564 0.60732189
vn -0.28307255 0.49674437 0.82043584
vn -0.77597416 0.03804402 0.62961636
vn -0.28537329 0.22868504 0.93073371
vn -0.29064751 0.05686015 0.95513923
vn -0.56745328 -0.00000000 0.82340560
vn -0.80617102 -0.31089125 0.50342320
vn -0.77717810 -0.18322770 0.60201479
vn -0.93448765 -0.00000000 0.35599556
vn -0.77600490 -0.03816526 0.62957113
vn -0.29073494 -0.05611504 0.95515669
vn -0.29525955 -0.44531465 0.84529087
vn -0.28545090 -0.22675547 0.93118190
vn -0.31689727 -0.78596997 0.53087412
vn -0.30454931 -0.63109548 0.71342008
vn -0.32671679 -0.88796924 0.32367694
vn 0.08647743 -0.79694577 0.59782865
vn 0.02336991 -0.13176758 0.99100512
vn 0.02331238 0.13164855 0.99102230
vn 0.06918308 -0.60746408 0.79132869
vn 0.06122401 0.61242441 0.78815478
vn 0.07872782 0.79385590 0.60298818
vn 0.99059509 0.04993668 0.12738794
vn 0.99101507 -0.05925804 -0.11990667
vn 0.99310054 0.09453985 -0.06937958
vn 0.95483330 -0.06845425 -0.28914943
vn 0.95935155 0.27517431 -0.06263948
vn 0.97113810 0.07628685 -0.22598917
vn 0.98695219 -0.09411749 0.13064175
vn 0.91997189 -0.36503940 0.14282142
vn 0.97682532 -0.18238497 -0.11201794
vn 0.92057191 0.08305468 0.38164025
vn 0.91966305 -0.09071998 0.38208606
vn 0.80679102 -0.33546829 0.48636333
vn 0.97080913 0.19927761 0.13348431
vn 0.91266329 0.38508452 0.13695117
vn 0.79893422 0.33285155 0.50091312
vn 0.79781227 0.07985248 0.59759448
vn 0.81709070 0.55298176 0.16301524
vn 0.65641658 0.73271012 0.17959163
vn 0.60932126 0.61885413 0.49572893
vn 0.36668334 0.91166507 0.18549968
vn 0.33371240 0.80672573 0.48767780
vn 0.09734973 0.91830746 0.38371141
vn 0.95725089 0.21562610 -0.19281111
vn 0.61764024 0.06334564 0.78390552
vn 0.78968177 -0.07918142 0.60838557
vn 0.48080386 0.20275794 0.85306323
vn 0.39293056 0.04042880 0.91867899
vn 0.36998925 0.36998915 0.85218307
vn 0.20040734 0.48324024 0.85224161
vn 0.04793454 0.39513543 0.91737139
vn 0.05603489 0.13518618 0.98923445
vn 0.04797043 -0.39542835 0.91724329
vn 0.60710980 -0.06168672 0.79221994
vn 0.13787343 0.01507364 0.99033515
vn 0.38374515 -0.03972413 0.92258423
vn 0.13518685 0.05603361 0.98923443
vn 0.10347076 0.10346892 0.98923606
vn 0.13588722 -0.01429345 0.99062120
vn 0.20045911 -0.48362173 0.85201301
vn 0.10357162 -0.10357343 0.98921457
vn 0.05608921 -0.13532100 0.98921293
vn 0.13413376 -0.05663539 0.98934350
vn 0.08994084 -0.91584995 0.39131767
vn 0.33132890 -0.79939993 0.50117952
vn 0.19229504 -0.96442128 0.18142274
vn 0.95405215 -0.17648139 -0.24215453
vn 0.94299113 -0.33053159 -0.03894358
vn 0.95433938 -0.13636194 -0.26578519
vn 0.38554538 -0.90354118 0.18699760
vn 0.74341144 -0.64688887 0.16992413
vn 0.55787855 -0.80749164 0.19164750
vn 0.61898654 -0.60944615 0.49540998
vn 0.37022949 -0.37022960 0.85197428
vn 0.48282247 -0.20297512 0.85187063
f 86//86 87//87 20//20
f 126//126 129//129 128//128
f 128//128 136//136 126//126
f 126//126 136//136 124//124
f 37//37 52//52 129//129
f 127//127 129//129 125//125
f 125//125 132//132 127//127
f 129//129 126//126 125//125
f 130//130 132//132 125//125
f 127//127 132//132 171//171
f 11//11 132//132 170//170
f 59//59 52//52 61//61
f 128//128 129//129 146//146
f 78//78 85//85 143//143
f 78//78 79//79 84//84
f 84//84 85//85 78//78
f 143//143 85//85 145//145
f 69//69 140//140 137//137
f 137//137 136//136 128//128
f 128//128 69//69 137//137
f 138//138 137//137 140//140
f 136//136 137//137 138//138
f 19//19 86//86 20//20
f 19//19 7//7 86//86
f 19//19 18//18 7//7
f 86//86 7//7 168//168
f 33//33 25//25 23//23
f 23//23 25//25 24//24
f 175//175 174//174 173//173
f 173//173 135//135 175//175
f 175//175 135//135 177//177
f 169//169 132//132 11//11
f 169//169 171//171 132//132
f 118//118 115//115 166//166
f 86//86 168//168 166//166
f 28//28 42//42 40//40
f 42//42 41//41 40//40
f 68//68 69//69 128//128
f 128//128 146//146 68//68
f 129//129 52//52 68//68
f 68//68 146//146 129//129
f 20//20 87//87 21//21
f 77//77 78//78 143//143
f 79//79 78//78 77//77
f 95//95 85//85 93//93
f 95//95 145//145 85//85
f 99//99 103//103 122//122
f 145//145 95//95 99//99
f 159//159 157//157 149//149
f 149//149 157//157 150//150
f 142//142 138//138 140//140
f 173//173 10//10 131//131
f 11//11 170//170 131//131
f 131//131 10//10 11//11
f 131//131 135//135 173//173
f 131//131 132//132 130//130
f 131//131 170//170 132//132
f 130//130 134//134 131//131
f 131//131 134//134 135//135
f 33//33 23//23 30//30
f 30//30 29//29 48//48
f 11//11 8//8 38//38
f 38//38 8//8 17//17
f 38//38 169//169 11//11
f 17//17 36//36 38//38
f 38//38 36//36 35//35
f 171//171 169//169 38//38
f 127//127 171//171 38//38
f 38//38 129//129 127//127
f 38//38 37//37 129//129
f 52//52 37//37 38//38
f 165//165 177//177 158//158
f 177//177 156//156 158//158
f 158//158 161//161 165//165
f 158//158 156//156 150//150
f 157//157 161//161 158//158
f 150//150 157//157 158//158
f 133//133 130//130 124//124
f 133//133 134//134 130//130
f 124//124 136//136 133//133
f 136//136 138//138 133//133
f 176//176 177//177 165//165
f 176//176 175//175 177//177
f 117//117 115//115 97//97
f 97//97 96//96 117//117
f 117//117 166//166 115//115
f 87//87 86//86 117//117
f 86//86 166//166 117//117
f 116//116 115//115 118//118
f 167//167 168//168 172//172
f 167//167 166//166 168//168
f 172//172 174//174 167//167
f 174//174 175//175 167//167
f 118//118 166//166 167//167
f 175//175 176//176 167//167
f 122//122 103//103 153//153
f 153//153 152//152 122//122
f 120//120 152//152 153//153
f 27//27 25//25 28//28
f 28//28 40//40 27//27
f 24//24 25//25 27//27
f 27//27 26//26 24//24
f 53//53 52//52 59//59
f 59//59 68//68 53//53
f 53//53 68//68 52//52
f 3//3 14//14 1//1
f 89//89 14//14 3//3
f 13//13 21//21 4//4
f 4//4 21//21 87//87
f 87//87 117//117 4//4
f 4//4 117//117 96//96
f 26//26 27//27 56//56
f 56//56 27//27 39//39
f 24//24 26//26 56//56
f 58//58 44//44 45//45
f 76//76 68//68 59//59
f 79//79 77//77 60//60
f 92//92 98//98 94//94
f 94//94 95//95 92//92
f 98//98 99//99 94//94
f 94//94 99//99 95//95
f 123//123 99//99 122//122
f 145//145 99//99 123//123
f 154//154 152//152 120//120
f 141//141 142//142 140//140
f 141//141 77//77 143//143
f 69//69 77//77 141//141
f 141//141 140//140 69//69
f 143//143 145//145 144//144
f 144//144 141//141 143//143
f 142//142 141//141 144//144
f 145//145 123//123 144//144
f 152//152 142//142 144//144
f 122//122 152//152 144//144
f 144//144 123//123 122//122
f 18//18 16//16 9//9
f 7//7 18//18 9//9
f 9//9 174//174 172//172
f 173//173 174//174 9//9
f 9//9 10//10 173//173
f 172//172 168//168 9//9
f 9//9 168//168 7//7
f 31//31 52//52 47//47
f 32//32 36//36 33//33
f 33//33 30//30 32//32
f 35//35 36//36 32//32
f 47//47 35//35 32//32
f 32//32 31//31 47//47
f 32//32 30//30 48//48
f 48//48 31//31 32//32
f 52//52 38//38 34//34
f 34//34 38//38 35//35
f 47//47 52//52 34//34
f 34//34 35//35 47//47
f 147//147 149//149 150//150
f 138//138 149//149 147//147
f 150//150 156//156 147//147
f 163//163 176//176 165//165
f 164//164 176//176 163//163
f 162//162 176//176 164//164
f 162//162 164//164 119//119
f 118//118 167//167 162//162
f 162//162 167//167 176//176
f 108//108 96//96 97//97
f 108//108 90//90 96//96
f 108//108 91//91 90//90
f 97//97 115//115 108//108
f 115//115 116//116 108//108
f 112//112 111//111 114//114
f 114//114 119//119 112//112
f 15//15 1//1 14//14
f 2//2 12//12 13//13
f 13//13 4//4 2//2
f 56//56 63//63 55//55
f 55//55 31//31 48//48
f 52//52 31//31 55//55
f 22//22 56//56 55//55
f 48//48 29//29 55//55
f 55//55 23//23 22//22
f 55//55 30//30 23//23
f 29//29 30//30 55//55
f 50//50 40//40 41//41
f 50//50 27//27 40//40
f 39//39 27//27 50//50
f 24//24 56//56 54//54
f 54//54 56//56 22//22
f 54//54 23//23 24//24
f 22//22 23//23 54//54
f 57//57 58//58 66//66
f 57//57 63//63 56//56
f 57//57 56//56 39//39
f 39//39 50//50 57//57
f 43//43 58//58 57//57
f 57//57 50//50 41//41
f 57//57 41//41 42//42
f 42//42 43//43 57//57
f 44//44 58//58 49//49
f 49//49 58//58 43//43
f 49//49 42//42 44//44
f 49//49 43//43 42//42
f 51//51 58//58 45//45
f 45//45 44//44 51//51
f 44//44 14//14 51//51
f 14//14 89//89 51//51
f 65//65 58//58 71//71
f 159//159 149//149 151//151
f 152//152 154//154 151//151
f 151//151 142//142 152//152
f 151//151 149//149 138//138
f 138//138 142//142 151//151
f 139//139 133//133 138//138
f 138//138 147//147 139//139
f 134//134 133//133 139//139
f 155//155 119//119 114//114
f 155//155 162//162 119//119
f 92//92 72//72 70//70
f 70//70 91//91 92//92
f 91//91 108//108 100//100
f 109//109 108//108 116//116
f 114//114 111//111 109//109
f 111//111 108//108 109//109
f 103//103 99//99 101//101
f 101//101 99//99 98//98
f 91//91 100//100 101//101
f 101//101 98//98 92//92
f 92//92 91//91 101//101
f 44//44 42//42 46//46
f 46//46 42//42 28//28
f 46//46 14//14 44//44
f 46//46 15//15 14//14
f 96//96 90//90 5//5
f 62//62 55//55 63//63
f 62//62 61//61 52//52
f 52//52 55//55 62//62
f 64//64 57//57 66//66
f 63//63 57//57 64//64
f 88//88 51//51 89//89
f 71//71 58//58 88//88
f 58//58 51//51 88//88
f 93//93 85//85 83//83
f 83//83 85//85 84//84
f 74//74 70//70 72//72
f 159//159 151//151 160//160
f 160//160 151//151 154//154
f 134//134 139//139 148//148
f 148//148 139//139 147//147
f 148//148 147//147 156//156
f 148//148 156//156 177//177
f 177//177 135//135 148//148
f 135//135 134//134 148//148
f 118//118 162//162 121//121
f 162//162 155//155 121//121
f 121//121 116//116 118//118
f 110//110 108//108 111//111
f 110//110 100//100 108//108
f 114//114 109//109 113//113
f 113//113 109//109 116//116
f 113//113 155//155 114//114
f 116//116 121//121 113//113
f 113//113 121//121 155//155
f 102//102 100//100 104//104
f 102//102 101//101 100//100
f 103//103 101//101 102//102
f 107//107 104//104 111//111
f 111//111 112//112 107//107
f 107//107 106//106 104//104
f 112//112 106//106 107//107
f 6//6 4//4 96//96
f 96//96 5//5 6//6
f 6//6 5//5 2//2
f 6//6 2//2 4//4
f 93//93 83//83 82//82
f 67//67 65//65 71//71
f 66//66 58//58 67//67
f 58//58 65//65 67//67
f 104//104 106//106 105//105
f 105//105 102//102 104//104
f 103//103 102//102 105//105
f 105//105 106//106 120//120
f 105//105 153//153 103//103
f 120//120 153//153 105//105
f 73//73 82//82 81//81
f 81//81 74//74 73//73
f 93//93 82//82 73//73
f 73//73 95//95 93//93
f 73//73 74//74 72//72
f 73//73 72//72 92//92
f 92//92 95//95 73//73
f 80//80 74//74 81//81
f 75//75 67//67 71//71
f 125//125 126//126 124//124
f 124//124 130//130 125//125
f 76//76 77//77 69//69
f 69//69 68//68 76//76
f 77//77 76//76 60//60
f 60//60 76//76 59//59
f 9//9 16//16 17//17
f 17//17 8//8 9//9
f 9//9 8//8 11//11
f 11//11 10//10 9//9
f 2//2 15//15 12//12
f 1//1 15//15 2//2
f 28//28 25//25 46//46
f 46//46 19//19 20//20
f 17//17 16//16 46//46
f 20//20 21//21 46//46
f 46//46 36//36 17//17
f 18//18 19//19 46//46
f 46//46 25//25 33//33
f 46//46 21//21 13//13
f 13//13 12//12 46//46
f 46//46 16//16 18//18
f 33//33 36//36 46//46
f 12//12 15//15 46//46
f 1//1 2//2 5//5
f 3//3 1//1 5//5
f 88//88 89//89 3//3
f 88//88 70//70 71//71
f 3//3 5//5 88//88
f 90//90 91//91 88//88
f 91//91 70//70 88//88
f 88//88 5//5 90//90
f 160//160 106//106 112//112
f 165//165 161//161 160//160
f 160//160 157//157 159//159
f 160//160 161//161 157//157
f 119//119 164//164 160//160
f 160//160 163//163 165//165
f 160//160 154//154 120//120
f 164//164 163//163 160//160
f 160//160 112//112 119//119
f 120//120 106//106 160//160
f 111//111 104//104 110//110
f 104//104 100//100 110//110
f 80//80 64//64 66//66
f 59//59 61//61 80//80
f 84//84 79//79 80//80
f 80//80 60//60 59//59
f 79//79 60//60 80//80
f 61//61 62//62 80//80
f 81//81 82//82 80//80
f 80//80 62//62 63//63
f 63//63 64//64 80//80
f 80//80 83//83 84//84
f 80//80 82//82 83//83
f 66//66 67//67 80//80
f 71//71 70//70 75//75
f 70//70 74//74 75//75
f 75//75 80//80 67//67
f 74//74 80//80 75//75

