# https://github.com/mikedh/trimesh
v -7.40000010 -0.19562972 9.49798584
v -7.40000010 0.00000000 9.50000000
v -8.19999981 -0.39117646 9.49194336
v -5.00000000 -1.24485302 9.41802788
v -8.19999981 -1.54802299 9.37302685
v -10.00000000 7.75000000 9.50000000
v -10.00000000 7.36731672 9.42387962
v -11.00000000 7.75000000 8.50000000
v -8.39999962 -8.89921570 2.67140579
v -8.39999962 -8.90848351 2.54999995
v -8.39999962 -8.87163448 2.78999996
v -8.39999962 -8.46318722 3.85533500
v -8.39999962 -7.92882442 4.86021519
v -8.39999962 -7.27606201 5.79197454
v -8.39999962 -6.51459789 6.63695002
v -8.39999962 -7.20400810 -5.88133717
v -8.39999962 -6.40447092 -6.74327564
v -8.39999962 -7.88855362 -4.92527056
v -8.39999962 -8.44724941 -3.89012241
v -8.39999962 -8.87163448 -2.78999996
v -8.39999962 -8.90848351 -2.54999995
v -8.39999962 -8.89921570 -2.67140579
v -8.19999981 -9.10848331 -2.54999995
v -8.19999981 -9.09690094 -2.70175767
v -8.19999981 -9.06242275 -2.84999990
v -8.19999981 -8.05943584 -5.02946281
v -8.19999981 -8.63000679 -3.97152114
v -8.19999981 -7.35984230 -6.00688934
v -8.19999981 -6.54242754 -6.88815260
v -8.39999962 -5.50197411 -7.49787951
v -8.39999962 -4.51138115 -8.13243198
v -8.19999981 -5.62027597 -7.65914488
v -8.39999962 -3.44927931 -8.63656998
v -8.19999981 -4.60815048 -8.30752373
v -8.39999962 -2.33187723 -9.00277233
v -8.19999981 -3.52225423 -8.82290936
v -8.19999981 -2.37997127 -9.19705009
v -8.19999981 -1.19958758 -9.42395782
v -8.19999981 0.00000001 -9.50000000
v -10.00000000 7.36731672 -9.42387962
v -8.39999962 -5.65521383 7.38298368
v -8.39999962 -4.71109343 8.01839733
v -8.39999962 -3.69694424 8.53350163
v -8.39999962 -2.62731266 8.92105198
v -8.39999962 -1.51791620 9.17524242
v -8.19999981 -2.68167186 9.11365128
v -8.19999981 -3.77513456 8.71770382
v -8.19999981 -4.81202507 8.19111824
v -8.19999981 -5.77680588 7.54178476
v -8.19999981 -6.65501833 6.77943468
v -8.19999981 -7.43350267 5.91549158
v -8.19999981 -8.10059261 4.96290255
v -8.19999981 -8.64629173 3.93594217
v -8.19999981 -9.06242275 2.84999990
v -8.19999981 -9.09690094 2.70175767
v -8.19999981 -9.10848331 2.54999995
v -5.00000000 -8.77452469 3.64078116
v -7.40000010 -9.30467987 1.91648638
v -5.00000000 -9.17459011 2.46469283
v -5.00000000 -2.46469283 9.17459011
v -5.00000000 -3.64078116 8.77452469
v -5.00000000 -5.78475285 7.53564024
v -5.00000000 -6.71750927 6.71750927
v -5.00000000 -7.53564024 5.78475285
v -5.00000000 -8.22509575 4.75352287
v -5.00000000 -9.17459011 -2.46469283
v -5.00000000 -9.41802788 1.24485302
v -5.00000000 -9.41802788 -1.24485302
v -5.00000000 -9.50000000 0.00000000
v -7.40000010 -9.50000000 -0.00000000
v -7.40000010 -9.45104504 0.96319246
v -7.40000010 -9.45104504 -0.96319246
v -7.40000010 -9.30467987 -1.91648638
v -5.00000000 -8.77452469 -3.64078116
v -5.00000000 -8.22509575 -4.75352287
v -5.00000000 -7.53564024 -5.78475285
v -5.00000000 -6.71750927 -6.71750927
v -5.00000000 -5.78475285 -7.53564024
v -5.00000000 -3.64078116 -8.77452469
v -5.00000000 -2.46469283 -9.17459011
v -5.00000000 -1.24485302 -9.41802788
v -5.00000000 0.00000000 -9.50000000
v -10.00000000 7.75000000 -9.50000000
v -11.00000000 7.75000000 -8.50000000
v -7.54511642 -9.43842030 -0.00522057
v -4.94999981 -0.62719929 -9.47899628
v -4.94999981 -1.23879504 9.41890717
v -4.94999981 -2.45745826 9.17648411
v -4.94999981 -3.63431263 8.77711773
v -4.94999981 -4.74597216 8.22976017
v -4.94999981 -6.71995783 6.71506357
v -4.94999981 -6.26197624 7.14352608
v -4.94999981 -7.54433060 5.77336311
v -4.94999981 -7.14736843 6.25799656
v -4.94999981 -7.90704298 5.26568890
v -4.94999981 -8.23643398 4.73377657
v -4.94999981 -8.78533554 3.61457658
v -4.94999981 -9.18251610 2.43507838
v -4.94999981 -9.17132092 -2.47684765
v -4.94999981 -8.77137184 -3.64839673
v -4.94999981 -8.22251129 -4.75798368
v -4.94999981 -7.53329086 -5.78777838
v -4.94999981 -6.71410131 -6.72092009
v -4.94999981 -4.75244570 -8.22606564
v -4.94999981 -3.64502430 -8.77269936
v -4.94999981 -2.46928167 -9.17328644
v -4.94999981 -1.24733698 -9.41768932
v 4.94999981 -1.24733698 9.41768932
v 4.94999981 -0.62719929 9.47899628
v 4.94999981 -2.46928167 9.17328644
v 4.94999981 -3.64502430 8.77269936
v 4.94999981 -4.75244570 8.22606564
v 4.94999981 -6.71410131 6.72092009
v 4.94999981 -7.53329086 5.78777838
v 4.94999981 -8.22251129 4.75798368
v 4.94999981 -8.77137184 3.64839673
v 4.94999981 -9.17132092 2.47684765
v -4.94999981 -9.41571903 -1.26219797
v -4.94999981 -9.42191315 1.21530950
v 4.94999981 -9.41571903 1.26219797
v -4.94999981 -9.49996090 -0.02432229
v 4.94999981 -9.49996090 0.02432229
v 4.94999981 -9.42191315 -1.21530950
v 4.94999981 -9.18251610 -2.43507838
v 4.94999981 -8.78533554 -3.61457658
v 4.94999981 -8.23643398 -4.73377657
v 4.94999981 -7.90704298 -5.26568890
v 4.94999981 -7.14736843 -6.25799656
v 4.94999981 -7.54433060 -5.77336311
v 4.94999981 -6.26197624 -7.14352608
v 4.94999981 -6.71995783 -6.71506357
v 4.94999981 -4.74597216 -8.22976017
v 4.94999981 -3.63431263 -8.77711773
v 4.94999981 -2.45745826 -9.17648411
v 4.94999981 -1.23879504 -9.41890717
v 5.00000000 -1.23879504 9.41890717
v 7.40000010 0.00000000 9.50000000
v 5.00000000 -2.45745826 9.17648411
v 8.19999981 -1.54802299 9.37302685
v 7.40000010 -0.19562972 9.49798584
v 8.19999981 -0.39117646 9.49194336
v 5.00000000 -3.63431263 8.77711773
v 8.19999981 -2.68167186 9.11365128
v 5.00000000 -4.74597216 8.22976017
v 8.19999981 -3.77513456 8.71770382
v 8.19999981 -4.81202507 8.19111824
v 5.00000000 -6.26197624 7.14352608
v 8.19999981 -5.77680588 7.54178476
v 5.00000000 -6.71995783 6.71506357
v 8.19999981 -6.65501833 6.77943468
v 5.00000000 -7.14736843 6.25799656
v 5.00000000 -7.54433060 5.77336311
v 8.19999981 -7.43350267 5.91549158
v 5.00000000 -7.90704298 5.26568890
v 5.00000000 -8.23643398 4.73377657
v 8.19999981 -8.10059261 4.96290255
v 5.00000000 -8.78533554 3.61457658
v 8.19999981 -8.64629173 3.93594217
v 5.00000000 -9.18251610 2.43507838
v 5.00000000 -9.41571903 -1.26219797
v 5.00000000 -9.42191315 1.21530950
v 7.40000010 -9.34185123 1.72607362
v 5.00000000 -9.17132092 -2.47684765
v 5.00000000 -9.49996090 -0.02432229
v 7.40000010 -9.48226643 0.57830465
v 7.40000010 -9.48226643 -0.57830465
v 7.40000010 -9.34185123 -1.72607362
v 5.00000000 -8.77137184 -3.64839673
v 5.00000000 -8.22251129 -4.75798368
v 8.19999981 -8.63000679 -3.97152114
v 8.19999981 -9.06242275 -2.84999990
v 5.00000000 -7.53329086 -5.78777838
v 8.19999981 -8.05943584 -5.02946281
v 5.00000000 -6.71410131 -6.72092009
v 8.19999981 -7.35984230 -6.00688934
v 5.00000000 -5.77710295 -7.54127884
v 8.19999981 -6.54242754 -6.88815260
v 5.00000000 -4.75244570 -8.22606564
v 8.19999981 -5.62027597 -7.65914488
v 5.00000000 -3.64502430 -8.77269936
v 8.19999981 -4.60815048 -8.30752373
v 5.00000000 -2.46928167 -9.17328644
v 8.19999981 -3.52225423 -8.82290936
v 5.00000000 -1.24733698 -9.41768932
v 8.19999981 -2.37997127 -9.19705009
v 5.00000000 -0.62719929 -9.47899628
v 8.19999981 -1.19958758 -9.42395782
v 5.00000000 0.00000000 -9.50000000
v 8.19999981 0.00000001 -9.50000000
v 10.00000000 7.75000000 -9.50000000
v 10.00000000 7.75000000 9.50000000
v 10.00000000 7.36731672 9.42387962
v 11.00000000 7.75000000 8.50000000
v 8.39999962 -8.87163448 -2.78999996
v 8.39999962 -8.89921570 -2.67140579
v 8.39999962 -8.90848351 -2.54999995
v 8.39999962 -8.44724083 -3.89014077
v 8.39999962 -7.88853455 -4.92530107
v 8.39999962 -7.20397854 -5.88137388
v 8.39999962 -6.40443182 -6.74331284
v 10.00000000 7.36731672 -9.42387962
v 8.39999962 -2.33184266 -9.00278187
v 8.39999962 -3.44923568 -8.63658714
v 8.39999962 -4.51133394 -8.13245869
v 8.39999962 -5.50192881 -7.49791288
v 8.19999981 -9.09690094 -2.70175767
v 8.19999981 -9.10848331 -2.54999995
v 8.39999962 -6.51454830 6.63699865
v 8.39999962 -7.27602434 5.79202175
v 8.39999962 -5.65515661 7.38302755
v 8.39999962 -4.71103334 8.01843166
v 8.39999962 -3.69688892 8.53352547
v 8.39999962 -2.62726855 8.92106533
v 8.39999962 -1.51789057 9.17524624
v 8.39999962 -7.92880011 4.86025429
v 8.39999962 -8.46317577 3.85535836
v 11.00000000 7.75000000 -8.50000000
v 8.19999981 -9.06242275 2.84999990
v 8.39999962 -8.87163448 2.78999996
v 8.19999981 -9.09690094 2.70175767
v 8.39999962 -8.89921570 2.67140579
v 8.39999962 -8.90848351 2.54999995
v 8.19999981 -9.10848331 2.54999995
v 7.54511642 -9.43842030 0.00522057
v -10.19999981 -1.90430546 -1.10148203
v -10.19999981 -2.12445569 -0.57151842
v -10.19999981 -2.12445569 0.57151842
v -10.19999981 -2.20000005 0.00000000
v -10.19999981 -1.90430546 1.10148203
v 9.80000019 -3.43453074 -4.10200024
v 9.80000019 -3.77885389 -3.78713989
v 9.80000019 -3.79770064 3.76824546
v 9.80000019 -4.09386587 -3.44417596
v 9.80000019 -4.11053467 3.42426658
v 9.80000019 -4.37801600 -3.07497287
v 9.80000019 -4.39248562 3.05426812
v 9.80000019 -4.62887526 -2.68249726
v 9.80000019 -4.64115620 2.66118598
v 9.80000019 -4.84452009 -2.26996279
v 9.80000019 -4.85459375 2.24834347
v 9.80000019 -5.02390289 -1.83926404
v 9.80000019 -5.03176260 1.81765056
v 9.80000019 -5.16505480 -1.39429951
v 9.80000019 -5.17076731 1.37299240
v 9.80000019 -5.26693296 -0.93897867
v 9.80000019 -5.27061510 0.91808432
v 9.80000019 -5.32876873 -0.47597337
v 9.80000019 -5.33056641 0.45548335
v 9.80000019 -5.34994507 -0.01018121
v 9.80000019 -3.45549941 4.08435726
v 11.00000000 24.40308762 -9.23587132
v 11.00000000 22.00000000 -9.30000019
v 11.00000000 24.00000000 -9.30000019
v 10.80000019 24.46352577 -9.42658520
v 10.80000019 24.00000000 -9.50000000
v 10.80000019 22.00000000 -9.50000000
v 11.00000000 24.00000000 9.30000019
v 11.00000000 22.00000000 9.30000019
v 10.80000019 22.00000000 9.50000000
v 11.00000000 24.40308762 9.23587132
v 10.80000019 24.00000000 9.50000000
v 10.80000019 24.46352577 9.42658520
v 11.50000000 32.00000000 -6.05000019
v 11.50000000 31.05268478 -5.97536898
v 11.30000019 36.47771454 -6.17305231
v 11.50000000 35.50000000 -6.05000019
v 11.50000000 32.00000000 6.05000019
v 11.50000000 35.50000000 6.05000019
v 11.50000000 31.05269814 5.97537136
v 11.50000000 30.12933922 5.75350904
v 11.50000000 29.25247383 5.39009380
v 11.50000000 28.44347382 4.89417601
v 11.50000000 27.10584641 3.55655694
v 11.50000000 27.72206116 4.27796745
v 11.50000000 26.60992241 2.74755597
v 11.50000000 26.24649811 1.87068474
v 11.50000000 26.02463150 0.94731539
v 11.50000000 25.95000076 0.00000000
v 11.50000000 26.02462769 -0.94730133
v 11.50000000 26.24649048 -1.87066066
v 11.50000000 26.60990715 -2.74752641
v 11.50000000 27.10582352 -3.55652618
v 11.50000000 28.44344330 -4.89415359
v 11.50000000 27.72203255 -4.27793980
v 11.50000000 29.25244331 -5.39007854
v 11.50000000 30.12931442 -5.75350142
v 11.30000019 41.67305374 0.97771543
v 11.30000019 41.75000000 0.00000000
v 11.50000000 41.54999924 0.00000000
v 7.50001526 41.75000000 -0.00001826
v 11.30000019 41.67305374 -0.97771543
v 11.50000000 41.47536850 -0.94731539
v 11.30000019 41.44410324 1.93135619
v 11.50000000 41.47537231 0.94730133
v 7.50001526 41.06879044 2.83744097
v 11.30000019 41.06879044 2.83744073
v 11.50000000 41.25350952 1.87066066
v 7.50001526 40.55635452 3.67366219
v 11.30000019 40.55635452 3.67365789
v 11.50000000 40.89009476 2.74752641
v 7.50001526 39.91941071 4.41942406
v 11.30000019 39.91941833 4.41941738
v 11.50000000 40.39417648 3.55652618
v 7.50001526 39.17364883 5.05636311
v 11.30000019 39.17365646 5.05635643
v 11.50000000 39.05655670 4.89415359
v 11.50000000 39.77796936 4.27793980
v 7.50001526 38.33742905 5.56879616
v 11.30000019 38.33744049 5.56879091
v 11.50000000 38.24755478 5.39007854
v 7.50001526 37.43134689 5.94410658
v 11.30000019 37.43135452 5.94410324
v 11.50000000 37.37068558 5.75350142
v 11.30000019 36.47771454 6.17305231
v 11.50000000 36.44731522 5.97536898
v 7.50001526 41.67304993 -0.97773921
v 11.30000019 41.44410324 -1.93135619
v 7.50001526 41.44409561 -1.93138385
v 11.30000019 41.06879044 -2.83744073
v 7.50001526 41.06877518 -2.83746982
v 11.30000019 40.55635452 -3.67365789
v 7.50001526 40.55633545 -3.67368627
v 11.30000019 39.91941833 -4.41941738
v 7.50001526 39.91939163 -4.41944218
v 11.30000019 39.17365646 -5.05635643
v 7.50001526 39.17362976 -5.05637598
v 11.30000019 38.33744049 -5.56879091
v 7.50001526 38.33741379 -5.56880379
v 11.30000019 37.43135452 -5.94410324
v 7.50001526 37.43133545 -5.94410992
v 11.50000000 36.44729996 -5.97537136
v 11.50000000 37.37065887 -5.75350904
v 11.50000000 38.24752808 -5.39009380
v 11.50000000 39.05652618 -4.89417601
v 11.50000000 40.39415359 -3.55655694
v 11.50000000 39.77793884 -4.27796745
v 11.50000000 40.89007950 -2.74755597
v 11.50000000 41.25350189 -1.87068474
v -8.39999962 37.43262100 5.94368172
v -8.39999962 38.33868027 5.56817627
v -8.39999962 39.17279816 5.05690384
v -8.39999962 39.17990875 -5.05175304
v -8.39999962 38.34553528 -5.56468296
v -8.39999962 37.43748093 -5.94209909
v -8.39999962 36.96373749 -6.07607985
v -11.30000019 37.43135452 5.94410324
v -11.30000019 36.47771454 6.17305231
v -11.30000019 38.33744049 5.56879091
v -11.30000019 39.17365646 5.05635643
v -8.39999962 39.92464447 -4.41412878
v -11.30000019 39.91941833 4.41941738
v -8.39999962 40.56011581 -3.66839385
v -8.39999962 41.06834793 2.83820224
v -11.30000019 40.55635452 3.67365789
v -8.39999962 41.07110977 -2.83275008
v -8.39999962 41.44334412 1.93346155
v -11.30000019 41.06879044 2.83744073
v -8.39999962 41.44532394 -1.92736816
v -8.39999962 41.67250061 0.98065734
v -11.30000019 41.44410324 1.93135619
v -8.39999962 41.67352676 -0.97421080
v -8.39999962 41.74991608 0.00325134
v -11.30000019 41.67305374 0.97771543
v -11.30000019 41.75000000 -0.00000000
v -11.30000019 41.67305374 -0.97771543
v -11.30000019 41.44410324 -1.93135619
v -11.30000019 41.06879044 -2.83744073
v -11.30000019 40.55635452 -3.67365789
v -11.30000019 39.91941833 -4.41941738
v -11.30000019 39.17365646 -5.05635643
v -11.30000019 38.33744049 -5.56879091
v -11.30000019 37.43135452 -5.94410324
v -11.30000019 36.47771454 -6.17305231
v -11.50000000 35.50000000 6.05000019
v -11.50000000 32.00000000 6.05000019
v -11.50000000 36.44729996 5.97537136
v -11.50000000 37.37065887 5.75350904
v -11.50000000 38.24752808 5.39009380
v -11.50000000 39.05652618 4.89417601
v -11.50000000 40.39415359 3.55655694
v -11.50000000 39.77793884 4.27796745
v -11.50000000 40.89007950 2.74755597
v -11.50000000 41.25350189 1.87068474
v -11.50000000 41.47536850 0.94731539
v -11.50000000 41.54999924 -0.00000000
v -11.50000000 41.47537231 -0.94730133
v -11.50000000 41.25350952 -1.87066066
v -11.50000000 40.89009476 -2.74752641
v -11.50000000 40.39417648 -3.55652618
v -11.50000000 39.05655670 -4.89415359
v -11.50000000 39.77796936 -4.27793980
v -11.50000000 38.24755478 -5.39007854
v -11.50000000 37.37068558 -5.75350142
v -11.50000000 36.44731522 -5.97536898
v -11.50000000 35.50000000 -6.05000019
v -10.80000019 24.00000000 9.50000000
v -10.80000019 22.00000000 9.50000000
v -10.80000019 24.46352577 9.42658520
v -10.80000019 24.46352577 -9.42658520
v -10.80000019 22.00000000 -9.50000000
v -10.80000019 24.00000000 -9.50000000
v -11.00000000 22.00000000 -9.30000019
v -11.00000000 24.00000000 -9.30000019
v -11.00000000 24.40308762 9.23587132
v -11.00000000 22.00000000 9.30000019
v -11.00000000 24.00000000 9.30000019
v -11.00000000 24.40308762 -9.23587132
v -11.50000000 31.05268478 5.97536898
v -11.50000000 32.00000000 -6.05000019
v -11.50000000 31.05269814 -5.97537136
v -11.50000000 30.12933922 -5.75350904
v -11.50000000 29.25247383 -5.39009380
v -11.50000000 28.44347382 -4.89417601
v -11.50000000 27.10584641 -3.55655694
v -11.50000000 27.72206116 -4.27796745
v -11.50000000 26.60992241 -2.74755597
v -11.50000000 26.24649811 -1.87068474
v -11.50000000 26.02463150 -0.94731539
v -11.50000000 25.95000076 -0.00000000
v -11.50000000 26.02462769 0.94730133
v -11.50000000 26.24649048 1.87066066
v -11.50000000 26.60990715 2.74752641
v -11.50000000 27.10582352 3.55652618
v -11.50000000 28.44344330 4.89415359
v -11.50000000 27.72203255 4.27793980
v -11.50000000 29.25244331 5.39007854
v -11.50000000 30.12931442 5.75350142
vn -0.00145133 -0.01980562 0.99980280
vn -0.00323786 -0.00518860 0.99998130
vn -0.20059013 -0.07188743 0.97703418
vn -0.00070395 -0.13949032 0.99022319
vn -0.36790647 -0.16843401 0.91448062
vn -0.39566165 -0.05223230 0.91690984
vn -0.69322294 -0.14260342 0.70647450
vn -0.91818126 -0.08950812 0.38591641
vn -0.86311633 -0.49900868 0.07759213
vn -0.86411431 -0.50288306 0.02037380
vn -0.86440585 -0.48074189 0.14727442
vn -0.86500210 -0.45661266 0.20802945
vn -0.86502919 -0.42768524 0.26231628
vn -0.86385223 -0.39562855 0.31182909
vn -0.85724885 -0.36397273 0.36420910
vn -0.86347929 -0.39255547 -0.31670762
vn -0.85582544 -0.35975912 -0.37166678
vn -0.86489711 -0.42569732 -0.26596013
vn -0.86485283 -0.45598637 -0.21001430
vn -0.86433321 -0.48070715 -0.14781318
vn -0.86411431 -0.50288306 -0.02037380
vn -0.86311633 -0.49900868 -0.07759213
vn -0.51009721 -0.85881726 -0.04726247
vn -0.40961047 -0.89747526 -0.16357697
vn -0.38132234 -0.88264907 -0.27481610
vn -0.37930106 -0.78495677 -0.48987098
vn -0.37933546 -0.84053705 -0.38678427
vn -0.37914603 -0.71684770 -0.58513047
vn -0.37890978 -0.63726365 -0.67106067
vn -0.84297956 -0.32320966 -0.43002439
vn -0.82457297 -0.28129989 -0.49086637
vn -0.37861900 -0.54747851 -0.74626734
vn -0.79696298 -0.23349627 -0.55707226
vn -0.37844406 -0.44887528 -0.80950051
vn -0.75493820 -0.18187404 -0.63007155
vn -0.37825057 -0.34306633 -0.85978602
vn -0.37591765 -0.23494583 -0.89637402
vn -0.34071885 -0.14043471 -0.92961753
vn -0.12405332 -0.04358341 -0.99131794
vn -0.69215478 -0.14284072 -0.70747317
vn -0.84537964 -0.32938263 0.42052389
vn -0.82866759 -0.28980885 0.47887458
vn -0.80412469 -0.24487851 0.54168072
vn -0.76645879 -0.19311169 0.61257555
vn -0.71413773 -0.15316827 0.68304230
vn -0.37882429 -0.26136528 0.88779522
vn -0.37841375 -0.36796658 0.84935483
vn -0.37787752 -0.46916879 0.79817869
vn -0.37860114 -0.56208865 0.73533498
vn -0.37971615 -0.64809638 0.66014145
vn -0.37967231 -0.72396233 0.57595788
vn -0.37944868 -0.78902995 0.48316709
vn -0.37926609 -0.84211906 0.38339629
vn -0.38133878 -0.88290235 0.27397844
vn -0.40961047 -0.89747526 0.16357697
vn -0.51009706 -0.85881739 0.04726181
vn -0.00099156 -0.92165833 0.38800121
vn -0.04299416 -0.98131623 0.18753655
vn -0.00149613 -0.96391858 0.26619302
vn -0.00115150 -0.25420713 0.96714911
vn -0.00061959 -0.37657870 0.92638442
vn -0.00002428 -0.62334260 0.78194885
vn -0.00009030 -0.70624572 0.70796679
vn -0.00033596 -0.79231302 0.61011472
vn -0.00062108 -0.86418637 0.50317148
vn -0.00103063 -0.96854882 -0.24882146
vn -0.00097185 -0.98918769 0.14665188
vn -0.00131786 -0.99173014 -0.12833389
vn 0.00000000 -1.00000000 0.00000000
vn -0.19009837 -0.98176504 0.00011557
vn -0.14369095 -0.98618096 0.08246229
vn -0.14370034 -0.98618034 -0.08245336
vn -0.04298986 -0.98131034 -0.18756838
vn -0.00093970 -0.93050899 -0.36626784
vn -0.00068763 -0.87495608 -0.48420180
vn -0.00077369 -0.80382109 -0.59487063
vn -0.00088840 -0.72180952 -0.69209120
vn -0.00063784 -0.62412557 -0.78132379
vn -0.00064820 -0.39314225 -0.91947743
vn -0.00033192 -0.26820417 -0.96336204
vn -0.00005536 -0.13378010 -0.99101104
vn -0.00000000 -0.03346935 -0.99943974
vn -0.39566045 -0.05225924 -0.91690882
vn -0.91817313 -0.08953674 -0.38592911
vn -0.41520911 -0.90972594 -0.00032917
vn -0.00033534 -0.06462153 -0.99790979
vn -0.00051878 -0.11591409 0.99325911
vn -0.00022181 -0.23229384 0.97264563
vn -0.00015370 -0.35265548 0.93575322
vn -0.00008095 -0.47710108 0.87884843
vn -0.00027283 -0.71877423 0.69524351
vn -0.00031921 -0.65748659 0.75346617
vn -0.00062731 -0.80465618 0.59374072
vn -0.00051918 -0.74909687 0.66246027
vn -0.00075301 -0.82818241 0.56045814
vn -0.00029048 -0.87859065 0.47757552
vn -0.00040378 -0.93250689 0.36115195
vn -0.00045729 -0.96977791 0.24398891
vn -0.00010004 -0.96287411 -0.26995081
vn -0.00005623 -0.92010012 -0.39168324
vn -0.00002521 -0.86127640 -0.50813675
vn -0.00000977 -0.78696121 -0.61700248
vn -0.00001544 -0.70260679 -0.71157832
vn -0.00016459 -0.51956646 -0.85443003
vn -0.00013868 -0.41515220 -0.90975196
vn -0.00009853 -0.29458707 -0.95562464
vn -0.00005302 -0.16325092 -0.98658458
vn 0.00001488 -0.14403428 0.98957270
vn 0.00076771 -0.07672764 0.99705179
vn 0.00002854 -0.26570310 0.96405490
vn 0.00001842 -0.38531008 0.92278716
vn 0.00000594 -0.50081968 0.86555164
vn 0.00000323 -0.70539599 0.70881344
vn 0.00002810 -0.79096491 0.61186152
vn 0.00008942 -0.86315349 0.50494163
vn 0.00018536 -0.92071049 0.39024629
vn 0.00030751 -0.96300780 0.26947335
vn -0.00051165 -0.98883201 -0.14903355
vn -0.00014146 -0.99245481 0.12261086
vn 0.00061775 -0.98956027 0.14411835
vn -0.00019109 -0.99977794 -0.02107195
vn 0.00090070 -0.99987283 0.01592211
vn 0.00127800 -0.99352663 -0.11359223
vn 0.00083424 -0.97081642 -0.23982240
vn 0.00051449 -0.93244783 -0.36130428
vn 0.00042109 -0.87791794 -0.47881093
vn 0.00106051 -0.82685273 -0.56241750
vn 0.00098492 -0.74675158 -0.66510233
vn 0.00116398 -0.80429305 -0.59423172
vn 0.00080205 -0.65369561 -0.75675716
vn 0.00094543 -0.71924548 -0.69475539
vn 0.00000562 -0.49354057 -0.86972278
vn 0.00001003 -0.37984240 -0.92505122
vn 0.00000854 -0.25884195 -0.96591969
vn 0.00000447 -0.13445724 -0.99091940
vn 0.00110210 -0.11994837 0.99277952
vn 0.00323786 -0.00518860 0.99998130
vn 0.00042887 -0.23723282 0.97145273
vn 0.36793028 -0.16843564 0.91447075
vn 0.00145133 -0.01980562 0.99980280
vn 0.20067053 -0.07186749 0.97701914
vn 0.00028459 -0.35795295 0.93373958
vn 0.37884111 -0.26136806 0.88778722
vn 0.00018388 -0.47318224 0.88096455
vn 0.37842562 -0.36796960 0.84934824
vn 0.37788323 -0.46917192 0.79817415
vn 0.00031955 -0.65736036 0.75357631
vn 0.37861370 -0.56207740 0.73533711
vn 0.00032601 -0.71875196 0.69526650
vn 0.37974585 -0.64808917 0.66013145
vn 0.00053121 -0.74909495 0.66246243
vn 0.00079681 -0.80377932 0.59492703
vn 0.37970085 -0.72395540 0.57594777
vn 0.00076743 -0.82817905 0.56046309
vn 0.00060908 -0.87800986 0.47864215
vn 0.37947569 -0.78902255 0.48315796
vn 0.00087489 -0.93206077 0.36230093
vn 0.37929058 -0.84210923 0.38339366
vn 0.00140619 -0.97050201 0.24108894
vn 0.00268955 -0.99007676 -0.14050185
vn 0.00218942 -0.99327811 0.11573162
vn 0.06417627 -0.98450700 0.16317896
vn 0.00126605 -0.96349749 -0.26771436
vn 0.00253665 -0.99991517 -0.01277539
vn 0.17561748 -0.98328840 0.04798359
vn 0.17589230 -0.98324246 -0.04791825
vn 0.06412631 -0.98450782 -0.16319364
vn 0.00112771 -0.92102987 -0.38949033
vn 0.00099244 -0.86312867 -0.50498309
vn 0.37938699 -0.84051777 -0.38677563
vn 0.38042472 -0.88336794 -0.27374828
vn 0.00084553 -0.79058690 -0.61234928
vn 0.37942610 -0.78491686 -0.48983810
vn 0.00087011 -0.70629745 -0.70791465
vn 0.37939817 -0.71685284 -0.58496072
vn 0.00072939 -0.61807718 -0.78611708
vn 0.37943688 -0.63722779 -0.67079684
vn 0.00025213 -0.52102122 -0.85354369
vn 0.37891222 -0.54720060 -0.74632234
vn 0.00018033 -0.40809498 -0.91293946
vn 0.37845814 -0.44887140 -0.80949608
vn 0.00014255 -0.28832188 -0.95753354
vn 0.37826223 -0.34306423 -0.85978173
vn 0.00012355 -0.16579675 -0.98615994
vn 0.37592509 -0.23494399 -0.89637138
vn 0.00034578 -0.06462144 -0.99790979
vn 0.34073840 -0.14044609 -0.92960865
vn 0.00000000 -0.01673702 -0.99985993
vn 0.12407027 -0.04356938 -0.99131644
vn 0.39566045 -0.05225924 -0.91690882
vn 0.39566165 -0.05223230 0.91690984
vn 0.69322294 -0.14260342 0.70647450
vn 0.91842477 -0.08769469 0.38575327
vn 0.84102389 -0.51711153 -0.15897949
vn 0.83887335 -0.53765940 -0.08493453
vn 0.83688303 -0.54688777 -0.02324990
vn 0.84151867 -0.49065411 -0.22606385
vn 0.84156603 -0.45814244 -0.28613305
vn 0.84156388 -0.41836386 -0.34167517
vn 0.84151441 -0.37206643 -0.39168874
vn 0.69215478 -0.14284072 -0.70747317
vn 0.75493625 -0.18187150 -0.63007461
vn 0.79696131 -0.23349281 -0.55707609
vn 0.82457165 -0.28129540 -0.49087115
vn 0.83928176 -0.32524968 -0.43568196
vn 0.40596737 -0.89896322 -0.16448594
vn 0.51103974 -0.85825635 -0.04726959
vn 0.84166146 -0.37829381 0.38535668
vn 0.84169961 -0.42237850 0.33636018
vn 0.84002817 -0.33250722 0.42870926
vn 0.82866696 -0.28980258 0.47887946
vn 0.80412290 -0.24487434 0.54168526
vn 0.76645620 -0.19310807 0.61257992
vn 0.71413678 -0.15316743 0.68304349
vn 0.84169722 -0.46031088 0.28224046
vn 0.84166452 -0.49137488 0.22394546
vn 0.91841653 -0.08772135 -0.38576683
vn 0.38042922 -0.88362051 0.27292565
vn 0.84108922 -0.51717358 0.15843110
vn 0.40596737 -0.89896322 0.16448594
vn 0.83886243 -0.53767695 0.08493126
vn 0.83687869 -0.54689450 0.02324766
vn 0.51104029 -0.85825591 0.04727165
vn 0.37100338 -0.92863151 0.00004390
vn -0.98051793 -0.17286943 -0.09327780
vn -0.98404624 -0.17279434 -0.04236867
vn -0.98404821 -0.17278596 0.04235726
vn -0.98458361 -0.17491458 0.00000000
vn -0.98052503 -0.17284684 0.09324497
vn 0.95225642 -0.19988556 -0.23076715
vn 0.95938776 -0.20180714 -0.19710153
vn 0.95970702 -0.20194655 0.19539709
vn 0.96409843 -0.20484592 -0.16897443
vn 0.96432050 -0.20501300 0.16749820
vn 0.96742378 -0.20841509 -0.14371630
vn 0.96757880 -0.20860698 0.14238814
vn 0.96976004 -0.21216002 -0.12063825
vn 0.96986732 -0.21232750 0.11947560
vn 0.97152205 -0.21518407 -0.09920045
vn 0.97160146 -0.21532275 0.09811582
vn 0.97293302 -0.21741943 -0.07829521
vn 0.97299445 -0.21750491 0.07728784
vn 0.97390568 -0.21950686 -0.05765822
vn 0.97393705 -0.21961984 0.05668994
vn 0.97411775 -0.22291180 -0.03748238
vn 0.97410814 -0.22310530 0.03656984
vn 0.97343129 -0.22832202 -0.01733729
vn 0.97337990 -0.22860723 0.01644108
vn 0.97267248 -0.23218130 -0.00029352
vn 0.95272698 -0.19976112 0.22892531
vn 0.83542897 0.09825432 -0.54074442
vn 0.89411627 -0.01416717 -0.44761074
vn 0.88367380 0.03267865 -0.46696115
vn 0.37289008 0.18698863 -0.90883895
vn 0.37544082 0.07172944 -0.92406660
vn 0.38842160 -0.01103465 -0.92141570
vn 0.88367380 0.03267865 0.46696115
vn 0.89411627 -0.01416717 0.44761074
vn 0.38842160 -0.01103465 0.92141570
vn 0.83542896 0.09825432 0.54074443
vn 0.37544082 0.07172944 0.92406660
vn 0.37284339 0.18704260 0.90884700
vn 0.99708571 -0.00050925 -0.07628775
vn 0.99836066 -0.00503627 -0.05701424
vn 0.64770319 0.17578881 -0.74133587
vn 0.99444862 0.00773319 -0.10493875
vn 0.99708571 -0.00050924 0.07628775
vn 0.99444855 0.00773336 0.10493937
vn 0.99836064 -0.00503622 0.05701469
vn 0.99949911 -0.00795391 0.03063101
vn 0.99974497 -0.00921717 0.02061646
vn 0.99983553 -0.01004811 0.01509799
vn 0.99989841 -0.01135796 0.00861235
vn 0.99987735 -0.01072596 0.01141182
vn 0.99990833 -0.01200437 0.00626277
vn 0.99991071 -0.01271478 0.00411151
vn 0.99990631 -0.01354586 0.00197199
vn 0.99990138 -0.01404354 0.00000002
vn 0.99990631 -0.01354588 -0.00197196
vn 0.99991071 -0.01271478 -0.00411146
vn 0.99990833 -0.01200439 -0.00626268
vn 0.99989841 -0.01135798 -0.00861225
vn 0.99983553 -0.01004813 -0.01509781
vn 0.99987736 -0.01072599 -0.01141171
vn 0.99974497 -0.00921721 -0.02061623
vn 0.99949912 -0.00795395 -0.03063077
vn 0.37608794 0.91518311 0.14490598
vn 0.37609108 0.92658270 0.00000022
vn 0.91704882 0.39877496 -0.00000010
vn 0.00000018 0.99923286 -0.03916227
vn 0.37609095 0.91518209 -0.14490458
vn 0.91705519 0.39383680 -0.06246878
vn 0.37609444 0.88124522 0.28628630
vn 0.91705426 0.39383918 0.06246742
vn 0.00000003 0.89607244 0.44390785
vn 0.37611158 0.82559888 0.42062640
vn 0.91706732 0.37917596 0.12334148
vn 0.00000032 0.80901371 0.58778978
vn 0.37613148 0.74961651 0.54461013
vn 0.91707706 0.35519796 0.18111893
vn 0.00000001 0.65398752 0.75650533
vn 0.37614149 0.65517822 0.65517867
vn 0.91708210 0.32251060 0.23440847
vn 0.00000022 0.59172885 0.80613707
vn 0.37613335 0.54460912 0.74961631
vn 0.91708294 0.23441083 0.32250652
vn 0.91708347 0.28192206 0.28191818
vn 0.00000006 0.39978081 0.91661077
vn 0.37611405 0.42062352 0.82559922
vn 0.91707833 0.18112104 0.35519361
vn 0.00000016 0.28906851 0.95730841
vn 0.37993967 0.29261407 0.87750946
vn 0.91706719 0.12334401 0.37917545
vn 0.64770208 0.17578898 0.74133680
vn 0.92312079 0.08677681 0.37459015
vn 0.00000024 0.98061755 -0.19593168
vn 0.37609816 0.88124458 -0.28628336
vn 0.00000056 0.94133923 -0.33746180
vn 0.37611915 0.82559752 -0.42062229
vn 0.00000028 0.86968908 -0.49359994
vn 0.37614250 0.74961424 -0.54460564
vn 0.00000063 0.78815850 -0.61547233
vn 0.37615596 0.65517482 -0.65517375
vn 0.00000019 0.66530431 -0.74657228
vn 0.37614703 0.54460758 -0.74961056
vn 0.00000035 0.55739398 -0.83024813
vn 0.37612478 0.42062067 -0.82559579
vn 0.00000021 0.40888119 -0.91258762
vn 0.38001563 0.29265127 -0.87746416
vn 0.00000022 0.29148216 -0.95657626
vn 0.92312135 0.08677631 -0.37458889
vn 0.91706760 0.12334101 -0.37917543
vn 0.91707726 0.18111864 -0.35519761
vn 0.91708265 0.23440810 -0.32250930
vn 0.91708259 0.32250710 -0.23441138
vn 0.91708469 0.28191610 -0.28192018
vn 0.91707737 0.35519562 -0.18112196
vn 0.91706728 0.37917532 -0.12334375
vn -0.00000170 0.34955024 0.93691762
vn -0.00000319 0.48387178 0.87513890
vn -0.00000138 0.53007937 0.84794803
vn -0.00000985 0.62180543 -0.78317176
vn -0.00001280 0.48824025 -0.87270926
vn -0.00000868 0.34729751 -0.93775500
vn -0.00049935 0.26501772 -0.96424341
vn -0.37994744 0.29260968 0.87750756
vn -0.64770319 0.17578881 0.74133587
vn -0.37612651 0.42062049 0.82559509
vn -0.37614026 0.54461387 0.74960939
vn -0.00000954 0.73652415 -0.67641125
vn -0.37614324 0.65517833 0.65517755
vn -0.00000807 0.83379639 -0.55207208
vn -0.00000041 0.85867878 0.51251414
vn -0.37613230 0.74961647 0.54460962
vn -0.00000617 0.91071940 -0.41302564
vn -0.00000183 0.93253239 0.36108635
vn -0.37611808 0.82559528 0.42062766
vn -0.00000455 0.96478212 -0.26305031
vn -0.00000261 0.97786151 0.20925310
vn -0.37610893 0.88123944 0.28628505
vn -0.00000347 0.99436097 -0.10604835
vn -0.00000300 0.99863475 0.05223642
vn -0.37610846 0.91517483 0.14490497
vn -0.37611297 0.92657381 0.00000110
vn -0.37611615 0.91517230 -0.14490099
vn -0.37613399 0.88123155 -0.28627639
vn -0.37616686 0.82558177 -0.42061056
vn -0.37620173 0.74959574 -0.54459021
vn -0.37621991 0.65515583 -0.65515602
vn -0.37622273 0.54459381 -0.74958257
vn -0.37620079 0.42059423 -0.82557463
vn -0.38041050 0.29285787 -0.87722410
vn -0.64770208 0.17578898 -0.74133680
vn -0.99444862 0.00773319 0.10493875
vn -0.99708571 -0.00050925 0.07628775
vn -0.92312135 0.08677631 0.37458889
vn -0.91706760 0.12334101 0.37917543
vn -0.91707726 0.18111864 0.35519761
vn -0.91708265 0.23440810 0.32250930
vn -0.91708259 0.32250710 0.23441138
vn -0.91708469 0.28191610 0.28192018
vn -0.91707737 0.35519562 0.18112196
vn -0.91706728 0.37917532 0.12334375
vn -0.91705519 0.39383680 0.06246878
vn -0.91704882 0.39877496 0.00000010
vn -0.91705426 0.39383918 -0.06246742
vn -0.91706732 0.37917596 -0.12334148
vn -0.91707706 0.35519796 -0.18111893
vn -0.91708210 0.32251060 -0.23440847
vn -0.91708294 0.23441083 -0.32250652
vn -0.91708347 0.28192206 -0.28191818
vn -0.91707833 0.18112104 -0.35519361
vn -0.91706719 0.12334401 -0.37917545
vn -0.92312079 0.08677681 -0.37459015
vn -0.99444855 0.00773336 -0.10493937
vn -0.37544082 0.07172944 0.92406660
vn -0.38842160 -0.01103465 0.92141570
vn -0.37284339 0.18704262 0.90884700
vn -0.37291184 0.18692134 -0.90884387
vn -0.38842160 -0.01103465 -0.92141570
vn -0.37544082 0.07172944 -0.92406660
vn -0.89411627 -0.01416717 -0.44761074
vn -0.88367380 0.03267865 -0.46696115
vn -0.83542897 0.09825432 0.54074442
vn -0.89411627 -0.01416717 0.44761074
vn -0.88367380 0.03267865 0.46696115
vn -0.83542896 0.09825432 -0.54074443
vn -0.99836066 -0.00503627 0.05701424
vn -0.99708571 -0.00050924 -0.07628775
vn -0.99836064 -0.00503622 -0.05701469
vn -0.99949911 -0.00795391 -0.03063101
vn -0.99974497 -0.00921717 -0.02061646
vn -0.99983553 -0.01004811 -0.01509799
vn -0.99989841 -0.01135796 -0.00861235
vn -0.99987735 -0.01072596 -0.01141182
vn -0.99990833 -0.01200437 -0.00626277
vn -0.99991071 -0.01271478 -0.00411151
vn -0.99990631 -0.01354586 -0.00197199
vn -0.99990138 -0.01404354 -0.00000002
vn -0.99990631 -0.01354588 0.00197196
vn -0.99991071 -0.01271478 0.00411146
vn -0.99990833 -0.01200439 0.00626268
vn -0.99989841 -0.01135798 0.00861225
vn -0.99983553 -0.01004813 0.01509781
vn -0.99987736 -0.01072599 0.01141171
vn -0.99974497 -0.00921721 0.02061623
vn -0.99949912 -0.00795395 0.03063077
f 3//3 2//2 6//6
f 228//228 8//8 84//84
f 401//401 403//403 399//399
f 372//372 344//344 330//330
f 203//203 202//202 217//217
f 217//217 202//202 185//185
f 263//263 217//217 252//252
f 398//398 406//406 396//396
f 3//3 6//6 5//5
f 33//33 31//31 84//84
f 84//84 35//35 33//33
f 38//38 83//83 39//39
f 37//37 35//35 84//84
f 83//83 38//38 37//37
f 84//84 31//31 30//30
f 30//30 17//17 84//84
f 16//16 225//225 84//84
f 84//84 17//17 16//16
f 8//8 228//228 227//227
f 226//226 225//225 19//19
f 84//84 225//225 226//226
f 226//226 228//228 84//84
f 46//46 143//143 60//60
f 192//192 193//193 191//191
f 346//346 347//347 398//398
f 325//325 343//343 326//326
f 370//370 326//326 343//343
f 325//325 326//326 370//370
f 345//345 399//399 372//372
f 372//372 330//330 345//345
f 183//183 203//203 181//181
f 202//202 203//203 183//183
f 183//183 185//185 202//202
f 189//189 190//190 187//187
f 190//190 185//185 187//187
f 135//135 38//38 187//187
f 201//201 190//190 217//217
f 217//217 185//185 201//201
f 201//201 185//185 190//190
f 254//254 253//253 255//255
f 254//254 251//251 253//253
f 52//52 115//115 156//156
f 175//175 128//128 177//177
f 175//175 28//28 128//128
f 160//160 123//123 68//68
f 181//181 179//179 178//178
f 204//204 203//203 217//217
f 181//181 203//203 204//204
f 19//19 26//26 27//27
f 10//10 228//228 21//21
f 7//7 6//6 8//8
f 8//8 5//5 7//7
f 7//7 5//5 6//6
f 46//46 5//5 45//45
f 45//45 5//5 8//8
f 8//8 408//408 427//427
f 8//8 405//405 375//375
f 375//375 408//408 8//8
f 418//418 84//84 419//419
f 84//84 8//8 419//419
f 374//374 406//406 376//376
f 347//347 346//346 376//376
f 376//376 346//346 377//377
f 86//86 38//38 39//39
f 84//84 83//83 40//40
f 40//40 37//37 84//84
f 83//83 37//37 40//40
f 36//36 33//33 35//35
f 35//35 37//37 36//36
f 80//80 185//185 134//134
f 80//80 37//37 185//185
f 107//107 37//37 38//38
f 19//19 225//225 18//18
f 225//225 16//16 18//18
f 18//18 26//26 19//19
f 18//18 28//28 26//26
f 16//16 28//28 18//18
f 34//34 30//30 31//31
f 31//31 33//33 34//34
f 33//33 36//36 34//34
f 17//17 30//30 29//29
f 29//29 16//16 17//17
f 29//29 28//28 16//16
f 8//8 227//227 229//229
f 143//143 138//138 110//110
f 110//110 60//60 143//143
f 138//138 60//60 110//110
f 88//88 60//60 138//138
f 88//88 5//5 46//46
f 46//46 60//60 88//88
f 310//310 305//305 309//309
f 302//302 307//307 303//303
f 334//334 333//333 325//325
f 334//334 325//325 323//323
f 323//323 336//336 334//334
f 253//253 251//251 331//331
f 367//367 387//387 366//366
f 288//288 289//289 291//291
f 287//287 289//289 288//288
f 278//278 193//193 217//217
f 278//278 277//277 193//193
f 349//349 378//378 348//348
f 348//348 378//378 377//377
f 377//377 346//346 348//348
f 371//371 370//370 343//343
f 371//371 344//344 372//372
f 371//371 328//328 344//344
f 369//369 370//370 390//390
f 369//369 350//350 323//323
f 372//372 399//399 373//373
f 373//373 394//394 372//372
f 407//407 399//399 403//403
f 403//403 394//394 407//407
f 407//407 373//373 399//399
f 394//394 373//373 407//407
f 395//395 394//394 403//403
f 180//180 183//183 181//181
f 133//133 183//183 180//180
f 134//134 185//185 182//182
f 185//185 183//183 182//182
f 182//182 80//80 134//134
f 264//264 217//217 263//263
f 264//264 286//286 217//217
f 285//285 283//283 217//217
f 217//217 286//286 285//285
f 281//281 280//280 217//217
f 217//217 282//282 281//281
f 217//217 283//283 284//284
f 284//284 282//282 217//217
f 217//217 193//193 249//249
f 170//170 27//27 126//126
f 66//66 25//25 99//99
f 99//99 163//163 66//66
f 66//66 163//163 124//124
f 72//72 68//68 123//123
f 217//217 243//243 241//241
f 217//217 237//237 235//235
f 205//205 204//204 217//217
f 177//177 179//179 205//205
f 205//205 179//179 181//181
f 181//181 204//204 205//205
f 75//75 27//27 26//26
f 126//126 27//27 75//75
f 75//75 169//169 126//126
f 20//20 226//226 19//19
f 20//20 27//27 25//25
f 19//19 27//27 20//20
f 228//228 226//226 22//22
f 22//22 21//21 228//228
f 226//226 20//20 22//22
f 67//67 58//58 71//71
f 159//159 117//117 59//59
f 159//159 218//218 117//117
f 59//59 117//117 54//54
f 117//117 218//218 54//54
f 48//48 47//47 43//43
f 212//212 145//145 146//146
f 147//147 150//150 148//148
f 148//148 150//150 210//210
f 210//210 146//146 148//148
f 210//210 250//250 193//193
f 137//137 141//141 191//191
f 191//191 141//141 139//139
f 139//139 192//192 191//191
f 139//139 138//138 143//143
f 193//193 192//192 139//139
f 426//426 424//424 8//8
f 8//8 427//427 426//426
f 8//8 421//421 420//420
f 420//420 419//419 8//8
f 8//8 424//424 425//425
f 425//425 423//423 8//8
f 422//422 421//421 8//8
f 8//8 423//423 422//422
f 379//379 378//378 349//349
f 349//349 351//351 379//379
f 379//379 351//351 381//381
f 404//404 406//406 398//398
f 404//404 376//376 406//406
f 398//398 347//347 404//404
f 347//347 376//376 404//404
f 356//356 293//293 360//360
f 360//360 357//357 356//356
f 417//417 84//84 418//418
f 417//417 416//416 84//84
f 414//414 415//415 84//84
f 84//84 416//416 414//414
f 411//411 410//410 84//84
f 84//84 412//412 411//411
f 84//84 415//415 413//413
f 413//413 412//412 84//84
f 82//82 86//86 39//39
f 189//189 187//187 186//186
f 79//79 183//183 133//133
f 79//79 36//36 183//183
f 133//133 180//180 79//79
f 106//106 36//36 37//37
f 37//37 80//80 106//106
f 80//80 182//182 106//106
f 81//81 38//38 135//135
f 135//135 107//107 81//81
f 81//81 107//107 38//38
f 184//184 107//107 135//135
f 135//135 187//187 184//184
f 184//184 187//187 185//185
f 30//30 34//34 32//32
f 32//32 29//29 30//30
f 34//34 104//104 32//32
f 177//177 128//128 131//131
f 305//305 310//310 306//306
f 306//306 302//302 305//305
f 307//307 302//302 306//306
f 314//314 312//312 262//262
f 315//315 312//312 314//314
f 313//313 312//312 315//315
f 309//309 312//312 313//313
f 313//313 310//310 309//309
f 311//311 346//346 398//398
f 398//398 262//262 311//311
f 262//262 312//312 311//311
f 262//262 257//257 260//260
f 260//260 257//257 315//315
f 260//260 314//314 262//262
f 315//315 314//314 260//260
f 261//261 257//257 262//262
f 258//258 193//193 267//267
f 193//193 269//269 267//267
f 349//349 341//341 304//304
f 304//304 341//341 305//305
f 296//296 297//297 293//293
f 293//293 356//356 296//296
f 354//354 351//351 298//298
f 351//351 302//302 298//298
f 253//253 331//331 266//266
f 251//251 254//254 265//265
f 265//265 331//331 251//251
f 362//362 287//287 288//288
f 323//323 350//350 321//321
f 338//338 319//319 317//317
f 317//317 319//319 355//355
f 355//355 319//319 367//367
f 367//367 366//366 355//355
f 361//361 291//291 365//365
f 288//288 291//291 361//361
f 358//358 366//366 365//365
f 358//358 291//291 317//317
f 289//289 287//287 294//294
f 293//293 297//297 294//294
f 294//294 287//287 293//293
f 274//274 193//193 273//273
f 193//193 275//275 273//273
f 193//193 277//277 276//276
f 276//276 275//275 193//193
f 217//217 280//280 279//279
f 279//279 278//278 217//217
f 340//340 348//348 309//309
f 309//309 305//305 340//340
f 305//305 341//341 340//340
f 340//340 341//341 349//349
f 349//349 348//348 340//340
f 372//372 394//394 393//393
f 393//393 371//371 372//372
f 325//325 370//370 342//342
f 323//323 325//325 342//342
f 370//370 369//369 342//342
f 409//409 402//402 84//84
f 84//84 410//410 409//409
f 51//51 13//13 52//52
f 156//156 215//215 153//153
f 153//153 51//51 114//114
f 240//240 242//242 193//193
f 242//242 240//240 216//216
f 216//216 215//215 156//156
f 196//196 249//249 222//222
f 245//245 243//243 217//217
f 158//158 216//216 156//156
f 166//166 72//72 123//123
f 70//70 72//72 166//166
f 194//194 241//241 243//243
f 69//69 164//164 122//122
f 122//122 70//70 69//69
f 25//25 66//66 73//73
f 73//73 66//66 124//124
f 132//132 34//34 181//181
f 181//181 178//178 132//132
f 132//132 104//104 34//34
f 178//178 104//104 132//132
f 239//239 237//237 217//217
f 217//217 241//241 239//239
f 217//217 231//231 230//230
f 230//230 205//205 217//217
f 199//199 175//175 177//177
f 101//101 75//75 26//26
f 169//169 75//75 101//101
f 70//70 85//85 23//23
f 23//23 72//72 70//70
f 52//52 13//13 12//12
f 12//12 13//13 229//229
f 12//12 229//229 227//227
f 227//227 11//11 12//12
f 119//119 71//71 161//161
f 161//161 67//67 119//119
f 119//119 67//67 71//71
f 120//120 67//67 161//161
f 98//98 159//159 59//59
f 58//58 159//159 98//98
f 59//59 54//54 98//98
f 98//98 54//54 58//58
f 116//116 57//57 157//157
f 157//157 158//158 116//116
f 218//218 158//158 157//157
f 70//70 71//71 56//56
f 56//56 85//85 70//70
f 56//56 23//23 85//85
f 9//9 11//11 227//227
f 9//9 228//228 10//10
f 9//9 227//227 228//228
f 8//8 43//43 44//44
f 46//46 45//45 44//44
f 44//44 45//45 8//8
f 44//44 47//47 46//46
f 44//44 43//43 47//47
f 41//41 49//49 48//48
f 41//41 15//15 50//50
f 50//50 49//49 41//41
f 8//8 15//15 41//41
f 156//156 153//153 154//154
f 142//142 145//145 143//143
f 146//146 145//145 144//144
f 143//143 145//145 213//213
f 145//145 212//212 213//213
f 213//213 212//212 193//193
f 148//148 49//49 62//62
f 62//62 147//147 148//148
f 92//92 49//49 50//50
f 92//92 62//62 49//49
f 147//147 62//62 92//92
f 208//208 210//210 150//150
f 250//250 210//210 208//208
f 211//211 212//212 146//146
f 146//146 210//210 211//211
f 193//193 212//212 211//211
f 211//211 210//210 193//193
f 1//1 2//2 3//3
f 3//3 5//5 87//87
f 189//189 186//186 188//188
f 105//105 34//34 36//36
f 36//36 79//79 105//105
f 105//105 79//79 180//180
f 29//29 32//32 78//78
f 78//78 32//32 179//179
f 179//179 176//176 78//78
f 177//177 131//131 174//174
f 77//77 131//131 128//128
f 128//128 28//28 77//77
f 28//28 29//29 77//77
f 339//339 312//312 309//309
f 339//339 311//311 312//312
f 339//339 348//348 346//346
f 346//346 311//311 339//339
f 272//272 193//193 274//274
f 272//272 271//271 193//193
f 270//270 269//269 193//193
f 193//193 271//271 270//270
f 315//315 257//257 268//268
f 301//301 302//302 351//351
f 299//299 302//302 303//303
f 299//299 298//298 302//302
f 297//297 296//296 300//300
f 300//300 299//299 303//303
f 296//296 299//299 300//300
f 295//295 356//356 357//357
f 295//295 296//296 356//356
f 331//331 265//265 329//329
f 329//329 330//330 344//344
f 329//329 265//265 254//254
f 329//329 254//254 345//345
f 329//329 345//345 330//330
f 360//360 293//293 359//359
f 293//293 287//287 359//359
f 383//383 357//357 360//360
f 360//360 384//384 383//383
f 363//363 384//384 360//360
f 360//360 359//359 363//363
f 287//287 362//362 363//363
f 363//363 359//359 287//287
f 365//365 366//366 386//386
f 386//386 366//366 387//387
f 319//319 321//321 352//352
f 337//337 321//321 319//319
f 319//319 338//338 337//337
f 317//317 291//291 292//292
f 292//292 338//338 317//317
f 292//292 291//291 289//289
f 317//317 355//355 318//318
f 318//318 355//355 366//366
f 318//318 358//358 317//317
f 366//366 358//358 318//318
f 288//288 361//361 290//290
f 365//365 291//291 316//316
f 316//316 358//358 365//365
f 291//291 358//358 316//316
f 371//371 393//393 392//392
f 390//390 370//370 392//392
f 370//370 371//371 392//392
f 391//391 369//369 390//390
f 391//391 389//389 369//369
f 388//388 387//387 367//367
f 369//369 389//389 368//368
f 367//367 352//352 368//368
f 389//389 388//388 368//368
f 368//368 388//388 367//367
f 350//350 369//369 368//368
f 324//324 369//369 323//323
f 323//323 342//342 324//324
f 324//324 342//342 369//369
f 14//14 51//51 50//50
f 50//50 15//15 14//14
f 13//13 51//51 14//14
f 14//14 15//15 8//8
f 8//8 229//229 14//14
f 229//229 13//13 14//14
f 50//50 51//51 94//94
f 236//236 215//215 238//238
f 193//193 236//236 238//238
f 238//238 240//240 193//193
f 215//215 216//216 238//238
f 238//238 216//216 240//240
f 242//242 216//216 219//219
f 219//219 158//158 218//218
f 216//216 158//158 219//219
f 217//217 249//249 247//247
f 247//247 245//245 217//217
f 247//247 249//249 196//196
f 161//161 71//71 165//165
f 164//164 166//166 165//165
f 165//165 122//122 164//164
f 165//165 71//71 70//70
f 70//70 122//122 165//165
f 70//70 166//166 121//121
f 121//121 166//166 164//164
f 25//25 27//27 74//74
f 74//74 125//125 25//25
f 175//175 129//129 172//172
f 28//28 102//102 76//76
f 26//26 28//28 76//76
f 127//127 26//26 76//76
f 76//76 129//129 127//127
f 102//102 172//172 76//76
f 76//76 172//172 129//129
f 68//68 72//72 118//118
f 72//72 73//73 118//118
f 160//160 68//68 118//118
f 177//177 205//205 200//200
f 200//200 199//199 177//177
f 231//231 199//199 200//200
f 200//200 230//230 231//231
f 205//205 230//230 200//200
f 233//233 199//199 231//231
f 235//235 199//199 233//233
f 233//233 231//231 217//217
f 217//217 235//235 233//233
f 127//127 129//129 173//173
f 173//173 129//129 175//175
f 173//173 26//26 127//127
f 126//126 169//169 173//173
f 173//173 170//170 126//126
f 237//237 239//239 197//197
f 241//241 194//194 197//197
f 197//197 239//239 241//241
f 197//197 194//194 170//170
f 170//170 173//173 197//197
f 24//24 20//20 25//25
f 24//24 22//22 20//20
f 72//72 23//23 24//24
f 24//24 23//23 21//21
f 21//21 22//22 24//24
f 25//25 73//73 24//24
f 24//24 73//73 72//72
f 11//11 54//54 53//53
f 53//53 12//12 11//11
f 52//52 12//12 53//53
f 53//53 96//96 52//52
f 53//53 57//57 116//116
f 116//116 158//158 53//53
f 220//220 219//219 218//218
f 97//97 157//157 57//57
f 57//57 53//53 97//97
f 97//97 53//53 54//54
f 55//55 56//56 71//71
f 71//71 58//58 55//55
f 58//58 54//54 55//55
f 55//55 54//54 11//11
f 11//11 9//9 55//55
f 10//10 56//56 55//55
f 55//55 9//9 10//10
f 48//48 43//43 42//42
f 42//42 41//41 48//48
f 42//42 43//43 8//8
f 8//8 41//41 42//42
f 152//152 153//153 114//114
f 152//152 154//154 153//153
f 46//46 47//47 89//89
f 48//48 146//146 112//112
f 146//146 144//144 112//112
f 90//90 47//47 48//48
f 48//48 112//112 90//90
f 90//90 112//112 144//144
f 193//193 139//139 214//214
f 214//214 213//213 193//193
f 214//214 139//139 143//143
f 143//143 213//213 214//214
f 150//150 153//153 209//209
f 209//209 208//208 150//150
f 209//209 153//153 215//215
f 209//209 215//215 236//236
f 250//250 208//208 232//232
f 193//193 250//250 232//232
f 141//141 137//137 140//140
f 4//4 87//87 5//5
f 136//136 139//139 141//141
f 177//177 29//29 130//130
f 29//29 78//78 130//130
f 130//130 78//78 176//176
f 130//130 179//179 177//177
f 130//130 176//176 179//179
f 103//103 77//77 29//29
f 103//103 174//174 131//131
f 131//131 77//77 103//103
f 309//309 348//348 308//308
f 308//308 339//339 309//309
f 348//348 339//339 308//308
f 296//296 295//295 353//353
f 353//353 299//299 296//296
f 298//298 299//299 353//353
f 353//353 295//295 357//357
f 353//353 357//357 354//354
f 354//354 298//298 353//353
f 331//331 329//329 332//332
f 325//325 333//333 327//327
f 333//333 332//332 327//327
f 327//327 332//332 329//329
f 327//327 343//343 325//325
f 344//344 328//328 327//327
f 327//327 329//329 344//344
f 327//327 371//371 343//343
f 328//328 371//371 327//327
f 354//354 357//357 382//382
f 357//357 383//383 382//382
f 364//364 363//363 362//362
f 364//364 361//361 365//365
f 364//364 290//290 361//361
f 364//364 362//362 288//288
f 288//288 290//290 364//364
f 367//367 319//319 320//320
f 320//320 352//352 367//367
f 319//319 352//352 320//320
f 321//321 337//337 335//335
f 335//335 336//336 323//323
f 323//323 321//321 335//335
f 322//322 321//321 350//350
f 350//350 368//368 322//322
f 322//322 352//352 321//321
f 322//322 368//368 352//352
f 50//50 94//94 91//91
f 151//151 153//153 150//150
f 248//248 222//222 249//249
f 248//248 249//249 193//193
f 193//193 246//246 248//248
f 193//193 242//242 244//244
f 244//244 246//246 193//193
f 242//242 219//219 244//244
f 115//115 52//52 65//65
f 52//52 96//96 65//65
f 156//156 115//115 155//155
f 155//155 158//158 156//156
f 115//115 65//65 155//155
f 155//155 65//65 96//96
f 196//196 207//207 206//206
f 206//206 207//207 166//166
f 162//162 120//120 161//161
f 161//161 165//165 162//162
f 165//165 220//220 162//162
f 162//162 159//159 58//58
f 218//218 159//159 162//162
f 162//162 220//220 218//218
f 58//58 67//67 162//162
f 67//67 120//120 162//162
f 166//166 207//207 224//224
f 224//224 165//165 166//166
f 100//100 74//74 27//27
f 237//237 197//197 198//198
f 198//198 235//235 237//237
f 198//198 199//199 235//235
f 198//198 197//197 173//173
f 175//175 199//199 198//198
f 198//198 173//173 175//175
f 95//95 51//51 52//52
f 142//142 89//89 61//61
f 47//47 145//145 61//61
f 61//61 89//89 47//47
f 208//208 209//209 234//234
f 234//234 232//232 208//208
f 234//234 209//209 236//236
f 234//234 236//236 193//193
f 193//193 232//232 234//234
f 139//139 136//136 108//108
f 5//5 139//139 108//108
f 108//108 4//4 5//5
f 108//108 136//136 87//87
f 87//87 4//4 108//108
f 109//109 141//141 3//3
f 3//3 87//87 109//109
f 87//87 136//136 109//109
f 109//109 136//136 141//141
f 354//354 382//382 380//380
f 381//381 351//351 380//380
f 380//380 351//351 354//354
f 384//384 363//363 385//385
f 363//363 364//364 385//385
f 365//365 386//386 385//385
f 385//385 364//364 365//365
f 50//50 91//91 63//63
f 149//149 151//151 150//150
f 222//222 248//248 221//221
f 221//221 248//248 246//246
f 221//221 220//220 222//222
f 219//219 220//220 221//221
f 246//246 244//244 221//221
f 221//221 244//244 219//219
f 196//196 206//206 195//195
f 195//195 206//206 194//194
f 195//195 247//247 196//196
f 245//245 247//247 195//195
f 243//243 245//245 195//195
f 195//195 194//194 243//243
f 170//170 194//194 171//171
f 194//194 206//206 171//171
f 171//171 125//125 170//170
f 124//124 163//163 171//171
f 167//167 73//73 124//124
f 167//167 206//206 166//166
f 124//124 171//171 167//167
f 167//167 171//171 206//206
f 160//160 118//118 167//167
f 167//167 118//118 73//73
f 167//167 123//123 160//160
f 167//167 166//166 123//123
f 223//223 220//220 165//165
f 165//165 224//224 223//223
f 223//223 224//224 207//207
f 222//222 220//220 223//223
f 125//125 74//74 168//168
f 74//74 100//100 168//168
f 170//170 125//125 168//168
f 51//51 95//95 93//93
f 145//145 142//142 111//111
f 111//111 61//61 145//145
f 142//142 61//61 111//111
f 113//113 149//149 150//150
f 113//113 150//150 50//50
f 50//50 63//63 113//113
f 91//91 149//149 113//113
f 113//113 63//63 91//91
f 114//114 51//51 64//64
f 51//51 93//93 64//64
f 64//64 93//93 152//152
f 64//64 152//152 114//114
f 405//405 6//6 397//397
f 8//8 6//6 405//405
f 397//397 396//396 405//405
f 405//405 396//396 406//406
f 259//259 193//193 258//258
f 191//191 193//193 259//259
f 400//400 403//403 401//401
f 400//400 402//402 403//403
f 400//400 83//83 84//84
f 84//84 402//402 400//400
f 255//255 401//401 254//254
f 401//401 399//399 254//254
f 399//399 345//345 254//254
f 255//255 253//253 256//256
f 253//253 252//252 256//256
f 217//217 190//190 256//256
f 256//256 252//252 217//217
f 49//49 146//146 48//48
f 148//148 146//146 49//49
f 375//375 405//405 406//406
f 375//375 406//406 374//374
f 5//5 88//88 139//139
f 139//139 88//88 138//138
f 38//38 86//86 186//186
f 186//186 187//187 38//38
f 106//106 182//182 183//183
f 183//183 36//36 106//106
f 37//37 107//107 184//184
f 185//185 37//37 184//184
f 32//32 104//104 178//178
f 32//32 178//178 179//179
f 261//261 259//259 258//258
f 258//258 257//257 261//261
f 397//397 6//6 261//261
f 261//261 6//6 2//2
f 261//261 396//396 397//397
f 261//261 137//137 191//191
f 191//191 259//259 261//261
f 2//2 137//137 261//261
f 261//261 262//262 398//398
f 398//398 396//396 261//261
f 266//266 252//252 253//253
f 263//263 252//252 266//266
f 403//403 402//402 409//409
f 409//409 395//395 403//403
f 21//21 23//23 56//56
f 10//10 21//21 56//56
f 50//50 150//150 92//92
f 150//150 147//147 92//92
f 188//188 401//401 255//255
f 255//255 256//256 188//188
f 39//39 83//83 188//188
f 188//188 400//400 401//401
f 188//188 190//190 189//189
f 83//83 400//400 188//188
f 188//188 256//256 190//190
f 188//188 82//82 39//39
f 188//188 186//186 86//86
f 86//86 82//82 188//188
f 105//105 180//180 181//181
f 181//181 34//34 105//105
f 268//268 257//257 258//258
f 258//258 267//267 268//268
f 349//349 304//304 301//301
f 301//301 351//351 349//349
f 305//305 302//302 301//301
f 301//301 304//304 305//305
f 121//121 164//164 69//69
f 69//69 70//70 121//121
f 172//172 102//102 28//28
f 28//28 175//175 172//172
f 169//169 101//101 173//173
f 173//173 101//101 26//26
f 218//218 157//157 97//97
f 97//97 54//54 218//218
f 89//89 142//142 143//143
f 89//89 143//143 46//46
f 90//90 145//145 47//47
f 90//90 144//144 145//145
f 140//140 1//1 3//3
f 3//3 141//141 140//140
f 140//140 137//137 2//2
f 2//2 1//1 140//140
f 177//177 174//174 103//103
f 103//103 29//29 177//177
f 335//335 284//284 283//283
f 315//315 268//268 335//335
f 269//269 270//270 335//335
f 303//303 307//307 335//335
f 335//335 334//334 336//336
f 335//335 276//276 277//277
f 283//283 285//285 335//335
f 335//335 313//313 315//315
f 263//263 266//266 335//335
f 289//289 294//294 335//335
f 335//335 264//264 263//263
f 280//280 281//281 335//335
f 307//307 306//306 335//335
f 335//335 279//279 280//280
f 333//333 334//334 335//335
f 335//335 292//292 289//289
f 335//335 300//300 303//303
f 274//274 273//273 335//335
f 277//277 278//278 335//335
f 286//286 264//264 335//335
f 335//335 285//285 286//286
f 335//335 281//281 282//282
f 282//282 284//284 335//335
f 335//335 306//306 310//310
f 310//310 313//313 335//335
f 335//335 272//272 274//274
f 335//335 267//267 269//269
f 335//335 266//266 331//331
f 335//335 332//332 333//333
f 335//335 294//294 297//297
f 335//335 273//273 275//275
f 275//275 276//276 335//335
f 278//278 279//279 335//335
f 271//271 272//272 335//335
f 335//335 270//270 271//271
f 335//335 268//268 267//267
f 297//297 300//300 335//335
f 335//335 337//337 338//338
f 338//338 292//292 335//335
f 331//331 332//332 335//335
f 151//151 94//94 51//51
f 51//51 153//153 151//151
f 96//96 53//53 155//155
f 155//155 53//53 158//158
f 156//156 154//154 95//95
f 95//95 52//52 156//156
f 385//385 375//375 374//374
f 374//374 376//376 385//385
f 390//390 392//392 385//385
f 415//415 414//414 385//385
f 421//421 422//422 385//385
f 385//385 413//413 415//415
f 418//418 419//419 385//385
f 385//385 420//420 421//421
f 385//385 379//379 381//381
f 385//385 409//409 410//410
f 385//385 427//427 408//408
f 408//408 375//375 385//385
f 424//424 426//426 385//385
f 385//385 425//425 424//424
f 377//377 378//378 385//385
f 385//385 376//376 377//377
f 385//385 417//417 418//418
f 410//410 411//411 385//385
f 385//385 386//386 387//387
f 394//394 395//395 385//385
f 385//385 426//426 427//427
f 419//419 420//420 385//385
f 423//423 425//425 385//385
f 385//385 422//422 423//423
f 378//378 379//379 385//385
f 416//416 417//417 385//385
f 385//385 414//414 416//416
f 385//385 411//411 412//412
f 412//412 413//413 385//385
f 387//387 388//388 385//385
f 385//385 393//393 394//394
f 385//385 391//391 390//390
f 395//395 409//409 385//385
f 385//385 383//383 384//384
f 381//381 380//380 385//385
f 385//385 392//392 393//393
f 389//389 391//391 385//385
f 385//385 388//388 389//389
f 385//385 382//382 383//383
f 385//385 380//380 382//382
f 94//94 151//151 149//149
f 149//149 91//91 94//94
f 25//25 125//125 171//171
f 99//99 25//25 171//171
f 171//171 163//163 99//99
f 223//223 207//207 196//196
f 196//196 222//222 223//223
f 168//168 100//100 27//27
f 27//27 170//170 168//168
f 93//93 95//95 154//154
f 154//154 152//152 93//93

