# https://github.com/mikedh/trimesh
v 40.44355392 9.38968277 8.19999981
v 31.55901718 9.45105648 10.00000000
v 31.25000000 8.50000000 11.00000000
v 18.50000000 8.50000000 11.00000000
v 47.90848160 2.54999995 8.39999962
v 47.68299484 3.33047605 8.39999962
v 47.87163544 2.78999996 8.39999962
v 47.89921570 2.67140579 8.39999962
v 47.46318817 3.85533500 8.39999962
v 47.21193314 4.36502409 8.39999962
v 46.61674500 5.33620930 8.39999962
v 46.92882538 4.86021519 8.39999962
v 46.27606201 5.79197454 8.39999962
v 45.90763092 6.22684479 8.39999962
v 45.51459885 6.63695002 8.39999962
v 45.70717621 -6.44231892 8.39999962
v 46.40290451 -5.62905264 8.39999962
v 47.00007248 -4.74198151 8.39999962
v 47.49132156 -3.79288864 8.39999962
v 47.89921570 -2.67140579 8.39999962
v 47.87163544 -2.78999996 8.39999962
v 47.90848160 -2.54999995 8.39999962
v 48.10848236 -2.54999995 8.19999981
v 48.09690094 -2.70175767 8.19999981
v 48.06242371 -2.84999990 8.19999981
v 47.17306900 -4.84261799 8.19999981
v 47.67514801 -3.87192845 8.19999981
v 46.56283188 -5.74922276 8.19999981
v 45.85251236 -6.57974577 8.19999981
v 44.92345428 -7.16941738 8.39999962
v 45.05151367 -7.32319546 8.19999981
v 44.06219864 -7.80140877 8.39999962
v 43.13347244 -8.33091068 8.39999962
v 44.17042923 -7.96973419 8.19999981
v 42.14894485 -8.75062370 8.39999962
v 43.22092438 -8.51080513 8.19999981
v 41.12357330 -9.05416775 8.39999962
v 42.21556091 -8.93924904 8.19999981
v 41.16764069 -9.24939632 8.19999981
v 40.09104156 -9.43714142 8.19999981
v 39.00000000 -9.50000000 8.19999981
v 45.09586716 7.02341509 8.39999962
v 44.65521240 7.38298368 8.39999962
v 44.19328308 7.71477461 8.39999962
v 43.21276855 8.29105186 8.39999962
v 43.71109390 8.01839733 8.39999962
v 42.69694519 8.53350163 8.39999962
v 42.16817093 8.74372005 8.39999962
v 41.62731171 8.92105198 8.39999962
v 41.07546616 9.06541443 8.39999962
v 41.47805023 9.17111015 8.19999981
v 42.48185349 8.83893108 8.19999981
v 43.44252014 8.39726162 8.19999981
v 44.34815979 7.85157251 8.19999981
v 45.18754959 7.20862293 8.19999981
v 45.95029068 6.47637796 8.19999981
v 46.62693405 5.66390753 8.19999981
v 47.20910263 4.78127670 8.19999981
v 47.68958282 3.83941841 8.19999981
v 48.06242371 2.84999990 8.19999981
v 48.09690094 2.70175767 8.19999981
v 48.10848236 2.54999995 8.19999981
v 47.88066101 3.37376571 5.00000000
v 48.30467987 1.91648638 7.40000010
v 48.22246552 2.27896833 5.00000000
v 41.27896881 9.22246456 5.00000000
v 42.37376404 8.88066292 5.00000000
v 44.39980698 7.81608725 5.00000000
v 45.30071259 7.10976458 5.00000000
v 46.10976410 6.30071354 5.00000000
v 46.81608582 5.39980602 5.00000000
v 47.40964127 4.41902351 5.00000000
v 48.22246552 -2.27896833 5.00000000
v 48.43003845 1.15007472 5.00000000
v 48.43003845 -1.15007472 5.00000000
v 48.50000000 0.00000000 5.00000000
v 48.50000000 -0.00000000 7.40000010
v 48.45104599 0.96319246 7.40000010
v 48.45104599 -0.96319246 7.40000010
v 48.30467987 -1.91648638 7.40000010
v 47.88066101 -3.37376571 5.00000000
v 47.40964127 -4.41902351 5.00000000
v 46.81608582 -5.39980602 5.00000000
v 46.10976410 -6.30071354 5.00000000
v 45.30071259 -7.10976458 5.00000000
v 44.39980698 -7.81608725 5.00000000
v 43.41902161 -8.40964127 5.00000000
v 42.37376404 -8.88066292 5.00000000
v 41.27896881 -9.22246456 5.00000000
v 40.15007401 -9.43004036 5.00000000
v 18.50000000 -9.50000000 10.00000000
v 31.25000000 -9.50000000 10.00000000
v 18.50000000 -8.50000000 11.00000000
v 31.55901718 -9.45105648 10.00000000
v 31.25000000 -8.50000000 11.00000000
v 39.57920456 -9.48204231 4.94999981
v 41.27164459 9.22419739 4.94999981
v 42.36703110 8.88316250 4.94999981
v 43.41260529 8.41306305 4.94999981
v 44.39018631 7.82298136 4.94999981
v 44.85264969 7.48265791 4.94999981
v 46.11550522 6.29421663 4.94999981
v 45.71995926 6.71506357 4.94999981
v 46.48544693 5.84945822 4.94999981
v 47.13880920 4.89969254 4.94999981
v 46.82623291 5.38512897 4.94999981
v 47.42113876 4.39702225 4.94999981
v 47.89095306 3.34643149 4.94999981
v 48.21925354 -2.29192090 4.94999981
v 47.87739563 -3.38233495 4.94999981
v 47.40686798 -4.42427635 4.94999981
v 46.81380463 -5.40315819 4.94999981
v 46.10708237 -6.30377340 4.94999981
v 44.39303207 -7.82099485 4.94999981
v 43.42063141 -8.40887260 4.94999981
v 42.37837219 -8.87890911 4.94999981
v 41.28329086 -9.22132969 4.94999981
v 40.15238953 -9.42974472 4.94999981
v 41.28329086 9.22132969 -4.94999981
v 42.37837219 8.87890911 -4.94999981
v 43.42063141 8.40887260 -4.94999981
v 44.39303207 7.82099485 -4.94999981
v 45.29529190 7.11424303 -4.94999981
v 46.10708237 6.30377340 -4.94999981
v 46.81380463 5.40315819 -4.94999981
v 47.40686798 4.42427635 -4.94999981
v 47.87739563 3.38233495 -4.94999981
v 48.22977829 2.24915624 4.94999981
v 48.21925354 2.29192090 -4.94999981
v 48.42789459 -1.16757071 4.94999981
v 48.43364334 1.12042797 4.94999981
v 48.42789459 1.16757071 -4.94999981
v 48.49996185 -0.02432229 4.94999981
v 48.49996185 0.02432229 -4.94999981
v 48.43364334 -1.12042797 -4.94999981
v 48.22977829 -2.24915624 -4.94999981
v 47.89095306 -3.34643149 -4.94999981
v 47.42113876 -4.39702225 -4.94999981
v 47.13880920 -4.89969254 -4.94999981
v 46.48544693 -5.84945822 -4.94999981
v 46.82623291 -5.38512897 -4.94999981
v 45.71995926 -6.71506357 -4.94999981
v 46.11550522 -6.29421663 -4.94999981
v 44.85264969 -7.48265791 -4.94999981
v 45.29830551 -7.11154938 -4.94999981
v 44.39018631 -7.82298136 -4.94999981
v 43.41260529 -8.41306305 -4.94999981
v 42.36703110 -8.88316250 -4.94999981
v 41.27164459 -9.22419739 -4.94999981
v 40.14432526 -9.43084812 -4.94999981
v 41.27164459 9.22419739 -5.00000000
v 40.44355392 9.38968277 -8.19999981
v 42.36703110 8.88316250 -5.00000000
v 41.47805023 9.17111015 -8.19999981
v 43.41260529 8.41306305 -5.00000000
v 42.48185349 8.83893108 -8.19999981
v 44.39018631 7.82298136 -5.00000000
v 43.44252014 8.39726162 -8.19999981
v 44.85264969 7.48265791 -5.00000000
v 44.34815979 7.85157251 -8.19999981
v 45.29830551 7.11154938 -5.00000000
v 45.18754959 7.20862293 -8.19999981
v 45.71995926 6.71506357 -5.00000000
v 46.11550522 6.29421663 -5.00000000
v 45.95029068 6.47637796 -8.19999981
v 46.48544693 5.84945822 -5.00000000
v 46.82623291 5.38512897 -5.00000000
v 46.62693405 5.66390753 -8.19999981
v 47.13880920 4.89969254 -5.00000000
v 47.42113876 4.39702225 -5.00000000
v 47.20910263 4.78127670 -8.19999981
v 47.89095306 3.34643149 -5.00000000
v 47.68958282 3.83941841 -8.19999981
v 48.22977829 2.24915624 -5.00000000
v 48.42789459 -1.16757071 -5.00000000
v 48.43364334 1.12042797 -5.00000000
v 48.30494690 1.91488290 -7.40000010
v 48.21925354 -2.29192090 -5.00000000
v 48.49996185 -0.02432229 -5.00000000
v 48.45090103 0.96364272 -7.40000010
v 48.45090103 -0.96364272 -7.40000010
v 48.49999619 -0.00000000 -7.40000010
v 48.30494690 -1.91488290 -7.40000010
v 47.87739563 -3.38233495 -5.00000000
v 47.40686798 -4.42427635 -5.00000000
v 47.67514801 -3.87192845 -8.19999981
v 48.06242371 -2.84999990 -8.19999981
v 46.81380463 -5.40315819 -5.00000000
v 47.17306900 -4.84261799 -8.19999981
v 46.10708237 -6.30377340 -5.00000000
v 46.56283188 -5.74922276 -8.19999981
v 45.29529190 -7.11424303 -5.00000000
v 45.85251236 -6.57974577 -8.19999981
v 44.39303207 -7.82099485 -5.00000000
v 45.05151367 -7.32319546 -8.19999981
v 43.42063141 -8.40887260 -5.00000000
v 44.17042923 -7.96973419 -8.19999981
v 42.37837219 -8.87890911 -5.00000000
v 43.22092438 -8.51080513 -8.19999981
v 41.28329086 -9.22132969 -5.00000000
v 42.21556091 -8.93924904 -8.19999981
v 40.15238953 -9.42974472 -5.00000000
v 41.16764069 -9.24939632 -8.19999981
v 39.57920456 -9.48204231 -5.00000000
v 40.09104156 -9.43714142 -8.19999981
v 39.00000000 -9.50000000 -8.19999981
v 31.25000000 -9.50000000 -10.00000000
v 18.50000000 8.50000000 -11.00000000
v 31.55901718 9.45105648 -10.00000000
v 31.25000000 8.50000000 -11.00000000
v 47.89921570 -2.67140579 -8.39999962
v 47.90848160 -2.54999995 -8.39999962
v 47.87163544 -2.78999996 -8.39999962
v 47.49131393 -3.79290557 -8.39999962
v 47.00005341 -4.74201012 -8.39999962
v 46.40287781 -5.62908840 -8.39999962
v 45.70714188 -6.44235659 -8.39999962
v 44.92340851 -7.16945267 -8.39999962
v 41.12353897 -9.05417538 -8.39999962
v 42.14890289 -8.75063801 -8.39999962
v 43.13342667 -8.33093452 -8.39999962
v 44.06215286 -7.80143929 -8.39999962
v 48.09690094 -2.70175767 -8.19999981
v 48.10848236 -2.54999995 -8.19999981
v 45.51454926 6.63699865 -8.39999962
v 45.90758896 6.22689342 -8.39999962
v 45.09581375 7.02346230 -8.39999962
v 44.65515518 7.38302755 -8.39999962
v 44.19322586 7.71481466 -8.39999962
v 43.71103287 8.01843166 -8.39999962
v 43.21271133 8.29108143 -8.39999962
v 42.16811752 8.74373817 -8.39999962
v 42.69688797 8.53352547 -8.39999962
v 41.62726974 8.92106533 -8.39999962
v 41.07542801 9.06542301 -8.39999962
v 46.92879868 4.86025429 -8.39999962
v 47.21191788 4.36505651 -8.39999962
v 46.27602386 5.79202175 -8.39999962
v 46.61671448 5.33625364 -8.39999962
v 31.55901718 -9.45105648 -10.00000000
v 18.50000000 -9.50000000 -10.00000000
v 31.25000000 -8.50000000 -11.00000000
v 18.50000000 -8.50000000 -11.00000000
v 48.06242371 2.84999990 -8.19999981
v 47.68299103 3.33048868 -8.39999962
v 47.46317673 3.85535836 -8.39999962
v 47.87163544 2.78999996 -8.39999962
v 48.09690094 2.70175767 -8.19999981
v 47.89921570 2.67140579 -8.39999962
v 47.90848160 2.54999995 -8.39999962
v 48.10848236 2.54999995 -8.19999981
v 40.71941757 -1.37243390 10.19999981
v 40.98107147 -0.95673102 10.19999981
v 41.14429855 -0.49191225 10.19999981
v 41.14429855 0.49191225 10.19999981
v 41.20000076 -0.00000000 10.19999981
v 40.98107147 0.95673102 10.19999981
v 40.71941757 1.37243390 10.19999981
v 42.14053345 -4.33115673 -9.80000019
v 42.77885437 -3.78713989 -9.80000019
v 42.79769897 3.76824546 -9.80000019
v 43.32392120 -3.15057302 -9.80000019
v 43.33882904 3.13001108 -9.80000019
v 43.76255035 -2.43732715 -9.80000019
v 43.77350998 2.41578841 -9.80000019
v 44.08489227 -1.66313744 -9.80000019
v 44.09188843 1.64160728 -9.80000019
v 44.28251266 -0.84684223 -9.80000019
v 44.28580856 0.82603657 -9.80000019
v 44.34994507 -0.01018121 -9.80000019
v 44.44081116 -0.40773234 -9.75606632
v 44.44081116 0.40773234 -9.75606632
v 42.16297150 4.31480122 -9.80000019
v -11.30000019 -1.76082850 -5.99683094
v -11.30000019 -2.59634376 -5.68519974
v -11.30000019 -3.37900519 -5.25783443
v -11.30000019 -4.09287977 -4.72343493
v -11.30000019 -5.25783443 -3.37900519
v -11.30000019 -4.72343493 -4.09287977
v -11.30000019 -5.68519974 -2.59634376
v -11.30000019 -5.99683094 -1.76082850
v -11.30000019 -6.18638420 -0.88946772
v -11.30000019 -6.25000000 -0.00000000
v -11.30000019 -6.18638420 0.88946772
v -11.30000019 -5.99683094 1.76082850
v -11.30000019 -5.68519974 2.59634376
v -11.30000019 -5.25783443 3.37900519
v -11.30000019 -4.72343493 4.09287977
v -11.30000019 -4.09287977 4.72343493
v -11.30000019 -3.37900519 5.25783443
v -11.30000019 -2.59634376 5.68519974
v -11.30000019 -1.76082850 5.99683094
v -11.50000000 0.00000000 -6.05000019
v -11.50000000 3.50000000 -6.05000019
v -11.50000000 -0.86202282 -5.98827267
v -11.50000000 -1.70585752 -5.80452728
v -11.50000000 -2.51449203 -5.50270891
v -11.50000000 -3.27166224 -5.08907604
v -11.50000000 -3.96214843 -4.57207203
v -11.50000000 -5.08905602 -3.27169299
v -11.50000000 -4.57204628 -3.96217799
v -11.50000000 -5.50269604 -2.51452065
v -11.50000000 -5.80452061 -1.70588017
v -11.50000000 -5.98827124 -0.86203581
v -11.50000000 -6.05000019 -0.00000000
v -11.50000000 -5.98827267 0.86202282
v -11.50000000 -5.80452728 1.70585752
v -11.50000000 -5.50270891 2.51449203
v -11.50000000 -5.08907604 3.27166224
v -11.50000000 -4.57207203 3.96214843
v -11.50000000 -3.27169299 5.08905602
v -11.50000000 -3.96217799 4.57204628
v -11.50000000 -2.51452065 5.50269604
v -11.50000000 -1.70588017 5.80452061
v -11.50000000 -0.86203581 5.98827124
v -11.50000000 0.00000001 6.05000019
v -8.50000000 14.00000000 9.00000000
v -10.80000019 14.00000000 9.00000000
v -8.50000000 14.00000000 -9.00000000
v -8.50000000 13.93286705 -9.25024796
v -10.80000019 14.00000000 -9.00000000
v -8.50000000 13.75026131 -9.43285942
v -10.80000019 13.93301296 -9.25000000
v -10.80000019 13.75000000 -9.43301296
v -10.80000019 11.50000000 -9.50000000
v -10.80000019 13.50000000 -9.50000000
v -10.80000019 11.11177158 -9.44888878
v -8.50000000 13.93285942 9.25026131
v -8.50000000 13.75024796 9.43286705
v -10.80000019 11.11177158 9.44888878
v -10.80000019 13.50000000 9.50000000
v -10.80000019 11.50000000 9.50000000
v -10.80000019 13.75000000 9.43301296
v -10.80000019 13.93301296 9.25000000
v -11.00000000 13.80000019 9.00000000
v -11.00000000 13.75958824 9.15027714
v -11.00000000 13.80000019 -9.00000000
v -11.00000000 13.50000000 9.30000019
v -11.00000000 11.50000000 9.30000019
v -11.00000000 13.65026283 9.25959682
v -11.00000000 11.29484653 9.28363132
v -11.00000000 11.29484653 -9.28363132
v -11.00000000 13.50000000 -9.30000019
v -11.00000000 11.50000000 -9.30000019
v -11.00000000 13.65027714 -9.25958824
v -11.00000000 13.75959682 -9.15026283
v -11.50000000 4.36203575 -5.98827124
v -11.50000000 3.50000000 6.05000019
v -11.50000000 4.36202288 5.98827267
v -11.50000000 5.20585775 5.80452728
v -11.50000000 6.01449203 5.50270891
v -11.50000000 6.77166224 5.08907604
v -11.50000000 7.46214819 4.57207203
v -11.50000000 8.58905602 3.27169299
v -11.50000000 8.07204628 3.96217799
v -11.50000000 9.00269604 2.51452065
v -11.50000000 9.30452061 1.70588017
v -11.50000000 9.48827076 0.86203581
v -11.50000000 9.55000019 0.00000000
v -11.50000000 9.48827267 -0.86202282
v -11.50000000 9.30452728 -1.70585752
v -11.50000000 9.00270939 -2.51449203
v -11.50000000 8.58907604 -3.27166224
v -11.50000000 8.07207203 -3.96214843
v -11.50000000 6.77169323 -5.08905602
v -11.50000000 7.46217823 -4.57204628
v -11.50000000 6.01452065 -5.50269604
v -11.50000000 5.20588017 -5.80452061
v 13.50000000 14.00000000 8.50000000
v 13.50000000 14.00000000 -8.50000000
v 13.50000000 13.95110321 8.80872917
v 13.50000000 13.95110321 -8.80872917
v 11.50000000 -9.50000000 9.50000000
v 11.50000000 -9.00000000 10.00000000
v 11.50000000 -9.50000000 -9.50000000
v 11.50000000 -9.00000000 -10.00000000
v 13.50000000 13.30872917 -9.45110321
v 13.50000000 13.30872917 9.45110321
v 13.50000000 13.58760929 -9.30902004
v 13.50000000 13.58760929 9.30902004
v 13.50000000 13.80902004 -9.08760929
v 13.50000000 13.80902004 9.08760929
v 11.50000000 -1.67020297 -10.87233162
v 11.50000000 0.55901605 -10.98576069
v 11.50000000 -0.55901605 -10.98576069
v 11.50000000 -1.67020297 10.87233162
v 11.50000000 -0.55901605 10.98576069
v 11.50000000 0.55901605 10.98576069
vn 0.17895605 0.91282230 0.36705610
vn 0.14087037 0.70949433 0.69048775
vn 0.10206204 0.36491924 0.92542816
vn -0.00756431 0.14258642 0.98975345
vn 0.50288204 0.02037014 0.86411499
vn 0.47530484 0.18090519 0.86102185
vn 0.48116131 0.13945291 0.86546905
vn 0.49902500 0.07758302 0.86310771
vn 0.45347567 0.20947653 0.86630214
vn 0.44984348 0.23534036 0.86154266
vn 0.41696796 0.28591901 0.86277925
vn 0.42673431 0.26726804 0.86398242
vn 0.39574951 0.31852751 0.86134926
vn 0.38174217 0.33598021 0.86104019
vn 0.36718984 0.37386896 0.85170043
vn 0.37126702 -0.35088933 0.85967289
vn 0.40116051 -0.30298801 0.86444694
vn 0.43113246 -0.25567362 0.86530677
vn 0.45769247 -0.20448041 0.86527762
vn 0.49902500 -0.07758302 0.86310771
vn 0.48082594 -0.14631161 0.86452260
vn 0.50288204 -0.02037014 0.86411499
vn 0.85883919 -0.04708466 0.51007673
vn 0.89747476 -0.16357120 0.40961386
vn 0.88332581 -0.27227004 0.38158163
vn 0.79582154 -0.47153448 0.37989907
vn 0.84475082 -0.37693848 0.37988609
vn 0.73645044 -0.55985811 0.37973629
vn 0.66732305 -0.64077484 0.37958866
vn 0.33994888 -0.40353523 0.84946693
vn 0.58927825 -0.71322765 0.37954902
vn 0.30450109 -0.45756632 0.83541137
vn 0.26442145 -0.51494600 0.81542131
vn 0.50348621 -0.77627082 0.37934846
vn 0.21880363 -0.57813189 0.78605884
vn 0.41100207 -0.82911016 0.37901666
vn 0.17329356 -0.64545897 0.74387637
vn 0.31308774 -0.87092453 0.37876976
vn 0.21696056 -0.90137968 0.37475698
vn 0.12932478 -0.93942559 0.31741873
vn 0.03980399 -0.99277221 0.11322097
vn 0.34628275 0.39271896 0.85197422
vn 0.33389506 0.43082081 0.83839580
vn 0.30738981 0.45292495 0.83688141
vn 0.26432772 0.51880004 0.81300515
vn 0.29501209 0.48989986 0.82034505
vn 0.24996238 0.55393672 0.79414918
vn 0.21551498 0.59229614 0.77636240
vn 0.19611737 0.62655729 0.75429698
vn 0.15932721 0.67371188 0.72161426
vn 0.24210851 0.89486956 0.37495591
vn 0.33998876 0.86263284 0.37452934
vn 0.43382624 0.81978004 0.37383885
vn 0.52148440 0.76680476 0.37425189
vn 0.60377908 0.70338864 0.37509366
vn 0.67821852 0.63182315 0.37525876
vn 0.74401669 0.55261767 0.37557006
vn 0.80070247 0.46657989 0.37573762
vn 0.84783964 0.37450272 0.37538735
vn 0.88541445 0.26873011 0.37924317
vn 0.89747476 0.16357120 0.40961386
vn 0.85883919 0.04708466 0.51007673
vn 0.93172992 0.36314843 0.00160318
vn 0.98136276 0.18733196 0.04282362
vn 0.96766300 0.25224420 0.00108618
vn 0.23273344 0.97253994 0.00109776
vn 0.35203568 0.93598653 0.00030466
vn 0.58719332 0.80944666 0.00033591
vn 0.67204042 0.74051431 0.00047561
vn 0.74825657 0.66340892 0.00084458
vn 0.81973498 0.57274198 0.00109306
vn 0.88268603 0.46995937 0.00188670
vn 0.97147441 -0.23713852 0.00166964
vn 0.99008483 0.14046993 0.00048118
vn 0.99298302 -0.11825609 0.00047405
vn 1.00000000 0.00000000 -0.00000000
vn 0.97757121 0.00006416 0.21060513
vn 0.98623215 0.08252195 0.14330482
vn 0.98621435 -0.08255565 0.14340788
vn 0.98135674 -0.18735654 0.04285407
vn 0.93737535 -0.34831825 0.00136058
vn 0.88902252 -0.45786235 0.00101354
vn 0.82911122 -0.55908277 0.00102132
vn 0.75717137 -0.65321560 0.00094550
vn 0.67116898 -0.74130427 0.00043070
vn 0.58899339 -0.80813659 0.00142690
vn 0.48824820 -0.87270169 0.00233534
vn 0.35632808 -0.93436077 0.00050246
vn 0.25084700 -0.96802658 0.00057002
vn 0.12572634 -0.99206495 0.00011690
vn -0.01413767 -0.92072918 0.38994602
vn 0.03398327 -0.91671513 0.39809360
vn -0.03350720 -0.38516528 0.92223911
vn 0.12931790 -0.74537319 0.65398447
vn 0.07154132 -0.38736050 0.91914835
vn 0.05921125 -0.99824544 0.00025110
vn 0.21312478 0.97702497 0.00017530
vn 0.32815792 0.94462287 0.00010261
vn 0.44156626 0.89722864 0.00003077
vn 0.57251912 0.81989137 0.00001613
vn 0.61322342 0.78990943 0.00035129
vn 0.75947873 0.65053161 0.00083175
vn 0.70255601 0.71162823 0.00055261
vn 0.78187489 0.62343487 0.00079479
vn 0.85035267 0.52621306 0.00039561
vn 0.83191190 0.55490737 0.00062537
vn 0.89375249 0.44856024 0.00044385
vn 0.94060426 0.33950475 0.00038209
vn 0.96677255 -0.25563801 0.00022975
vn 0.92943930 -0.36897502 0.00013034
vn 0.87868442 -0.47740307 0.00006613
vn 0.81817304 -0.57497207 0.00005688
vn 0.74358566 -0.66864068 0.00003965
vn 0.57124522 -0.82077944 0.00008591
vn 0.48025924 -0.87712659 0.00013978
vn 0.37814316 -0.92574712 0.00014137
vn 0.27184167 -0.96234198 0.00010454
vn 0.15090181 -0.98854876 0.00005654
vn 0.24438989 0.96967705 -0.00002959
vn 0.35577350 0.93457221 -0.00001387
vn 0.46571506 0.88493473 -0.00000142
vn 0.58272232 0.81267132 -0.00014875
vn 0.66272843 0.74885981 -0.00002916
vn 0.74522810 0.66680962 -0.00004294
vn 0.81811666 0.57505228 -0.00011981
vn 0.88040241 0.47422730 -0.00026484
vn 0.93036847 0.36662555 -0.00046964
vn 0.97342958 0.22898647 0.00023742
vn 0.96701899 0.25470374 -0.00053313
vn 0.98986351 -0.14202173 0.00024393
vn 0.99332285 0.11536772 0.00006022
vn 0.98990778 0.14171277 -0.00029250
vn 0.99964051 -0.02681135 0.00002926
vn 0.99964075 0.02680225 -0.00003191
vn 0.99333047 -0.11530207 -0.00009606
vn 0.97335990 -0.22928236 -0.00033633
vn 0.94043178 -0.33998208 -0.00049361
vn 0.89313714 -0.44978416 -0.00051317
vn 0.84913072 -0.52818273 -0.00014751
vn 0.78016494 -0.62557377 -0.00035343
vn 0.83220102 -0.55447375 -0.00057571
vn 0.69958345 -0.71455064 -0.00061845
vn 0.75973177 -0.65023632 -0.00060283
vn 0.60898245 -0.79318330 -0.00079428
vn 0.67613888 -0.73677398 -0.00055868
vn 0.56390108 -0.82584234 -0.00001848
vn 0.45854994 -0.88866864 -0.00001818
vn 0.34919591 -0.93704974 -0.00000899
vn 0.23733185 -0.97142864 -0.00000985
vn 0.12643414 -0.99197500 -0.00000781
vn 0.21866691 0.97579948 -0.00039292
vn 0.17894840 0.91282118 -0.36706263
vn 0.33030569 0.94387398 -0.00022962
vn 0.24210994 0.89486374 -0.37496888
vn 0.43970798 0.89814080 -0.00005213
vn 0.33999085 0.86262824 -0.37453805
vn 0.56891851 0.82239389 -0.00012179
vn 0.43382734 0.81977831 -0.37384135
vn 0.61316146 0.78995752 -0.00036940
vn 0.52147266 0.76680762 -0.37426241
vn 0.67466038 0.73812808 -0.00056040
vn 0.60377508 0.70338150 -0.37511348
vn 0.70233479 0.71184656 -0.00055948
vn 0.75883083 0.65128669 -0.00119436
vn 0.67821314 0.63181603 -0.37528049
vn 0.78187019 0.62344074 -0.00080776
vn 0.83135712 0.55573733 -0.00116036
vn 0.74400787 0.55261383 -0.37559320
vn 0.85035065 0.52621631 -0.00040196
vn 0.89267579 0.45069781 -0.00119027
vn 0.80069205 0.46657662 -0.37576389
vn 0.93961897 0.34221875 -0.00158924
vn 0.84783952 0.37448987 -0.37540044
vn 0.97290449 0.23120316 -0.00140048
vn 0.98995979 -0.14134851 -0.00047061
vn 0.99327974 0.11573783 -0.00032541
vn 0.98137650 0.18723769 -0.04292101
vn 0.96736205 -0.25339582 -0.00110577
vn 0.99964075 -0.02680233 -0.00003429
vn 0.98623041 0.08260292 -0.14327016
vn 0.98622880 -0.08259304 -0.14328693
vn 0.97755815 0.00000168 -0.21066575
vn 0.98137974 -0.18721274 -0.04295569
vn 0.93093107 -0.36519116 -0.00166262
vn 0.88122886 -0.47268583 -0.00194900
vn 0.84475035 -0.37693860 -0.37988701
vn 0.88333307 -0.27225586 -0.38157495
vn 0.81952611 -0.57303802 -0.00209339
vn 0.79581836 -0.47152687 -0.37991520
vn 0.74806054 -0.66362751 -0.00198650
vn 0.73644367 -0.55984902 -0.37976282
vn 0.66818437 -0.74399474 -0.00121592
vn 0.66730984 -0.64077831 -0.37960602
vn 0.57859952 -0.81561078 -0.00128582
vn 0.58929131 -0.71319861 -0.37958331
vn 0.48312369 -0.87555203 -0.00038663
vn 0.50349471 -0.77626394 -0.37935125
vn 0.37556631 -0.92679550 -0.00021653
vn 0.41100021 -0.82910456 -0.37903093
vn 0.26423144 -0.96445929 -0.00014726
vn 0.31308492 -0.87091944 -0.37878378
vn 0.15442993 -0.98800373 -0.00018367
vn 0.21695828 -0.90137620 -0.37476666
vn 0.05921117 -0.99824545 -0.00025893
vn 0.12933346 -0.93941843 -0.31743640
vn 0.03979243 -0.99277104 -0.11323525
vn 0.03398327 -0.91671513 -0.39809360
vn -0.00756431 0.14258642 -0.98975345
vn 0.14087036 0.70949434 -0.69048775
vn 0.10029584 0.36474882 -0.92568842
vn 0.53735321 -0.08486392 -0.83907666
vn 0.54657166 -0.02334410 -0.83708690
vn 0.51706545 -0.15729185 -0.84136947
vn 0.49259639 -0.22003631 -0.84198149
vn 0.46402038 -0.27518423 -0.84199687
vn 0.42923998 -0.32660890 -0.84206868
vn 0.38908218 -0.37357527 -0.84205497
vn 0.34513961 -0.41583029 -0.84140586
vn 0.17329159 -0.64546068 -0.74387535
vn 0.21880012 -0.57813564 -0.78605706
vn 0.26441833 -0.51495118 -0.81541905
vn 0.30449814 -0.45757051 -0.83541014
vn 0.89749799 -0.16358138 -0.40955889
vn 0.85887129 -0.04708952 -0.51002223
vn 0.38139840 0.39192909 -0.83721374
vn 0.40348602 0.35835128 -0.84189275
vn 0.35291304 0.40457764 -0.84366422
vn 0.33529130 0.43449101 -0.83594097
vn 0.30738692 0.45293198 -0.83687867
vn 0.29500969 0.48990243 -0.82034437
vn 0.26432528 0.51880651 -0.81300182
vn 0.21551318 0.59229992 -0.77636001
vn 0.24995957 0.55393930 -0.79414826
vn 0.19611513 0.62655854 -0.75429653
vn 0.15932565 0.67371634 -0.72161044
vn 0.45966505 0.28733654 -0.84032479
vn 0.48377735 0.25349422 -0.83767545
vn 0.42368259 0.34292811 -0.83838737
vn 0.44854858 0.30810670 -0.83897225
vn 0.12931790 -0.74537319 -0.65398447
vn -0.01413767 -0.92072918 -0.38994602
vn 0.06975681 -0.38716853 -0.91936637
vn -0.03350720 -0.38516528 -0.92223911
vn 0.88542553 0.26871404 -0.37922869
vn 0.51107586 0.19486276 -0.83715588
vn 0.48865641 0.22529621 -0.84288584
vn 0.51789439 0.15003193 -0.84218515
vn 0.89749799 0.16358138 -0.40955889
vn 0.53731910 0.08487542 -0.83909734
vn 0.54657093 0.02334354 -0.83708739
vn 0.85887129 0.04708952 -0.51002223
vn 0.18181379 -0.12274957 0.97564148
vn 0.17267948 -0.07861881 0.98183547
vn 0.17267746 -0.03590589 0.98432376
vn 0.17267121 0.03589754 0.98432516
vn 0.17433046 -0.00000000 0.98468720
vn 0.17263837 0.07858897 0.98184508
vn 0.18178266 0.12275880 0.97564612
vn 0.20149631 -0.24389410 -0.94863845
vn 0.20009063 -0.19230032 -0.96072073
vn 0.20003657 0.19060178 -0.96107041
vn 0.20738074 -0.14659080 -0.96721475
vn 0.20747932 0.14506692 -0.96742334
vn 0.21432447 -0.10653160 -0.97093565
vn 0.21444468 0.10540198 -0.97103239
vn 0.21949950 -0.06935976 -0.97314397
vn 0.21959675 0.06833979 -0.97319419
vn 0.22559082 -0.03270434 -0.97367305
vn 0.22573565 0.03184682 -0.97366791
vn 0.23254263 -0.00031280 -0.97258615
vn 0.34454199 -0.02651564 -0.93839636
vn 0.34491087 0.02530606 -0.93829425
vn 0.20118632 0.24178097 -0.94924498
vn -0.49609454 -0.25159969 -0.83101613
vn -0.50288651 -0.35542950 -0.78789278
vn -0.51107714 -0.46290165 -0.72423906
vn -0.51424782 -0.56144681 -0.64832604
vn -0.50833069 -0.72597396 -0.46320807
vn -0.51334394 -0.64918522 -0.56128117
vn -0.49829011 -0.79058306 -0.35592892
vn -0.48319975 -0.84183329 -0.24048849
vn -0.46308986 -0.87840362 -0.11813071
vn -0.45124520 -0.89240001 -0.00000000
vn -0.46309037 -0.87840327 0.11813131
vn -0.48320006 -0.84183291 0.24048922
vn -0.49829068 -0.79058230 0.35592981
vn -0.50833102 -0.72597317 0.46320896
vn -0.51334411 -0.64918457 0.56128176
vn -0.51424765 -0.56144622 0.64832669
vn -0.51107682 -0.46290077 0.72423985
vn -0.50288594 -0.35542862 0.78789354
vn -0.49609448 -0.25159849 0.83101652
vn -0.99481445 -0.00678162 -0.10148014
vn -0.99708504 0.00055539 -0.07629621
vn -0.94470107 -0.06883700 -0.32062649
vn -0.91812303 -0.11370334 -0.37963358
vn -0.91768522 -0.16518000 -0.36134388
vn -0.91768390 -0.21489142 -0.33418249
vn -0.91768079 -0.26022023 -0.30024555
vn -0.91768427 -0.33417965 -0.21489428
vn -0.91768097 -0.30024220 -0.26022348
vn -0.91768531 -0.36134236 -0.16518284
vn -0.91768372 -0.38117574 -0.11207876
vn -0.91767820 -0.39326667 -0.05663970
vn -0.91767426 -0.39733355 -0.00000002
vn -0.91767840 -0.39326637 0.05663851
vn -0.91768356 -0.38117678 0.11207649
vn -0.91768522 -0.36134388 0.16518000
vn -0.91768390 -0.33418249 0.21489142
vn -0.91768079 -0.30024555 0.26022023
vn -0.91768427 -0.21489428 0.33417965
vn -0.91768097 -0.26022348 0.30024220
vn -0.91768531 -0.16518284 0.36134236
vn -0.91812295 -0.11370492 0.37963329
vn -0.94469527 -0.06884167 0.32064259
vn -0.99481442 -0.00678169 0.10148041
vn 0.00113131 0.99133299 0.13136828
vn -0.37019333 0.92134825 0.11863520
vn 0.00113089 0.99133395 -0.13136105
vn 0.00353147 0.86556284 -0.50078787
vn -0.37019333 0.92134825 -0.11863520
vn 0.00251515 0.51354946 -0.85805631
vn -0.36203851 0.80728943 -0.46605997
vn -0.36314824 0.46666467 -0.80644122
vn -0.41544371 -0.04356067 -0.90857525
vn -0.38422155 0.12820840 -0.91429558
vn -0.44895169 -0.15609626 -0.87981608
vn 0.00353191 0.86555109 0.50080818
vn 0.00251443 0.51353103 0.85806734
vn -0.44895171 -0.15609628 0.87981607
vn -0.38422155 0.12820840 0.91429558
vn -0.41544371 -0.04356067 0.90857525
vn -0.36314813 0.46666493 0.80644112
vn -0.36203862 0.80728954 0.46605970
vn -0.89450873 0.44231989 0.06486333
vn -0.88806660 0.39719015 0.23146857
vn -0.89450846 0.44232103 -0.06485922
vn -0.89216670 0.06636267 0.44680486
vn -0.88788871 -0.01595646 0.45978150
vn -0.88769504 0.23249483 0.39742128
vn -0.86779371 -0.06674792 0.49242136
vn -0.86779370 -0.06674790 -0.49242137
vn -0.89216722 0.06636681 -0.44680319
vn -0.88788871 -0.01595646 -0.45978150
vn -0.88769552 0.23251405 -0.39740896
vn -0.88806620 0.39720229 -0.23144928
vn -0.99801676 0.00572338 -0.06268810
vn -0.99708504 0.00055538 0.07629621
vn -0.99801675 0.00572332 0.06268820
vn -0.99883135 0.01161951 0.04691395
vn -0.99917197 0.01567540 0.03754538
vn -0.99933392 0.01905364 0.03112357
vn -0.99940715 0.02228327 0.02624514
vn -0.99939450 0.02951896 0.01841939
vn -0.99942502 0.02565081 0.02217371
vn -0.99930150 0.03437005 0.01467035
vn -0.99910521 0.04097884 0.01046455
vn -0.99868758 0.05097258 0.00499169
vn -0.99827739 0.05867073 0.00000001
vn -0.99868757 0.05097269 -0.00499162
vn -0.99910521 0.04097900 -0.01046443
vn -0.99930149 0.03437023 -0.01467021
vn -0.99939449 0.02951913 -0.01841924
vn -0.99942502 0.02565097 -0.02217353
vn -0.99933392 0.01905377 -0.03112335
vn -0.99940715 0.02228342 -0.02624494
vn -0.99917198 0.01567553 -0.03754517
vn -0.99883136 0.01161964 -0.04691366
vn 0.08532067 0.99333116 0.07754728
vn 0.08532067 0.99333116 -0.07754728
vn 0.08548393 0.94826688 0.30574895
vn 0.08548394 0.94826688 -0.30574895
vn -0.13617711 -0.90969066 0.39232474
vn -0.17206071 -0.46345198 0.86925679
vn -0.13617711 -0.90969066 -0.39232474
vn -0.17206071 -0.46345198 -0.86925679
vn 0.01802717 0.39597528 -0.91808420
vn 0.01802725 0.39597550 0.91808410
vn 0.05353287 0.59771476 -0.79991956
vn 0.05353288 0.59771476 0.79991955
vn 0.07858904 0.80892127 -0.58264067
vn 0.07858903 0.80892127 0.58264066
vn -0.12155600 -0.10546257 -0.98696595
vn -0.03555145 0.01058437 -0.99931180
vn -0.06525134 -0.04483028 -0.99686133
vn -0.12155600 -0.10546257 0.98696595
vn -0.06525134 -0.04483028 0.99686133
vn -0.03555145 0.01058437 0.99931180
f 379//379 377//377 322//322
f 210//210 377//377 379//379
f 210//210 322//322 377//377
f 369//369 317//317 371//371
f 325//325 243//243 376//376
f 327//327 325//325 376//376
f 384//384 326//326 208//208
f 95//95 92//92 94//94
f 379//379 322//322 381//381
f 208//208 326//326 324//324
f 324//324 210//210 208//208
f 322//322 210//210 324//324
f 1//1 369//369 371//371
f 283//283 375//375 373//373
f 374//374 330//330 292//292
f 374//374 93//93 332//332
f 332//332 330//330 374//374
f 312//312 310//310 288//288
f 342//342 325//325 327//327
f 342//342 344//344 325//325
f 95//95 94//94 39//39
f 378//378 329//329 3//3
f 256//256 3//3 95//95
f 371//371 317//317 328//328
f 329//329 328//328 333//333
f 3//3 329//329 333//333
f 242//242 210//210 270//270
f 139//139 189//189 26//26
f 370//370 152//152 372//372
f 372//372 152//152 381//381
f 210//210 273//273 261//261
f 228//228 273//273 210//210
f 381//381 152//152 209//209
f 209//209 210//210 379//379
f 379//379 381//381 209//209
f 209//209 235//235 210//210
f 152//152 235//235 209//209
f 382//382 1//1 371//371
f 371//371 328//328 382//382
f 51//51 1//1 50//50
f 97//97 1//1 51//51
f 282//282 281//281 375//375
f 375//375 283//283 282//282
f 325//325 385//385 383//383
f 383//383 385//385 243//243
f 383//383 243//243 325//325
f 291//291 374//374 292//292
f 290//290 374//374 291//291
f 289//289 374//374 290//290
f 289//289 312//312 288//288
f 341//341 330//330 332//332
f 358//358 335//335 359//359
f 127//127 59//59 63//63
f 207//207 242//242 240//240
f 205//205 206//206 207//207
f 207//207 240//240 205//205
f 33//33 95//95 35//35
f 40//40 94//94 92//92
f 40//40 39//39 94//94
f 40//40 92//92 41//41
f 3//3 333//333 4//4
f 95//95 17//17 252//252
f 317//317 318//318 334//334
f 334//334 328//328 317//317
f 334//334 333//333 328//328
f 318//318 335//335 334//334
f 242//242 260//260 259//259
f 242//242 264//264 262//262
f 262//262 260//260 242//242
f 217//217 260//260 262//262
f 269//269 270//270 210//210
f 189//189 191//191 215//215
f 215//215 262//262 264//264
f 242//242 270//270 268//268
f 179//179 79//79 181//181
f 82//82 27//27 26//26
f 138//138 82//82 185//185
f 27//27 82//82 138//138
f 133//133 79//79 179//179
f 63//63 59//59 60//60
f 60//60 108//108 63//63
f 189//189 139//139 141//141
f 188//188 191//191 141//141
f 141//141 191//191 189//189
f 370//370 372//372 319//319
f 322//322 324//324 323//323
f 321//321 319//319 323//323
f 324//324 345//345 323//323
f 236//236 237//237 265//265
f 246//246 245//245 265//265
f 265//265 237//237 246//246
f 212//212 270//270 250//250
f 265//265 210//210 263//263
f 210//210 261//261 263//263
f 263//263 236//236 265//265
f 239//239 236//236 263//263
f 226//226 263//263 261//261
f 227//227 261//261 273//273
f 273//273 228//228 227//227
f 54//54 43//43 55//55
f 68//68 100//100 54//54
f 121//121 155//155 99//99
f 154//154 152//152 151//151
f 154//154 151//151 119//119
f 154//154 235//235 152//152
f 154//154 156//156 232//232
f 232//232 210//210 234//234
f 210//210 235//235 234//234
f 234//234 154//154 232//232
f 235//235 154//154 234//234
f 380//380 378//378 3//3
f 329//329 378//378 380//380
f 380//380 328//328 329//329
f 380//380 382//382 328//328
f 66//66 97//97 51//51
f 66//66 154//154 119//119
f 51//51 154//154 66//66
f 151//151 97//97 66//66
f 119//119 151//151 66//66
f 373//373 288//288 287//287
f 284//284 283//283 373//373
f 373//373 285//285 284//284
f 285//285 306//306 284//284
f 296//296 342//342 327//327
f 305//305 282//282 283//283
f 283//283 284//284 305//305
f 305//305 284//284 306//306
f 314//314 291//291 292//292
f 314//314 341//341 315//315
f 292//292 330//330 314//314
f 330//330 341//341 314//314
f 339//339 341//341 332//332
f 315//315 341//341 339//339
f 366//366 345//345 365//365
f 364//364 345//345 366//366
f 343//343 294//294 347//347
f 347//347 368//368 343//343
f 343//343 368//368 345//345
f 343//343 324//324 326//326
f 343//343 345//345 324//324
f 346//346 363//363 362//362
f 364//364 363//363 346//346
f 346//346 345//345 364//364
f 346//346 323//323 345//345
f 16//16 30//30 31//31
f 16//16 17//17 95//95
f 95//95 30//30 16//16
f 29//29 16//16 31//31
f 29//29 28//28 17//17
f 17//17 16//16 29//29
f 191//191 28//28 140//140
f 63//63 108//108 172//172
f 172//172 127//127 63//63
f 203//203 240//240 242//242
f 203//203 205//205 240//240
f 95//95 39//39 37//37
f 37//37 35//35 95//95
f 39//39 38//38 37//37
f 37//37 38//38 35//35
f 206//206 205//205 204//204
f 31//31 30//30 32//32
f 32//32 34//34 31//31
f 33//33 34//34 32//32
f 32//32 95//95 33//33
f 32//32 30//30 95//95
f 117//117 38//38 39//39
f 36//36 34//34 33//33
f 33//33 35//35 36//36
f 35//35 38//38 36//36
f 193//193 191//191 190//190
f 14//14 3//3 13//13
f 14//14 15//15 3//3
f 42//42 43//43 3//3
f 3//3 15//15 42//42
f 42//42 55//55 43//43
f 15//15 55//55 42//42
f 388//388 4//4 331//331
f 331//331 4//4 333//333
f 333//333 338//338 331//331
f 93//93 387//387 386//386
f 386//386 387//387 332//332
f 332//332 93//93 386//386
f 59//59 58//58 10//10
f 3//3 256//256 255//255
f 255//255 257//257 3//3
f 13//13 3//3 258//258
f 3//3 257//257 258//258
f 26//26 27//27 19//19
f 357//357 335//335 358//358
f 349//349 338//338 350//350
f 349//349 348//348 338//338
f 267//267 210//210 265//265
f 267//267 269//269 210//210
f 265//265 245//245 267//267
f 189//189 215//215 214//214
f 214//214 215//215 264//264
f 216//216 215//215 191//191
f 216//216 193//193 217//217
f 191//191 193//193 216//216
f 217//217 262//262 216//216
f 262//262 215//215 216//216
f 271//271 268//268 270//270
f 211//211 268//268 271//271
f 271//271 270//270 212//212
f 212//212 211//211 271//271
f 266//266 264//264 242//242
f 242//242 268//268 266//266
f 266//266 214//214 264//264
f 223//223 211//211 212//212
f 175//175 181//181 135//135
f 135//135 181//181 79//79
f 183//183 181//181 175//175
f 183//183 223//223 181//181
f 185//185 82//82 111//111
f 111//111 82//82 26//26
f 25//25 27//27 81//81
f 79//79 133//133 77//77
f 76//76 134//134 77//77
f 134//134 78//78 77//77
f 77//77 78//78 62//62
f 79//79 80//80 130//130
f 130//130 183//183 175//175
f 80//80 183//183 130//130
f 25//25 80//80 24//24
f 24//24 80//80 79//79
f 5//5 62//62 61//61
f 62//62 78//78 61//61
f 26//26 28//28 83//83
f 83//83 139//139 26//26
f 83//83 141//141 139//139
f 320//320 381//381 322//322
f 322//322 323//323 320//320
f 320//320 372//372 381//381
f 320//320 319//319 372//372
f 320//320 323//323 319//319
f 245//245 246//246 173//173
f 173//173 246//246 237//237
f 127//127 172//172 173//173
f 59//59 127//127 173//173
f 247//247 267//267 245//245
f 269//269 267//267 247//247
f 270//270 269//269 272//272
f 272//272 250//250 270//270
f 233//233 210//210 232//232
f 233//233 231//231 210//210
f 232//232 156//156 233//233
f 210//210 231//231 230//230
f 239//239 263//263 238//238
f 263//263 226//226 238//238
f 225//225 226//226 261//261
f 261//261 227//227 225//225
f 54//54 55//55 101//101
f 101//101 68//68 54//54
f 159//159 68//68 101//101
f 156//156 154//154 153//153
f 158//158 156//156 155//155
f 155//155 121//121 158//158
f 158//158 233//233 156//156
f 231//231 233//233 158//158
f 158//158 230//230 231//231
f 160//160 230//230 158//158
f 100//100 68//68 122//122
f 122//122 68//68 159//159
f 159//159 160//160 122//122
f 2//2 50//50 1//1
f 1//1 382//382 2//2
f 3//3 50//50 2//2
f 382//382 380//380 2//2
f 2//2 380//380 3//3
f 3//3 47//47 48//48
f 51//51 48//48 52//52
f 52//52 48//48 47//47
f 286//286 285//285 373//373
f 373//373 287//287 286//286
f 342//342 296//296 295//295
f 293//293 344//344 295//295
f 344//344 342//342 295//295
f 298//298 277//277 299//299
f 281//281 282//282 304//304
f 282//282 305//305 304//304
f 290//290 291//291 313//313
f 291//291 314//314 313//313
f 315//315 339//339 316//316
f 365//365 345//345 367//367
f 345//345 368//368 367//367
f 361//361 346//346 362//362
f 360//360 359//359 337//337
f 337//337 361//361 360//360
f 346//346 361//361 337//337
f 337//337 359//359 335//335
f 321//321 323//323 337//337
f 323//323 346//346 337//337
f 132//132 177//177 64//64
f 64//64 61//61 78//78
f 128//128 65//65 64//64
f 60//60 61//61 64//64
f 64//64 65//65 60//60
f 176//176 78//78 180//180
f 180//180 78//78 134//134
f 180//180 132//132 176//176
f 180//180 177//177 132//132
f 28//28 29//29 84//84
f 84//84 140//140 28//28
f 190//190 191//191 143//143
f 191//191 140//140 143//143
f 140//140 84//84 143//143
f 107//107 58//58 59//59
f 200//200 203//203 201//201
f 205//205 203//203 202//202
f 96//96 40//40 41//41
f 39//39 203//203 89//89
f 89//89 117//117 39//39
f 200//200 117//117 89//89
f 31//31 34//34 86//86
f 86//86 144//144 31//31
f 86//86 194//194 144//144
f 257//257 255//255 6//6
f 6//6 60//60 59//59
f 11//11 57//57 13//13
f 11//11 58//58 57//57
f 13//13 258//258 11//11
f 26//26 19//19 18//18
f 18//18 28//28 26//26
f 17//17 28//28 18//18
f 18//18 252//252 17//17
f 21//21 27//27 25//25
f 21//21 19//19 27//27
f 25//25 24//24 21//21
f 336//336 357//357 356//356
f 335//335 357//357 336//336
f 356//356 354//354 336//336
f 336//336 354//354 355//355
f 333//333 334//334 336//336
f 336//336 334//334 335//335
f 355//355 353//353 336//336
f 340//340 351//351 350//350
f 350//350 338//338 340//340
f 352//352 351//351 340//340
f 340//340 338//338 333//333
f 333//333 336//336 340//340
f 340//340 353//353 352//352
f 340//340 336//336 353//353
f 214//214 266//266 213//213
f 211//211 223//223 213//213
f 213//213 268//268 211//211
f 213//213 266//266 268//268
f 224//224 223//223 212//212
f 181//181 223//223 224//224
f 189//189 214//214 186//186
f 185//185 189//189 186//186
f 186//186 138//138 185//185
f 27//27 138//138 186//186
f 214//214 213//213 186//186
f 25//25 81//81 137//137
f 137//137 81//81 184//184
f 178//178 183//183 136//136
f 136//136 183//183 80//80
f 110//110 81//81 27//27
f 184//184 81//81 110//110
f 175//175 135//135 75//75
f 75//75 130//130 175//175
f 75//75 135//135 79//79
f 79//79 130//130 75//75
f 23//23 77//77 62//62
f 79//79 77//77 23//23
f 23//23 24//24 79//79
f 60//60 65//65 129//129
f 188//188 141//141 112//112
f 141//141 83//83 112//112
f 112//112 83//83 28//28
f 244//244 173//173 172//172
f 244//244 129//129 177//177
f 245//245 173//173 244//244
f 244//244 247//247 245//245
f 269//269 247//247 249//249
f 249//249 272//272 269//269
f 250//250 272//272 249//249
f 229//229 160//160 228//228
f 229//229 230//230 160//160
f 229//229 228//228 210//210
f 210//210 230//230 229//229
f 162//162 225//225 227//227
f 162//162 227//227 228//228
f 228//228 160//160 162//162
f 162//162 160//160 159//159
f 55//55 69//69 162//162
f 13//13 57//57 56//56
f 56//56 14//14 13//13
f 56//56 55//55 15//15
f 15//15 14//14 56//56
f 67//67 153//153 98//98
f 51//51 52//52 98//98
f 98//98 52//52 67//67
f 120//120 153//153 67//67
f 156//156 153//153 120//120
f 120//120 52//52 156//156
f 67//67 52//52 120//120
f 100//100 122//122 157//157
f 157//157 122//122 160//160
f 45//45 47//47 3//3
f 3//3 46//46 45//45
f 44//44 43//43 54//54
f 54//54 46//46 44//44
f 3//3 43//43 44//44
f 44//44 46//46 3//3
f 51//51 50//50 49//49
f 49//49 48//48 51//51
f 49//49 50//50 3//3
f 3//3 48//48 49//49
f 308//308 286//286 287//287
f 274//274 275//275 296//296
f 274//274 296//296 327//327
f 376//376 275//275 274//274
f 327//327 376//376 274//274
f 296//296 275//275 297//297
f 376//376 277//277 276//276
f 276//276 275//275 376//376
f 276//276 277//277 298//298
f 298//298 297//297 276//276
f 276//276 297//297 275//275
f 375//375 278//278 279//279
f 375//375 281//281 280//280
f 280//280 278//278 375//375
f 302//302 278//278 280//280
f 281//281 304//304 303//303
f 303//303 280//280 281//281
f 302//302 280//280 303//303
f 290//290 313//313 311//311
f 311//311 289//289 290//290
f 312//312 289//289 311//311
f 132//132 64//64 74//74
f 74//74 64//64 78//78
f 176//176 132//132 74//74
f 113//113 84//84 29//29
f 190//190 143//143 113//113
f 113//113 143//143 84//84
f 170//170 173//173 171//171
f 171//171 126//126 170//170
f 171//171 167//167 169//169
f 58//58 126//126 171//171
f 171//171 236//236 239//239
f 237//237 236//236 171//171
f 171//171 173//173 237//237
f 72//72 107//107 170//170
f 170//170 126//126 72//72
f 72//72 126//126 58//58
f 58//58 107//107 72//72
f 58//58 105//105 106//106
f 57//57 58//58 106//106
f 219//219 203//203 242//242
f 219//219 201//201 203//203
f 150//150 40//40 205//205
f 205//205 202//202 150//150
f 39//39 40//40 118//118
f 118//118 150//150 202//202
f 149//149 203//203 200//200
f 200//200 89//89 149//149
f 149//149 89//89 203//203
f 36//36 115//115 87//87
f 34//34 36//36 87//87
f 87//87 115//115 34//34
f 194//194 86//86 114//114
f 114//114 146//146 194//194
f 114//114 86//86 34//34
f 34//34 146//146 114//114
f 85//85 29//29 31//31
f 9//9 10//10 257//257
f 257//257 6//6 9//9
f 59//59 10//10 9//9
f 9//9 6//6 59//59
f 60//60 6//6 7//7
f 7//7 61//61 60//60
f 7//7 6//6 255//255
f 12//12 10//10 58//58
f 58//58 11//11 12//12
f 257//257 10//10 12//12
f 12//12 258//258 257//257
f 12//12 11//11 258//258
f 254//254 256//256 95//95
f 182//182 224//224 251//251
f 251//251 180//180 182//182
f 181//181 224//224 182//182
f 179//179 181//181 182//182
f 182//182 180//180 134//134
f 76//76 179//179 182//182
f 182//182 134//134 76//76
f 187//187 213//213 223//223
f 187//187 186//186 213//213
f 184//184 186//186 187//187
f 187//187 137//137 184//184
f 187//187 183//183 178//178
f 223//223 183//183 187//187
f 73//73 136//136 80//80
f 25//25 109//109 73//73
f 73//73 80//80 25//25
f 73//73 109//109 178//178
f 178//178 136//136 73//73
f 24//24 23//23 22//22
f 5//5 256//256 22//22
f 177//177 129//129 174//174
f 128//128 64//64 174//174
f 174//174 64//64 177//177
f 174//174 65//65 128//128
f 174//174 129//129 65//65
f 248//248 244//244 177//177
f 248//248 180//180 251//251
f 177//177 180//180 248//248
f 251//251 250//250 248//248
f 250//250 249//249 248//248
f 247//247 244//244 248//248
f 248//248 249//249 247//247
f 125//125 106//106 167//167
f 165//165 238//238 226//226
f 226//226 225//225 165//165
f 225//225 162//162 165//165
f 69//69 161//161 123//123
f 123//123 162//162 69//69
f 161//161 162//162 123//123
f 57//57 104//104 102//102
f 102//102 56//56 57//57
f 53//53 52//52 47//47
f 47//47 45//45 53//53
f 53//53 46//46 54//54
f 53//53 45//45 46//46
f 99//99 52//52 53//53
f 53//53 121//121 99//99
f 53//53 158//158 121//121
f 309//309 308//308 287//287
f 288//288 310//310 309//309
f 309//309 287//287 288//288
f 307//307 306//306 285//285
f 285//285 286//286 307//307
f 286//286 308//308 307//307
f 300//300 278//278 302//302
f 300//300 279//279 278//278
f 131//131 78//78 176//176
f 176//176 74//74 131//131
f 131//131 74//74 78//78
f 196//196 199//199 197//197
f 194//194 146//146 197//197
f 197//197 146//146 34//34
f 147//147 115//115 36//36
f 196//196 115//115 147//147
f 36//36 199//199 147//147
f 147//147 199//199 196//196
f 116//116 36//36 38//38
f 220//220 199//199 201//201
f 201//201 219//219 220//220
f 220//220 219//219 242//242
f 40//40 150//150 90//90
f 90//90 118//118 40//40
f 150//150 118//118 90//90
f 142//142 193//193 29//29
f 29//29 85//85 142//142
f 142//142 192//192 193//193
f 5//5 61//61 8//8
f 61//61 7//7 8//8
f 8//8 7//7 255//255
f 8//8 256//256 5//5
f 8//8 255//255 256//256
f 95//95 252//252 253//253
f 253//253 254//254 95//95
f 252//252 18//18 253//253
f 253//253 18//18 19//19
f 19//19 21//21 253//253
f 21//21 254//254 253//253
f 256//256 254//254 20//20
f 20//20 22//22 256//256
f 20//20 254//254 21//21
f 20//20 21//21 24//24
f 24//24 22//22 20//20
f 57//57 106//106 71//71
f 71//71 125//125 57//57
f 106//106 125//125 71//71
f 163//163 162//162 161//161
f 163//163 165//165 162//162
f 163//163 161//161 69//69
f 239//239 238//238 168//168
f 238//238 165//165 168//168
f 168//168 171//171 239//239
f 167//167 171//171 168//168
f 164//164 166//166 168//168
f 168//168 165//165 164//164
f 168//168 125//125 167//167
f 57//57 125//125 168//168
f 124//124 102//102 164//164
f 164//164 165//165 124//124
f 124//124 165//165 56//56
f 279//279 300//300 301//301
f 277//277 279//279 301//301
f 301//301 299//299 277//277
f 144//144 194//194 195//195
f 194//194 197//197 195//195
f 193//193 192//192 195//195
f 217//217 193//193 195//195
f 31//31 144//144 195//195
f 195//195 85//85 31//31
f 192//192 85//85 195//195
f 88//88 116//116 38//38
f 201//201 199//199 198//198
f 116//116 88//88 198//198
f 145//145 85//85 192//192
f 192//192 142//142 145//145
f 145//145 142//142 85//85
f 103//103 163//163 69//69
f 103//103 69//69 55//55
f 55//55 56//56 103//103
f 56//56 102//102 70//70
f 70//70 124//124 56//56
f 102//102 124//124 70//70
f 201//201 198//198 148//148
f 148//148 198//198 88//88
f 38//38 201//201 148//148
f 148//148 88//88 38//38
f 218//218 195//195 197//197
f 197//197 222//222 218//218
f 217//217 195//195 218//218
f 218//218 260//260 217//217
f 218//218 259//259 260//260
f 242//242 259//259 218//218
f 218//218 222//222 242//242
f 221//221 220//220 242//242
f 242//242 222//222 221//221
f 199//199 220//220 221//221
f 221//221 197//197 199//199
f 221//221 222//222 197//197
f 210//210 243//243 208//208
f 210//210 242//242 243//243
f 243//243 242//242 241//241
f 241//241 242//242 207//207
f 376//376 241//241 375//375
f 243//243 241//241 376//376
f 370//370 369//369 1//1
f 1//1 152//152 370//370
f 326//326 384//384 385//385
f 385//385 325//325 326//326
f 208//208 243//243 385//385
f 385//385 384//384 208//208
f 373//373 375//375 91//91
f 207//207 206//206 91//91
f 91//91 241//241 207//207
f 375//375 241//241 91//91
f 41//41 92//92 91//91
f 91//91 206//206 41//41
f 91//91 374//374 373//373
f 93//93 374//374 91//91
f 95//95 93//93 91//91
f 91//91 92//92 95//95
f 152//152 1//1 97//97
f 151//151 152//152 97//97
f 373//373 374//374 289//289
f 289//289 288//288 373//373
f 4//4 93//93 95//95
f 95//95 3//3 4//4
f 93//93 4//4 387//387
f 387//387 4//4 388//388
f 319//319 321//321 318//318
f 317//317 369//369 319//319
f 319//319 318//318 317//317
f 319//319 369//369 370//370
f 293//293 294//294 343//343
f 343//343 344//344 293//293
f 326//326 325//325 343//343
f 325//325 344//344 343//343
f 331//331 387//387 388//388
f 332//332 387//387 331//331
f 331//331 339//339 332//332
f 338//338 339//339 331//331
f 26//26 189//189 111//111
f 111//111 189//189 185//185
f 77//77 133//133 179//179
f 77//77 179//179 76//76
f 155//155 156//156 52//52
f 99//99 155//155 52//52
f 316//316 339//339 338//338
f 338//338 348//348 316//316
f 318//318 321//321 337//337
f 337//337 335//335 318//318
f 107//107 173//173 170//170
f 59//59 173//173 107//107
f 201//201 117//117 200//200
f 38//38 117//117 201//201
f 41//41 206//206 96//96
f 206//206 204//204 96//96
f 205//205 40//40 96//96
f 96//96 204//204 205//205
f 224//224 250//250 251//251
f 212//212 250//250 224//224
f 110//110 186//186 184//184
f 27//27 186//186 110//110
f 112//112 28//28 191//191
f 112//112 191//191 188//188
f 108//108 60//60 244//244
f 244//244 172//172 108//108
f 60//60 129//129 244//244
f 162//162 101//101 55//55
f 159//159 101//101 162//162
f 98//98 153//153 154//154
f 98//98 154//154 51//51
f 157//157 160//160 54//54
f 54//54 100//100 157//157
f 279//279 376//376 375//375
f 279//279 277//277 376//376
f 29//29 193//193 113//113
f 113//113 193//193 190//190
f 171//171 105//105 58//58
f 169//169 105//105 171//171
f 106//106 105//105 169//169
f 169//169 167//167 106//106
f 118//118 202//202 203//203
f 118//118 203//203 39//39
f 25//25 137//137 187//187
f 178//178 109//109 187//187
f 187//187 109//109 25//25
f 22//22 23//23 62//62
f 22//22 62//62 5//5
f 104//104 166//166 102//102
f 102//102 166//166 164//164
f 54//54 160//160 53//53
f 160//160 158//158 53//53
f 197//197 115//115 196//196
f 34//34 115//115 197//197
f 168//168 166//166 104//104
f 168//168 104//104 57//57
f 315//315 316//316 301//301
f 301//301 294//294 293//293
f 310//310 312//312 301//301
f 301//301 314//314 315//315
f 358//358 359//359 301//301
f 301//301 361//361 362//362
f 301//301 349//349 350//350
f 362//362 363//363 301//301
f 306//306 307//307 301//301
f 347//347 294//294 301//301
f 365//365 367//367 301//301
f 355//355 354//354 301//301
f 293//293 295//295 301//301
f 301//301 353//353 355//355
f 301//301 366//366 365//365
f 301//301 359//359 360//360
f 301//301 357//357 358//358
f 302//302 303//303 301//301
f 350//350 351//351 301//301
f 312//312 311//311 301//301
f 301//301 305//305 306//306
f 301//301 297//297 298//298
f 301//301 368//368 347//347
f 364//364 366//366 301//301
f 301//301 363//363 364//364
f 356//356 357//357 301//301
f 301//301 354//354 356//356
f 348//348 349//349 301//301
f 301//301 351//351 352//352
f 352//352 353//353 301//301
f 301//301 295//295 296//296
f 298//298 299//299 301//301
f 301//301 304//304 305//305
f 301//301 313//313 314//314
f 301//301 316//316 348//348
f 301//301 367//367 368//368
f 360//360 361//361 301//301
f 301//301 309//309 310//310
f 296//296 297//297 301//301
f 301//301 303//303 304//304
f 301//301 311//311 313//313
f 308//308 309//309 301//301
f 301//301 307//307 308//308
f 301//301 300//300 302//302
f 36//36 116//116 198//198
f 198//198 199//199 36//36
f 165//165 163//163 103//103
f 56//56 165//165 103//103

