# https://github.com/mikedh/trimesh
v 5.92791414 1.98041403 8.39999962
v 5.74887800 2.45188832 8.39999962
v 5.53356934 2.90556121 8.39999962
v 5.28233433 3.34059906 8.39999962
v -5.27771378 3.34786057 8.39999962
v -5.52992392 2.91250229 8.39999962
v -5.74622440 2.45805907 8.39999962
v -5.92624426 1.98540127 8.39999962
v 6.07731199 1.45903349 11.30000019
v 5.94410324 1.93135619 11.30000019
v 5.77424717 2.39177155 11.30000019
v 5.56879091 2.83744073 11.30000019
v 4.99702358 3.75381112 8.39999962
v 5.05635643 3.67365789 11.30000019
v -4.99177933 3.76081586 8.39999962
v 4.67818975 4.14447927 8.39999962
v 4.75253725 4.05905008 11.30000019
v -4.67266083 4.15070724 8.39999962
v 4.32959032 4.50733566 8.39999962
v 4.41941738 4.41941738 11.30000019
v -4.32409286 4.51264048 8.39999962
v 3.95232964 4.84163189 8.39999962
v 4.10306052 4.64713008 11.44936418
v -3.94705749 4.84593725 8.39999962
v 3.55022907 5.14368725 8.39999962
v 3.67365789 5.05635643 11.30000019
v -3.54501557 5.14728022 8.39999962
v 3.12517190 5.41255569 8.39999962
v 3.26561809 5.32899992 11.29999998
v -3.11988997 5.41560173 8.39999962
v 2.68008065 5.64614201 8.39999962
v 2.83744073 5.56879091 11.30000019
v -2.67450404 5.64877319 8.39999962
v 2.21805048 5.84316826 8.39999962
v -2.21213293 5.84541082 8.39999962
v 1.74087024 6.00258875 8.39999962
v -1.73466742 6.00438070 8.39999962
v 1.25316238 6.12304831 8.39999962
v 1.45903326 6.07731207 11.30000017
v -1.24676454 6.12435627 8.39999962
v 0.75603938 6.20404387 8.39999962
v -0.74957156 6.20483065 8.39999962
v 0.25517264 6.24474478 8.39999962
v -0.24867463 6.24500656 8.39999962
v -0.00000544 6.25000025 11.29999994
v -0.97772215 6.17305157 11.29999996
v -1.45904312 6.07731012 11.29999989
v -1.93136497 5.94410081 11.29999991
v -2.83744623 5.56878841 11.30000000
v -3.39431257 5.17673165 11.45103325
v -3.67366514 5.05635167 11.29999978
v -4.05906828 4.75252272 11.29999942
v -4.75253725 4.05905008 11.30000019
v -5.05635643 3.67365789 11.30000019
v -5.33839602 3.12729516 11.45810613
v -5.56879091 2.83744073 11.30000019
v -5.77424717 2.39177155 11.30000019
v -5.94410324 1.93135619 11.30000019
v -6.07731199 1.45903349 11.30000019
v 6.07790145 -1.48441289 11.49997147
v 6.03114986 0.47636333 11.50000000
v 5.97537136 0.94730133 11.50000000
v 5.88242626 1.41384208 11.50000000
v 5.34924981 3.12747033 11.44657106
v 2.49448154 5.66659007 11.45145632
v 0.90215815 6.13238118 11.43103894
v -1.19227537 5.99204717 11.50047828
v -5.88242149 1.41386175 11.50000000
v -5.97536898 0.94731539 11.50000000
v -6.03114939 0.47637087 11.50000000
v 9.50000000 -11.50000000 10.80000019
v 9.42658520 -11.03647423 10.80000019
v 9.48153210 -11.26534843 10.80000019
v -9.42658520 -11.03647423 10.80000019
v -9.48153210 -11.26534843 10.80000019
v -9.50000000 -11.50000000 10.80000019
v -9.28522301 -13.59298992 11.00000000
v -9.29609013 -13.54768658 11.00000000
v -9.23087775 -13.69296808 11.00000070
v -9.26713276 -13.63639545 11.00000000
v -9.17646217 -13.74260998 11.00000000
v -9.29475021 -11.38505745 11.00000000
v -9.27989101 -11.27253532 11.00000000
v -9.25535965 -11.16228485 11.00000000
v 9.25535965 -11.16228485 11.00000000
v 9.26712608 -13.63640881 11.00000000
v 9.27989101 -11.27253532 11.00000000
v 9.28521919 -13.59300041 11.00000000
v 9.29475021 -11.38505745 11.00000000
v 9.30000019 -13.50000000 11.00000000
v 9.30000019 -11.50000000 11.00000000
v 9.29608822 -13.54769230 11.00000000
v 9.23086621 -13.69298183 11.00000070
v 9.17644787 -13.74262047 11.00000000
v 6.03114939 -3.97637081 11.50000000
v -9.05739547 -11.99778636 11.17359374
v -5.97537136 -4.44730139 11.50000000
v -5.88242626 -4.91384220 11.50000000
v -5.75350904 -5.37066078 11.50000000
v -5.58879280 -5.81677723 11.50000000
v -5.39009380 -6.24752617 11.50000000
v -5.15779161 -6.66219234 11.50000000
v -3.92955136 -8.10011578 11.50000000
v -4.61479298 -7.42897706 11.49999726
v -0.00059253 -13.94288298 11.31311681
v 3.92952156 -8.10014057 11.50000000
v 4.61477645 -7.42899635 11.49999726
v 5.15777254 -6.66222286 11.50000000
v 5.39007854 -6.24755573 11.50000000
v 5.58878136 -5.81680441 11.50000000
v 5.75350142 -5.37068462 11.50000000
v 5.88242149 -4.91386175 11.50000000
v 5.97536898 -4.44731522 11.50000000
v 8.39999962 -29.98041344 5.92791414
v 8.39999962 -30.45188904 5.74887800
v 8.39999962 -30.90556145 5.53356934
v 8.39999962 -31.34059906 5.28233433
v 8.39999962 -31.34786034 -5.27771378
v 8.39999962 -30.91250229 -5.52992392
v 8.39999962 -30.45805931 -5.74622440
v 8.39999962 -29.98540115 -5.92624426
v 11.30000019 -29.45903397 6.07731199
v 11.30000019 -29.93135643 5.94410324
v 11.30000019 -30.39177132 5.77424717
v 11.30000019 -30.83744049 5.56879091
v 8.39999962 -31.75381088 4.99702358
v 11.30000019 -31.67365837 5.05635643
v 8.39999962 -31.76081657 -4.99177933
v 8.39999962 -32.14447784 4.67818975
v 11.30000019 -32.05905151 4.75253725
v 8.39999962 -32.15070724 -4.67266083
v 8.39999962 -32.50733566 4.32959032
v 11.30000019 -32.41941833 4.41941738
v 8.39999962 -32.51264191 -4.32409286
v 8.39999962 -32.84163284 3.95232964
v 11.29999848 -32.75253201 4.05905829
v 8.39999962 -32.84593582 -3.94705749
v 8.39999962 -33.14368820 3.55022907
v 11.29999644 -33.05635245 3.67366711
v 8.39999962 -33.14728165 -3.54501557
v 8.39999962 -33.41255569 3.12517190
v 8.39999962 -33.41560364 -3.11988997
v 8.39999962 -33.64614105 2.68008065
v 8.39999962 -33.64877319 -2.67450404
v 8.39999962 -33.84317017 2.21805048
v 8.39999962 -33.84540939 -2.21213293
v 8.39999962 -34.00259018 1.74087024
v 11.30000019 -33.94410324 1.93135619
v 8.39999962 -34.00437927 -1.73466742
v 8.39999962 -34.12304688 1.25316238
v 11.30000019 -34.07731247 1.45903349
v 8.39999962 -34.12435532 -1.24676454
v 8.39999962 -34.20404434 0.75603938
v 11.30000019 -34.17305374 0.97771543
v 8.39999962 -34.20483017 -0.74957156
v 8.39999962 -34.24474335 0.25517264
v 8.39999962 -34.24500656 -0.24867463
v 11.29999788 -34.23073334 -0.49038367
v 11.29999996 -34.17305300 -0.97772215
v 11.29999967 -33.77423965 -2.39178940
v 11.46349282 -33.21839513 -3.27033193
v 11.29999809 -33.05634268 -3.67367776
v 11.30000019 -32.41941833 -4.41941738
v 11.30000019 -32.05905151 -4.75253725
v 11.30000019 -31.67365837 -5.05635643
v 11.30000019 -31.26561546 -5.32900095
v 11.30000019 -30.83744049 -5.56879091
v 11.30000019 -30.39177132 -5.77424717
v 11.30000019 -29.93135643 -5.94410324
v 11.30000019 -29.45903397 -6.07731199
v 11.49997147 -26.51558708 6.07790140
v 11.50000000 -28.47636414 6.03114986
v 11.50000000 -28.94730186 5.97537136
v 11.50000000 -29.41384125 5.88242626
v 11.45811744 -31.12589048 5.33918106
v 11.46330195 -33.12021077 3.42810735
v 11.45046325 -33.65421173 2.48561469
v 11.44196239 -34.17392902 0.47160339
v 11.44564341 -33.99664674 -1.44493868
v 11.50055917 -31.19617729 -5.21471789
v 11.50000000 -29.41386223 -5.88242149
v 11.50000000 -28.94731522 -5.97536898
v 11.50000000 -28.47637177 -6.03114939
v 10.80000019 -16.50000000 9.50000000
v 10.80000019 -16.96352577 9.42658520
v 10.80000019 -16.73465157 9.48153210
v 10.80000019 -16.96352577 -9.42658520
v 10.80000019 -16.73465157 -9.48153210
v 10.80000019 -16.50000000 -9.50000000
v 11.00000000 -14.50000000 -9.30000019
v 11.00000000 -16.50000000 -9.30000019
v 11.00000000 -14.40701008 -9.28522301
v 11.00000000 -14.45231342 -9.29609013
v 11.00000000 -14.36360455 -9.26713276
v 11.00000000 -14.25739002 -9.17646217
v 11.00000070 -14.30703192 -9.23087775
v 11.00000000 -16.61494255 -9.29475021
v 11.00000000 -16.72746468 -9.27989101
v 11.00000000 -16.83771515 -9.25535965
v 11.00000000 -16.83771515 9.25535965
v 11.00000000 -14.36359119 9.26712608
v 11.00000000 -16.72746468 9.27989101
v 11.00000000 -14.40699959 9.28521919
v 11.00000000 -16.61494255 9.29475021
v 11.00000000 -14.50000000 9.30000019
v 11.00000000 -16.50000000 9.30000019
v 11.00000000 -14.45230770 9.29608822
v 11.00000070 -14.30701817 9.23086621
v 11.00000000 -14.25737953 9.17644787
v 11.09204760 -12.91536963 -0.00066537
v 11.50000000 -24.02362823 6.03114939
v 11.49997147 -26.51561252 -6.07790136
v 11.50000000 -24.02363586 -6.03114986
v 11.50000000 -23.55269814 -5.97537136
v 11.50000000 -23.08615875 -5.88242626
v 11.50000000 -22.62933922 -5.75350904
v 11.50000000 -22.18322372 -5.58879280
v 11.50000000 -21.75247383 -5.39009380
v 11.50000000 -21.33780861 -5.15779161
v 11.50000000 -19.89988518 -3.92955136
v 11.49999726 -20.57102750 -4.61479685
v 11.50720509 -18.27331598 -0.18684264
v 11.50000000 -19.60582352 3.55652618
v 11.50000000 -19.89985847 3.92952156
v 11.49999902 -20.75374798 4.75667349
v 11.50000000 -20.22203255 4.27793980
v 11.50000000 -21.33777618 5.15777254
v 11.50000000 -21.75244331 5.39007854
v 11.50000000 -22.18319511 5.58878136
v 11.50000000 -22.62931442 5.75350142
v 11.50000000 -23.08613777 5.88242149
v 11.50000000 -23.55268478 5.97536898
v -9.25535965 -11.16228485 -11.00000000
v -9.42658520 -11.03647423 -10.80000019
v -9.26712608 -13.63640881 -11.00000000
v -9.27989101 -11.27253532 -11.00000000
v -9.28521919 -13.59300041 -11.00000000
v -9.29475021 -11.38505745 -11.00000000
v -9.48153210 -11.26534843 -10.80000019
v -9.30000019 -13.50000000 -11.00000000
v -9.30000019 -11.50000000 -11.00000000
v -9.29608822 -13.54769230 -11.00000000
v -9.50000000 -11.50000000 -10.80000019
v -9.23086621 -13.69298183 -11.00000070
v -9.17644787 -13.74262047 -11.00000000
v 9.17646217 -13.74260998 -11.00000000
v 9.23087775 -13.69296808 -11.00000070
v 9.25535965 -11.16228485 -11.00000000
v 9.26713276 -13.63639545 -11.00000000
v 9.27989101 -11.27253532 -11.00000000
v 9.28522301 -13.59298992 -11.00000000
v 9.29475021 -11.38505745 -11.00000000
v 9.29609013 -13.54768658 -11.00000000
v 9.30000019 -11.50000000 -11.00000000
v 9.09718783 -12.01028073 -11.15469916
v 9.50000000 -11.50000000 -10.80000019
v 9.48153210 -11.26534843 -10.80000019
v 9.42658520 -11.03647423 -10.80000019
v -6.03114939 -3.97637081 -11.50000000
v -6.07790145 -1.48441287 -11.49997147
v 6.07790140 -1.48438652 -11.49997147
v 5.97537136 -4.44730139 -11.50000000
v 5.88242626 -4.91384220 -11.50000000
v 5.75350904 -5.37066078 -11.50000000
v 5.58879280 -5.81677723 -11.50000000
v 5.39009380 -6.24752617 -11.50000000
v 5.15779161 -6.66219234 -11.50000000
v 4.61479298 -7.42897706 -11.49999726
v 3.92955136 -8.10011578 -11.50000000
v 0.00059416 -13.92836298 -11.31376761
v -3.92952156 -8.10014057 -11.50000000
v -4.61477645 -7.42899635 -11.49999726
v -5.15777254 -6.66222286 -11.50000000
v -5.39007854 -6.24755573 -11.50000000
v -5.58878136 -5.81680441 -11.50000000
v -5.75350142 -5.37068462 -11.50000000
v -5.88242149 -4.91386175 -11.50000000
v -5.97536898 -4.44731522 -11.50000000
v 0.49036882 6.23073347 11.30000015
v 0.49036935 6.23073339 -11.30000019
v -0.00000000 6.25000000 -11.30000019
v -0.49036935 6.23073339 -11.30000019
v 0.97771543 6.17305231 -11.30000019
v 1.45903349 6.07731199 -11.30000019
v 1.93135297 5.94410451 11.29999994
v 1.93135619 5.94410324 -11.30000019
v 2.39177155 5.77424717 -11.30000019
v 2.83744073 5.56879091 -11.30000019
v 0.24378814 6.20495886 -11.50326619
v 3.26561594 5.32900095 -11.30000019
v 2.74752641 5.39009380 -11.50000000
v 3.67365789 5.05635643 -11.30000019
v 4.05905008 4.75253725 -11.30000019
v 4.41942406 4.41941071 -7.50001526
v 4.41941738 4.41941738 -11.30000019
v 4.75254440 4.05904198 -7.50001526
v 4.75253725 4.05905008 -11.30000019
v 5.05636311 3.67364836 -7.50001526
v 5.05635643 3.67365789 -11.30000019
v 5.32900095 3.26561594 -11.30000019
v 5.56879616 2.83742976 -7.50001526
v 5.56879091 2.83744073 -11.30000019
v 5.77425146 2.39176059 -7.50001526
v 5.77424717 2.39177155 -11.30000019
v 5.94410324 1.93135619 -11.30000019
v 4.86093351 3.83225720 -11.50240669
v 6.07731199 1.45903349 -11.30000019
v 5.88242149 1.41386175 -11.50000000
v 5.97536898 0.94731539 -11.50000000
v 6.03114939 0.47637087 -11.50000000
v -0.49037182 6.23073334 11.30000009
v -0.97771543 6.17305231 -11.30000019
v -1.45903349 6.07731199 -11.30000019
v -1.93135619 5.94410324 -11.30000019
v -2.39177155 5.77424717 -11.30000019
v -2.39178156 5.77424350 11.29999989
v -2.83744073 5.56879091 -11.30000019
v -3.26561594 5.32900095 -11.30000019
v -3.67365789 5.05635643 -11.30000019
v -4.05905008 4.75253725 -11.30000019
v -4.41941738 4.41941738 -11.30000019
v -4.41942849 4.41940716 11.29999956
v -4.75253725 4.05905008 -11.30000019
v -4.75255966 4.05902386 -7.50001526
v -5.05635643 3.67365789 -11.30000019
v -5.05637598 3.67363095 -7.50001526
v -5.32900095 3.26561594 -11.30000019
v -5.56879091 2.83744073 -11.30000019
v -5.56880379 2.83741498 -7.50001526
v -5.77424717 2.39177155 -11.30000019
v -5.77425671 2.39174771 -7.50001526
v -5.94410324 1.93135619 -11.30000019
v -6.07731199 1.45903349 -11.30000019
v -6.03114986 0.47636333 -11.50000000
v -5.97537136 0.94730133 -11.50000000
v -5.88242626 1.41384208 -11.50000000
v -5.48576316 2.60447691 -11.50009222
v -3.80023681 4.82006861 -11.50094155
v -11.00000000 -16.83771515 -9.25535965
v -10.80000019 -16.96352577 -9.42658520
v -11.00000000 -14.36359119 -9.26712608
v -11.00000000 -16.72746468 -9.27989101
v -11.00000000 -14.40699959 -9.28521919
v -11.00000000 -16.61494255 -9.29475021
v -10.80000019 -16.73465157 -9.48153210
v -11.00000000 -14.50000000 -9.30000019
v -11.00000000 -16.50000000 -9.30000019
v -11.00000000 -14.45230770 -9.29608822
v -10.80000019 -16.50000000 -9.50000000
v -11.00000070 -14.30701817 -9.23086621
v -11.00000000 -14.25737953 -9.17644787
v -11.00000000 -14.25739002 9.17646217
v -11.00000070 -14.30703192 9.23087775
v -11.00000000 -16.83771515 9.25535965
v -11.00000000 -14.36360455 9.26713276
v -11.00000000 -16.72746468 9.27989101
v -11.00000000 -14.40701008 9.28522301
v -11.00000000 -16.61494255 9.29475021
v -11.00000000 -14.45231342 9.29609013
v -11.00000000 -16.50000000 9.30000019
v -11.00000000 -14.50000000 9.30000019
v -10.80000019 -16.50000000 9.50000000
v -10.80000019 -16.73465157 9.48153210
v -10.80000019 -16.96352577 9.42658520
v -11.50000000 -24.02362823 -6.03114939
v -11.49997147 -26.51558708 -6.07790140
v -11.49997147 -26.51561252 6.07790136
v -11.50000000 -24.02363586 6.03114986
v -11.50000000 -23.55269814 5.97537136
v -11.50000000 -23.08615875 5.88242626
v -11.50000000 -22.62933922 5.75350904
v -11.50000000 -22.18322372 5.58879280
v -11.50000000 -21.75247383 5.39009380
v -11.50000000 -21.33780861 5.15779161
v -11.50000000 -19.89988518 3.92955136
v -11.49999726 -20.57102750 4.61479685
v -11.31355904 -14.06714136 0.00059341
v -11.50000000 -19.89985847 -3.92952156
v -11.49999726 -20.57100369 -4.61477683
v -11.50000000 -21.33777618 -5.15777254
v -11.50000000 -21.75244331 -5.39007854
v -11.50000000 -22.18319511 -5.58878136
v -11.50000000 -22.62931442 -5.75350142
v -11.50000000 -23.08613777 -5.88242149
v -11.50000000 -23.55268478 -5.97536898
v -11.30000019 -34.23073196 0.49036935
v -11.30000019 -34.25000000 0.00000000
v 11.29999994 -34.25000025 -0.00000544
v -11.30000019 -34.23073196 -0.49036935
v -11.30000019 -34.17305374 0.97771543
v -11.30000019 -34.07731247 1.45903349
v -11.50082638 -34.11149616 -0.48095633
v -11.30000019 -33.94410324 1.93135619
v -11.30000019 -33.77424622 2.39177155
v 11.30000003 -33.56879040 2.83744115
v -11.30000019 -33.56879044 2.83744073
v -11.30000019 -33.32900238 3.26561594
v -11.30000019 -33.05635452 3.67365789
v -11.50022220 -33.59483228 2.39637762
v -11.30000019 -32.75253677 4.05905008
v -11.50000000 -32.89417648 3.55652618
v -11.30000019 -32.41941833 4.41941738
v -7.50001526 -32.05904388 4.75254440
v -11.30000019 -32.05905151 4.75253725
v -7.50001526 -31.67364883 5.05636311
v -11.30000019 -31.67365837 5.05635643
v -11.30000019 -31.26561546 5.32900095
v -11.30000019 -30.83744049 5.56879091
v -7.50001526 -30.39175987 5.77425146
v -11.30000019 -30.39177132 5.77424717
v -11.30000019 -29.93135643 5.94410324
v -11.50120289 -31.47881638 5.06632931
v -11.30000019 -29.45903397 6.07731199
v -11.50000000 -29.41386223 5.88242149
v -11.50000000 -28.94731522 5.97536898
v -11.50000000 -28.47637177 6.03114939
v -11.30000019 -34.17305374 -0.97771543
v -11.30000019 -34.07731247 -1.45903349
v -11.30000019 -33.94410324 -1.93135619
v 11.29999844 -33.94409886 -1.93137621
v -11.30000019 -33.77424622 -2.39177155
v -11.30000019 -33.56879044 -2.83744073
v 11.30000000 -33.56878794 -2.83744623
v -11.30000019 -33.32900238 -3.26561594
v -11.30000019 -33.05635452 -3.67365789
v -11.30000019 -32.75253677 -4.05905008
v 11.29999942 -32.75252224 -4.05906828
v -11.30000019 -32.41941833 -4.41941738
v -11.30000019 -32.05905151 -4.75253725
v -7.50001526 -32.05902481 -4.75255966
v -11.30000019 -31.67365837 -5.05635643
v -7.50001526 -31.67363167 -5.05637598
v -11.30000019 -31.26561546 -5.32900095
v -7.50001526 -31.26558876 -5.32901764
v -11.30000019 -30.83744049 -5.56879091
v -7.50001526 -30.83741570 -5.56880379
v -11.30000019 -30.39177132 -5.77424717
v -7.50001526 -30.39174843 -5.77425671
v -11.30000019 -29.93135643 -5.94410324
v -11.30000019 -29.45903397 -6.07731199
v -11.50000000 -28.47636414 -6.03114986
v -11.50000000 -28.94730186 -5.97537136
v -11.50000000 -29.41384125 -5.88242626
v -11.50009222 -30.60447296 -5.48576469
v -11.50094150 -32.82007140 -3.80023409
vn 0.94337708 0.33172229 0.00001617
vn 0.91384165 0.40607073 0.00001923
vn 0.84234415 0.53893779 0.00154902
vn 0.89720199 0.44161930 0.00098833
vn -0.90412677 0.42726269 0.00117547
vn -0.83419888 0.55146069 0.00182949
vn -0.91361229 0.40658650 0.00002082
vn -0.94324117 0.33210856 0.00001762
vn 0.84372651 0.22735146 0.48624777
vn 0.86220744 0.29660087 0.41064127
vn 0.86399575 0.34391199 0.36774432
vn 0.85659677 0.47018733 0.21252257
vn 0.79226782 0.61017351 0.00002739
vn 0.77225325 0.55263938 0.31339213
vn -0.79190612 0.61064285 0.00002938
vn 0.74140423 0.67105869 0.00003072
vn 0.71583375 0.59432675 0.36654843
vn -0.74095810 0.67155126 0.00003220
vn 0.62863246 0.77770111 0.00148877
vn 0.67403066 0.70799123 0.21078681
vn -0.68524908 0.72830879 0.00003389
vn 0.69998488 0.71415686 0.00107516
vn 0.44897225 0.52545061 0.72272096
vn -0.62531547 0.78037207 0.00003633
vn 0.56171761 0.82732903 0.00003657
vn 0.56392371 0.76876020 0.30165844
vn -0.43672109 0.89959331 0.00256366
vn 0.49433011 0.86927426 0.00003874
vn 0.49709836 0.78660670 0.36625554
vn -0.56511239 0.82501313 0.00115088
vn 0.30986342 0.95077873 0.00211458
vn 0.41216288 0.88499153 0.21659121
vn -0.42322449 0.90602485 0.00004003
vn 0.43116157 0.90227392 0.00121004
vn -0.35002248 0.93674130 0.00004157
vn 0.27494329 0.96146045 0.00004154
vn -0.27445273 0.96160059 0.00004190
vn 0.13055622 0.99144020 0.00118448
vn 0.20928284 0.93293286 0.29297948
vn -0.19727506 0.98034818 0.00004285
vn 0.24799073 0.96876085 0.00173440
vn -0.11872023 0.99292774 0.00004298
vn 0.04003663 0.99919821 0.00004321
vn -0.03952190 0.99921870 0.00004326
vn 0.00999883 0.88555127 0.46443402
vn -0.14072639 0.93904217 0.31368117
vn -0.22934347 0.92144447 0.31359474
vn -0.29591258 0.87462967 0.38400350
vn -0.42099232 0.82633168 0.37408746
vn -0.36439433 0.59427397 0.71697645
vn -0.53795648 0.81778087 0.20454162
vn -0.61724816 0.70266776 0.35392474
vn -0.67978569 0.59572885 0.42778330
vn -0.78451801 0.54842170 0.28942206
vn -0.58634889 0.36810897 0.72158906
vn -0.85128582 0.47686588 0.21888670
vn -0.86453350 0.34426569 0.36614609
vn -0.86362572 0.29518288 0.40867797
vn -0.84372671 0.22735108 0.48624760
vn 0.08294007 0.00166540 0.99655315
vn 0.13104924 0.01489592 0.99126394
vn 0.25697865 0.05067242 0.96508771
vn 0.37062248 0.10515420 0.92281177
vn 0.58741989 0.37041256 0.71953625
vn 0.25841419 0.63515181 0.72787656
vn 0.10640598 0.68934054 0.71658034
vn -0.07984376 0.44789674 0.89051305
vn -0.30388160 0.08885489 0.94855721
vn -0.25698660 0.05067470 0.96508547
vn -0.12894574 0.01602827 0.99152211
vn 0.73201772 0.03678945 0.68029155
vn 0.84353439 0.20577109 0.49609273
vn 0.79189350 0.14981093 0.59199777
vn -0.84353439 0.20577110 0.49609271
vn -0.79189347 0.14981094 0.59199781
vn -0.71968379 0.01629007 0.69411086
vn -0.32232622 -0.09464420 0.94188549
vn -0.45188351 -0.01409208 0.89196564
vn -0.20301078 -0.15297815 0.96715268
vn -0.26650051 -0.12761882 0.95534858
vn -0.10919124 -0.19020918 0.97565247
vn -0.59400542 0.04477158 0.80321421
vn -0.51357667 0.08593989 0.85372908
vn -0.67214624 0.15077212 0.72490496
vn 0.67214636 0.15077215 0.72490484
vn 0.26648913 -0.12762554 0.95535086
vn 0.51357671 0.08593990 0.85372906
vn 0.32231913 -0.09464970 0.94188737
vn 0.47266737 0.03793362 0.88042410
vn 0.43955263 -0.01071593 0.89815291
vn 0.45708483 0.00901988 0.88937737
vn 0.38996682 -0.04939567 0.91950310
vn 0.20299106 -0.15298289 0.96715607
vn 0.10917852 -0.19021020 0.97565369
vn 0.07201905 -0.00215311 0.99740093
vn -0.23160258 -0.07895280 0.96960131
vn -0.05162938 -0.00311611 0.99866145
vn -0.04849710 -0.01039555 0.99876922
vn -0.04253866 -0.01280525 0.99901276
vn -0.03787999 -0.01486477 0.99917173
vn -0.03410902 -0.01670944 0.99927842
vn -0.03087034 -0.01878415 0.99934688
vn 0.01412138 -0.01554332 0.99977947
vn -0.02691313 -0.02228908 0.99938925
vn -0.00041803 -0.17408248 0.98473099
vn 0.01435575 -0.02908932 0.99947372
vn 0.02691133 -0.02228885 0.99938931
vn 0.03087230 -0.01878517 0.99934680
vn 0.03410879 -0.01670957 0.99927843
vn 0.03787972 -0.01486489 0.99917174
vn 0.04253844 -0.01280536 0.99901276
vn 0.04849689 -0.01039564 0.99876923
vn 0.05656855 -0.00738503 0.99837140
vn 0.00004322 -0.33414991 0.94251994
vn 0.00001923 -0.40606859 0.91384260
vn 0.00181342 -0.54937485 0.83557405
vn 0.00114839 -0.42236083 0.90642706
vn 0.00002760 -0.54566908 -0.83800075
vn 0.00002503 -0.47727587 -0.87875352
vn 0.00002084 -0.40658547 -0.91361275
vn 0.00001763 -0.33210948 -0.94324085
vn 0.48624768 -0.22735159 0.84372652
vn 0.40861840 -0.29518413 0.86365348
vn 0.36572659 -0.34432449 0.86468763
vn 0.21834371 -0.47728369 0.85119111
vn 0.00002739 -0.61017409 0.79226736
vn 0.28994467 -0.54840802 0.78433458
vn 0.00002938 -0.61064192 -0.79190684
vn 0.00003070 -0.67106343 0.74139994
vn 0.42814961 -0.59560735 0.67966153
vn 0.00003222 -0.67155441 -0.74095525
vn 0.00003240 -0.72794135 0.68563940
vn 0.45214965 -0.62605065 0.63531196
vn 0.00003391 -0.72830825 -0.68524966
vn 0.00003516 -0.78003863 0.62573137
vn 0.36484121 -0.69993326 0.61399049
vn 0.00003627 -0.78037233 -0.62531514
vn 0.00483839 -0.94798175 0.31828790
vn 0.22866132 -0.84362563 0.48580839
vn 0.00252184 -0.89648498 -0.44306695
vn 0.00152245 -0.81037298 0.58591237
vn 0.00204092 -0.77126777 -0.63650756
vn 0.00260568 -0.95922761 0.28262271
vn 0.00004002 -0.90602463 -0.42322496
vn 0.00148652 -0.89285971 0.45033247
vn 0.00004151 -0.93674009 -0.35002571
vn 0.00004156 -0.96145978 0.27494561
vn 0.32084440 -0.89324309 0.31492165
vn 0.00207645 -0.98816180 -0.15340123
vn 0.00004253 -0.98024576 0.19778332
vn 0.38316568 -0.89718923 0.21962591
vn 0.00211555 -0.93800973 -0.34660248
vn 0.00145724 -0.99956089 0.02959559
vn 0.27227077 -0.95330875 0.13065626
vn 0.00004291 -0.99292793 -0.11871868
vn 0.00159550 -0.98864354 0.15027113
vn 0.00004321 -0.99921874 -0.03952102
vn 0.41263083 -0.90707378 -0.08338433
vn 0.33377192 -0.92634728 -0.17457671
vn 0.38999221 -0.85062846 -0.35261495
vn 0.74225403 -0.57515461 -0.34388389
vn 0.28015483 -0.80620927 -0.52109488
vn 0.46308481 -0.62667202 -0.62676522
vn 0.41890480 -0.59800419 -0.68330795
vn 0.33569039 -0.56239673 -0.75565990
vn 0.28827843 -0.50028263 -0.81646362
vn 0.33575591 -0.41792237 -0.84416163
vn 0.41889319 -0.33730759 -0.84306114
vn 0.41975794 -0.29957063 -0.85677343
vn 0.48624716 -0.22735122 -0.84372692
vn 0.99655103 -0.00166007 0.08296559
vn 0.99126359 -0.01489916 0.13105156
vn 0.96508722 -0.05067291 0.25698036
vn 0.93015076 -0.10318291 0.35238169
vn 0.72784825 -0.36266685 0.58198770
vn 0.75312745 -0.57048315 0.32764009
vn 0.73559394 -0.63090857 0.24668993
vn 0.72526078 -0.68633971 0.05417201
vn 0.73636346 -0.65869196 -0.15457606
vn 0.87802174 -0.25377857 -0.40580076
vn 0.92137225 -0.10100873 -0.37532708
vn 0.96508570 -0.05067447 -0.25698578
vn 0.99126341 -0.01489812 -0.13105306
vn 0.68029155 -0.03678945 0.73201772
vn 0.49609267 -0.20577110 0.84353442
vn 0.59199777 -0.14981093 0.79189350
vn 0.49609266 -0.20577110 -0.84353443
vn 0.59199781 -0.14981094 -0.79189347
vn 0.68019283 -0.03652051 -0.73212292
vn 0.89815120 0.01071233 -0.43955622
vn 0.88937737 -0.00901988 -0.45708483
vn 0.94188549 0.09464420 -0.32232622
vn 0.91949788 0.04938685 -0.38998025
vn 0.95534858 0.12761882 -0.26650051
vn 0.97603458 0.18734479 -0.11071777
vn 0.96715268 0.15297815 -0.20301078
vn 0.88042410 -0.03793362 -0.47266737
vn 0.85372908 -0.08593989 -0.51357667
vn 0.72490493 -0.15077213 -0.67214627
vn 0.72490490 -0.15077213 0.67214630
vn 0.95535086 0.12762555 0.26648913
vn 0.85372905 -0.08593990 0.51357671
vn 0.94188737 0.09464970 0.32231913
vn 0.88042410 -0.03793362 0.47266737
vn 0.89815291 0.01071593 0.43955263
vn 0.88937737 -0.00901988 0.45708483
vn 0.91950310 0.04939567 0.38996682
vn 0.96715564 0.15298425 0.20299209
vn 0.97604453 0.18734165 0.11063531
vn 0.97926929 0.20256262 0.00018541
vn 0.99740181 0.00215016 0.07200703
vn 0.99655298 -0.00166263 -0.08294217
vn 0.99740108 0.00215174 -0.07201700
vn 0.99837139 0.00738493 -0.05656882
vn 0.99876923 0.01039556 -0.04849705
vn 0.99901276 0.01280524 -0.04253870
vn 0.99917173 0.01486476 -0.03787996
vn 0.99927842 0.01670944 -0.03410905
vn 0.99934678 0.01878497 -0.03087293
vn 0.99933736 0.03023302 -0.02026816
vn 0.99938928 0.02228953 -0.02691165
vn 0.99907079 0.04308774 -0.00100446
vn 0.99921319 0.03486615 0.01890388
vn 0.99944754 0.02529536 0.02155848
vn 0.99939435 0.02117732 0.02761244
vn 0.99945999 0.02260229 0.02385070
vn 0.99934900 0.01859830 0.03091391
vn 0.99927843 0.01670956 0.03410881
vn 0.99917174 0.01486489 0.03787971
vn 0.99901276 0.01280536 0.04253846
vn 0.99876923 0.01039564 0.04849690
vn 0.99837141 0.00738504 0.05656853
vn -0.67214636 0.15077215 -0.72490484
vn -0.84353439 0.20577109 -0.49609273
vn -0.26648913 -0.12762554 -0.95535086
vn -0.51357671 0.08593990 -0.85372906
vn -0.32231913 -0.09464970 -0.94188737
vn -0.47266737 0.03793362 -0.88042410
vn -0.79189350 0.14981093 -0.59199777
vn -0.43955263 -0.01071593 -0.89815291
vn -0.45708483 0.00901988 -0.88937737
vn -0.38996682 -0.04939567 -0.91950310
vn -0.73201772 0.03678945 -0.68029155
vn -0.20299106 -0.15298289 -0.96715607
vn -0.10907093 -0.19028787 -0.97565058
vn 0.10908364 -0.19028685 -0.97564936
vn 0.20301078 -0.15297815 -0.96715268
vn 0.67214624 0.15077212 -0.72490496
vn 0.26650051 -0.12761882 -0.95534858
vn 0.51357667 0.08593989 -0.85372908
vn 0.32232622 -0.09464420 -0.94188549
vn 0.47266736 0.03793362 -0.88042410
vn 0.44293383 -0.02010450 -0.89632886
vn 0.59334228 0.02418176 -0.80458696
vn 0.26930971 -0.05846598 -0.96127728
vn 0.72632598 0.02552801 -0.68687618
vn 0.79189347 0.14981094 -0.59199781
vn 0.84353439 0.20577110 -0.49609271
vn -0.07201970 -0.00215397 -0.99740088
vn -0.08294197 0.00166740 -0.99655298
vn 0.00038040 -0.03552863 -0.99936859
vn 0.24343965 0.07483576 -0.96702469
vn 0.04849710 -0.01039555 -0.99876922
vn 0.04253866 -0.01280525 -0.99901276
vn 0.03787999 -0.01486477 -0.99917173
vn 0.03410902 -0.01670944 -0.99927842
vn 0.03087145 -0.01878475 -0.99934683
vn 0.02691226 -0.02228860 -0.99938929
vn 0.00262604 -0.02510508 -0.99968137
vn 0.00018251 -0.17316298 -0.98489317
vn -0.00996530 -0.02815664 -0.99955385
vn -0.02691160 -0.02228866 -0.99938930
vn -0.03087187 -0.01878511 -0.99934681
vn -0.03410879 -0.01670957 -0.99927843
vn -0.03787972 -0.01486489 -0.99917174
vn -0.04253844 -0.01280536 -0.99901276
vn -0.04849689 -0.01039564 -0.99876923
vn -0.05656855 -0.00738503 -0.99837140
vn 0.07073803 0.94215553 0.32762644
vn 0.08829771 0.98875850 -0.12066543
vn -0.01044792 0.99263839 -0.12066425
vn -0.09048271 0.96719445 -0.23737685
vn 0.16608962 0.95711518 -0.23737053
vn 0.22871420 0.89805527 -0.37574799
vn 0.31036455 0.90400537 0.29402064
vn 0.28012231 0.82989858 -0.48249336
vn 0.32634488 0.76835422 -0.55057317
vn 0.40064325 0.82856980 -0.39109727
vn 0.02409211 0.64395259 -0.76468597
vn 0.48843010 0.75908867 -0.43037242
vn 0.16866068 0.36520499 -0.91552110
vn 0.50346817 0.70918753 -0.49353099
vn 0.58673816 0.70568900 -0.39716668
vn 0.71773232 0.69631912 -0.00000004
vn 0.67056539 0.68995488 -0.27258820
vn 0.76758009 0.64095305 -0.00000008
vn 0.74340807 0.64814935 -0.16506626
vn 0.82339154 0.56747368 -0.00000002
vn 0.80378691 0.57154606 -0.16511118
vn 0.82742037 0.49095920 -0.27264370
vn 0.90409514 0.42733123 -0.00000001
vn 0.82314392 0.40577148 -0.39721983
vn 0.93403562 0.35717988 -0.00000002
vn 0.80712203 0.32399616 -0.49353877
vn 0.84478315 0.30764382 -0.43783183
vn 0.47736556 0.37634250 -0.79403302
vn 0.84372671 0.22735108 -0.48624760
vn 0.37475973 0.10369485 -0.92130479
vn 0.25698660 0.05067470 -0.96508547
vn 0.13104201 0.01489395 -0.99126493
vn -0.06132029 0.92123114 0.38415233
vn -0.15754781 0.91323164 -0.37574814
vn -0.21414633 0.84931774 -0.48249428
vn -0.26505094 0.79158393 -0.55058413
vn -0.31231272 0.78692790 -0.53217032
vn -0.34816844 0.81438429 0.46428112
vn -0.39733257 0.80340078 -0.44347944
vn -0.47919977 0.80503261 -0.34969998
vn -0.55937176 0.78474299 -0.26698627
vn -0.63248511 0.72713491 -0.26690337
vn -0.67095926 0.65392146 -0.34957173
vn -0.63465545 0.62567653 0.45358719
vn -0.68850243 0.57394347 -0.44334332
vn -0.77022958 0.63776673 -0.00000014
vn -0.71335307 0.52474032 -0.46451587
vn -0.81835178 0.57471764 -0.00000013
vn -0.77218527 0.48493970 -0.41056473
vn -0.82952800 0.42873156 -0.35787225
vn -0.90020632 0.43546363 -0.00000010
vn -0.86157849 0.34825346 -0.36932647
vn -0.93261189 0.36088095 -0.00000008
vn -0.86703775 0.29351716 -0.40260801
vn -0.84372651 0.22735146 -0.48624777
vn -0.13104650 0.01489467 -0.99126433
vn -0.25697865 0.05067242 -0.96508771
vn -0.37560678 0.09866383 -0.92151234
vn -0.37832492 0.18265769 -0.90747254
vn -0.31866825 0.40694644 -0.85606375
vn -0.72490490 -0.15077213 -0.67214630
vn -0.49609267 -0.20577110 -0.84353442
vn -0.95535086 0.12762555 -0.26648913
vn -0.85372905 -0.08593990 -0.51357671
vn -0.94188737 0.09464970 -0.32231913
vn -0.88042410 -0.03793362 -0.47266737
vn -0.59199777 -0.14981093 -0.79189350
vn -0.89815291 0.01071593 -0.43955263
vn -0.88937737 -0.00901988 -0.45708483
vn -0.91950310 0.04939567 -0.38996682
vn -0.68029155 -0.03678945 -0.73201772
vn -0.96715607 0.15298289 -0.20299106
vn -0.97565155 0.19026394 -0.10910397
vn -0.97565033 0.19026292 0.10911668
vn -0.96715268 0.15297815 0.20301078
vn -0.72490493 -0.15077213 0.67214627
vn -0.95534858 0.12761882 0.26650051
vn -0.85372908 -0.08593989 0.51357667
vn -0.94188549 0.09464420 0.32232622
vn -0.88042410 -0.03793362 0.47266737
vn -0.91949788 0.04938685 0.38998025
vn -0.88867779 -0.00714965 0.45847646
vn -0.89443280 0.00944171 0.44710271
vn -0.68129704 -0.03232798 0.73129286
vn -0.59199781 -0.14981094 0.79189347
vn -0.49609266 -0.20577110 0.84353443
vn -0.99740089 0.00215384 -0.07201963
vn -0.99655303 -0.00166709 -0.08294141
vn -0.99655196 -0.00166940 0.08295428
vn -0.99740085 0.00215481 0.07202008
vn -0.99837139 0.00738493 0.05656882
vn -0.99876923 0.01039556 0.04849705
vn -0.99901276 0.01280524 0.04253870
vn -0.99917173 0.01486476 0.03787996
vn -0.99927842 0.01670944 0.03410905
vn -0.99934684 0.01878467 0.03087127
vn -0.99970711 0.02418763 0.00080328
vn -0.99938928 0.02228863 0.02691240
vn -0.98487252 0.17328028 0.00023678
vn -0.99953810 0.02840611 -0.01080213
vn -0.99938931 0.02228867 -0.02691154
vn -0.99934681 0.01878513 -0.03087195
vn -0.99927843 0.01670956 -0.03410881
vn -0.99917174 0.01486489 -0.03787971
vn -0.99901276 0.01280536 -0.04253846
vn -0.99876923 0.01039564 -0.04849690
vn -0.99837141 0.00738504 -0.05656853
vn -0.40529756 -0.91040346 0.08306276
vn -0.31528261 -0.94893059 0.01129643
vn 0.26434844 -0.96419199 0.02130044
vn -0.26379615 -0.96160498 -0.07568000
vn -0.48797137 -0.86057934 0.14590113
vn -0.46714074 -0.86296984 0.19251645
vn -0.86410414 -0.50171200 -0.04011366
vn -0.38296968 -0.88165004 0.27573073
vn -0.33456819 -0.87167869 0.35810666
vn 0.23067808 -0.87177064 0.43220780
vn -0.36361194 -0.82570350 0.43127728
vn -0.43238755 -0.76337396 0.47989707
vn -0.39258865 -0.74013776 0.54595810
vn -0.89887384 -0.40361521 0.17064753
vn -0.50383931 -0.66267569 0.55408201
vn -0.91506720 -0.32103129 0.24411256
vn -0.42238675 -0.64883380 0.63293296
vn -0.00000016 -0.64096237 0.76757231
vn -0.32338407 -0.62383148 0.71151741
vn -0.00000002 -0.56747341 0.82339172
vn -0.24423770 -0.57555460 0.78043888
vn -0.26397436 -0.49516339 0.82772625
vn -0.35556189 -0.41339628 0.83825966
vn -0.00000000 -0.35053209 0.93655072
vn -0.45140895 -0.33168022 0.82838288
vn -0.42731625 -0.30275816 0.85190277
vn -0.84847723 -0.29919158 0.43654414
vn -0.48624716 -0.22735122 0.84372692
vn -0.92136073 -0.10221385 0.37502898
vn -0.96508570 -0.05067447 0.25698578
vn -0.99126519 -0.01489378 0.13104004
vn -0.31529313 -0.93547725 -0.15960123
vn -0.40531012 -0.88619456 -0.22446136
vn -0.48797732 -0.82715653 -0.27872964
vn 0.30532399 -0.91649746 -0.25847565
vn -0.50497131 -0.79932400 -0.32570711
vn -0.44347926 -0.80340157 -0.39733119
vn 0.31228303 -0.82918711 -0.46360332
vn -0.34969687 -0.80503374 -0.47920014
vn -0.26698095 -0.78474272 -0.55937468
vn -0.26690153 -0.72713660 -0.63248394
vn 0.41038294 -0.68582308 -0.60102624
vn -0.34957194 -0.65392217 -0.67095846
vn -0.44334521 -0.57394253 -0.68850199
vn -0.00000010 -0.63433937 -0.77305469
vn -0.46451670 -0.52473944 -0.71335318
vn -0.00000015 -0.57644650 -0.81713489
vn -0.41057496 -0.48493687 -0.77218161
vn -0.00000017 -0.51194178 -0.85902015
vn -0.35787281 -0.42873165 -0.82952771
vn -0.00000015 -0.44181526 -0.89710606
vn -0.36932624 -0.34825372 -0.86157848
vn -0.00000012 -0.36753093 -0.93001130
vn -0.40259917 -0.29350827 -0.86704487
vn -0.48624768 -0.22735159 -0.84372652
vn -0.99126424 -0.01489488 -0.13104714
vn -0.96508722 -0.05067291 -0.25698036
vn -0.92151225 -0.09866292 -0.37560725
vn -0.90746976 -0.18265712 -0.37833187
vn -0.85596921 -0.40655177 -0.31942506
f 121//121 169//169 168//168
f 1//1 303//303 11//11
f 114//114 105//105 411//411
f 123//123 105//105 114//114
f 124//124 175//175 123//123
f 123//123 114//114 124//124
f 124//124 114//114 409//409
f 174//174 122//122 123//123
f 123//123 175//175 174//174
f 345//345 340//340 440//440
f 168//168 437//437 438//438
f 438//438 121//121 168//168
f 437//437 121//121 438//438
f 4//4 298//298 14//14
f 123//123 122//122 94//94
f 301//301 2//2 302//302
f 396//396 141//141 397//397
f 403//403 404//404 129//129
f 126//126 404//404 403//403
f 406//406 404//404 126//126
f 126//126 127//127 406//406
f 120//120 437//437 168//168
f 444//444 433//433 431//431
f 176//176 138//138 397//397
f 397//397 141//141 176//176
f 48//48 314//314 35//35
f 44//44 311//311 45//45
f 44//44 282//282 311//311
f 67//67 311//311 46//46
f 50//50 49//49 30//30
f 37//37 314//314 48//48
f 435//435 444//444 437//437
f 437//437 120//120 435//435
f 435//435 120//120 436//436
f 345//345 440//440 339//339
f 339//339 440//440 443//443
f 56//56 7//7 57//57
f 242//242 237//237 345//345
f 235//235 340//340 345//345
f 345//345 237//237 235//235
f 235//235 440//440 340//340
f 275//275 235//235 237//237
f 363//363 413//413 364//364
f 354//354 413//413 363//363
f 358//358 363//363 362//362
f 363//363 78//78 362//362
f 8//8 58//58 57//57
f 365//365 346//346 366//366
f 270//270 246//246 169//169
f 249//249 188//188 187//187
f 170//170 187//187 188//188
f 249//249 187//187 170//170
f 169//169 246//246 170//170
f 168//168 169//169 180//180
f 11//11 2//2 12//12
f 12//12 2//2 301//301
f 301//301 302//302 12//12
f 12//12 302//302 3//3
f 17//17 16//16 20//20
f 17//17 14//14 13//13
f 11//11 12//12 64//64
f 73//73 72//72 9//9
f 201//201 72//72 73//73
f 201//201 9//9 72//72
f 305//305 306//306 304//304
f 304//304 1//1 305//305
f 303//303 1//1 304//304
f 304//304 302//302 2//2
f 11//11 303//303 304//304
f 304//304 2//2 11//11
f 130//130 127//127 126//126
f 130//130 403//403 129//129
f 126//126 403//403 130//130
f 117//117 127//127 175//175
f 388//388 178//178 156//156
f 445//445 431//431 429//429
f 143//143 394//394 177//177
f 396//396 394//394 143//143
f 153//153 178//178 154//154
f 154//154 390//390 153//153
f 153//153 390//390 386//386
f 177//177 148//148 151//151
f 178//178 177//177 151//151
f 151//151 154//154 178//178
f 129//129 404//404 402//402
f 397//397 138//138 398//398
f 398//398 135//135 400//400
f 410//410 114//114 411//411
f 409//409 114//114 410//410
f 410//410 408//408 115//115
f 410//410 124//124 409//409
f 410//410 115//115 124//124
f 405//405 127//127 117//117
f 117//117 406//406 405//405
f 405//405 406//406 127//127
f 407//407 406//406 117//117
f 116//116 408//408 407//407
f 167//167 120//120 168//168
f 436//436 120//120 167//167
f 395//395 177//177 176//176
f 395//395 143//143 177//177
f 395//395 176//176 141//141
f 312//312 40//40 46//46
f 317//317 30//30 49//49
f 27//27 51//51 50//50
f 27//27 319//319 51//51
f 51//51 319//319 24//24
f 57//57 7//7 330//330
f 316//316 48//48 35//35
f 67//67 48//48 316//316
f 45//45 311//311 67//67
f 47//47 46//46 40//40
f 37//37 48//48 47//47
f 47//47 67//67 46//46
f 52//52 51//51 24//24
f 52//52 21//21 322//322
f 50//50 51//51 52//52
f 52//52 322//322 50//50
f 322//322 21//21 321//321
f 57//57 58//58 55//55
f 437//437 444//444 439//439
f 439//439 444//444 443//443
f 443//443 440//440 439//439
f 439//439 121//121 437//437
f 169//169 121//121 439//439
f 439//439 270//270 169//169
f 444//444 435//435 433//433
f 344//344 442//442 441//441
f 366//366 347//347 441//441
f 441//441 347//347 344//344
f 349//349 242//242 345//345
f 240//240 242//242 349//349
f 345//345 344//344 349//349
f 344//344 347//347 349//349
f 342//342 344//344 345//345
f 345//345 339//339 342//342
f 342//342 442//442 344//344
f 443//443 442//442 342//342
f 342//342 339//339 443//443
f 440//440 235//235 244//244
f 363//363 364//364 80//80
f 80//80 364//364 413//413
f 356//356 363//363 358//358
f 356//356 354//354 363//363
f 81//81 413//413 411//411
f 79//79 413//413 81//81
f 257//257 248//248 307//307
f 251//251 188//188 249//249
f 249//249 265//265 251//251
f 199//199 188//188 198//198
f 199//199 170//170 188//188
f 170//170 199//199 181//181
f 169//169 170//170 181//181
f 181//181 180//180 169//169
f 198//198 182//182 181//181
f 181//181 199//199 198//198
f 297//297 13//13 299//299
f 299//299 14//14 298//298
f 13//13 14//14 299//299
f 299//299 298//298 4//4
f 4//4 14//14 64//64
f 64//64 12//12 3//3
f 297//297 16//16 296//296
f 16//16 17//17 296//296
f 296//296 13//13 297//297
f 296//296 17//17 13//13
f 23//23 17//17 20//20
f 14//14 17//17 23//23
f 62//62 87//87 63//63
f 11//11 64//64 10//10
f 10//10 1//1 11//11
f 64//64 63//63 10//10
f 10//10 63//63 9//9
f 305//305 1//1 10//10
f 10//10 210//210 305//305
f 174//174 173//173 202//202
f 122//122 186//186 185//185
f 123//123 94//94 105//105
f 127//127 130//130 175//175
f 125//125 175//175 124//124
f 116//116 175//175 125//125
f 124//124 115//115 125//125
f 125//125 408//408 116//116
f 115//115 408//408 125//125
f 152//152 417//417 418//418
f 418//418 179//179 152//152
f 387//387 156//156 386//386
f 388//388 156//156 387//387
f 444//444 431//431 445//445
f 158//158 178//178 388//388
f 152//152 179//179 159//159
f 159//159 155//155 417//417
f 159//159 158//158 155//155
f 393//393 148//148 145//145
f 145//145 148//148 177//177
f 145//145 394//394 393//393
f 177//177 394//394 145//145
f 393//393 394//394 399//399
f 386//386 390//390 392//392
f 178//178 153//153 386//386
f 386//386 156//156 178//178
f 150//150 390//390 154//154
f 154//154 151//151 150//150
f 147//147 148//148 393//393
f 147//147 151//151 148//148
f 393//393 399//399 391//391
f 391//391 147//147 393//393
f 151//151 147//147 391//391
f 390//390 150//150 391//391
f 391//391 150//150 151//151
f 139//139 398//398 138//138
f 135//135 398//398 139//139
f 175//175 407//407 117//117
f 116//116 407//407 175//175
f 406//406 407//407 412//412
f 166//166 167//167 180//180
f 119//119 435//435 436//436
f 436//436 167//167 119//119
f 434//434 433//433 119//119
f 433//433 435//435 119//119
f 119//119 166//166 434//434
f 119//119 167//167 166//166
f 431//431 165//165 128//128
f 128//128 430//430 429//429
f 429//429 431//431 128//128
f 118//118 431//431 433//433
f 166//166 165//165 118//118
f 118//118 433//433 434//434
f 434//434 166//166 118//118
f 141//141 396//396 395//395
f 396//396 143//143 395//395
f 313//313 314//314 37//37
f 37//37 47//47 313//313
f 40//40 312//312 313//313
f 313//313 47//47 40//40
f 46//46 311//311 42//42
f 282//282 312//312 42//42
f 42//42 312//312 46//46
f 281//281 44//44 45//45
f 282//282 44//44 281//281
f 43//43 280//280 281//281
f 45//45 43//43 281//281
f 35//35 314//314 315//315
f 315//315 316//316 35//35
f 33//33 317//317 49//49
f 49//49 316//316 33//33
f 316//316 315//315 33//33
f 33//33 315//315 317//317
f 8//8 330//330 332//332
f 377//377 58//58 332//332
f 58//58 8//8 332//332
f 7//7 56//56 329//329
f 331//331 8//8 57//57
f 57//57 330//330 331//331
f 331//331 330//330 8//8
f 49//49 50//50 67//67
f 67//67 316//316 49//49
f 30//30 317//317 318//318
f 50//50 30//30 318//318
f 318//318 338//338 319//319
f 319//319 27//27 318//318
f 27//27 50//50 318//318
f 67//67 47//47 48//48
f 24//24 319//319 320//320
f 320//320 21//21 52//52
f 320//320 321//321 21//21
f 320//320 52//52 24//24
f 325//325 326//326 54//54
f 54//54 53//53 15//15
f 15//15 53//53 324//324
f 15//15 325//325 54//54
f 18//18 53//53 322//322
f 322//322 53//53 55//55
f 55//55 53//53 54//54
f 55//55 56//56 57//57
f 355//355 74//74 59//59
f 245//245 440//440 244//244
f 245//245 439//439 440//440
f 270//270 439//439 245//245
f 56//56 55//55 6//6
f 326//326 325//325 5//5
f 54//54 326//326 5//5
f 5//5 55//55 54//54
f 273//273 244//244 235//235
f 259//259 240//240 260//260
f 259//259 242//242 240//240
f 259//259 278//278 242//242
f 237//237 242//242 277//277
f 242//242 278//278 277//277
f 412//412 410//410 411//411
f 96//96 362//362 78//78
f 373//373 355//355 374//374
f 373//373 372//372 355//355
f 360//360 367//367 416//416
f 360//360 416//416 358//358
f 358//358 362//362 360//360
f 367//367 361//361 368//368
f 75//75 74//74 355//355
f 75//75 59//59 74//74
f 371//371 370//370 357//357
f 357//357 75//75 355//355
f 357//357 372//372 371//371
f 355//355 372//372 357//357
f 79//79 81//81 103//103
f 103//103 81//81 105//105
f 105//105 81//81 411//411
f 379//379 350//350 380//380
f 341//341 381//381 380//380
f 380//380 350//350 341//341
f 382//382 381//381 341//341
f 249//249 267//267 266//266
f 266//266 265//265 249//249
f 246//246 270//270 269//269
f 194//194 307//307 196//196
f 194//194 192//192 257//257
f 257//257 192//192 193//193
f 195//195 307//307 305//305
f 263//263 251//251 264//264
f 264//264 251//251 265//265
f 183//183 191//191 212//212
f 213//213 212//212 190//190
f 213//213 193//193 214//214
f 190//190 193//193 213//213
f 297//297 299//299 306//306
f 292//292 22//22 293//293
f 22//22 23//23 293//293
f 302//302 304//304 306//306
f 302//302 306//306 300//300
f 300//300 64//64 3//3
f 3//3 302//302 300//300
f 4//4 64//64 300//300
f 300//300 299//299 4//4
f 64//64 14//14 23//23
f 279//279 67//67 66//66
f 45//45 67//67 279//279
f 279//279 43//43 45//45
f 66//66 38//38 283//283
f 73//73 87//87 89//89
f 89//89 87//87 62//62
f 73//73 89//89 71//71
f 71//71 89//89 91//91
f 85//85 63//63 87//87
f 9//9 63//63 85//85
f 85//85 87//87 73//73
f 73//73 9//9 85//85
f 209//209 10//10 9//9
f 122//122 174//174 200//200
f 174//174 202//202 200//200
f 200//200 186//186 122//122
f 200//200 202//202 186//186
f 173//173 172//172 204//204
f 204//204 202//202 173//173
f 186//186 202//202 204//204
f 204//204 184//184 186//186
f 308//308 306//306 305//305
f 305//305 307//307 308//308
f 308//308 307//307 248//248
f 176//176 175//175 133//133
f 133//133 175//175 130//130
f 136//136 176//176 133//133
f 133//133 130//130 129//129
f 129//129 402//402 133//133
f 139//139 176//176 136//136
f 138//138 176//176 139//139
f 139//139 136//136 135//135
f 400//400 135//135 136//136
f 392//392 417//417 389//389
f 389//389 155//155 158//158
f 417//417 155//155 389//389
f 149//149 418//418 419//419
f 179//179 418//418 149//149
f 149//149 420//420 179//179
f 424//424 445//445 425//425
f 425//425 445//445 426//426
f 428//428 445//445 429//429
f 426//426 445//445 428//428
f 142//142 422//422 424//424
f 142//142 423//423 422//422
f 161//161 162//162 427//427
f 157//157 158//158 388//388
f 388//388 387//387 157//157
f 157//157 389//389 158//158
f 387//387 389//389 157//157
f 178//178 159//159 179//179
f 158//158 159//159 178//178
f 159//159 417//417 152//152
f 399//399 394//394 396//396
f 390//390 391//391 392//392
f 392//392 391//391 399//399
f 392//392 387//387 386//386
f 392//392 389//389 387//387
f 404//404 406//406 412//412
f 412//412 402//402 404//404
f 412//412 407//407 408//408
f 180//180 165//165 166//166
f 180//180 167//167 168//168
f 423//423 142//142 161//161
f 161//161 142//142 424//424
f 430//430 128//128 164//164
f 429//429 430//430 164//164
f 164//164 128//128 165//165
f 432//432 165//165 431//431
f 431//431 118//118 432//432
f 432//432 118//118 165//165
f 282//282 42//42 311//311
f 336//336 236//236 233//233
f 317//317 315//315 338//338
f 321//321 320//320 338//338
f 338//338 320//320 319//319
f 328//328 330//330 7//7
f 7//7 329//329 328//328
f 328//328 329//329 56//56
f 56//56 6//6 328//328
f 321//321 18//18 322//322
f 324//324 53//53 323//323
f 53//53 18//18 323//323
f 323//323 18//18 321//321
f 323//323 15//15 324//324
f 325//325 15//15 323//323
f 322//322 55//55 50//50
f 97//97 78//78 98//98
f 270//270 245//245 271//271
f 271//271 244//244 272//272
f 271//271 245//245 244//244
f 235//235 275//275 274//274
f 274//274 273//273 235//235
f 276//276 275//275 237//237
f 237//237 277//277 276//276
f 101//101 80//80 102//102
f 101//101 100//100 80//80
f 413//413 354//354 414//414
f 411//411 413//413 414//414
f 414//414 412//412 411//411
f 354//354 356//356 414//414
f 353//353 376//376 374//374
f 374//374 355//355 353//353
f 355//355 59//59 353//353
f 68//68 55//55 58//58
f 58//58 59//59 68//68
f 75//75 357//357 359//359
f 359//359 361//361 76//76
f 76//76 75//75 359//359
f 369//369 368//368 359//359
f 359//359 368//368 361//361
f 359//359 370//370 369//369
f 359//359 357//357 370//370
f 79//79 103//103 104//104
f 79//79 80//80 413//413
f 79//79 104//104 102//102
f 102//102 80//80 79//79
f 343//343 383//383 382//382
f 382//382 341//341 343//343
f 384//384 383//383 343//343
f 333//333 336//336 233//233
f 332//332 336//336 333//333
f 333//333 341//341 350//350
f 247//247 268//268 267//267
f 247//247 267//267 249//249
f 249//249 170//170 247//247
f 257//257 307//307 258//258
f 258//258 194//194 257//257
f 307//307 194//194 258//258
f 196//196 195//195 220//220
f 307//307 195//195 196//196
f 210//210 195//195 305//305
f 257//257 193//193 256//256
f 256//256 193//193 190//190
f 250//250 248//248 257//257
f 309//309 308//308 250//250
f 250//250 308//308 248//248
f 310//310 254//254 261//261
f 197//197 183//183 182//182
f 197//197 182//182 198//198
f 191//191 183//183 197//197
f 198//198 188//188 197//197
f 189//189 191//191 197//197
f 188//188 189//189 197//197
f 292//292 293//293 306//306
f 297//297 306//306 295//295
f 295//295 306//306 293//293
f 295//295 16//16 297//297
f 299//299 300//300 306//306
f 19//19 23//23 20//20
f 20//20 295//295 19//19
f 19//19 293//293 23//23
f 19//19 295//295 293//293
f 279//279 280//280 43//43
f 39//39 38//38 66//66
f 284//284 38//38 39//39
f 284//284 283//283 38//38
f 41//41 279//279 66//66
f 280//280 279//279 41//41
f 41//41 283//283 280//280
f 285//285 65//65 34//34
f 286//286 285//285 34//34
f 32//32 29//29 28//28
f 28//28 288//288 32//32
f 26//26 22//22 292//292
f 26//26 23//23 22//22
f 26//26 65//65 23//23
f 26//26 29//29 65//65
f 65//65 29//29 32//32
f 61//61 89//89 62//62
f 91//91 89//89 61//61
f 61//61 60//60 91//91
f 60//60 95//95 90//90
f 206//206 172//172 171//171
f 206//206 204//204 172//172
f 184//184 204//204 206//206
f 112//112 111//111 88//88
f 88//88 111//111 110//110
f 132//132 133//133 402//402
f 132//132 402//402 400//400
f 400//400 136//136 132//132
f 136//136 133//133 132//132
f 144//144 422//422 423//423
f 420//420 149//149 419//419
f 419//419 146//146 420//420
f 421//421 445//445 422//422
f 421//421 146//146 419//419
f 422//422 144//144 421//421
f 421//421 144//144 160//160
f 424//424 422//422 445//445
f 419//419 418//418 392//392
f 426//426 428//428 134//134
f 137//137 425//425 426//426
f 137//137 427//427 162//162
f 426//426 427//427 137//137
f 399//399 396//396 397//397
f 408//408 410//410 412//412
f 424//424 425//425 140//140
f 162//162 161//161 140//140
f 140//140 161//161 424//424
f 429//429 164//164 131//131
f 131//131 428//428 429//429
f 180//180 164//164 165//165
f 337//337 332//332 330//330
f 337//337 336//336 332//332
f 335//335 238//238 236//236
f 236//236 336//336 335//335
f 338//338 318//318 317//317
f 289//289 315//315 314//314
f 289//289 338//338 315//315
f 55//55 5//5 327//327
f 327//327 5//5 325//325
f 327//327 6//6 55//55
f 327//327 328//328 6//6
f 78//78 97//97 96//96
f 244//244 273//273 272//272
f 77//77 99//99 98//98
f 98//98 78//78 77//77
f 77//77 78//78 363//363
f 363//363 80//80 77//77
f 100//100 99//99 77//77
f 80//80 100//100 77//77
f 415//415 414//414 356//356
f 358//358 416//416 415//415
f 415//415 356//356 358//358
f 76//76 96//96 82//82
f 82//82 75//75 76//76
f 375//375 376//376 353//353
f 348//348 385//385 384//384
f 384//384 343//343 348//348
f 348//348 365//365 385//385
f 346//346 365//365 348//348
f 378//378 377//377 351//351
f 332//332 333//333 351//351
f 351//351 377//377 332//332
f 269//269 268//268 247//247
f 246//246 269//269 247//247
f 247//247 170//170 246//246
f 253//253 255//255 189//189
f 253//253 189//189 188//188
f 188//188 251//251 253//253
f 263//263 262//262 253//253
f 253//253 251//251 263//263
f 255//255 253//253 262//262
f 252//252 250//250 257//257
f 252//252 256//256 254//254
f 257//257 256//256 252//252
f 254//254 310//310 252//252
f 252//252 310//310 309//309
f 309//309 250//250 252//252
f 20//20 16//16 294//294
f 294//294 295//295 20//20
f 16//16 295//295 294//294
f 66//66 65//65 285//285
f 285//285 39//39 66//66
f 36//36 284//284 39//39
f 36//36 39//39 285//285
f 36//36 285//285 286//286
f 286//286 284//284 36//36
f 283//283 41//41 66//66
f 290//290 28//28 29//29
f 288//288 28//28 290//290
f 287//287 34//34 65//65
f 286//286 34//34 287//287
f 25//25 26//26 292//292
f 25//25 290//290 29//29
f 292//292 290//290 25//25
f 29//29 26//26 25//25
f 88//88 186//186 92//92
f 184//184 90//90 92//92
f 186//186 184//184 92//92
f 113//113 112//112 92//92
f 92//92 112//112 88//88
f 92//92 95//95 113//113
f 92//92 90//90 95//95
f 10//10 209//209 210//210
f 228//228 227//227 201//201
f 201//201 229//229 228//228
f 223//223 209//209 224//224
f 171//171 211//211 205//205
f 94//94 106//106 105//105
f 109//109 108//108 86//86
f 86//86 110//110 109//109
f 88//88 110//110 86//86
f 122//122 185//185 86//86
f 86//86 186//186 88//88
f 86//86 185//185 186//186
f 146//146 421//421 160//160
f 160//160 144//144 423//423
f 420//420 146//146 160//160
f 423//423 161//161 160//160
f 161//161 179//179 160//160
f 160//160 179//179 420//420
f 392//392 421//421 419//419
f 445//445 421//421 392//392
f 392//392 418//418 417//417
f 426//426 134//134 427//427
f 163//163 134//134 428//428
f 428//428 131//131 163//163
f 163//163 131//131 164//164
f 427//427 134//134 163//163
f 164//164 180//180 163//163
f 161//161 427//427 163//163
f 425//425 137//137 162//162
f 162//162 140//140 425//425
f 397//397 398//398 399//399
f 400//400 402//402 412//412
f 412//412 398//398 400//400
f 330//330 328//328 337//337
f 241//241 238//238 334//334
f 238//238 335//335 334//334
f 289//289 312//312 282//282
f 75//75 82//82 83//83
f 69//69 68//68 83//83
f 83//83 82//82 69//69
f 69//69 82//82 70//70
f 70//70 82//82 96//96
f 352//352 377//377 375//375
f 375//375 353//353 352//352
f 58//58 377//377 352//352
f 352//352 59//59 58//58
f 352//352 353//353 59//59
f 346//346 348//348 243//243
f 243//243 238//238 241//241
f 350//350 379//379 378//378
f 378//378 351//351 350//350
f 350//350 351//351 333//333
f 192//192 216//216 215//215
f 214//214 193//193 215//215
f 215//215 193//193 192//192
f 217//217 216//216 192//192
f 192//192 194//194 217//217
f 194//194 218//218 217//217
f 219//219 194//194 196//196
f 219//219 218//218 194//194
f 221//221 196//196 220//220
f 195//195 210//210 222//222
f 32//32 288//288 31//31
f 31//31 65//65 32//32
f 288//288 287//287 31//31
f 31//31 287//287 65//65
f 227//227 225//225 208//208
f 201//201 227//227 208//208
f 9//9 201//201 208//208
f 207//207 211//211 232//232
f 207//207 205//205 211//211
f 207//207 232//232 231//231
f 71//71 205//205 207//207
f 73//73 71//71 207//207
f 93//93 108//108 107//107
f 93//93 86//86 108//108
f 122//122 86//86 93//93
f 93//93 107//107 106//106
f 93//93 106//106 94//94
f 93//93 94//94 122//122
f 161//161 163//163 180//180
f 401//401 399//399 398//398
f 398//398 412//412 401//401
f 328//328 327//327 337//337
f 241//241 334//334 260//260
f 282//282 281//281 289//289
f 289//289 281//281 280//280
f 289//289 313//313 312//312
f 59//59 75//75 84//84
f 75//75 83//83 84//84
f 84//84 68//68 59//59
f 84//84 83//83 68//68
f 236//236 238//238 239//239
f 238//238 243//243 239//239
f 233//233 236//236 239//239
f 239//239 333//333 233//233
f 239//239 343//343 341//341
f 239//239 348//348 343//343
f 239//239 243//243 348//348
f 221//221 219//219 196//196
f 220//220 195//195 222//222
f 222//222 209//209 223//223
f 222//222 210//210 209//209
f 231//231 230//230 203//203
f 203//203 207//207 231//231
f 203//203 230//230 229//229
f 203//203 229//229 201//201
f 203//203 201//201 73//73
f 73//73 207//207 203//203
f 337//337 327//327 325//325
f 280//280 283//283 289//289
f 314//314 313//313 289//289
f 341//341 333//333 234//234
f 234//234 239//239 341//341
f 333//333 239//239 234//234
f 225//225 226//226 208//208
f 208//208 209//209 9//9
f 208//208 226//226 224//224
f 208//208 224//224 209//209
f 338//338 323//323 321//321
f 325//325 323//323 338//338
f 283//283 284//284 289//289
f 338//338 337//337 325//325
f 289//289 284//284 286//286
f 286//286 287//287 289//289
f 289//289 287//287 288//288
f 306//306 290//290 292//292
f 288//288 290//290 291//291
f 290//290 306//306 291//291
f 291//291 289//289 288//288
f 366//366 346//346 347//347
f 212//212 191//191 190//190
f 360//360 361//361 367//367
f 76//76 361//361 96//96
f 361//361 360//360 96//96
f 96//96 360//360 362//362
f 261//261 254//254 255//255
f 190//190 191//191 256//256
f 256//256 191//191 189//189
f 189//189 255//255 256//256
f 256//256 255//255 254//254
f 91//91 60//60 90//90
f 205//205 206//206 171//171
f 91//91 90//90 205//205
f 205//205 71//71 91//91
f 205//205 90//90 184//184
f 184//184 206//206 205//205
f 64//64 23//23 70//70
f 113//113 95//95 70//70
f 62//62 63//63 70//70
f 70//70 101//101 102//102
f 66//66 67//67 70//70
f 70//70 108//108 109//109
f 70//70 103//103 105//105
f 102//102 104//104 70//70
f 70//70 95//95 60//60
f 70//70 63//63 64//64
f 70//70 61//61 62//62
f 65//65 66//66 70//70
f 70//70 67//67 50//50
f 98//98 99//99 70//70
f 70//70 97//97 98//98
f 55//55 68//68 70//70
f 70//70 112//112 113//113
f 109//109 110//110 70//70
f 70//70 50//50 55//55
f 100//100 101//101 70//70
f 70//70 99//99 100//100
f 70//70 68//68 69//69
f 70//70 104//104 103//103
f 23//23 65//65 70//70
f 60//60 61//61 70//70
f 70//70 105//105 106//106
f 111//111 112//112 70//70
f 70//70 110//110 111//111
f 107//107 108//108 70//70
f 70//70 96//96 97//97
f 106//106 107//107 70//70
f 240//240 349//349 243//243
f 243//243 241//241 240//240
f 243//243 347//347 346//346
f 243//243 349//349 347//347
f 401//401 376//376 375//375
f 443//443 444//444 401//401
f 401//401 365//365 366//366
f 401//401 377//377 378//378
f 369//369 370//370 401//401
f 401//401 383//383 384//384
f 401//401 368//368 369//369
f 366//366 441//441 401//401
f 384//384 385//385 401//401
f 380//380 381//381 401//401
f 378//378 379//379 401//401
f 416//416 367//367 401//401
f 444//444 445//445 401//401
f 401//401 442//442 443//443
f 401//401 373//373 374//374
f 385//385 365//365 401//401
f 401//401 381//381 382//382
f 382//382 383//383 401//401
f 401//401 379//379 380//380
f 401//401 392//392 399//399
f 401//401 441//441 442//442
f 374//374 376//376 401//401
f 371//371 372//372 401//401
f 401//401 370//370 371//371
f 372//372 373//373 401//401
f 367//367 368//368 401//401
f 375//375 377//377 401//401
f 445//445 392//392 401//401
f 412//412 414//414 401//401
f 401//401 415//415 416//416
f 414//414 415//415 401//401
f 240//240 241//241 260//260
f 226//226 211//211 171//171
f 231//231 232//232 226//226
f 182//182 183//183 226//226
f 171//171 172//172 226//226
f 226//226 174//174 175//175
f 226//226 225//225 227//227
f 226//226 181//181 182//182
f 226//226 177//177 178//178
f 226//226 173//173 174//174
f 176//176 177//177 226//226
f 220//220 222//222 226//226
f 180//180 181//181 226//226
f 226//226 172//172 173//173
f 226//226 213//213 214//214
f 218//218 219//219 226//226
f 226//226 175//175 176//176
f 223//223 224//224 226//226
f 226//226 221//221 220//220
f 226//226 183//183 212//212
f 212//212 213//213 226//226
f 232//232 211//211 226//226
f 226//226 178//178 179//179
f 226//226 230//230 231//231
f 227//227 228//228 226//226
f 226//226 179//179 161//161
f 214//214 215//215 226//226
f 226//226 217//217 218//218
f 229//229 230//230 226//226
f 226//226 228//228 229//229
f 226//226 215//215 216//216
f 216//216 217//217 226//226
f 161//161 180//180 226//226
f 226//226 222//222 223//223
f 219//219 221//221 226//226
f 267//267 268//268 291//291
f 291//291 269//269 270//270
f 306//306 308//308 291//291
f 261//261 255//255 291//291
f 291//291 274//274 275//275
f 291//291 262//262 263//263
f 291//291 310//310 261//261
f 291//291 259//259 260//260
f 291//291 271//271 272//272
f 291//291 266//266 267//267
f 263//263 264//264 291//291
f 278//278 259//259 291//291
f 291//291 277//277 278//278
f 275//275 276//276 291//291
f 265//265 266//266 291//291
f 291//291 272//272 273//273
f 291//291 264//264 265//265
f 291//291 308//308 309//309
f 270//270 271//271 291//291
f 273//273 274//274 291//291
f 291//291 276//276 277//277
f 291//291 268//268 269//269
f 309//309 310//310 291//291
f 336//336 337//337 291//291
f 291//291 335//335 336//336
f 338//338 289//289 291//291
f 291//291 255//255 262//262
f 291//291 334//334 335//335
f 291//291 260//260 334//334
f 337//337 338//338 291//291

