# https://github.com/mikedh/trimesh
v 7.40000010 0.19562972 9.49798584
v 7.40000010 -0.00000000 9.50000000
v 8.19999981 0.39117646 9.49194336
v 8.19999981 1.03570759 9.44337368
v 10.00000000 -7.75000000 9.50000000
v 10.00000000 -7.55490971 9.48078537
v 11.00000000 -7.75000000 8.50000000
v 5.00000000 -24.26245880 9.47679710
v 8.39999962 8.87163448 2.78999996
v 8.39999962 8.89921570 2.67140579
v 8.39999962 8.90848351 2.54999995
v 8.39999962 8.66011143 3.38956475
v 8.39999962 8.41010761 3.96984935
v 8.39999962 8.12098694 4.53188944
v 8.39999962 7.79350281 5.07445717
v 8.39999962 7.43114233 5.59170532
v 8.39999962 7.03327608 6.08450747
v 8.39999962 6.60419941 6.54783678
v 8.39999962 6.94911098 -6.18044662
v 8.39999962 6.49857283 -6.65268278
v 8.39999962 7.36676645 -5.67624187
v 8.39999962 7.74674988 -5.14552975
v 8.39999962 8.08976650 -4.58734846
v 8.39999962 8.39189053 -4.00820923
v 8.39999962 8.65227509 -3.40947700
v 8.39999962 8.87163448 -2.78999996
v 8.39999962 8.90848351 -2.54999995
v 8.39999962 8.89921570 -2.67140579
v 8.19999981 9.10848331 -2.54999995
v 8.19999981 9.09690094 -2.70175767
v 8.19999981 9.06242275 -2.84999990
v 8.19999981 8.71188545 -3.78854227
v 8.19999981 8.83971214 -3.47986960
v 8.19999981 8.95660591 -3.16689324
v 8.19999981 8.42407990 -4.39145517
v 8.19999981 8.57328415 -4.09252930
v 8.19999981 8.09461308 -4.97264957
v 8.19999981 8.26445675 -4.68494940
v 8.19999981 7.72511339 -5.52925158
v 8.19999981 7.91475725 -5.25419998
v 8.19999981 7.31740904 -6.05850887
v 8.19999981 7.52591515 -5.79746532
v 8.19999981 6.87351608 -6.55780268
v 8.19999981 7.09985304 -6.31205893
v 8.39999962 6.01474380 -7.09298372
v 8.19999981 6.39562941 -7.02466536
v 8.19999981 6.63867807 -6.79543638
v 8.39999962 5.50197411 -7.49787951
v 8.19999981 5.88611364 -7.45678663
v 8.19999981 6.14467144 -7.24520636
v 8.39999962 4.96189880 -7.86556530
v 8.19999981 5.62027597 -7.65914488
v 8.39999962 4.39672995 -8.19502258
v 8.19999981 5.06808472 -8.03520489
v 8.19999981 5.34748697 -7.85203028
v 8.39999962 3.81108236 -8.48314285
v 8.19999981 4.49082947 -8.37152576
v 8.19999981 4.78241444 -8.20844173
v 8.39999962 3.20480204 -8.73030376
v 8.19999981 3.89136481 -8.66644573
v 8.19999981 4.19369030 -8.52425671
v 8.39999962 2.58453465 -8.93357658
v 8.19999981 3.27265477 -8.91850471
v 8.19999981 3.58422613 -8.79791546
v 8.39999962 1.94915211 -9.09334373
v 8.19999981 2.63775992 -9.12645721
v 8.19999981 2.95703602 -9.02806377
v 8.19999981 1.98981988 -9.28927422
v 8.19999981 2.31522155 -9.21356297
v 8.19999981 1.33203900 -9.40615082
v 8.19999981 1.66195714 -9.35349655
v 8.19999981 0.66767049 -9.47650909
v 8.19999981 1.00047338 -9.44717121
v 8.19999981 -0.00000001 -9.50000000
v 8.19999981 0.33404180 -9.49412537
v 8.39999962 6.14356041 6.98172665
v 8.39999962 5.65521383 7.38298368
v 8.39999962 5.14061117 7.74996471
v 8.39999962 4.04261923 8.37528706
v 8.39999962 4.60171747 8.08169651
v 8.39999962 3.46319270 8.63106823
v 8.39999962 2.86940956 8.84620190
v 8.39996526 2.25616651 9.02227228
v 8.19999981 1.67544425 9.35109043
v 8.19999981 2.30742502 9.21551895
v 8.19999981 2.92872453 9.03728771
v 8.19999981 3.53646636 8.81722164
v 8.19999981 4.12783766 8.55634022
v 8.19999981 4.70010042 8.25584984
v 8.19999981 5.25060606 7.91714191
v 8.19999981 5.77680588 7.54178476
v 8.19999981 6.27626371 7.13151550
v 8.19999981 6.74666834 6.68823338
v 8.19999981 7.18584156 6.21399069
v 8.19999981 7.59175062 5.71098280
v 8.19999981 7.96251631 5.18153763
v 8.19999981 8.29642296 4.62810659
v 8.19999981 8.59192371 4.05325127
v 8.19999981 8.84765148 3.45963335
v 8.19999981 9.06242275 2.84999990
v 8.19999981 9.09690094 2.70175767
v 8.19999981 9.10848331 2.54999995
v 5.00000000 8.94965267 3.18640304
v 7.40000010 9.21928406 2.29226542
v 5.00000000 9.14591312 2.56913972
v 7.40000010 9.34164810 1.72725201
v 5.00000000 1.29835117 9.41081715
v 5.00000000 1.93738210 9.30027676
v 5.00000000 2.56913972 9.14591312
v 5.00000000 3.18640304 8.94965267
v 5.00000000 3.79025960 8.71100330
v 5.00000000 4.37495279 8.43265724
v 5.00000000 4.93956184 8.11469650
v 5.00000000 5.48138046 7.75912571
v 5.00000000 5.99648142 7.36818838
v 5.00000000 6.48511982 6.94204426
v 5.00000000 6.94204426 6.48511982
v 5.00000000 7.36818838 5.99648142
v 5.00000000 7.75912571 5.48138046
v 5.00000000 8.11469650 4.93956184
v 5.00000000 8.43265724 4.37495279
v 5.00000000 8.71100330 3.79025960
v 5.00000000 9.14591312 -2.56913972
v 5.00000000 9.30027676 1.93738210
v 5.00000000 9.30027676 -1.93738210
v 5.00000000 9.41081715 1.29835117
v 5.00000000 9.41081715 -1.29835117
v 5.00000000 9.47728729 0.65293103
v 7.40000010 9.42954063 1.15480125
v 5.00000000 9.47728729 -0.65293103
v 5.00000000 9.50000000 0.00000000
v 7.40000010 9.50000000 -0.00000000
v 7.40000010 9.48231602 0.57910329
v 7.40000010 9.48231602 -0.57910329
v 7.40000010 9.42954063 -1.15480125
v 7.40000010 9.34164810 -1.72725201
v 7.40000010 9.21928406 -2.29226542
v 5.00000000 8.94965267 -3.18640304
v 5.00000000 8.43265724 -4.37495279
v 5.00000000 8.11469650 -4.93956184
v 5.00000000 7.75912571 -5.48138046
v 5.00000000 7.36818838 -5.99648142
v 5.00000000 6.94204426 -6.48511982
v 5.00000000 6.48511982 -6.94204426
v 5.00000000 5.99648142 -7.36818838
v 5.00000000 5.48138046 -7.75912571
v 5.00000000 4.93956184 -8.11469650
v 5.00000000 4.37495279 -8.43265724
v 5.00000000 3.79025960 -8.71100330
v 5.00000000 3.18640304 -8.94965267
v 5.00000000 2.56913972 -9.14591312
v 5.00000000 1.93738210 -9.30027676
v 5.00000000 1.29835117 -9.41081715
v 5.00000000 -0.00000000 -9.50000000
v 5.00000000 -24.26245880 -9.47679710
v 10.00000000 -7.75000000 -9.50000000
v 10.00000000 -7.55490971 -9.48078537
v 11.00000000 -7.75000000 -8.50000000
v 7.54511642 9.43842030 -0.00522057
v 4.94999981 0.66356689 9.47674274
v 4.94999981 1.32055962 9.40778923
v 4.94999981 1.97246850 9.29279900
v 4.94999981 2.61752701 9.13217640
v 4.94999981 3.24735141 8.92766190
v 4.94999981 3.86322355 8.67881584
v 4.94999981 4.45745420 8.38940716
v 4.94999981 5.02899837 8.06000805
v 4.94999981 5.57704115 7.69068003
v 4.94999981 6.10272837 7.27997160
v 4.94999981 6.60107899 6.83186388
v 4.94999981 6.35608768 7.06002188
v 4.94999981 6.83661985 6.59623909
v 4.94999981 7.49334717 5.83934164
v 4.94999981 7.06415701 6.35182190
v 4.94999981 7.88387537 5.30033493
v 4.94999981 8.23643398 4.73377657
v 4.94999981 8.54741573 4.14626217
v 4.94999981 8.81668663 3.53740907
v 4.94999981 9.04249573 2.91258025
v 4.94999981 9.02986622 -2.95150495
v 4.94999981 9.21307373 -2.31663918
v 4.94999981 8.80282688 -3.57184219
v 4.94999981 8.53308105 -4.17566252
v 4.94999981 8.22251129 -4.75798368
v 4.94999981 7.87119198 -5.31916761
v 4.94999981 7.48259306 -5.85313988
v 4.94999981 7.05606556 -6.36085224
v 4.94999981 6.59599924 -6.83676195
v 4.94999981 6.10106182 -7.28141356
v 4.94999981 5.57877779 -7.68942022
v 4.94999981 5.03395033 -8.05692673
v 4.94999981 4.46528959 -8.38527012
v 4.94999981 3.25890589 -8.92350578
v -4.94999981 1.32948840 9.40647030
v -4.94999981 1.98360789 9.29048061
v -4.94999981 2.62942863 9.12871838
v -4.94999981 3.25890589 8.92350578
v -4.94999981 3.87325430 8.67433357
v -4.94999981 4.46528959 8.38527012
v -4.94999981 5.03395033 8.05692673
v -4.94999981 5.57877779 7.68942022
v -4.94999981 6.10106182 7.28141356
v -4.94999981 6.59599924 6.83676195
v -4.94999981 7.05606556 6.36085224
v -4.94999981 7.48259306 5.85313988
v -4.94999981 7.87119198 5.31916761
v -4.94999981 8.22251129 4.75798368
v -4.94999981 8.53308105 4.17566252
v -4.94999981 8.80282688 3.57184219
v -4.94999981 9.02986622 2.95150495
v 4.94999981 9.22369099 2.27400374
v -4.94999981 9.21307373 2.31663918
v 4.94999981 9.35210800 -1.66965103
v 4.94999981 9.36010361 1.62408590
v -4.94999981 9.35210800 1.66965103
v 4.94999981 9.44542313 -1.01575696
v 4.94999981 9.45043278 0.96824729
v -4.94999981 9.44542313 1.01575696
v 4.94999981 9.49332047 -0.35472763
v 4.94999981 9.49497986 0.30621240
v -4.94999981 9.49332047 0.35472763
v -4.94999981 9.49497986 -0.30621240
v -4.94999981 9.45043278 -0.96824729
v -4.94999981 9.36010361 -1.62408590
v -4.94999981 9.22369099 -2.27400374
v -4.94999981 9.04249573 -2.91258025
v -4.94999981 8.81668663 -3.53740907
v -4.94999981 8.54741573 -4.14626217
v -4.94999981 8.23643398 -4.73377657
v -4.94999981 7.88387537 -5.30033493
v -4.94999981 7.49334717 -5.83934164
v -4.94999981 6.83661985 -6.59623909
v -4.94999981 6.35608768 -7.06002188
v -4.94999981 6.60107899 -6.83186388
v -4.94999981 5.57704115 -7.69068003
v -4.94999981 5.02899837 -8.06000805
v -4.94999981 4.45745420 -8.38940716
v -4.94999981 3.86322355 -8.67881584
v -4.94999981 3.24735141 -8.92766190
v -4.94999981 2.61752701 -9.13217640
v -4.94999981 1.32055962 -9.40778923
v -4.94999981 0.66356689 -9.47674274
v -5.00000000 -24.26245880 9.47679710
v -5.00000000 0.66356689 9.47674274
v -7.40000010 -0.00000000 9.50000000
v -5.00000000 1.32055962 9.40778923
v -8.19999981 1.03570759 9.44337368
v -7.40000010 0.19562972 9.49798584
v -8.19999981 0.39117646 9.49194336
v -5.00000000 1.97246850 9.29279900
v -8.19999981 1.67544425 9.35109043
v -5.00000000 2.61752701 9.13217640
v -8.19999981 2.30742502 9.21551895
v -5.00000000 3.24735141 8.92766190
v -8.19999981 2.92872453 9.03728771
v -5.00000000 3.86322355 8.67881584
v -8.19999981 3.53646636 8.81722164
v -5.00000000 4.45745420 8.38940716
v -8.19999981 4.12783766 8.55634022
v -5.00000000 5.02899837 8.06000805
v -8.19999981 4.70010042 8.25584984
v -5.00000000 5.57704115 7.69068003
v -8.19999981 5.25060606 7.91714191
v -5.00000000 6.10272837 7.27997160
v -8.19999981 5.77680588 7.54178476
v -5.00000000 6.35608768 7.06002188
v -8.19999981 6.27626371 7.13151550
v -5.00000000 6.60107899 6.83186388
v -5.00000000 6.83661985 6.59623909
v -8.19999981 6.74666834 6.68823338
v -5.00000000 7.06415701 6.35182190
v -5.00000000 7.49334717 5.83934164
v -8.19999981 7.18584156 6.21399069
v -5.00000000 7.88387537 5.30033493
v -8.19999981 7.59175062 5.71098280
v -5.00000000 8.23643398 4.73377657
v -8.19999981 7.96251631 5.18153763
v -5.00000000 8.54741573 4.14626217
v -8.19999981 8.29642296 4.62810659
v -5.00000000 8.81668663 3.53740907
v -8.19999981 8.59192371 4.05325127
v -5.00000000 9.04249573 2.91258025
v -8.19999981 8.84765148 3.45963335
v -5.00000000 9.21307373 -2.31663918
v -5.00000000 9.22369099 2.27400374
v -5.00000000 9.35210800 -1.66965103
v -5.00000000 9.36010361 1.62408590
v -7.40000010 9.23484612 2.22824240
v -5.00000000 9.44542313 -1.01575696
v -5.00000000 9.45043278 0.96824729
v -7.40000010 9.36430645 1.59986997
v -5.00000000 9.49332047 -0.35472763
v -5.00000000 9.49497986 0.30621240
v -7.40000010 9.45089912 0.96364272
v -7.40000010 9.49451160 -0.32103050
v -7.40000010 9.49451160 0.32103050
v -7.40000010 9.45089912 -0.96364272
v -7.40000010 9.36430645 -1.59986997
v -7.40000010 9.23484612 -2.22824240
v -5.00000000 9.02986622 -2.95150495
v -5.00000000 8.80282688 -3.57184219
v -8.19999981 8.95660591 -3.16689324
v -8.19999981 9.06242275 -2.84999990
v -5.00000000 8.53308105 -4.17566252
v -8.19999981 8.71188545 -3.78854227
v -8.19999981 8.83971214 -3.47986960
v -5.00000000 8.22251129 -4.75798368
v -8.19999981 8.42407990 -4.39145517
v -8.19999981 8.57328415 -4.09252930
v -5.00000000 7.87119198 -5.31916761
v -8.19999981 8.09461308 -4.97264957
v -8.19999981 8.26445675 -4.68494940
v -5.00000000 7.48259306 -5.85313988
v -8.19999981 7.72511339 -5.52925158
v -8.19999981 7.91475725 -5.25419998
v -5.00000000 7.05606556 -6.36085224
v -8.19999981 7.31740904 -6.05850887
v -8.19999981 7.52591515 -5.79746532
v -5.00000000 6.59599924 -6.83676195
v -8.19999981 6.87351608 -6.55780315
v -8.19999981 7.09985304 -6.31205893
v -5.00000000 6.10106182 -7.28141356
v -8.19999981 6.39562941 -7.02466536
v -8.19999981 6.63867807 -6.79543638
v -5.00000000 5.57877779 -7.68942022
v -8.19999981 5.88611364 -7.45678663
v -8.19999981 6.14467144 -7.24520636
v -5.00000000 5.03395033 -8.05692673
v -8.19999981 5.34748697 -7.85203028
v -8.19999981 5.62027597 -7.65914488
v -5.00000000 4.46528959 -8.38527012
v -8.19999981 4.78241444 -8.20844173
v -8.19999981 5.06808472 -8.03520489
v -8.19999981 4.19369030 -8.52425671
v -8.19999981 4.49082947 -8.37152576
v -5.00000000 3.25890589 -8.92350578
v -8.19999981 3.58422613 -8.79791546
v -8.19999981 3.89136481 -8.66644573
v -8.19999981 2.95703602 -9.02806377
v -8.19999981 3.27265477 -8.91850471
v -8.19999981 2.31522155 -9.21356297
v -8.19999981 2.63775992 -9.12645721
v -8.19999981 1.66195714 -9.35349655
v -8.19999981 1.98981988 -9.28927422
v -8.19999981 1.00047338 -9.44717216
v -8.19999981 1.33203900 -9.40615082
v -8.19999981 -0.00000001 -9.50000000
v -8.19999981 0.33404180 -9.49412537
v -8.19999981 0.66767049 -9.47650909
v -5.00000000 -24.26245880 -9.47679710
v -10.00000000 -7.75000000 -9.50000000
v -10.00000000 -7.75000000 9.50000000
v -10.00000000 -7.55490971 9.48078537
v -11.00000000 -7.75000000 8.50000000
v -8.39999962 8.87163448 -2.78999996
v -8.39999962 8.89921570 -2.67140579
v -8.39999962 8.90848351 -2.54999995
v -8.39999962 8.65227032 -3.40948796
v -8.39999962 8.39188099 -4.00822926
v -8.39999962 8.08975124 -4.58737564
v -8.39999962 7.74672842 -5.14556170
v -8.39999962 7.36673880 -5.67627764
v -8.39999962 6.94907808 -6.18048382
v -8.39999962 6.49853468 -6.65271997
v -8.39999962 1.94912159 -9.09334946
v -8.39999962 2.58449745 -8.93358707
v -8.39999962 3.20475960 -8.73031998
v -8.39999962 3.81103706 -8.48316383
v -8.39999962 4.39668274 -8.19504833
v -8.39999962 4.96185207 -7.86559486
v -8.39999962 5.50192881 -7.49791288
v -8.39999962 6.01470137 -7.09301949
v -8.19999981 9.09690094 -2.70175767
v -8.19999981 9.10848331 -2.54999995
v -8.39999962 6.60415125 6.54788542
v -8.39999962 6.14350700 6.98177338
v -8.39999962 5.65515661 7.38302755
v -8.39999962 5.14055204 7.75000429
v -8.39999962 4.60165787 8.08172989
v -8.39999962 4.04256153 8.37531471
v -8.39999962 3.46313906 8.63109016
v -8.39999962 2.86936235 8.84621716
v -8.39996549 2.25613702 9.02227889
v -8.39999962 7.79347563 5.07449865
v -8.39999962 8.12096691 4.53192425
v -8.39999962 7.43110752 5.59175158
v -8.39999962 7.03323412 6.08455563
v -10.00000000 -7.55490971 -9.48078537
v -11.00000000 -7.75000000 -8.50000000
v -8.39999962 8.41009521 3.96987510
v -8.39999962 8.66010571 3.38957882
v -8.19999981 9.06242275 2.84999990
v -8.39999962 8.87163448 2.78999996
v -8.19999981 9.09690094 2.70175767
v -8.39999962 8.89921570 2.67140579
v -8.39999962 8.90848351 2.54999995
v -8.19999981 9.10848331 2.54999995
v -7.54511642 9.43842030 0.00522057
v 10.19948805 1.87253348 -1.16412103
v 10.19999981 2.00001240 -0.91642159
v 10.19999981 2.06019306 -0.77142549
v 10.19999981 2.00001240 0.91642159
v 10.19999981 2.06019306 0.77142549
v 10.19999981 2.11019969 -0.62196356
v 10.19999981 2.11019969 0.62196356
v 10.19999981 2.14916277 -0.47014037
v 10.19999981 2.14916277 0.47014037
v 10.19999981 2.17699432 -0.31616983
v 10.19999981 2.17699432 0.31616983
v 10.19999981 2.19393992 -0.15945639
v 10.19999981 2.19393992 0.15945639
v 10.19999981 2.20000005 0.00000000
v 10.19999981 1.92998683 1.05591297
v 10.19964926 1.82951412 1.22531678
v -9.77994347 3.18869495 -4.38886213
v -9.80000019 3.59989095 -3.95762300
v -9.77994347 3.56927276 -4.08536148
v -9.80000019 3.94926524 -3.60912204
v -9.77994347 3.92111301 -3.74896789
v -9.80000019 3.96696019 3.58966351
v -9.80000019 4.26510048 -3.22972679
v -9.77994347 4.24138260 -3.38238978
v -9.80000019 4.28047419 3.20932460
v -9.80000019 4.54416370 -2.82361031
v -9.77994347 4.52750301 -2.98857856
v -9.80000019 4.55721712 2.80248761
v -9.80000019 4.78478527 -2.39336157
v -9.77994347 4.77717066 -2.57070518
v -9.80000019 4.79551315 2.37179637
v -9.80000019 4.98513460 -1.94185388
v -9.77994347 4.98837566 -2.13213396
v -9.80000019 4.99350882 1.92021561
v -9.80000019 5.14291859 -1.47384071
v -9.77994347 5.15941668 -1.67639613
v -9.80000019 5.14900541 1.45246053
v -9.80000019 5.25702715 -0.99299335
v -9.77994347 5.28891754 -1.20716095
v -9.80000019 5.26093912 0.97204852
v -9.80000019 5.32625246 -0.50329638
v -9.77994347 5.37583494 -0.72820634
v -9.80000019 5.32815886 0.48278868
v -9.80000019 5.34994507 -0.01018121
v -9.77994347 5.41946936 -0.24338865
v -9.77994347 5.41946936 0.24338865
v -9.77994347 5.37583494 0.72820634
v -9.77994347 5.28891754 1.20716095
v -9.77994347 5.15941668 1.67639613
v -9.77994347 4.98837566 2.13213396
v -9.77994347 4.77717066 2.57070518
v -9.77994347 4.52750301 2.98857856
v -9.77994347 4.24138260 3.38238978
v -9.80000019 3.61989141 3.93934989
v -9.77994347 3.92111301 3.74896789
v -9.77994347 3.56927276 4.08536148
v -9.77994347 3.18869495 4.38886213
v 8.39999962 -38.14337158 5.66346121
v 8.39999962 -39.09133530 -5.11513758
v 8.39999962 -38.63276291 -5.40816307
v 8.39999962 -38.14992523 -5.66038942
v 8.39999962 -37.64444733 -5.87050056
v 8.39999962 -37.12316513 -6.03548527
v 11.30000019 -37.11761856 6.03703642
v 11.30000019 -37.63762665 5.87307882
v 11.30000019 -38.14136505 5.66442347
v 11.30000019 -38.62500000 5.41265869
v 11.30000019 -39.08485413 5.11970043
v 8.39999962 -39.52371597 -4.78239107
v 11.30000019 -39.51742172 4.78777790
v -11.29991243 -39.92484782 -4.41411198
v 11.30000019 -39.91941833 4.41941738
v 8.39999962 -40.29262543 -4.01159430
v 11.30000019 -40.61970139 3.58485270
v 11.30000019 -40.28777695 4.01742268
v -11.29994558 -40.62195361 -3.58173141
v 8.39999962 -40.91255569 3.12517190
v 8.39999962 -40.91560364 -3.11988997
v 11.30000019 -40.91265869 3.12500000
v -11.29996509 -41.16533615 -2.63949293
v 8.39999962 -41.37232971 2.13960719
v 11.30000019 -41.16442490 2.64136410
v 8.39999962 -41.37449646 -2.13364053
v -11.29999371 -41.53697229 1.61788519
v 11.30000019 -41.37307739 2.13762593
v 8.39999962 -41.53812790 -1.61338270
v 11.30000019 -41.53703690 1.61761904
v 8.39999962 -41.65557480 -1.08192182
v 8.39999962 -41.72595596 0.54756665
v 11.30000019 -41.65504837 1.08530116
v 8.39999962 -41.72652435 -0.54108530
v 11.30000019 -41.72621536 0.54472339
v 11.30000019 -41.75000000 -0.00000000
v 11.30000019 -41.72621536 -0.54472339
v 11.30000019 -41.65504837 -1.08530116
v 11.30000019 -41.53703690 -1.61761904
v 11.30000019 -41.37307739 -2.13762593
v 11.30000019 -41.16442490 -2.64136410
v 11.30000019 -40.91265869 -3.12500000
v 11.30000019 -40.61970139 -3.58485270
v 11.30000019 -40.28777695 -4.01742268
v 11.30000019 -39.91941833 -4.41941738
v 11.30000019 -39.51742172 -4.78777790
v 11.30000019 -39.08485413 -5.11970043
v 11.30000019 -38.62500000 -5.41265869
v 11.30000019 -38.14136505 -5.66442347
v 11.30000019 -37.63762665 -5.87307882
v 11.30000019 -37.11761856 -6.03703642
v 11.50000000 -35.50000000 6.05000019
v 11.50000000 -32.00000000 6.05000019
v 11.50000000 -36.02895355 6.02677679
v 11.50000000 -36.55144119 5.95790958
v 11.50000000 -37.06746674 5.84339666
v 11.50000000 -37.57048798 5.68461943
v 11.50000000 -38.05792999 5.48265028
v 11.50000000 -38.52611923 5.23875189
v 11.50000000 -38.97053909 4.95554066
v 11.50000000 -39.38933182 4.63416147
v 11.50000000 -40.13413620 3.88936090
v 11.50000000 -39.77793884 4.27796745
v 11.50000000 -40.45552063 3.47057128
v 11.50000000 -40.73873520 3.02614832
v 11.50000000 -40.98263550 2.55795813
v 11.50000000 -41.18460846 2.07051444
v 11.50000000 -41.34339142 1.56748724
v 11.50000000 -41.45790863 1.05145562
v 11.50000000 -41.52677536 0.52896130
v 11.50000000 -41.54999924 -0.00000000
v 11.50000000 -41.52677536 -0.52895296
v 11.50000000 -41.45790863 -1.05144012
v 11.50000000 -41.34339523 -1.56746602
v 11.50000000 -41.18461990 -2.07048869
v 11.50000000 -40.98265076 -2.55792952
v 11.50000000 -40.73875046 -3.02611780
v 11.50000000 -40.45553970 -3.47054029
v 11.50000000 -40.13416290 -3.88933110
v 11.50000000 -39.38936234 -4.63413668
v 11.50000000 -39.77796936 -4.27793980
v 11.50000000 -38.97056961 -4.95551920
v 11.50000000 -38.52614975 -5.23873425
v 11.50000000 -38.05795670 -5.48263693
v 11.50000000 -37.57051468 -5.68460989
v 11.50000000 -37.06748581 -5.84339094
v 11.50000000 -36.55145645 -5.95790672
v 11.50000000 -36.02896118 -6.02677631
v 11.50000000 -35.50000000 -6.05000019
v 8.50000000 -24.26119614 9.47707462
v 10.80000019 -24.00000000 9.50000000
v 10.80000019 -22.00000000 9.50000000
v 10.80000019 -24.26047134 9.47721195
v 8.50000000 -24.26118660 -9.47707653
v 10.80000019 -24.26047134 -9.47721195
v 10.80000019 -22.00000000 -9.50000000
v 10.80000019 -24.00000000 -9.50000000
v 11.00000000 -22.00000000 -9.30000019
v 11.00000000 -24.00000000 -9.30000019
v 11.00000000 -24.22746468 -9.27989101
v 11.00000000 -24.22746468 9.27989101
v 11.00000000 -22.00000000 9.30000019
v 11.00000000 -24.00000000 9.30000019
v 11.50000000 -31.47103882 6.02677631
v 11.50000000 -32.00000000 -6.05000019
v 11.50000000 -31.47104645 -6.02677679
v 11.50000000 -30.94856071 -5.95790958
v 11.49999926 -30.22553622 -5.78997087
v 11.49999959 -29.23144991 -5.38588729
v 11.49999972 -28.32929610 -4.81647871
v 11.50000000 -27.72206116 -4.27796745
v 11.49999980 -27.20238713 -3.69532360
v 11.49999982 -26.63071206 -2.80057863
v 11.49999983 -26.22448398 -1.82089528
v 11.50000000 -26.04209328 -1.05145562
v 11.50000289 -25.95011000 -0.25968034
v 11.49999982 -25.99542716 0.78573624
v 11.49999983 -26.22447595 1.82087012
v 11.49999982 -26.63069293 2.80054093
v 11.49999980 -27.20235163 3.69527817
v 11.49999976 -27.92155303 4.47644194
v 11.49999967 -28.76696214 5.12050762
v 11.49999946 -29.71688964 5.60891264
v 11.50000000 -30.43251228 5.84339094
v 11.50000000 -30.94854355 5.95790672
v -11.00000000 -24.22746468 -9.27989101
v -11.00000000 -22.00000000 -9.30000019
v -11.00000000 -24.00000000 -9.30000019
v -10.80000019 -24.26047134 -9.47721195
v -10.80000019 -24.00000000 -9.50000000
v -10.80000019 -22.00000000 -9.50000000
v -11.00000000 -24.22746468 9.27989101
v -11.00000000 -24.00000000 9.30000019
v -11.00000000 -22.00000000 9.30000019
v -10.80000019 -22.00000000 9.50000000
v -10.80000019 -24.00000000 9.50000000
v -10.80000019 -24.26047134 9.47721195
v -11.50000000 -32.00000000 -6.05000019
v -11.50000000 -31.47103882 -6.02677631
v -11.50000000 -35.50000000 -6.05000019
v -11.50000000 -32.00000000 6.05000019
v -11.50000000 -35.50000000 6.05000019
v -11.50000000 -31.47104645 6.02677679
v -11.50000000 -30.94856071 5.95790958
v -11.50000000 -30.43253326 5.84339666
v -11.49999946 -29.71691446 5.60892249
v -11.49999967 -28.76699395 5.12052762
v -11.50000000 -28.11066818 4.63416147
v -11.49999979 -27.54381407 4.10056079
v -11.50000000 -27.04448128 3.47057128
v -11.49999982 -26.63071206 2.80057863
v -11.50000000 -26.31538963 2.07051444
v -11.49999982 -26.08727675 1.30856962
v -11.50000000 -25.97322464 0.52896130
v -11.50000289 -25.95010960 -0.25968824
v -11.50000000 -26.04209137 -1.05144012
v -11.49999983 -26.22447595 -1.82087012
v -11.49999982 -26.63069293 -2.80054093
v -11.49999980 -27.20235163 -3.69527817
v -11.50000000 -27.72203255 -4.27793980
v -11.49999972 -28.32927377 -4.81646113
v -11.49999959 -29.23141946 -5.38587169
v -11.49999926 -30.22550907 -5.78996266
v -11.50000000 -30.94854355 -5.95790672
v -8.50000000 -24.26118660 9.47707653
v -8.50000000 -24.26119614 -9.47707462
v -7.50001526 -41.74405289 0.27260467
v -11.30000019 -41.74405289 0.27262118
v -11.50000000 -41.54999924 0.00000000
v -11.30000014 -41.75000006 -0.00000338
v -11.30000019 -41.74405289 -0.27262118
v -11.50000000 -41.52677536 -0.52896130
v -7.50001526 -41.72621918 0.54470867
v -11.30000019 -41.72621536 0.54472339
v -7.50001526 -41.69653320 0.81577581
v -11.30000019 -41.69652939 0.81578869
v -11.50000000 -41.52677536 0.52895296
v -11.29999961 -41.65504972 1.08529685
v -7.50001526 -41.60185242 1.35273838
v -11.30000019 -41.60184860 1.35274756
v -11.50000000 -41.45790863 1.05144012
v -7.50001526 -41.46073151 1.87940562
v -11.30000019 -41.46073151 1.87941122
v -11.50000000 -41.34339523 1.56746602
v -7.50001526 -41.37308121 2.13762188
v -11.30000019 -41.37307739 2.13762593
v -7.50001526 -41.27424622 2.39176917
v -11.30000019 -41.27424622 2.39177155
v -11.50000000 -41.18461990 2.07048869
v -11.30000019 -41.16442490 2.64136410
v -7.50001526 -41.04381561 2.88592935
v -11.30000019 -41.04381943 2.88592887
v -11.50000000 -40.98265076 2.55792952
v -7.50001526 -40.91265869 3.12500191
v -11.30000019 -40.91265869 3.12500000
v -7.50001526 -40.77119446 3.35812569
v -11.30000019 -40.77119827 3.35812259
v -11.50000000 -40.73875046 3.02611780
v -11.30000019 -40.61970139 3.58485270
v -7.50001526 -40.45845413 3.80476379
v -11.30000019 -40.45845795 3.80475903
v -11.50000000 -40.45553970 3.47054029
v -11.29999989 -40.28777796 4.01742194
v -7.50001526 -40.10797882 4.22244501
v -11.30000019 -40.10798264 4.22243881
v -11.50000000 -40.13416290 3.88933110
v -11.30000019 -39.91941833 4.41941738
v -11.50000000 -39.77796936 4.27793980
v -7.50001526 -39.72243118 4.60799026
v -11.30000019 -39.72243881 4.60798359
v -11.30000011 -39.51741915 4.78778017
v -11.50000000 -39.38936234 4.63413668
v -7.50001526 -39.30474854 4.95846558
v -11.30000019 -39.30475998 4.95845842
v -11.30000019 -39.08485413 5.11970043
v -11.50000000 -38.97056961 4.95551920
v -7.50001526 -38.85811234 5.27120304
v -11.30000019 -38.85812378 5.27119637
v -11.29998105 -38.62593155 5.41214297
v -11.50000000 -38.52614975 5.23873425
v -7.50001526 -38.38591766 5.54382324
v -11.30000019 -38.38592911 5.54381752
v -7.50001526 -38.14135361 5.66442871
v -11.30000019 -38.14136505 5.66442347
v -11.50000000 -38.05795670 5.48263693
v -7.50001526 -37.89176178 5.77425146
v -11.30000019 -37.89177322 5.77424717
v -11.30000019 -37.63762665 5.87307882
v -11.50000000 -37.57051468 5.68460989
v -7.50001526 -37.37940216 5.96073389
v -11.30000019 -37.37940979 5.96073103
v -7.50001526 -37.11761093 6.03703880
v -11.30000019 -37.11761856 6.03703642
v -11.50000000 -37.06748581 5.84339094
v -11.30000019 -36.85274887 6.10185003
v -11.50000000 -36.55145645 5.95790672
v -11.50000000 -36.02896118 6.02677631
v -7.50001526 -41.74404907 -0.27264112
v -11.30000019 -41.72621536 -0.54472339
v -7.50001526 -41.72621536 -0.54474491
v -11.30000019 -41.69652939 -0.81578869
v -7.50001526 -41.69652557 -0.81581169
v -11.30000019 -41.65504837 -1.08530116
v -7.50001526 -41.65504456 -1.08532548
v -11.30000019 -41.60184860 -1.35274756
v -7.50001526 -41.60184479 -1.35277319
v -11.30000019 -41.53703690 -1.61761904
v -7.50001526 -41.53702927 -1.61764562
v -11.30000019 -41.46073151 -1.87941122
v -7.50001526 -41.46072388 -1.87943876
v -11.30000019 -41.37307739 -2.13762593
v -7.50001526 -41.37306976 -2.13765407
v -11.30000019 -41.27424622 -2.39177155
v -7.50001526 -41.27423477 -2.39180017
v -11.30000019 -41.04381943 -2.88592887
v -7.50001526 -41.04380417 -2.88595819
v -11.30000019 -40.91265869 -3.12500000
v -7.50001526 -40.91264343 -3.12502933
v -11.30000019 -40.77119827 -3.35812259
v -7.50001526 -40.77117920 -3.35815167
v -11.30000019 -40.45845795 -3.80475903
v -7.50001526 -40.45843506 -3.80478692
v -11.30000019 -40.28777695 -4.01742268
v -7.50001526 -40.28775406 -4.01744986
v -11.30000019 -40.10798264 -4.22243881
v -7.50001526 -40.10795975 -4.22246504
v -11.30000019 -39.72243881 -4.60798359
v -7.50001526 -39.72241211 -4.60800695
v -11.30000019 -39.51742172 -4.78777790
v -7.50001526 -39.51739502 -4.78779984
v -11.30000019 -39.30475998 -4.95845842
v -7.50001526 -39.30473328 -4.95847893
v -11.30000019 -39.08485413 -5.11970043
v -7.50001526 -39.08482742 -5.11971903
v -11.30000019 -38.85812378 -5.27119637
v -7.50001526 -38.85809708 -5.27121353
v -11.30000019 -38.62500000 -5.41265869
v -7.50001526 -38.62497330 -5.41267395
v -11.30000019 -38.38592911 -5.54381752
v -7.50001526 -38.38590240 -5.54383135
v -11.30000019 -38.14136505 -5.66442347
v -7.50001526 -38.14133835 -5.66443539
v -11.30000019 -37.89177322 -5.77424717
v -7.50001526 -37.89174652 -5.77425671
v -11.30000019 -37.63762665 -5.87307882
v -7.50001526 -37.63760376 -5.87308693
v -11.30000019 -37.37940979 -5.96073103
v -7.50001526 -37.37939072 -5.96073723
v -11.30000019 -37.11761856 -6.03703642
v -11.30000019 -36.85274887 -6.10185003
v -11.50000000 -36.02895355 -6.02677679
v -11.50000000 -36.55144119 -5.95790958
v -11.50000000 -37.06746674 -5.84339666
v -11.50000000 -37.57048798 -5.68461943
v -11.50000000 -38.05792999 -5.48265028
v -11.50000000 -38.52611923 -5.23875189
v -11.50000000 -38.97053909 -4.95554066
v -11.50000000 -39.38933182 -4.63416147
v -11.50000000 -39.77793884 -4.27796745
v -11.50000000 -40.13413620 -3.88936090
v -11.50000000 -40.45552063 -3.47057128
v -11.50000000 -40.73873520 -3.02614832
v -11.50000000 -40.98263550 -2.55795813
v -11.50000000 -41.18460846 -2.07051444
v -11.50000000 -41.34339142 -1.56748724
v -11.50000000 -41.45790863 -1.05145562
vn 0.00145133 0.01980562 0.99980280
vn 0.00323786 0.00518860 0.99998130
vn 0.15204485 0.05450856 0.98686938
vn 0.27846222 0.11715636 0.95327498
vn 0.38639025 0.03218120 0.92177380
vn 0.57716430 0.10357084 0.81003361
vn 0.91895809 0.08830757 0.38434073
vn 0.00000300 -0.23663608 0.97159836
vn 0.86532294 0.48120376 0.14021109
vn 0.86308722 0.49905372 0.07762625
vn 0.86407738 0.50294764 0.02034565
vn 0.86703540 0.46395846 0.18163746
vn 0.86692761 0.45074608 0.21275453
vn 0.86697962 0.43513854 0.24290077
vn 0.86696005 0.41765153 0.27193286
vn 0.86660034 0.39914502 0.29947806
vn 0.86432259 0.38188018 0.32728272
vn 0.85904310 0.36537402 0.35853421
vn 0.86495904 0.37664692 -0.33163679
vn 0.85934615 0.35934436 -0.36386237
vn 0.86797683 0.39406340 -0.30220896
vn 0.86850775 0.41289681 -0.27424534
vn 0.86852991 0.43114666 -0.24447565
vn 0.86849854 0.44729209 -0.21363537
vn 0.86858431 0.46104908 -0.18164538
vn 0.86609420 0.48035920 -0.13833250
vn 0.86407738 0.50294764 -0.02034565
vn 0.86308722 0.49905372 -0.07762625
vn 0.51110076 0.85821900 -0.04728810
vn 0.41065561 0.89700859 -0.16351625
vn 0.38340431 0.88735928 -0.25611450
vn 0.38490346 0.84637026 -0.36811235
vn 0.38149911 0.86015452 -0.33851534
vn 0.38500130 0.87008047 -0.30778885
vn 0.38486090 0.81839151 -0.42675217
vn 0.38128500 0.83431725 -0.39816640
vn 0.38491609 0.78637604 -0.48316904
vn 0.38136565 0.80423198 -0.45581921
vn 0.38484616 0.75049660 -0.53725998
vn 0.38133446 0.77022773 -0.51120767
vn 0.38489737 0.71085528 -0.58867545
vn 0.38130957 0.73239065 -0.56409836
vn 0.38486750 0.66776564 -0.63715466
vn 0.38137906 0.69092643 -0.61414224
vn 0.85269767 0.34028708 -0.39637280
vn 0.38491318 0.62127462 -0.68253915
vn 0.38130410 0.64606067 -0.66122068
vn 0.84451691 0.31975450 -0.42959080
vn 0.38488376 0.57183174 -0.72448116
vn 0.38142796 0.59796533 -0.70494693
vn 0.83455652 0.29741760 -0.46374367
vn 0.38128418 0.54697899 -0.74527603
vn 0.82208111 0.27341130 -0.49942859
vn 0.38142200 0.49320431 -0.78183551
vn 0.38489148 0.51943622 -0.76291845
vn 0.80635059 0.24734904 -0.53723102
vn 0.38129851 0.43706482 -0.81460775
vn 0.38490650 0.46460277 -0.79749059
vn 0.78620591 0.21899130 -0.57786078
vn 0.38138022 0.37869082 -0.84329259
vn 0.38486823 0.40736308 -0.82820998
vn 0.76001611 0.18772449 -0.62220176
vn 0.38132224 0.31850337 -0.86784155
vn 0.38491003 0.34819489 -0.85475411
vn 0.72704609 0.15799281 -0.66816334
vn 0.38132701 0.25669042 -0.88808769
vn 0.38485428 0.28725463 -0.87713851
vn 0.37966338 0.19634140 -0.90404965
vn 0.38490765 0.22490400 -0.89513367
vn 0.30713509 0.13967885 -0.94135958
vn 0.35702054 0.16909239 -0.91866430
vn 0.18271816 0.07620544 -0.98020753
vn 0.24906338 0.10865970 -0.96237233
vn 0.03502573 0.01253469 -0.99930780
vn 0.10900742 0.04233521 -0.99313902
vn 0.85286249 0.34715197 0.39001421
vn 0.84529724 0.32759215 0.42208526
vn 0.83621462 0.30632794 0.45487174
vn 0.81091466 0.25890968 0.52476965
vn 0.82493045 0.28352975 0.48897918
vn 0.79318234 0.23223396 0.56296462
vn 0.77044343 0.20310083 0.60429048
vn 0.74090538 0.17061123 0.64957757
vn 0.37393875 0.17395608 0.91099346
vn 0.38043884 0.22469705 0.89709393
vn 0.38056571 0.28504394 0.87972706
vn 0.38054593 0.34424422 0.85830106
vn 0.38059582 0.40178327 0.83289676
vn 0.38054532 0.45750550 0.80366285
vn 0.38062346 0.51109148 0.77065639
vn 0.38052047 0.56234287 0.73414894
vn 0.38061019 0.61093925 0.69418234
vn 0.38054208 0.65675534 0.65104542
vn 0.38060034 0.69949146 0.60485955
vn 0.38055826 0.73900643 0.55591807
vn 0.38057194 0.77511651 0.50434056
vn 0.38058356 0.80758531 0.45051318
vn 0.38053860 0.83639656 0.39450116
vn 0.38067599 0.86121746 0.33673474
vn 0.38304253 0.88544034 0.26319920
vn 0.41065561 0.89700859 0.16351625
vn 0.51110061 0.85821912 0.04728745
vn 0.00016106 0.94207761 0.33539491
vn 0.01518897 0.97189905 0.23490749
vn 0.00005856 0.96267523 0.27065919
vn 0.05103016 0.98359536 0.17302048
vn 0.00055076 0.13043259 0.99145703
vn 0.00064360 0.20053689 0.97968594
vn 0.00059731 0.26586028 0.96401139
vn 0.00060816 0.33137611 0.94349854
vn 0.00054308 0.39538413 0.91851570
vn 0.00056671 0.45645317 0.88974726
vn 0.00049010 0.51514997 0.85709992
vn 0.00048046 0.57380923 0.81898885
vn 0.00034246 0.62966707 0.77686503
vn 0.00047245 0.68198411 0.73136683
vn 0.00050543 0.73150043 0.68184079
vn 0.00030230 0.77446307 0.63261905
vn 0.00027343 0.81593748 0.57814008
vn 0.00023420 0.85374420 0.52069260
vn 0.00021603 0.88733041 0.46113414
vn 0.00017551 0.91694175 0.39902104
vn 0.00007717 0.96257929 -0.27100019
vn 0.00006713 0.97830256 0.20718129
vn 0.00005966 0.97827893 -0.20729287
vn 0.00021766 0.99007583 0.14053400
vn 0.00012756 0.98992125 -0.14161888
vn 0.00003799 0.99733190 0.07300057
vn 0.10816163 0.98796112 0.11060693
vn 0.00007656 0.99723396 -0.07432640
vn -0.00000382 1.00000000 -0.00000000
vn 0.19655730 0.98049233 0.00010316
vn 0.17741219 0.98290260 0.04926866
vn 0.17734083 0.98291386 -0.04930076
vn 0.10810230 0.98797225 -0.11056549
vn 0.05102269 0.98359585 -0.17301992
vn 0.01518966 0.97189907 -0.23490738
vn 0.00000152 0.93923437 -0.34327657
vn 0.00002085 0.89018977 -0.45558991
vn 0.00003394 0.85737395 -0.51469400
vn 0.00007084 0.81902060 -0.57376411
vn 0.00007924 0.77773438 -0.62859306
vn 0.00006873 0.73226797 -0.68101660
vn 0.00005790 0.68350585 -0.72994503
vn 0.00000808 0.63229998 -0.77472365
vn 0.00005100 0.57608238 -0.81739164
vn 0.00007459 0.51723394 -0.85584406
vn 0.00003709 0.45781568 -0.88904713
vn 0.00000575 0.39598664 -0.91825627
vn 0.00000975 0.33137840 -0.94349794
vn 0.00000436 0.26511907 -0.96421568
vn 0.00000350 0.19754016 -0.98029480
vn 0.00000445 0.12899498 -0.99164525
vn 0.00000000 0.00879224 -0.99996135
vn 0.00000303 -0.23658142 -0.97161167
vn 0.38639438 0.03216265 -0.92177272
vn 0.57717048 0.10343462 -0.81004661
vn 0.91898236 0.08824047 -0.38429811
vn 0.41520911 0.90972594 -0.00032917
vn 0.00005155 0.07252450 0.99736663
vn 0.00012355 0.14637970 0.98922847
vn 0.00019306 0.21649428 0.97628387
vn 0.00022943 0.28226350 0.95933689
vn 0.00027713 0.34794495 0.93751493
vn 0.00027511 0.41168724 0.91132516
vn 0.00031403 0.47309937 0.88100902
vn 0.00029381 0.53165723 0.84695957
vn 0.00028778 0.58967377 0.80764148
vn 0.00020969 0.64437772 0.76470734
vn 0.00024695 0.69550876 0.71851757
vn 0.00007077 0.67101121 0.74144720
vn 0.00012135 0.72028515 0.69367809
vn 0.00020497 0.78789231 0.61581301
vn 0.00022505 0.74347318 0.66876571
vn 0.00018560 0.82863719 0.55978601
vn 0.00015768 0.86515618 0.50150250
vn 0.00014336 0.89792383 0.44015085
vn 0.00011204 0.92588022 0.37781715
vn 0.00009978 0.94998174 0.31230543
vn 0.00001250 0.94945444 -0.31390487
vn 0.00002378 0.96772945 -0.25199149
vn 0.00000767 0.92512002 -0.37967480
vn 0.00002537 0.89659345 -0.44285458
vn 0.00002950 0.86350485 -0.50434054
vn 0.00005524 0.82660679 -0.56277989
vn 0.00005681 0.78537977 -0.61901423
vn 0.00004592 0.74053858 -0.67201385
vn 0.00003672 0.69206391 -0.72183623
vn 0.00000104 0.63866902 -0.76948156
vn 0.00002757 0.58568118 -0.81054152
vn 0.00004134 0.52945884 -0.84833563
vn 0.00001762 0.46921018 -0.88308652
vn 0.00000196 0.34053878 -0.94023047
vn -0.00003705 0.15210025 0.98836507
vn -0.00008926 0.21469047 0.97668214
vn -0.00005126 0.28558919 0.95835213
vn -0.00007464 0.34806092 0.93747191
vn -0.00004103 0.41424869 0.91016373
vn -0.00004139 0.47482417 0.88008068
vn -0.00002400 0.53524809 0.84469490
vn -0.00000675 0.59246078 0.80559929
vn -0.00013021 0.63878033 0.76938916
vn -0.00023537 0.68767290 0.72602061
vn -0.00029244 0.73807623 0.67471726
vn -0.00017639 0.78114210 0.62435326
vn -0.00018731 0.82237133 0.56895111
vn -0.00018317 0.86009432 0.51013502
vn -0.00019659 0.89299460 0.45006734
vn -0.00018676 0.92229078 0.38649669
vn -0.00019633 0.94667829 0.32218035
vn 0.00004763 0.97386999 0.22710624
vn -0.00021230 0.96673488 0.25578044
vn 0.00015164 0.98589179 -0.16738388
vn 0.00023968 0.98634292 0.16470455
vn -0.00021486 0.98210064 0.18835679
vn 0.00019167 0.99494372 -0.10043383
vn 0.00017846 0.99520307 0.09783058
vn -0.00021706 0.99272866 0.12037344
vn 0.00009814 0.99941635 -0.03416053
vn 0.00009375 0.99951562 0.03112097
vn -0.00021013 0.99867710 0.05141986
vn -0.00005293 0.99974205 -0.02271202
vn 0.00001363 0.99544741 -0.09531236
vn 0.00000591 0.98525044 -0.17111861
vn -0.00001713 0.97093787 -0.23933167
vn -0.00001211 0.95202484 -0.30602074
vn -0.00000392 0.92804691 -0.37246333
vn -0.00000843 0.89993874 -0.43601635
vn -0.00000130 0.86708115 -0.49816692
vn -0.00000328 0.83022124 -0.55743403
vn -0.00000091 0.78905669 -0.61432039
vn -0.00000364 0.71540069 -0.69871443
vn -0.00000215 0.66273508 -0.74885393
vn -0.00000086 0.69497315 -0.71903569
vn -0.00004654 0.58154698 -0.81351282
vn -0.00003877 0.52235211 -0.85272989
vn -0.00004729 0.46149218 -0.88714428
vn -0.00007886 0.39459852 -0.91885363
vn -0.00004468 0.33305344 -0.94290795
vn -0.00004601 0.26436685 -0.96442219
vn -0.00001503 0.13185624 -0.99126885
vn -0.00000008 0.05476165 -0.99849946
vn -0.00000303 -0.23658142 0.97161167
vn -0.00005317 0.07252452 0.99736663
vn -0.00323786 0.00518860 0.99998130
vn -0.00043633 0.13742677 0.99051183
vn -0.27847223 0.11715593 0.95327211
vn -0.00145133 0.01980562 0.99980280
vn -0.15205049 0.05450443 0.98686874
vn -0.00078448 0.20185062 0.97941601
vn -0.37394515 0.17395757 0.91099055
vn -0.00051013 0.27146676 0.96244768
vn -0.38044618 0.22469558 0.89709119
vn -0.00070531 0.33493221 0.94224196
vn -0.38057321 0.28504444 0.87972365
vn -0.00049064 0.40125633 0.91596567
vn -0.38054709 0.34424885 0.85829869
vn -0.00057576 0.46237099 0.88668638
vn -0.38059581 0.40178165 0.83289756
vn -0.00047207 0.52322210 0.85219623
vn -0.38055125 0.45750457 0.80366057
vn -0.00029892 0.58253825 0.81280323
vn -0.38061112 0.51110611 0.77065279
vn -0.00093442 0.63829985 0.76978726
vn -0.38045480 0.56238544 0.73415037
vn -0.00021364 0.67431865 0.73844046
vn -0.38051652 0.61096206 0.69421361
vn -0.00065145 0.69482516 0.71917840
vn -0.00030053 0.72339450 0.69043487
vn -0.38044137 0.65679311 0.65106618
vn -0.00026106 0.74645198 0.66543923
vn -0.00021437 0.79077196 0.61211083
vn -0.38046779 0.69954122 0.60488539
vn -0.00017247 0.83140677 0.55566424
vn -0.38039442 0.73907004 0.55594564
vn -0.00009721 0.86814352 0.49631323
vn -0.38037621 0.77519181 0.50437247
vn -0.00010262 0.90036840 0.43512841
vn -0.38035316 0.80767693 0.45054351
vn -0.00004122 0.92834792 0.37171244
vn -0.38026990 0.83650366 0.39453317
vn -0.00004540 0.95200325 0.30608791
vn -0.38036905 0.86134162 0.33676402
vn -0.00023466 0.96674537 -0.25574076
vn -0.00004179 0.97092341 0.23939035
vn -0.00022043 0.98209897 -0.18836552
vn -0.00000738 0.98510934 0.17192902
vn -0.01797038 0.97360602 0.22752665
vn -0.00021948 0.99272680 -0.12038878
vn -0.00000302 0.99470017 0.10281811
vn -0.06316972 0.98541729 0.15799477
vn -0.00021238 0.99866837 -0.05158915
vn -0.00005834 0.99975643 0.02206969
vn -0.13227997 0.98723185 0.08874281
vn -0.19157641 0.98108683 -0.02769696
vn -0.19126594 0.98114569 0.02775741
vn -0.13228504 0.98723124 -0.08874202
vn -0.06317643 0.98541700 -0.15799392
vn -0.01798161 0.97360821 -0.22751642
vn -0.00004819 0.94900514 -0.31526059
vn -0.00002052 0.92491644 -0.38017047
vn -0.38498605 0.87008177 -0.30780425
vn -0.38322250 0.88743925 -0.25610954
vn -0.00004986 0.89582400 -0.44440899
vn -0.38490499 0.84636926 -0.36811306
vn -0.38148506 0.86016498 -0.33850459
vn -0.00002378 0.86307886 -0.50506919
vn -0.38486157 0.81839065 -0.42675322
vn -0.38128632 0.83431731 -0.39816500
vn -0.00004830 0.82545139 -0.56447321
vn -0.38491642 0.78637517 -0.48317021
vn -0.38136661 0.80423228 -0.45581788
vn -0.00003923 0.78423050 -0.62046959
vn -0.38484581 0.75049591 -0.53726119
vn -0.38133583 0.77022804 -0.51120618
vn -0.00003867 0.73914076 -0.67355099
vn -0.38489080 0.71085938 -0.58867479
vn -0.38130507 0.73239027 -0.56410189
vn -0.00005938 0.68952886 -0.72425821
vn -0.38488469 0.66779321 -0.63711538
vn -0.38135738 0.69092250 -0.61416012
vn -0.00004908 0.63591697 -0.77175748
vn -0.38490038 0.62131172 -0.68251260
vn -0.38130764 0.64601794 -0.66126039
vn -0.00003436 0.58763326 -0.80912740
vn -0.38481926 0.57188708 -0.72447174
vn -0.38138740 0.59792481 -0.70500324
vn -0.00006935 0.53208118 -0.84669334
vn -0.38484432 0.51947652 -0.76291480
vn -0.38123786 0.54696184 -0.74531231
vn -0.00003578 0.47021407 -0.88255240
vn -0.38487776 0.46462693 -0.79749039
vn -0.38139414 0.49319282 -0.78185635
vn -0.38481516 0.40740908 -0.82821201
vn -0.38124502 0.43703977 -0.81464623
vn -0.00000795 0.34011818 -0.94038270
vn -0.38484914 0.34824796 -0.85475991
vn -0.38131752 0.37865858 -0.84333542
vn -0.38480013 0.28730150 -0.87714691
vn -0.38126558 0.31847181 -0.86787802
vn -0.38486428 0.22494173 -0.89514284
vn -0.38128120 0.25666249 -0.88811543
vn -0.35698357 0.16912343 -0.91867295
vn -0.37962575 0.19631640 -0.90407088
vn -0.24904783 0.10867555 -0.96237456
vn -0.30711480 0.13966603 -0.94136810
vn -0.03502573 0.01253469 -0.99930780
vn -0.10900831 0.04233458 -0.99313895
vn -0.18271392 0.07620420 -0.98020842
vn -0.00000299 -0.23663609 -0.97159835
vn -0.38639438 0.03216265 -0.92177272
vn -0.38639025 0.03218120 0.92177380
vn -0.57716430 0.10357083 0.81003362
vn -0.91920095 0.08649602 0.38417190
vn -0.84241407 0.51768967 -0.14945210
vn -0.83841117 0.53836442 -0.08503210
vn -0.83640630 0.54761482 -0.02329184
vn -0.84488551 0.49772027 -0.19606887
vn -0.84477279 0.48288038 -0.23061977
vn -0.84484385 0.46536529 -0.26395834
vn -0.84486118 0.44564866 -0.29598457
vn -0.84483196 0.42382170 -0.32654882
vn -0.84482046 0.39982738 -0.35555092
vn -0.84477522 0.37390184 -0.38282142
vn -0.72704459 0.15799150 -0.66816529
vn -0.76001386 0.18772218 -0.62220520
vn -0.78620380 0.21898934 -0.57786439
vn -0.80634885 0.24734728 -0.53723445
vn -0.82207978 0.27340954 -0.49943174
vn -0.83455552 0.29741576 -0.46374665
vn -0.84334568 0.32041205 -0.43139794
vn -0.84487941 0.34596153 -0.40803113
vn -0.41092601 0.89692600 -0.16328979
vn -0.51008039 0.85882085 -0.04737862
vn -0.84310988 0.38182511 0.37864933
vn -0.84319560 0.35515271 0.40359353
vn -0.84219064 0.32938677 0.42687151
vn -0.83621327 0.30632382 0.45487700
vn -0.82492879 0.28352645 0.48898388
vn -0.81091292 0.25890666 0.52477384
vn -0.79317998 0.23223098 0.56296917
vn -0.77044071 0.20309781 0.60429496
vn -0.74090340 0.17060948 0.64958030
vn -0.84316203 0.45058113 0.29335036
vn -0.84316837 0.46944046 0.26209302
vn -0.84311365 0.42966532 0.32333741
vn -0.84312663 0.40664369 0.35182154
vn -0.57717066 0.10343461 -0.81004648
vn -0.91922456 0.08642623 -0.38413111
vn -0.84307786 0.48633328 0.22956408
vn -0.84319644 0.50061917 0.19595969
vn -0.38270003 0.88554635 0.26334075
vn -0.84157275 0.51852586 0.15128196
vn -0.41092601 0.89692600 0.16328979
vn -0.83841117 0.53836442 0.08503210
vn -0.83640630 0.54761482 0.02329184
vn -0.51008067 0.85882063 0.04737970
vn -0.40549961 0.91409521 0.00006907
vn 0.97839067 0.17666543 -0.10742918
vn 0.98151977 0.17408905 -0.07944777
vn 0.98297601 0.17252463 -0.06319344
vn 0.98163284 0.17411150 0.07798815
vn 0.98297547 0.17252656 0.06319655
vn 0.98397366 0.17134809 -0.04935246
vn 0.98397366 0.17134809 0.04935246
vn 0.98466378 0.17071060 -0.03598802
vn 0.98466378 0.17071060 0.03598802
vn 0.98505372 0.17067275 -0.02323747
vn 0.98505372 0.17067275 0.02323747
vn 0.98518288 0.17115386 -0.01100273
vn 0.98518288 0.17115386 0.01100273
vn 0.98513651 0.17177328 0.00000000
vn 0.97972846 0.17639942 0.09494938
vn 0.97638653 0.18045504 0.11876587
vn -0.94441123 0.20368598 -0.25806869
vn -0.96643119 0.17878373 -0.18451866
vn -0.95253890 0.20246856 -0.22732384
vn -0.97158443 0.17795487 -0.15606332
vn -0.95555762 0.21205142 -0.20480193
vn -0.97159419 0.17849662 0.15538239
vn -0.97495053 0.17974736 -0.13100516
vn -0.95566026 0.22939763 -0.18463530
vn -0.97492410 0.18027437 0.13047661
vn -0.97727079 0.18186677 -0.10893242
vn -0.95574429 0.24483031 -0.16312867
vn -0.97723259 0.18234529 0.10847420
vn -0.97894311 0.18386600 -0.08867740
vn -0.95585234 0.25821314 -0.14025792
vn -0.97890305 0.18428219 0.08825466
vn -0.98019563 0.18540998 -0.06956773
vn -0.95594547 0.26954934 -0.11623860
vn -0.98016385 0.18573069 0.06915875
vn -0.98117575 0.18619461 -0.05124179
vn -0.95599399 0.27880279 -0.09134822
vn -0.98115259 0.18642512 0.05084562
vn -0.98191742 0.18631595 -0.03353414
vn -0.95560683 0.28730802 -0.06534287
vn -0.98190978 0.18642557 0.03314639
vn -0.98252983 0.18539242 -0.01627241
vn -0.95425551 0.29647407 -0.03872396
vn -0.98253299 0.18540796 0.01589998
vn -0.98280515 0.18464566 -0.00015172
vn -0.95172961 0.30673447 -0.01116707
vn -0.95173500 0.30672791 0.01088484
vn -0.95427906 0.29643608 0.03843348
vn -0.95565375 0.28722427 0.06502409
vn -0.95606538 0.27867421 0.09099273
vn -0.95604612 0.26936182 0.11584481
vn -0.95597047 0.25800280 0.13983924
vn -0.95590475 0.24457963 0.16256359
vn -0.95585765 0.22904051 0.18405598
vn -0.96650834 0.17901614 0.18388817
vn -0.95575469 0.21172105 0.20422333
vn -0.95247917 0.20256286 0.22749004
vn -0.94445126 0.20363227 0.25796456
vn 0.00000442 -0.43763247 0.89915395
vn 0.00003228 -0.58532838 -0.81079633
vn 0.00004008 -0.51237062 -0.85876443
vn 0.00003721 -0.43662720 -0.89964253
vn 0.00001434 -0.35894529 -0.93335860
vn 0.00001250 -0.27541377 -0.96132578
vn 0.38478138 -0.25094395 0.88824007
vn 0.37915632 -0.31647361 0.86953145
vn 0.37911553 -0.39104329 0.83866356
vn 0.37914903 -0.46265817 0.80136972
vn 0.37915441 -0.53074865 0.75798932
vn 0.00002137 -0.65591146 -0.75483784
vn 0.37913147 -0.59478576 0.70886475
vn -0.38080079 -0.65433074 -0.65333150
vn 0.37916375 -0.65430693 0.65430672
vn 0.00002786 -0.77557876 -0.63125081
vn 0.37915182 -0.75799084 0.53074833
vn 0.37913106 -0.70886485 0.59478590
vn -0.38080481 -0.75764189 -0.53006269
vn 0.00000022 -0.85616117 0.51670887
vn 0.00002477 -0.87246588 -0.48867504
vn 0.37914889 -0.80136999 0.46265781
vn -0.38078766 -0.83812135 -0.39058080
vn 0.00000389 -0.93369054 0.35808097
vn 0.37911699 -0.83866359 0.39104180
vn 0.00001200 -0.94480527 -0.32763241
vn -0.38083766 -0.89313778 0.23930647
vn 0.37915601 -0.86953190 0.31647274
vn 0.00001011 -0.97005960 -0.24286698
vn 0.37912683 -0.89382287 0.23946506
vn 0.00000116 -0.98823536 -0.15294073
vn 0.00000956 -0.99492881 0.10058159
vn 0.37913254 -0.91128696 0.16066918
vn 0.00001326 -0.99725321 -0.07406771
vn 0.37916186 -0.92181183 0.08061788
vn 0.37912247 -0.92534650 -0.00000002
vn 0.37916257 -0.92181150 -0.08061825
vn 0.37913539 -0.91128568 -0.16066972
vn 0.37912939 -0.89382182 -0.23946494
vn 0.37915494 -0.86953245 -0.31647252
vn 0.37911550 -0.83866390 -0.39104257
vn 0.37915119 -0.80136845 -0.46265860
vn 0.37915480 -0.75798948 -0.53074814
vn 0.37913087 -0.70886503 -0.59478581
vn 0.37916185 -0.65430752 -0.65430724
vn 0.37913038 -0.59478545 -0.70886558
vn 0.37915405 -0.53074825 -0.75798977
vn 0.37914883 -0.46265753 -0.80137018
vn 0.37911593 -0.39104300 -0.83866351
vn 0.37915592 -0.31647301 -0.86953184
vn 0.38478206 -0.25094320 -0.88823999
vn 0.99593580 -0.00365392 0.08999181
vn 0.99708625 0.00033989 0.07628163
vn 0.98959248 -0.01823774 0.14273793
vn 0.93637130 -0.07547574 0.34280053
vn 0.92035686 -0.10236415 0.37744513
vn 0.92014167 -0.13404661 0.36792773
vn 0.92010590 -0.16560611 0.35493626
vn 0.92013639 -0.19590161 0.33907459
vn 0.92012582 -0.22466689 0.32076980
vn 0.92010744 -0.25178964 0.30000714
vn 0.92010820 -0.30000317 0.25179159
vn 0.92014326 -0.27688889 0.27689155
vn 0.92012483 -0.32077015 0.22467043
vn 0.92013644 -0.33907354 0.19590322
vn 0.92010726 -0.35493220 0.16560726
vn 0.92014197 -0.36792631 0.13404842
vn 0.92011927 -0.37825997 0.10148852
vn 0.92011694 -0.38568023 0.06808499
vn 0.92013752 -0.39009448 0.03425275
vn 0.92009899 -0.39168590 -0.00000004
vn 0.92013791 -0.39009357 -0.03425258
vn 0.92011838 -0.38567701 -0.06808389
vn 0.92012001 -0.37825894 -0.10148570
vn 0.92014054 -0.36793071 -0.13404618
vn 0.92010620 -0.35493535 -0.16560641
vn 0.92013755 -0.33907195 -0.19590074
vn 0.92012570 -0.32077039 -0.22466654
vn 0.92010702 -0.30000827 -0.25178983
vn 0.92010733 -0.25179194 -0.30000553
vn 0.92014207 -0.27689372 -0.27689067
vn 0.92012610 -0.22466896 -0.32076754
vn 0.92013654 -0.19590362 -0.33907302
vn 0.92010658 -0.16560792 -0.35493365
vn 0.92014167 -0.13404851 -0.36792704
vn 0.92035711 -0.10236485 -0.37744434
vn 0.93636403 -0.07548121 -0.34281919
vn 0.98959210 -0.01823843 -0.14274043
vn 0.99593579 -0.00365394 -0.08999191
vn 0.00000988 -0.22248193 0.97493681
vn 0.37876865 -0.04005356 0.92462426
vn 0.38842160 0.01103465 0.92141570
vn 0.37156103 -0.15448244 0.91546577
vn 0.00000987 -0.22240699 -0.97495391
vn 0.37156097 -0.15448249 -0.91546579
vn 0.38842160 0.01103465 -0.92141570
vn 0.37876865 -0.04005356 -0.92462426
vn 0.89406760 0.01416788 -0.44770794
vn 0.88747170 -0.01764417 -0.46052434
vn 0.86818322 -0.07012443 -0.49126415
vn 0.86818322 -0.07012443 0.49126415
vn 0.89406760 0.01416788 0.44770794
vn 0.88747170 -0.01764417 0.46052434
vn 0.99772684 0.00330782 0.06730690
vn 0.99708625 0.00033989 -0.07628163
vn 0.99772683 0.00330780 -0.06730695
vn 0.99899100 0.00620360 -0.04448036
vn 0.99947649 0.00788137 -0.03137886
vn 0.99973870 0.00925433 -0.02090184
vn 0.99984015 0.01013407 -0.01473011
vn 0.99988144 0.01062249 -0.01114803
vn 0.99989616 0.01128930 -0.00895683
vn 0.99990683 0.01202974 -0.00645068
vn 0.99991047 0.01273865 -0.00409525
vn 0.99990950 0.01326818 -0.00222289
vn 0.99990126 0.01404702 -0.00039239
vn 0.99990367 0.01378923 0.00158448
vn 0.99990960 0.01283367 0.00401072
vn 0.99990683 0.01202976 0.00645057
vn 0.99989411 0.01130198 0.00916684
vn 0.99986530 0.01057859 0.01254876
vn 0.99980130 0.00976019 0.01738118
vn 0.99965894 0.00870204 0.02462284
vn 0.99944626 0.00755306 0.03240551
vn 0.99899102 0.00616913 0.04448465
vn -0.86820102 -0.07005113 -0.49124314
vn -0.89406760 0.01416788 -0.44770794
vn -0.88747170 -0.01764417 -0.46052434
vn -0.37152644 -0.15442756 -0.91548907
vn -0.37876865 -0.04005356 -0.92462426
vn -0.38842160 0.01103465 -0.92141570
vn -0.86820102 -0.07005113 0.49124315
vn -0.88747170 -0.01764417 0.46052434
vn -0.89406760 0.01416788 0.44770794
vn -0.38842160 0.01103465 0.92141570
vn -0.37876865 -0.04005356 0.92462426
vn -0.37152638 -0.15442761 0.91548908
vn -0.99708625 0.00033989 -0.07628163
vn -0.99772684 0.00330782 -0.06730690
vn -0.99593580 -0.00365392 -0.08999181
vn -0.99708625 0.00033989 0.07628163
vn -0.99593579 -0.00365394 0.08999191
vn -0.99772683 0.00330780 0.06730695
vn -0.99899100 0.00616908 0.04448505
vn -0.99944625 0.00755302 0.03240588
vn -0.99965893 0.00870200 0.02462307
vn -0.99980145 0.00970643 0.01740239
vn -0.99986307 0.01026872 0.01297688
vn -0.99988557 0.01087260 0.01051836
vn -0.99990271 0.01130609 0.00817017
vn -0.99990860 0.01193088 0.00636028
vn -0.99991293 0.01239643 0.00452399
vn -0.99990946 0.01315986 0.00280968
vn -0.99990465 0.01377030 0.00103152
vn -0.99990161 0.01401976 -0.00046293
vn -0.99990950 0.01326816 -0.00222287
vn -0.99991047 0.01273868 -0.00409518
vn -0.99990683 0.01202976 -0.00645057
vn -0.99989616 0.01128934 -0.00895669
vn -0.99988144 0.01062253 -0.01114794
vn -0.99984015 0.01013409 -0.01472996
vn -0.99973871 0.00925436 -0.02090160
vn -0.99947650 0.00788142 -0.03137848
vn -0.99899102 0.00620365 -0.04447996
vn -0.00000987 -0.22240699 0.97495391
vn -0.00000988 -0.22248193 -0.97493681
vn 0.00000165 -0.99904844 0.04361429
vn -0.38399533 -0.92245460 0.04031258
vn -0.92159578 -0.38815102 0.00000008
vn -0.38081857 -0.92464978 -0.00000031
vn -0.38399582 -0.92245441 -0.04031212
vn -0.92162733 -0.38659153 -0.03391243
vn -0.00000025 -0.99677046 0.08030352
vn -0.38088234 -0.92110739 0.08055944
vn 0.00000117 -0.99143539 0.13059808
vn -0.38395522 -0.91545075 0.12053343
vn -0.92162768 -0.38659071 0.03391236
vn -0.38084479 -0.91059442 0.16054610
vn 0.00000147 -0.97629639 0.21643787
vn -0.38397185 -0.90145217 0.19987396
vn -0.92161057 -0.38220871 0.06745708
vn 0.00000197 -0.95371525 0.30071118
vn -0.38396986 -0.88059300 0.27771048
vn -0.92160985 -0.37486694 0.10054882
vn -0.00000022 -0.94052163 0.33973381
vn -0.38088043 -0.86887052 0.31621847
vn 0.00000170 -0.92386708 0.38271349
vn -0.38395589 -0.85306384 0.35335530
vn -0.92162796 -0.36464229 0.13280774
vn -0.38082208 -0.83802703 0.39074959
vn 0.00000229 -0.88700940 0.46175136
vn -0.38395959 -0.81900190 0.42639292
vn -0.92159958 -0.35174404 0.16410468
vn 0.00000001 -0.86602551 0.49999981
vn -0.38087527 -0.80076211 0.46229219
vn 0.00000187 -0.84339125 0.53729991
vn -0.38395992 -0.77873825 0.49612652
vn -0.92162562 -0.33604632 0.19411104
vn -0.38086331 -0.75741749 0.53034129
vn 0.00000150 -0.79335030 0.60876539
vn -0.38395747 -0.73254137 0.56210302
vn -0.92161978 -0.31788894 0.22262886
vn -0.38082954 -0.70832648 0.59434204
vn 0.00000146 -0.73727816 0.67558931
vn -0.38395208 -0.68075344 0.62382334
vn -0.92160382 -0.29730293 0.24951427
vn -0.38088497 -0.65380734 0.65380625
vn -0.92163067 -0.27440673 0.27440455
vn 0.00000152 -0.67558514 0.73728198
vn -0.38395199 -0.62382384 0.68075303
vn -0.38083008 -0.59434144 0.70832670
vn -0.92160406 -0.24951592 0.29730081
vn 0.00000180 -0.60875841 0.79335565
vn -0.38395779 -0.56210361 0.73254074
vn -0.38086332 -0.53033829 0.75741959
vn -0.92161980 -0.22263044 0.31788776
vn 0.00000248 -0.53734579 0.84336203
vn -0.38397911 -0.49616642 0.77870336
vn -0.38085191 -0.46238071 0.80072211
vn -0.92162428 -0.19411056 0.33605026
vn 0.00000152 -0.46178390 0.88699247
vn -0.38395864 -0.42640305 0.81899707
vn 0.00000000 -0.40971325 0.91221437
vn -0.38082282 -0.39075372 0.83802477
vn -0.92159992 -0.16410667 0.35174223
vn 0.00000157 -0.38267825 0.92388168
vn -0.38395723 -0.35335884 0.85306176
vn -0.38088208 -0.31621403 0.86887141
vn -0.92162868 -0.13280832 0.36464027
vn 0.00000145 -0.30070478 0.95371727
vn -0.38396389 -0.27769549 0.88060033
vn -0.00000003 -0.26917288 0.96309188
vn -0.38398445 -0.24444039 0.89039589
vn -0.92165042 -0.10094653 0.37466024
vn -0.61175840 -0.18362297 0.76943763
vn -0.93636403 -0.07548121 0.34281919
vn -0.98959210 -0.01823843 0.14274043
vn 0.00000224 -0.99905325 -0.04350416
vn -0.38088170 -0.92110759 -0.08056014
vn -0.00000018 -0.99542849 -0.09550979
vn -0.38395260 -0.91545184 -0.12053354
vn 0.00000167 -0.99144522 -0.13052347
vn -0.38084227 -0.91059542 -0.16054641
vn -0.00000005 -0.98455645 -0.17506741
vn -0.38396886 -0.90145379 -0.19987240
vn 0.00000110 -0.97631266 -0.21636448
vn -0.38084326 -0.89314210 -0.23928141
vn -0.00000001 -0.96062613 -0.27784426
vn -0.38396466 -0.88059904 -0.27769852
vn 0.00000125 -0.95374646 -0.30061219
vn -0.38088320 -0.86886946 -0.31621805
vn -0.00000024 -0.93759445 -0.34773070
vn -0.38399724 -0.85308511 -0.35325899
vn 0.00000326 -0.92392543 -0.38257261
vn -0.38395960 -0.81901494 -0.42636787
vn 0.00000148 -0.88711039 -0.46155732
vn -0.38087441 -0.80076224 -0.46229269
vn -0.00000013 -0.86102720 -0.50855891
vn -0.38402508 -0.77880701 -0.49596813
vn 0.00000464 -0.84349992 -0.53712930
vn -0.38395081 -0.73257871 -0.56205890
vn 0.00000179 -0.79349395 -0.60857814
vn -0.38083288 -0.70832506 -0.59434159
vn 0.00000000 -0.75841289 -0.65177442
vn -0.38407756 -0.68093199 -0.62355116
vn 0.00000704 -0.73754325 -0.67529989
vn -0.38392953 -0.62392910 -0.68066922
vn 0.00000169 -0.67571579 -0.73716224
vn -0.38083208 -0.59434105 -0.70832595
vn 0.00000001 -0.63034252 -0.77631714
vn -0.38395978 -0.56210390 -0.73253948
vn 0.00000148 -0.60898034 -0.79318532
vn -0.38086507 -0.53033736 -0.75741936
vn 0.00000001 -0.56355647 -0.82607754
vn -0.38396061 -0.49612830 -0.77873677
vn 0.00000146 -0.53758026 -0.84321259
vn -0.38087471 -0.46229012 -0.80076357
vn 0.00000001 -0.48858130 -0.87251837
vn -0.38395980 -0.42639259 -0.81900197
vn 0.00000150 -0.46202029 -0.88686936
vn -0.38082356 -0.39075294 -0.83802479
vn 0.00000000 -0.40520094 -0.91422765
vn -0.38395765 -0.35335850 -0.85306172
vn 0.00000184 -0.38279069 -0.92383510
vn -0.38088308 -0.31621381 -0.86887105
vn 0.00000001 -0.32764871 -0.94479962
vn -0.38396418 -0.27769575 -0.88060013
vn 0.00000142 -0.30080917 -0.95368435
vn -0.38398445 -0.24444023 -0.89039593
vn -0.61175708 -0.18362330 -0.76943860
vn -0.98959248 -0.01823774 -0.14273793
vn -0.93637130 -0.07547574 -0.34280053
vn -0.92165017 -0.10094588 -0.37466104
vn -0.92162881 -0.13280656 -0.36464059
vn -0.92159949 -0.16410533 -0.35174396
vn -0.92162428 -0.19411242 -0.33604920
vn -0.92161976 -0.22262869 -0.31788911
vn -0.92160435 -0.24951388 -0.29730160
vn -0.92163140 -0.27438274 -0.27442609
vn -0.92160449 -0.29729960 -0.24951575
vn -0.92161854 -0.31788100 -0.22264531
vn -0.92162455 -0.33604781 -0.19411352
vn -0.92160041 -0.35173826 -0.16411238
vn -0.92162897 -0.36463922 -0.13280919
vn -0.92160890 -0.37486826 -0.10055260
vn -0.92160920 -0.38221180 -0.06745836
f 505//505 740//740 741//741
f 158//158 21//21 399//399
f 347//347 351//351 348//348
f 348//348 351//351 349//349
f 349//349 351//351 345//345
f 583//583 585//585 584//584
f 352//352 353//353 354//354
f 367//367 366//366 389//389
f 389//389 368//368 367//367
f 43//43 20//20 47//47
f 73//73 156//156 72//72
f 349//349 345//345 72//72
f 72//72 345//345 73//73
f 158//158 68//68 65//65
f 65//65 62//62 158//158
f 688//688 686//686 685//685
f 19//19 21//21 158//158
f 158//158 20//20 19//19
f 19//19 20//20 43//43
f 412//412 7//7 158//158
f 744//744 745//745 584//584
f 505//505 540//540 504//504
f 389//389 366//366 365//365
f 365//365 344//344 389//389
f 388//388 345//345 351//351
f 388//388 351//351 389//389
f 389//389 344//344 388//388
f 584//584 745//745 581//581
f 581//581 583//583 584//584
f 584//584 549//549 621//621
f 621//621 744//744 584//584
f 350//350 744//744 621//621
f 155//155 621//621 549//549
f 350//350 621//621 155//155
f 563//563 562//562 158//158
f 554//554 550//550 552//552
f 555//555 550//550 554//554
f 543//543 555//555 554//554
f 541//541 540//540 505//505
f 157//157 68//68 158//158
f 158//158 156//156 157//157
f 157//157 156//156 73//73
f 73//73 70//70 157//157
f 66//66 151//151 342//342
f 619//619 618//618 389//389
f 610//610 354//354 389//389
f 44//44 19//19 43//43
f 33//33 182//182 227//227
f 430//430 427//427 389//389
f 369//369 368//368 389//389
f 369//369 332//332 335//335
f 415//415 371//371 389//389
f 330//330 371//371 326//326
f 58//58 54//54 51//51
f 147//147 54//54 58//58
f 58//58 332//332 147//147
f 55//55 51//51 54//54
f 232//232 47//47 324//324
f 324//324 320//320 232//232
f 232//232 320//320 43//43
f 43//43 47//47 232//232
f 50//50 49//49 145//145
f 145//145 49//49 326//326
f 75//75 156//156 74//74
f 75//75 72//72 156//156
f 124//124 106//106 215//215
f 592//592 688//688 620//620
f 548//548 592//592 620//620
f 686//686 688//688 689//689
f 592//592 591//591 588//588
f 588//588 587//587 592//592
f 247//247 353//353 352//352
f 247//247 251//251 353//353
f 85//85 253//253 195//195
f 134//134 135//135 216//216
f 205//205 275//275 273//273
f 277//277 275//275 206//206
f 275//275 119//119 206//206
f 158//158 569//569 568//568
f 7//7 578//578 577//577
f 579//579 7//7 580//580
f 576//576 7//7 577//577
f 7//7 576//576 575//575
f 558//558 546//546 548//548
f 7//7 574//574 573//573
f 574//574 7//7 575//575
f 572//572 7//7 573//573
f 158//158 7//7 571//571
f 7//7 572//572 571//571
f 399//399 23//23 24//24
f 23//23 35//35 24//24
f 22//22 23//23 399//399
f 22//22 399//399 21//21
f 21//21 39//39 22//22
f 37//37 23//23 22//22
f 406//406 408//408 158//158
f 158//158 404//404 406//406
f 158//158 399//399 400//400
f 399//399 24//24 400//400
f 400//400 24//24 25//25
f 409//409 7//7 411//411
f 7//7 412//412 411//411
f 158//158 408//408 410//410
f 410//410 412//412 158//158
f 11//11 411//411 412//412
f 583//583 581//581 746//746
f 742//742 741//741 740//740
f 740//740 749//749 742//742
f 742//742 461//461 743//743
f 744//744 461//461 742//742
f 505//505 741//741 742//742
f 742//742 743//743 505//505
f 745//745 744//744 748//748
f 748//748 742//742 749//749
f 744//744 742//742 748//748
f 748//748 581//581 745//745
f 539//539 504//504 540//540
f 460//460 740//740 505//505
f 503//503 732//732 733//733
f 504//504 539//539 503//503
f 73//73 345//345 153//153
f 153//153 70//70 73//73
f 152//152 344//344 68//68
f 343//343 388//388 344//344
f 344//344 152//152 343//343
f 69//69 151//151 66//66
f 69//69 65//65 68//68
f 69//69 66//66 62//62
f 62//62 65//65 69//69
f 506//506 541//541 505//505
f 505//505 743//743 506//506
f 743//743 461//461 506//506
f 506//506 550//550 555//555
f 555//555 541//541 506//506
f 549//549 550//550 506//506
f 506//506 155//155 549//549
f 506//506 461//461 744//744
f 542//542 555//555 543//543
f 542//542 541//541 555//555
f 68//68 157//157 71//71
f 71//71 157//157 70//70
f 71//71 152//152 68//68
f 71//71 343//343 152//152
f 383//383 382//382 354//354
f 337//337 367//367 368//368
f 341//341 365//365 366//366
f 366//366 342//342 341//341
f 344//344 365//365 341//341
f 151//151 69//69 341//341
f 193//193 63//63 150//150
f 594//594 619//619 389//389
f 389//389 582//582 594//594
f 594//594 582//582 593//593
f 617//617 616//616 389//389
f 618//618 617//617 389//389
f 613//613 612//612 389//389
f 614//614 613//613 389//389
f 615//615 614//614 389//389
f 389//389 616//616 615//615
f 611//611 610//610 389//389
f 389//389 612//612 611//611
f 608//608 354//354 609//609
f 354//354 610//610 609//609
f 137//137 123//123 181//181
f 137//137 299//299 125//125
f 140//140 184//184 37//37
f 32//32 182//182 33//33
f 33//33 25//25 32//32
f 25//25 24//24 32//32
f 38//38 23//23 37//37
f 38//38 35//35 23//23
f 37//37 184//184 38//38
f 183//183 35//35 139//139
f 106//106 126//126 214//214
f 287//287 215//215 214//214
f 214//214 215//215 106//106
f 43//43 320//320 143//143
f 143//143 44//44 43//43
f 318//318 313//313 317//317
f 231//231 313//313 318//318
f 317//317 362//362 318//318
f 318//318 362//362 314//314
f 181//181 123//123 284//284
f 284//284 137//137 181//181
f 124//124 215//215 288//288
f 389//389 421//421 418//418
f 389//389 427//427 424//424
f 424//424 421//421 389//389
f 389//389 371//371 370//370
f 370//370 369//369 389//389
f 333//333 332//332 370//370
f 332//332 369//369 370//370
f 417//417 415//415 389//389
f 371//371 330//330 329//329
f 333//333 370//370 329//329
f 329//329 370//370 371//371
f 364//364 417//417 419//419
f 324//324 323//323 364//364
f 364//364 320//320 324//324
f 158//158 51//51 48//48
f 52//52 49//49 48//48
f 48//48 55//55 52//52
f 51//51 55//55 48//48
f 53//53 57//57 58//58
f 58//58 51//51 53//53
f 53//53 61//61 57//57
f 53//53 51//51 158//158
f 54//54 147//147 191//191
f 236//236 332//332 333//333
f 236//236 147//147 332//332
f 236//236 191//191 147//147
f 57//57 61//61 148//148
f 52//52 55//55 146//146
f 55//55 329//329 146//146
f 46//46 47//47 20//20
f 326//326 327//327 322//322
f 322//322 145//145 326//326
f 154//154 75//75 74//74
f 349//349 72//72 242//242
f 242//242 348//348 349//349
f 72//72 75//75 242//242
f 242//242 75//75 348//348
f 681//681 463//463 682//682
f 463//463 681//681 464//464
f 464//464 682//682 678//678
f 464//464 681//681 682//682
f 687//687 688//688 685//685
f 243//243 620//620 688//688
f 688//688 687//687 243//243
f 548//548 620//620 545//545
f 545//545 243//243 8//8
f 620//620 243//243 545//545
f 680//680 682//682 684//684
f 686//686 689//689 684//684
f 690//690 689//689 688//688
f 587//587 689//689 690//690
f 690//690 688//688 592//592
f 592//592 587//587 690//690
f 118//118 205//205 273//273
f 253//253 251//251 250//250
f 250//250 195//195 253//253
f 6//6 84//84 4//4
f 85//85 195//195 162//162
f 275//275 205//205 272//272
f 175//175 206//206 119//119
f 119//119 96//96 175//175
f 570//570 158//158 571//571
f 570//570 569//569 158//158
f 568//568 567//567 158//158
f 564//564 563//563 158//158
f 565//565 564//564 158//158
f 566//566 565//565 158//158
f 158//158 567//567 566//566
f 7//7 579//579 578//578
f 580//580 7//7 559//559
f 557//557 508//508 559//559
f 7//7 557//557 559//559
f 5//5 4//4 3//3
f 6//6 4//4 5//5
f 7//7 6//6 5//5
f 7//7 82//82 83//83
f 81//81 82//82 7//7
f 78//78 80//80 7//7
f 7//7 77//77 78//78
f 37//37 22//22 40//40
f 40//40 22//22 39//39
f 39//39 185//185 40//40
f 40//40 185//185 230//230
f 401//401 404//404 158//158
f 158//158 400//400 401//401
f 401//401 400//400 25//25
f 412//412 410//410 27//27
f 27//27 11//11 412//412
f 407//407 7//7 409//409
f 403//403 402//402 7//7
f 712//712 757//757 714//714
f 583//583 746//746 595//595
f 679//679 682//682 680//680
f 680//680 677//677 679//679
f 678//678 682//682 679//679
f 679//679 464//464 678//678
f 747//747 746//746 581//581
f 581//581 748//748 747//747
f 538//538 503//503 539//539
f 345//345 388//388 346//346
f 388//388 343//343 346//346
f 354//354 605//605 604//604
f 606//606 605//605 354//354
f 607//607 606//606 354//354
f 354//354 608//608 607//607
f 603//603 354//354 604//604
f 354//354 602//602 601//601
f 354//354 599//599 598//598
f 598//598 589//589 354//354
f 596//596 589//589 598//598
f 354//354 601//601 600//600
f 600//600 599//599 354//354
f 383//383 251//251 253//253
f 383//383 354//354 353//353
f 353//353 251//251 383//383
f 453//453 387//387 451//451
f 453//453 375//375 387//387
f 453//453 454//454 375//375
f 366//366 367//367 339//339
f 339//339 342//342 366//366
f 338//338 337//337 368//368
f 60//60 149//149 338//338
f 64//64 337//337 149//149
f 64//64 149//149 60//60
f 240//240 342//342 151//151
f 151//151 341//341 240//240
f 240//240 341//341 342//342
f 36//36 35//35 183//183
f 36//36 24//24 35//35
f 36//36 32//32 24//24
f 133//133 128//128 217//217
f 21//21 19//19 41//41
f 19//19 44//44 41//41
f 320//320 321//321 316//316
f 316//316 143//143 320//320
f 230//230 185//185 310//310
f 299//299 137//137 225//225
f 225//225 284//284 299//299
f 137//137 284//284 225//225
f 216//216 135//135 289//289
f 136//136 137//137 125//125
f 125//125 299//299 286//286
f 286//286 136//136 125//125
f 285//285 288//288 212//212
f 306//306 138//138 33//33
f 33//33 227//227 306//306
f 184//184 140//140 307//307
f 301//301 227//227 182//182
f 301//301 306//306 227//227
f 436//436 437//437 433//433
f 389//389 436//436 433//433
f 433//433 430//430 389//389
f 421//421 424//424 425//425
f 416//416 417//417 389//389
f 419//419 417//417 416//416
f 389//389 418//418 416//416
f 416//416 418//418 419//419
f 363//363 364//364 419//419
f 317//317 321//321 363//363
f 363//363 362//362 317//317
f 363//363 321//321 320//320
f 320//320 364//364 363//363
f 417//417 364//364 372//372
f 371//371 415//415 372//372
f 415//415 417//417 372//372
f 326//326 371//371 372//372
f 372//372 327//327 326//326
f 372//372 323//323 327//327
f 372//372 364//364 323//323
f 427//427 430//430 431//431
f 311//311 307//307 140//140
f 311//311 140//140 37//37
f 50//50 46//46 45//45
f 45//45 46//46 20//20
f 45//45 49//49 50//50
f 45//45 48//48 49//49
f 45//45 20//20 158//158
f 158//158 48//48 45//45
f 60//60 61//61 56//56
f 61//61 53//53 56//56
f 56//56 64//64 60//60
f 56//56 53//53 158//158
f 328//328 236//236 333//333
f 191//191 236//236 328//328
f 52//52 146//146 190//190
f 235//235 146//146 329//329
f 235//235 330//330 325//325
f 235//235 329//329 330//330
f 325//325 190//190 235//235
f 235//235 190//190 146//146
f 327//327 323//323 233//233
f 50//50 327//327 233//233
f 323//323 46//46 233//233
f 233//233 46//46 50//50
f 144//144 46//46 323//323
f 47//47 46//46 144//144
f 50//50 145//145 189//189
f 145//145 322//322 189//189
f 392//392 288//288 394//394
f 210//210 282//282 392//392
f 212//212 288//288 392//392
f 463//463 511//511 462//462
f 548//548 545//545 462//462
f 685//685 463//463 462//462
f 462//462 545//545 8//8
f 462//462 687//687 685//685
f 8//8 687//687 462//462
f 465//465 464//464 676//676
f 465//465 677//677 674//674
f 676//676 677//677 465//465
f 464//464 465//465 513//513
f 483//483 637//637 485//485
f 485//485 523//523 483//483
f 686//686 684//684 683//683
f 683//683 684//684 682//682
f 685//685 686//686 683//683
f 682//682 463//463 683//683
f 683//683 463//463 685//685
f 691//691 689//689 587//587
f 111//111 257//257 87//87
f 82//82 81//81 87//87
f 255//255 257//257 382//382
f 255//255 383//383 253//253
f 382//382 383//383 255//255
f 382//382 257//257 381//381
f 354//354 382//382 381//381
f 259//259 381//381 257//257
f 273//273 387//387 270//270
f 387//387 375//375 270//270
f 95//95 96//96 119//119
f 95//95 119//119 275//275
f 95//95 15//15 96//96
f 249//249 247//247 352//352
f 352//352 245//245 249//249
f 2//2 5//5 3//3
f 251//251 247//247 246//246
f 108//108 84//84 85//85
f 85//85 162//162 108//108
f 251//251 84//84 108//108
f 108//108 250//250 251//251
f 195//195 250//250 108//108
f 108//108 162//162 195//195
f 96//96 15//15 14//14
f 135//135 134//134 30//30
f 134//134 29//29 30//30
f 30//30 136//136 135//135
f 137//137 136//136 30//30
f 29//29 27//27 30//30
f 102//102 29//29 159//159
f 102//102 133//133 101//101
f 101//101 11//11 102//102
f 104//104 285//285 212//212
f 104//104 106//106 124//124
f 288//288 285//285 104//104
f 104//104 101//101 106//106
f 100//100 101//101 104//104
f 179//179 282//282 210//210
f 100//100 99//99 9//9
f 9//9 101//101 100//100
f 277//277 206//206 274//274
f 206//206 175//175 274//274
f 85//85 84//84 83//83
f 83//83 6//6 7//7
f 83//83 84//84 6//6
f 28//28 410//410 408//408
f 28//28 27//27 410//410
f 408//408 406//406 28//28
f 28//28 30//30 27//27
f 718//718 716//716 755//755
f 712//712 714//714 713//713
f 713//713 714//714 497//497
f 497//497 714//714 715//715
f 502//502 538//538 537//537
f 503//503 538//538 502//502
f 722//722 469//469 754//754
f 740//740 460//460 738//738
f 738//738 749//749 740//740
f 504//504 503//503 735//735
f 749//749 738//738 750//750
f 750//750 738//738 736//736
f 724//724 722//722 753//753
f 753//753 722//722 754//754
f 728//728 502//502 457//457
f 729//729 502//502 728//728
f 732//732 503//503 458//458
f 456//456 677//677 676//676
f 456//456 679//679 677//677
f 676//676 464//464 456//456
f 464//464 679//679 456//456
f 241//241 153//153 345//345
f 345//345 346//346 241//241
f 241//241 346//346 70//70
f 70//70 153//153 241//241
f 543//543 554//554 544//544
f 561//561 553//553 158//158
f 561//561 560//560 553//553
f 158//158 562//562 561//561
f 432//432 435//435 354//354
f 354//354 429//429 432//432
f 450//450 423//423 451//451
f 354//354 603//603 602//602
f 354//354 454//454 452//452
f 454//454 453//453 452//452
f 367//367 337//337 340//340
f 340//340 339//339 367//367
f 67//67 339//339 150//150
f 67//67 150//150 63//63
f 62//62 66//66 67//67
f 368//368 369//369 334//334
f 334//334 338//338 368//368
f 334//334 369//369 335//335
f 335//335 237//237 334//334
f 334//334 148//148 61//61
f 334//334 237//237 148//148
f 149//149 337//337 238//238
f 238//238 338//338 149//149
f 337//337 338//338 238//238
f 220//220 133//133 132//132
f 132//132 29//29 134//134
f 132//132 159//159 29//29
f 132//132 133//133 102//102
f 102//102 159//159 132//132
f 42//42 39//39 21//21
f 21//21 41//41 42//42
f 231//231 318//318 42//42
f 142//142 41//41 317//317
f 317//317 313//313 142//142
f 142//142 42//42 41//41
f 44//44 143//143 187//187
f 143//143 316//316 187//187
f 141//141 185//185 39//39
f 39//39 314//314 141//141
f 141//141 310//310 185//185
f 314//314 310//310 141//141
f 356//356 357//357 373//373
f 389//389 354//354 442//442
f 384//384 275//275 277//277
f 435//435 432//432 447//447
f 127//127 289//289 135//135
f 135//135 136//136 127//127
f 216//216 289//289 223//223
f 217//217 128//128 294//294
f 298//298 299//299 373//373
f 298//298 286//286 299//299
f 224//224 286//286 298//298
f 289//289 127//127 298//298
f 221//221 294//294 128//128
f 221//221 133//133 220//220
f 128//128 133//133 221//221
f 373//373 299//299 303//303
f 299//299 284//284 303//303
f 303//303 284//284 123//123
f 359//359 431//431 358//358
f 183//183 139//139 304//304
f 306//306 301//301 305//305
f 305//305 358//358 306//306
f 309//309 359//359 305//305
f 359//359 358//358 305//305
f 421//421 425//425 422//422
f 422//422 425//425 362//362
f 419//419 418//418 422//422
f 422//422 418//418 421//421
f 422//422 363//363 419//419
f 362//362 363//363 422//422
f 362//362 425//425 361//361
f 314//314 362//362 361//361
f 428//428 424//424 427//427
f 428//428 425//425 424//424
f 427//427 431//431 428//428
f 428//428 431//431 359//359
f 308//308 359//359 309//309
f 309//309 304//304 308//308
f 308//308 304//304 139//139
f 308//308 139//139 35//35
f 158//158 62//62 59//59
f 59//59 56//56 158//158
f 62//62 67//67 59//59
f 59//59 67//67 63//63
f 63//63 64//64 59//59
f 64//64 56//56 59//59
f 57//57 148//148 192//192
f 148//148 237//237 192//192
f 47//47 144//144 188//188
f 393//393 392//392 394//394
f 393//393 447//447 391//391
f 507//507 558//558 509//509
f 556//556 558//558 548//548
f 511//511 510//510 556//556
f 510//510 509//509 556//556
f 556//556 509//509 558//558
f 548//548 462//462 556//556
f 556//556 462//462 511//511
f 514//514 513//513 465//465
f 466//466 515//515 514//514
f 514//514 465//465 466//466
f 512//512 511//511 463//463
f 463//463 464//464 512//512
f 464//464 513//513 512//512
f 483//483 523//523 522//522
f 468//468 515//515 466//466
f 634//634 485//485 482//482
f 488//488 485//485 634//634
f 482//482 485//485 637//637
f 588//588 597//597 692//692
f 587//587 588//588 692//692
f 692//692 691//691 587//587
f 109//109 253//253 85//85
f 85//85 163//163 109//109
f 111//111 87//87 88//88
f 112//112 259//259 88//88
f 88//88 87//87 81//81
f 110//110 87//87 164//164
f 252//252 255//255 253//253
f 253//253 109//109 252//252
f 252//252 109//109 163//163
f 110//110 255//255 86//86
f 86//86 163//163 85//85
f 86//86 87//87 110//110
f 82//82 87//87 86//86
f 85//85 83//83 86//86
f 86//86 83//83 82//82
f 263//263 261//261 260//260
f 379//379 261//261 263//263
f 265//265 377//377 263//263
f 256//256 257//257 111//111
f 256//256 259//259 257//257
f 258//258 259//259 112//112
f 261//261 259//259 258//258
f 381//381 259//259 380//380
f 380//380 379//379 354//354
f 354//354 381//381 380//380
f 380//380 261//261 379//379
f 380//380 259//259 261//261
f 90//90 78//78 77//77
f 77//77 91//91 90//90
f 80//80 78//78 90//90
f 267//267 270//270 375//375
f 267//267 377//377 265//265
f 375//375 454//454 376//376
f 454//454 377//377 376//376
f 376//376 267//267 375//375
f 377//377 267//267 376//376
f 455//455 454//454 354//354
f 354//354 377//377 455//455
f 455//455 377//377 454//454
f 173//173 272//272 205//205
f 205//205 118//118 173//173
f 118//118 95//95 173//173
f 15//15 95//95 16//16
f 16//16 414//414 15//15
f 17//17 7//7 16//16
f 7//7 414//414 16//16
f 3//3 4//4 160//160
f 248//248 249//249 245//245
f 194//194 84//84 251//251
f 251//251 246//246 194//194
f 161//161 4//4 84//84
f 84//84 194//194 161//161
f 161//161 194//194 246//246
f 414//414 14//14 15//15
f 106//106 101//101 129//129
f 129//129 101//101 133//133
f 129//129 126//126 106//106
f 129//129 133//133 217//217
f 105//105 104//104 212//212
f 100//100 104//104 105//105
f 105//105 392//392 100//100
f 212//212 392//392 105//105
f 124//124 288//288 211//211
f 211//211 104//104 124//124
f 288//288 104//104 211//211
f 100//100 179//179 103//103
f 103//103 99//99 100//100
f 103//103 179//179 210//210
f 97//97 14//14 13//13
f 96//96 14//14 97//97
f 403//403 9//9 12//12
f 13//13 402//402 12//12
f 402//402 403//403 12//12
f 12//12 9//9 99//99
f 407//407 9//9 405//405
f 405//405 9//9 403//403
f 7//7 407//407 405//405
f 405//405 403//403 7//7
f 409//409 411//411 10//10
f 411//411 11//11 10//10
f 10//10 407//407 409//409
f 10//10 9//9 407//407
f 11//11 101//101 10//10
f 101//101 9//9 10//10
f 121//121 97//97 98//98
f 98//98 97//97 13//13
f 13//13 12//12 98//98
f 98//98 12//12 99//99
f 26//26 406//406 404//404
f 26//26 28//28 406//406
f 26//26 401//401 25//25
f 404//404 401//401 26//26
f 30//30 28//28 26//26
f 756//756 714//714 757//757
f 474//474 714//714 756//756
f 756//756 716//716 474//474
f 756//756 755//755 716//716
f 718//718 755//755 720//720
f 720//720 755//755 754//754
f 754//754 469//469 720//720
f 469//469 722//722 500//500
f 500//500 722//722 723//723
f 712//712 713//713 476//476
f 476//476 713//713 497//497
f 484//484 494//494 701//701
f 484//484 701//701 700//700
f 504//504 736//736 737//737
f 737//737 738//738 504//504
f 736//736 738//738 737//737
f 505//505 504//504 739//739
f 504//504 738//738 739//739
f 739//739 460//460 505//505
f 739//739 738//738 460//460
f 459//459 736//736 504//504
f 504//504 735//735 459//459
f 734//734 750//750 736//736
f 751//751 750//750 734//734
f 732//732 751//751 734//734
f 733//733 732//732 734//734
f 736//736 459//459 734//734
f 734//734 459//459 735//735
f 734//734 503//503 733//733
f 734//734 735//735 503//503
f 730//730 751//751 732//732
f 732//732 458//458 730//730
f 729//729 728//728 730//730
f 730//730 502//502 729//729
f 751//751 730//730 752//752
f 752//752 730//730 728//728
f 457//457 502//502 727//727
f 420//420 453//453 451//451
f 451//451 423//423 420//420
f 420//420 423//423 354//354
f 354//354 452//452 420//420
f 420//420 452//452 453//453
f 448//448 432//432 429//429
f 391//391 447//447 448//448
f 448//448 447//447 432//432
f 423//423 450//450 426//426
f 426//426 429//429 354//354
f 354//354 423//423 426//426
f 193//193 150//150 336//336
f 219//219 132//132 134//134
f 186//186 313//313 231//231
f 231//231 42//42 186//186
f 186//186 142//142 313//313
f 42//42 142//142 186//186
f 434//434 433//433 437//437
f 430//430 433//433 434//434
f 434//434 431//431 430//430
f 434//434 358//358 431//431
f 439//439 436//436 389//389
f 389//389 442//442 439//439
f 354//354 435//435 438//438
f 441//441 445//445 444//444
f 444//444 442//442 441//441
f 441//441 438//438 445//445
f 441//441 442//442 354//354
f 354//354 438//438 441//441
f 275//275 384//384 386//386
f 273//273 275//275 386//386
f 386//386 387//387 273//273
f 451//451 387//387 386//386
f 386//386 450//450 451//451
f 386//386 384//384 450//450
f 213//213 127//127 136//136
f 213//213 286//286 224//224
f 136//136 286//286 213//213
f 224//224 298//298 213//213
f 213//213 298//298 127//127
f 130//130 134//134 216//216
f 216//216 223//223 130//130
f 397//397 396//396 394//394
f 394//394 294//294 397//397
f 394//394 288//288 291//291
f 291//291 294//294 394//394
f 291//291 215//215 287//287
f 291//291 288//288 215//215
f 287//287 214//214 291//291
f 291//291 214//214 126//126
f 289//289 298//298 297//297
f 297//297 223//223 289//289
f 297//297 298//298 373//373
f 297//297 130//130 223//223
f 138//138 306//306 302//302
f 306//306 358//358 302//302
f 309//309 36//36 228//228
f 228//228 36//36 183//183
f 228//228 304//304 309//309
f 183//183 304//304 228//228
f 314//314 361//361 315//315
f 315//315 361//361 311//311
f 230//230 310//310 315//315
f 315//315 310//310 314//314
f 315//315 40//40 230//230
f 360//360 361//361 425//425
f 425//425 428//428 360//360
f 360//360 428//428 359//359
f 311//311 361//361 360//360
f 359//359 308//308 360//360
f 229//229 38//38 184//184
f 184//184 307//307 229//229
f 331//331 237//237 335//335
f 331//331 192//192 237//237
f 324//324 47//47 234//234
f 47//47 188//188 234//234
f 391//391 281//281 283//283
f 283//283 393//393 391//391
f 392//392 393//393 283//283
f 210//210 392//392 283//283
f 283//283 209//209 280//280
f 283//283 281//281 209//209
f 283//283 103//103 210//210
f 99//99 103//103 283//283
f 277//277 207//207 279//279
f 208//208 281//281 279//279
f 121//121 208//208 279//279
f 279//279 97//97 121//121
f 394//394 396//396 395//395
f 395//395 393//393 394//394
f 396//396 444//444 395//395
f 444//444 445//445 395//395
f 488//488 525//525 524//524
f 523//523 485//485 524//524
f 524//524 485//485 488//488
f 491//491 622//622 623//623
f 493//493 527//527 492//492
f 493//493 701//701 494//494
f 520//520 477//477 521//521
f 521//521 477//477 480//480
f 480//480 522//522 521//521
f 483//483 522//522 480//480
f 472//472 520//520 519//519
f 477//477 520//520 472//472
f 517//517 518//518 470//470
f 515//515 468//468 516//516
f 470//470 518//518 516//516
f 516//516 468//468 470//470
f 488//488 634//634 633//633
f 79//79 88//88 81//81
f 7//7 80//80 79//79
f 79//79 81//81 7//7
f 197//197 87//87 257//257
f 197//197 164//164 87//87
f 110//110 164//164 197//197
f 255//255 252//252 196//196
f 196//196 252//252 163//163
f 196//196 86//86 255//255
f 163//163 86//86 196//196
f 379//379 263//263 378//378
f 378//378 263//263 377//377
f 354//354 379//379 378//378
f 378//378 377//377 354//354
f 111//111 88//88 165//165
f 165//165 256//256 111//111
f 261//261 258//258 199//199
f 92//92 91//91 77//77
f 92//92 267//267 202//202
f 203//203 267//267 266//266
f 270//270 267//267 203//203
f 94//94 95//95 118//118
f 94//94 118//118 273//273
f 94//94 93//93 17//17
f 17//17 16//16 94//94
f 94//94 16//16 95//95
f 80//80 90//90 89//89
f 89//89 79//79 80//80
f 88//88 79//79 89//89
f 112//112 88//88 89//89
f 261//261 199//199 89//89
f 200//200 90//90 263//263
f 200//200 263//263 260//260
f 263//263 90//90 114//114
f 114//114 90//90 91//91
f 265//265 202//202 264//264
f 264//264 267//267 265//265
f 202//202 267//267 264//264
f 247//247 249//249 244//244
f 1//1 2//2 3//3
f 107//107 246//246 247//247
f 247//247 4//4 107//107
f 107//107 161//161 246//246
f 4//4 161//161 107//107
f 14//14 414//414 413//413
f 413//413 402//402 13//13
f 13//13 14//14 413//413
f 7//7 402//402 413//413
f 413//413 414//414 7//7
f 217//217 294//294 290//290
f 96//96 97//97 120//120
f 277//277 96//96 120//120
f 120//120 207//207 277//277
f 177//177 208//208 121//121
f 121//121 98//98 177//177
f 122//122 98//98 99//99
f 209//209 281//281 122//122
f 281//281 98//98 122//122
f 34//34 25//25 33//33
f 34//34 26//26 25//25
f 33//33 138//138 34//34
f 138//138 302//302 34//34
f 497//497 715//715 498//498
f 716//716 717//717 498//498
f 498//498 533//533 532//532
f 498//498 532//532 497//497
f 474//474 716//716 498//498
f 469//469 500//500 721//721
f 721//721 720//720 469//469
f 467//467 722//722 724//724
f 723//723 722//722 467//467
f 710//710 757//757 712//712
f 712//712 476//476 710//710
f 757//757 710//710 758//758
f 758//758 710//710 478//478
f 674//674 677//677 675//675
f 675//675 677//677 680//680
f 669//669 671//671 667//667
f 470//470 662//662 659//659
f 470//470 468//468 664//664
f 702//702 760//760 704//704
f 702//702 700//700 760//760
f 484//484 700//700 702//702
f 702//702 494//494 484//484
f 760//760 700//700 761//761
f 696//696 627//627 761//761
f 694//694 626//626 627//627
f 694//694 627//627 696//696
f 627//627 626//626 624//624
f 623//623 632//632 624//624
f 503//503 502//502 731//731
f 502//502 730//730 731//731
f 731//731 458//458 503//503
f 731//731 730//730 458//458
f 753//753 752//752 726//726
f 724//724 753//753 726//726
f 726//726 752//752 728//728
f 726//726 725//725 724//724
f 726//726 728//728 457//457
f 457//457 727//727 726//726
f 449//449 448//448 429//429
f 429//429 426//426 449//449
f 449//449 426//426 450//450
f 340//340 336//336 239//239
f 239//239 336//336 150//150
f 150//150 339//339 239//239
f 339//339 340//340 239//239
f 222//222 219//219 295//295
f 132//132 219//219 222//222
f 131//131 132//132 222//222
f 222//222 295//295 131//131
f 357//357 356//356 443//443
f 443//443 442//442 444//444
f 443//443 439//439 442//442
f 374//374 397//397 398//398
f 374//374 398//398 295//295
f 373//373 357//357 374//374
f 374//374 297//297 373//373
f 295//295 297//297 374//374
f 398//398 397//397 296//296
f 296//296 397//397 294//294
f 295//295 398//398 296//296
f 296//296 293//293 131//131
f 131//131 295//295 296//296
f 294//294 221//221 296//296
f 220//220 293//293 296//296
f 296//296 221//221 220//220
f 218//218 291//291 126//126
f 294//294 291//291 218//218
f 126//126 129//129 218//218
f 218//218 290//290 294//294
f 218//218 129//129 217//217
f 217//217 290//290 218//218
f 292//292 297//297 295//295
f 130//130 297//297 292//292
f 134//134 130//130 292//292
f 292//292 219//219 134//134
f 295//295 219//219 292//292
f 300//300 303//303 226//226
f 300//300 302//302 303//303
f 300//300 226//226 180//180
f 355//355 302//302 358//358
f 358//358 434//434 355//355
f 303//303 302//302 355//355
f 437//437 356//356 355//355
f 355//355 434//434 437//437
f 355//355 356//356 373//373
f 373//373 303//303 355//355
f 311//311 360//360 312//312
f 312//312 360//360 308//308
f 307//307 311//311 312//312
f 312//312 229//229 307//307
f 38//38 229//229 312//312
f 319//319 188//188 144//144
f 319//319 234//234 188//188
f 319//319 144//144 323//323
f 319//319 323//323 324//324
f 324//324 234//234 319//319
f 390//390 281//281 391//391
f 390//390 279//279 281//281
f 391//391 448//448 390//390
f 448//448 449//449 390//390
f 276//276 279//279 207//207
f 447//447 393//393 446//446
f 393//393 395//395 446//446
f 446//446 395//395 445//445
f 445//445 438//438 446//446
f 435//435 447//447 446//446
f 446//446 438//438 435//435
f 490//490 525//525 488//488
f 622//622 491//491 490//490
f 623//623 622//622 490//490
f 492//492 527//527 526//526
f 526//526 491//491 492//492
f 525//525 490//490 526//526
f 526//526 490//490 491//491
f 492//492 491//491 693//693
f 693//693 491//491 626//626
f 626//626 491//491 625//625
f 492//492 696//696 697//697
f 697//697 493//493 492//492
f 701//701 493//493 699//699
f 478//478 710//710 496//496
f 527//527 493//493 528//528
f 528//528 493//493 494//494
f 494//494 529//529 528//528
f 704//704 481//481 705//705
f 705//705 702//702 704//704
f 708//708 758//758 478//478
f 646//646 477//477 647//647
f 647//647 480//480 646//646
f 646//646 480//480 477//477
f 483//483 480//480 642//642
f 519//519 517//517 473//473
f 473//473 472//472 519//519
f 473//473 517//517 470//470
f 470//470 659//659 473//473
f 257//257 255//255 254//254
f 254//254 197//197 257//257
f 254//254 255//255 110//110
f 110//110 197//197 254//254
f 259//259 256//256 198//198
f 198//198 88//88 259//259
f 256//256 165//165 198//198
f 198//198 165//165 88//88
f 91//91 92//92 115//115
f 265//265 91//91 115//115
f 115//115 202//202 265//265
f 18//18 7//7 17//17
f 17//17 93//93 18//18
f 93//93 92//92 18//18
f 270//270 203//203 268//268
f 116//116 92//92 93//93
f 116//116 203//203 266//266
f 93//93 94//94 117//117
f 112//112 89//89 166//166
f 166//166 89//89 199//199
f 166//166 258//258 112//112
f 166//166 199//199 258//258
f 260//260 261//261 113//113
f 261//261 89//89 113//113
f 265//265 263//263 262//262
f 263//263 114//114 262//262
f 207//207 120//120 176//176
f 176//176 120//120 97//97
f 176//176 276//276 207//207
f 278//278 281//281 208//208
f 208//208 177//177 278//278
f 209//209 122//122 178//178
f 178//178 122//122 99//99
f 280//280 209//209 178//178
f 30//30 26//26 31//31
f 26//26 34//34 31//31
f 137//137 30//30 31//31
f 31//31 34//34 180//180
f 123//123 137//137 31//31
f 180//180 226//226 31//31
f 499//499 498//498 717//717
f 721//721 500//500 499//499
f 499//499 500//500 534//534
f 534//534 533//533 499//499
f 533//533 498//498 499//499
f 474//474 498//498 715//715
f 474//474 715//715 714//714
f 534//534 500//500 536//536
f 500//500 535//535 536//536
f 537//537 535//535 501//501
f 501//501 502//502 537//537
f 501//501 535//535 500//500
f 501//501 727//727 502//502
f 501//501 500//500 723//723
f 723//723 467//467 501//501
f 725//725 726//726 501//501
f 501//501 726//726 727//727
f 724//724 725//725 501//501
f 501//501 467//467 724//724
f 667//667 663//663 665//665
f 665//665 663//663 662//662
f 665//665 662//662 470//470
f 470//470 664//664 665//665
f 665//665 664//664 468//468
f 671//671 669//669 670//670
f 670//670 669//669 466//466
f 668//668 468//468 466//466
f 466//466 669//669 668//668
f 668//668 669//669 468//468
f 656//656 654//654 472//472
f 657//657 656//656 661//661
f 654//654 656//656 657//657
f 647//647 477//477 649//649
f 638//638 639//639 482//482
f 638//638 644//644 639//639
f 641//641 644//644 638//638
f 638//638 482//482 637//637
f 640//640 641//641 638//638
f 638//638 637//637 483//483
f 483//483 640//640 638//638
f 647//647 648//648 645//645
f 645//645 480//480 647//647
f 626//626 694//694 489//489
f 492//492 693//693 489//489
f 489//489 693//693 626//626
f 631//631 636//636 632//632
f 633//633 636//636 631//631
f 623//623 624//624 625//625
f 625//625 624//624 626//626
f 625//625 491//491 623//623
f 440//440 356//356 437//437
f 440//440 443//443 356//356
f 439//439 443//443 440//440
f 440//440 437//437 436//436
f 436//436 439//439 440//440
f 279//279 390//390 385//385
f 385//385 384//384 277//277
f 277//277 279//279 385//385
f 385//385 390//390 449//449
f 450//450 384//384 385//385
f 385//385 449//449 450//450
f 696//696 761//761 698//698
f 698//698 761//761 700//700
f 698//698 699//699 493//493
f 698//698 700//700 701//701
f 701//701 699//699 698//698
f 497//497 532//532 531//531
f 531//531 496//496 497//497
f 495//495 529//529 494//494
f 494//494 705//705 495//495
f 495//495 705//705 481//481
f 497//497 496//496 711//711
f 711//711 496//496 710//710
f 711//711 476//476 497//497
f 711//711 710//710 476//476
f 494//494 702//702 703//703
f 703//703 705//705 494//494
f 702//702 705//705 703//703
f 478//478 496//496 709//709
f 709//709 708//708 478//478
f 496//496 495//495 709//709
f 706//706 481//481 704//704
f 479//479 641//641 640//640
f 479//479 640//640 483//483
f 483//483 642//642 479//479
f 169//169 92//92 202//202
f 202//202 115//115 169//169
f 169//169 115//115 92//92
f 76//76 92//92 77//77
f 76//76 18//18 92//92
f 76//76 77//77 7//7
f 7//7 18//18 76//76
f 170//170 116//116 93//93
f 170//170 268//268 203//203
f 203//203 116//116 170//170
f 171//171 116//116 266//266
f 92//92 116//116 171//171
f 204//204 269//269 117//117
f 273//273 270//270 204//204
f 270//270 269//269 204//204
f 167//167 89//89 90//90
f 167//167 113//113 89//89
f 90//90 200//200 167//167
f 167//167 200//200 260//260
f 260//260 113//113 167//167
f 201//201 91//91 265//265
f 265//265 262//262 201//201
f 471//471 716//716 718//718
f 718//718 499//499 471//471
f 471//471 717//717 716//716
f 471//471 499//499 717//717
f 719//719 499//499 718//718
f 721//721 499//499 719//719
f 718//718 720//720 719//719
f 719//719 720//720 721//721
f 666//666 669//669 667//667
f 667//667 665//665 666//666
f 666//666 665//665 468//468
f 673//673 675//675 671//671
f 671//671 670//670 673//673
f 674//674 675//675 673//673
f 673//673 670//670 466//466
f 661//661 656//656 658//658
f 472//472 473//473 655//655
f 655//655 656//656 472//472
f 653//653 648//648 647//647
f 477//477 472//472 651//651
f 641//641 479//479 643//643
f 643//643 479//479 642//642
f 643//643 644//644 641//641
f 643//643 642//642 480//480
f 480//480 645//645 643//643
f 648//648 644//644 643//643
f 643//643 645//645 648//648
f 492//492 489//489 695//695
f 695//695 489//489 694//694
f 695//695 696//696 492//492
f 695//695 694//694 696//696
f 639//639 636//636 635//635
f 482//482 639//639 635//635
f 635//635 636//636 633//633
f 635//635 634//634 482//482
f 635//635 633//633 634//634
f 629//629 632//632 623//623
f 629//629 631//631 632//632
f 487//487 631//631 629//629
f 488//488 633//633 630//630
f 633//633 631//631 630//630
f 630//630 490//490 488//488
f 487//487 490//490 630//630
f 630//630 631//631 487//487
f 696//696 698//698 486//486
f 486//486 698//698 493//493
f 486//486 697//697 696//696
f 493//493 697//697 486//486
f 529//529 495//495 530//530
f 496//496 531//531 530//530
f 530//530 495//495 496//496
f 707//707 495//495 481//481
f 481//481 706//706 707//707
f 707//707 706//706 708//708
f 708//708 709//709 707//707
f 707//707 709//709 495//495
f 704//704 760//760 759//759
f 759//759 706//706 704//704
f 758//758 708//708 759//759
f 708//708 706//706 759//759
f 93//93 117//117 172//172
f 117//117 269//269 172//172
f 273//273 204//204 271//271
f 174//174 117//117 94//94
f 174//174 204//204 117//117
f 174//174 271//271 204//204
f 168//168 262//262 114//114
f 168//168 201//201 262//262
f 168//168 114//114 91//91
f 91//91 201//201 168//168
f 468//468 669//669 666//666
f 466//466 465//465 672//672
f 672//672 673//673 466//466
f 465//465 674//674 672//672
f 674//674 673//673 672//672
f 660//660 659//659 662//662
f 660//660 658//658 659//659
f 661//661 658//658 660//660
f 660//660 663//663 661//661
f 662//662 663//663 660//660
f 658//658 473//473 659//659
f 658//658 655//655 473//473
f 656//656 655//655 658//658
f 657//657 653//653 652//652
f 654//654 657//657 652//652
f 472//472 654//654 652//652
f 652//652 651//651 472//472
f 477//477 651//651 652//652
f 628//628 490//490 487//487
f 487//487 629//629 628//628
f 623//623 490//490 628//628
f 628//628 629//629 623//623
f 650//650 653//653 647//647
f 650//650 652//652 653//653
f 647//647 649//649 650//650
f 649//649 652//652 650//650
f 475//475 649//649 477//477
f 477//477 652//652 475//475
f 475//475 652//652 649//649
f 57//57 332//332 58//58
f 335//335 332//332 57//57
f 548//548 546//546 591//591
f 591//591 592//592 548//548
f 582//582 586//586 585//585
f 585//585 583//583 582//582
f 351//351 586//586 582//582
f 389//389 351//351 582//582
f 585//585 552//552 550//550
f 584//584 585//585 550//550
f 550//550 549//549 584//584
f 326//326 49//49 330//330
f 330//330 49//49 52//52
f 507//507 508//508 558//558
f 558//558 508//508 557//557
f 547//547 558//558 557//557
f 546//546 558//558 547//547
f 350//350 155//155 506//506
f 506//506 744//744 350//350
f 551//551 156//156 553//553
f 553//553 156//156 158//158
f 552//552 551//551 553//553
f 553//553 554//554 552//552
f 341//341 69//69 68//68
f 68//68 344//344 341//341
f 329//329 55//55 54//54
f 329//329 54//54 333//333
f 154//154 552//552 585//585
f 585//585 586//586 154//154
f 74//74 156//156 154//154
f 154//154 351//351 347//347
f 154//154 551//551 552//552
f 154//154 586//586 351//351
f 154//154 156//156 551//551
f 348//348 75//75 154//154
f 154//154 347//347 348//348
f 243//243 687//687 8//8
f 589//589 590//590 352//352
f 352//352 354//354 589//589
f 591//591 590//590 589//589
f 589//589 588//588 591//591
f 588//588 589//589 597//597
f 597//597 589//589 596//596
f 5//5 547//547 557//557
f 5//5 557//557 7//7
f 27//27 29//29 102//102
f 102//102 11//11 27//27
f 595//595 582//582 583//583
f 593//593 582//582 595//595
f 343//343 71//71 346//346
f 346//346 71//71 70//70
f 41//41 44//44 321//321
f 41//41 321//321 317//317
f 333//333 54//54 328//328
f 54//54 191//191 328//328
f 190//190 330//330 52//52
f 325//325 330//330 190//190
f 189//189 322//322 327//327
f 189//189 327//327 50//50
f 352//352 590//590 2//2
f 2//2 591//591 546//546
f 546//546 547//547 2//2
f 2//2 590//590 591//591
f 2//2 245//245 352//352
f 547//547 5//5 2//2
f 100//100 392//392 179//179
f 179//179 392//392 282//282
f 274//274 175//175 96//96
f 274//274 96//96 277//277
f 554//554 553//553 544//544
f 553//553 560//560 544//544
f 337//337 64//64 340//340
f 340//340 64//64 63//63
f 342//342 339//339 67//67
f 66//66 342//342 67//67
f 60//60 338//338 334//334
f 334//334 61//61 60//60
f 42//42 314//314 39//39
f 42//42 318//318 314//314
f 321//321 44//44 187//187
f 187//187 316//316 321//321
f 305//305 36//36 309//309
f 32//32 36//36 305//305
f 182//182 32//32 305//305
f 305//305 301//301 182//182
f 173//173 95//95 275//275
f 275//275 272//272 173//173
f 336//336 340//340 63//63
f 336//336 63//63 193//193
f 220//220 132//132 293//293
f 293//293 132//132 131//131
f 315//315 311//311 37//37
f 37//37 40//40 315//315
f 335//335 57//57 331//331
f 57//57 192//192 331//331
f 244//244 4//4 247//247
f 244//244 160//160 4//4
f 244//244 249//249 3//3
f 3//3 160//160 244//244
f 3//3 249//249 1//1
f 249//249 248//248 1//1
f 245//245 2//2 1//1
f 1//1 248//248 245//245
f 443//443 444//444 396//396
f 396//396 357//357 443//443
f 374//374 357//357 396//396
f 396//396 397//397 374//374
f 300//300 34//34 302//302
f 180//180 34//34 300//300
f 312//312 308//308 35//35
f 35//35 38//38 312//312
f 279//279 276//276 176//176
f 97//97 279//279 176//176
f 278//278 177//177 98//98
f 278//278 98//98 281//281
f 99//99 283//283 178//178
f 178//178 283//283 280//280
f 31//31 303//303 123//123
f 226//226 303//303 31//31
f 270//270 268//268 170//170
f 170//170 93//93 270//270
f 267//267 92//92 171//171
f 266//266 267//267 171//171
f 530//530 572//572 573//573
f 530//530 508//508 507//507
f 530//530 570//570 571//571
f 580//580 559//559 530//530
f 511//511 512//512 530//530
f 530//530 579//579 580//580
f 537//537 538//538 530//530
f 530//530 542//542 543//543
f 507//507 509//509 530//530
f 567//567 568//568 530//530
f 530//530 576//576 577//577
f 530//530 574//574 575//575
f 562//562 563//563 530//530
f 540//540 541//541 530//530
f 532//532 533//533 530//530
f 530//530 568//568 569//569
f 563//563 564//564 530//530
f 530//530 577//577 578//578
f 565//565 566//566 530//530
f 530//530 575//575 576//576
f 530//530 573//573 574//574
f 530//530 571//571 572//572
f 530//530 539//539 540//540
f 541//541 542//542 530//530
f 515//515 516//516 530//530
f 530//530 517//517 519//519
f 530//530 522//522 523//523
f 569//569 570//570 530//530
f 564//564 565//565 530//530
f 530//530 566//566 567//567
f 530//530 578//578 579//579
f 530//530 559//559 508//508
f 530//530 538//538 539//539
f 543//543 544//544 530//530
f 530//530 561//561 562//562
f 523//523 524//524 530//530
f 530//530 510//510 511//511
f 530//530 514//514 515//515
f 534//534 536//536 530//530
f 530//530 544//544 560//560
f 560//560 561//561 530//530
f 530//530 533//533 534//534
f 530//530 535//535 537//537
f 530//530 509//509 510//510
f 513//513 514//514 530//530
f 530//530 512//512 513//513
f 521//521 522//522 530//530
f 519//519 520//520 530//530
f 530//530 524//524 525//525
f 530//530 526//526 527//527
f 530//530 520//520 521//521
f 518//518 517//517 530//530
f 530//530 516//516 518//518
f 527//527 528//528 530//530
f 525//525 526//526 530//530
f 530//530 528//528 529//529
f 530//530 536//536 535//535
f 530//530 531//531 532//532
f 759//759 748//748 749//749
f 759//759 597//597 596//596
f 610//610 611//611 759//759
f 759//759 594//594 593//593
f 689//689 691//691 759//759
f 680//680 684//684 759//759
f 746//746 747//747 759//759
f 606//606 607//607 759//759
f 618//618 619//619 759//759
f 616//616 617//617 759//759
f 612//612 613//613 759//759
f 614//614 615//615 759//759
f 608//608 609//609 759//759
f 759//759 756//756 757//757
f 759//759 692//692 597//597
f 751//751 752//752 759//759
f 593//593 595//595 759//759
f 759//759 603//603 604//604
f 596//596 598//598 759//759
f 619//619 594//594 759//759
f 617//617 618//618 759//759
f 613//613 614//614 759//759
f 759//759 615//615 616//616
f 759//759 611//611 612//612
f 759//759 609//609 610//610
f 759//759 684//684 689//689
f 759//759 600//600 601//601
f 757//757 758//758 759//759
f 759//759 657//657 661//661
f 749//749 750//750 759//759
f 759//759 595//595 746//746
f 759//759 747//747 748//748
f 759//759 604//604 605//605
f 605//605 606//606 759//759
f 759//759 607//607 608//608
f 759//759 753//753 754//754
f 759//759 601//601 602//602
f 759//759 598//598 599//599
f 599//599 600//600 759//759
f 754//754 755//755 759//759
f 759//759 675//675 680//680
f 661//661 663//663 759//759
f 759//759 750//750 751//751
f 639//639 644//644 759//759
f 759//759 602//602 603//603
f 691//691 692//692 759//759
f 755//755 756//756 759//759
f 667//667 671//671 759//759
f 627//627 624//624 759//759
f 759//759 761//761 627//627
f 759//759 752//752 753//753
f 648//648 653//653 759//759
f 671//671 675//675 759//759
f 759//759 663//663 667//667
f 760//760 761//761 759//759
f 759//759 624//624 632//632
f 759//759 636//636 639//639
f 759//759 644//644 648//648
f 632//632 636//636 759//759
f 759//759 653//653 657//657
f 270//270 93//93 172//172
f 172//172 269//269 270//270
f 273//273 271//271 174//174
f 174//174 94//94 273//273

