# https://github.com/mikedh/trimesh
v 39.19562912 9.49798584 7.40000010
v 39.00000000 9.50000000 7.40000010
v 39.39117813 9.49194336 8.19999981
v 40.07350159 9.43915272 8.19999981
v 31.25000000 9.50000000 10.00000000
v 31.47252083 9.47492790 10.00000000
v 18.50000000 9.50000000 10.00000000
v 31.25000000 8.50000000 11.00000000
v 18.50000000 8.50000000 11.00000000
v 47.87163544 2.78999996 8.39999962
v 47.89921570 2.67140579 8.39999962
v 47.90848160 2.54999995 8.39999962
v 47.63096619 3.46315479 8.39999962
v 47.75738907 3.12962770 8.39999962
v 47.49236679 3.79058146 8.39999962
v 47.34159470 4.11190796 8.39999962
v 47.00244522 4.73800707 8.39999962
v 47.17824173 4.42778921 8.39999962
v 46.81501389 5.04125071 8.39999962
v 46.61674500 5.33620930 8.39999962
v 46.40728760 5.62325239 8.39999962
v 46.18639755 5.90283918 8.39999962
v 45.95506668 6.17379332 8.39999962
v 45.71427536 6.43493748 8.39999962
v 45.46361542 6.68658590 8.39999962
v 45.79360962 -6.35106373 8.39999962
v 46.24767303 -5.82746363 8.39999962
v 46.66062927 -5.27296495 8.39999962
v 47.03207016 -4.68759155 8.39999962
v 47.35855865 -4.07728481 8.39999962
v 47.63809204 -3.44527078 8.39999962
v 47.90848160 -2.54999995 8.39999962
v 47.89921570 -2.67140579 8.39999962
v 47.87163544 -2.78999996 8.39999962
v 48.10848236 -2.54999995 8.19999981
v 48.09690094 -2.70175767 8.19999981
v 48.06242371 -2.84999990 8.19999981
v 47.53912354 -4.16333389 8.19999981
v 47.82523727 -3.51641488 8.19999981
v 47.20566940 -4.78717089 8.19999981
v 46.82671738 -5.38446665 8.19999981
v 46.40437698 -5.95190954 8.19999981
v 45.94097900 -6.48635387 8.19999981
v 45.30331802 -6.83787107 8.39999962
v 45.43910217 -6.98483658 8.19999981
v 44.77660370 -7.28831387 8.39999962
v 44.90152740 -7.44459343 8.19999981
v 44.21967316 -7.69699001 8.39999962
v 43.63196564 -8.06431770 8.39999962
v 44.33123016 -7.86307621 8.19999981
v 43.02049255 -8.38598633 8.39999962
v 43.73137665 -8.23796463 8.19999981
v 42.38478851 -8.66206074 8.39999962
v 43.10529327 -8.56717968 8.19999981
v 41.73193741 -8.88965225 8.39999962
v 42.45644760 -8.84889698 8.19999981
v 41.06208801 -9.06837654 8.39999962
v 41.78843689 -9.08155346 8.19999981
v 41.10496902 -9.26385975 8.19999981
v 40.40983200 -9.39480591 8.19999981
v 45.20278931 6.92915726 8.39999962
v 44.65521240 7.38298368 8.39999962
v 44.93293762 7.16163015 8.39999962
v 44.36916351 7.59346867 8.39999962
v 43.77229691 7.98210239 8.39999962
v 44.07442856 7.79345608 8.39999962
v 42.82733917 8.47580814 8.39999962
v 43.14919662 8.32303047 8.39999962
v 43.46404266 8.15856647 8.39999962
v 42.49986649 8.61625290 8.39999962
v 42.16817093 8.74372005 8.39999962
v 41.49014664 8.96030331 8.39999962
v 41.83174515 8.85832024 8.39999962
v 40.79730988 9.12467289 8.39999962
v 41.14484024 9.04923344 8.39999962
v 40.75025558 9.33737659 8.19999981
v 41.41792679 9.18714523 8.19999981
v 42.07304764 8.98923683 8.19999981
v 42.71222305 8.74467850 8.19999981
v 43.33213425 8.45473957 8.19999981
v 43.92956161 8.12092495 8.19999981
v 44.50140762 7.74496651 8.19999981
v 45.04470444 7.32881546 8.19999981
v 45.55663300 6.87463093 8.19999981
v 46.03453445 6.38477087 8.19999981
v 46.47593307 5.86177731 8.19999981
v 46.87853241 5.30836344 8.19999981
v 47.24024582 4.72740221 8.19999981
v 47.55920029 4.12190771 8.19999981
v 47.83373260 3.49502254 8.19999981
v 48.06242371 2.84999990 8.19999981
v 48.09690094 2.70175767 8.19999981
v 48.10848236 2.54999995 8.19999981
v 48.21928406 2.29226542 7.40000010
v 48.07604980 2.80619192 5.00000000
v 48.34164810 1.72725201 7.40000010
v 40.42043686 9.39319420 5.00000000
v 41.11896896 9.26055050 5.00000000
v 41.80619049 9.07605171 5.00000000
v 42.47583771 8.84118462 5.00000000
v 43.12720871 8.55659294 5.00000000
v 44.92437744 7.42631340 5.00000000
v 45.46254349 6.96305418 5.00000000
v 45.96305466 6.46254492 5.00000000
v 46.42631149 5.92437792 5.00000000
v 46.84694290 5.35484076 5.00000000
v 47.22509384 4.75352287 5.00000000
v 47.55659103 4.12720919 5.00000000
v 48.26055145 2.11896777 5.00000000
v 48.26055145 -2.11896777 5.00000000
v 48.39319611 1.42043674 5.00000000
v 48.07604980 -2.80619192 5.00000000
v 48.39319611 -1.42043674 5.00000000
v 48.47284317 0.71472323 5.00000000
v 48.42953873 1.15480125 7.40000010
v 48.47284317 -0.71472323 5.00000000
v 48.50000000 0.00000000 5.00000000
v 48.50000000 -0.00000000 7.40000010
v 48.48231506 0.57910329 7.40000010
v 48.48231506 -0.57910329 7.40000010
v 48.42953873 -1.15480125 7.40000010
v 48.34164810 -1.72725201 7.40000010
v 48.21928406 -2.29226542 7.40000010
v 47.84118271 -3.47583795 5.00000000
v 47.55659103 -4.12720919 5.00000000
v 47.22509384 -4.75352287 5.00000000
v 46.84694290 -5.35484076 5.00000000
v 46.42631149 -5.92437792 5.00000000
v 45.96305466 -6.46254492 5.00000000
v 45.46254349 -6.96305418 5.00000000
v 44.92437744 -7.42631340 5.00000000
v 44.35483932 -7.84694481 5.00000000
v 43.12720871 -8.55659294 5.00000000
v 42.47583771 -8.84118462 5.00000000
v 41.80619049 -9.07605171 5.00000000
v 41.11896896 -9.26055050 5.00000000
v 18.50000000 -8.50000000 11.00000000
v 31.47252083 -9.47492790 10.00000000
v 31.25000000 -8.50000000 11.00000000
v 48.43183136 -0.13761331 7.54511642
v 48.43279266 0.12721649 7.54511642
v 39.71071243 9.47333241 4.94999981
v 40.41387939 9.39420795 4.94999981
v 41.11161041 9.26214504 4.94999981
v 41.79913712 9.07822990 4.94999981
v 42.46920395 8.84371853 4.94999981
v 43.12102509 8.55952454 4.94999981
v 43.74597168 8.22976017 4.94999981
v 44.34524155 7.85378933 4.94999981
v 45.19407654 7.20243216 4.94999981
v 45.96762085 6.45763397 4.94999981
v 45.71995926 6.71506357 4.94999981
v 46.20606232 6.19030094 4.94999981
v 46.85721970 5.33979082 4.94999981
v 47.56801987 4.10349703 4.94999981
v 47.85168457 3.44891262 4.94999981
v 48.07272720 -2.81693888 4.94999981
v 48.08499908 2.77716827 4.94999981
v 47.55368805 -4.13326073 4.94999981
v 46.84465408 -5.35824919 4.94999981
v 45.96015930 -6.46571112 4.94999981
v 44.34835434 -7.85164547 4.94999981
v 43.75244522 -8.22606564 4.94999981
v 43.13016891 -8.55508804 4.94999981
v 42.48032761 -8.83939362 4.94999981
v 41.81105423 -9.07451630 4.94999981
v 41.12302017 -9.25957108 4.94999981
v 40.42322159 -9.39277077 4.94999981
v 40.42322159 9.39277077 -4.94999981
v 41.12302017 9.25957108 -4.94999981
v 41.81105423 9.07451630 -4.94999981
v 42.48032761 8.83939362 -4.94999981
v 43.13016891 8.55508804 -4.94999981
v 43.75244522 8.22606564 -4.94999981
v 44.34835434 7.85164547 -4.94999981
v 44.91706848 7.43180084 -4.94999981
v 45.45805359 6.96702385 -4.94999981
v 45.96015930 6.46571112 -4.94999981
v 46.42390823 5.92736244 -4.94999981
v 46.84465408 5.35824919 -4.94999981
v 47.22251129 4.75798368 -4.94999981
v 47.55368805 4.13326073 -4.94999981
v 48.07272720 2.81693888 -4.94999981
v 48.25740814 -2.13262415 4.94999981
v 48.26731873 2.08905888 4.94999981
v 48.25740814 2.13262415 -4.94999981
v 48.39062500 -1.43729985 4.94999981
v 48.39761734 1.39093292 4.94999981
v 48.39062500 1.43729985 -4.94999981
v 48.47155762 -0.73283559 4.94999981
v 48.47515106 0.68477643 4.94999981
v 48.47155762 0.73283559 -4.94999981
v 48.49996185 -0.02432229 4.94999981
v 48.49996185 0.02432229 -4.94999981
v 48.47515106 -0.68477643 -4.94999981
v 48.39761734 -1.39093292 -4.94999981
v 48.26731873 -2.08905888 -4.94999981
v 48.08499908 -2.77716827 -4.94999981
v 47.85168457 -3.44891262 -4.94999981
v 47.56801987 -4.10349703 -4.94999981
v 47.23643494 -4.73377657 -4.94999981
v 46.85721970 -5.33979082 -4.94999981
v 46.43432236 -5.91426659 -4.94999981
v 46.20606232 -6.19030094 -4.94999981
v 45.71995926 -6.71506357 -4.94999981
v 45.96762085 -6.45763397 -4.94999981
v 45.19407654 -7.20243216 -4.94999981
v 45.46219635 -6.96317816 -4.94999981
v 44.34524155 -7.85378933 -4.94999981
v 43.74597168 -8.22976017 -4.94999981
v 41.79913712 -9.07822990 -4.94999981
v 39.71071243 9.47333241 -5.00000000
v 39.00000000 9.50000000 -7.40000010
v 18.50000000 9.50000000 -10.00000000
v 40.41387939 9.39420795 -5.00000000
v 40.07350159 9.43915272 -8.19999981
v 39.19562912 9.49798584 -7.40000010
v 39.39117813 9.49194336 -8.19999981
v 41.11161041 9.26214504 -5.00000000
v 40.75025558 9.33737659 -8.19999981
v 41.79913712 9.07822990 -5.00000000
v 41.41792679 9.18714523 -8.19999981
v 42.46920395 8.84371853 -5.00000000
v 42.07304764 8.98923683 -8.19999981
v 43.12102509 8.55952454 -5.00000000
v 42.71222305 8.74467850 -8.19999981
v 43.74597168 8.22976017 -5.00000000
v 43.33213425 8.45473957 -8.19999981
v 44.34524155 7.85378933 -5.00000000
v 43.92956161 8.12092495 -8.19999981
v 44.91748428 7.43142080 -5.00000000
v 44.50140762 7.74496651 -8.19999981
v 45.19407654 7.20243216 -5.00000000
v 45.04470444 7.32881546 -8.19999981
v 45.46219635 6.96317816 -5.00000000
v 45.71995926 6.71506357 -5.00000000
v 45.55663300 6.87463093 -8.19999981
v 45.96762085 6.45763397 -5.00000000
v 46.20606232 6.19030094 -5.00000000
v 46.03453445 6.38477087 -8.19999981
v 46.43432236 5.91426659 -5.00000000
v 46.85721970 5.33979082 -5.00000000
v 46.47593307 5.86177731 -8.19999981
v 46.87853241 5.30836344 -8.19999981
v 47.56801987 4.10349703 -5.00000000
v 47.24024582 4.72740221 -8.19999981
v 47.85168457 3.44891262 -5.00000000
v 47.83373260 3.49502254 -8.19999981
v 47.55920029 4.12190771 -8.19999981
v 48.08499908 2.77716827 -5.00000000
v 48.25740814 -2.13262415 -5.00000000
v 48.26731873 2.08905888 -5.00000000
v 48.23484421 2.22824240 -7.40000010
v 48.39062500 -1.43729985 -5.00000000
v 48.39761734 1.39093292 -5.00000000
v 48.36430740 1.59986997 -7.40000010
v 48.47155762 -0.73283559 -5.00000000
v 48.47515106 0.68477643 -5.00000000
v 48.45090103 0.96364272 -7.40000010
v 48.49996185 -0.02432229 -5.00000000
v 48.49451065 0.32103050 -7.40000010
v 48.49451065 -0.32103050 -7.40000010
v 48.45090103 -0.96364272 -7.40000010
v 48.36430740 -1.59986997 -7.40000010
v 48.07272720 -2.81693888 -5.00000000
v 48.23484421 -2.22824240 -7.40000010
v 47.83795929 -3.48403621 -5.00000000
v 47.55368805 -4.13326073 -5.00000000
v 47.82523727 -3.51641488 -8.19999981
v 48.06242371 -2.84999990 -8.19999981
v 47.22251129 -4.75798368 -5.00000000
v 47.53912354 -4.16333389 -8.19999981
v 46.84465408 -5.35824919 -5.00000000
v 47.20566940 -4.78717089 -8.19999981
v 46.42390823 -5.92736244 -5.00000000
v 46.82671738 -5.38446665 -8.19999981
v 45.96015930 -6.46571112 -5.00000000
v 46.40437698 -5.95190954 -8.19999981
v 45.94097900 -6.48635387 -8.19999981
v 45.43910217 -6.98483658 -8.19999981
v 44.34835434 -7.85164547 -5.00000000
v 44.90152740 -7.44459343 -8.19999981
v 43.75244522 -8.22606564 -5.00000000
v 44.33123016 -7.86307621 -8.19999981
v 43.13016891 -8.55508804 -5.00000000
v 43.73137665 -8.23796463 -8.19999981
v 42.48032761 -8.83939362 -5.00000000
v 43.10529327 -8.56717968 -8.19999981
v 41.81105423 -9.07451630 -5.00000000
v 42.45644760 -8.84889698 -8.19999981
v 41.12302017 -9.25957108 -5.00000000
v 41.78843689 -9.08155346 -8.19999981
v 40.42322159 -9.39277077 -5.00000000
v 41.10496902 -9.26385975 -8.19999981
v 40.40983200 -9.39480591 -8.19999981
v 31.25000000 9.50000000 -10.00000000
v 18.50000000 8.50000000 -11.00000000
v 31.47252083 9.47492790 -10.00000000
v 31.25000000 8.50000000 -11.00000000
v 47.90848160 -2.54999995 -8.39999962
v 47.87163544 -2.78999996 -8.39999962
v 47.89921570 -2.67140579 -8.39999962
v 47.63808823 -3.44528246 -8.39999962
v 47.35855103 -4.07730579 -8.39999962
v 47.03205490 -4.68761969 -8.39999962
v 46.66060638 -5.27299833 -8.39999962
v 46.24764252 -5.82749987 -8.39999962
v 45.79357529 -6.35110092 -8.39999962
v 45.30327988 -6.83790779 -8.39999962
v 41.06205750 -9.06838417 -8.39999962
v 41.73189926 -8.88966370 -8.39999962
v 42.38474274 -8.66207790 -8.39999962
v 43.02044678 -8.38600922 -8.39999962
v 43.63191605 -8.06434536 -8.39999962
v 44.21962738 -7.69702148 -8.39999962
v 44.77655792 -7.28834867 -8.39999962
v 48.09690094 -2.70175767 -8.19999981
v 48.10848236 -2.54999995 -8.19999981
v 45.71422958 6.43498659 -8.39999962
v 45.46356583 6.68663454 -8.39999962
v 45.20273590 6.92920446 -8.39999962
v 44.93288422 7.16167593 -8.39999962
v 44.65515518 7.38302755 -8.39999962
v 44.36910629 7.59351063 -8.39999962
v 44.07437134 7.79349470 -8.39999962
v 43.77223587 7.98213816 -8.39999962
v 43.46398544 8.15859890 -8.39999962
v 43.14913559 8.32306004 -8.39999962
v 42.82728195 8.47583294 -8.39999962
v 42.49980927 8.61627483 -8.39999962
v 42.16811752 8.74373817 -8.39999962
v 41.83169937 8.85833549 -8.39999962
v 41.49010468 8.96031570 -8.39999962
v 41.14480209 9.04924202 -8.39999962
v 40.79727936 9.12467957 -8.39999962
v 46.81498718 5.04129219 -8.39999962
v 47.00242233 4.73804522 -8.39999962
v 46.61671448 5.33625364 -8.39999962
v 46.40725327 5.62329865 -8.39999962
v 45.95502090 6.17384195 -8.39999962
v 46.18635941 5.90288734 -8.39999962
v 31.47252083 -9.47492790 -10.00000000
v 31.25000000 -8.50000000 -11.00000000
v 18.50000000 -8.50000000 -11.00000000
v 47.17822266 4.42782259 -8.39999962
v 47.49235916 3.79060388 -8.39999962
v 47.34157944 4.11193609 -8.39999962
v 48.06242371 2.84999990 -8.19999981
v 47.75738525 3.12963581 -8.39999962
v 47.63095856 3.46317053 -8.39999962
v 47.87163544 2.78999996 -8.39999962
v 48.09690094 2.70175767 -8.19999981
v 47.89921570 2.67140579 -8.39999962
v 47.90848160 2.54999995 -8.39999962
v 48.10848236 2.54999995 -8.19999981
v 48.43183136 0.13761331 -7.54511642
v 48.43279266 -0.12721649 -7.54511642
v 40.77878571 -1.29447722 10.19999981
v 40.87477875 -1.15096700 10.19999981
v 40.95927811 -1.00059974 10.19999981
v 41.03131866 -0.84461474 10.19999981
v 41.03131866 0.84461474 10.19999981
v 41.09147263 -0.68214804 10.19999981
v 41.09147263 0.68214804 10.19999981
v 41.13867950 -0.51582277 10.19999981
v 41.13867950 0.51582277 10.19999981
v 41.17229843 -0.34718338 10.19999981
v 41.17229843 0.34718338 10.19999981
v 41.19273376 -0.17525116 10.19999981
v 41.19273376 0.17525116 10.19999981
v 41.20000076 -0.00000000 10.19999981
v 40.95927811 1.00059974 10.19999981
v 40.87477875 1.15096700 10.19999981
v 40.77878571 1.29447722 10.19999981
v 42.35346985 -4.26428461 -9.77994347
v 42.77885437 -3.78713989 -9.80000019
v 42.74363327 -3.92620802 -9.77994347
v 42.79769897 3.76824546 -9.80000019
v 43.13117599 -3.39932656 -9.80000019
v 43.09989166 -3.55257487 -9.77994347
v 43.14757156 3.37930608 -9.80000019
v 43.44380951 -2.97908330 -9.80000019
v 43.41901779 -3.14676929 -9.77994347
v 43.45773315 2.95820808 -9.80000019
v 43.71398926 -2.52997470 -9.80000019
v 43.69812775 -2.71246600 -9.77994347
v 43.72544861 2.50850606 -9.80000019
v 43.93894196 -2.05645299 -9.80000019
v 43.93469238 -2.25359821 -9.77994347
v 43.94789886 2.03480291 -9.80000019
v 44.11656952 -1.56288671 -9.80000019
v 44.12656403 -1.77432144 -9.77994347
v 44.12308121 1.54143035 -9.80000019
v 44.24523163 -1.05357111 -9.80000019
v 44.27201080 -1.27897620 -9.77994347
v 44.24940491 1.03257203 -9.80000019
v 44.32325363 -0.53403461 -9.80000019
v 44.36971283 -0.77204829 -9.77994347
v 44.32527924 0.51350558 -9.80000019
v 44.34994507 -0.01018121 -9.80000019
v 44.41878891 -0.25812864 -9.77994347
v 44.41878891 0.25812864 -9.77994347
v 44.36971283 0.77204829 -9.77994347
v 44.27201080 1.27897620 -9.77994347
v 44.12656403 1.77432144 -9.77994347
v 43.93469238 2.25359821 -9.77994347
v 43.69812775 2.71246600 -9.77994347
v 43.41901779 3.14676929 -9.77994347
v 43.09989166 3.55257487 -9.77994347
v 42.74363327 3.92620802 -9.77994347
v 42.35346985 4.26428461 -9.77994347
v 13.50000000 -14.00000000 -8.50000000
v 13.50000000 -14.00000000 8.50000000
v 13.50000000 -13.97482395 -8.72292519
v 13.50000000 -13.97482395 8.72292519
v 11.50000000 9.50000000 -9.50000000
v 11.50000000 9.00000000 -10.00000000
v 11.50000000 9.50000000 9.50000000
v 11.50000000 9.00000000 10.00000000
v 13.50000000 -13.22292519 9.47482395
v 13.50000000 -13.22292519 -9.47482395
v 13.50000000 -13.43408871 9.40078926
v 13.50000000 -13.43408871 -9.40078926
v 13.50000000 -13.62350655 9.28168392
v 13.50000000 -13.62350655 -9.28168392
v 13.50000000 -13.78168392 9.12350655
v 13.50000000 -13.78168392 -9.12350655
v 13.50000000 -13.90078926 8.93408871
v 13.50000000 -13.90078926 -8.93408871
v 11.50000000 1.06464553 10.94831276
v 11.50000000 -0.35600984 10.99417114
v 11.50000000 0.35600984 10.99417114
v 11.50000000 1.06464553 -10.94831276
v 11.50000000 0.35600984 -10.99417114
v 11.50000000 -0.35600984 -10.99417114
v -11.30000019 1.14843452 6.14358187
v -11.30000019 1.71039367 6.01141024
v -11.30000019 2.25776052 5.82795143
v -11.30000019 2.78586483 5.59477043
v -11.30000019 3.29020095 5.31385708
v -11.30000019 3.76646638 4.98760748
v -11.30000019 4.21059799 4.61880589
v -11.30000019 4.98760748 3.76646638
v -11.30000019 4.61880589 4.21059799
v -11.30000019 5.31385708 3.29020095
v -11.30000019 5.59477043 2.78586483
v -11.30000019 5.82795143 2.25776052
v -11.30000019 6.01141024 1.71039367
v -11.30000019 6.14358187 1.14843452
v -11.30000019 6.22333860 0.57667726
v -11.30000019 6.25000000 0.00000000
v -11.30000019 6.22333860 -0.57667726
v -11.30000019 6.14358187 -1.14843452
v -11.30000019 6.01141024 -1.71039367
v -11.30000019 5.82795143 -2.25776052
v -11.30000019 5.59477043 -2.78586483
v -11.30000019 5.31385708 -3.29020095
v -11.30000019 4.98760748 -3.76646638
v -11.30000019 4.61880589 -4.21059799
v -11.30000019 4.21059799 -4.61880589
v -11.30000019 3.76646638 -4.98760748
v -11.30000019 3.29020095 -5.31385708
v -11.30000019 2.78586483 -5.59477043
v -11.30000019 2.25776052 -5.82795143
v -11.30000019 1.71039367 -6.01141024
v -11.30000019 1.14843452 -6.14358187
v -11.50000000 -0.00000000 6.05000019
v -11.50000000 -3.50000000 6.05000019
v -11.50000000 0.55985630 6.02399206
v -11.50000000 1.11261690 5.94677591
v -11.50000000 1.65716684 5.81861067
v -11.50000000 2.18694663 5.64084053
v -11.50000000 2.69760203 5.41526413
v -11.50000000 3.18595147 5.14315557
v -11.50000000 3.64643741 4.82755375
v -11.50000000 4.07579088 4.47103596
v -11.50000000 4.82753038 3.64646792
v -11.50000000 4.47100925 4.07582045
v -11.50000000 5.14313650 3.18598247
v -11.50000000 5.41524982 2.69763136
v -11.50000000 5.64083052 2.18697309
v -11.50000000 5.81860447 1.65718901
v -11.50000000 5.94677305 1.11263311
v -11.50000000 6.02399111 0.55986506
v -11.50000000 6.05000019 0.00000000
v -11.50000000 6.02399206 -0.55985630
v -11.50000000 5.94677591 -1.11261690
v -11.50000000 5.81861067 -1.65716684
v -11.50000000 5.64084053 -2.18694663
v -11.50000000 5.41526413 -2.69760203
v -11.50000000 5.14315557 -3.18595147
v -11.50000000 4.82755375 -3.64643741
v -11.50000000 4.47103596 -4.07579088
v -11.50000000 3.64646792 -4.82753038
v -11.50000000 4.07582045 -4.47100925
v -11.50000000 3.18598247 -5.14313650
v -11.50000000 2.69763136 -5.41524982
v -11.50000000 2.18697309 -5.64083052
v -11.50000000 1.65718901 -5.81860447
v -11.50000000 1.11263311 -5.94677305
v -11.50000000 0.55986506 -6.02399111
v -11.50000000 -0.00000001 -6.05000019
v -8.50000000 -14.00000000 -9.00000000
v -10.80000019 -14.00000000 -9.00000000
v -8.50000000 -14.00000000 9.00000000
v -8.50000000 -13.97544193 9.15471935
v -10.80000019 -14.00000000 9.00000000
v -8.50000000 -13.90440464 9.29395580
v -10.80000019 -13.90450859 9.29389286
v -10.80000019 -13.97552872 9.15450859
v -8.50000000 -13.79397011 9.40439510
v -8.50000000 -13.65473080 9.47543907
v -10.80000019 -13.79389286 9.40450859
v -10.80000019 -13.65450859 9.47552872
v -10.80000019 -11.50000000 9.50000000
v -10.80000019 -13.50000000 9.50000000
v -10.80000019 -11.23952770 9.47721195
v -8.50000000 -13.90439510 -9.29397011
v -8.50000000 -13.97543907 -9.15473080
v -8.50000000 -13.79395580 -9.40440464
v -8.50000000 -13.65471935 -9.47544193
v -10.80000019 -11.23952770 -9.47721195
v -10.80000019 -13.50000000 -9.50000000
v -10.80000019 -11.50000000 -9.50000000
v -10.80000019 -13.79389286 -9.40450859
v -10.80000019 -13.65450859 -9.47552872
v -10.80000019 -13.90450859 -9.29389286
v -10.80000019 -13.97552872 -9.15450859
v -11.00000000 -13.80000019 -9.00000000
v -11.00000000 -13.79402351 -9.05924320
v -11.00000000 -13.80000019 9.00000000
v -11.00000000 -13.50000000 -9.30000019
v -11.00000000 -11.50000000 -9.30000019
v -11.00000000 -13.61493015 -9.27708054
v -11.00000000 -13.55923557 -9.29402542
v -11.00000000 -13.71208191 -9.21209431
v -11.00000000 -13.66690826 -9.24926281
v -11.00000000 -13.74925327 -9.16692257
v -11.00000000 -13.77707577 -9.11494255
v -11.00000000 -11.37085915 -9.29341793
v -11.00000000 -11.24478340 -9.27467442
v -11.00000000 -11.24478340 9.27467442
v -11.00000000 -13.61494255 9.27707577
v -11.00000000 -11.37085915 9.29341793
v -11.00000000 -13.50000000 9.30000019
v -11.00000000 -11.50000000 9.30000019
v -11.00000000 -13.55924320 9.29402351
v -11.00000000 -13.66692257 9.24925327
v -11.00000000 -13.71209431 9.21208191
v -11.00000000 -13.74926281 9.16690826
v -11.00000000 -13.77708054 9.11493015
v -11.00000000 -13.79402542 9.05923557
v -11.50000000 -4.05986500 6.02399111
v -11.50000000 -3.50000000 -6.05000019
v -11.50000000 -4.05985641 -6.02399206
v -11.50000000 -4.61261702 -5.94677591
v -11.50000000 -5.15716696 -5.81861067
v -11.50000000 -5.68694639 -5.64084053
v -11.50000000 -6.19760180 -5.41526413
v -11.50000000 -6.68595171 -5.14315557
v -11.50000000 -7.14643717 -4.82755375
v -11.50000000 -7.57579088 -4.47103596
v -11.50000000 -8.32753086 -3.64646792
v -11.50000000 -7.97100925 -4.07582045
v -11.50000000 -8.64313602 -3.18598247
v -11.50000000 -8.91524982 -2.69763136
v -11.50000000 -9.14083004 -2.18697309
v -11.50000000 -9.31860447 -1.65718901
v -11.50000000 -9.44677258 -1.11263311
v -11.50000000 -9.52399063 -0.55986506
v -11.50000000 -9.55000019 -0.00000000
v -11.50000000 -9.52399158 0.55985630
v -11.50000000 -9.44677544 1.11261690
v -11.50000000 -9.31861115 1.65716684
v -11.50000000 -9.14084053 2.18694663
v -11.50000000 -8.91526413 2.69760203
v -11.50000000 -8.64315510 3.18595147
v -11.50000000 -8.32755375 3.64643741
v -11.50000000 -7.97103596 4.07579088
v -11.50000000 -7.14646816 4.82753038
v -11.50000000 -7.57582045 4.47100925
v -11.50000000 -6.68598223 5.14313650
v -11.50000000 -6.19763136 5.41524982
v -11.50000000 -5.68697309 5.64083052
v -11.50000000 -5.15718889 5.81860447
v -11.50000000 -4.61263323 5.94677305
vn 0.01980546 0.99980280 0.00145132
vn 0.00518861 0.99998130 0.00323786
vn 0.05580760 0.98621267 0.15578855
vn 0.12123118 0.94995700 0.28789704
vn 0.02471074 0.91887039 0.39378496
vn 0.11029071 0.79386330 0.59801088
vn -0.01413767 0.92072918 0.38994602
vn 0.07114175 0.38679913 0.91941573
vn -0.03339838 0.38527740 0.92219622
vn 0.48141296 0.13649961 0.86579987
vn 0.49905642 0.07762000 0.86308622
vn 0.50294653 0.02034198 0.86407812
vn 0.46064792 0.18550477 0.86798126
vn 0.47094274 0.16796348 0.86602610
vn 0.45701662 0.20279301 0.86603164
vn 0.44551377 0.22114784 0.86753162
vn 0.42766329 0.25550191 0.86707721
vn 0.44021137 0.23658631 0.86616446
vn 0.42081244 0.26888055 0.86638337
vn 0.40763305 0.28833278 0.86642917
vn 0.39903481 0.29973840 0.86656108
vn 0.38762099 0.31908998 0.86483036
vn 0.37963607 0.33283415 0.86319053
vn 0.37002161 0.35430681 0.85880771
vn 0.35965753 0.36846318 0.85725220
vn 0.37297744 -0.34492985 0.86134269
vn 0.39108274 -0.31207090 0.86583257
vn 0.41090426 -0.28283087 0.86669740
vn 0.43070127 -0.25143123 0.86676338
vn 0.44835488 -0.21870680 0.86668635
vn 0.46314816 -0.18477115 0.86680644
vn 0.50294653 -0.02034198 0.86407812
vn 0.49905642 -0.07762000 0.86308622
vn 0.48116051 -0.14104065 0.86521217
vn 0.85823054 -0.04718023 0.51109135
vn 0.89700857 -0.16351082 0.41065780
vn 0.88515883 -0.26485373 0.38255242
vn 0.83155878 -0.40538089 0.37970559
vn 0.85934730 -0.34237264 0.37987260
vn 0.79903199 -0.46616066 0.37979221
vn 0.76219722 -0.52429009 0.37970423
vn 0.72101755 -0.57955913 0.37979587
vn 0.67591914 -0.63158513 0.37978092
vn 0.35373064 -0.37919809 0.85503418
vn 0.62699056 -0.68016231 0.37981847
vn 0.33269843 -0.41399469 0.84730169
vn 0.57466975 -0.72494031 0.37975813
vn 0.30984596 -0.44960755 0.83776401
vn 0.28500974 -0.48658470 0.82583581
vn 0.51913402 -0.76570673 0.37972763
vn 0.25812125 -0.52560305 0.81062621
vn 0.46073987 -0.80220018 0.37972839
vn 0.22872202 -0.56744500 0.79100721
vn 0.39973418 -0.83430397 0.37967021
vn 0.19635580 -0.61308128 0.76522921
vn 0.33658953 -0.86170169 0.37970737
vn 0.16469613 -0.66038509 0.73264365
vn 0.27147153 -0.88441123 0.37963137
vn 0.20895013 -0.90222022 0.37727776
vn 0.17181674 -0.93627581 0.30637658
vn 0.35030410 0.38976472 0.85168685
vn 0.32877263 0.42596273 0.84289045
vn 0.33808362 0.40457025 0.84971900
vn 0.31459952 0.44201492 0.84002974
vn 0.28933561 0.48089776 0.82766071
vn 0.30507934 0.46320996 0.83208361
vn 0.25097915 0.54394345 0.80070905
vn 0.26175234 0.52244382 0.81150365
vn 0.27930794 0.50230863 0.81833557
vn 0.23172656 0.56697841 0.79046713
vn 0.21974092 0.58922632 0.77751288
vn 0.18396937 0.63877861 0.74707239
vn 0.19861130 0.61526973 0.76288709
vn 0.14899528 0.69092751 0.70740341
vn 0.16161920 0.66783651 0.72654913
vn 0.17919574 0.91091432 0.37165036
vn 0.23582824 0.89538448 0.37771905
vn 0.29956719 0.87613512 0.37768606
vn 0.36171701 0.85235687 0.37768846
vn 0.42211879 0.82417627 0.37755688
vn 0.48048156 0.79159905 0.37750288
vn 0.53626057 0.75498719 0.37738434
vn 0.58927796 0.71438421 0.37736811
vn 0.63911182 0.67010574 0.37748427
vn 0.68577224 0.62221611 0.37757588
vn 0.72893635 0.57113541 0.37743364
vn 0.76810193 0.51751365 0.37709288
vn 0.80333172 0.46101285 0.37699510
vn 0.83449169 0.40201906 0.37683457
vn 0.86121906 0.34080908 0.37702904
vn 0.88634589 0.26282723 0.38119918
vn 0.89700857 0.16351082 0.41065780
vn 0.85822985 0.04718372 0.51109219
vn 0.97175474 0.23552654 0.01483142
vn 0.95526784 0.29574203 0.00001590
vn 0.98357738 0.17310333 0.05109568
vn 0.15496794 0.98791927 0.00066752
vn 0.22342515 0.97472104 0.00030511
vn 0.29761682 0.95468514 0.00071269
vn 0.36454502 0.93118565 0.00045947
vn 0.43281061 0.90148467 0.00060369
vn 0.61573083 0.78795657 0.00004463
vn 0.67507231 0.73775151 0.00029571
vn 0.72669959 0.68695533 0.00028831
vn 0.77688227 0.62964587 0.00015014
vn 0.81656219 0.57725747 0.00004291
vn 0.85669708 0.51581984 0.00001824
vn 0.88972173 0.45650328 0.00001891
vn 0.97429911 0.22525777 0.00041410
vn 0.97673145 -0.21446585 0.00028116
vn 0.98782089 0.15559416 0.00058973
vn 0.95936253 -0.28217642 0.00006370
vn 0.98937564 -0.14538007 0.00069587
vn 0.99624512 0.08657699 0.00028474
vn 0.98797419 0.11048263 0.10816929
vn 0.99751030 -0.07052091 0.00004550
vn 1.00000000 0.00000000 -0.00000000
vn 0.97810172 -0.00047435 0.20812691
vn 0.98298282 0.04908510 0.17701814
vn 0.98297877 -0.04906432 0.17704642
vn 0.98796893 -0.11050275 0.10819672
vn 0.98357598 -0.17311717 0.05107587
vn 0.97171933 -0.23567922 0.01472595
vn 0.93683216 -0.34977921 0.00005829
vn 0.90847558 -0.41793794 0.00007426
vn 0.87447658 -0.48506774 0.00004796
vn 0.83751727 -0.54641085 0.00008010
vn 0.79273298 -0.60956904 0.00003174
vn 0.74418814 -0.66797005 0.00016207
vn 0.68980298 -0.72399712 0.00012372
vn 0.63418964 -0.77317753 0.00011058
vn 0.58923014 -0.80796524 0.00012174
vn 0.44527686 -0.89539294 0.00008560
vn 0.37007918 -0.92900022 0.00000337
vn 0.29867750 -0.95435410 0.00001575
vn 0.23265587 -0.97255912 0.00001180
vn -0.00752182 -0.14143879 0.98991843
vn 0.14083212 -0.70865796 0.69135390
vn 0.10211361 -0.36354689 0.92596246
vn 0.90478128 -0.00519753 0.42584483
vn 0.90385428 0.00356963 0.42782554
vn 0.07598429 0.99710901 0.00006261
vn 0.14185058 0.98988808 0.00004940
vn 0.20780205 0.97817090 0.00002200
vn 0.28490794 0.95855488 0.00006048
vn 0.35082088 0.93644258 0.00003747
vn 0.42049598 0.90729440 0.00005209
vn 0.49378742 0.86958265 0.00006203
vn 0.55625820 0.83100952 0.00005373
vn 0.65587272 0.75487145 0.00026409
vn 0.73445365 0.67865885 0.00000570
vn 0.70977502 0.70442840 0.00021668
vn 0.76018760 0.64970361 0.00017052
vn 0.82673683 0.56258885 0.00000351
vn 0.90928403 0.41617612 0.00000706
vn 0.93771394 0.34740835 0.00001541
vn 0.95504698 -0.29645450 0.00000085
vn 0.95976644 0.28079955 0.00002604
vn 0.90080978 -0.43421393 0.00000310
vn 0.82771893 -0.56114291 0.00000788
vn 0.73525705 -0.67778837 0.00000363
vn 0.57148619 -0.82061168 0.00000880
vn 0.51185224 -0.85907350 0.00001284
vn 0.45987743 -0.88798240 0.00001081
vn 0.38496562 -0.92293091 0.00000844
vn 0.31555855 -0.94890611 0.00000883
vn 0.24673358 -0.96908335 0.00000564
vn 0.17723196 -0.98416911 0.00002281
vn 0.15953044 0.98719301 -0.00004609
vn 0.22930326 0.97335503 -0.00006798
vn 0.30352117 0.95282469 -0.00004265
vn 0.37026543 0.92892600 -0.00005084
vn 0.44074011 0.89763476 -0.00002530
vn 0.50308256 0.86423836 -0.00002556
vn 0.56951538 0.82198068 -0.00000385
vn 0.61468851 0.78876995 -0.00004876
vn 0.67284429 0.73978409 -0.00025099
vn 0.72734353 0.68627352 -0.00018735
vn 0.77636163 0.63028771 -0.00012872
vn 0.81684430 0.57685821 -0.00002116
vn 0.85665117 0.51589609 -0.00001115
vn 0.89214418 0.45175077 -0.00000400
vn 0.95512825 0.29619256 -0.00000356
vn 0.97362489 -0.22815470 0.00003327
vn 0.97748938 0.21098458 0.00013038
vn 0.97416469 0.22583880 -0.00003527
vn 0.98739087 -0.15830111 0.00014085
vn 0.98999479 0.14110385 0.00012148
vn 0.98798292 0.15456305 -0.00008173
vn 0.99642420 -0.08449141 0.00014150
vn 0.99738757 0.07223591 0.00003914
vn 0.99663278 0.08199439 -0.00015608
vn 0.99987387 -0.01588173 0.00014146
vn 0.99995707 0.00926232 -0.00026623
vn 0.99793037 -0.06430305 -0.00030927
vn 0.99057546 -0.13696784 -0.00025164
vn 0.97799948 -0.20860724 -0.00018391
vn 0.96017601 -0.27939580 -0.00009030
vn 0.93749691 -0.34799359 -0.00002607
vn 0.90861304 -0.41763901 -0.00002484
vn 0.87521950 -0.48372599 -0.00002184
vn 0.83639015 -0.54813458 -0.00002017
vn 0.79326083 -0.60888197 -0.00001713
vn 0.75761142 -0.65270584 -0.00011380
vn 0.70639612 -0.70781673 -0.00009768
vn 0.74046816 -0.67209144 -0.00005671
vn 0.65105185 -0.75903325 -0.00007863
vn 0.68936085 -0.72441813 -0.00004306
vn 0.55986541 -0.82858356 -0.00000110
vn 0.49284944 -0.87011461 -0.00000079
vn 0.29727830 -0.95479087 -0.00000177
vn 0.07598430 0.99710901 -0.00006457
vn 0.00518861 0.99998130 -0.00323786
vn -0.01413767 0.92072918 -0.38994602
vn 0.14411623 0.98956063 -0.00052067
vn 0.12123428 0.94995425 -0.28790481
vn 0.01980546 0.99980280 -0.00145132
vn 0.05580286 0.98621194 -0.15579488
vn 0.21459384 0.97670317 -0.00062945
vn 0.17920047 0.91091421 -0.37164835
vn 0.28766492 0.95773102 -0.00041981
vn 0.23582251 0.89538656 -0.37771770
vn 0.35553868 0.93466143 -0.00050400
vn 0.29957028 0.87613270 -0.37768921
vn 0.42566796 0.90487939 -0.00028020
vn 0.36171447 0.85235647 -0.37769180
vn 0.48890068 0.87233936 -0.00041229
vn 0.42211450 0.82417504 -0.37756436
vn 0.55499725 0.83185217 -0.00014172
vn 0.48047944 0.79159538 -0.37751326
vn 0.61040566 0.79208839 -0.00095456
vn 0.53627104 0.75498160 -0.37738065
vn 0.65594987 0.75480440 -0.00030318
vn 0.58927079 0.71439320 -0.37736227
vn 0.68101817 0.73226650 -0.00016126
vn 0.70970703 0.70449688 -0.00025640
vn 0.63910834 0.67010403 -0.37749321
vn 0.73537829 0.67765682 -0.00004979
vn 0.76016450 0.64973063 -0.00019753
vn 0.68576881 0.62221277 -0.37758762
vn 0.78312411 0.62186544 -0.00001565
vn 0.82712228 0.56202201 -0.00000942
vn 0.72893129 0.57113372 -0.37744597
vn 0.76809559 0.51751018 -0.37711057
vn 0.90928403 0.41617610 -0.00000728
vn 0.80332010 0.46101170 -0.37702127
vn 0.93771396 0.34740831 -0.00001589
vn 0.86121797 0.34080858 -0.37703199
vn 0.83448988 0.40200536 -0.37685320
vn 0.96017257 0.27940763 -0.00009976
vn 0.97423166 -0.22554969 -0.00013540
vn 0.97796515 0.20876803 -0.00026456
vn 0.97353680 0.22781932 -0.01801264
vn 0.98806811 -0.15401723 -0.00031343
vn 0.99052768 0.13731255 -0.00041757
vn 0.98537094 0.15810274 -0.06362099
vn 0.99671451 -0.08099267 -0.00061720
vn 0.99788924 0.06493616 -0.00060256
vn 0.98713336 0.08879978 -0.13297494
vn 0.99996684 -0.00810461 -0.00079796
vn 0.97946864 0.02514463 -0.20002234
vn 0.97977169 -0.02542996 -0.19849622
vn 0.98713570 -0.08879924 -0.13295788
vn 0.98537214 -0.15810127 -0.06360606
vn 0.95513385 -0.29617448 -0.00001214
vn 0.97353644 -0.22782173 -0.01800166
vn 0.93108172 -0.36481067 -0.00000847
vn 0.90050612 -0.43484334 -0.00000979
vn 0.85930567 -0.34235649 -0.37998130
vn 0.88519859 -0.26481097 -0.38249002
vn 0.86651602 -0.49914926 -0.00000675
vn 0.83151929 -0.40537129 -0.37980230
vn 0.82599880 -0.56367188 -0.00001023
vn 0.79900095 -0.46614754 -0.37987360
vn 0.78268169 -0.62242218 -0.00000251
vn 0.76216903 -0.52428503 -0.37976780
vn 0.73360412 -0.67957707 -0.00001237
vn 0.72105557 -0.57928864 -0.38013620
vn 0.67573569 -0.63140175 -0.38041177
vn 0.62680785 -0.67998608 -0.38043507
vn 0.57954371 -0.81494116 -0.00005453
vn 0.57440123 -0.72499866 -0.38005285
vn 0.51351001 -0.85808360 -0.00002702
vn 0.51913770 -0.76570537 -0.37972533
vn 0.45221840 -0.89190724 -0.00001234
vn 0.46074017 -0.80219855 -0.37973146
vn 0.38461544 -0.92307690 -0.00000878
vn 0.39973433 -0.83430329 -0.37967156
vn 0.31379549 -0.94949059 -0.00001012
vn 0.33658996 -0.86170034 -0.37971005
vn 0.24494786 -0.96953625 -0.00000628
vn 0.27147192 -0.88441034 -0.37963317
vn 0.17723179 -0.98416914 -0.00002327
vn 0.20895045 -0.90221984 -0.37727851
vn 0.17181651 -0.93627558 -0.30637742
vn 0.02471074 0.91887039 -0.39378496
vn -0.03339838 0.38527740 -0.92219622
vn 0.11029071 0.79386330 -0.59801088
vn 0.06932239 0.38661528 -0.91963201
vn 0.54762303 -0.02327567 -0.83640137
vn 0.51846014 -0.15213720 -0.84145906
vn 0.53836158 -0.08503144 -0.83841306
vn 0.49965943 -0.19933198 -0.84297521
vn 0.48361718 -0.23594438 -0.84287880
vn 0.46453698 -0.27121093 -0.84300061
vn 0.44322196 -0.30502382 -0.84292038
vn 0.41927460 -0.33717405 -0.84292495
vn 0.39307353 -0.36748845 -0.84287926
vn 0.36457082 -0.39562377 -0.84295311
vn 0.16469481 -0.66038725 -0.73264200
vn 0.19635359 -0.61308400 -0.76522760
vn 0.22871901 -0.56744903 -0.79100519
vn 0.25811875 -0.52560720 -0.81062432
vn 0.28500702 -0.48658811 -0.82583473
vn 0.30984331 -0.44961147 -0.83776288
vn 0.33571021 -0.42156712 -0.84236561
vn 0.89692624 -0.16328471 -0.41092752
vn 0.85883320 -0.04726681 -0.51006998
vn 0.38864850 0.37421107 -0.84197293
vn 0.37359993 0.38517232 -0.84383966
vn 0.35934463 0.40250571 -0.84193859
vn 0.34243591 0.41258600 -0.84410334
vn 0.32971798 0.42853863 -0.84121382
vn 0.31459768 0.44201968 -0.84002792
vn 0.30507784 0.46321444 -0.83208166
vn 0.28933210 0.48090297 -0.82765891
vn 0.27930628 0.50231136 -0.81833446
vn 0.26174821 0.52245073 -0.81150053
vn 0.25097646 0.54394609 -0.80070811
vn 0.23172325 0.56698331 -0.79046458
vn 0.21973892 0.58922809 -0.77751210
vn 0.19861059 0.61527145 -0.76288589
vn 0.18396599 0.63878186 -0.74707044
vn 0.16161697 0.66784135 -0.72654517
vn 0.14899493 0.69092803 -0.70740297
vn 0.45406738 0.29033949 -0.84233354
vn 0.46177391 0.27571689 -0.84305697
vn 0.44010180 0.31103342 -0.84235896
vn 0.42996817 0.32386490 -0.84275673
vn 0.40294024 0.35544256 -0.84338589
vn 0.41547898 0.34353901 -0.84223403
vn 0.14083212 -0.70865796 -0.69135390
vn 0.10031371 -0.36338512 -0.92622266
vn -0.00752182 -0.14143879 -0.98991843
vn 0.47500818 0.25536545 -0.84211384
vn 0.49318777 0.21891001 -0.84192888
vn 0.48100295 0.23871568 -0.84359408
vn 0.88640201 0.26282923 -0.38106729
vn 0.50822375 0.18132302 -0.84192077
vn 0.49745423 0.20025791 -0.84405927
vn 0.51899322 0.14735614 -0.84198112
vn 0.89692624 0.16328471 -0.41092752
vn 0.53836158 0.08503144 -0.83841306
vn 0.54762303 0.02327567 -0.83640137
vn 0.85883431 0.04726139 -0.51006861
vn 0.90915712 0.00459465 -0.41642793
vn 0.90867421 -0.00165346 -0.41750263
vn 0.18460371 -0.12937501 0.97426053
vn 0.17858262 -0.10690005 0.97810052
vn 0.17522443 -0.08735459 0.98064549
vn 0.17321827 -0.07025903 0.98237422
vn 0.17318713 0.07025220 0.98238019
vn 0.17176641 -0.05472623 0.98361646
vn 0.17175045 0.05470735 0.98362030
vn 0.17090676 -0.03981844 0.98448229
vn 0.17090676 0.03981844 0.98448229
vn 0.17075023 -0.02563240 0.98498088
vn 0.17075023 0.02563240 0.98498088
vn 0.17123485 -0.01208043 0.98515618
vn 0.17123485 0.01208043 0.98515618
vn 0.17189945 -0.00000000 0.98511450
vn 0.17520871 0.08735356 0.98064839
vn 0.17858039 0.10690295 0.97810061
vn 0.18460126 0.12934990 0.97426433
vn 0.20122843 -0.24116517 -0.94939269
vn 0.17855412 -0.16936730 -0.96924359
vn 0.20696782 -0.21649316 -0.95409383
vn 0.17901059 0.16881210 -0.96925625
vn 0.17946163 -0.14156774 -0.97352560
vn 0.22116969 -0.19369694 -0.95580619
vn 0.18005775 0.14105295 -0.97349025
vn 0.18182986 -0.11713091 -0.97632897
vn 0.23844145 -0.17147443 -0.95589863
vn 0.18238344 0.11670456 -0.97627677
vn 0.18416789 -0.09506096 -0.97828707
vn 0.25341797 -0.14780872 -0.95599786
vn 0.18464681 0.09466733 -0.97823497
vn 0.18601166 -0.07443774 -0.97972378
vn 0.26600169 -0.12269823 -0.95613192
vn 0.18638917 0.07405345 -0.97968115
vn 0.18714713 -0.05478898 -0.98080279
vn 0.27623269 -0.09652590 -0.95623127
vn 0.18742387 0.05441137 -0.98077097
vn 0.18749082 -0.03582724 -0.98161275
vn 0.28532687 -0.06915593 -0.95593202
vn 0.18763085 0.03545244 -0.98159961
vn 0.18662622 -0.01737022 -0.98227742
vn 0.29494191 -0.04099654 -0.95463530
vn 0.18665293 0.01700798 -0.98227868
vn 0.18589906 -0.00014678 -0.98256884
vn 0.30578914 -0.01182139 -0.95202587
vn 0.30577887 0.01153338 -0.95203270
vn 0.29489714 0.04069705 -0.95466194
vn 0.28523020 0.06882395 -0.95598483
vn 0.27607202 0.09615028 -0.95631551
vn 0.26577279 0.12224858 -0.95625316
vn 0.25308323 0.14721243 -0.95617853
vn 0.23802725 0.17092285 -0.95610063
vn 0.22083829 0.19304410 -0.95601487
vn 0.20661015 0.21604967 -0.95427186
vn 0.20115656 0.24111663 -0.94942025
vn 0.08518686 -0.99481163 -0.05561489
vn 0.08518686 -0.99481163 0.05561489
vn 0.08598978 -0.97150550 -0.22086834
vn 0.08598977 -0.97150550 0.22086835
vn -0.13605687 0.90972405 -0.39228902
vn -0.17196605 0.46357356 -0.86921069
vn -0.13605687 0.90972405 0.39228902
vn -0.17196605 0.46357356 0.86921069
vn 0.00663185 -0.33013883 0.94390909
vn 0.00663181 -0.33013875 -0.94390912
vn 0.02648094 -0.44276544 0.89624635
vn 0.02648094 -0.44276543 -0.89624636
vn 0.05886141 -0.62991606 0.77442953
vn 0.05886141 -0.62991606 -0.77442952
vn 0.07726273 -0.78146931 0.61914149
vn 0.07726272 -0.78146932 -0.61914148
vn 0.08401501 -0.89845130 0.43096024
vn 0.08401502 -0.89845130 -0.43096025
vn -0.10331935 0.08635804 0.99089222
vn -0.03514690 -0.01049175 0.99932708
vn -0.05343752 0.02835101 0.99816865
vn -0.10331935 0.08635804 -0.99089222
vn -0.05343752 0.02835101 -0.99816865
vn -0.03514690 -0.01049175 -0.99932708
vn -0.67130946 0.16842287 0.72178760
vn -0.49508263 0.24006649 0.83502172
vn -0.50011904 0.31001049 0.80856320
vn -0.50716444 0.38213250 0.77250177
vn -0.51213639 0.45086975 0.73104910
vn -0.51510597 0.51596348 0.68443226
vn -0.51597080 0.57713256 0.63300249
vn -0.51337145 0.68552480 0.51624171
vn -0.51539984 0.63355249 0.57703921
vn -0.50923462 0.73274181 0.45140840
vn -0.50309135 0.77482496 0.38281246
vn -0.49487027 0.81151965 0.31070771
vn -0.48451921 0.84251953 0.23537627
vn -0.47215816 0.86738166 0.15721237
vn -0.45772926 0.88579216 0.07652565
vn -0.44974299 0.89315802 0.00000000
vn -0.45772919 0.88579218 -0.07652585
vn -0.47215848 0.86738142 -0.15721274
vn -0.48451962 0.84251919 -0.23537661
vn -0.49487086 0.81151914 -0.31070808
vn -0.50309207 0.77482433 -0.38281279
vn -0.50923525 0.73274119 -0.45140870
vn -0.51337128 0.68552496 -0.51624166
vn -0.51539972 0.63355187 -0.57704000
vn -0.51597092 0.57713177 -0.63300310
vn -0.51510614 0.51596353 -0.68443210
vn -0.51213576 0.45086945 -0.73104973
vn -0.50716372 0.38213217 -0.77250240
vn -0.50011845 0.31001012 -0.80856370
vn -0.49508223 0.24006614 -0.83502206
vn -0.67130865 0.16842301 -0.72178833
vn -0.99584857 0.00391027 0.09094141
vn -0.99708613 -0.00035971 0.07628314
vn -0.98838191 0.02042873 0.15061166
vn -0.92349072 0.08600273 0.37385615
vn -0.91988511 0.10743928 0.37718454
vn -0.91991940 0.14178042 0.36557708
vn -0.91989799 0.17487472 0.35100785
vn -0.91988943 0.20653695 0.33338554
vn -0.91991726 0.23635831 0.31286896
vn -0.91988774 0.26420757 0.28982911
vn -0.91991743 0.31286616 0.23636135
vn -0.91988749 0.28982756 0.26421012
vn -0.91988962 0.33338353 0.20653936
vn -0.91989806 0.35100651 0.17487708
vn -0.91991945 0.36557617 0.14178250
vn -0.91988519 0.37718385 0.10744103
vn -0.91990271 0.38545327 0.07214410
vn -0.91990971 0.39044592 0.03630573
vn -0.91987542 0.39221068 0.00000006
vn -0.91990960 0.39044623 -0.03630510
vn -0.91990274 0.38545343 -0.07214292
vn -0.91988511 0.37718454 -0.10743928
vn -0.91991940 0.36557708 -0.14178042
vn -0.91989799 0.35100785 -0.17487472
vn -0.91988943 0.33338554 -0.20653695
vn -0.91991726 0.31286896 -0.23635831
vn -0.91988774 0.28982911 -0.26420757
vn -0.91991743 0.23636135 -0.31286616
vn -0.91988749 0.26421012 -0.28982756
vn -0.91988962 0.20653936 -0.33338353
vn -0.91989806 0.17487708 -0.35100651
vn -0.91991945 0.14178250 -0.36557617
vn -0.91988519 0.10744103 -0.37718385
vn -0.92349029 0.08600323 -0.37385709
vn -0.98838165 0.02042919 -0.15061332
vn -0.99584853 0.00391037 -0.09094177
vn 0.00079443 -0.99686499 -0.07911742
vn -0.37391524 -0.92478359 -0.07044641
vn 0.00079430 -0.99686524 0.07911420
vn 0.00272770 -0.95069946 0.31010175
vn -0.37391489 -0.92478376 0.07044613
vn 0.00431464 -0.80868678 0.58822366
vn -0.36674636 -0.75283804 0.54656380
vn -0.36679994 -0.88469754 0.28769439
vn 0.00431494 -0.58825320 0.80866529
vn 0.00205459 -0.37176625 0.92832410
vn -0.36674611 -0.54656444 0.75283770
vn -0.37174251 -0.29107198 0.88152403
vn -0.41502001 0.03026425 0.90930878
vn -0.39266244 -0.07692627 0.91645980
vn -0.43949882 0.12957941 0.88884755
vn 0.00431494 -0.80866529 -0.58825320
vn 0.00272812 -0.95069384 -0.31011898
vn 0.00431464 -0.58822366 -0.80868678
vn 0.00205441 -0.37175333 -0.92832928
vn -0.43949882 0.12957941 -0.88884755
vn -0.39266210 -0.07692600 -0.91645997
vn -0.41502001 0.03026425 -0.90930878
vn -0.36674636 -0.54656380 -0.75283804
vn -0.37174255 -0.29107291 -0.88152370
vn -0.36674611 -0.75283770 -0.54656444
vn -0.36679989 -0.88469787 -0.28769346
vn -0.89916904 -0.43693539 -0.02413510
vn -0.89937378 -0.42847398 -0.08681499
vn -0.89916937 -0.43693497 0.02413050
vn -0.89459657 -0.02519996 -0.44616358
vn -0.88939638 0.01006989 -0.45702590
vn -0.90017648 -0.17047349 -0.40077561
vn -0.89736938 -0.08822498 -0.43237084
vn -0.90281090 -0.30419511 -0.30397010
vn -0.90174179 -0.23967919 -0.35974384
vn -0.90214306 -0.35923466 -0.23893171
vn -0.90114081 -0.39909226 -0.16932397
vn -0.87869684 0.04263731 -0.47547232
vn -0.84472542 0.09420081 -0.52684454
vn -0.84472540 0.09420082 0.52684458
vn -0.90017646 -0.17048808 0.40076946
vn -0.87869683 0.04263731 0.47547234
vn -0.89459666 -0.02520468 0.44616313
vn -0.88939638 0.01006989 0.45702590
vn -0.89736989 -0.08823337 0.43236807
vn -0.90174274 -0.23970075 0.35972709
vn -0.90281095 -0.30421140 0.30395362
vn -0.90214224 -0.35925113 0.23891002
vn -0.90114103 -0.39909798 0.16930933
vn -0.89937345 -0.42847638 0.08680659
vn -0.99775295 -0.00387009 0.06688845
vn -0.99708613 -0.00035970 -0.07628314
vn -0.99775294 -0.00387003 -0.06688863
vn -0.99849829 -0.00838555 -0.05413731
vn -0.99888960 -0.01164920 -0.04564924
vn -0.99911764 -0.01425729 -0.03950528
vn -0.99925818 -0.01650424 -0.03479510
vn -0.99934715 -0.01856708 -0.03099246
vn -0.99940254 -0.02055380 -0.02778662
vn -0.99943293 -0.02255162 -0.02500481
vn -0.99943569 -0.02689436 -0.02012432
vn -0.99944353 -0.02464405 -0.02247878
vn -0.99940794 -0.02941963 -0.01783988
vn -0.99935664 -0.03232517 -0.01553650
vn -0.99927319 -0.03579277 -0.01311405
vn -0.99914091 -0.04010754 -0.01043155
vn -0.99892840 -0.04570604 -0.00728079
vn -0.99856743 -0.05340562 -0.00330594
vn -0.99828011 -0.05862434 -0.00000001
vn -0.99856742 -0.05340572 0.00330589
vn -0.99892840 -0.04570615 0.00728071
vn -0.99914091 -0.04010776 0.01043142
vn -0.99927318 -0.03579294 0.01311394
vn -0.99935664 -0.03232532 0.01553637
vn -0.99940793 -0.02941980 0.01783973
vn -0.99943569 -0.02689452 0.02012416
vn -0.99944353 -0.02464420 0.02247859
vn -0.99940255 -0.02055393 0.02778643
vn -0.99943293 -0.02255177 0.02500463
vn -0.99934716 -0.01856721 0.03099221
vn -0.99925819 -0.01650438 0.03479487
vn -0.99911765 -0.01425741 0.03950506
vn -0.99888962 -0.01164932 0.04564898
vn -0.99849830 -0.00838563 0.05413716
f 8//8 139//139 371//371
f 417//417 522//522 465//465
f 297//297 522//522 417//417
f 421//421 423//423 521//521
f 525//525 521//521 520//520
f 521//521 423//423 520//520
f 523//523 435//435 344//344
f 433//433 522//522 297//297
f 464//464 417//417 465//465
f 528//528 503//503 504//504
f 519//519 503//503 528//528
f 425//425 520//520 423//423
f 518//518 429//429 519//519
f 525//525 520//520 518//518
f 520//520 425//425 518//518
f 12//12 371//371 32//32
f 519//519 429//429 414//414
f 412//412 503//503 414//414
f 414//414 503//503 519//519
f 343//343 379//379 376//376
f 342//342 425//425 343//343
f 343//343 425//425 423//423
f 423//423 421//421 343//343
f 343//343 294//294 342//342
f 343//343 421//421 521//521
f 465//465 522//522 466//466
f 466//466 500//500 465//465
f 526//526 521//521 525//525
f 526//526 523//523 344//344
f 344//344 343//343 526//526
f 526//526 343//343 521//521
f 434//434 433//433 297//297
f 461//461 460//460 417//417
f 461//461 417//417 462//462
f 462//462 417//417 463//463
f 417//417 464//464 463//463
f 6//6 5//5 8//8
f 66//66 65//65 8//8
f 299//299 296//296 298//298
f 2//2 5//5 3//3
f 9//9 419//419 517//517
f 419//419 437//437 517//517
f 139//139 137//137 514//514
f 446//446 445//445 418//418
f 418//418 447//447 446//446
f 530//530 528//528 504//504
f 504//504 529//529 530//530
f 539//539 528//528 530//530
f 568//568 539//539 530//530
f 519//519 528//528 527//527
f 527//527 518//518 519//519
f 525//525 518//518 527//527
f 527//527 528//528 539//539
f 27//27 358//358 139//139
f 139//139 358//358 359//359
f 34//34 363//363 31//31
f 313//313 343//343 314//314
f 427//427 425//425 342//342
f 342//342 294//294 427//427
f 429//429 518//518 427//427
f 427//427 518//518 425//425
f 396//396 299//299 393//393
f 377//377 343//343 376//376
f 343//343 377//377 375//375
f 522//522 540//540 541//541
f 541//541 540//540 500//500
f 541//541 466//466 522//522
f 500//500 466//466 541//541
f 500//500 540//540 501//501
f 501//501 533//533 502//502
f 540//540 533//533 501//501
f 522//522 433//433 524//524
f 433//433 434//434 524//524
f 524//524 540//540 522//522
f 524//524 533//533 540//540
f 498//498 463//463 464//464
f 3//3 5//5 4//4
f 5//5 6//6 4//4
f 4//4 6//6 76//76
f 4//4 142//142 3//3
f 76//76 75//75 77//77
f 74//74 6//6 8//8
f 8//8 75//75 74//74
f 76//76 6//6 74//74
f 74//74 75//75 76//76
f 65//65 66//66 81//81
f 332//332 331//331 299//299
f 226//226 331//331 224//224
f 224//224 332//332 222//222
f 331//331 332//332 224//224
f 335//335 334//334 299//299
f 299//299 298//298 335//335
f 1//1 2//2 3//3
f 218//218 296//296 213//213
f 438//438 437//437 419//419
f 440//440 419//419 441//441
f 419//419 442//442 441//441
f 430//430 432//432 9//9
f 9//9 517//517 430//430
f 515//515 432//432 430//430
f 430//430 517//517 515//515
f 436//436 517//517 437//437
f 468//468 553//553 545//545
f 457//457 456//456 416//416
f 416//416 456//456 455//455
f 455//455 489//489 488//488
f 456//456 489//489 455//455
f 445//445 446//446 480//480
f 418//418 450//450 449//449
f 418//418 416//416 451//451
f 451//451 450//450 418//418
f 437//437 438//438 471//471
f 442//442 444//444 478//478
f 570//570 530//530 529//529
f 529//529 571//571 570//570
f 370//370 371//371 12//12
f 8//8 371//371 370//370
f 370//370 368//368 8//8
f 366//366 364//364 8//8
f 8//8 368//368 366//366
f 8//8 364//364 362//362
f 362//362 372//372 8//8
f 115//115 188//188 111//111
f 32//32 33//33 36//36
f 36//36 35//35 32//32
f 36//36 33//33 34//34
f 35//35 36//36 120//120
f 369//369 371//371 139//139
f 139//139 367//367 369//369
f 369//369 367//367 33//33
f 369//369 32//32 371//371
f 369//369 33//33 32//32
f 139//139 363//363 365//365
f 365//365 367//367 139//139
f 365//365 363//363 34//34
f 34//34 33//33 365//365
f 33//33 367//367 365//365
f 139//139 44//44 26//26
f 26//26 27//27 139//139
f 358//358 27//27 28//28
f 28//28 359//359 358//358
f 29//29 359//359 28//28
f 139//139 359//359 360//360
f 360//360 359//359 29//29
f 412//412 414//414 295//295
f 295//295 414//414 429//429
f 429//429 427//427 295//295
f 295//295 427//427 294//294
f 60//60 415//415 413//413
f 413//413 168//168 60//60
f 60//60 428//428 415//415
f 426//426 428//428 60//60
f 299//299 387//387 390//390
f 390//390 393//393 299//299
f 299//299 410//410 378//378
f 378//378 381//381 299//299
f 384//384 387//387 299//299
f 299//299 381//381 384//384
f 400//400 343//343 299//299
f 567//567 539//539 568//568
f 567//567 566//566 539//539
f 465//465 500//500 499//499
f 499//499 464//464 465//465
f 499//499 498//498 464//464
f 462//462 463//463 497//497
f 463//463 498//498 497//497
f 220//220 335//335 298//298
f 220//220 222//222 334//334
f 334//334 335//335 220//220
f 8//8 71//71 73//73
f 71//71 79//79 78//78
f 78//78 73//73 71//71
f 77//77 73//73 78//78
f 115//115 111//111 96//96
f 111//111 256//256 96//96
f 373//373 374//374 8//8
f 8//8 372//372 373//373
f 249//249 245//245 248//248
f 8//8 65//65 69//69
f 69//69 68//68 8//8
f 65//65 81//81 69//69
f 70//70 79//79 71//71
f 70//70 71//71 8//8
f 68//68 69//69 80//80
f 80//80 69//69 81//81
f 334//334 222//222 333//333
f 222//222 332//332 333//333
f 299//299 334//334 333//333
f 333//333 332//332 299//299
f 411//411 410//410 299//299
f 218//218 213//213 217//217
f 440//440 473//473 439//439
f 439//439 419//419 440//440
f 439//439 438//438 419//419
f 443//443 444//444 418//418
f 418//418 445//445 443//443
f 477//477 478//478 443//443
f 443//443 478//478 444//444
f 137//137 431//431 516//516
f 516//516 514//514 137//137
f 139//139 514//514 512//512
f 139//139 422//422 424//424
f 424//424 138//138 139//139
f 426//426 138//138 424//424
f 547//547 553//553 586//586
f 547//547 545//545 553//553
f 586//586 585//585 547//547
f 514//514 516//516 547//547
f 547//547 516//516 545//545
f 546//546 469//469 467//467
f 458//458 416//416 459//459
f 458//458 457//457 416//416
f 454//454 455//455 488//488
f 454//454 453//453 416//416
f 416//416 455//455 454//454
f 481//481 447//447 482//482
f 481//481 446//446 447//447
f 481//481 480//480 446//446
f 445//445 480//480 479//479
f 479//479 443//443 445//445
f 477//477 443//443 479//479
f 482//482 447//447 448//448
f 448//448 447//447 418//418
f 418//418 449//449 448//448
f 416//416 453//453 452//452
f 452//452 451//451 416//416
f 450//450 451//451 485//485
f 451//451 452//452 485//485
f 470//470 436//436 437//437
f 437//437 471//471 470//470
f 472//472 471//471 438//438
f 472//472 439//439 473//473
f 438//438 439//439 472//472
f 476//476 441//441 442//442
f 442//442 478//478 476//476
f 568//568 530//530 569//569
f 530//530 570//570 569//569
f 236//236 240//240 237//237
f 88//88 181//181 107//107
f 37//37 36//36 34//34
f 118//118 120//120 262//262
f 35//35 120//120 118//118
f 29//29 28//28 41//41
f 361//361 31//31 363//363
f 361//361 363//363 139//139
f 139//139 360//360 361//361
f 30//30 360//360 29//29
f 31//31 361//361 30//30
f 30//30 361//361 360//360
f 293//293 295//295 294//294
f 412//412 295//295 293//293
f 59//59 138//138 426//426
f 426//426 60//60 59//59
f 139//139 138//138 59//59
f 59//59 60//60 168//168
f 294//294 343//343 310//310
f 343//343 311//311 310//310
f 343//343 313//313 312//312
f 312//312 311//311 343//343
f 409//409 378//378 410//410
f 381//381 378//378 409//409
f 387//387 384//384 407//407
f 376//376 379//379 380//380
f 380//380 377//377 376//376
f 343//343 375//375 316//316
f 397//397 394//394 343//343
f 343//343 400//400 397//397
f 399//399 299//299 396//396
f 399//399 400//400 299//299
f 343//343 394//394 391//391
f 391//391 388//388 343//343
f 255//255 111//111 188//188
f 255//255 188//188 115//115
f 559//559 537//537 560//560
f 560//560 537//537 561//561
f 555//555 554//554 532//532
f 415//415 428//428 506//506
f 496//496 461//461 462//462
f 462//462 497//497 496//496
f 216//216 220//220 298//298
f 216//216 296//296 218//218
f 216//216 298//298 296//296
f 76//76 77//77 98//98
f 72//72 77//77 75//75
f 72//72 73//73 77//77
f 72//72 75//75 8//8
f 8//8 73//73 72//72
f 100//100 78//78 79//79
f 221//221 224//224 222//222
f 226//226 228//228 329//329
f 89//89 249//249 182//182
f 18//18 89//89 88//88
f 18//18 373//373 372//372
f 364//364 366//366 10//10
f 94//94 158//158 91//91
f 109//109 94//94 185//185
f 185//185 94//94 96//96
f 91//91 158//158 95//95
f 87//87 86//86 20//20
f 106//106 86//86 87//87
f 88//88 107//107 87//87
f 87//87 181//181 244//244
f 87//87 107//107 181//181
f 85//85 86//86 153//153
f 244//244 181//181 246//246
f 182//182 249//249 246//246
f 246//246 181//181 88//88
f 88//88 182//182 246//246
f 79//79 70//70 67//67
f 67//67 80//80 79//79
f 68//68 80//80 67//67
f 8//8 68//68 67//67
f 67//67 70//70 8//8
f 148//148 81//81 174//174
f 148//148 80//80 81//81
f 420//420 422//422 139//139
f 139//139 512//512 420//420
f 420//420 512//512 422//422
f 513//513 512//512 514//514
f 422//422 512//512 511//511
f 511//511 424//424 422//422
f 512//512 513//513 511//511
f 426//426 424//424 511//511
f 552//552 507//507 510//510
f 484//484 449//449 450//450
f 450//450 485//485 484//484
f 486//486 452//452 453//453
f 486//486 485//485 452//452
f 517//517 436//436 542//542
f 436//436 470//470 542//542
f 474//474 473//473 440//440
f 440//440 441//441 474//474
f 240//240 236//236 178//178
f 323//323 411//411 299//299
f 323//323 322//322 411//411
f 396//396 393//393 404//404
f 346//346 249//249 248//248
f 346//346 347//347 249//249
f 338//338 243//243 244//244
f 339//339 243//243 338//338
f 237//237 240//240 319//319
f 319//319 409//409 410//410
f 93//93 118//118 119//119
f 193//193 118//118 262//262
f 141//141 93//93 35//35
f 141//141 118//118 93//93
f 42//42 28//28 27//27
f 42//42 41//41 28//28
f 128//128 41//41 42//42
f 29//29 41//41 40//40
f 40//40 30//30 29//29
f 40//40 41//41 127//127
f 294//294 310//310 292//292
f 292//292 310//310 311//311
f 377//377 380//380 308//308
f 308//308 380//380 307//307
f 203//203 41//41 128//128
f 203//203 276//276 41//41
f 127//127 41//41 160//160
f 314//314 343//343 315//315
f 343//343 316//316 315//315
f 401//401 397//397 400//400
f 302//302 401//401 300//300
f 304//304 386//386 389//389
f 379//379 343//343 382//382
f 206//206 204//204 129//129
f 261//261 119//119 118//118
f 189//189 256//256 111//111
f 111//111 255//255 189//189
f 189//189 255//255 256//256
f 565//565 563//563 538//538
f 566//566 565//565 538//538
f 539//539 566//566 538//538
f 538//538 527//527 539//539
f 535//535 556//556 555//555
f 555//555 532//532 535//535
f 557//557 556//556 535//535
f 535//535 532//532 523//523
f 523//523 526//526 535//535
f 413//413 415//415 505//505
f 415//415 506//506 505//505
f 510//510 507//507 505//505
f 505//505 506//506 510//510
f 459//459 460//460 495//495
f 460//460 461//461 495//495
f 76//76 220//220 169//169
f 212//212 216//216 218//218
f 170//170 77//77 222//222
f 170//170 98//98 77//77
f 76//76 98//98 144//144
f 226//226 224//224 223//223
f 171//171 78//78 224//224
f 224//224 221//221 171//171
f 174//174 81//81 230//230
f 230//230 232//232 325//325
f 322//322 323//323 234//234
f 234//234 323//323 232//232
f 330//330 331//331 226//226
f 226//226 329//329 330//330
f 299//299 331//331 330//330
f 330//330 329//329 299//299
f 228//228 230//230 327//327
f 108//108 182//182 88//88
f 88//88 89//89 108//108
f 108//108 89//89 182//182
f 88//88 87//87 19//19
f 19//19 87//87 20//20
f 19//19 20//20 374//374
f 374//374 373//373 19//19
f 89//89 18//18 16//16
f 16//16 18//18 372//372
f 364//364 10//10 14//14
f 14//14 362//362 364//364
f 14//14 13//13 362//362
f 14//14 90//90 13//13
f 14//14 10//10 91//91
f 91//91 90//90 14//14
f 11//11 370//370 12//12
f 368//368 370//370 11//11
f 11//11 366//366 368//368
f 11//11 10//10 366//366
f 253//253 94//94 109//109
f 250//250 95//95 158//158
f 158//158 94//94 250//250
f 94//94 253//253 250//250
f 156//156 90//90 91//91
f 106//106 87//87 154//154
f 180//180 86//86 106//106
f 180//180 243//243 86//86
f 154//154 242//242 180//180
f 106//106 154//154 180//180
f 180//180 242//242 244//244
f 244//244 243//243 180//180
f 239//239 243//243 240//240
f 24//24 23//23 85//85
f 24//24 25//25 8//8
f 8//8 23//23 24//24
f 22//22 86//86 85//85
f 85//85 23//23 22//22
f 22//22 23//23 8//8
f 84//84 24//24 85//85
f 25//25 24//24 84//84
f 237//237 103//103 84//84
f 82//82 81//81 66//66
f 102//102 232//232 82//82
f 249//249 347//347 345//345
f 345//345 246//246 249//249
f 337//337 246//246 345//345
f 345//345 407//407 337//337
f 347//347 407//407 345//345
f 225//225 228//228 226//226
f 101//101 147//147 79//79
f 79//79 80//80 101//101
f 101//101 225//225 147//147
f 101//101 80//80 228//228
f 426//426 511//511 508//508
f 508//508 428//428 426//426
f 508//508 506//506 428//428
f 551//551 575//575 574//574
f 574//574 552//552 551//551
f 576//576 575//575 551//551
f 551//551 552//552 510//510
f 507//507 552//552 531//531
f 531//531 571//571 529//529
f 531//531 572//572 571//571
f 552//552 572//572 531//531
f 449//449 484//484 483//483
f 482//482 448//448 483//483
f 483//483 448//448 449//449
f 487//487 486//486 453//453
f 453//453 454//454 487//487
f 487//487 454//454 488//488
f 517//517 542//542 544//544
f 544//544 546//546 515//515
f 515//515 517//517 544//544
f 469//469 546//546 544//544
f 544//544 470//470 469//469
f 544//544 542//542 470//470
f 441//441 476//476 475//475
f 475//475 474//474 441//441
f 240//240 178//178 238//238
f 299//299 325//325 324//324
f 324//324 323//323 299//299
f 325//325 232//232 324//324
f 232//232 323//323 324//324
f 393//393 390//390 405//405
f 405//405 404//404 393//393
f 336//336 338//338 244//244
f 244//244 246//246 336//336
f 336//336 246//246 337//337
f 337//337 407//407 336//336
f 408//408 407//407 384//384
f 408//408 336//336 407//407
f 338//338 336//336 408//408
f 408//408 384//384 381//381
f 381//381 409//409 408//408
f 408//408 409//409 339//339
f 339//339 338//338 408//408
f 340//340 319//319 240//240
f 409//409 319//319 340//340
f 237//237 319//319 320//320
f 320//320 319//319 410//410
f 35//35 118//118 140//140
f 140//140 141//141 35//35
f 118//118 141//141 140//140
f 40//40 274//274 126//126
f 129//129 204//204 43//43
f 204//204 42//42 43//43
f 27//27 26//26 43//43
f 43//43 42//42 27//27
f 31//31 30//30 38//38
f 30//30 40//40 38//38
f 40//40 126//126 38//38
f 38//38 126//126 201//201
f 55//55 53//53 139//139
f 294//294 292//292 291//291
f 288//288 312//312 313//313
f 282//282 316//316 309//309
f 377//377 308//308 309//309
f 309//309 375//375 377//377
f 309//309 316//316 375//375
f 279//279 308//308 307//307
f 279//279 43//43 205//205
f 204//204 206//206 279//279
f 279//279 206//206 277//277
f 305//305 386//386 304//304
f 305//305 306//306 386//386
f 304//304 274//274 305//305
f 276//276 306//306 305//305
f 305//305 274//274 276//276
f 202//202 40//40 127//127
f 202//202 274//274 40//40
f 160//160 273//273 202//202
f 127//127 160//160 202//202
f 202//202 273//273 276//276
f 276//276 274//274 202//202
f 394//394 397//397 398//398
f 397//397 401//401 398//398
f 401//401 302//302 398//398
f 395//395 391//391 394//394
f 394//394 398//398 395//395
f 395//395 398//398 302//302
f 391//391 395//395 392//392
f 388//388 391//391 392//392
f 392//392 389//389 388//388
f 383//383 380//380 379//379
f 379//379 382//382 383//383
f 307//307 380//380 383//383
f 383//383 306//306 307//307
f 386//386 306//306 383//383
f 383//383 382//382 386//386
f 343//343 388//388 385//385
f 385//385 382//382 343//343
f 386//386 382//382 385//385
f 388//388 389//389 385//385
f 385//385 389//389 386//386
f 256//256 255//255 259//259
f 259//259 255//255 115//115
f 262//262 261//261 260//260
f 260//260 193//193 262//262
f 357//357 261//261 262//262
f 356//356 261//261 357//357
f 262//262 120//120 195//195
f 254//254 264//264 196//196
f 36//36 37//37 123//123
f 123//123 122//122 36//36
f 564//564 562//562 536//536
f 536//536 563//563 564//564
f 536//536 538//538 563//563
f 536//536 562//562 561//561
f 561//561 537//537 536//536
f 536//536 537//537 525//525
f 525//525 527//527 536//536
f 527//527 538//538 536//536
f 534//534 558//558 557//557
f 557//557 535//535 534//534
f 559//559 558//558 534//534
f 534//534 537//537 559//559
f 534//534 535//535 526//526
f 534//534 526//526 525//525
f 525//525 537//537 534//534
f 461//461 496//496 494//494
f 494//494 495//495 461//461
f 493//493 458//458 459//459
f 459//459 495//495 493//493
f 76//76 169//169 97//97
f 97//97 169//169 143//143
f 97//97 4//4 76//76
f 97//97 143//143 4//4
f 143//143 169//169 215//215
f 220//220 216//216 215//215
f 215//215 169//169 220//220
f 222//222 220//220 219//219
f 219//219 170//170 222//222
f 98//98 170//170 219//219
f 219//219 144//144 98//98
f 226//226 223//223 172//172
f 172//172 223//223 100//100
f 172//172 79//79 226//226
f 172//172 100//100 79//79
f 78//78 100//100 146//146
f 100//100 223//223 146//146
f 99//99 145//145 77//77
f 77//77 78//78 99//99
f 78//78 171//171 99//99
f 221//221 145//145 99//99
f 99//99 171//171 221//221
f 174//174 230//230 227//227
f 227//227 230//230 228//228
f 227//227 148//148 174//174
f 176//176 232//232 102//102
f 102//102 234//234 176//176
f 237//237 234//234 233//233
f 328//328 329//329 228//228
f 228//228 327//327 328//328
f 299//299 329//329 328//328
f 328//328 327//327 299//299
f 326//326 230//230 325//325
f 326//326 327//327 230//230
f 326//326 325//325 299//299
f 299//299 327//327 326//326
f 89//89 90//90 155//155
f 17//17 18//18 88//88
f 88//88 19//19 17//17
f 373//373 18//18 17//17
f 17//17 19//19 373//373
f 372//372 362//362 15//15
f 15//15 16//16 372//372
f 362//362 13//13 15//15
f 89//89 16//16 15//15
f 13//13 90//90 15//15
f 15//15 90//90 89//89
f 12//12 93//93 92//92
f 92//92 11//11 12//12
f 91//91 10//10 92//92
f 10//10 11//11 92//92
f 115//115 96//96 92//92
f 92//92 119//119 115//115
f 93//93 119//119 92//92
f 92//92 94//94 91//91
f 96//96 94//94 92//92
f 109//109 185//185 252//252
f 256//256 253//253 252//252
f 252//252 96//96 256//256
f 252//252 185//185 96//96
f 95//95 250//250 183//183
f 91//91 95//95 183//183
f 179//179 239//239 153//153
f 243//243 239//239 179//179
f 20//20 86//86 21//21
f 86//86 22//22 21//21
f 374//374 20//20 21//21
f 8//8 374//374 21//21
f 21//21 22//22 8//8
f 25//25 84//84 61//61
f 8//8 25//25 61//61
f 61//61 63//63 8//8
f 150//150 84//84 103//103
f 103//103 233//233 150//150
f 85//85 104//104 152//152
f 152//152 84//84 85//85
f 152//152 178//178 236//236
f 152//152 104//104 178//178
f 8//8 63//63 62//62
f 63//63 61//61 83//83
f 83//83 61//61 84//84
f 83//83 62//62 63//63
f 82//82 62//62 83//83
f 102//102 82//82 83//83
f 84//84 150//150 83//83
f 83//83 234//234 102//102
f 81//81 82//82 149//149
f 228//228 225//225 173//173
f 173//173 101//101 228//228
f 225//225 101//101 173//173
f 573//573 552//552 574//574
f 573//573 572//572 552//552
f 577//577 576//576 550//550
f 576//576 551//551 550//550
f 550//550 578//578 577//577
f 151//151 104//104 85//85
f 178//178 104//104 151//151
f 151//151 238//238 178//178
f 406//406 405//405 390//390
f 406//406 390//390 387//387
f 387//387 407//407 406//406
f 406//406 407//407 347//347
f 347//347 346//346 406//406
f 400//400 399//399 402//402
f 402//402 401//401 400//400
f 404//404 405//405 351//351
f 356//356 357//357 355//355
f 355//355 261//261 356//356
f 355//355 259//259 261//261
f 240//240 243//243 341//341
f 341//341 340//340 240//240
f 341//341 243//243 339//339
f 339//339 409//409 341//341
f 409//409 340//340 341//341
f 321//321 320//320 410//410
f 410//410 411//411 321//321
f 411//411 322//322 321//321
f 237//237 320//320 321//321
f 321//321 234//234 237//237
f 322//322 234//234 321//321
f 271//271 274//274 201//201
f 201//201 126//126 271//271
f 271//271 126//126 274//274
f 129//129 43//43 161//161
f 161//161 206//206 129//129
f 277//277 206//206 161//161
f 139//139 59//59 57//57
f 57//57 55//55 139//139
f 58//58 57//57 59//59
f 55//55 57//57 58//58
f 136//136 59//59 294//294
f 294//294 291//291 136//136
f 312//312 288//288 290//290
f 311//311 312//312 290//290
f 290//290 292//292 311//311
f 286//286 313//313 314//314
f 286//286 288//288 313//313
f 282//282 309//309 280//280
f 280//280 309//309 308//308
f 308//308 279//279 280//280
f 280//280 207//207 282//282
f 280//280 279//279 205//205
f 205//205 208//208 280//280
f 204//204 279//279 278//278
f 278//278 42//42 204//204
f 276//276 203//203 278//278
f 128//128 42//42 278//278
f 278//278 279//279 307//307
f 307//307 306//306 278//278
f 278//278 306//306 276//276
f 117//117 260//260 194//194
f 194//194 260//260 261//261
f 194//194 118//118 117//117
f 194//194 261//261 118//118
f 262//262 195//195 263//263
f 263//263 195//195 257//257
f 263//263 196//196 264//264
f 200//200 268//268 272//272
f 272//272 269//269 200//200
f 201//201 274//274 272//272
f 272//272 274//274 304//304
f 272//272 38//38 201//201
f 199//199 270//270 37//37
f 199//199 269//269 270//270
f 200//200 269//269 39//39
f 31//31 38//38 39//39
f 34//34 31//31 39//39
f 39//39 37//37 34//34
f 303//303 272//272 304//304
f 269//269 272//272 303//303
f 304//304 389//389 303//303
f 389//389 392//392 303//303
f 254//254 196//196 113//113
f 457//457 458//458 491//491
f 231//231 234//234 232//232
f 232//232 176//176 231//231
f 231//231 176//176 234//234
f 237//237 233//233 177//177
f 177//177 233//233 103//103
f 186//186 253//253 109//109
f 109//109 252//252 186//186
f 186//186 252//252 253//253
f 105//105 153//153 86//86
f 105//105 179//179 153//153
f 86//86 243//243 105//105
f 64//64 66//66 8//8
f 8//8 62//62 64//64
f 64//64 82//82 66//66
f 64//64 62//62 82//82
f 232//232 230//230 229//229
f 579//579 578//578 549//549
f 578//578 550//550 549//549
f 549//549 581//581 579//579
f 580//580 581//581 549//549
f 509//509 551//551 510//510
f 509//509 550//550 551//551
f 513//513 549//549 509//509
f 509//509 549//549 550//550
f 510//510 506//506 509//509
f 506//506 508//508 509//509
f 509//509 511//511 513//513
f 509//509 508//508 511//511
f 403//403 402//402 399//399
f 403//403 399//399 396//396
f 396//396 404//404 403//403
f 349//349 351//351 405//405
f 318//318 355//355 357//357
f 318//318 357//357 262//262
f 262//262 263//263 318//318
f 256//256 259//259 352//352
f 259//259 355//355 352//352
f 352//352 253//253 256//256
f 352//352 355//355 354//354
f 53//53 55//55 56//56
f 55//55 58//58 56//56
f 167//167 58//58 59//59
f 59//59 136//136 167//167
f 167//167 136//136 291//291
f 275//275 203//203 128//128
f 128//128 278//278 275//275
f 275//275 278//278 203//203
f 115//115 119//119 114//114
f 114//114 259//259 115//115
f 114//114 192//192 259//259
f 261//261 259//259 258//258
f 259//259 192//192 258//258
f 119//119 261//261 258//258
f 200//200 39//39 125//125
f 125//125 39//39 38//38
f 124//124 39//39 269//269
f 124//124 199//199 37//37
f 37//37 39//39 124//124
f 270//270 269//269 301//301
f 269//269 303//303 301//301
f 301//301 303//303 392//392
f 301//301 395//395 302//302
f 301//301 392//392 395//395
f 187//187 264//264 254//254
f 254//254 113//113 187//187
f 122//122 264//264 187//187
f 187//187 113//113 122//122
f 122//122 113//113 121//121
f 121//121 120//120 36//36
f 36//36 122//122 121//121
f 196//196 263//263 121//121
f 121//121 113//113 196//196
f 270//270 198//198 265//265
f 112//112 198//198 123//123
f 112//112 37//37 157//157
f 112//112 123//123 37//37
f 157//157 265//265 112//112
f 112//112 265//265 198//198
f 266//266 198//198 270//270
f 123//123 198//198 266//266
f 490//490 489//489 456//456
f 456//456 457//457 490//490
f 457//457 491//491 490//490
f 458//458 493//493 492//492
f 492//492 491//491 458//458
f 235//235 103//103 237//237
f 237//237 177//177 235//235
f 235//235 177//177 103//103
f 243//243 179//179 241//241
f 241//241 105//105 243//243
f 179//179 105//105 241//241
f 175//175 149//149 82//82
f 175//175 82//82 232//232
f 175//175 229//229 149//149
f 232//232 229//229 175//175
f 548//548 582//582 580//580
f 580//580 549//549 548//548
f 548//548 583//583 582//582
f 548//548 549//549 513//513
f 354//354 402//402 353//353
f 402//402 403//403 353//353
f 353//353 352//352 354//354
f 351//351 352//352 353//353
f 404//404 351//351 353//353
f 353//353 403//403 404//404
f 350//350 406//406 346//346
f 350//350 346//346 248//248
f 248//248 349//349 350//350
f 405//405 406//406 350//350
f 350//350 349//349 405//405
f 300//300 318//318 317//317
f 317//317 302//302 300//300
f 317//317 301//301 302//302
f 270//270 301//301 317//317
f 317//317 266//266 270//270
f 264//264 266//266 317//317
f 317//317 263//263 264//264
f 317//317 318//318 263//263
f 253//253 352//352 348//348
f 348//348 250//250 253//253
f 348//348 183//183 250//250
f 248//248 247//247 348//348
f 348//348 352//352 351//351
f 348//348 349//349 248//248
f 351//351 349//349 348//348
f 207//207 47//47 131//131
f 282//282 207//207 131//131
f 131//131 47//47 282//282
f 44//44 47//47 45//45
f 45//45 26//26 44//44
f 45//45 43//43 26//26
f 205//205 43//43 45//45
f 45//45 47//47 207//207
f 207//207 280//280 45//45
f 139//139 53//53 51//51
f 46//46 44//44 139//139
f 139//139 48//48 46//46
f 46//46 47//47 44//44
f 46//46 48//48 47//47
f 47//47 48//48 50//50
f 292//292 290//290 289//289
f 192//192 114//114 191//191
f 191//191 258//258 192//192
f 191//191 114//114 119//119
f 119//119 258//258 191//191
f 159//159 268//268 200//200
f 200//200 125//125 159//159
f 159//159 125//125 38//38
f 269//269 199//199 267//267
f 267//267 124//124 269//269
f 199//199 124//124 267//267
f 120//120 121//121 190//190
f 257//257 195//195 190//190
f 190//190 263//263 257//257
f 190//190 121//121 263//263
f 197//197 264//264 122//122
f 197//197 266//266 264//264
f 584//584 583//583 543//543
f 583//583 548//548 543//543
f 543//543 585//585 584//584
f 543//543 547//547 585//585
f 514//514 547//547 543//543
f 543//543 513//513 514//514
f 543//543 548//548 513//513
f 130//130 208//208 205//205
f 205//205 45//45 130//130
f 130//130 280//280 208//208
f 130//130 45//45 280//280
f 282//282 47//47 132//132
f 47//47 50//50 132//132
f 49//49 51//51 52//52
f 52//52 50//50 49//49
f 49//49 50//50 48//48
f 49//49 48//48 139//139
f 139//139 51//51 49//49
f 52//52 51//51 54//54
f 53//53 56//56 54//54
f 54//54 51//51 53//53
f 56//56 165//165 54//54
f 288//288 133//133 54//54
f 288//288 286//286 285//285
f 285//285 133//133 288//288
f 134//134 56//56 290//290
f 134//134 165//165 56//56
f 287//287 290//290 288//288
f 287//287 134//134 290//290
f 165//165 134//134 287//287
f 292//292 289//289 211//211
f 166//166 56//56 58//58
f 116//116 195//195 120//120
f 120//120 190//190 116//116
f 116//116 190//190 195//195
f 122//122 123//123 110//110
f 110//110 197//197 122//122
f 282//282 132//132 281//281
f 162//162 50//50 209//209
f 162//162 132//132 50//50
f 209//209 281//281 162//162
f 162//162 281//281 132//132
f 209//209 50//50 284//284
f 284//284 283//283 286//286
f 284//284 281//281 209//209
f 282//282 281//281 284//284
f 284//284 316//316 282//282
f 284//284 315//315 316//316
f 314//314 315//315 284//284
f 284//284 286//286 314//314
f 52//52 286//286 210//210
f 286//286 283//283 210//210
f 163//163 50//50 52//52
f 52//52 210//210 163//163
f 163//163 210//210 283//283
f 133//133 285//285 164//164
f 52//52 54//54 164//164
f 164//164 54//54 133//133
f 135//135 166//166 58//58
f 135//135 58//58 292//292
f 292//292 211//211 135//135
f 289//289 166//166 135//135
f 135//135 211//211 289//289
f 266//266 197//197 251//251
f 197//197 110//110 251//251
f 266//266 251//251 184//184
f 184//184 251//251 110//110
f 123//123 266//266 184//184
f 184//184 110//110 123//123
f 9//9 137//137 139//139
f 9//9 139//139 8//8
f 416//416 417//417 460//460
f 459//459 416//416 460//460
f 7//7 9//9 8//8
f 8//8 5//5 7//7
f 419//419 7//7 418//418
f 9//9 7//7 419//419
f 297//297 299//299 343//343
f 343//343 344//344 297//297
f 297//297 344//344 434//434
f 344//344 435//435 434//434
f 214//214 417//417 416//416
f 297//297 417//417 214//214
f 214//214 299//299 297//297
f 214//214 296//296 299//299
f 524//524 434//434 435//435
f 435//435 523//523 524//524
f 418//418 7//7 213//213
f 213//213 416//416 418//418
f 213//213 7//7 5//5
f 213//213 214//214 416//416
f 296//296 214//214 213//213
f 5//5 2//2 213//213
f 444//444 419//419 418//418
f 444//444 442//442 419//419
f 137//137 9//9 431//431
f 9//9 432//432 431//431
f 32//32 35//35 93//93
f 12//12 32//32 93//93
f 217//217 1//1 3//3
f 3//3 218//218 217//217
f 217//217 213//213 2//2
f 2//2 1//1 217//217
f 516//516 431//431 432//432
f 516//516 432//432 515//515
f 467//467 468//468 546//546
f 468//468 545//545 546//546
f 546//546 516//516 515//515
f 545//545 516//516 546//546
f 293//293 413//413 412//412
f 293//293 168//168 413//413
f 168//168 293//293 59//59
f 59//59 293//293 294//294
f 532//532 554//554 502//502
f 502//502 533//533 532//532
f 532//532 524//524 523//523
f 533//533 524//524 532//532
f 505//505 503//503 412//412
f 504//504 503//503 505//505
f 412//412 413//413 505//505
f 505//505 507//507 504//504
f 212//212 218//218 3//3
f 3//3 142//142 212//212
f 142//142 4//4 212//212
f 4//4 216//216 212//212
f 145//145 221//221 222//222
f 222//222 77//77 145//145
f 242//242 154//154 87//87
f 242//242 87//87 244//244
f 85//85 153//153 239//239
f 239//239 240//240 85//85
f 79//79 147//147 225//225
f 226//226 79//79 225//225
f 504//504 507//507 531//531
f 531//531 529//529 504//504
f 273//273 160//160 41//41
f 41//41 276//276 273//273
f 118//118 193//193 260//260
f 117//117 118//118 260//260
f 215//215 216//216 4//4
f 4//4 143//143 215//215
f 76//76 144//144 219//219
f 219//219 220//220 76//76
f 146//146 223//223 224//224
f 224//224 78//78 146//146
f 80//80 148//148 227//227
f 228//228 80//80 227//227
f 249//249 89//89 155//155
f 245//245 249//249 155//155
f 248//248 245//245 155//155
f 155//155 90//90 248//248
f 248//248 90//90 247//247
f 90//90 156//156 247//247
f 237//237 84//84 152//152
f 152//152 236//236 237//237
f 83//83 150//150 233//233
f 83//83 233//233 234//234
f 85//85 240//240 151//151
f 240//240 238//238 151//151
f 402//402 354//354 300//300
f 300//300 401//401 402//402
f 43//43 279//279 161//161
f 161//161 279//279 277//277
f 229//229 230//230 81//81
f 81//81 149//149 229//229
f 300//300 354//354 318//318
f 354//354 355//355 318//318
f 292//292 58//58 167//167
f 167//167 291//291 292//292
f 37//37 270//270 265//265
f 157//157 37//37 265//265
f 559//559 560//560 492//492
f 492//492 585//585 586//586
f 555//555 556//556 492//492
f 577//577 578//578 492//492
f 502//502 554//554 492//492
f 492//492 468//468 467//467
f 580//580 582//582 492//492
f 492//492 583//583 584//584
f 574//574 575//575 492//492
f 568//568 569//569 492//492
f 477//477 479//479 492//492
f 467//467 469//469 492//492
f 586//586 553//553 492//492
f 492//492 478//478 477//477
f 584//584 585//585 492//492
f 492//492 581//581 580//580
f 492//492 576//576 577//577
f 482//482 483//483 492//492
f 564//564 563//563 492//492
f 492//492 501//501 502//502
f 492//492 553//553 468//468
f 473//473 474//474 492//492
f 492//492 494//494 496//496
f 582//582 583//583 492//492
f 579//579 581//581 492//492
f 492//492 578//578 579//579
f 492//492 575//575 576//576
f 492//492 567//567 568//568
f 492//492 558//558 559//559
f 492//492 562//562 564//564
f 500//500 501//501 492//492
f 488//488 489//489 492//492
f 492//492 499//499 500//500
f 492//492 481//481 482//482
f 469//469 470//470 492//492
f 492//492 472//472 473//473
f 492//492 570//570 571//571
f 566//566 567//567 492//492
f 492//492 565//565 566//566
f 492//492 554//554 555//555
f 498//498 499//499 492//492
f 492//492 497//497 498//498
f 480//480 481//481 492//492
f 492//492 479//479 480//480
f 492//492 573//573 574//574
f 492//492 470//470 471//471
f 471//471 472//472 492//492
f 492//492 476//476 478//478
f 492//492 569//569 570//570
f 492//492 563//563 565//565
f 492//492 560//560 561//561
f 557//557 558//558 492//492
f 561//561 562//562 492//492
f 492//492 556//556 557//557
f 492//492 496//496 497//497
f 492//492 484//484 485//485
f 485//485 486//486 492//492
f 492//492 487//487 488//488
f 492//492 475//475 476//476
f 571//571 572//572 492//492
f 492//492 483//483 484//484
f 486//486 487//487 492//492
f 474//474 475//475 492//492
f 495//495 494//494 492//492
f 492//492 493//493 495//495
f 572//572 573//573 492//492
f 489//489 490//490 492//492
f 492//492 490//490 491//491
f 91//91 183//183 348//348
f 348//348 247//247 156//156
f 348//348 156//156 91//91
f 159//159 272//272 268//268
f 38//38 272//272 159//159
f 287//287 54//54 165//165
f 288//288 54//54 287//287
f 166//166 289//289 290//290
f 290//290 56//56 166//166
f 283//283 284//284 163//163
f 163//163 284//284 50//50
f 164//164 285//285 286//286
f 164//164 286//286 52//52

