# https://github.com/mikedh/trimesh
v 9.50000000 7.40000010 35.50000000
v 9.49798584 7.40000010 35.69562912
v 9.49194336 8.19999981 35.89117813
v 8.77452469 5.00000000 39.14078140
v 8.55634022 8.19999981 39.62783813
v 9.50000000 10.00000000 27.75000000
v 8.50000000 11.00000000 27.75000000
v 2.78999996 8.39999962 44.37163544
v 2.67140579 8.39999962 44.39921570
v 2.54999995 8.39999962 44.40848160
v 6.08450747 8.39999962 42.53327560
v 8.37528706 8.39999962 39.54261780
v -6.18044662 8.39999962 42.44911194
v -2.78999996 8.39999962 44.37163544
v -2.54999995 8.39999962 44.40848160
v -2.67140579 8.39999962 44.39921570
v -2.54999995 8.19999981 44.60848236
v -2.70175767 8.19999981 44.59690094
v -2.84999990 8.19999981 44.56242371
v -8.48314285 8.39999962 39.31108093
v -6.31205893 8.19999981 42.59985352
v -8.66644573 8.19999981 39.39136505
v -9.50000000 8.19999981 35.50000000
v -9.50000000 10.00000000 27.75000000
v 9.29211235 8.39999962 35.88294220
v 6.21399069 8.19999981 42.68584061
v 2.84999990 8.19999981 44.56242371
v 2.70175767 8.19999981 44.59690094
v 2.54999995 8.19999981 44.60848236
v 1.44169438 7.40000010 44.88994217
v 3.64078116 5.00000000 44.27452469
v 6.71750927 5.00000000 42.21751022
v -0.00000000 7.40000010 45.00000000
v -0.00000000 5.00000000 45.00000000
v -3.64078116 5.00000000 44.27452469
v -1.44169438 7.40000010 44.88994217
v -6.71750927 5.00000000 42.21751022
v -8.77452469 5.00000000 39.14078140
v -8.50000000 11.00000000 27.75000000
v -0.00522057 7.54511642 44.93841934
v -9.25957108 4.94999981 37.62302017
v 8.55952454 4.94999981 39.62102509
v 5.91426659 4.94999981 42.93432236
v 7.43142080 4.94999981 41.41748428
v -2.13262415 4.94999981 44.75740814
v 4.10349703 4.94999981 44.06801987
v 2.08905888 4.94999981 44.76731873
v -5.92736244 4.94999981 42.92390823
v -8.55508804 4.94999981 39.63016891
v 8.55508804 -4.94999981 39.63016891
v 9.25957108 -4.94999981 37.62302017
v 5.92736244 -4.94999981 42.92390823
v 2.13262415 -4.94999981 44.75740814
v -2.08905888 -4.94999981 44.76731873
v -4.10349703 -4.94999981 44.06801987
v -7.43142080 -4.94999981 41.41748428
v -5.91426659 -4.94999981 42.93432236
v -8.55952454 -4.94999981 39.62102509
v 8.55952454 -5.00000000 39.62102509
v 9.50000000 -7.40000010 35.50000000
v 7.43142080 -5.00000000 41.41748428
v 8.55634022 -8.19999981 39.62783813
v 9.49798584 -7.40000010 35.69562912
v 9.49194336 -8.19999981 35.89117813
v 5.91426659 -5.00000000 42.93432236
v 6.21399069 -8.19999981 42.68584061
v 4.10349703 -5.00000000 44.06801987
v 2.08905888 -5.00000000 44.76731873
v -2.13262415 -5.00000000 44.75740814
v -0.00000000 -7.40000010 44.99999619
v -5.92736244 -5.00000000 42.92390823
v -8.55508804 -5.00000000 39.63016891
v -6.31205893 -8.19999981 42.59985352
v -2.84999990 -8.19999981 44.56242371
v -9.25957108 -5.00000000 37.62302017
v -8.66644573 -8.19999981 39.39136505
v -9.50000000 -8.19999981 35.50000000
v -9.50000000 -10.00000000 27.75000000
v 9.50000000 -10.00000000 27.75000000
v 8.50000000 -11.00000000 27.75000000
v -6.18048382 -8.39999962 42.44907761
v -2.78999996 -8.39999962 44.37163544
v -8.48316383 -8.39999962 39.31103516
v -2.67140579 -8.39999962 44.39921570
v -2.54999995 -8.39999962 44.40848160
v -2.70175767 -8.19999981 44.59690094
v -2.54999995 -8.19999981 44.60848236
v 9.29211235 -8.39999962 35.88294220
v 6.08455563 -8.39999962 42.53323364
v 8.37531471 -8.39999962 39.54256058
v 2.78999996 -8.39999962 44.37163544
v -8.50000000 -11.00000000 27.75000000
v 2.84999990 -8.19999981 44.56242371
v 2.70175767 -8.19999981 44.59690094
v 2.67140579 -8.39999962 44.39921570
v 2.54999995 -8.39999962 44.40848160
v 2.54999995 -8.19999981 44.60848236
v 0.00522057 -7.54511642 44.93841934
v -1.55555415 10.19999981 37.05555344
v -0.84461474 10.19999981 37.53131866
v 0.84461474 10.19999981 37.53131866
v -0.00000000 10.19999981 37.70000076
v 1.55555415 10.19999981 37.05555344
v -4.63520908 -9.80000019 38.17159271
v -2.68249726 -9.80000019 40.12887573
v 2.66118598 -9.80000019 40.14115524
v -0.01018121 -9.80000019 40.84994507
v 4.62121344 -9.80000019 38.19571686
v -9.30000019 -11.00000000 11.50000000
v -9.30000019 -11.00000000 13.50000000
v -9.50000000 -10.80000019 11.50000000
v -9.50000000 -10.80000019 13.50000000
v 9.30000019 -11.00000000 11.50000000
v 9.30000019 -11.00000000 13.50000000
v 9.50000000 -10.80000019 13.50000000
v 9.50000000 -10.80000019 11.50000000
v -6.05000019 -11.50000000 3.50000000
v -5.23873425 -11.50000000 6.52614832
v -6.03704119 -7.50001526 -1.61760068
v -6.03703642 -11.30000019 -1.61761904
v -6.05000019 -11.50000000 -0.00000000
v 6.05000019 -11.50000000 3.50000000
v 6.05000019 -11.50000000 0.00000000
v 5.23875189 -11.50000000 6.52611780
v 3.02614832 -11.50000000 8.73873425
v -0.00000000 -11.50000000 9.55000019
v -3.02611780 -11.50000000 8.73875237
v 1.61761165 -7.50001526 -6.03703833
v 1.61761904 -11.30000019 -6.03703642
v -0.00000000 -11.30000019 -6.25000000
v -0.00000000 -11.50000000 -6.05000019
v -0.00001826 -7.50001526 -6.25000000
v -1.61761904 -11.30000019 -6.03703642
v -3.02614832 -11.50000000 -5.23873425
v 3.12500191 -7.50001526 -5.41265774
v 3.12500000 -11.30000019 -5.41265869
v 4.41942406 -7.50001526 -4.41941071
v 4.41941738 -11.30000019 -4.41941738
v 3.02611780 -11.50000000 -5.23875189
v 5.41266489 -7.50001526 -3.12498927
v 5.41265869 -11.30000019 -3.12500000
v 5.23873425 -11.50000000 -3.02614832
v 6.03703880 -7.50001526 -1.61760974
v 6.03703642 -11.30000019 -1.61761904
v -1.61764562 -7.50001526 -6.03702927
v -3.12500000 -11.30000019 -5.41265869
v -3.12502933 -7.50001526 -5.41264200
v -4.41941738 -11.30000019 -4.41941738
v -4.41944218 -7.50001526 -4.41939259
v -5.41265869 -11.30000019 -3.12500000
v -5.41267395 -7.50001526 -3.12497354
v -5.23875189 -11.50000000 -3.02611780
v 5.41231728 8.39999962 -3.12560344
v 3.12517190 8.39999962 -5.41255569
v -5.40816307 8.39999962 -3.13276458
v -3.11988997 8.39999962 -5.41560173
v -6.03548527 8.39999962 -1.62316644
v 5.41265869 11.30000019 -3.12500000
v 6.25000000 11.30000019 0.00000000
v 0.00325134 8.39999962 -6.24991703
v 3.12500000 11.30000019 -5.41265869
v -0.00000000 11.30000019 -6.25000000
v -3.12500000 11.30000019 -5.41265869
v -5.41265869 11.30000019 -3.12500000
v 6.05000019 11.50000000 0.00000000
v 6.05000019 11.50000000 3.50000000
v 5.23875189 11.50000000 -3.02611780
v 3.02614832 11.50000000 -5.23873425
v -0.00000000 11.50000000 -6.05000019
v -3.02611780 11.50000000 -5.23875189
v -6.25000000 11.30000019 0.00000001
v -5.23873425 11.50000000 -3.02614832
v -6.05000019 11.50000000 0.00000001
v 9.50000000 10.80000019 11.50000000
v 9.50000000 10.80000019 13.50000000
v -9.50000000 10.80000019 13.50000000
v -9.50000000 10.80000019 11.50000000
v -9.30000019 11.00000000 13.50000000
v -9.30000019 11.00000000 11.50000000
v 9.30000019 11.00000000 11.50000000
v 9.30000019 11.00000000 13.50000000
v 5.23873425 11.50000000 6.52614832
v -6.05000019 11.50000000 3.50000000
v -5.23875189 11.50000000 6.52611780
v -3.02614832 11.50000000 8.73873425
v -0.00000000 11.50000000 9.55000019
v 3.02611780 11.50000000 8.73875237
vn 0.99998130 0.00323786 0.00518861
vn 0.99980280 0.00145132 0.01980546
vn 0.92402889 0.35321313 0.14632529
vn 0.94771304 0.00884875 0.31900109
vn 0.83464275 0.38124577 0.39752123
vn 0.91575512 0.39765667 0.05711156
vn 0.38744814 0.91727194 0.09217446
vn 0.18549055 0.85879583 0.47755940
vn 0.07768342 0.86326339 0.49874002
vn 0.02037014 0.86411499 0.50288204
vn 0.33878938 0.85037384 0.40259918
vn 0.50533775 0.82028819 0.26788251
vn -0.34473014 0.84951351 0.39935940
vn -0.18740215 0.85849636 0.47735148
vn -0.02037014 0.86411499 0.50288204
vn -0.07768342 0.86326339 0.49874002
vn -0.04839483 0.49787915 0.86589508
vn -0.16474751 0.39961218 0.90175849
vn -0.32916815 0.38061000 0.86416686
vn -0.51466273 0.81692781 0.26029065
vn -0.61555446 0.37991398 0.69047671
vn -0.84074199 0.38019561 0.38549217
vn -0.93284288 0.33856569 0.12319670
vn -0.91554789 0.39799059 0.05809946
vn 0.68281002 0.71155524 0.16570944
vn 0.60238686 0.38539305 0.69900091
vn 0.32435204 0.38237347 0.86520881
vn 0.16476075 0.39959516 0.90176361
vn 0.04839417 0.49787899 0.86589521
vn 0.12393768 0.10137086 0.98709848
vn 0.37825743 0.00580475 0.92568225
vn 0.71672648 0.00578945 0.69733036
vn 0.00011584 0.18213763 0.98327304
vn 0.00000000 -0.00000025 1.00000000
vn -0.43049730 0.01185108 0.90251406
vn -0.12394812 0.10134548 0.98709977
vn -0.75503898 0.00947482 0.65561144
vn -0.93699379 0.00219523 0.34933910
vn -0.38779272 0.91707143 0.09271891
vn -0.00032914 0.41521210 0.90972458
vn -0.97754461 0.01264490 0.21034884
vn 0.90935351 0.00000887 0.41602427
vn 0.58357863 0.00429033 0.81204530
vn 0.79764057 0.01353634 0.60298117
vn -0.22574150 0.00082450 0.97418689
vn 0.47069549 0.01478024 0.88217192
vn 0.22285951 0.00083076 0.97485022
vn -0.57596642 0.00823637 0.81743186
vn -0.86411334 0.00645101 0.50325591
vn 0.86425571 -0.00001323 0.50305274
vn 0.97295189 -0.01102406 0.23074464
vn 0.63070182 -0.00012630 0.77602525
vn 0.24191043 -0.00115166 0.97029790
vn -0.16849976 -0.00612632 0.98568266
vn -0.45637871 -0.01362932 0.88968124
vn -0.79297734 -0.01282819 0.60911606
vn -0.57457046 -0.00630706 0.81843082
vn -0.90315810 -0.00003990 0.42930811
vn 0.90950968 -0.00001971 0.41568274
vn 0.99998130 -0.00323786 0.00518861
vn 0.79007941 -0.01185054 0.61288994
vn 0.83165833 -0.38424034 0.40087877
vn 0.99980280 -0.00145132 0.01980546
vn 0.92291087 -0.35831059 0.14088666
vn 0.57758411 -0.00512534 0.81631509
vn 0.60264916 -0.38491272 0.69903948
vn 0.45549111 -0.01264804 0.89015048
vn 0.17249138 -0.00790541 0.98497930
vn -0.23531829 -0.00498545 0.97190558
vn -0.00019199 -0.17054843 0.98534928
vn -0.62364729 -0.00395860 0.78169584
vn -0.87470432 -0.00315740 0.48464665
vn -0.61204708 -0.38551547 0.69048982
vn -0.32689502 -0.38231102 0.86427885
vn -0.97660499 -0.01231148 0.21468841
vn -0.84128096 -0.38422580 0.38028527
vn -0.93283021 -0.33864560 0.12307297
vn -0.91554789 -0.39799059 0.05809946
vn 0.91575512 -0.39765667 0.05711156
vn 0.38721645 -0.91752084 0.09065832
vn -0.36954061 -0.83128787 0.41521106
vn -0.19775955 -0.83686410 0.51044064
vn -0.51467094 -0.81692672 0.26027784
vn -0.08555157 -0.84096148 0.53428899
vn -0.02337563 -0.83715453 0.54646671
vn -0.15666435 -0.39279733 0.90618240
vn -0.04839430 -0.49787706 0.86589631
vn 0.68281194 -0.71155353 0.16570885
vn 0.36347676 -0.83212715 0.41886639
vn 0.50556824 -0.82013048 0.26793050
vn 0.19575200 -0.83720829 0.51065001
vn -0.38756565 -0.91732134 0.09118344
vn 0.32435367 -0.38221924 0.86527634
vn 0.15671544 -0.39283554 0.90615700
vn 0.08555644 -0.84104061 0.53416364
vn 0.02338866 -0.83718458 0.54642012
vn 0.04839496 -0.49787722 0.86589619
vn 0.00032925 -0.41520016 0.90973003
vn -0.12994724 0.97392758 0.18595370
vn -0.06608901 0.98279656 0.17246207
vn 0.06591842 0.98282489 0.17236589
vn -0.00000000 0.98424113 0.17683153
vn 0.12983413 0.97398034 0.18575626
vn -0.22378543 -0.95409098 0.19907406
vn -0.11508278 -0.97033190 0.21263101
vn 0.11397943 -0.97044638 0.21270288
vn -0.00039721 -0.97179175 0.23584029
vn 0.22354888 -0.95412624 0.19917085
vn -0.47265669 -0.87995932 -0.04761566
vn -0.44761074 -0.89411627 0.01416717
vn -0.92348074 -0.36714057 -0.11131542
vn -0.92141570 -0.38842160 0.01103465
vn 0.47265669 -0.87995932 -0.04761566
vn 0.44761074 -0.89411627 0.01416717
vn 0.92141570 -0.38842160 0.01103465
vn 0.92348074 -0.36714057 -0.11131542
vn -0.07623958 -0.99708890 0.00111738
vn -0.02725898 -0.99958289 0.00953921
vn -0.96503386 0.00000059 -0.26212527
vn -0.81925318 -0.51093592 -0.26032423
vn -0.26879787 -0.96154319 -0.05641271
vn 0.07623959 -0.99708890 0.00111737
vn 0.26879786 -0.96154319 -0.05641277
vn 0.02725922 -0.99958288 0.00953917
vn 0.00839934 -0.99988128 0.01291833
vn 0.00000002 -0.99989247 0.01466451
vn -0.00839924 -0.99988128 0.01291835
vn 0.25891721 0.00031243 -0.96589947
vn 0.22500309 -0.49439004 -0.83961425
vn -0.00000296 -0.37188003 -0.92828080
vn -0.00000006 -0.91267392 -0.40868853
vn -0.06540401 0.00000001 -0.99785887
vn -0.22499244 -0.49439649 -0.83961331
vn -0.20447650 -0.91269952 -0.35379225
vn 0.48288683 -0.00000002 -0.87568277
vn 0.46401527 -0.37193031 -0.80396373
vn 0.70709357 0.00031222 -0.70711992
vn 0.61472975 -0.49417855 -0.61473157
vn 0.20447221 -0.91269952 -0.35379472
vn 0.89862434 -0.00000000 -0.43871893
vn 0.80396544 -0.37193133 -0.46401148
vn 0.35379225 -0.91269952 -0.20447650
vn 0.94759501 0.00120487 -0.31947181
vn 0.81925412 -0.51093040 -0.26033212
vn -0.25860412 0.00031279 -0.96598334
vn -0.46401631 -0.37193943 -0.80395891
vn -0.55506817 0.00000001 -0.83180486
vn -0.61471879 -0.49418965 -0.61473360
vn -0.70686501 0.00031312 -0.70734840
vn -0.80395838 -0.37195155 -0.46400751
vn -0.89691006 -0.00000050 -0.44221301
vn -0.35379472 -0.91269952 -0.20447221
vn 0.83377066 0.00001612 -0.55211093
vn 0.56238012 0.00000382 -0.82687883
vn -0.82979750 0.00020052 -0.55806457
vn -0.44041731 0.00013026 -0.89779317
vn -0.94953733 0.02082026 -0.31296225
vn 0.80385564 0.36840174 -0.46700779
vn 0.82717758 0.51887416 -0.21574718
vn 0.07881288 0.00005769 -0.99688943
vn 0.46488153 0.36717706 -0.80564643
vn -0.00000006 0.36713943 -0.93016592
vn -0.46488567 0.36718058 -0.80564244
vn -0.79646407 0.37663270 -0.47306744
vn 0.38092119 0.91967066 -0.09541969
vn 0.07623958 0.99708890 0.00111738
vn 0.37589472 0.90077022 -0.21752281
vn 0.21753344 0.90077019 -0.37588865
vn 0.00000003 0.90073629 -0.43436637
vn -0.21752281 0.90077022 -0.37589472
vn -0.82717758 0.51887417 -0.21574718
vn -0.37588865 0.90077019 -0.21753344
vn -0.38092118 0.91967066 -0.09541972
vn 0.92270072 0.36772897 -0.11575313
vn 0.92141570 0.38842160 0.01103465
vn -0.92141570 0.38842160 0.01103465
vn -0.92272358 0.36828411 -0.11378933
vn -0.44761074 0.89411627 0.01416717
vn -0.47370864 0.87922307 -0.05066482
vn 0.47370864 0.87922307 -0.05066482
vn 0.44761074 0.89411627 0.01416717
vn 0.02725898 0.99958289 0.00953921
vn -0.07623959 0.99708890 0.00111737
vn -0.02725922 0.99958288 0.00953917
vn -0.00839934 0.99988128 0.01291833
vn -0.00000002 0.99989247 0.01466451
vn 0.00839924 0.99988128 0.01291835
f 165//165 174//174 159//159
f 7//7 39//39 102//102
f 164//164 157//157 177//177
f 180//180 174//174 165//165
f 143//143 174//174 144//144
f 76//76 38//38 75//75
f 76//76 75//75 77//77
f 172//172 163//163 164//164
f 107//107 92//92 80//80
f 80//80 92//92 126//126
f 88//88 80//80 64//64
f 88//88 90//90 80//80
f 76//76 56//56 72//72
f 151//151 157//157 164//164
f 164//164 150//150 151//151
f 151//151 150//150 157//157
f 157//157 150//150 120//120
f 41//41 75//75 38//38
f 78//78 92//92 76//76
f 76//76 77//77 78//78
f 182//182 187//187 7//7
f 186//186 39//39 7//7
f 7//7 187//187 186//186
f 39//39 13//13 99//99
f 23//23 41//41 22//22
f 22//22 41//41 38//38
f 22//22 24//24 23//23
f 39//39 24//24 22//22
f 22//22 38//38 76//76
f 164//164 177//177 171//171
f 163//163 172//172 170//170
f 44//44 5//5 26//26
f 26//26 8//8 27//27
f 80//80 124//124 122//122
f 106//106 107//107 80//80
f 125//125 124//124 80//80
f 80//80 126//126 125//125
f 118//118 92//92 117//117
f 155//155 150//150 164//164
f 155//155 148//148 150//150
f 119//119 177//177 157//157
f 157//157 120//120 119//119
f 119//119 120//120 177//177
f 166//166 182//182 7//7
f 7//7 181//181 166//166
f 185//185 184//184 39//39
f 39//39 186//186 185//185
f 7//7 102//102 101//101
f 101//101 103//103 7//7
f 19//19 14//14 21//21
f 21//21 14//14 13//13
f 20//20 13//13 39//39
f 39//39 22//22 20//20
f 20//20 21//21 13//13
f 22//22 21//21 20//20
f 49//49 72//72 56//56
f 173//173 172//172 164//164
f 164//164 171//171 173//173
f 173//173 171//171 177//177
f 12//12 26//26 5//5
f 8//8 26//26 11//11
f 11//11 101//101 8//8
f 103//103 101//101 11//11
f 7//7 103//103 11//11
f 11//11 12//12 7//7
f 26//26 12//12 11//11
f 44//44 26//26 32//32
f 32//32 61//61 44//44
f 64//64 60//60 63//63
f 7//7 12//12 25//25
f 25//25 12//12 5//5
f 64//64 51//51 62//62
f 62//62 88//88 64//64
f 90//90 88//88 62//62
f 64//64 80//80 79//79
f 79//79 60//60 64//64
f 144//144 116//116 113//113
f 113//113 123//123 144//144
f 144//144 123//123 142//142
f 150//150 148//148 152//152
f 152//152 120//120 150//150
f 76//76 92//92 83//83
f 83//83 81//81 76//76
f 92//92 81//81 83//83
f 104//104 81//81 92//92
f 105//105 107//107 82//82
f 82//82 81//81 105//105
f 81//81 104//104 105//105
f 92//92 107//107 105//105
f 105//105 104//104 92//92
f 73//73 56//56 76//76
f 76//76 81//81 73//73
f 73//73 81//81 82//82
f 19//19 21//21 35//35
f 65//65 67//67 66//66
f 66//66 62//62 61//61
f 61//61 32//32 66//66
f 66//66 32//32 26//26
f 95//95 107//107 91//91
f 107//107 106//106 91//91
f 80//80 90//90 108//108
f 108//108 106//106 80//80
f 96//96 107//107 95//95
f 96//96 85//85 107//107
f 82//82 107//107 84//84
f 107//107 85//85 84//84
f 127//127 126//126 92//92
f 92//92 118//118 127//127
f 93//93 66//66 67//67
f 93//93 91//91 66//66
f 27//27 93//93 31//31
f 31//31 93//93 67//67
f 165//165 159//159 158//158
f 158//158 159//159 174//174
f 174//174 143//143 158//158
f 158//158 143//143 144//144
f 163//163 170//170 169//169
f 149//149 155//155 164//164
f 148//148 155//155 149//149
f 164//164 163//163 149//149
f 163//163 148//148 149//149
f 147//147 148//148 163//163
f 147//147 146//146 148//148
f 117//117 92//92 110//110
f 100//100 99//99 13//13
f 13//13 14//14 100//100
f 100//100 102//102 39//39
f 39//39 99//99 100//100
f 36//36 34//34 33//33
f 54//54 70//70 36//36
f 70//70 34//34 36//36
f 55//55 35//35 48//48
f 48//48 35//35 21//21
f 58//58 22//22 76//76
f 76//76 72//72 58//58
f 58//58 49//49 22//22
f 72//72 49//49 58//58
f 183//183 178//178 39//39
f 39//39 184//184 183//183
f 179//179 173//173 177//177
f 3//3 25//25 5//5
f 3//3 6//6 7//7
f 7//7 25//25 3//3
f 44//44 61//61 50//50
f 50//50 5//5 44//44
f 61//61 62//62 50//50
f 50//50 62//62 5//5
f 138//138 142//142 139//139
f 148//148 146//146 134//134
f 134//134 152//152 148//148
f 134//134 146//146 133//133
f 37//37 73//73 21//21
f 56//56 73//73 37//37
f 37//37 49//49 56//56
f 37//37 21//21 22//22
f 22//22 49//49 37//37
f 74//74 73//73 82//82
f 55//55 73//73 74//74
f 74//74 35//35 55//55
f 89//89 108//108 90//90
f 90//90 62//62 89//89
f 62//62 66//66 89//89
f 106//106 108//108 89//89
f 89//89 91//91 106//106
f 66//66 91//91 89//89
f 94//94 93//93 68//68
f 68//68 70//70 94//94
f 94//94 96//96 95//95
f 95//95 91//91 94//94
f 91//91 93//93 94//94
f 53//53 47//47 68//68
f 27//27 47//47 53//53
f 68//68 93//93 53//53
f 53//53 93//93 27//27
f 46//46 43//43 26//26
f 46//46 26//26 27//27
f 27//27 31//31 46//46
f 46//46 31//31 67//67
f 52//52 66//66 26//26
f 65//65 66//66 52//52
f 26//26 43//43 52//52
f 52//52 43//43 65//65
f 163//163 145//145 156//156
f 156//156 147//147 163//163
f 146//146 147//147 156//156
f 133//133 146//146 156//156
f 156//156 145//145 133//133
f 133//133 132//132 130//130
f 130//130 160//160 129//129
f 140//140 158//158 144//144
f 161//161 129//129 128//128
f 129//129 160//160 128//128
f 168//168 158//158 161//161
f 161//161 169//169 168//168
f 163//163 169//169 162//162
f 162//162 145//145 163//163
f 162//162 169//169 161//161
f 161//161 128//128 162//162
f 162//162 128//128 160//160
f 162//162 132//132 133//133
f 133//133 145//145 162//162
f 162//162 130//130 132//132
f 160//160 130//130 162//162
f 109//109 111//111 120//120
f 27//27 8//8 28//28
f 28//28 47//47 27//27
f 28//28 29//29 33//33
f 45//45 69//69 54//54
f 54//54 36//36 45//45
f 57//57 48//48 71//71
f 55//55 48//48 57//57
f 71//71 73//73 57//57
f 57//57 73//73 55//55
f 51//51 3//3 4//4
f 4//4 3//3 5//5
f 5//5 42//42 4//4
f 42//42 59//59 4//4
f 4//4 59//59 62//62
f 4//4 62//62 51//51
f 6//6 3//3 1//1
f 80//80 122//122 114//114
f 136//136 138//138 139//139
f 139//139 129//129 136//136
f 136//136 161//161 135//135
f 136//136 129//129 161//161
f 135//135 161//161 154//154
f 154//154 136//136 135//135
f 138//138 136//136 154//154
f 161//161 158//158 137//137
f 137//137 154//154 161//161
f 138//138 154//154 137//137
f 82//82 84//84 86//86
f 86//86 74//74 82//82
f 86//86 84//84 85//85
f 86//86 70//70 54//54
f 69//69 74//74 86//86
f 54//54 69//69 86//86
f 131//131 129//129 139//139
f 131//131 130//130 129//129
f 131//131 134//134 133//133
f 133//133 130//130 131//131
f 165//165 158//158 167//167
f 158//158 168//168 167//167
f 120//120 152//152 121//121
f 121//121 109//109 120//120
f 47//47 28//28 30//30
f 30//30 28//28 33//33
f 68//68 47//47 30//30
f 33//33 34//34 30//30
f 30//30 70//70 68//68
f 30//30 34//34 70//70
f 18//18 14//14 19//19
f 19//19 45//45 18//18
f 18//18 45//45 36//36
f 18//18 36//36 33//33
f 33//33 17//17 18//18
f 29//29 17//17 40//40
f 33//33 29//29 40//40
f 40//40 17//17 33//33
f 29//29 28//28 10//10
f 2//2 1//1 3//3
f 138//138 137//137 153//153
f 158//158 140//140 153//153
f 153//153 137//137 158//158
f 97//97 94//94 70//70
f 96//96 94//94 97//97
f 15//15 18//18 17//17
f 15//15 10//10 102//102
f 102//102 10//10 9//9
f 9//9 101//101 102//102
f 8//8 101//101 9//9
f 9//9 28//28 8//8
f 9//9 10//10 28//28
f 138//138 153//153 141//141
f 141//141 153//153 140//140
f 142//142 138//138 141//141
f 144//144 142//142 141//141
f 141//141 140//140 144//144
f 98//98 97//97 70//70
f 87//87 86//86 85//85
f 97//97 98//98 87//87
f 70//70 86//86 87//87
f 87//87 98//98 70//70
f 14//14 18//18 16//16
f 18//18 15//15 16//16
f 16//16 15//15 102//102
f 102//102 100//100 16//16
f 16//16 100//100 14//14
f 174//174 180//180 175//175
f 175//175 180//180 181//181
f 175//175 181//181 7//7
f 7//7 6//6 175//175
f 23//23 77//77 41//41
f 41//41 77//77 75//75
f 144//144 174//174 116//116
f 177//177 120//120 111//111
f 181//181 180//180 166//166
f 166//166 180//180 165//165
f 176//176 24//24 39//39
f 39//39 178//178 176//176
f 21//21 73//73 48//48
f 48//48 73//73 71//71
f 179//179 183//183 173//173
f 178//178 183//183 179//179
f 177//177 176//176 179//179
f 179//179 176//176 178//178
f 3//3 51//51 64//64
f 5//5 62//62 59//59
f 59//59 42//42 5//5
f 19//19 35//35 74//74
f 65//65 43//43 46//46
f 46//46 67//67 65//65
f 112//112 77//77 23//23
f 112//112 176//176 177//177
f 23//23 24//24 112//112
f 177//177 111//111 112//112
f 112//112 78//78 77//77
f 24//24 176//176 112//112
f 92//92 78//78 112//112
f 112//112 110//110 92//92
f 109//109 112//112 111//111
f 110//110 112//112 109//109
f 19//19 74//74 45//45
f 45//45 74//74 69//69
f 114//114 122//122 123//123
f 123//123 113//113 114//114
f 167//167 183//183 184//184
f 167//167 166//166 165//165
f 184//184 185//185 167//167
f 187//187 182//182 167//167
f 167//167 186//186 187//187
f 167//167 170//170 172//172
f 182//182 166//166 167//167
f 167//167 185//185 186//186
f 172//172 173//173 167//167
f 167//167 169//169 170//170
f 173//173 183//183 167//167
f 167//167 168//168 169//169
f 124//124 125//125 121//121
f 121//121 122//122 124//124
f 121//121 142//142 123//123
f 123//123 122//122 121//121
f 121//121 118//118 117//117
f 121//121 125//125 126//126
f 121//121 131//131 139//139
f 139//139 142//142 121//121
f 126//126 127//127 121//121
f 121//121 127//127 118//118
f 152//152 134//134 121//121
f 134//134 131//131 121//121
f 110//110 109//109 121//121
f 117//117 110//110 121//121
f 2//2 3//3 64//64
f 64//64 63//63 2//2
f 60//60 1//1 2//2
f 2//2 63//63 60//60
f 174//174 175//175 115//115
f 6//6 1//1 115//115
f 115//115 116//116 174//174
f 60//60 79//79 115//115
f 115//115 1//1 60//60
f 115//115 175//175 6//6
f 115//115 114//114 113//113
f 115//115 113//113 116//116
f 115//115 79//79 80//80
f 80//80 114//114 115//115
f 29//29 10//10 15//15
f 15//15 17//17 29//29
f 96//96 97//97 87//87
f 85//85 96//96 87//87

