# https://github.com/mikedh/trimesh
v -14.50000000 -50.02898026 31.69136429
v -14.50000000 -49.78357315 30.14060783
v -14.50000000 -49.15526199 26.89378166
v -14.50000000 -48.79553223 25.35744095
v -14.50000000 -48.40430832 23.87578011
v -14.50000000 -47.98337555 22.45120430
v -14.50000000 -47.53673935 21.10053062
v -14.50000000 -47.06315231 19.82086754
v -14.50000000 -46.35632324 18.14733124
v -14.50000000 -45.60114288 16.61964989
v -14.50000000 -44.79735184 15.23588467
v -14.50000000 -43.95744324 13.99102116
v -14.50000000 -43.08005142 12.88749599
v -14.50000000 -41.94420624 11.68786144
v -14.50000000 -40.76931381 10.68648338
v -14.50000000 -39.55335999 9.85034847
v -18.39102936 -39.02566147 9.54624653
v -18.40863037 -40.13568878 10.22753143
v -18.42984581 -41.25532532 11.07540703
v -18.45331764 -42.32941055 12.06850433
v -18.47710419 -43.30951691 13.15847397
v -18.49970436 -44.18231583 14.30621719
v -18.52026749 -44.96181107 15.50001812
v -18.53825760 -45.66960144 16.74911499
v -18.56361580 -46.88438416 19.36761856
v -18.55293274 -46.30978394 18.04357910
v -18.56988335 -47.42358780 20.77913857
v -18.57079315 -47.80569077 21.89677238
v -18.56740379 -48.18668747 23.12348557
v -18.55819511 -48.56313324 24.46092796
v -18.54154778 -48.93090820 25.91286659
v -18.51593208 -49.28356934 27.47812653
v -18.48064804 -49.60709381 29.11514473
v -18.43703270 -49.88576889 30.74661446
v -18.37900925 -50.14609528 32.56306839
v -18.31737328 -50.33898163 34.23433685
v -14.50000000 -56.12129974 80.54536438
v -14.50000000 -56.08523560 88.90185547
v -15.00000000 -56.57001495 85.75000000
v -14.50000000 -54.67448425 91.76680756
v -15.00000000 -55.48989868 90.38851929
v -14.50000000 -52.47175980 94.07271576
v -15.00000000 -52.47175980 94.07271576
v -15.00000000 -23.95410728 115.71109772
v -15.00000000 8.39406681 122.52128601
v -14.50000000 40.95817566 113.12551880
v -15.04480553 40.97119522 113.11840057
v -14.50000000 46.12058258 106.82444763
v -15.23845387 45.21569824 108.93094635
v -15.36140919 46.12254715 106.81814575
v -15.52038288 46.42998505 104.55277252
v -14.50000000 53.73732376 50.58428192
v -23.85836792 53.51018143 52.03246307
v -14.50000000 53.85776901 40.17034531
v -23.92293167 54.15496445 44.75000000
v -14.50000000 53.06933975 34.96203232
v -23.62908363 53.33330917 36.40995407
v -23.83321953 53.90737915 40.65994644
v -23.18925476 52.08775711 30.85274887
v -14.50000000 49.14588928 23.16342735
v -15.50000381 50.27497101 25.65993118
v -22.87963104 51.17674637 27.99801064
v -17.00000000 50.83119202 27.05689430
v -15.92780018 50.66899490 26.63588905
v -14.50000000 46.21455002 18.00514221
v -22.06179428 48.71853638 22.30005455
v -22.49958611 50.03831100 25.10223770
v -17.00000000 49.67726517 24.28769875
v -15.93255806 49.85997009 24.69491768
v -14.50000000 43.07290649 13.95687389
v -21.01160622 45.44067001 16.88585663
v -21.55740738 47.17676544 19.52427483
v -19.77147102 40.72450256 11.70550442
v -20.51689529 43.74678802 14.72043133
v -19.28696442 38.01108551 9.81260872
v -16.85122871 46.16247559 104.72554016
v -17.45746422 40.41343307 112.32579041
v -16.51640892 44.95697403 108.88938904
v -16.74920654 8.37594986 122.05318451
v -16.74841309 -23.76362991 115.28361511
v -16.74841499 -56.10202026 85.75000000
v -16.74841309 -55.07004166 90.18177032
v -16.74841309 -52.18642807 93.70176697
v -20.57373810 -49.50062943 34.04073715
v -20.73949432 -38.63600540 10.36370564
v -20.85881233 -42.82890701 14.04273319
v -20.91533279 -45.61118317 18.71675873
v -20.89164734 -47.44021225 23.72346306
v -20.77782440 -48.69156647 28.84517670
v -20.21498108 37.01330185 9.47052956
v -24.95410919 52.06335449 57.37364960
v -25.66988182 53.68774796 44.73012924
v -25.52758789 53.22691345 38.94107056
v -25.17188835 52.21951675 33.28228760
v -18.49998474 50.27899170 25.66941261
v -24.58770752 50.59143066 27.74851799
v -18.06354904 50.67224884 26.64403343
v -23.76933098 48.32036972 22.47762871
v -18.07528305 49.86326599 24.70221329
v -22.71347427 45.44095993 17.53864861
v -21.45086288 41.81380844 13.05894279
v -18.50000000 10.76919746 118.54180908
v -18.50000000 8.25867558 119.02333069
v -18.50000000 5.71844721 118.73727417
v -18.50000000 -20.54905510 113.11983490
v -18.50000000 -23.00102806 112.28629303
v -18.50000000 -50.33785629 91.29846954
v -18.50000000 -51.80846405 89.75823212
v -22.27708435 -39.83881760 46.47883606
v -23.24184036 -32.10690308 47.74060440
v -18.72510719 42.20664597 107.43323517
v -18.54231071 39.20141220 110.22703552
v -18.73027611 44.26150513 104.96947479
v -18.41820717 43.32673264 108.07927704
v -17.61683655 44.31745148 108.60317993
v -17.65287781 44.28676605 108.58795166
v -22.96222115 42.91477585 87.15667725
v -22.54643822 44.25426102 87.84893036
v -24.92272377 -7.90501499 60.26788712
v -24.84521675 32.11692047 76.24602509
v -24.91598511 43.88227081 76.74386597
v -26.24422264 37.60554886 66.59137726
v -25.38748550 44.46574402 73.66661835
v -25.72737122 4.17417765 61.04809952
v -25.22397423 13.01986504 69.35687256
v -26.17130280 27.54223824 65.79167175
v -25.80395126 20.92681885 67.37351227
v -26.23164940 28.82890701 65.49343109
v -25.65601158 44.88642120 71.75527954
v -26.26482773 16.06883049 61.45572662
v -26.58505630 27.76813316 61.63690186
v -26.45712471 33.78607941 64.14247131
v -27.17788887 33.48023224 52.11258698
v -27.10142136 28.30390739 51.91360474
v -26.30997276 46.25654602 66.39271545
v -26.69521141 39.01582336 62.19375229
v -25.11777878 46.49041367 72.38742828
v -26.93466377 44.44228363 59.54091644
v -26.57901573 47.00000000 63.74526215
v -27.12460518 48.95529175 56.69658279
v -26.84143448 50.23759842 57.01261902
v -27.24292946 38.72460556 52.37942505
v -27.29099083 44.14386368 52.64891815
v -27.31244469 49.81708908 52.85216141
v -23.93579292 40.83701324 16.28681374
v -22.86556053 40.80924225 13.66316891
v -26.01858330 46.76144028 26.39765930
v -24.83999062 43.47409821 20.01319504
v -24.05197334 44.27853012 18.02113533
v -25.47887230 45.25934982 23.17924309
v -25.07143593 47.08394623 22.86671829
v -26.89715195 49.17400360 33.83764648
v -26.40307236 47.82787704 29.17390633
v -25.87393951 49.31248474 28.04096413
v -27.27183151 50.18273163 39.49359512
v -27.20043564 49.98657227 38.09628677
v -27.35682678 50.05077744 51.54138565
v -27.42238045 50.60728455 44.71020889
v -26.81408119 51.91946793 39.04656601
v -26.96529579 52.38494492 44.71540070
v -27.07188416 28.72017288 44.48047638
v -26.74590302 29.08802414 37.99625397
v -26.85344505 17.81837463 44.36540985
v -26.45357895 50.91652679 33.46961212
v -25.29076767 9.79315853 27.19026375
v -24.99718666 0.23763715 26.92410469
v -26.48648834 6.94355392 44.09992218
v -24.59018135 -9.02081013 26.45614052
v -25.93658447 -3.89181924 43.58398056
v -25.18438339 -12.55586433 36.58861160
v -24.09432220 -24.48867607 48.71164322
v -24.84256172 -16.95683289 49.46269226
v -25.17494583 -14.65298557 42.68644714
v -24.67611694 -19.33121490 36.09300232
v -24.09795570 -26.13808060 35.45239258
v -23.44454384 -32.99428558 34.62116623
v -22.71002007 -39.92383194 33.52665710
v -21.87780952 -47.01148224 32.30416489
v -22.04794884 -43.77816010 20.22396851
v -21.91054726 -46.85684967 31.33180428
v -21.55790710 -47.62746811 39.37582397
v -21.70430183 -47.49269104 36.46773148
v -22.03219986 -45.71410370 25.98365974
v -22.05541420 -44.42470169 21.84468651
v -21.87635231 -37.43967056 12.30912495
v -21.98811913 -41.50871658 16.10674858
v -21.92906570 -39.56425095 13.86738968
v -18.03108978 -23.24184418 114.11260223
v -18.50000000 -25.08520699 110.75530243
v -18.03108978 -51.40480423 92.68560028
v -18.50000000 -52.74907684 87.84300995
v -18.03108978 -53.91991806 89.61543274
v -18.50000000 -53.07001495 85.75000000
v -18.03108978 -54.82001114 85.75000000
v -18.03139496 13.20836163 119.31607056
v -18.03154755 8.32635689 120.77179718
v -17.97863960 45.40084076 104.87190247
v -17.47488213 -55.54487991 85.75000000
v -26.41444397 53.11292648 44.72166443
v -26.08013916 51.32772446 57.25013351
v -23.65208626 -20.92014122 22.75574493
v -14.50000000 39.85115051 11.01669693
v -14.50000000 42.87481308 13.74485874
v 16.00000000 40.25243759 11.32355881
v -14.50000000 46.14725113 17.90431786
v 16.00000000 42.88000107 13.75045204
v -14.50000000 49.29653931 23.47065353
v 16.00000000 48.33312607 21.56204224
v 16.00000000 45.60107040 17.11075783
v -14.50000000 51.64843369 29.39715958
v 16.00000000 49.62541199 24.17395973
v -14.50000000 52.95441055 34.39258194
v 13.40311527 52.76108170 33.49971771
v 16.00000000 50.80289841 26.98253441
v -14.50000000 53.60517502 38.17204285
v 12.43999958 53.90968323 40.68219376
v 12.43999958 54.15496445 44.75000000
v 12.43999958 54.09292984 42.86529541
v 12.43999958 53.23201752 53.51758194
v 13.20324135 -50.15006256 32.59390259
v 13.36763668 -49.98585129 31.40279770
v 13.73612022 -49.51663971 28.63394165
v 13.52832699 -49.79947281 30.21386147
v 13.93782902 -49.19083023 27.04723167
v 14.13428211 -48.81613159 25.44220161
v 14.32445431 -48.38821030 23.82270622
v 14.50643253 -47.90204239 22.19583321
v 14.67505836 -47.35855484 20.59914207
v 14.82875443 -46.75654984 19.05816650
v 14.96465588 -46.10933304 17.61944008
v 15.09095287 -45.37643433 16.21062279
v 15.20858574 -44.53862762 14.83036900
v 15.31247807 -43.61900330 13.54470921
v 15.40659332 -42.57545471 12.32432461
v 15.49106407 -41.39508820 11.19398689
v 15.56626701 -40.07229996 10.18460178
v 15.63291359 -38.61163712 9.32800674
v 13.28121758 46.42998505 104.55277252
v 15.76298046 45.73885727 104.02886200
v 10.50000000 46.12058640 106.82444000
v 13.49381447 45.21569824 108.93094635
v 13.43152523 46.12144470 106.82212830
v 10.50000000 40.95655823 113.12638855
v 13.49845695 45.01155853 109.25859833
v 16.00000191 44.24008942 109.20706940
v 16.02389908 44.66211319 108.51638031
v 13.50001335 44.79052734 109.58883667
v 13.49999905 42.45261002 112.09933472
v 13.50000000 39.49990463 113.84575653
v 16.00000191 39.24480438 113.22635651
v 13.50000000 8.39406681 122.52128601
v 16.00000000 8.36816025 121.85191345
v 10.50000000 -23.95254517 115.71157837
v 13.50000000 -23.95410728 115.71109772
v 16.00000000 -23.68146515 115.09922028
v 10.50000000 -52.47150421 94.07238770
v 13.50000000 -52.58660126 93.98310852
v 16.00001335 -49.61672592 94.91799164
v 10.50000000 -54.67581177 91.76583862
v 13.50000000 -54.73107910 91.68598938
v 10.50000000 -56.08487320 88.90337372
v 13.50000000 -56.09975052 88.85715485
v 16.00001335 -54.17852402 91.30727386
v 13.50000000 -56.57001495 85.75000000
v 13.50000000 -56.56978607 85.64096069
v 15.99999523 -55.89925766 85.53720856
v 16.00001335 -55.90013504 85.75000000
v 13.49999905 -56.56910706 85.53164673
v 13.43231773 -56.49432373 83.71386719
v 13.22648621 -56.32876587 82.03022766
v 15.86549759 -55.48735046 81.61454773
v 15.61600399 -49.33806610 30.10519028
v 16.35863113 -48.18775558 24.90722084
v 17.01523972 -46.47398376 19.74458313
v 17.58852768 -43.76771545 14.72510910
v 18.05534744 -39.36506653 10.50157452
v 13.85421371 53.56917953 44.75000000
v 13.85421371 53.32701111 40.74250031
v 18.50000000 40.70763779 12.57257271
v 18.50000000 44.13743973 16.26076508
v 18.50000000 46.87094498 20.32039642
v 17.82802963 49.65057373 25.07843018
v 18.48626900 49.06592560 24.54247475
v 18.10666084 49.41527557 24.84022713
v 14.68806934 52.34268951 33.96033478
v 17.57118988 50.13847351 26.19580078
v 17.03222656 50.64346695 27.58106232
v 18.50000000 -51.56928635 85.57319641
v 18.50000000 -50.60762787 88.85766602
v 18.50000000 -51.57001495 85.75000000
v 17.83145142 -54.06771851 85.75000000
v 18.50000000 -51.56983185 85.66178894
v 18.50000000 -48.05229950 90.88011169
v 17.83145142 -52.66703415 90.27134705
v 17.83145142 -48.95560074 93.20899963
v 17.83012199 -54.06919861 85.55241394
v 18.50000000 -24.02370262 109.69554138
v 18.50000000 -22.30731773 110.95635986
v 18.50000000 -20.28804970 111.64279938
v 17.83143616 -22.93566513 113.42546082
v 18.50000000 6.10871887 117.28897858
v 18.50000000 8.20067024 117.52455139
v 18.50000000 10.26815796 117.12800598
v 17.83143616 8.29729462 120.02088928
v 18.50000000 37.59758759 109.22151947
v 18.50000000 40.68199539 106.73931885
v 17.83143616 38.54698563 111.53203583
v 18.49769402 40.80049133 106.45874023
v 17.85770798 43.08157730 107.50723267
v 17.83143616 42.73439026 108.16277313
v 21.00000000 42.91598892 22.14099312
v 21.00000000 44.60348892 25.25000000
v 21.00000000 41.00716019 19.29584503
v 21.00000000 39.24164963 17.18014336
v 21.00000000 37.12529755 15.22540283
v 20.75499725 45.99229813 24.57087517
v 20.49620247 46.53666306 26.27323532
v 20.33143616 44.73247147 20.32487869
v 20.33150482 46.84720612 24.15282440
v 20.67399025 46.19886017 24.46986580
v 20.33143616 42.18285370 16.74987793
v 20.33143616 39.08174896 13.59386349
v 21.00000000 25.91050720 27.46130371
v 21.00000000 13.96819687 24.88913155
v 21.00000000 -21.00000000 13.00000000
v 21.00000000 -21.00000000 10.00000000
v 21.00000000 0.99001342 21.07734489
v 20.89249802 19.58698463 32.83432007
v 17.55865288 43.85653305 103.64978027
v 18.49076271 40.90894318 106.18114471
v 19.73845291 47.58620453 23.79144859
v 19.25654602 48.46329498 24.83072853
v 18.69180679 49.13370895 26.02716827
v 19.73844528 47.92037582 25.10071373
v 19.92645264 -38.48897552 12.16074371
v 20.89541817 -28.69840050 13.13050652
v 20.77679634 -33.30633926 13.18339920
v 20.59020615 -37.04553986 14.28560257
v 19.98812294 -41.72988892 19.72652435
v 18.35478783 -46.58485413 25.59092331
v 18.97960663 -44.91864777 20.60688972
v 19.86952019 -42.23975754 20.77942276
v 19.51082993 -42.38565826 15.91508770
v 20.29424095 -39.96667099 16.92916298
v -20.50000000 -20.50000000 0.00000000
v 20.50000000 -20.50000000 0.00000000
v 20.50000000 20.50000000 0.00000000
v -20.87856293 -6.02249050 0.37856278
v -20.75000000 -20.75000000 0.25000000
v -21.00000000 -20.50000000 0.50000000
v 21.00000000 -20.50000000 0.50000000
v 20.75000000 -20.75000000 0.25000000
v -20.50000000 20.50000000 0.00000000
v 20.75000000 20.75000000 0.25000000
v 21.00000000 20.50000000 0.50000000
v -21.00000000 20.50000000 0.50000000
v -20.75000000 20.75000000 0.25000000
v -20.87856293 6.02249050 0.37856278
vn -0.00015156 -0.98994309 -0.14146606
vn -0.00013350 -0.98576748 -0.16811443
vn -0.00008777 -0.97574997 -0.21888806
vn -0.00005108 -0.96978322 -0.24396824
vn -0.00003610 -0.96291559 -0.26980282
vn -0.00000377 -0.95491062 -0.29689343
vn 0.00004775 -0.94536565 -0.32601194
vn -0.00003703 -0.93287159 -0.36020910
vn -0.00000158 -0.91366132 -0.40647632
vn -0.00001984 -0.87848882 -0.47776291
vn -0.00009738 -0.84256120 -0.53860060
vn -0.00009216 -0.80313236 -0.59580064
vn -0.00010283 -0.75187793 -0.65930234
vn -0.00020069 -0.68474825 -0.72877966
vn -0.00012937 -0.60611759 -0.79537504
vn -0.00001812 -0.52023678 -0.85402207
vn -0.17619613 -0.48895082 -0.85433133
vn -0.19583104 -0.55593040 -0.80783142
vn -0.22131564 -0.62660402 -0.74725283
vn -0.20869612 -0.68860512 -0.69445584
vn -0.18684052 -0.75382545 -0.62995064
vn -0.19162456 -0.80280120 -0.56461514
vn -0.20678964 -0.83535830 -0.50932754
vn -0.19751069 -0.86281079 -0.46534618
vn -0.18850350 -0.90995783 -0.36938215
vn -0.18416551 -0.89053649 -0.41596613
vn -0.19605394 -0.92190167 -0.33415590
vn -0.18829479 -0.93293230 -0.30689150
vn -0.18159341 -0.94299943 -0.27888333
vn -0.18380034 -0.95045255 -0.25071375
vn -0.18803708 -0.95568055 -0.22653197
vn -0.18058847 -0.96258561 -0.20203154
vn -0.17753780 -0.96871212 -0.17342768
vn -0.18319083 -0.97205160 -0.14682239
vn -0.17943047 -0.97587751 -0.12436959
vn -0.27160589 -0.95718525 -0.10013313
vn -0.10094615 -0.98928859 -0.10544178
vn -0.11943758 -0.95983172 0.25388528
vn -0.13868910 -0.98955481 0.03932711
vn -0.11963190 -0.78643917 0.60597165
vn -0.15386787 -0.88645946 0.43647945
vn 0.00000241 -0.60982649 0.79253495
vn -0.13534825 -0.66736269 0.73233045
vn -0.12808770 -0.41178488 0.90223431
vn -0.12906847 0.03514046 0.99101286
vn -0.00105435 0.44504682 0.89550668
vn -0.17892616 0.48934844 0.85353590
vn -0.00016186 0.93787369 0.34697683
vn -0.09248784 0.82402366 0.55895528
vn -0.15515198 0.94868536 0.27554301
vn -0.00500291 0.99086962 0.13473072
vn -0.00088553 0.99463337 0.10345853
vn -0.24040208 0.96197026 0.12969218
vn -0.00021874 0.99354814 -0.11341093
vn -0.13281006 0.99107057 0.01185765
vn 0.00033805 0.98321684 -0.18244049
vn -0.14201257 0.97321237 -0.18080406
vn -0.14222030 0.98509847 -0.09671811
vn -0.14518388 0.94966324 -0.27759932
vn 0.00018614 0.89640755 -0.44323072
vn 0.00024264 0.92319445 -0.38433313
vn -0.13218470 0.92985608 -0.34335823
vn -0.00015962 0.93603421 -0.35190897
vn 0.00006468 0.92952756 -0.36875265
vn -0.00026390 0.83961417 -0.54318318
vn -0.12549289 0.87398172 -0.46947575
vn -0.14504951 0.90082469 -0.40923772
vn -0.00138904 0.90788467 -0.41921772
vn 0.00013484 0.91496062 -0.40354312
vn -0.00119591 0.74034539 -0.67222561
vn -0.11867181 0.79133273 -0.59975788
vn -0.13782941 0.83796933 -0.52802505
vn -0.13992813 0.60665413 -0.78255408
vn -0.13281905 0.73600275 -0.66382155
vn -0.11921277 0.52540502 -0.84245942
vn -0.37803285 0.90162661 0.21014427
vn -0.65970385 0.34924962 0.66544387
vn -0.36849231 0.77144988 0.51872777
vn -0.48280074 0.03112618 0.87517690
vn -0.48473393 -0.36332292 0.79563150
vn -0.43405808 -0.89914072 0.05603166
vn -0.49358411 -0.77799977 0.38870436
vn -0.49388369 -0.59884218 0.63044980
vn -0.65297281 -0.75433901 -0.06781715
vn -0.66820959 -0.40844648 -0.62182588
vn -0.67420331 -0.56662569 -0.47369317
vn -0.67433955 -0.66679606 -0.31725256
vn -0.66827543 -0.71467622 -0.20650870
vn -0.66137476 -0.73891927 -0.12877011
vn -0.34530881 0.47820063 -0.80751841
vn -0.46533362 0.86848643 0.17086821
vn -0.45087680 0.89237927 0.01921839
vn -0.50295212 0.85336257 -0.13715497
vn -0.49678976 0.83524743 -0.23571521
vn -0.00098569 0.92430911 -0.38164342
vn -0.50222730 0.79074369 -0.34998880
vn -0.00170124 0.93107020 -0.36483610
vn -0.48820058 0.74094301 -0.46115470
vn -0.00051880 0.91376831 -0.40623540
vn -0.46178859 0.67658327 -0.57357333
vn -0.40162185 0.58053181 -0.70829563
vn -0.97005063 0.05880180 0.23567800
vn -0.97796134 0.00398452 0.20874802
vn -0.97529305 -0.04086325 0.21710287
vn -0.97766689 -0.05172015 0.20369703
vn -0.97935659 -0.09859076 0.17646682
vn -0.98074122 -0.13140690 0.14449529
vn -0.97882004 -0.16506712 0.12109571
vn -0.99010655 -0.13239840 0.04647238
vn -0.99183563 -0.12061690 0.04139627
vn -0.96778270 0.13974142 0.20944921
vn -0.94741290 0.12470439 0.29471617
vn -0.85732610 0.46800545 0.21438950
vn -0.89260953 0.33888708 0.29732771
vn -0.60237909 0.66097423 0.44749582
vn -0.74390576 0.54392086 0.38827094
vn -0.97292926 0.12218326 0.19616298
vn -0.94080186 0.27142514 0.20302770
vn -0.99409587 -0.07756280 0.07587767
vn -0.99053942 -0.01738546 0.13612277
vn -0.97601668 0.12661324 0.17708906
vn -0.99306224 -0.01128906 0.11704679
vn -0.97907035 0.11730156 0.16631775
vn -0.99561974 -0.05627216 0.07466444
vn -0.99222951 -0.04601718 0.11559851
vn -0.99297637 -0.02365578 0.11592383
vn -0.99241474 -0.03152261 0.11882469
vn -0.99364646 -0.01919669 0.11089726
vn -0.98051920 0.11747938 0.15741885
vn -0.99637408 -0.04114212 0.07447162
vn -0.99699205 -0.02269621 0.07410619
vn -0.99515690 -0.01409073 0.09728413
vn -0.99954580 -0.01504041 0.02611479
vn -0.99942763 -0.02327461 0.02454986
vn -0.97977742 0.13931415 0.14362372
vn -0.99657235 -0.00912831 0.08222061
vn -0.92204627 0.33478695 0.19428943
vn -0.99762150 -0.00418809 0.06880270
vn -0.98066043 0.14308579 0.13353492
vn -0.99201596 0.09437579 0.08365136
vn -0.91413229 0.38222601 0.13514965
vn -0.99949278 -0.01279886 0.02916118
vn -0.99946686 -0.00932666 0.03128906
vn -0.98925170 0.13258915 0.06165382
vn -0.93424907 0.12560532 -0.33376934
vn -0.76975358 0.33505338 -0.54334029
vn -0.97830432 0.09115427 -0.18604183
vn -0.96157779 0.09044100 -0.25920759
vn -0.82059444 0.36151306 -0.44264328
vn -0.97229448 0.08152380 -0.21908288
vn -0.84403902 0.40209378 -0.35485027
vn -0.98867020 0.10116336 -0.11089280
vn -0.98460578 0.09379484 -0.14749236
vn -0.85747980 0.43841929 -0.26928966
vn -0.99217293 0.11367891 -0.05167194
vn -0.99055433 0.11190843 -0.07923780
vn -0.98207079 0.18269919 0.04645405
vn -0.99210821 0.12499111 -0.00992540
vn -0.86846298 0.48424535 -0.10620026
vn -0.89361863 0.44876438 0.00750195
vn -0.99954140 -0.01858778 -0.02390575
vn -0.99714084 -0.02474547 -0.07139891
vn -0.99910167 -0.03068961 -0.02922318
vn -0.86557561 0.46533419 -0.18504852
vn -0.99372451 -0.02558887 -0.10888900
vn -0.99446763 -0.03285845 -0.09977206
vn -0.99898757 -0.04124522 -0.01796310
vn -0.99480607 -0.04292071 -0.09229681
vn -0.99836626 -0.05709301 -0.00228035
vn -0.99700987 -0.05850030 -0.05048789
vn -0.99347379 -0.10681422 0.04000694
vn -0.99506761 -0.08944348 0.04289885
vn -0.99676492 -0.08035425 0.00170111
vn -0.99644405 -0.07632873 -0.03568163
vn -0.99593327 -0.08810964 -0.01880447
vn -0.99500934 -0.09973576 -0.00303311
vn -0.99364120 -0.11215822 0.00988405
vn -0.95119927 -0.30847211 -0.00805668
vn -0.96104464 -0.24717575 -0.12368243
vn -0.95329064 -0.30098242 -0.02542724
vn -0.98442290 -0.17064273 0.04233932
vn -0.95140112 -0.30771492 0.01214243
vn -0.95704370 -0.28359889 -0.06032433
vn -0.95893856 -0.26706037 -0.09547563
vn -0.95872602 -0.14223518 -0.24619825
vn -0.95982742 -0.22273317 -0.17064949
vn -0.95469474 -0.18578260 -0.23247101
vn -0.84793588 -0.22070054 0.48197096
vn -0.97824844 -0.12496319 0.16557233
vn -0.85509476 -0.35966120 0.37343911
vn -0.97723038 -0.20184472 0.06541792
vn -0.84923630 -0.47018935 0.24024922
vn -0.96789050 -0.24871235 0.03647121
vn -0.88485563 -0.46289076 0.05256093
vn -0.90699288 0.12040473 0.40356736
vn -0.84585095 0.01808317 0.53311271
vn -0.67056028 0.70404773 0.23380698
vn -0.69752014 -0.71377954 0.06312232
vn -0.70733265 0.70657793 0.02069190
vn -0.70692794 0.68789730 0.16446945
vn -0.99539122 -0.05419234 -0.07911711
vn -0.00085740 0.58233568 -0.81294798
vn -0.00252440 0.71014886 -0.70404704
vn 0.13183986 0.58989161 -0.79664681
vn -0.00088958 0.82720672 -0.56189701
vn 0.13522553 0.72303854 -0.67744323
vn -0.00021700 0.90210921 -0.43150774
vn 0.12516146 0.86805970 -0.48042373
vn 0.12991060 0.81025215 -0.57150214
vn 0.00132744 0.95401486 -0.29975636
vn 0.09712028 0.90368684 -0.41703446
vn -0.00167044 0.97629893 -0.21641999
vn 0.16045874 0.97025192 -0.18128488
vn 0.13617074 0.94525806 -0.29655476
vn 0.00075372 0.98949106 -0.14459211
vn 0.18590597 0.97696816 -0.10474823
vn 0.19490561 0.98023776 0.03384878
vn 0.20305289 0.97748729 -0.05734212
vn 0.22065471 0.96859974 0.11456892
vn 0.04403207 -0.99088505 -0.12731062
vn 0.10277501 -0.98550657 -0.13495960
vn 0.10955970 -0.97819341 -0.17644920
vn 0.10430908 -0.98304521 -0.15080363
vn 0.11704201 -0.97302825 -0.19878933
vn 0.11062577 -0.96779920 -0.22611203
vn 0.11238295 -0.95918505 -0.25948818
vn 0.12568089 -0.94824454 -0.29161037
vn 0.11977006 -0.93744318 -0.32688747
vn 0.11587130 -0.91905063 -0.37672242
vn 0.13680082 -0.89333846 -0.42805600
vn 0.14265976 -0.87013720 -0.47170907
vn 0.12286618 -0.83434360 -0.53737757
vn 0.12936073 -0.78231046 -0.60930793
vn 0.16880010 -0.71570970 -0.67769178
vn 0.16348137 -0.65555812 -0.73723632
vn 0.13016650 -0.55951527 -0.81853488
vn 0.11749104 -0.49166721 -0.86282050
vn 0.02654769 0.99080420 0.13267346
vn 0.53266497 0.83846227 0.11510451
vn 0.00000438 0.92844129 0.37147915
vn 0.13110373 0.87938765 0.45769986
vn 0.16392552 0.95345083 0.25310065
vn 0.00677483 0.50570940 0.86267729
vn 0.13169808 0.83357002 0.53648545
vn 0.50241408 0.66006046 0.55848033
vn 0.51141605 0.78845798 0.34174207
vn 0.12828430 0.77742246 0.61575763
vn 0.17919512 0.62203018 0.76221228
vn 0.13455397 0.38266084 0.91403824
vn 0.50227432 0.37407036 0.77961008
vn 0.12804172 0.03209092 0.99124946
vn 0.48389754 0.02831861 0.87466635
vn 0.00001083 -0.25029886 0.96816862
vn 0.12822250 -0.41180807 0.90220458
vn 0.48611678 -0.36475716 0.79413015
vn 0.00013828 -0.60850940 0.79354665
vn 0.18621675 -0.64703430 0.73937131
vn 0.55416762 -0.51295990 0.65556876
vn 0.00060326 -0.77732835 0.62909480
vn 0.13109879 -0.81779532 0.56037838
vn 0.00074494 -0.93654371 0.35055002
vn 0.17063692 -0.94140422 0.29093151
vn 0.51447334 -0.70732593 0.48477542
vn 0.12938873 -0.98890871 0.07292549
vn 0.13050194 -0.99143948 -0.00412268
vn 0.50152272 -0.86395928 -0.04526950
vn 0.50420328 -0.85734232 0.10364945
vn 0.13175494 -0.99094287 -0.02593969
vn 0.14461702 -0.98605044 -0.08240421
vn 0.10028704 -0.98819691 -0.11579888
vn 0.36582772 -0.92399315 -0.11138556
vn 0.38821795 -0.91291650 -0.12597737
vn 0.44892465 -0.87458172 -0.18323063
vn 0.46827250 -0.83132801 -0.29935699
vn 0.49208566 -0.72206913 -0.48627963
vn 0.49322343 -0.53853952 -0.68315872
vn 0.58367844 0.81109348 0.03803746
vn 0.44592012 0.89263130 -0.06606516
vn 0.49408416 0.57121494 -0.65543446
vn 0.49635735 0.68178152 -0.53740426
vn 0.48557040 0.74595372 -0.45582281
vn 0.33815845 0.87376653 -0.34954387
vn 0.55725016 0.77489762 -0.29833862
vn 0.46068846 0.82561146 -0.32577885
vn 0.39141796 0.91534151 -0.09456156
vn 0.46235673 0.86541437 -0.19309125
vn 0.47612294 0.87253392 -0.10950576
vn 0.97743243 -0.21117662 -0.00550214
vn 0.98555887 -0.13873387 0.09709081
vn 0.98482075 -0.17075216 0.03117344
vn 0.85355535 -0.51482823 0.07996971
vn 0.97832309 -0.20708311 -0.00071766
vn 0.98831088 -0.09434310 0.11975384
vn 0.84487157 -0.44127028 0.30244435
vn 0.85724397 -0.31815489 0.40485829
vn 0.86028228 -0.50906130 -0.02776657
vn 0.98741439 -0.09618453 0.12554428
vn 0.98754366 -0.07550899 0.13804317
vn 0.98784819 -0.03771268 0.15077700
vn 0.84795829 -0.22354685 0.48061788
vn 0.98715364 -0.02923502 0.15707640
vn 0.98785970 0.00578550 0.15524093
vn 0.98728591 0.03946572 0.15397725
vn 0.84660711 0.01729820 0.53193719
vn 0.98682568 0.07557911 0.14304850
vn 0.98603186 0.12997589 0.10415099
vn 0.85081377 0.24317515 0.46581302
vn 0.98318604 0.17322485 0.05777860
vn 0.85710916 0.48620286 0.17020770
vn 0.85075377 0.39240538 0.34962271
vn 0.99493338 0.08401845 -0.05521288
vn 0.99495928 0.10027975 0.00004966
vn 0.99102249 0.10618497 -0.08123534
vn 0.99058549 0.09893693 -0.09461434
vn 0.99150833 0.08714610 -0.09652353
vn 0.96375207 0.26147156 -0.05305254
vn 0.90811795 0.41697900 0.03808276
vn 0.85490871 0.43127786 -0.28832361
vn 0.86375563 0.48137435 -0.14901325
vn 0.92090038 0.37874270 -0.09217627
vn 0.85943152 0.39042396 -0.33007059
vn 0.85934213 0.33705692 -0.38460855
vn 0.99993045 0.00061640 0.01177778
vn 0.99996014 -0.00237969 0.00860567
vn 0.99990156 -0.00854192 0.01113150
vn 0.99997547 -0.00700065 -0.00023366
vn 0.99993243 -0.00395914 0.01092997
vn 0.99971746 -0.00238397 0.02364971
vn 0.77288663 0.63138586 0.06323092
vn 0.97674545 0.20927960 0.04658726
vn 0.73254807 0.62145033 -0.27779993
vn 0.71028941 0.68742897 -0.15142777
vn 0.71431712 0.69944104 -0.02309278
vn 0.81403053 0.57962526 -0.03726745
vn 0.85551858 -0.36346450 -0.36875672
vn 0.99974485 -0.02049022 0.00950679
vn 0.99894917 -0.04465881 -0.01030284
vn 0.98817561 -0.13193792 -0.07811108
vn 0.96783462 -0.24926065 -0.03413609
vn 0.76479958 -0.63738951 -0.09389468
vn 0.82608460 -0.54491874 -0.14369346
vn 0.95697527 -0.28881442 -0.02800987
vn 0.83886585 -0.47421908 -0.26724585
vn 0.98033319 -0.18797589 -0.06009915
vn -0.33282265 -0.18814628 -0.92402925
vn 0.33399181 -0.19326625 -0.92254953
vn 0.32971792 0.20767988 -0.92095340
vn -0.70710693 -0.00000000 -0.70710663
vn -0.62405543 -0.28217270 -0.72865176
vn -0.89128741 -0.08243437 -0.44588265
vn 0.91718430 -0.09105754 -0.38791942
vn 0.62380642 -0.31476086 -0.71539580
vn -0.32838011 0.19864537 -0.92342109
vn 0.60897928 0.33305223 -0.71987530
vn 0.91659652 0.09116799 -0.38928037
vn -0.87662941 0.06900622 -0.47619220
vn -0.61322602 0.28391986 -0.73711829
vn -0.70710693 0.00000000 -0.70710663
f 44//44 253//253 45//45
f 219//219 277//277 217//217
f 90//90 353//353 357//357
f 333//333 277//277 334//334
f 310//310 309//309 246//246
f 334//334 277//277 329//329
f 329//329 309//309 334//334
f 45//45 249//249 47//47
f 305//305 310//310 307//307
f 45//45 253//253 251//251
f 251//251 249//249 45//45
f 251//251 252//252 249//249
f 111//111 114//114 117//117
f 52//52 219//219 217//217
f 277//277 219//219 239//239
f 239//239 329//329 277//277
f 246//246 309//309 239//239
f 309//309 329//329 239//239
f 246//246 239//239 242//242
f 242//242 239//239 219//219
f 53//53 91//91 76//76
f 76//76 50//50 53//53
f 106//106 105//105 127//127
f 105//105 104//104 127//127
f 39//39 38//38 81//81
f 260//260 41//41 262//262
f 38//38 39//39 262//262
f 188//188 105//105 106//106
f 188//188 104//104 105//105
f 44//44 80//80 43//43
f 43//43 257//257 42//42
f 263//263 257//257 260//260
f 263//263 262//262 267//267
f 260//260 262//262 263//263
f 297//297 298//298 300//300
f 289//289 290//290 338//338
f 338//338 337//337 289//289
f 324//324 328//328 327//327
f 324//324 323//323 328//328
f 42//42 257//257 256//256
f 334//334 331//331 332//332
f 332//332 333//333 334//334
f 306//306 310//310 305//305
f 309//309 310//310 306//306
f 306//306 308//308 309//309
f 334//334 309//309 317//317
f 309//309 316//316 317//317
f 309//309 308//308 330//330
f 330//330 316//316 309//309
f 319//319 331//331 334//334
f 334//334 317//317 319//319
f 45//45 47//47 79//79
f 79//79 44//44 45//45
f 79//79 80//80 44//44
f 49//49 47//47 248//248
f 249//249 248//248 243//243
f 248//248 47//47 243//243
f 249//249 252//252 250//250
f 250//250 248//248 249//249
f 112//112 114//114 111//111
f 111//111 117//117 112//112
f 123//123 103//103 121//121
f 53//53 50//50 51//51
f 51//51 52//52 53//53
f 247//247 49//49 248//248
f 219//219 52//52 238//238
f 238//238 242//242 219//219
f 52//52 51//51 238//238
f 50//50 242//242 238//238
f 238//238 51//51 50//50
f 125//125 124//124 106//106
f 106//106 127//127 125//125
f 120//120 103//103 123//123
f 120//120 104//104 103//103
f 189//189 107//107 190//190
f 189//189 188//188 106//106
f 190//190 188//188 189//189
f 107//107 189//189 119//119
f 106//106 124//124 119//119
f 119//119 189//189 106//106
f 17//17 349//349 345//345
f 85//85 349//349 17//17
f 191//191 194//194 192//192
f 81//81 38//38 82//82
f 38//38 41//41 82//82
f 261//261 41//41 38//38
f 38//38 262//262 261//261
f 261//261 262//262 41//41
f 83//83 43//43 80//80
f 83//83 188//188 190//190
f 80//80 188//188 83//83
f 190//190 192//192 83//83
f 192//192 82//82 83//83
f 40//40 41//41 260//260
f 257//257 43//43 40//40
f 43//43 83//83 40//40
f 40//40 82//82 41//41
f 40//40 83//83 82//82
f 313//313 316//316 311//311
f 337//337 338//338 351//351
f 338//338 335//335 351//351
f 294//294 263//263 267//267
f 300//300 298//298 299//299
f 299//299 298//298 328//328
f 305//305 307//307 303//303
f 343//343 335//335 344//344
f 344//344 335//335 338//338
f 344//344 292//292 288//288
f 344//344 338//338 290//290
f 290//290 292//292 344//344
f 254//254 256//256 257//257
f 257//257 255//255 254//254
f 253//253 44//44 254//254
f 254//254 251//251 253//253
f 42//42 256//256 254//254
f 252//252 251//251 254//254
f 254//254 255//255 252//252
f 257//257 263//263 258//258
f 258//258 255//255 257//257
f 296//296 340//340 341//341
f 345//345 346//346 237//237
f 237//237 17//17 345//345
f 276//276 237//237 346//346
f 236//236 237//237 276//276
f 15//15 236//236 235//235
f 236//236 276//276 235//235
f 221//221 270//270 220//220
f 221//221 272//272 269//269
f 269//269 270//270 221//221
f 217//217 277//277 218//218
f 277//277 333//333 287//287
f 308//308 306//306 312//312
f 312//312 330//330 308//308
f 316//316 330//330 312//312
f 311//311 316//316 312//312
f 312//312 306//306 305//305
f 305//305 303//303 312//312
f 328//328 323//323 312//312
f 312//312 302//302 328//328
f 312//312 303//303 302//302
f 320//320 317//317 316//316
f 320//320 319//319 317//317
f 77//77 79//79 47//47
f 114//114 112//112 77//77
f 48//48 242//242 50//50
f 50//50 49//49 48//48
f 47//47 49//49 78//78
f 115//115 77//77 78//78
f 78//78 77//77 47//47
f 78//78 49//49 50//50
f 50//50 76//76 78//78
f 46//46 47//47 249//249
f 249//249 243//243 46//46
f 46//46 243//243 47//47
f 248//248 250//250 245//245
f 245//245 247//247 248//248
f 245//245 310//310 246//246
f 245//245 307//307 310//310
f 245//245 250//250 307//307
f 123//123 121//121 137//137
f 197//197 76//76 91//91
f 91//91 200//200 197//197
f 115//115 78//78 197//197
f 197//197 78//78 76//76
f 118//118 117//117 114//114
f 118//118 121//121 117//117
f 114//114 137//137 118//118
f 118//118 137//137 121//121
f 246//246 242//242 241//241
f 126//126 127//127 104//104
f 104//104 120//120 126//126
f 107//107 119//119 108//108
f 108//108 171//171 191//191
f 191//191 192//192 108//108
f 190//190 107//107 108//108
f 108//108 192//192 190//190
f 172//172 173//173 171//171
f 171//171 108//108 172//172
f 172//172 108//108 119//119
f 172//172 169//169 173//173
f 172//172 119//119 124//124
f 124//124 169//169 172//172
f 18//18 236//236 15//15
f 85//85 17//17 18//18
f 198//198 84//84 81//81
f 198//198 194//194 84//84
f 198//198 192//192 194//194
f 81//81 82//82 198//198
f 198//198 82//82 192//192
f 193//193 194//194 191//191
f 35//35 220//220 270//270
f 260//260 257//257 259//259
f 259//259 40//40 260//260
f 257//257 40//40 259//259
f 166//166 165//165 350//350
f 350//350 185//185 166//166
f 350//350 349//349 85//85
f 85//85 185//185 350//350
f 158//158 161//161 134//134
f 134//134 133//133 158//158
f 321//321 313//313 314//314
f 314//314 322//322 321//321
f 316//316 313//313 321//321
f 322//322 279//279 321//321
f 327//327 328//328 325//325
f 328//328 298//298 325//325
f 291//291 290//290 289//289
f 289//289 294//294 291//291
f 291//291 292//292 290//290
f 267//267 296//296 291//291
f 291//291 294//294 267//267
f 296//296 288//288 291//291
f 288//288 292//292 291//291
f 295//295 294//294 289//289
f 295//295 297//297 300//300
f 300//300 255//255 295//295
f 255//255 258//258 295//295
f 263//263 294//294 295//295
f 295//295 258//258 263//263
f 300//300 299//299 301//301
f 328//328 302//302 301//301
f 301//301 299//299 328//328
f 302//302 303//303 304//304
f 304//304 303//303 307//307
f 304//304 301//301 302//302
f 304//304 250//250 252//252
f 307//307 250//250 304//304
f 304//304 255//255 300//300
f 252//252 255//255 304//304
f 300//300 301//301 304//304
f 339//339 288//288 296//296
f 339//339 344//344 288//288
f 343//343 344//344 339//339
f 339//339 341//341 343//343
f 229//229 228//228 8//8
f 229//229 9//9 230//230
f 352//352 351//351 335//335
f 335//335 276//276 352//352
f 352//352 276//276 346//346
f 234//234 235//235 276//276
f 267//267 262//262 264//264
f 271//271 269//269 272//272
f 278//278 218//218 277//277
f 277//277 287//287 278//278
f 333//333 332//332 286//286
f 286//286 287//287 333//333
f 116//116 77//77 115//115
f 114//114 77//77 116//116
f 115//115 197//197 116//116
f 79//79 77//77 196//196
f 103//103 104//104 196//196
f 104//104 188//188 196//196
f 196//196 188//188 80//80
f 80//80 79//79 196//196
f 113//113 137//137 114//114
f 113//113 197//197 200//200
f 114//114 116//116 113//113
f 113//113 116//116 197//197
f 138//138 140//140 143//143
f 140//140 144//144 143//143
f 244//244 245//245 246//246
f 246//246 241//241 244//244
f 247//247 245//245 244//244
f 49//49 247//247 244//244
f 244//244 241//241 49//49
f 240//240 48//48 49//49
f 49//49 241//241 240//240
f 242//242 48//48 240//240
f 240//240 241//241 242//242
f 133//133 134//134 131//131
f 122//122 126//126 120//120
f 138//138 131//131 136//136
f 136//136 131//131 132//132
f 132//132 122//122 136//136
f 136//136 122//122 135//135
f 141//141 113//113 200//200
f 137//137 113//113 141//141
f 141//141 144//144 140//140
f 84//84 178//178 89//89
f 176//176 177//177 171//171
f 176//176 173//173 175//175
f 171//171 173//173 176//176
f 183//183 177//177 176//176
f 175//175 184//184 176//176
f 184//184 183//183 176//176
f 178//178 177//177 180//180
f 180//180 177//177 183//183
f 180//180 89//89 178//178
f 183//183 89//89 180//180
f 191//191 109//109 181//181
f 171//171 177//177 110//110
f 191//191 171//171 110//110
f 110//110 109//109 191//191
f 179//179 184//184 175//175
f 173//173 169//169 170//170
f 236//236 18//18 16//16
f 16//16 18//18 17//17
f 16//16 237//237 236//236
f 17//17 237//237 16//16
f 226//226 273//273 225//225
f 227//227 7//7 228//228
f 227//227 273//273 226//226
f 222//222 272//272 223//223
f 223//223 272//272 221//221
f 37//37 35//35 270//270
f 37//37 269//269 39//39
f 270//270 269//269 37//37
f 81//81 84//84 36//36
f 84//84 35//35 36//36
f 36//36 39//39 81//81
f 36//36 37//37 39//39
f 35//35 37//37 36//36
f 221//221 220//220 1//1
f 220//220 35//35 1//1
f 345//345 349//349 348//348
f 349//349 350//350 348//348
f 166//166 170//170 167//167
f 167//167 170//170 169//169
f 167//167 169//169 124//124
f 163//163 134//134 161//161
f 163//163 167//167 134//134
f 206//206 279//279 204//204
f 315//315 322//322 314//314
f 315//315 355//355 322//322
f 347//347 204//204 354//354
f 204//204 279//279 354//354
f 354//354 279//279 322//322
f 322//322 355//355 354//354
f 318//318 320//320 316//316
f 316//316 321//321 318//318
f 319//319 320//320 318//318
f 331//331 319//319 318//318
f 337//337 351//351 336//336
f 336//336 325//325 298//298
f 298//298 297//297 336//336
f 289//289 337//337 336//336
f 293//293 295//295 289//289
f 297//297 295//295 293//293
f 289//289 336//336 293//293
f 293//293 336//336 297//297
f 296//296 341//341 342//342
f 342//342 339//339 296//296
f 341//341 339//339 342//342
f 274//274 229//229 230//230
f 228//228 229//229 274//274
f 230//230 231//231 274//274
f 274//274 341//341 340//340
f 340//340 273//273 274//274
f 274//274 227//227 228//228
f 273//273 227//227 274//274
f 232//232 12//12 233//233
f 39//39 269//269 268//268
f 272//272 273//273 266//266
f 266//266 271//271 272//272
f 266//266 273//273 340//340
f 269//269 271//271 266//266
f 266//266 296//296 267//267
f 266//266 340//340 296//296
f 266//266 268//268 269//269
f 55//55 52//52 217//217
f 217//217 218//218 55//55
f 218//218 58//58 55//55
f 53//53 52//52 55//55
f 285//285 287//287 213//213
f 285//285 278//278 287//287
f 283//283 332//332 331//331
f 283//283 286//286 332//332
f 356//356 350//350 150//150
f 162//162 152//152 165//165
f 162//162 165//165 166//166
f 166//166 167//167 162//162
f 167//167 163//163 162//162
f 73//73 206//206 204//204
f 103//103 196//196 102//102
f 102//102 196//196 112//112
f 102//102 112//112 117//117
f 102//102 121//121 103//103
f 117//117 121//121 102//102
f 195//195 77//77 112//112
f 112//112 196//196 195//195
f 195//195 196//196 77//77
f 138//138 143//143 142//142
f 142//142 131//131 138//138
f 133//133 131//131 142//142
f 158//158 133//133 142//142
f 157//157 143//143 144//144
f 144//144 141//141 157//157
f 158//158 142//142 157//157
f 157//157 142//142 143//143
f 129//129 120//120 123//123
f 129//129 122//122 120//120
f 135//135 122//122 129//129
f 123//123 137//137 129//129
f 137//137 135//135 129//129
f 128//128 122//122 132//132
f 126//126 122//122 128//128
f 132//132 131//131 128//128
f 128//128 131//131 126//126
f 138//138 136//136 139//139
f 139//139 136//136 135//135
f 139//139 140//140 138//138
f 139//139 141//141 140//140
f 139//139 135//135 137//137
f 137//137 141//141 139//139
f 222//222 223//223 33//33
f 33//33 223//223 2//2
f 182//182 177//177 178//178
f 182//182 110//110 177//177
f 182//182 181//181 109//109
f 109//109 110//110 182//182
f 182//182 178//178 84//84
f 84//84 194//194 182//182
f 194//194 193//193 182//182
f 182//182 193//193 191//191
f 191//191 181//181 182//182
f 166//166 185//185 168//168
f 168//168 170//170 166//166
f 174//174 179//179 175//175
f 175//175 173//173 174//174
f 173//173 170//170 174//174
f 174//174 186//186 179//179
f 170//170 186//186 174//174
f 19//19 18//18 15//15
f 15//15 235//235 19//19
f 85//85 18//18 19//19
f 22//22 12//12 232//232
f 235//235 234//234 14//14
f 234//234 20//20 14//14
f 14//14 19//19 235//235
f 20//20 19//19 14//14
f 31//31 225//225 224//224
f 224//224 225//225 273//273
f 224//224 272//272 222//222
f 224//224 273//273 272//272
f 4//4 225//225 31//31
f 358//358 357//357 353//353
f 358//358 356//356 357//357
f 130//130 167//167 124//124
f 134//134 167//167 130//130
f 130//130 131//131 134//134
f 124//124 125//125 130//130
f 130//130 125//125 127//127
f 127//127 126//126 130//130
f 126//126 131//131 130//130
f 280//280 321//321 279//279
f 280//280 318//318 321//321
f 279//279 206//206 280//280
f 326//326 336//336 351//351
f 325//325 336//336 326//326
f 275//275 231//231 232//232
f 275//275 274//274 231//231
f 232//232 233//233 275//275
f 343//343 341//341 275//275
f 341//341 274//274 275//275
f 275//275 335//335 343//343
f 275//275 276//276 335//335
f 275//275 234//234 276//276
f 275//275 233//233 234//234
f 21//21 233//233 12//12
f 12//12 22//22 21//21
f 268//268 266//266 265//265
f 265//265 264//264 39//39
f 39//39 268//268 265//265
f 267//267 264//264 265//265
f 265//265 266//266 267//267
f 54//54 215//215 58//58
f 158//158 159//159 155//155
f 155//155 161//161 158//158
f 155//155 163//163 161//161
f 92//92 55//55 58//58
f 53//53 55//55 92//92
f 92//92 91//91 53//53
f 92//92 200//200 91//91
f 218//218 278//278 216//216
f 278//278 285//285 216//216
f 216//216 285//285 213//213
f 213//213 215//215 216//216
f 215//215 54//54 216//216
f 216//216 58//58 218//218
f 216//216 54//54 58//58
f 356//356 145//145 149//149
f 165//165 152//152 153//153
f 101//101 73//73 90//90
f 90//90 357//357 101//101
f 75//75 204//204 347//347
f 90//90 73//73 75//75
f 75//75 347//347 353//353
f 75//75 353//353 90//90
f 89//89 33//33 34//34
f 34//34 35//35 84//84
f 84//84 89//89 34//34
f 34//34 1//1 35//35
f 34//34 33//33 2//2
f 2//2 223//223 34//34
f 34//34 223//223 221//221
f 221//221 1//1 34//34
f 222//222 33//33 32//32
f 32//32 224//224 222//222
f 32//32 89//89 31//31
f 32//32 33//33 89//89
f 187//187 186//186 170//170
f 187//187 168//168 185//185
f 187//187 185//185 85//85
f 230//230 9//9 26//26
f 232//232 231//231 23//23
f 71//71 65//65 205//205
f 331//331 318//318 281//281
f 318//318 280//280 281//281
f 281//281 283//283 331//331
f 234//234 233//233 13//13
f 233//233 21//21 13//13
f 13//13 20//20 234//234
f 13//13 21//21 20//20
f 86//86 21//21 22//22
f 20//20 21//21 86//86
f 86//86 187//187 85//85
f 186//186 187//187 86//86
f 22//22 23//23 86//86
f 85//85 19//19 86//86
f 86//86 19//19 20//20
f 57//57 215//215 213//213
f 58//58 215//215 57//57
f 159//159 94//94 164//164
f 154//154 153//153 164//164
f 164//164 153//153 152//152
f 93//93 94//94 159//159
f 93//93 92//92 58//58
f 58//58 57//57 93//93
f 93//93 57//57 94//94
f 160//160 159//159 158//158
f 158//158 157//157 160//160
f 160//160 157//157 141//141
f 160//160 141//141 200//200
f 286//286 283//283 284//284
f 284//284 282//282 286//286
f 283//283 281//281 284//284
f 284//284 281//281 282//282
f 148//148 149//149 145//145
f 148//148 145//145 356//356
f 356//356 150//150 148//148
f 151//151 148//148 150//150
f 149//149 148//148 151//151
f 357//357 356//356 146//146
f 356//356 149//149 146//146
f 146//146 101//101 357//357
f 147//147 350//350 165//165
f 165//165 153//153 147//147
f 147//147 150//150 350//350
f 147//147 153//153 154//154
f 154//154 151//151 147//147
f 147//147 151//151 150//150
f 73//73 101//101 74//74
f 206//206 70//70 74//74
f 71//71 74//74 100//100
f 100//100 74//74 101//101
f 100//100 146//146 149//149
f 101//101 146//146 100//100
f 202//202 73//73 204//204
f 204//204 75//75 202//202
f 202//202 75//75 73//73
f 206//206 73//73 203//203
f 203//203 70//70 206//206
f 73//73 74//74 203//203
f 203//203 74//74 70//70
f 31//31 224//224 3//3
f 3//3 32//32 31//31
f 224//224 32//32 3//3
f 170//170 168//168 201//201
f 201//201 187//187 170//170
f 168//168 187//187 201//201
f 25//25 26//26 9//9
f 25//25 229//229 8//8
f 9//9 229//229 25//25
f 11//11 22//22 232//232
f 232//232 23//23 11//11
f 11//11 23//23 22//22
f 10//10 23//23 231//231
f 10//10 231//231 230//230
f 211//211 282//282 208//208
f 282//282 281//281 208//208
f 23//23 10//10 24//24
f 230//230 26//26 24//24
f 24//24 10//10 230//230
f 213//213 212//212 56//56
f 56//56 57//57 213//213
f 212//212 57//57 56//56
f 156//156 155//155 159//159
f 159//159 164//164 156//156
f 156//156 164//164 152//152
f 152//152 162//162 156//156
f 156//156 162//162 163//163
f 163//163 155//155 156//156
f 213//213 287//287 214//214
f 287//287 286//286 214//214
f 214//214 282//282 211//211
f 286//286 282//282 214//214
f 154//154 164//164 96//96
f 96//96 164//164 94//94
f 96//96 151//151 154//154
f 199//199 93//93 159//159
f 159//159 160//160 199//199
f 92//92 93//93 199//199
f 200//200 92//92 199//199
f 199//199 160//160 200//200
f 27//27 25//25 8//8
f 8//8 228//228 27//27
f 228//228 7//7 27//27
f 209//209 281//281 280//280
f 209//209 208//208 281//281
f 209//209 280//280 206//206
f 71//71 205//205 209//209
f 209//209 205//205 65//65
f 209//209 74//74 71//71
f 206//206 74//74 209//209
f 211//211 67//67 61//61
f 61//61 214//214 211//211
f 151//151 96//96 98//98
f 149//149 151//151 98//98
f 98//98 100//100 149//149
f 98//98 96//96 67//67
f 67//67 66//66 98//98
f 28//28 27//27 7//7
f 28//28 227//227 6//6
f 7//7 227//227 28//28
f 25//25 27//27 87//87
f 26//26 25//25 87//87
f 184//184 179//179 87//87
f 87//87 24//24 26//26
f 179//179 186//186 87//87
f 186//186 86//86 87//87
f 87//87 86//86 23//23
f 23//23 24//24 87//87
f 72//72 66//66 208//208
f 72//72 209//209 65//65
f 208//208 209//209 72//72
f 72//72 65//65 71//71
f 71//71 100//100 72//72
f 100//100 98//98 72//72
f 72//72 98//98 66//66
f 68//68 66//66 67//67
f 211//211 208//208 60//60
f 208//208 66//66 60//60
f 95//95 61//61 67//67
f 29//29 28//28 6//6
f 226//226 5//5 29//29
f 6//6 227//227 29//29
f 29//29 227//227 226//226
f 27//27 28//28 88//88
f 88//88 87//87 27//27
f 28//28 29//29 88//88
f 88//88 89//89 183//183
f 31//31 89//89 88//88
f 88//88 183//183 184//184
f 184//184 87//87 88//88
f 69//69 67//67 211//211
f 211//211 68//68 69//69
f 207//207 68//68 211//211
f 211//211 60//60 207//207
f 66//66 68//68 207//207
f 207//207 60//60 66//66
f 59//59 212//212 213//213
f 59//59 57//57 212//212
f 94//94 57//57 59//59
f 59//59 96//96 94//94
f 214//214 61//61 64//64
f 61//61 95//95 64//64
f 30//30 29//29 5//5
f 30//30 4//4 31//31
f 31//31 88//88 30//30
f 30//30 88//88 29//29
f 225//225 4//4 30//30
f 226//226 225//225 30//30
f 30//30 5//5 226//226
f 99//99 68//68 67//67
f 67//67 69//69 99//99
f 99//99 69//69 68//68
f 67//67 96//96 62//62
f 96//96 59//59 62//62
f 214//214 62//62 210//210
f 210//210 62//62 59//59
f 213//213 214//214 210//210
f 210//210 59//59 213//213
f 63//63 62//62 214//214
f 62//62 63//63 97//97
f 97//97 95//95 67//67
f 67//67 62//62 97//97
f 97//97 64//64 95//95
f 214//214 64//64 97//97
f 97//97 63//63 214//214
f 347//347 346//346 345//345
f 345//345 353//353 347//347
f 44//44 43//43 254//254
f 254//254 43//43 42//42
f 264//264 262//262 39//39
f 346//346 347//347 354//354
f 354//354 355//355 351//351
f 354//354 352//352 346//346
f 351//351 352//352 354//354
f 358//358 353//353 345//345
f 345//345 348//348 358//358
f 358//358 350//350 356//356
f 358//358 348//348 350//350
f 327//327 325//325 326//326
f 326//326 324//324 327//327
f 326//326 313//313 311//311
f 323//323 324//324 326//326
f 311//311 312//312 326//326
f 314//314 313//313 326//326
f 326//326 312//312 323//323
f 351//351 355//355 326//326
f 326//326 315//315 314//314
f 355//355 315//315 326//326

