# https://github.com/mikedh/trimesh
v 8.25000000 11.00000000 15.00000000
v -4.50000000 11.00000000 15.00000000
v 24.87163544 8.39999962 20.70999908
v 24.89921570 8.39999962 20.82859421
v 24.90848351 8.39999962 20.95000076
v 23.03327560 8.39999962 17.41549301
v 22.94911194 8.39999962 29.68044662
v 24.87163544 8.39999962 26.29000092
v 24.90848351 8.39999962 26.04999924
v 24.89921570 8.39999962 26.17140579
v 25.10848236 8.19999981 26.04999924
v 25.09690094 8.19999981 26.20175743
v 25.06242180 8.19999981 26.35000038
v 19.81108284 8.39999962 31.98314285
v 23.09985352 8.19999981 29.81205940
v 19.89136505 8.19999981 32.16644669
v 16.00000000 8.19999981 33.00000000
v 8.25000000 10.00000000 33.00000000
v 23.18584251 8.19999981 17.28600883
v 25.06242180 8.19999981 20.64999962
v 25.09690094 8.19999981 20.79824257
v 25.10848236 8.19999981 20.95000076
v 25.38994408 7.40000010 22.05830574
v 24.77452469 5.00000000 19.85921860
v 25.50000000 7.40000010 23.50000000
v 25.50000000 5.00000000 23.50000000
v 24.77452469 5.00000000 27.14078140
v 25.38994408 7.40000010 24.94169426
v 22.71751022 5.00000000 30.21751022
v 19.64078140 5.00000000 32.27452469
v -4.50000000 11.00000000 32.00000000
v 8.25000000 11.00000000 32.00000000
v 25.43842125 7.54511642 23.50522041
v 18.12302017 4.94999981 32.75957108
v 25.25740814 4.94999981 25.63262367
v 24.56801796 4.94999981 19.39650345
v 25.26731873 4.94999981 21.41094017
v 23.42391014 4.94999981 29.42736244
v 20.13016701 4.94999981 32.05508804
v 25.25740814 -4.94999981 21.36737633
v 25.26731873 -4.94999981 25.58905983
v 24.56801796 -4.94999981 27.60349655
v 21.91748428 -4.94999981 30.93142128
v 23.43432045 -4.94999981 29.41426659
v 20.12102318 -4.94999981 32.05952454
v 23.18584251 -8.19999981 17.28600883
v 24.56801796 -5.00000000 19.39650345
v 25.26731873 -5.00000000 21.41094017
v 25.25740814 -5.00000000 25.63262367
v 25.49999619 -7.40000010 23.50000000
v 23.42391014 -5.00000000 29.42736244
v 20.13016701 -5.00000000 32.05508804
v 23.09985352 -8.19999981 29.81205940
v 25.06242180 -8.19999981 26.35000038
v 18.12302017 -5.00000000 32.75957108
v 19.89136505 -8.19999981 32.16644669
v 16.00000000 -8.19999981 33.00000000
v 8.25000000 -10.00000000 33.00000000
v -4.50000000 -11.00000000 15.00000000
v 8.25000000 -11.00000000 15.00000000
v 22.94907761 -8.39999962 29.68048477
v 24.87163544 -8.39999962 26.29000092
v 19.81103706 -8.39999962 31.98316383
v 24.89921570 -8.39999962 26.17140579
v 24.90848351 -8.39999962 26.04999924
v 25.09690094 -8.19999981 26.20175743
v 25.10848236 -8.19999981 26.04999924
v 23.03323364 -8.39999962 17.41544342
v 24.87163544 -8.39999962 20.70999908
v 8.25000000 -11.00000000 32.00000000
v -4.50000000 -11.00000000 32.00000000
v 25.06242180 -8.19999981 20.64999962
v 25.09690094 -8.19999981 20.79824257
v 24.89921570 -8.39999962 20.82859421
v 24.90848351 -8.39999962 20.95000076
v 25.10848236 -8.19999981 20.95000076
v 25.43842125 -7.54511642 23.49477959
v 17.55555344 10.19999981 25.05555344
v 18.03131866 10.19999981 24.34461403
v 18.03131866 10.19999981 22.65538597
v 18.20000076 10.19999981 23.50000000
v 17.55555344 10.19999981 21.94444656
v 18.67159462 -9.80000019 28.13521004
v 20.62887573 -9.80000019 26.18249702
v 20.64115524 -9.80000019 20.83881378
v 21.34994507 -9.80000019 23.51018143
v 18.69571495 -9.80000019 18.87878609
v -11.30000019 6.03703642 -1.61761904
v -7.50001526 -1.61761165 -6.03703833
v -11.30000019 -1.61761904 -6.03703642
v -11.30000019 0.00000000 -6.25000000
v -11.50000000 0.00000000 -6.05000019
v -7.50001526 0.00001826 -6.25000000
v -11.30000019 1.61761904 -6.03703642
v -11.50000000 3.02614832 -5.23873425
v -7.50001526 -3.12500191 -5.41265774
v -11.30000019 -3.12500000 -5.41265869
v -7.50001526 -4.41942406 -4.41941071
v -11.30000019 -4.41941738 -4.41941738
v -11.50000000 -3.02611780 -5.23875189
v -7.50001526 -5.41266489 -3.12498927
v -11.30000019 -5.41265869 -3.12500000
v -11.50000000 -5.23873425 -3.02614832
v -7.50001526 -6.03703880 -1.61760974
v -11.30000019 -6.03703642 -1.61761904
v -7.50001526 1.61764562 -6.03702927
v -11.30000019 3.12500000 -5.41265869
v -7.50001526 3.12502933 -5.41264200
v -11.30000019 4.41941738 -4.41941738
v -7.50001526 4.41944218 -4.41939259
v -11.30000019 5.41265869 -3.12500000
v -7.50001526 5.41267395 -3.12497354
v -11.50000000 5.23875189 -3.02611780
v 8.39999962 -5.41231728 -3.12560344
v 8.39999962 -3.12517190 -5.41255569
v 8.39999962 5.40816307 -3.13276458
v 8.39999962 3.11988997 -5.41560173
v 8.39999962 6.03548527 -1.62316644
v 11.30000019 -5.41265869 -3.12500000
v 8.39999962 -0.00325134 -6.24991703
v 11.30000019 -3.12500000 -5.41265869
v 11.30000019 -0.00000000 -6.25000000
v 11.30000019 3.12500000 -5.41265869
v 11.30000019 5.41265869 -3.12500000
v 11.50000000 -5.23875189 -3.02611780
v 11.50000000 -3.02614832 -5.23873425
v 11.50000000 -0.00000000 -6.05000019
v 11.50000000 3.02611780 -5.23875189
v 11.50000000 5.23873425 -3.02614832
v 10.80000019 -9.50000000 11.50000000
v 10.80000019 9.50000000 11.50000000
v 8.50000000 -9.50000000 10.00000000
v -8.50000000 -9.50000000 10.00000000
v -8.50000000 9.50000000 10.00000000
v 8.50000000 9.50000000 10.00000000
v -11.80000019 -10.50000000 14.00000000
v -11.80000019 10.50000000 33.00000000
v -11.80000019 10.50000000 14.00000000
v -11.80000019 -10.50000000 33.00000000
v -5.50000000 10.50000000 33.00000000
v -5.50000000 -10.50000000 33.00000000
vn 0.08019592 0.98457541 -0.15549881
vn -0.02261716 0.99053287 -0.13539974
vn 0.47756072 0.85879494 -0.18549129
vn 0.49873838 0.86326405 -0.07768654
vn 0.50288375 0.86411392 -0.02037334
vn 0.41460668 0.86457101 -0.28393355
vn 0.39935918 0.84951376 0.34472978
vn 0.47735281 0.85849544 0.18740300
vn 0.50288375 0.86411392 0.02037334
vn 0.49873838 0.86326405 0.07768654
vn 0.86589607 0.49787745 0.04839473
vn 0.90175845 0.39960991 0.16475320
vn 0.86416605 0.38060792 0.32917267
vn 0.26029115 0.81692794 0.51466228
vn 0.69047664 0.37991434 0.61555431
vn 0.38549192 0.38019550 0.84074215
vn 0.12319661 0.33856545 0.93284298
vn 0.05449661 0.40018389 0.91481308
vn 0.75950895 0.46177701 -0.45815735
vn 0.86602620 0.38419123 -0.31999331
vn 0.90176358 0.39959288 -0.16476646
vn 0.86589619 0.49787729 -0.04839408
vn 0.98709834 0.10137251 -0.12393741
vn 0.92568176 0.00580524 -0.37825861
vn 0.98327377 0.18213371 -0.00011586
vn 1.00000000 -0.00000025 0.00000000
vn 0.90251457 0.01185114 0.43049622
vn 0.98709963 0.10134711 0.12394788
vn 0.65561150 0.00947477 0.75503893
vn 0.34933764 0.00219515 0.93699434
vn -0.01912731 0.97547244 0.21928899
vn 0.08220668 0.91873223 0.38622941
vn 0.90972691 0.41520699 0.00032920
vn 0.21034880 0.01264483 0.97754462
vn 0.97418633 0.00082447 0.22574391
vn 0.89881023 0.01821659 -0.43795927
vn 0.97484965 0.00083072 -0.22286201
vn 0.81743143 0.00823645 0.57596703
vn 0.50325828 0.00645085 0.86411197
vn 0.97029678 -0.00115150 -0.24191495
vn 0.98568206 -0.00612622 0.16850326
vn 0.88968117 -0.01362934 0.45637885
vn 0.60911583 -0.01282810 0.79297752
vn 0.81848192 -0.00630833 0.57449766
vn 0.42931108 -0.00003989 0.90315668
vn 0.75950687 -0.46178485 -0.45815288
vn 0.90618408 -0.01612345 -0.42257596
vn 0.98497876 -0.00790515 -0.17249450
vn 0.97190432 -0.00498481 0.23532349
vn 0.98535002 -0.17054414 0.00019201
vn 0.78180279 -0.00398451 0.62351305
vn 0.48464707 -0.00315706 0.87470409
vn 0.69049014 -0.38551502 0.61204701
vn 0.86427807 -0.38230882 0.32689966
vn 0.21468822 -0.01231143 0.97660504
vn 0.38028504 -0.38422571 0.84128110
vn 0.12307287 -0.33864535 0.93283031
vn 0.05449661 -0.40018389 0.91481308
vn -0.02261633 -0.99053273 -0.13540092
vn 0.07786667 -0.98479889 -0.15526730
vn 0.41521129 -0.83128763 0.36954087
vn 0.51044195 -0.83686310 0.19776038
vn 0.26027833 -0.81692682 0.51467054
vn 0.53428742 -0.84096216 0.08555470
vn 0.54646752 -0.83715390 0.02337937
vn 0.90618249 -0.39279491 0.15666991
vn 0.86589730 -0.49787535 0.04839421
vn 0.43258664 -0.84709438 -0.30870684
vn 0.51065132 -0.83720733 -0.19575272
vn 0.08066417 -0.91896746 0.38599495
vn -0.01912731 -0.97547244 0.21928899
vn 0.86608652 -0.38400300 -0.32005600
vn 0.90615709 -0.39283311 -0.15672101
vn 0.53416206 -0.84104129 -0.08555957
vn 0.54642092 -0.83718396 -0.02339240
vn 0.86589717 -0.49787551 -0.04839487
vn 0.90973236 -0.41519505 -0.00032931
vn 0.18595371 0.97392758 0.12994724
vn 0.17246207 0.98279656 0.06608902
vn 0.17236588 0.98282489 -0.06591843
vn 0.17683152 0.98424114 0.00000000
vn 0.18575627 0.97398034 -0.12983413
vn 0.19907401 -0.95409103 0.22378527
vn 0.21263102 -0.97033191 0.11508270
vn 0.21270285 -0.97044638 -0.11397945
vn 0.23584022 -0.97179176 0.00039722
vn 0.19968425 -0.95544965 -0.21735263
vn -0.46174786 0.83721201 -0.29302724
vn 0.00031243 -0.25891721 -0.96589947
vn -0.49439004 -0.22500309 -0.83961425
vn -0.37188003 0.00000296 -0.92828080
vn -0.90983467 0.00000007 -0.41497094
vn 0.00000001 0.06540401 -0.99785887
vn -0.49439649 0.22499244 -0.83961331
vn -0.90922371 0.20734866 -0.36099691
vn -0.00000002 -0.48288683 -0.87568277
vn -0.37193031 -0.46401527 -0.80396373
vn 0.00031222 -0.70709357 -0.70711992
vn -0.49417855 -0.61472975 -0.61473157
vn -0.90922372 -0.20734436 -0.36099937
vn -0.00000000 -0.89862434 -0.43871893
vn -0.37193133 -0.80396544 -0.46401148
vn -0.90536964 -0.36507759 -0.21685057
vn 0.00097594 -0.94233385 -0.33467292
vn -0.46174298 -0.83721240 -0.29303381
vn 0.00031279 0.25860412 -0.96598334
vn -0.37193943 0.46401631 -0.80395891
vn 0.00000001 0.55506817 -0.83180486
vn -0.49418965 0.61471879 -0.61473360
vn 0.00031312 0.70686501 -0.70734840
vn -0.37195155 0.80395838 -0.46400751
vn -0.00000050 0.89691006 -0.44221301
vn -0.90536956 0.36508023 -0.21684646
vn 0.00001612 -0.83377066 -0.55211093
vn 0.00000382 -0.56238012 -0.82687883
vn 0.00020052 0.82979750 -0.55806457
vn 0.00013026 0.44041731 -0.89779317
vn 0.01908196 0.94478970 -0.32712123
vn 0.32784548 -0.78763728 -0.52167506
vn 0.00005769 -0.07881288 -0.99688943
vn 0.36717706 -0.46488153 -0.80564643
vn 0.36713943 0.00000006 -0.93016592
vn 0.36718058 0.46488567 -0.80564244
vn 0.33381130 0.78299179 -0.52487510
vn 0.70715141 -0.50884755 -0.49092877
vn 0.77087581 -0.30020208 -0.56180886
vn 0.78931802 -0.00000001 -0.61398457
vn 0.77087589 0.30019135 -0.56181449
vn 0.70714401 0.50885481 -0.49093190
vn 0.20359002 -0.94474277 -0.25692841
vn 0.20607924 0.94445996 -0.25598191
vn 0.03369548 -0.95727355 -0.28721413
vn -0.02313369 -0.96042125 -0.27758938
vn -0.02313369 0.96042125 -0.27758938
vn 0.04921635 0.95732627 -0.28478792
vn -0.69663006 -0.70885106 -0.11061976
vn -0.59270860 0.55672927 0.58202151
vn -0.69663006 0.70885106 -0.11061976
vn -0.59270860 -0.55672927 0.58202151
vn 0.00049372 0.52573638 0.85064741
vn 0.00049372 -0.52573638 0.85064741
f 1//1 32//32 81//81
f 136//136 138//138 92//92
f 18//18 16//16 32//32
f 118//118 2//2 1//1
f 88//88 2//2 118//118
f 138//138 88//88 113//113
f 136//136 133//133 59//59
f 105//105 133//133 136//136
f 105//105 59//59 133//133
f 136//136 103//103 105//105
f 105//105 103//103 102//102
f 141//141 70//70 58//58
f 127//127 72//72 126//126
f 131//131 124//124 1//1
f 32//32 16//16 14//14
f 140//140 18//18 32//32
f 138//138 2//2 134//134
f 134//134 88//88 138//138
f 134//134 2//2 88//88
f 136//136 92//92 100//100
f 100//100 103//103 136//136
f 114//114 98//98 119//119
f 102//102 103//103 99//99
f 99//99 114//114 102//102
f 98//98 114//114 99//99
f 103//103 100//100 99//99
f 99//99 100//100 97//97
f 6//6 19//19 124//124
f 124//124 131//131 6//6
f 6//6 131//131 1//1
f 90//90 92//92 91//91
f 91//91 120//120 90//90
f 90//90 120//120 89//89
f 90//90 100//100 92//92
f 97//97 100//100 90//90
f 1//1 124//124 135//135
f 135//135 118//118 1//1
f 124//124 118//118 135//135
f 95//95 92//92 138//138
f 138//138 113//113 95//95
f 109//109 95//95 113//113
f 59//59 105//105 60//60
f 60//60 132//132 119//119
f 119//119 105//105 101//101
f 101//101 105//105 102//102
f 101//101 114//114 119//119
f 102//102 114//114 101//101
f 119//119 132//132 104//104
f 104//104 105//105 119//119
f 132//132 60//60 104//104
f 104//104 60//60 105//105
f 46//46 126//126 72//72
f 124//124 19//19 129//129
f 19//19 128//128 129//129
f 123//123 128//128 127//127
f 124//124 129//129 123//123
f 123//123 129//129 128//128
f 82//82 6//6 1//1
f 47//47 72//72 127//127
f 127//127 36//36 47//47
f 20//20 36//36 127//127
f 127//127 128//128 20//20
f 20//20 128//128 19//19
f 127//127 126//126 121//121
f 121//121 90//90 89//89
f 96//96 97//97 121//121
f 97//97 90//90 121//121
f 119//119 98//98 121//121
f 121//121 126//126 119//119
f 94//94 93//93 91//91
f 91//91 92//92 94//94
f 92//92 95//95 94//94
f 111//111 109//109 113//113
f 111//111 113//113 88//88
f 88//88 118//118 111//111
f 95//95 109//109 107//107
f 117//117 94//94 107//107
f 107//107 94//94 95//95
f 130//130 60//60 119//119
f 119//119 126//126 125//125
f 125//125 46//46 119//119
f 126//126 46//46 125//125
f 15//15 14//14 16//16
f 70//70 60//60 86//86
f 58//58 70//70 56//56
f 16//16 18//18 17//17
f 122//122 123//123 127//127
f 127//127 121//121 122//122
f 89//89 120//120 122//122
f 122//122 121//121 89//89
f 93//93 94//94 122//122
f 122//122 120//120 91//91
f 91//91 93//93 122//122
f 124//124 123//123 110//110
f 110//110 123//123 109//109
f 6//6 82//82 80//80
f 1//1 81//81 80//80
f 80//80 82//82 1//1
f 26//26 23//23 25//25
f 50//50 23//23 26//26
f 19//19 6//6 3//3
f 3//3 20//20 19//19
f 6//6 80//80 3//3
f 24//24 47//47 36//36
f 72//72 47//47 24//24
f 36//36 20//20 24//24
f 24//24 20//20 72//72
f 96//96 121//121 115//115
f 115//115 97//97 96//96
f 115//115 99//99 97//97
f 98//98 99//99 115//115
f 115//115 121//121 98//98
f 112//112 118//118 124//124
f 124//124 111//111 112//112
f 112//112 111//111 118//118
f 108//108 123//123 117//117
f 117//117 107//107 108//108
f 109//109 123//123 108//108
f 108//108 107//107 109//109
f 28//28 26//26 25//25
f 28//28 41//41 50//50
f 50//50 26//26 28//28
f 48//48 23//23 50//50
f 48//48 37//37 23//23
f 54//54 13//13 27//27
f 13//13 15//15 27//27
f 84//84 83//83 70//70
f 70//70 86//86 84//84
f 85//85 86//86 60//60
f 72//72 48//48 73//73
f 50//50 76//76 73//73
f 73//73 48//48 50//50
f 58//58 56//56 57//57
f 63//63 56//56 70//70
f 123//123 122//122 106//106
f 106//106 122//122 94//94
f 117//117 123//123 106//106
f 106//106 94//94 117//117
f 109//109 111//111 116//116
f 116//116 110//110 109//109
f 116//116 111//111 124//124
f 124//124 110//110 116//116
f 8//8 15//15 13//13
f 4//4 80//80 81//81
f 4//4 3//3 80//80
f 21//21 37//37 20//20
f 23//23 37//37 21//21
f 25//25 23//23 21//21
f 21//21 22//22 25//25
f 20//20 3//3 21//21
f 3//3 4//4 21//21
f 25//25 22//22 33//33
f 11//11 33//33 22//22
f 25//25 33//33 11//11
f 41//41 28//28 35//35
f 35//35 49//49 41//41
f 77//77 76//76 50//50
f 50//50 67//67 77//77
f 77//77 67//67 76//76
f 50//50 41//41 66//66
f 66//66 67//67 50//50
f 66//66 49//49 54//54
f 41//41 49//49 66//66
f 75//75 73//73 76//76
f 20//20 37//37 40//40
f 72//72 20//20 40//40
f 37//37 48//48 40//40
f 40//40 48//48 72//72
f 38//38 27//27 15//15
f 62//62 84//84 86//86
f 62//62 66//66 54//54
f 60//60 130//130 87//87
f 87//87 85//85 60//60
f 87//87 130//130 119//119
f 55//55 57//57 56//56
f 70//70 83//83 61//61
f 61//61 63//63 70//70
f 83//83 84//84 61//61
f 84//84 62//62 61//61
f 56//56 63//63 61//61
f 56//56 43//43 52//52
f 29//29 15//15 16//16
f 15//15 8//8 7//7
f 32//32 14//14 7//7
f 14//14 15//15 7//7
f 79//79 10//10 81//81
f 79//79 8//8 10//10
f 79//79 7//7 8//8
f 79//79 81//81 32//32
f 5//5 4//4 81//81
f 22//22 21//21 5//5
f 5//5 21//21 4//4
f 13//13 35//35 12//12
f 12//12 35//35 28//28
f 12//12 28//28 25//25
f 25//25 11//11 12//12
f 12//12 8//8 13//13
f 10//10 8//8 12//12
f 86//86 85//85 69//69
f 69//69 46//46 72//72
f 72//72 73//73 69//69
f 54//54 27//27 42//42
f 27//27 38//38 42//42
f 86//86 75//75 65//65
f 67//67 66//66 65//65
f 68//68 87//87 119//119
f 119//119 46//46 68//68
f 85//85 87//87 68//68
f 46//46 69//69 68//68
f 68//68 69//69 85//85
f 30//30 56//56 16//16
f 30//30 55//55 56//56
f 53//53 43//43 56//56
f 56//56 61//61 53//53
f 53//53 29//29 43//43
f 15//15 29//29 53//53
f 54//54 42//42 53//53
f 53//53 62//62 54//54
f 53//53 61//61 62//62
f 16//16 56//56 45//45
f 56//56 52//52 45//45
f 39//39 52//52 43//43
f 39//39 29//29 16//16
f 43//43 29//29 39//39
f 16//16 45//45 39//39
f 39//39 45//45 52//52
f 32//32 7//7 78//78
f 78//78 79//79 32//32
f 7//7 79//79 78//78
f 10//10 12//12 9//9
f 9//9 12//12 11//11
f 81//81 10//10 9//9
f 9//9 5//5 81//81
f 74//74 75//75 86//86
f 86//86 69//69 74//74
f 73//73 75//75 74//74
f 74//74 69//69 73//73
f 64//64 62//62 86//86
f 86//86 65//65 64//64
f 66//66 62//62 64//64
f 64//64 65//65 66//66
f 55//55 30//30 34//34
f 16//16 17//17 34//34
f 34//34 30//30 16//16
f 44//44 42//42 38//38
f 44//44 53//53 42//42
f 51//51 44//44 38//38
f 53//53 44//44 51//51
f 137//137 138//138 139//139
f 139//139 138//138 136//136
f 2//2 31//31 32//32
f 2//2 32//32 1//1
f 2//2 138//138 137//137
f 137//137 31//31 2//2
f 32//32 31//31 140//140
f 140//140 31//31 137//137
f 71//71 141//141 139//139
f 70//70 141//141 71//71
f 71//71 139//139 136//136
f 136//136 59//59 71//71
f 70//70 71//71 60//60
f 60//60 71//71 59//59
f 137//137 139//139 57//57
f 57//57 141//141 58//58
f 57//57 140//140 137//137
f 139//139 141//141 57//57
f 18//18 140//140 57//57
f 57//57 17//17 18//18
f 54//54 49//49 35//35
f 35//35 13//13 54//54
f 65//65 75//75 76//76
f 76//76 67//67 65//65
f 22//22 5//5 9//9
f 9//9 11//11 22//22
f 17//17 57//57 34//34
f 57//57 55//55 34//34
f 15//15 53//53 51//51
f 51//51 38//38 15//15

