# https://github.com/mikedh/trimesh
v 9.23587132 11.09691238 -11.00000000
v 9.27709690 13.70324091 -11.00111310
v 9.30000019 11.50000000 -11.00000000
v 9.44888878 11.11177158 -10.80000019
v 9.50000000 11.50000000 -10.80000019
v -9.25390686 13.72253071 -11.00097219
v -9.30000019 11.50000000 -11.00000000
v -9.23587132 11.09691238 -11.00000000
v -9.50000000 11.50000000 -10.80000019
v -9.44888878 11.11177158 -10.80000019
v 6.13313334 2.75478660 -11.49975499
v -6.10004096 1.28061415 -11.49990791
v -5.98827267 4.36202288 -11.50000000
v -5.80452728 5.20585775 -11.50000000
v -5.11031424 6.83807586 -11.49995763
v -2.82224780 8.95364367 -11.49990656
v -0.00000681 9.56870198 -11.50060141
v 2.44197122 9.08675510 -11.49996406
v 3.96214843 8.07207203 -11.50000000
v 5.47061770 6.28790338 -11.49989530
v -0.88946735 -6.18638430 11.30000013
v -0.88946772 -6.18638420 -11.30000019
v -0.00000000 -6.25000000 -11.30000019
v 0.43332874 -6.05414137 -11.50013434
v 0.88946772 -6.18638420 -11.30000019
v -1.76082707 -5.99683152 11.30000000
v -1.76082850 -5.99683094 -11.30000019
v -2.59634376 -5.68519974 -11.30000019
v -1.36489038 -5.90826289 -11.50011095
v -3.37900519 -5.25783443 -11.30000019
v -4.09287977 -4.72343493 -11.30000019
v -2.97423567 -5.28432411 -11.50011244
v -4.72343493 -4.09287977 -11.30000019
v -3.96214843 -4.57207203 -11.50000000
v -5.25783443 -3.37900519 -11.30000019
v -5.08905602 -3.27169299 -11.50000000
v -4.57204628 -3.96217799 -11.50000000
v -5.68519974 -2.59634376 -11.30000019
v -5.50269604 -2.51452065 -11.50000000
v -5.99683094 -1.76082850 -11.30000019
v -5.80452061 -1.70588017 -11.50000000
v -5.98827124 -0.86203581 -11.50000000
v 0.88947553 -6.18638373 11.29999973
v 1.76082850 -5.99683094 -11.30000019
v 2.59634376 -5.68519974 -11.30000019
v 2.59635957 -5.68519384 11.29999938
v 3.37900519 -5.25783443 -11.30000019
v 3.37901820 -5.25782728 11.29999952
v 4.09287977 -4.72343493 -11.30000019
v 4.72343493 -4.09287977 -11.30000019
v 5.25783443 -3.37900519 -11.30000019
v 5.68519974 -2.59634376 -11.30000019
v 5.68520241 -2.59633933 11.29999947
v 5.99683094 -1.76082850 -11.30000019
v 5.98827267 -0.86202282 -11.50000000
v 5.80452728 -1.70585752 -11.50000000
v 5.50270891 -2.51449203 -11.50000000
v 5.08907604 -3.27166224 -11.50000000
v 4.57207203 -3.96214843 -11.50000000
v 3.27169299 -5.08905602 -11.50000000
v 3.96217799 -4.57204628 -11.50000000
v 2.19208198 -5.65376818 -11.50011191
v 11.00000000 16.90308762 -9.23587132
v 11.00095500 14.28682823 -9.26568946
v 10.80000019 16.88822937 -9.44888878
v 10.99491016 16.59012040 -9.30721020
v 11.00000000 14.19999981 9.00000000
v 11.00142207 14.35160818 9.27304048
v 11.00000000 16.50000000 9.30000019
v 11.00000000 16.90308762 9.23587132
v 10.80000019 16.50000000 9.50000000
v 10.80000019 16.88822937 9.44888878
v 11.49975499 25.24521305 -6.13313338
v 11.49970601 25.24425423 6.13344852
v 11.49986620 21.59242389 5.42870614
v 11.49996849 19.35546327 3.26521631
v 11.50000000 18.69548035 1.70588017
v 11.50139442 18.43953266 -1.18007184
v 11.50000000 19.92792702 -3.96214843
v 11.49989530 21.71209976 -5.47061863
v -11.29999703 34.18638630 0.88946060
v 11.30000019 34.18638229 0.88946772
v 11.30000019 34.25000000 0.00000000
v 11.50013430 34.05414043 -0.43332369
v 11.30000019 34.18638229 -0.88946772
v -11.29999739 33.99683351 1.76082606
v 11.30000019 33.99682999 1.76082850
v 11.50000000 33.98827362 0.86202282
v 11.30000019 33.68519974 2.59634376
v 11.50000000 33.80452728 1.70585752
v 11.30000019 33.25783539 3.37900519
v 11.50000000 33.50270844 2.51449203
v 11.30000019 32.72343445 4.09287977
v 11.50000000 33.08907700 3.27166224
v 11.30000019 32.09288025 4.72343493
v 11.50000000 32.57207108 3.96214843
v 11.30000019 31.37900543 5.25783443
v 11.50000000 31.96217728 4.57204628
v -5.83026725 30.13209280 5.87241624
v 11.30000019 30.59634399 5.68519974
v 11.50011244 30.97425613 5.28431281
v 11.30000019 29.76082802 5.99683094
v 11.50000000 29.70587921 5.80452061
v 11.50000000 28.86203575 5.98827124
v -11.29999551 34.18638495 -0.88948461
v 11.30000019 33.99682999 -1.76082850
v 11.30000019 33.68519974 -2.59634376
v 11.30000019 33.25783539 -3.37900519
v -11.29999968 33.25783027 -3.37901457
v 11.30000019 32.72343445 -4.09287977
v -11.29999891 32.72342433 -4.09289340
v 11.30000019 32.09288025 -4.72343493
v -11.29999910 32.09287131 -4.72344371
v 11.30000019 31.37900543 -5.25783443
v -11.29999830 31.37898688 -5.25784794
v 11.30000019 30.59634399 -5.68519974
v -11.29999947 30.59633957 -5.68520241
v 11.30000019 29.76082802 -5.99683094
v 11.50000000 28.86202240 -5.98827267
v 11.50000000 29.70585823 -5.80452728
v 11.50000000 30.51449203 -5.50270891
v 11.50009560 31.63158213 -4.85006039
v 11.50011264 32.80748114 -3.69569876
v 11.50011192 33.65376600 -2.19208750
v -5.83145303 -2.24971873 4.96793722
v -5.63021421 -2.71351671 8.39999962
v -5.16430807 -3.52028441 8.39999962
v 5.15936661 -3.52752209 8.39999962
v 5.62699366 -2.72018886 8.39999962
v 5.87306307 -2.14284247 7.59496313
v -5.99683094 -1.76082850 11.30000019
v -5.68519974 -2.59634376 11.30000019
v -5.25783912 -3.37899874 11.29999955
v -4.58174181 -4.25089550 8.39999962
v -4.72343925 -4.09287544 11.29999976
v 4.57617950 -4.25688267 8.39999962
v -3.89651728 -4.88667774 8.39999962
v -4.09288104 -4.72343398 11.30000011
v 3.89126039 -4.89086437 8.39999962
v -3.12517190 -5.41255569 8.39999962
v -3.37900731 -5.25783327 11.30000008
v 3.11988997 -5.41560173 8.39999962
v -2.28486443 -5.81737471 8.39999962
v -2.59634378 -5.68520048 11.29999949
v 2.27898860 -5.81967926 8.39999962
v -1.39333975 -6.09270525 8.39999962
v 1.38698256 -6.09415531 8.39999962
v -0.47016123 -6.23228645 8.39999962
v 0.46367472 -6.23277235 8.39999962
v 0.00000558 -6.25000045 11.29999973
v 1.76084201 -5.99682806 11.29999947
v 4.09289067 -4.72342686 11.29999915
v 4.72344598 -4.09286849 11.29999885
v 5.25784719 -3.37898767 11.29999842
v 5.99683094 -1.76082850 11.30000019
v -6.05000019 0.00000000 11.50000000
v -5.98827267 -0.86202282 11.50000000
v -5.80452728 -1.70585752 11.50000000
v -5.28432411 -2.97423567 11.50011244
v -4.28436700 -4.28433420 11.50009655
v -2.97425912 -5.28431130 11.50011244
v -1.36490098 -5.90826114 11.50011093
v -0.00000000 -6.05000019 11.50000000
v 1.36489038 -5.90826289 11.50011095
v 2.97423567 -5.28432411 11.50011244
v 3.96214843 -4.57207203 11.50000000
v 4.57204628 -3.96217799 11.50000000
v 5.28431130 -2.97425912 11.50011244
v 5.80452061 -1.70588017 11.50000000
v 5.98827124 -0.86203581 11.50000000
v 6.05000019 0.00000001 11.50000000
v -9.50000000 11.50000000 10.80000019
v -9.44888878 11.11177158 10.80000019
v 9.44888878 11.11177158 10.80000019
v 9.50000000 11.50000000 10.80000019
v 9.26571426 13.71176784 11.00124500
v 9.30000019 11.50000000 11.00000000
v -9.23587132 11.09691238 11.00000000
v -9.26572595 13.71171588 11.00124614
v -9.30000019 11.50000000 11.00000000
v 9.23587132 11.09691238 11.00000000
v 5.94136316 5.11275360 11.49977966
v 4.57207203 7.46214819 11.50000000
v 3.26521489 8.64453792 11.49996849
v 0.00003360 9.61809096 11.50229416
v -2.51449203 9.00270939 11.50000000
v -3.27166224 8.58907604 11.50000000
v -3.96214843 8.07207203 11.50000000
v -5.15799665 6.74403724 11.49996571
v -6.01064567 4.42268665 11.49996162
v -8.39999962 30.71351624 5.63021421
v -8.39999962 31.52028465 5.16430807
v -8.39999962 31.52752113 -5.15936661
v -8.39999962 30.72018814 -5.62699366
v -7.59498267 30.14284696 -5.87306152
v -11.30000019 29.76082802 5.99683094
v -11.30000019 30.59634399 5.68519974
v -11.30000003 31.37900405 5.25783547
v -8.39999962 32.25089645 4.58174181
v -11.29999937 32.09287535 4.72344025
v -8.39999962 32.25688171 -4.57617950
v -8.39999962 32.88667679 3.89651728
v -11.29999895 32.72343137 4.09288543
v -8.39999962 32.89086533 -3.89126039
v -8.39999962 33.41255569 3.12517190
v -11.30000019 33.25783539 3.37900519
v -8.39999962 33.41560364 -3.11988997
v -8.39999962 33.81737518 2.28486443
v -11.30000019 33.68519974 2.59634376
v -8.39999962 33.81967926 -2.27898860
v -8.39999962 34.09270477 1.39333975
v -8.39999962 34.09415436 -1.38698256
v -8.39999962 34.23228836 0.47016123
v -8.39999962 34.23277283 -0.46367472
v -11.29999973 34.25000045 -0.00000558
v -11.29999947 33.99682711 -1.76084201
v -11.29999792 33.68519290 -2.59636542
v -11.30000019 29.76082802 -5.99683094
v -11.50000000 28.00000000 6.05000019
v -11.49971480 22.97625047 5.97576204
v -11.50000000 28.86202240 5.98827267
v -11.50000000 29.70585823 5.80452728
v -11.50011244 30.97423424 5.28432472
v -11.50000000 31.96214867 4.57207203
v -11.50011264 32.80748114 3.69569876
v -11.50011192 33.65376600 2.19208750
v -11.50013430 34.05414043 0.43332369
v -11.50011095 33.90826618 -1.36487973
v -11.50011245 33.28431905 -2.97424525
v -11.50009655 32.28436222 -4.28433785
v -11.50011244 30.97425613 -5.28431281
v -11.50000000 29.70587921 -5.80452061
v -11.50000000 28.86203575 -5.98827124
v -10.80000019 16.50000000 9.50000000
v -10.80000019 16.88822937 9.44888878
v -10.80000019 16.88822937 -9.44888878
v -10.80000019 16.50000000 -9.50000000
v -10.99959719 14.23849023 -9.20300395
v -11.00000000 14.50000000 -9.30000019
v -11.00000000 16.50000000 -9.30000019
v -11.00000000 16.90308762 9.23587132
v -11.00097219 14.27746594 9.25390468
v -11.00000000 16.50000000 9.30000019
v -11.00000000 16.90308762 -9.23587132
v -11.49975499 25.24524869 -6.13313381
v -11.50000000 22.79414177 -5.80452728
v -11.49995763 21.16192246 -5.11031307
v -11.49996849 19.35546327 -3.26521631
v -11.50023752 18.46189779 -0.77664510
v -11.49989412 18.71494950 2.01370009
v -11.50000000 19.92792702 3.96214843
v -11.50000000 20.53782272 4.57204628
vn 0.53253724 -0.09861662 -0.84064193
vn 0.35558939 0.11928792 -0.92699869
vn 0.46609239 -0.02688476 -0.88432748
vn 0.78947518 -0.16616931 -0.59086098
vn 0.74743884 -0.06269604 -0.66136554
vn -0.34032329 0.12389551 -0.93211049
vn -0.46219969 -0.02704028 -0.88636351
vn -0.53253731 -0.09861666 -0.84064188
vn -0.74822340 -0.06595039 -0.66016081
vn -0.79250498 -0.16733428 -0.58645980
vn 0.08770299 -0.00178028 -0.99614508
vn -0.09272656 -0.00416606 -0.99568290
vn -0.06880112 0.00397927 -0.99762246
vn -0.04671654 0.01201556 -0.99883592
vn -0.03394479 0.02059400 -0.99921151
vn -0.01602863 0.03955133 -0.99908897
vn -0.00009889 0.06008176 -0.99819345
vn 0.01309281 0.04129548 -0.99906119
vn 0.02327429 0.02620279 -0.99938567
vn 0.04705468 0.01488170 -0.99878145
vn -0.12212047 -0.91048115 0.39510842
vn -0.11630812 -0.90718547 -0.40433518
vn -0.01589740 -0.91955560 -0.39263821
vn 0.03065388 -0.42835930 -0.90308840
vn 0.14660266 -0.90797326 -0.39254582
vn -0.27331243 -0.87928450 0.39007573
vn -0.27350978 -0.88003122 -0.38824923
vn -0.36819438 -0.83798631 -0.40275532
vn -0.09350070 -0.41081648 -0.90691093
vn -0.51037144 -0.76733556 -0.38822304
vn -0.60399727 -0.70124463 -0.37873904
vn -0.20487761 -0.36811978 -0.90692502
vn -0.70002572 -0.60654858 -0.37691222
vn -0.25869018 -0.30410411 -0.91684245
vn -0.77925201 -0.50074151 -0.37686105
vn -0.33417965 -0.21489428 -0.91768427
vn -0.30024220 -0.26022348 -0.91768097
vn -0.84250308 -0.38481858 -0.37696580
vn -0.36134236 -0.16518284 -0.91768531
vn -0.87692305 -0.28293302 -0.38852911
vn -0.37963550 -0.11370002 -0.91812265
vn -0.32215806 -0.06904172 -0.94416494
vn 0.12211802 -0.91047911 0.39511388
vn 0.24425075 -0.88139348 -0.40433538
vn 0.39597002 -0.83216381 -0.38821532
vn 0.36793191 -0.83725848 0.40450506
vn 0.49801625 -0.78007153 -0.37877200
vn 0.51003906 -0.76671756 0.38987735
vn 0.60655806 -0.69999433 -0.37695524
vn 0.70002215 -0.60654767 -0.37692030
vn 0.77924829 -0.50074047 -0.37687011
vn 0.84250969 -0.38480981 -0.37695999
vn 0.83930647 -0.37410434 0.39447507
vn 0.87695377 -0.28285559 -0.38851616
vn 0.32226444 -0.06896269 -0.94413441
vn 0.37963430 -0.11370071 -0.91812306
vn 0.36134388 -0.16518000 -0.91768522
vn 0.33418249 -0.21489142 -0.91768390
vn 0.30024555 -0.26022023 -0.91768079
vn 0.21275550 -0.33769647 -0.91689487
vn 0.26022348 -0.30024220 -0.91768097
vn 0.15024437 -0.39359505 -0.90692313
vn 0.79144944 0.12668429 -0.59796228
vn 0.92819019 -0.12063674 -0.35200816
vn 0.58766199 0.16365910 -0.79238191
vn 0.86984067 0.03853897 -0.49182514
vn 0.97846649 -0.19876878 0.05562644
vn 0.92159014 -0.09062041 0.37743815
vn 0.88489579 0.02808910 0.46494133
vn 0.84064201 0.09861659 0.53253712
vn 0.66065248 0.06557328 0.74782247
vn 0.59085114 0.16617427 0.78948150
vn 0.99609722 0.00180404 -0.08824444
vn 0.99612384 0.00170996 0.08794528
vn 0.99879546 -0.01604407 0.04637053
vn 0.99928561 -0.03203880 0.02004477
vn 0.99879944 -0.04832847 0.00800232
vn 0.99823241 -0.05926818 -0.00439740
vn 0.99934666 -0.02819127 -0.02261671
vn 0.99877661 -0.01489456 -0.04715335
vn -0.39441964 0.90717897 0.14649048
vn 0.37908860 0.91639669 0.12848714
vn 0.39263929 0.91955514 0.01589769
vn 0.90307064 0.42833982 -0.03143910
vn 0.39254595 0.90797316 -0.14660292
vn -0.40614753 0.88060944 0.24407209
vn 0.37700640 0.88870630 0.26089708
vn 0.91674918 0.39596350 0.05276219
vn 0.37698963 0.84253281 0.38473015
vn 0.91768318 0.38117760 0.11207679
vn 0.37697095 0.77919905 0.50074119
vn 0.91768551 0.36134331 0.16517964
vn 0.37695011 0.69999449 0.60656107
vn 0.91768378 0.33418273 0.21489156
vn 0.37870287 0.60398458 0.70127509
vn 0.91768106 0.30024485 0.26022009
vn 0.38811113 0.51037455 0.76739010
vn 0.91689130 0.25859784 0.30403538
vn 0.00019088 0.33652436 0.94167474
vn 0.39310675 0.37410336 0.83994866
vn 0.90704540 0.20583325 0.36728913
vn 0.38842525 0.28285678 0.87699365
vn 0.91801630 0.11493113 0.37952194
vn 0.94412162 0.06898726 0.32229663
vn -0.40620164 0.90636237 -0.11622167
vn 0.40433563 0.88139362 -0.24424986
vn 0.38821429 0.83216463 -0.39596931
vn 0.40270058 0.77707635 -0.48371954
vn -0.38987675 0.76671751 -0.51003959
vn 0.38825318 0.68687649 -0.61437786
vn -0.40050501 0.70094491 -0.59014572
vn 0.39892089 0.61035700 -0.68434382
vn -0.40029552 0.59004450 -0.70114976
vn 0.39056555 0.49040219 -0.77907910
vn -0.38923097 0.51001888 -0.76705931
vn 0.37696003 0.38480978 -0.84250969
vn -0.39447511 0.37410417 -0.83930653
vn 0.38849102 0.28282396 -0.87697510
vn 0.94413442 0.06895412 -0.32226622
vn 0.91812290 0.11370086 -0.37963464
vn 0.91767172 0.16618292 -0.36091807
vn 0.90969517 0.25001021 -0.33158649
vn 0.90693457 0.33475142 -0.25575609
vn 0.90692092 0.39330425 -0.15101725
vn -0.93732741 -0.34844987 -0.00006918
vn -0.89463096 -0.44680569 -0.00034071
vn -0.81360683 -0.58141543 0.00015906
vn 0.81319824 -0.58198677 0.00016532
vn 0.88926574 -0.45739089 0.00013391
vn 0.93995065 -0.34131032 -0.00020933
vn -0.87710945 -0.28240243 0.38849437
vn -0.83964550 -0.37385566 0.39398907
vn -0.76707440 -0.51003275 0.38918306
vn -0.72020878 -0.69375736 0.00018795
vn -0.70117002 -0.59005525 0.40024418
vn 0.71975539 -0.69422773 0.00019288
vn -0.61142144 -0.79130511 0.00021226
vn -0.59015826 -0.70095231 0.40047357
vn 0.61099580 -0.79163381 0.00021555
vn -0.48966400 -0.87191118 0.00023123
vn -0.51004707 -0.76672738 0.38984754
vn 0.48923898 -0.87214974 0.00023355
vn -0.35752642 -0.93390299 0.00024532
vn -0.36793577 -0.83726416 0.40448980
vn 0.35705643 -0.93408278 0.00024705
vn -0.21774804 -0.97600498 0.00025500
vn 0.21723963 -0.97611827 0.00025607
vn -0.07328061 -0.99731133 0.00026011
vn 0.07276223 -0.99734928 0.00026045
vn -0.00000070 -0.92541738 0.37894944
vn 0.27331012 -0.87927813 0.39009173
vn 0.60365359 -0.70071962 0.38025564
vn 0.70092401 -0.60355184 0.38004041
vn 0.76705945 -0.51001897 0.38923059
vn 0.87675351 -0.28232877 0.38935041
vn -0.10148606 -0.00671748 0.99481428
vn -0.32224642 -0.06919137 0.94412383
vn -0.37936740 -0.11487083 0.91808772
vn -0.36708082 -0.20655993 0.90696454
vn -0.29373301 -0.29372836 0.90963980
vn -0.20553321 -0.36774180 0.90693002
vn -0.09484691 -0.41041387 0.90695343
vn -0.00000413 -0.39740619 0.91764280
vn 0.09485143 -0.41041918 0.90695055
vn 0.20489356 -0.36812096 0.90692094
vn 0.25862453 -0.30404027 0.91688214
vn 0.30403168 -0.25861433 0.91688787
vn 0.36744653 -0.20591814 0.90696238
vn 0.37934547 -0.11486866 0.91809706
vn 0.32226239 -0.06919602 0.94411803
vn 0.10148991 -0.00664088 0.99481440
vn -0.74789377 -0.06281432 0.66083983
vn -0.79005403 -0.16627330 0.59005747
vn 0.79134192 -0.16689737 0.58815240
vn 0.74721011 -0.06276180 0.66161772
vn 0.34622210 0.12126996 0.93028160
vn 0.46358407 -0.02558856 0.88568337
vn -0.53253724 -0.09861662 0.84064193
vn -0.34626362 0.12135531 0.93025502
vn -0.46358533 -0.02559013 0.88568267
vn 0.53253731 -0.09861666 0.84064188
vn 0.07023785 0.00630863 0.99751032
vn 0.02883775 0.02203290 0.99934125
vn 0.01739700 0.03538043 0.99922248
vn 0.00034679 0.05959804 0.99822240
vn -0.01295672 0.03850301 0.99917448
vn -0.01830728 0.02938481 0.99940051
vn -0.02300024 0.02521276 0.99941748
vn -0.03646966 0.01854558 0.99916266
vn -0.07407134 0.00361226 0.99724640
vn -0.00012789 0.45686425 0.88953642
vn -0.00015905 0.58141461 0.81360741
vn -0.00016531 0.58198809 -0.81319729
vn -0.00013389 0.45739185 -0.88926525
vn 0.00009247 0.34086290 -0.94011301
vn -0.38854675 0.28243290 0.87707644
vn -0.39397028 0.37384214 0.83966033
vn -0.38918455 0.51003276 0.76707365
vn -0.00018791 0.69375721 0.72020893
vn -0.38177882 0.60516157 0.69858744
vn -0.00019285 0.69422874 -0.71975442
vn -0.00021222 0.79130615 0.61142010
vn -0.38972180 0.68635682 0.61402869
vn -0.00021558 0.79163289 -0.61099700
vn -0.00023124 0.87191202 0.48966251
vn -0.40431381 0.77643516 0.48340334
vn -0.00023352 0.87214901 -0.48924028
vn -0.00024529 0.93390219 0.35752853
vn -0.38995672 0.83147824 0.39569899
vn -0.00024702 0.93408372 -0.35705398
vn -0.00025487 0.97600532 0.21774655
vn -0.00025594 0.97611759 -0.21724270
vn -0.00026006 0.99731139 0.07327983
vn -0.00026036 0.99734942 -0.07276032
vn -0.39453738 0.91874265 -0.01588099
vn -0.39009196 0.87927782 -0.27331077
vn -0.40450515 0.83725857 -0.36793162
vn -0.38912486 0.28205623 -0.87694135
vn -0.99481424 0.00667710 0.10148913
vn -0.99736515 -0.00586809 0.07230721
vn -0.94412428 0.06919100 0.32224517
vn -0.91807948 0.11487618 0.37938573
vn -0.90697627 0.20591143 0.36741601
vn -0.91608406 0.26260783 0.30302990
vn -0.90692097 0.33523013 0.25517663
vn -0.90691856 0.39330801 0.15102166
vn -0.90308463 0.42836740 0.03065150
vn -0.90690853 0.41082237 -0.09349815
vn -0.90693081 0.36774036 -0.20553232
vn -0.90964048 0.29372997 -0.29372931
vn -0.90696513 0.20655413 -0.36708260
vn -0.91810001 0.11486843 -0.37933840
vn -0.94412477 0.06897619 -0.32228978
vn -0.66065296 0.06557328 0.74782204
vn -0.59084981 0.16617468 0.78948241
vn -0.59005762 0.16627330 -0.79005391
vn -0.65948894 0.06581531 -0.74882754
vn -0.95884406 -0.18254877 -0.21747186
vn -0.90747121 -0.03887404 -0.41831186
vn -0.88409541 0.02922811 -0.46639150
vn -0.84064206 0.09861655 0.53253704
vn -0.93207477 -0.12385284 0.34043663
vn -0.88693168 0.02704140 0.46110840
vn -0.84064201 0.09861659 -0.53253712
vn -0.99614271 0.00215586 -0.08772148
vn -0.99849454 -0.00980555 -0.05396770
vn -0.99920371 -0.02028009 -0.03436094
vn -0.99925723 -0.03362412 -0.01882548
vn -0.99824096 -0.05923649 -0.00245261
vn -0.99876661 -0.04868795 0.00973324
vn -0.99940260 -0.02722229 0.02129316
vn -0.99934532 -0.02121905 0.02930314
f 179//179 99//99 196//196
f 102//102 99//99 176//176
f 176//176 99//99 179//179
f 195//195 118//118 2//2
f 218//218 6//6 236//236
f 218//218 195//195 6//6
f 6//6 195//195 2//2
f 196//196 235//235 179//179
f 100//100 99//99 102//102
f 120//120 118//118 116//116
f 116//116 121//121 120//120
f 208//208 209//209 89//89
f 215//215 227//227 81//81
f 222//222 235//235 196//196
f 242//242 238//238 125//125
f 40//40 125//125 238//238
f 97//97 100//100 101//101
f 191//191 100//100 97//97
f 23//23 149//149 150//150
f 26//26 21//21 162//162
f 151//151 44//44 145//145
f 150//150 21//21 148//148
f 150//150 148//148 23//23
f 129//129 52//52 53//53
f 52//52 129//129 51//51
f 144//144 141//141 140//140
f 26//26 162//162 144//144
f 161//161 144//144 162//162
f 141//141 144//144 161//161
f 160//160 135//135 138//138
f 53//53 169//169 168//168
f 176//176 185//185 184//184
f 185//185 176//176 179//179
f 86//86 209//209 208//208
f 86//86 211//211 81//81
f 81//81 227//227 86//86
f 205//205 89//89 209//209
f 114//114 121//121 116//116
f 229//229 109//109 111//111
f 52//52 130//130 53//53
f 1//1 3//3 4//4
f 4//4 3//3 5//5
f 227//227 215//215 105//105
f 105//105 215//215 214//214
f 217//217 228//228 216//216
f 216//216 210//210 217//217
f 243//243 234//234 235//235
f 230//230 111//111 113//113
f 6//6 237//237 236//236
f 23//23 24//24 25//25
f 25//25 149//149 23//23
f 23//23 148//148 22//22
f 22//22 24//24 23//23
f 28//28 29//29 27//27
f 17//17 6//6 2//2
f 158//158 178//178 173//173
f 158//158 157//157 178//178
f 132//132 159//159 158//158
f 135//135 159//159 133//133
f 133//133 159//159 132//132
f 160//160 159//159 135//135
f 190//190 189//189 179//179
f 180//180 157//157 156//156
f 178//178 157//157 180//180
f 173//173 178//178 180//180
f 103//103 100//100 102//102
f 103//103 101//101 100//100
f 102//102 72//72 103//103
f 100//100 191//191 197//197
f 197//197 196//196 99//99
f 197//197 191//191 198//198
f 198//198 223//223 197//197
f 197//197 223//223 222//222
f 197//197 222//222 196//196
f 198//198 191//191 97//97
f 206//206 209//209 226//226
f 206//206 205//205 209//209
f 206//206 203//203 202//202
f 170//170 177//177 171//171
f 53//53 130//130 155//155
f 155//155 169//169 53//53
f 43//43 150//150 149//149
f 149//149 25//25 43//43
f 151//151 164//164 43//43
f 44//44 151//151 147//147
f 147//147 25//25 44//44
f 43//43 25//25 147//147
f 151//151 43//43 147//147
f 154//154 153//153 128//128
f 154//154 129//129 53//53
f 168//168 153//153 154//154
f 128//128 51//51 154//154
f 53//53 168//168 154//154
f 50//50 51//51 128//128
f 136//136 50//50 153//153
f 152//152 49//49 136//136
f 49//49 50//50 136//136
f 160//160 138//138 161//161
f 161//161 138//138 141//141
f 116//116 118//118 195//195
f 218//218 117//117 195//195
f 65//65 2//2 118//118
f 118//118 120//120 65//65
f 120//120 63//63 65//65
f 226//226 86//86 227//227
f 209//209 86//86 226//226
f 208//208 89//89 87//87
f 87//87 82//82 211//211
f 211//211 82//82 81//81
f 107//107 210//210 106//106
f 106//106 124//124 107//107
f 83//83 85//85 214//214
f 83//83 82//82 84//84
f 84//84 85//85 83//83
f 194//194 117//117 115//115
f 116//116 117//117 194//194
f 194//194 114//114 116//116
f 193//193 114//114 115//115
f 193//193 115//115 113//113
f 112//112 114//114 193//193
f 123//123 110//110 108//108
f 201//201 112//112 113//113
f 113//113 111//111 201//201
f 201//201 110//110 112//112
f 124//124 108//108 107//107
f 123//123 108//108 124//124
f 84//84 106//106 85//85
f 124//124 106//106 84//84
f 122//122 114//114 112//112
f 121//121 114//114 122//122
f 112//112 110//110 123//123
f 123//123 122//122 112//112
f 54//54 130//130 52//52
f 64//64 130//130 54//54
f 4//4 64//64 54//54
f 4//4 5//5 64//64
f 80//80 79//79 64//64
f 227//227 105//105 228//228
f 228//228 105//105 216//216
f 214//214 85//85 105//105
f 228//228 217//217 229//229
f 229//229 217//217 109//109
f 219//219 243//243 221//221
f 235//235 222//222 241//241
f 241//241 243//243 235//235
f 222//222 221//221 241//241
f 241//241 221//221 243//243
f 236//236 237//237 240//240
f 240//240 244//244 236//236
f 240//240 245//245 233//233
f 233//233 244//244 240//240
f 115//115 117//117 231//231
f 229//229 111//111 230//230
f 10//10 40//40 238//238
f 13//13 6//6 14//14
f 44//44 25//25 24//24
f 3//3 1//1 55//55
f 21//21 22//22 148//148
f 146//146 21//21 26//26
f 27//27 22//22 146//146
f 146//146 22//22 21//21
f 29//29 22//22 27//27
f 24//24 22//22 29//29
f 29//29 28//28 32//32
f 140//140 141//141 30//30
f 30//30 28//28 140//140
f 30//30 32//32 28//28
f 143//143 27//27 26//26
f 26//26 144//144 143//143
f 143//143 28//28 27//27
f 2//2 18//18 17//17
f 2//2 20//20 19//19
f 131//131 158//158 173//173
f 132//132 158//158 131//131
f 173//173 242//242 131//131
f 242//242 125//125 131//131
f 131//131 125//125 132//132
f 126//126 133//133 132//132
f 126//126 132//132 125//125
f 126//126 35//35 133//133
f 235//235 234//234 179//179
f 172//172 242//242 173//173
f 173//173 180//180 172//172
f 72//72 71//71 69//69
f 100//100 197//197 99//99
f 199//199 203//203 200//200
f 223//223 198//198 200//200
f 203//203 225//225 200//200
f 225//225 206//206 226//226
f 203//203 206//206 225//225
f 64//64 78//78 67//67
f 67//67 130//130 64//64
f 67//67 155//155 130//130
f 169//169 155//155 174//174
f 174//174 155//155 68//68
f 176//176 71//71 72//72
f 163//163 162//162 21//21
f 21//21 150//150 163//163
f 150//150 43//43 163//163
f 163//163 43//43 164//164
f 154//154 51//51 129//129
f 167//167 153//153 168//168
f 51//51 50//50 58//58
f 153//153 50//50 128//128
f 176//176 184//184 183//183
f 116//116 195//195 117//117
f 119//119 63//63 120//120
f 90//90 87//87 89//89
f 208//208 87//87 86//86
f 86//86 87//87 211//211
f 216//216 106//106 210//210
f 215//215 83//83 214//214
f 213//213 81//81 82//82
f 82//82 83//83 213//213
f 213//213 83//83 215//215
f 213//213 215//215 81//81
f 114//114 194//194 115//115
f 112//112 193//193 113//113
f 109//109 217//217 207//207
f 207//207 108//108 109//109
f 107//107 108//108 207//207
f 204//204 110//110 111//111
f 204//204 111//111 109//109
f 204//204 108//108 110//110
f 110//110 201//201 111//111
f 79//79 78//78 64//64
f 80//80 64//64 73//73
f 212//212 106//106 216//216
f 216//216 105//105 212//212
f 85//85 106//106 212//212
f 212//212 105//105 85//85
f 113//113 115//115 231//231
f 231//231 230//230 113//113
f 232//232 244//244 233//233
f 232//232 117//117 218//218
f 232//232 231//231 117//117
f 218//218 236//236 232//232
f 236//236 244//244 232//232
f 249//249 238//238 242//242
f 15//15 14//14 6//6
f 16//16 15//15 6//6
f 62//62 47//47 45//45
f 145//145 44//44 45//45
f 44//44 24//24 62//62
f 62//62 45//45 44//44
f 125//125 40//40 38//38
f 38//38 126//126 125//125
f 35//35 126//126 38//38
f 135//135 133//133 127//127
f 133//133 35//35 127//127
f 27//27 146//146 26//26
f 141//141 138//138 137//137
f 32//32 30//30 31//31
f 31//31 137//137 138//138
f 30//30 137//137 31//31
f 28//28 143//143 144//144
f 140//140 28//28 144//144
f 17//17 16//16 6//6
f 93//93 203//203 199//199
f 202//202 203//203 93//93
f 70//70 103//103 72//72
f 72//72 69//69 70//70
f 192//192 200//200 198//198
f 192//192 198//198 97//97
f 223//223 200//200 224//224
f 224//224 200//200 225//225
f 77//77 67//67 78//78
f 169//169 174//174 181//181
f 181//181 174//174 177//177
f 181//181 170//170 169//169
f 177//177 170//170 181//181
f 175//175 174//174 68//68
f 177//177 174//174 175//175
f 176//176 72//72 102//102
f 176//176 183//183 182//182
f 46//46 151//151 145//145
f 46//46 48//48 165//165
f 145//145 45//45 46//46
f 165//165 164//164 46//46
f 46//46 164//164 151//151
f 152//152 167//167 166//166
f 153//153 167//167 152//152
f 152//152 136//136 153//153
f 166//166 165//165 152//152
f 152//152 165//165 48//48
f 61//61 50//50 49//49
f 52//52 51//51 57//57
f 51//51 58//58 57//57
f 188//188 187//187 179//179
f 188//188 179//179 189//189
f 186//186 185//185 179//179
f 179//179 187//187 186//186
f 66//66 119//119 73//73
f 63//63 119//119 66//66
f 66//66 65//65 63//63
f 84//84 82//82 88//88
f 82//82 87//87 88//88
f 87//87 90//90 88//88
f 92//92 90//90 89//89
f 107//107 207//207 217//217
f 217//217 210//210 107//107
f 108//108 204//204 109//109
f 239//239 246//246 245//245
f 238//238 246//246 239//239
f 239//239 10//10 238//238
f 239//239 9//9 10//10
f 12//12 6//6 13//13
f 7//7 12//12 42//42
f 42//42 8//8 7//7
f 7//7 8//8 10//10
f 10//10 9//9 7//7
f 247//247 246//246 238//238
f 248//248 247//247 238//238
f 250//250 249//249 242//242
f 238//238 249//249 248//248
f 3//3 55//55 11//11
f 35//35 38//38 39//39
f 141//141 137//137 30//30
f 32//32 31//31 34//34
f 34//34 31//31 37//37
f 37//37 31//31 33//33
f 33//33 127//127 35//35
f 2//2 19//19 18//18
f 242//242 251//251 250//250
f 252//252 251//251 242//242
f 242//242 220//220 252//252
f 98//98 93//93 95//95
f 95//95 101//101 98//98
f 97//97 101//101 95//95
f 95//95 192//192 97//97
f 200//200 192//192 95//95
f 199//199 200//200 95//95
f 95//95 93//93 199//199
f 94//94 93//93 96//96
f 96//96 93//93 98//98
f 91//91 93//93 94//94
f 94//94 92//92 91//91
f 91//91 92//92 89//89
f 89//89 205//205 91//91
f 202//202 93//93 91//91
f 205//205 206//206 91//91
f 91//91 206//206 202//202
f 75//75 74//74 68//68
f 69//69 74//74 104//104
f 103//103 70//70 104//104
f 104//104 70//70 69//69
f 68//68 76//76 75//75
f 155//155 67//67 68//68
f 68//68 77//77 76//76
f 67//67 77//77 68//68
f 48//48 46//46 142//142
f 47//47 48//48 142//142
f 46//46 45//45 142//142
f 142//142 45//45 47//47
f 49//49 152//152 139//139
f 139//139 47//47 49//49
f 48//48 47//47 139//139
f 139//139 152//152 48//48
f 49//49 47//47 60//60
f 60//60 61//61 49//49
f 60//60 47//47 62//62
f 59//59 58//58 50//50
f 50//50 61//61 59//59
f 56//56 54//54 52//52
f 52//52 57//57 56//56
f 56//56 55//55 1//1
f 56//56 1//1 4//4
f 4//4 54//54 56//56
f 35//35 39//39 36//36
f 37//37 33//33 36//36
f 36//36 33//33 35//35
f 41//41 8//8 42//42
f 41//41 38//38 40//40
f 41//41 39//39 38//38
f 40//40 10//10 41//41
f 10//10 8//8 41//41
f 127//127 33//33 135//135
f 134//134 138//138 135//135
f 134//134 33//33 31//31
f 135//135 33//33 134//134
f 65//65 66//66 2//2
f 2//2 11//11 20//20
f 138//138 134//134 31//31
f 156//156 190//190 179//179
f 179//179 180//180 156//156
f 234//234 243//243 172//172
f 172//172 243//243 242//242
f 172//172 179//179 234//234
f 180//180 179//179 172//172
f 176//176 182//182 171//171
f 171//171 177//177 176//176
f 242//242 243//243 220//220
f 220//220 243//243 219//219
f 74//74 69//69 68//68
f 68//68 69//69 175//175
f 175//175 176//176 177//177
f 175//175 69//69 71//71
f 71//71 176//176 175//175
f 171//171 182//182 186//186
f 186//186 158//158 159//159
f 186//186 190//190 156//156
f 186//186 170//170 171//171
f 156//156 157//157 186//186
f 160//160 161//161 186//186
f 186//186 161//161 162//162
f 186//186 168//168 169//169
f 186//186 184//184 185//185
f 157//157 158//158 186//186
f 159//159 160//160 186//186
f 189//189 190//190 186//186
f 169//169 170//170 186//186
f 186//186 164//164 165//165
f 162//162 163//163 186//186
f 186//186 167//167 168//168
f 182//182 183//183 186//186
f 186//186 163//163 164//164
f 166//166 167//167 186//186
f 186//186 183//183 184//184
f 186//186 188//188 189//189
f 186//186 165//165 166//166
f 187//187 188//188 186//186
f 73//73 64//64 66//66
f 245//245 240//240 239//239
f 6//6 12//12 7//7
f 7//7 240//240 237//237
f 237//237 6//6 7//7
f 9//9 239//239 7//7
f 7//7 239//239 240//240
f 227//227 228//228 252//252
f 252//252 225//225 226//226
f 229//229 230//230 252//252
f 230//230 231//231 252//252
f 222//222 223//223 252//252
f 233//233 245//245 252//252
f 219//219 221//221 252//252
f 252//252 232//232 233//233
f 252//252 226//226 227//227
f 228//228 229//229 252//252
f 252//252 221//221 222//222
f 245//245 246//246 252//252
f 252//252 220//220 219//219
f 231//231 232//232 252//252
f 223//223 224//224 252//252
f 252//252 250//250 251//251
f 252//252 224//224 225//225
f 246//246 247//247 252//252
f 247//247 248//248 252//252
f 249//249 250//250 252//252
f 252//252 248//248 249//249
f 104//104 77//77 78//78
f 104//104 120//120 121//121
f 123//123 124//124 104//104
f 104//104 119//119 120//120
f 121//121 122//122 104//104
f 101//101 103//103 104//104
f 75//75 76//76 104//104
f 124//124 84//84 104//104
f 122//122 123//123 104//104
f 104//104 78//78 79//79
f 79//79 80//80 104//104
f 104//104 92//92 94//94
f 94//94 96//96 104//104
f 73//73 119//119 104//104
f 84//84 88//88 104//104
f 80//80 73//73 104//104
f 98//98 101//101 104//104
f 76//76 77//77 104//104
f 104//104 88//88 90//90
f 90//90 92//92 104//104
f 104//104 96//96 98//98
f 74//74 75//75 104//104
f 24//24 29//29 41//41
f 55//55 56//56 41//41
f 13//13 14//14 41//41
f 41//41 17//17 18//18
f 41//41 12//12 13//13
f 41//41 11//11 55//55
f 58//58 59//59 41//41
f 29//29 32//32 41//41
f 41//41 19//19 20//20
f 41//41 18//18 19//19
f 42//42 12//12 41//41
f 14//14 15//15 41//41
f 15//15 16//16 41//41
f 41//41 62//62 24//24
f 20//20 11//11 41//41
f 16//16 17//17 41//41
f 32//32 34//34 41//41
f 41//41 60//60 62//62
f 41//41 57//57 58//58
f 37//37 36//36 41//41
f 41//41 34//34 37//37
f 61//61 60//60 41//41
f 41//41 59//59 61//61
f 41//41 56//56 57//57
f 41//41 36//36 39//39
f 2//2 64//64 5//5
f 2//2 5//5 3//3
f 2//2 66//66 64//64
f 3//3 11//11 2//2

