# https://github.com/mikedh/trimesh
v -79.53850555 -18.78920174 1543.47607422
v -79.50489807 -18.78920174 1543.00000000
v -79.50491333 -17.97206116 1544.41528320
v -79.50489807 14.47936344 1543.00000000
v -79.50491333 13.66222191 1544.41528320
v -123.40000153 -57.00000000 316.20001221
v -151.39999390 -57.00000000 316.20001221
v -249.89999390 -40.49607086 328.00000000
v -249.89999390 40.50392914 328.00000000
v -249.39997864 0.00807764 395.89999390
v -249.20608521 0.00393095 403.30523682
v -249.19561768 0.00393095 403.70523071
v -248.47120667 6.85564709 408.60034180
v -249.06742859 0.00393095 408.60034180
v -248.49816895 -6.69216251 408.60034180
v -249.89999390 -40.49607086 337.00000000
v -249.89999390 40.50392914 337.00000000
v -82.64867401 -29.32119751 1556.13854980
v -82.28783417 -29.47409439 1555.88659668
v -96.13627625 -22.23473549 1559.91552734
v -80.40000153 -0.00000000 1555.46215820
v -81.35227203 -14.68606663 1556.13854980
v -83.85658264 -29.32130051 1556.45837402
v -99.28530884 -44.27051163 1559.91552734
v -83.93111420 -29.93838692 1556.45849609
v -82.15300751 -29.55383110 1555.46215820
v -82.15363312 -29.55911827 1555.41516113
v -80.91963959 -0.00000000 1556.13854980
v -82.15300751 29.55383110 1555.46215820
v -81.35227203 14.68606663 1556.13854980
v -95.08345032 -0.00000000 1559.91552734
v -82.64867401 29.32119751 1556.13854980
v -96.13616943 22.23368263 1559.91552734
v -82.28699493 29.47449303 1555.88537598
v -82.15363312 29.55911827 1555.41516113
v -86.80502319 -45.61458969 1556.57897949
v -93.81544495 -45.58183670 1558.41723633
v -88.34563446 -46.89315033 1556.91870117
v -99.36531067 -44.54148102 1559.86059570
v -86.01190948 -43.79138565 1556.45849609
v -88.21683502 -47.23870468 1556.74450684
v -88.41572571 -47.13616943 1556.87609863
v -99.60035706 -44.21409988 1559.97888184
v -84.87382507 -36.87978745 1556.45849609
v -95.72761536 -0.00105696 1560.00000000
v -99.92449188 -44.18339920 1560.00000000
v -86.80496979 45.61247253 1556.57897949
v -99.28491211 44.26843643 1559.91552734
v -86.01157379 43.78818130 1556.45861816
v -84.82796478 36.57159805 1556.45861816
v -83.85709381 29.32130051 1556.45861816
v -93.81516266 45.57973099 1558.41723633
v -88.41556549 47.13403320 1556.87622070
v -88.34547424 46.89101410 1556.91882324
v -99.36491394 44.53940582 1559.86059570
v -99.92409515 44.18132401 1560.00000000
v -99.59884644 44.21183777 1559.97875977
v -85.64304352 43.85526276 1556.20874023
v -88.21579742 47.23999405 1556.74145508
v -85.64302063 -43.85734940 1556.20861816
v -86.42285156 -46.00216675 1555.90270996
v -85.50038147 -43.88290787 1555.78210449
v -88.21351624 -47.48686218 1556.24230957
v -87.21333313 -46.83565521 1548.00000000
v -88.34619904 -47.49211884 1556.48278809
v -85.50038147 43.88083267 1555.78222656
v -86.42571259 46.00393295 1555.90319824
v -88.21334076 47.48471451 1556.24243164
v -88.34606171 47.48991776 1556.48303223
v -117.70153809 61.39837265 1554.75000000
v -119.46330261 62.14328766 1554.75000000
v -124.17828369 62.41078949 1554.75000000
v -119.65203094 59.65042114 1556.00000000
v -128.89999390 62.50000000 1554.75000000
v -124.27271271 59.91257095 1556.00000000
v -128.89999390 60.00000000 1556.00000000
v -147.44999695 60.00000000 1556.00000000
v -147.44999695 60.88944244 1555.55529785
v -157.37968445 52.00905609 1556.00000000
v -155.39642334 58.75215149 1556.00000000
v -155.37396240 58.79628372 1556.00000000
v -159.77809143 52.71447372 1554.75000000
v -155.43580627 59.72956467 1555.84326172
v -155.39489746 59.73155594 1555.85729980
v -155.35000610 59.73226929 1555.86230469
v -159.86936951 52.29558945 1554.75000000
v -157.39489746 51.93924332 1556.00000000
v -157.53338623 60.34650040 1554.75000000
v -155.41294861 60.26241302 1555.71142578
v -156.49598694 61.86892700 1554.74670410
v -157.39999390 51.86797333 1556.00000000
v -157.39999390 -51.86797333 1556.00000000
v -157.37968445 -52.00905609 1556.00000000
v -157.39489746 -51.93924332 1556.00000000
v -155.39642334 -58.75215149 1556.00000000
v -159.77809143 -52.71447372 1554.75000000
v -157.53338623 -60.34650040 1554.75000000
v -159.86936951 -52.29558945 1554.75000000
v -159.89999390 -51.86797333 1554.75000000
v -159.89999390 51.86797333 1554.75000000
v -119.65203094 -59.65042114 1556.00000000
v -117.70153809 -61.39837265 1554.75000000
v -124.27271271 -59.91257095 1556.00000000
v -119.46330261 -62.14328766 1554.75000000
v -128.89999390 -60.00000000 1556.00000000
v -124.17828369 -62.41078949 1554.75000000
v -128.89999390 -62.50000000 1554.75000000
v -147.44999695 -60.00000000 1556.00000000
v -155.37387085 -58.79638672 1556.00000000
v -155.43580627 -59.72956467 1555.84326172
v -156.40856934 -61.93433762 1554.74670410
v -155.39492798 -59.73155212 1555.85729980
v -155.41278076 -60.26587677 1555.71032715
v -155.39253235 -60.87884903 1555.46667480
v -154.65528870 -62.50000000 1554.75000000
v -155.26174927 -61.16893768 1555.36096191
v -154.96568298 -61.28808594 1555.34216309
v -154.81063843 -61.28911972 1555.35192871
v -154.65528870 -61.28944397 1555.35522461
v -155.35000610 -59.73226929 1555.86230469
v -147.57635498 -61.18122101 1555.40942383
v -149.08795166 -62.44442749 1554.77783203
v -153.71205139 62.44442749 1554.77783203
v -154.65528870 62.50000000 1554.75000000
v -155.39253235 60.87884903 1555.46667480
v -154.96568298 61.28808594 1555.34216309
v -155.26541138 61.16543198 1555.36193848
v -154.65528870 61.28944397 1555.35522461
v -154.81063843 61.28911972 1555.35192871
v -99.92449188 -44.47262955 1559.93750000
v -139.31842041 -44.47265244 1559.93750000
v -139.31842041 -44.18339920 1560.00000000
v -140.08210754 -43.41971970 1560.00000000
v -140.37135315 -43.41971970 1559.93750000
v -140.37135315 43.41764450 1559.93750000
v -140.08210754 43.41764450 1560.00000000
v -139.31842041 44.47057724 1559.93750000
v -99.92409515 44.47059631 1559.93737793
v -139.31842041 44.18132401 1560.00000000
v -87.21340942 -46.83463669 328.00000000
v -85.50038147 -43.88189316 328.00000000
v -85.50038147 43.88184738 328.00000000
v -87.21340942 46.83459473 328.00000000
v -87.21340942 46.83459473 1548.00000000
v -117.70279694 61.39723587 328.00000000
v -119.46330261 62.14328766 328.00000000
v -124.17828369 62.41078949 328.00000000
v -128.89999390 62.50000000 328.00000000
v -154.65528870 62.50000000 328.00000000
v -161.39999390 57.50000000 1548.00000000
v -160.98786926 57.91213226 1548.00000000
v -160.98786926 -57.91213226 1548.00000000
v -161.39999390 -57.50000000 1548.00000000
v -154.65528870 -62.50000000 328.00000000
v -117.70251465 -61.39698792 328.00000000
v -119.46330261 -62.14328766 328.00000000
v -124.17828369 -62.41078949 328.00000000
v -128.89999390 -62.50000000 328.00000000
v -242.01420593 -32.49607086 292.58578491
v -241.36537170 -32.49607086 292.15225220
v -240.60000610 -32.49607086 292.00000000
v -240.60000610 32.50392914 292.00000000
v -242.44775391 -32.49607086 293.23461914
v -242.44775391 -33.26143646 294.00000000
v -242.01420593 -33.91028214 294.00000000
v -241.36537170 -34.34382629 294.00000000
v -240.60000610 -33.26143646 292.15225220
v -82.40000153 -33.26143646 292.15225220
v -82.40000153 -32.49607086 292.00000000
v -82.40000153 32.50392914 292.00000000
v -241.36537170 32.50392914 292.15225220
v -242.01420593 32.50392914 292.58578491
v -242.44775391 32.50392914 293.23461914
v -240.60000610 -34.34382629 293.23461914
v -240.60000610 -33.91028214 292.58578491
v -82.40000153 -34.34382629 293.23461914
v -82.40000153 -33.91028214 292.58578491
v -81.63463593 -34.34382629 294.00000000
v -80.98578644 -33.91028214 294.00000000
v -80.55223846 -33.26143646 294.00000000
v -81.63463593 -32.49607086 292.15225220
v -81.63463593 32.50392914 292.15225220
v -80.55223846 -32.49607086 293.23461914
v -80.40000153 -32.49607086 294.00000000
v -80.98578644 -32.49607086 292.58578491
v -80.40000153 32.50392914 294.00000000
v -80.40000153 -32.49607086 328.00000000
v -80.55223846 32.50392914 293.23461914
v -80.98578644 32.50392914 292.58578491
v -80.55223846 33.26929855 294.00000000
v -80.98578644 33.91814423 294.00000000
v -81.63463593 34.35168839 294.00000000
v -82.40000153 33.26929855 292.15225220
v -240.60000610 33.26929855 292.15225220
v -80.40000153 32.50392914 328.00000000
v -82.40000153 34.35168839 293.23461914
v -82.40000153 33.91814423 292.58578491
v -240.60000610 34.35168839 293.23461914
v -240.60000610 33.91814423 292.58578491
v -241.36537170 34.35168839 294.00000000
v -242.01420593 33.91814423 294.00000000
v -242.44775391 33.26929855 294.00000000
v -78.53524780 -18.60618973 324.05676270
v -78.53524780 -19.21631050 323.00000000
v -78.53524780 -18.60618973 321.94323730
v -78.53524780 18.61405182 321.94323730
v -78.53524780 19.22417259 323.00000000
v -78.53524780 18.61405182 324.05676270
vn 0.98718511 -0.14142285 0.07392657
vn 0.99283562 -0.11848365 0.01546171
vn 0.99495727 -0.05751724 0.08216927
vn 0.99592783 0.08867429 0.01626720
vn 0.99626944 0.04848439 0.07138959
vn 0.07370642 -0.83238438 -0.54927552
vn -0.02985587 -0.82823390 -0.55958666
vn -0.77443775 -0.61876185 -0.13183303
vn -0.77441497 0.61879062 -0.13183178
vn -0.99974048 0.00002032 0.02278086
vn -0.99933585 -0.02537608 0.02615181
vn -0.99962109 -0.00851487 0.02617568
vn -0.99306736 0.09594679 0.06790755
vn -0.99815240 0.00081223 0.06075471
vn -0.99318895 -0.09491710 0.06757551
vn -0.78396354 -0.62073107 0.00970085
vn -0.78394111 0.62075919 0.00971460
vn 0.41565297 -0.05339780 0.90795445
vn 0.79210340 -0.11357653 0.59972709
vn 0.15635722 -0.01474375 0.98759052
vn 0.93121209 0.00133393 0.36447531
vn 0.73495975 -0.04283170 0.67675669
vn 0.25542785 -0.02954685 0.96637653
vn 0.20085524 -0.13792277 0.96986313
vn 0.25511997 -0.03326479 0.96633703
vn 0.96829626 -0.16564060 0.18699078
vn 0.97393263 -0.22653111 0.01178505
vn 0.55897737 -0.00000000 0.82918291
vn 0.97071267 0.16023145 0.17900499
vn 0.74182582 0.04351146 0.66917950
vn 0.19498122 0.00000280 0.98080698
vn 0.41598364 0.05363130 0.90778924
vn 0.15635972 0.01474172 0.98759016
vn 0.79273599 0.11369446 0.59886828
vn 0.97989216 0.19943583 0.00605860
vn 0.50517594 -0.25690187 0.82389241
vn 0.23066856 -0.13830873 0.96315248
vn 0.30906426 -0.18283725 0.93330050
vn 0.14544888 -0.32643540 0.93396175
vn 0.40934880 -0.09858990 0.90703561
vn 0.48053282 -0.57395178 0.66307433
vn 0.27301006 -0.38894341 0.87987984
vn 0.11355352 -0.13102922 0.98485377
vn 0.27987008 -0.04378556 0.95903887
vn 0.06709985 -0.00000353 0.99774627
vn 0.02627469 -0.10458805 0.99416849
vn 0.50529973 0.25678292 0.82385358
vn 0.20091616 0.13797394 0.96984323
vn 0.40935945 0.09853043 0.90703726
vn 0.27855140 0.04334890 0.95944254
vn 0.25492004 0.03146061 0.96645021
vn 0.23073081 0.13808785 0.96316927
vn 0.27420670 0.38951607 0.87925418
vn 0.30910677 0.18280946 0.93329187
vn 0.14539121 0.32640163 0.93398253
vn 0.02638024 0.10480099 0.99414327
vn 0.11370254 0.13101169 0.98483891
vn 0.76746032 0.23492747 0.59650125
vn 0.48169815 0.57690621 0.65965606
vn 0.76746234 -0.23477337 0.59655932
vn 0.78168143 -0.55324389 0.28791550
vn 0.93881797 -0.30499722 0.15999221
vn 0.55355462 -0.81743639 0.15929538
vn 0.64000634 -0.76836923 0.00077831
vn 0.46306985 -0.79544081 0.39094787
vn 0.93905402 0.30456804 0.15942352
vn 0.78144156 0.55359619 0.28788946
vn 0.55336638 0.81756143 0.15930772
vn 0.46302771 0.79632100 0.38920201
vn 0.37927764 0.86829359 0.31971036
vn 0.18652858 0.84767503 0.49664286
vn 0.03219744 0.85177156 0.52292306
vn 0.06385858 0.37251115 0.92582802
vn 0.00803041 0.85148686 0.52431445
vn 0.01185376 0.35474765 0.93488694
vn 0.00252325 0.34970681 0.93685579
vn -0.00885732 0.34098329 0.94002763
vn -0.00000017 0.44720001 0.89443398
vn -0.32205755 0.08263856 0.94310646
vn -0.30111385 0.10449796 0.94784525
vn -0.19134000 0.13197108 0.97261125
vn -0.71780790 0.17738985 0.67326419
vn -0.37239070 0.17967174 0.91051811
vn -0.21922518 0.19747610 0.95548078
vn -0.07777453 0.21750316 0.97295606
vn -0.76268749 0.09471090 0.63979499
vn -0.33366420 0.04940857 0.94139630
vn -0.69461371 0.35881702 0.62350792
vn -0.20608716 0.29415138 0.93327544
vn -0.49447303 0.70471695 0.50879312
vn -0.33874404 0.01326501 0.94078505
vn -0.33874467 -0.01326481 0.94078483
vn -0.32206015 -0.08263901 0.94310554
vn -0.33366600 -0.04940844 0.94139567
vn -0.30106564 -0.10453611 0.94785636
vn -0.71780790 -0.17738985 0.67326419
vn -0.69377799 -0.36803936 0.61904695
vn -0.76268749 -0.09471090 0.63979499
vn -0.78674879 -0.01954755 0.61696372
vn -0.78674879 0.01954755 0.61696372
vn 0.06385113 -0.37252974 0.92582106
vn 0.37927676 -0.86833401 0.31960161
vn 0.01185417 -0.35476675 0.93487969
vn 0.18652391 -0.84767759 0.49664025
vn 0.00252264 -0.34972262 0.93684990
vn 0.03219744 -0.85177156 0.52292306
vn 0.00803052 -0.85148689 0.52431439
vn -0.00885876 -0.34099546 0.94002320
vn -0.19111809 -0.13198977 0.97265234
vn -0.37245932 -0.17984630 0.91045558
vn -0.48267698 -0.71420526 0.50688635
vn -0.21931524 -0.19764591 0.95542499
vn -0.20675683 -0.29502168 0.93285252
vn -0.17192091 -0.37739113 0.90995557
vn -0.12625143 -0.85697529 0.49965382
vn -0.14178804 -0.41851384 0.89707431
vn -0.08826213 -0.41796956 0.90416328
vn -0.03829043 -0.39971674 0.91583861
vn -0.01464499 -0.40336130 0.91492360
vn -0.07776463 -0.21763616 0.97292711
vn -0.00000296 -0.44719924 0.89443437
vn -0.00000271 -0.44750109 0.89428339
vn -0.00001237 0.44748189 0.89429300
vn -0.13304854 0.85681556 0.49816180
vn -0.17281973 0.37790300 0.90957279
vn -0.08866682 0.41806188 0.90408100
vn -0.14567072 0.42031443 0.89560919
vn -0.01464895 0.40335789 0.91492503
vn -0.03830632 0.39965458 0.91586508
vn 0.05078118 -0.27654534 0.95965825
vn -0.01899227 -0.22358548 0.97449927
vn -0.03790205 -0.11192547 0.99299352
vn -0.11096532 -0.03744056 0.99311878
vn -0.21572573 -0.01271904 0.97637116
vn -0.21572596 0.01271549 0.97637115
vn -0.11096384 0.03743667 0.99311909
vn -0.01898203 0.22357376 0.97450216
vn 0.05073715 0.27658429 0.95964935
vn -0.03789735 0.11192257 0.99299402
vn 0.65167070 -0.75352382 -0.08675915
vn 0.88435080 -0.46672782 -0.00942389
vn 0.88429345 0.46683721 -0.00938681
vn 0.65168417 0.75352245 -0.08666977
vn 0.63978261 0.76855553 0.00077806
vn 0.40059481 0.90428159 -0.14764348
vn 0.18337656 0.94473952 -0.27173568
vn 0.03196929 0.94647528 -0.32118920
vn 0.00693326 0.94372302 -0.33066416
vn -0.07500209 0.95040154 -0.30184698
vn -0.91770973 0.36584059 0.15482093
vn -0.70147714 0.71117284 0.04650819
vn -0.70079058 -0.71179656 0.04730980
vn -0.91758666 -0.36605984 0.15503199
vn -0.09739953 -0.97348566 -0.20697587
vn 0.40062481 -0.90425730 -0.14771082
vn 0.21082907 -0.95620241 -0.20304693
vn 0.03649878 -0.97665737 -0.21167952
vn 0.00810281 -0.97663181 -0.21476649
vn -0.68200987 -0.26403334 -0.68201828
vn -0.40879909 -0.20805738 -0.88859183
vn -0.09699046 -0.09699046 -0.99054818
vn -0.09699047 0.09698999 -0.99054823
vn -0.88390656 -0.20732409 -0.41919675
vn -0.84049667 -0.41211864 -0.35174362
vn -0.64571595 -0.64814274 -0.40368540
vn -0.39924876 -0.85226853 -0.33799229
vn -0.20805693 -0.40879532 -0.88859366
vn 0.20805649 -0.40879525 -0.88859380
vn 0.09699046 -0.09699046 -0.99054818
vn 0.09699047 0.09698999 -0.99054823
vn -0.40879916 0.20805679 -0.88859193
vn -0.68200998 0.26403277 -0.68201839
vn -0.88390667 0.20732350 -0.41919681
vn -0.27347827 -0.85677179 -0.43720904
vn -0.27690243 -0.67152598 -0.68729754
vn 0.32330929 -0.81711593 -0.47727630
vn 0.28445983 -0.66264090 -0.69281285
vn 0.46582181 -0.81399454 -0.34702007
vn 0.68715557 -0.65152847 -0.32144653
vn 0.89027507 -0.39917361 -0.21925039
vn 0.40879400 -0.20805634 -0.88859441
vn 0.40879401 0.20805538 -0.88859463
vn 0.88859115 -0.20806079 -0.40879882
vn 0.98829477 -0.10683124 -0.10890610
vn 0.68200639 -0.26403338 -0.68202175
vn 0.98829482 0.10683077 -0.10890610
vn 0.97964458 -0.20073716 0.00104426
vn 0.88859125 0.20806021 -0.40879889
vn 0.68200655 0.26403277 -0.68202182
vn 0.89027147 0.39919417 -0.21922758
vn 0.68716635 0.65155168 -0.32137645
vn 0.46581700 0.81403440 -0.34693302
vn 0.20805697 0.40879486 -0.88859387
vn -0.20805779 0.40879498 -0.88859362
vn 0.97966496 0.20063685 0.00119511
vn 0.30388750 0.82067279 -0.48388899
vn 0.27529009 0.67052205 -0.68892347
vn -0.26603445 0.85731616 -0.44072064
vn -0.27199883 0.67514277 -0.68571049
vn -0.39924871 0.85226858 -0.33799222
vn -0.64571601 0.64814251 -0.40368568
vn -0.84049670 0.41211798 -0.35174433
vn 0.99999969 -0.00057406 0.00053001
vn 0.99756210 -0.06958905 -0.00521770
vn 0.99920094 -0.02127721 -0.03383431
vn 0.99920094 0.02127722 -0.03383431
vn 0.99755962 0.06963165 -0.00512202
vn 0.99999969 0.00057838 0.00053206
f 4//4 208//208 207//207
f 5//5 208//208 4//4
f 142//142 190//190 143//143
f 13//13 14//14 150//150
f 150//150 14//14 153//153
f 115//115 108//108 119//119
f 201//201 172//172 173//173
f 102//102 104//104 156//156
f 156//156 155//155 102//102
f 187//187 204//204 2//2
f 204//204 203//203 2//2
f 195//195 4//4 207//207
f 145//145 192//192 146//146
f 143//143 192//192 145//145
f 143//143 190//190 191//191
f 191//191 192//192 143//143
f 16//16 10//10 17//17
f 17//17 10//10 14//14
f 14//14 13//13 17//17
f 17//17 13//13 150//150
f 16//16 14//14 12//12
f 14//14 10//10 12//12
f 16//16 115//115 111//111
f 15//15 14//14 16//16
f 16//16 153//153 15//15
f 15//15 153//153 14//14
f 173//173 9//9 202//202
f 202//202 201//201 173//173
f 9//9 201//201 202//202
f 172//172 201//201 199//199
f 188//188 191//191 190//190
f 180//180 141//141 140//140
f 147//147 197//197 148//148
f 146//146 197//197 147//147
f 3//3 2//2 203//203
f 187//187 2//2 62//62
f 62//62 180//180 187//187
f 31//31 45//45 20//20
f 186//186 195//195 207//207
f 190//190 195//195 186//186
f 207//207 206//206 186//186
f 186//186 188//188 190//190
f 192//192 191//191 196//196
f 191//191 197//197 196//196
f 146//146 192//192 196//196
f 196//196 197//197 146//146
f 11//11 10//10 16//16
f 16//16 12//12 11//11
f 11//11 12//12 10//10
f 152//152 153//153 16//16
f 16//16 111//111 152//152
f 152//152 111//111 153//153
f 116//116 111//111 115//115
f 121//121 108//108 115//115
f 115//115 122//122 121//121
f 108//108 121//121 105//105
f 105//105 106//106 103//103
f 105//105 121//121 122//122
f 101//101 106//106 104//104
f 103//103 106//106 101//101
f 172//172 199//199 171//171
f 9//9 149//149 198//198
f 149//149 199//199 198//198
f 198//198 199//199 201//201
f 184//184 204//204 187//187
f 187//187 180//180 184//184
f 184//184 205//205 204//204
f 179//179 180//180 140//140
f 176//176 177//177 179//179
f 179//179 177//177 185//185
f 140//140 64//64 63//63
f 63//63 155//155 140//140
f 63//63 102//102 155//155
f 46//46 20//20 45//45
f 22//22 28//28 31//31
f 31//31 20//20 22//22
f 22//22 26//26 3//3
f 189//189 193//193 197//197
f 189//189 197//197 191//191
f 191//191 188//188 189//189
f 151//151 17//17 150//150
f 117//117 116//116 115//115
f 116//116 117//117 114//114
f 111//111 116//116 114//114
f 153//153 111//111 97//97
f 107//107 105//105 122//122
f 106//106 105//105 107//107
f 162//162 171//171 194//194
f 194//194 171//171 199//199
f 200//200 201//201 9//9
f 9//9 198//198 200//200
f 200//200 198//198 201//201
f 154//154 8//8 174//174
f 154//154 174//174 7//7
f 7//7 174//174 175//175
f 183//183 184//184 180//180
f 183//183 179//179 185//185
f 180//180 179//179 183//183
f 140//140 155//155 178//178
f 178//178 179//179 140//140
f 176//176 179//179 178//178
f 178//178 155//155 156//156
f 156//156 176//176 178//178
f 78//78 77//77 76//76
f 76//76 77//77 137//137
f 72//72 74//74 76//76
f 61//61 63//63 64//64
f 180//180 62//62 61//61
f 61//61 64//64 140//140
f 140//140 141//141 61//61
f 141//141 180//180 61//61
f 104//104 102//102 41//41
f 2//2 3//3 1//1
f 1//1 26//26 2//2
f 3//3 26//26 1//1
f 27//27 62//62 2//2
f 2//2 26//26 27//27
f 27//27 26//26 62//62
f 20//20 46//46 43//43
f 103//103 101//101 130//130
f 130//130 105//105 103//103
f 130//130 43//43 46//46
f 31//31 28//28 30//30
f 31//31 30//30 33//33
f 33//33 30//30 32//32
f 33//33 45//45 31//31
f 56//56 137//137 139//139
f 45//45 33//33 56//56
f 56//56 33//33 57//57
f 71//71 72//72 73//73
f 146//146 71//71 70//70
f 70//70 145//145 146//146
f 182//182 170//170 193//193
f 193//193 189//189 182//182
f 118//118 119//119 108//108
f 115//115 119//119 118//118
f 118//118 117//117 115//115
f 132//132 133//133 109//109
f 153//153 97//97 96//96
f 100//100 86//86 150//150
f 90//90 151//151 150//150
f 17//17 151//151 90//90
f 6//6 176//176 156//156
f 6//6 177//177 176//176
f 156//156 157//157 6//6
f 6//6 157//157 158//158
f 175//175 174//174 165//165
f 163//163 159//159 165//165
f 165//165 159//159 175//175
f 102//102 63//63 65//65
f 65//65 41//41 102//102
f 63//63 61//61 65//65
f 61//61 41//41 65//65
f 42//42 101//101 104//104
f 104//104 41//41 42//42
f 36//36 41//41 61//61
f 36//36 42//42 41//41
f 108//108 105//105 131//131
f 105//105 130//130 131//131
f 131//131 46//46 132//132
f 131//131 130//130 46//46
f 25//25 20//20 44//44
f 26//26 22//22 19//19
f 5//5 30//30 21//21
f 21//21 30//30 28//28
f 21//21 3//3 5//5
f 28//28 22//22 21//21
f 21//21 22//22 3//3
f 29//29 30//30 5//5
f 5//5 4//4 29//29
f 57//57 33//33 48//48
f 33//33 50//50 48//48
f 51//51 33//33 32//32
f 32//32 50//50 51//51
f 51//51 50//50 33//33
f 75//75 72//72 76//76
f 75//75 73//73 72//72
f 71//71 73//73 53//53
f 175//175 159//159 160//160
f 167//167 160//160 161//161
f 175//175 160//160 167//167
f 94//94 133//133 134//134
f 86//86 100//100 87//87
f 88//88 90//90 150//150
f 17//17 90//90 124//124
f 8//8 163//163 164//164
f 164//164 165//165 8//8
f 163//163 165//165 164//164
f 166//166 174//174 8//8
f 8//8 165//165 166//166
f 166//166 165//165 174//174
f 44//44 20//20 24//24
f 20//20 43//43 24//24
f 39//39 130//130 101//101
f 101//101 42//42 39//39
f 42//42 24//24 39//39
f 43//43 130//130 39//39
f 39//39 24//24 43//43
f 108//108 131//131 120//120
f 132//132 109//109 120//120
f 120//120 131//131 132//132
f 20//20 25//25 23//23
f 18//18 19//19 22//22
f 18//18 22//22 20//20
f 20//20 23//23 18//18
f 18//18 25//25 44//44
f 18//18 23//23 25//25
f 32//32 30//30 34//34
f 30//30 29//29 34//34
f 29//29 58//58 34//34
f 66//66 195//195 190//190
f 66//66 58//58 29//29
f 54//54 53//53 52//52
f 52//52 53//53 48//48
f 57//57 48//48 55//55
f 55//55 53//53 73//73
f 48//48 53//53 55//55
f 49//49 50//50 32//32
f 49//49 48//48 50//50
f 32//32 34//34 49//49
f 49//49 34//34 58//58
f 69//69 70//70 59//59
f 71//71 53//53 59//59
f 59//59 70//70 71//71
f 169//169 181//181 168//168
f 168//168 181//181 185//185
f 185//185 177//177 168//168
f 95//95 109//109 133//133
f 98//98 94//94 99//99
f 96//96 94//94 98//98
f 98//98 99//99 153//153
f 153//153 96//96 98//98
f 91//91 87//87 100//100
f 79//79 87//87 136//136
f 86//86 87//87 82//82
f 82//82 87//87 79//79
f 150//150 86//86 82//82
f 82//82 88//88 150//150
f 74//74 124//124 123//123
f 77//77 78//78 123//123
f 76//76 74//74 123//123
f 123//123 78//78 76//76
f 42//42 36//36 38//38
f 113//113 118//118 108//108
f 108//108 120//120 113//113
f 113//113 114//114 117//117
f 117//117 118//118 113//113
f 111//111 114//114 113//113
f 113//113 97//97 111//111
f 19//19 18//18 40//40
f 40//40 18//18 44//44
f 44//44 24//24 40//40
f 40//40 24//24 36//36
f 195//195 66//66 35//35
f 35//35 66//66 29//29
f 4//4 195//195 35//35
f 35//35 29//29 4//4
f 67//67 142//142 143//143
f 143//143 144//144 67//67
f 67//67 66//66 190//190
f 190//190 142//142 67//67
f 69//69 59//59 67//67
f 58//58 66//66 67//67
f 57//57 55//55 138//138
f 138//138 55//55 73//73
f 138//138 56//56 57//57
f 73//73 75//75 138//138
f 138//138 75//75 76//76
f 76//76 137//137 138//138
f 137//137 56//56 138//138
f 47//47 49//49 58//58
f 58//58 67//67 47//47
f 47//47 67//67 59//59
f 54//54 52//52 47//47
f 47//47 53//53 54//54
f 47//47 59//59 53//53
f 47//47 52//52 48//48
f 48//48 49//49 47//47
f 133//133 94//94 93//93
f 93//93 95//95 133//133
f 93//93 94//94 96//96
f 112//112 120//120 109//109
f 109//109 95//95 112//112
f 112//112 113//113 120//120
f 92//92 94//94 134//134
f 99//99 94//94 92//92
f 87//87 91//91 135//135
f 135//135 136//136 87//87
f 90//90 88//88 89//89
f 79//79 136//136 80//80
f 36//36 24//24 37//37
f 37//37 38//38 36//36
f 37//37 24//24 42//42
f 42//42 38//38 37//37
f 60//60 40//40 36//36
f 60//60 61//61 62//62
f 60//60 36//36 61//61
f 19//19 40//40 60//60
f 62//62 26//26 60//60
f 26//26 19//19 60//60
f 69//69 67//67 68//68
f 68//68 67//67 144//144
f 68//68 144//144 143//143
f 143//143 145//145 68//68
f 145//145 70//70 68//68
f 68//68 70//70 69//69
f 110//110 112//112 95//95
f 95//95 93//93 110//110
f 97//97 113//113 110//110
f 113//113 112//112 110//110
f 110//110 96//96 97//97
f 110//110 93//93 96//96
f 83//83 89//89 88//88
f 84//84 89//89 83//83
f 83//83 80//80 84//84
f 79//79 80//80 83//83
f 83//83 82//82 79//79
f 88//88 82//82 83//83
f 127//127 124//124 90//90
f 77//77 89//89 85//85
f 85//85 89//89 84//84
f 85//85 137//137 77//77
f 139//139 137//137 85//85
f 81//81 136//136 139//139
f 81//81 80//80 136//136
f 84//84 80//80 81//81
f 139//139 85//85 81//81
f 81//81 85//85 84//84
f 90//90 89//89 125//125
f 125//125 127//127 90//90
f 77//77 123//123 128//128
f 128//128 123//123 124//124
f 124//124 127//127 126//126
f 126//126 125//125 89//89
f 127//127 125//125 126//126
f 129//129 128//128 124//124
f 124//124 126//126 129//129
f 129//129 126//126 89//89
f 129//129 89//89 77//77
f 77//77 128//128 129//129
f 8//8 115//115 16//16
f 154//154 115//115 8//8
f 205//205 203//203 204//204
f 207//207 208//208 205//205
f 208//208 203//203 205//205
f 205//205 206//206 207//207
f 17//17 8//8 16//16
f 17//17 9//9 8//8
f 199//199 149//149 148//148
f 148//148 197//197 199//199
f 3//3 203//203 208//208
f 3//3 208//208 5//5
f 104//104 106//106 157//157
f 156//156 104//104 157//157
f 206//206 205//205 184//184
f 184//184 186//186 206//206
f 107//107 122//122 115//115
f 107//107 115//115 154//154
f 154//154 158//158 107//107
f 107//107 157//157 106//106
f 158//158 157//157 107//107
f 193//193 170//170 194//194
f 194//194 170//170 162//162
f 194//194 199//199 197//197
f 197//197 193//193 194//194
f 8//8 9//9 163//163
f 163//163 9//9 173//173
f 159//159 163//163 173//173
f 173//173 172//172 159//159
f 185//185 189//189 183//183
f 183//183 189//189 188//188
f 186//186 184//184 183//183
f 188//188 186//186 183//183
f 146//146 147//147 72//72
f 72//72 71//71 146//146
f 148//148 74//74 72//72
f 72//72 147//147 148//148
f 161//161 170//170 169//169
f 162//162 170//170 161//161
f 153//153 99//99 100//100
f 150//150 153//153 100//100
f 6//6 175//175 177//177
f 6//6 7//7 175//175
f 6//6 158//158 154//154
f 154//154 7//7 6//6
f 160//160 159//159 172//172
f 172//172 171//171 160//160
f 162//162 161//161 160//160
f 160//160 171//171 162//162
f 181//181 189//189 185//185
f 181//181 182//182 189//189
f 169//169 170//170 181//181
f 170//170 182//182 181//181
f 148//148 149//149 124//124
f 124//124 74//74 148//148
f 9//9 17//17 124//124
f 124//124 149//149 9//9
f 177//177 175//175 168//168
f 175//175 167//167 168//168
f 168//168 161//161 169//169
f 168//168 167//167 161//161
f 136//136 56//56 139//139
f 132//132 46//46 136//136
f 136//136 46//46 45//45
f 136//136 133//133 132//132
f 45//45 56//56 136//136
f 92//92 100//100 99//99
f 92//92 91//91 100//100
f 91//91 92//92 135//135
f 135//135 92//92 134//134
f 133//133 136//136 135//135
f 134//134 133//133 135//135

