# Generated by tests/generate_shelf_mesh.py; do not edit manually.
o shelf
# part: level_1
v -0.190000 -0.380000 0.405000
v 0.190000 -0.380000 0.405000
v 0.190000 0.380000 0.405000
v -0.190000 0.380000 0.405000
v -0.190000 -0.380000 0.455000
v 0.190000 -0.380000 0.455000
v 0.190000 0.380000 0.455000
v -0.190000 0.380000 0.455000
f 1 4 3 2
f 5 6 7 8
f 1 2 6 5
f 2 3 7 6
f 3 4 8 7
f 4 1 5 8
# part: level_2
v -0.190000 -0.380000 0.730000
v 0.190000 -0.380000 0.730000
v 0.190000 0.380000 0.730000
v -0.190000 0.380000 0.730000
v -0.190000 -0.380000 0.780000
v 0.190000 -0.380000 0.780000
v 0.190000 0.380000 0.780000
v -0.190000 0.380000 0.780000
f 9 12 11 10
f 13 14 15 16
f 9 10 14 13
f 10 11 15 14
f 11 12 16 15
f 12 9 13 16
# part: level_3
v -0.190000 -0.380000 1.055000
v 0.190000 -0.380000 1.055000
v 0.190000 0.380000 1.055000
v -0.190000 0.380000 1.055000
v -0.190000 -0.380000 1.105000
v 0.190000 -0.380000 1.105000
v 0.190000 0.380000 1.105000
v -0.190000 0.380000 1.105000
f 17 20 19 18
f 21 22 23 24
f 17 18 22 21
f 18 19 23 22
f 19 20 24 23
f 20 17 21 24
