# Convex 10-sided mobile-base proxy in base_link coordinates (meters).
o base_chassis_collision
v -0.410 -0.060 0.020
v -0.380 -0.220 0.020
v -0.105 -0.310 0.020
v  0.185 -0.310 0.020
v  0.235 -0.265 0.020
v  0.235  0.265 0.020
v  0.185  0.310 0.020
v -0.105  0.310 0.020
v -0.380  0.220 0.020
v -0.410  0.060 0.020
v -0.410 -0.060 0.470
v -0.380 -0.220 0.470
v -0.105 -0.310 0.470
v  0.185 -0.310 0.470
v  0.235 -0.265 0.470
v  0.235  0.265 0.470
v  0.185  0.310 0.470
v -0.105  0.310 0.470
v -0.380  0.220 0.470
v -0.410  0.060 0.470
f 1 3 2
f 1 4 3
f 1 5 4
f 1 6 5
f 1 7 6
f 1 8 7
f 1 9 8
f 1 10 9
f 11 12 13
f 11 13 14
f 11 14 15
f 11 15 16
f 11 16 17
f 11 17 18
f 11 18 19
f 11 19 20
f 1 2 12 11
f 2 3 13 12
f 3 4 14 13
f 4 5 15 14
f 5 6 16 15
f 6 7 17 16
f 7 8 18 17
f 8 9 19 18
f 9 10 20 19
f 10 1 11 20
